<?xml version="1.0" encoding="utf-8"?>
<svg id="alipay" viewBox="0 0 1024 1024" version="1.1" xmlns="http://www.w3.org/2000/svg" xmlns:xlink="http://www.w3.org/1999/xlink">
  <path d="M959.6 128c-4-36-34.5-64-71.6-64H136c-39.8 0-72 32.2-72 72V888c0 39.8 32.2 72 72 72H888c39.8 0 72-32.2 72-72v-69h-2.8c0.1-0.3 0.1-0.6 0.2-0.8-45.7-19.8-243.7-105.3-346.9-154.5-78.5 95.1-160.7 152.2-284.7 152.2s-206.6-76.3-196.7-169.7c6.6-61.3 48.6-161.6 231.3-144.4 96.3 9 140.3 27 218.8 52.9 20.3-37.2 37.2-78.2 50-121.8H281.1v-34.5h172.2v-61.9H243.2v-38h210.1V209s1.9-14 17.3-14h86.2v103.4h224v38h-224v61.9h182.7c-16.8 68.4-42.3 131.2-74.2 186.1 53.1 19.2 294.7 93.1 294.7 93.1V128h-0.4z"></path>
  <path d="M167.4 639.4c-7 34.5 13.8 117.2 144.7 117.2 80.6 0 158.3-49 221.4-131.3-90-43.7-164.9-65.2-248.5-65.2-72.8 0-110.8 44.9-117.6 79.3z"></path>
</svg>