<?xml version="1.0" encoding="utf-8"?>
<!-- Generator: Adobe Illustrator 21.0.0, SVG Export Plug-In . SVG Version: 6.00 Build 0)  -->
<svg version="1.1" id="图层_1" xmlns="http://www.w3.org/2000/svg" xmlns:xlink="http://www.w3.org/1999/xlink" x="0px" y="0px"
	 viewBox="0 0 1024 1024" style="enable-background:new 0 0 1024 1024;" xml:space="preserve">
<style type="text/css">
	.st0{fill:none;}
</style>
<title>alipay</title>
<desc>Created with Sketch.</desc>
<g>
	<path class="st0" d="M227.6,528.6c-24.2,2.4-69.6,13.1-94.4,35c-74.4,64.7-29.9,183.1,120.6,183.1c87.5,0,174.9-55.8,243.6-145.2
		C399.8,553.8,317,519.7,227.6,528.6z"/>
	<path d="M789,610.3c-38.7-12.9-90.7-32.7-148.5-53.6c34.8-60.3,62.5-129,80.7-203.6H530.5v-68.6h233.6v-38.3H530.5V132h-95.4
		c-16.7,0-16.7,16.5-16.7,16.5v97.8H182.2v38.3h236.3v68.6H223.4v38.3h378.4c-13.8,47.6-32.4,92.3-54.5,132.9
		c-122.8-40.4-253.8-73.2-336.1-53c-52.6,13-86.5,36.1-106.5,60.3c-91.4,111-25.9,279.6,167.2,279.6C386,811.2,496,747.6,581.2,643
		C708.3,704,960,808.7,960,808.7V659.4C960,659.4,928.4,656.9,789,610.3z M253.9,746.6c-150.5,0-195-118.3-120.6-183.1
		c24.8-21.9,70.2-32.6,94.4-35c89.4-8.8,172.2,25.2,269.9,72.8C428.8,690.8,341.3,746.6,253.9,746.6z"/>
</g>
</svg>
