<?xml version="1.0" encoding="utf-8"?>

<svg id="alipay-circle" viewBox="0 0 1024 1024">
  <path d="M230.404 576.536c-12.087 9.728-25.043 23.93-28.805 41.984-5.12 24.666-1.069 55.541 22.728 79.761 28.828 29.362 72.637 37.398 91.56 38.779 51.4 3.717 106.184-21.772 147.477-50.844 16.184-11.42 43.899-34.349 70.39-69.721-59.37-30.653-133.477-64.557-212.703-61.24-40.47 1.692-69.454 10.084-90.647 21.281z m752.859 135.545C1009.463 650.574 1024 582.968 1024 512 1024 229.688 794.335 0 512 0 229.665 0 0 229.688 0 512c0 282.335 229.665 512 512 512 170.385 0 321.491-83.723 414.631-212.124-87.997-43.742-233.027-115.734-322.36-159.299-42.63 48.596-105.65 97.303-176.84 118.495-44.722 13.29-85.037 18.365-127.199 9.75-41.739-8.548-72.481-28.093-90.401-47.683-9.127-9.995-19.612-22.706-27.203-37.82a71.25 71.25 0 0 0 1.202 3.049s-4.363-7.524-7.702-19.5a85.994 85.994 0 0 1-3.34-18.143 93.517 93.517 0 0 1-0.2-13.045c-0.378-7.702-0.066-15.783 1.67-24.064 4.185-20.235 12.822-43.81 35.172-65.692 49.063-48.039 114.777-50.621 148.814-50.42 50.421 0.289 138.04 22.35 211.812 48.439 20.436-43.52 33.547-90.068 42.007-121.1H305.308v-33.168h157.518v-66.337H272.139v-33.169h190.687v-66.315c0-9.105 1.803-16.584 16.584-16.584h74.619v82.899h207.293v33.169H554.029v66.337h165.82s-16.65 92.828-68.719 184.32c115.557 41.272 278.128 104.849 332.133 126.086z"></path>
</svg>