<?xml version="1.0" encoding="utf-8"?>

<svg id="aliwangwang-o" viewBox="0 0 1024 1024">
  <path d="M985 336.2c-24.7-58.9-60.5-111.8-106.1-157.5-45.4-45.4-98.5-81.1-157.5-106.1-61-25.8-125.9-38.9-192.8-38.9-54.8 0-108.3 8.8-159.3 26.1C250.2 4.3 112.7 0 73.3 0c-2.9 0-9.7 0-12.3 0.2-15.5 0.5-29.8 8.5-38.2 21.4-8.5 12.9-10.1 29.3-4.4 43.7l84 211.1c-45.2 76.2-69 163.4-69 252.4 0 67.1 13.1 131.9 38.9 192.8C97 780.4 132.7 833.4 178.4 879c45.4 45.4 98.5 81.1 157.5 106.1 61.1 25.9 126 38.9 192.8 38.9 67 0 131.9-13.2 193-38.9C780.4 960.4 833.4 924.6 879 879c45.4-45.4 81.1-98.5 106.1-157.5 25.9-61 38.9-126 38.9-192.8-0.1-66.9-13.1-131.7-39-192.5z m-66.2 357.3c-21.3 50.5-51.9 95.8-90.7 134.6-39.1 39.1-84.3 69.6-134.4 90.6h-0.2c-52.3 22-107.8 33.2-165 33.2s-112.6-11.2-164.7-33.2c-50.5-21.3-95.8-51.9-134.6-90.7-39.1-39.1-69.6-84.3-90.6-134.4v-0.2c-22-52-33.2-107.4-33.2-164.7 0-76.1 20.4-150.7 58.9-215.7l18.1-30.4-13.1-32.9L98.8 72.6c20.5 0.8 49.4 2.9 82.1 7.7 60.3 8.9 113.5 24 158.1 44.8l26.2 12.2 27.4-9.3c43.4-14.8 89.2-22.2 136.1-22.2 57.3 0 112.7 11.2 164.7 33.2 50.5 21.3 95.8 51.9 134.6 90.7 39.1 39.1 69.6 84.3 90.6 134.4l0.1 0.1 0.1 0.1c22 51.7 33.2 107.1 33.3 164.6-0.1 57.2-11.3 112.6-33.3 164.6z"></path>
  <path d="M511.5 318.9c-26.8 0-48.5 21.8-48.5 48.5v72c0 26.7 21.8 48.5 48.5 48.5 26.8 0 48.5-21.8 48.5-48.5v-72c0-26.8-21.8-48.5-48.5-48.5zM740.5 318.9c-26.7 0-48.5 21.8-48.5 48.5v72c0 26.7 21.7 48.5 48.5 48.5s48.5-21.8 48.5-48.5v-72c0-26.8-21.8-48.5-48.5-48.5z"></path>
</svg>