<?xml version="1.0" encoding="utf-8"?>

<svg id="aliwangwang" viewBox="0 0 1024 1024">
  <path d="M985 336.2c-24.7-58.9-60.5-111.8-106.1-157.5-45.4-45.4-98.5-81.1-157.5-106.1-61-25.9-125.9-38.9-192.8-38.9-54.8 0-108.3 8.8-159.3 26.1C250.2 4.3 112.7 0 73.3 0c-2.9 0-9.7 0-12.3 0.2-15.5 0.5-29.8 8.5-38.2 21.4-8.5 12.9-10.1 29.3-4.4 43.7l84 211.1c-45.2 76.2-69 163.4-69 252.4 0 67.1 13.1 131.9 38.9 192.8C97 780.4 132.7 833.4 178.4 879c45.4 45.4 98.5 81.1 157.5 106.1 61.1 25.9 126 38.9 192.8 38.9 67 0 131.9-13.1 193-38.9C780.4 960.4 833.4 924.6 879 879c45.4-45.4 81.1-98.5 106.1-157.5 25.9-61 38.9-126 38.9-192.8-0.1-66.9-13.1-131.7-39-192.5zM560 439.4c0 26.7-21.7 48.5-48.5 48.5-26.7 0-48.5-21.8-48.5-48.5v-72c0-26.7 21.7-48.5 48.5-48.5 26.7 0 48.5 21.7 48.5 48.5v72z m229 0c0 26.7-21.7 48.5-48.5 48.5S692 466.1 692 439.4v-72c0-26.7 21.8-48.5 48.5-48.5s48.5 21.7 48.5 48.5v72z"></path>
</svg>