<?xml version="1.0" encoding="utf-8"?>
<!-- Generator: Adobe Illustrator 21.0.0, SVG Export Plug-In . SVG Version: 6.00 Build 0)  -->
<svg version="1.1" id="图层_1" xmlns="http://www.w3.org/2000/svg" xmlns:xlink="http://www.w3.org/1999/xlink" x="0px" y="0px"
	 viewBox="0 0 1024 1024" style="enable-background:new 0 0 1024 1024;" xml:space="preserve">
<style type="text/css">
	.st0{fill:none;}
</style>
<title>aliwangwang-fill</title>
<desc>Created with Sketch.</desc>
<g>
	<path class="st0" d="M505.9,364.2c-20.5,0-37.1,16.7-37.1,37.1v55.1c0,20.4,16.7,37.1,37.1,37.1c20.5,0,37.1-16.7,37.1-37.1v-55.1
		C543,380.8,526.3,364.2,505.9,364.2z"/>
	<path class="st0" d="M681.1,364.2c-20.4,0-37.1,16.7-37.1,37.1v55.1c0,20.4,16.6,37.1,37.1,37.1c20.5,0,37.1-16.7,37.1-37.1v-55.1
		C718.2,380.8,701.5,364.2,681.1,364.2z"/>
	<path d="M868.2,377.4c-18.9-45.1-46.3-85.6-81.2-120.6c-34.7-34.8-75.4-62.1-120.5-81.2c-46.7-19.8-96.3-29.8-147.5-29.8
		c-41.9,0-82.9,6.7-121.9,20C306,123.3,200.8,120,170.6,120c-2.2,0-7.4,0-9.4,0.2c-11.9,0.4-22.8,6.5-29.2,16.4
		c-6.5,9.9-7.7,22.4-3.4,33.5l64.3,161.6c-34.6,58.3-52.8,125.1-52.8,193.2c0,51.4,10,101,29.8,147.6c18.9,45,46.2,85.6,81.2,120.5
		c34.7,34.8,75.4,62.1,120.5,81.2C418.3,894,467.9,904,519,904c51.3,0,100.9-10,147.7-29.8c44.9-18.9,85.5-46.3,120.4-81.2
		c34.7-34.8,62.1-75.4,81.2-120.6c19.8-46.7,29.8-96.5,29.8-147.6C897.9,473.6,888,424,868.2,377.4z M543,456.4
		c0,20.4-16.6,37.1-37.1,37.1c-20.4,0-37.1-16.7-37.1-37.1v-55.1c0-20.4,16.6-37.1,37.1-37.1c20.4,0,37.1,16.6,37.1,37.1V456.4z
		 M718.2,456.4c0,20.4-16.6,37.1-37.1,37.1c-20.5,0-37.1-16.7-37.1-37.1v-55.1c0-20.4,16.7-37.1,37.1-37.1
		c20.4,0,37.1,16.6,37.1,37.1V456.4z"/>
</g>
</svg>
