<?xml version="1.0" encoding="utf-8"?>
<svg id="aliyun" viewBox="0 0 1024 1024" version="1.1" xmlns="http://www.w3.org/2000/svg" xmlns:xlink="http://www.w3.org/1999/xlink">
  <path d="M0.79 658.523c0.37 93.813 76.525 169.754 170.406 169.754H438.86l-24.64-97.416-229.692-49.963c-20.925-4.826-36.687-23.18-37.62-45.346-0.08-0.644-0.08-246.855 0-247.482 0.933-22.183 16.695-40.537 37.62-45.363l229.691-49.963 24.64-97.384H171.197c-93.88 0-170.037 75.894-170.407 169.707M1023.109 658.523c-0.338 93.813-76.51 169.754-170.391 169.754H585.053l24.64-97.416 229.675-49.963c20.958-4.826 36.687-23.18 37.62-45.346 0.113-0.644 0.113-246.855 0-247.482-0.933-22.183-16.662-40.537-37.62-45.363l-229.675-49.963-24.64-97.384h267.665c93.88 0 170.053 75.894 170.39 169.707"></path>
  <path d="M414.214 523.972h195.481v-24.37H414.214z"></path>
</svg>