<?xml version="1.0" encoding="utf-8"?>
<svg id="amazon" viewBox="0 0 1024 1024" version="1.1" xmlns="http://www.w3.org/2000/svg" xmlns:xlink="http://www.w3.org/1999/xlink">
  <path d="M849.197 800.356c5.139-1.995 9.629-2.494 13.37-1.496 3.742 0.997 5.688 3.891 5.688 8.73 0 4.84-2.594 10.377-7.733 16.713-4.44 5.338-12.023 12.572-22.65 21.701-10.626 9.13-27.039 20.455-49.19 33.925-22.15 13.47-46.346 25.792-72.588 36.917-26.241 11.125-58.519 20.804-96.833 28.936-38.265 8.132-77.677 12.222-118.187 12.222-40.858 0-81.717-5.138-122.576-15.465-40.859-10.327-76.729-23.049-107.61-38.165a702.355 702.355 0 0 1-88.851-51.884c-28.337-19.457-51.086-36.918-68.248-52.383-17.162-15.466-31.58-30.033-43.254-43.653-2.743-2.993-4.44-5.737-5.138-8.231-0.699-2.495-0.499-4.49 0.499-5.987 0.998-1.497 2.394-2.644 4.14-3.492 1.747-0.848 3.692-1.148 5.937-0.998 2.245 0.15 4.19 0.898 5.937 2.245 65.903 38.913 117.438 66.502 154.505 82.815 133.552 58.52 270.696 73.486 411.482 44.9 65.204-13.32 132.304-35.77 201.3-67.35z m106.612-57.372c3.792 5.338 4.191 16.863 1.297 34.673-2.893 17.81-7.832 34.822-14.667 51.136-11.674 27.588-26.241 48.242-43.752 61.862-5.837 4.64-10.277 6.136-13.37 4.49-3.093-1.647-3.093-5.638 0-11.974 7.234-14.966 14.867-35.171 22.899-60.614 8.082-25.443 9.18-41.807 3.342-49.14-1.696-2.345-4.39-4.241-7.982-5.738-3.592-1.496-8.232-2.494-13.919-2.993-5.687-0.499-10.726-0.898-15.216-1.247-4.49-0.35-10.477-0.35-18.01 0-7.533 0.349-12.97 0.648-16.214 0.998-3.242 0.349-8.58 0.848-15.964 1.496-7.384 0.649-11.225 0.998-11.574 0.998-2.046 0.35-4.29 0.599-6.685 0.748-2.395 0.15-4.29 0.35-5.688 0.5-1.396 0.149-2.843 0.348-4.39 0.498-1.546 0.15-2.744 0.25-3.592 0.25h-5.138l-1.547-0.25-1.047-0.748-0.749-1.497c-2.045-5.338 5.987-11.973 24.196-19.955 18.21-7.983 35.87-12.971 53.032-14.967 15.815-2.345 34.323-2.494 55.626-0.499 21.252 1.996 34.323 5.987 39.112 11.973zM752.912 521.978c0 10.327 2.295 20.953 6.935 31.928 4.64 10.976 10.127 20.604 16.463 28.936 6.336 8.331 12.772 15.964 19.307 22.949 6.535 6.984 12.173 12.322 17.012 15.964l6.685 5.488-116.89 111.75c-13.718-12.322-27.288-24.844-40.658-37.666-13.37-12.821-23.348-22.55-29.884-29.184l-9.778-9.978c-3.791-3.642-8.082-9.13-12.871-16.463-13.07 19.606-29.784 36.668-50.188 51.135-20.404 14.468-42.306 25.045-65.653 31.68-23.348 6.635-47.395 10.476-72.09 11.474-24.694 0.998-48.342-2.494-70.792-10.477-22.45-7.982-42.654-18.857-60.514-32.677-17.86-13.819-32.079-32.577-42.755-56.374-10.676-23.797-15.964-50.786-15.964-81.069 0-27.937 4.789-53.53 14.417-76.828 9.629-23.298 21.951-42.655 37.068-58.12 15.116-15.466 33.375-29.285 54.827-41.408 21.452-12.123 42.505-21.602 63.11-28.437 20.603-6.834 42.904-12.572 66.95-17.211 24.046-4.64 44.55-7.733 61.563-9.23a1026.644 1026.644 0 0 1 51.235-3.242v-63.359c0-21.602-3.592-37.766-10.826-48.392-11.674-17.61-32.427-26.44-62.31-26.44-2.046 0-4.89 0.149-8.482 0.498-3.592 0.35-10.576 2.345-20.853 5.987a123.801 123.801 0 0 0-28.836 14.717c-8.93 6.136-18.608 16.064-28.935 29.683-10.277 13.62-18.559 29.584-24.695 47.894l-151.412-13.47c0-19.956 3.792-39.762 11.325-59.368 7.533-19.606 19.057-38.414 34.523-56.374 15.465-17.96 33.974-33.775 55.625-47.394 21.652-13.62 47.644-24.545 78.026-32.677C453.98 68.09 486.657 64 521.678 64c34.324 0 65.404 4.14 93.192 12.472 27.788 8.332 50.039 18.559 66.701 30.682 16.663 12.123 30.532 25.942 41.707 41.407 11.175 15.466 18.858 29.784 23.199 42.904 4.34 13.121 6.435 25.344 6.435 36.669v293.844z m-346.077 10.476c0 28.587 12.023 50.737 36.07 66.352 22.649 14.618 46.495 18.31 71.59 10.976 28.835-8.332 48.391-28.786 58.718-61.363 4.79-14.967 7.234-31.78 7.234-50.388v-80.82c-20.255 0.65-39.312 2.645-57.172 5.987-17.86 3.343-36.12 8.88-54.828 16.713-18.708 7.832-33.625 19.606-44.8 35.42-11.175 15.816-16.812 34.823-16.812 57.123z"></path>
</svg>