<?xml version="1.0" encoding="utf-8"?>
<!-- Generator: Adobe Illustrator 21.0.0, SVG Export Plug-In . SVG Version: 6.00 Build 0)  -->
<svg version="1.1" id="图层_1" xmlns="http://www.w3.org/2000/svg" xmlns:xlink="http://www.w3.org/1999/xlink" x="0px" y="0px"
	 viewBox="0 0 1024 1024" style="enable-background:new 0 0 1024 1024;" xml:space="preserve">
<style type="text/css">
	.st0{fill:none;}
</style>
<title>android</title>
<desc>Created with Sketch.</desc>
<g>
	<path class="st0" d="M395.2,885.5c0,6.8,3.9,10.6,10.7,10.6c6.1,0,9.9-3.1,10.5-8.7v-60.1h-21.2V885.5z"/>
	<path class="st0" d="M647.1,213c-37.5-27.4-85.3-42.5-135-42.5c-49.7,0-97.5,15-135,42.3c-32.1,23.7-54.1,54.3-62.6,87.6h395.4
		C701.3,267.2,679.5,236.7,647.1,213z M448.3,289.1c-18.6,0-32-13.4-32-31.9c0-18.5,13.5-31.9,32-31.9l0,0c18.7,0,32.1,13.4,32,31.9
		C480.3,275.7,466.8,289.1,448.3,289.1z M576.1,289.1c-18.6,0-32-13.4-32-31.9c0-18.5,13.5-31.9,32-31.9v0c18.7,0,32,13.2,32,31.9
		C608.1,275.7,594.7,289.1,576.1,289.1z"/>
	<path class="st0" d="M235.3,363.8c-6.8,0-10.7,3.8-10.7,10.6v235.2c0,6.8,3.9,10.6,10.7,10.6c6.8,0,10.7-3.8,10.7-10.6V374.5
		C246,367.7,242.1,363.8,235.3,363.8z"/>
	<path class="st0" d="M629.3,827.3h-21.2v58.2c0,6.8,3.9,10.6,10.7,10.6c6.1,0,9.9-3.1,10.5-8.7h0V827.3z"/>
	<path class="st0" d="M789,363.8c-6.8,0-10.7,3.8-10.7,10.6v235.2c0,6.8,3.9,10.6,10.7,10.6c6.8,0,10.7-3.8,10.7-10.6V374.5
		C799.7,367.7,795.8,363.8,789,363.8z"/>
	<rect x="309.9" y="364" class="st0" width="404.6" height="399.6"/>
	<path d="M448.3,225.2L448.3,225.2c-18.6,0-32,13.4-32,31.9c0,18.5,13.5,31.9,32,31.9c18.6,0,32-13.4,32-31.9
		C480.4,238.7,466.9,225.2,448.3,225.2z"/>
	<path d="M842.2,321.6c-13.8-13.8-32.7-21.5-53.2-21.5c-3.9,0-7.4,0.4-10.7,1v-1h-3.6c-5.5-30.6-18.6-60.5-38.1-87.4
		c-18.7-25.7-43-47.9-70.8-64.9l25.1-35.8v-3.3c0-0.8,0.4-2.3,0.7-3.8c0.6-2.4,1.4-5.5,1.4-8.9c0-18.5-13.5-31.9-32-31.9
		c-9.8,0-19.5,5.7-25.9,15.4l-29.3,42.1c-30-9.8-62.4-15-93.8-15c-31.3,0-63.7,5.2-93.8,15L389,79.4C382.4,69.8,372.9,64,363,64
		c-18.6,0-32,13.4-32,31.9c0,6.2,2.5,12.8,6.7,17.4l22.6,32.3c-28.7,17-53.5,39.4-72.2,65.1c-19.4,26.9-32,56.8-36.7,87.4h-5.5v1
		c-3.2-0.6-6.7-1-10.7-1c-20.3,0-39.2,7.5-53.1,21.3c-13.8,13.8-21.5,32.6-21.5,53v235c0,20.3,7.5,39.1,21.4,52.9
		c13.8,13.8,32.8,21.5,53.2,21.5c3.9,0,7.4-0.4,10.7-1v93.5c0,29.2,23.9,53.1,53.2,53.1h31.9v58.3c0,20.3,7.5,39.1,21.4,52.9
		c13.8,13.8,32.8,21.5,53.2,21.5c20.3,0,39.2-7.5,53.1-21.3c13.8-13.8,21.5-32.6,21.5-53v-58.2h63.8v58.1c0,20.3,7.5,39.1,21.4,52.9
		c13.8,13.8,32.8,21.5,53.2,21.5c20.4,0,39.2-7.5,53.1-21.6c13.8-13.8,21.5-32.6,21.5-53v-58.2h31.9c29.3,0,53.2-23.8,53.2-53.1
		v-91.4c3.2,0.6,6.7,1,10.7,1c20.3,0,39.2-7.5,53.1-21.3c13.8-13.8,21.5-32.6,21.5-53V374.5C863.5,354.2,856,335.5,842.2,321.6z
		 M246,609.6c0,6.8-3.9,10.6-10.7,10.6c-6.8,0-10.7-3.8-10.7-10.6V374.5c0-6.8,3.9-10.6,10.7-10.6c6.8,0,10.7,3.8,10.7,10.6V609.6z
		 M377.1,212.8c37.5-27.3,85.3-42.3,135-42.3c49.7,0,97.5,15.1,135,42.5c32.4,23.7,54.2,54.2,62.7,87.5H314.4
		C322.9,267.1,344.9,236.5,377.1,212.8z M416.4,887.5c-0.6,5.6-4.4,8.7-10.5,8.7c-6.8,0-10.7-3.8-10.7-10.6v-58.2h21.2V887.5z
		 M618.7,896.2c-6.8,0-10.7-3.8-10.7-10.6v-58.2h21.2v60.1h0C628.6,893.1,624.9,896.2,618.7,896.2z M714.5,763.6H309.9V364h404.6
		V763.6z M799.7,609.6c0,6.8-3.9,10.6-10.7,10.6c-6.8,0-10.7-3.8-10.7-10.6V374.5c0-6.8,3.9-10.6,10.7-10.6
		c6.8,0,10.7,3.8,10.7,10.6V609.6z"/>
	<path d="M576.1,225.2L576.1,225.2c-18.6,0-32,13.4-32,31.9c0,18.5,13.5,31.9,32,31.9c18.6,0,32.1-13.4,32.1-32
		C608.1,238.4,594.8,225.2,576.1,225.2z"/>
</g>
</svg>
