<?xml version="1.0" encoding="utf-8"?>
<svg id="android" viewBox="0 0 1024 1024" version="1.1" xmlns="http://www.w3.org/2000/svg" xmlns:xlink="http://www.w3.org/1999/xlink">
  <path d="M887.66199 320.871144c-34.39652 0-62.293697 28.297137-62.293697 63.293596v247.27498c0 34.896469 27.897177 63.293596 62.293697 63.293596s62.293697-28.297137 62.293697-63.293596V384.16474c0-34.996459-27.797187-63.293596-62.293697-63.293596z m-751.32398 0c-34.39652 0-62.293697 28.297137-62.293697 63.293596v247.27498c0 34.896469 27.897177 63.293596 62.293697 63.293596s62.293697-28.297137 62.293697-63.293596V384.16474c0-34.996459-27.897177-63.293596-62.293697-63.293596zM236.127913 322.770952v451.75429c0 26.797289 21.797794 48.595083 48.595083 48.595083h55.494385v137.586079c0 34.896469 27.897177 63.293596 62.293697 63.293596s62.293697-28.297137 62.293697-63.293596V823.020335h96.990187v137.586079c0 34.896469 27.897177 63.293596 62.293697 63.293596s62.293697-28.297137 62.293697-63.293596V823.020335h55.494385c26.797289 0 48.595083-21.797794 48.595083-48.595083V322.770952H236.127913zM643.386706 88.694636l51.19482-74.292483c2.999696-4.399555 2.299767-10.198968-1.699828-12.998685-3.999595-2.699727-9.699019-1.399858-12.698715 2.999696L626.988365 81.695344c-34.996459-13.798604-73.992513-21.497825-114.988365-21.497825s-79.991906 7.699221-114.988365 21.497825L343.817017 4.503154c-2.999696-4.399555-8.69912-5.799413-12.698715-2.999696-3.999595 2.699727-4.699524 8.49914-1.699828 12.998685l51.19482 74.292483c-81.391765 37.896166-138.485988 109.788891-145.785249 193.780393h554.34391c-7.299261-84.091491-64.393485-155.984217-145.785249-193.880383zM395.111827 205.882778c-16.89829 0-30.696894-13.698614-30.696894-30.696894 0-16.89829 13.698614-30.696894 30.696894-30.696894 16.89829 0 30.696894 13.698614 30.696894 30.696894-0.09999 16.89829-13.798604 30.696894-30.696894 30.696894z m237.675951 0c-16.89829 0-30.696894-13.698614-30.696894-30.696894 0-16.89829 13.698614-30.696894 30.696894-30.696894 16.89829 0 30.696894 13.698614 30.696895 30.696894-0.09999 16.89829-13.798604 30.696894-30.696895 30.696894z"></path>
</svg>