<?xml version="1.0" encoding="utf-8"?>
<svg id="android-o" viewBox="0 0 1024 1024" version="1.1" xmlns="http://www.w3.org/2000/svg" xmlns:xlink="http://www.w3.org/1999/xlink">
  <path d="M888.182 294.381c-15.762-15.761-37.21-24.54-60.553-24.54-4.489 0-8.479 0.499-12.17 1.098v-1.098h-4.09c-6.285-34.915-21.148-69.131-43.394-99.856-21.248-29.328-48.98-54.766-80.603-74.219l28.63-40.9v-3.79c0-0.899 0.499-2.594 0.798-4.39 0.698-2.793 1.596-6.285 1.596-10.175C718.396 15.362 703.034 0 681.886 0c-11.173 0-22.246 6.484-29.529 17.557L618.94 65.64c-34.217-11.173-71.126-17.158-106.84-17.158s-72.622 5.985-106.838 17.158l-33.419-48.083C364.36 6.584 353.487 0 342.314 0c-21.148 0-36.51 15.362-36.51 36.51 0 7.084 2.892 14.665 7.58 19.852l25.738 36.91c-32.72 19.453-60.951 44.99-82.299 74.419-22.046 30.725-36.51 64.941-41.798 99.856h-6.285v1.097c-3.69-0.698-7.68-1.097-12.17-1.097-23.143 0-44.69 8.579-60.452 24.34-15.762 15.762-24.54 37.31-24.54 60.553v268.544c0 23.143 8.579 44.69 24.34 60.452 15.762 15.762 37.31 24.54 60.552 24.54 4.49 0 8.48-0.498 12.17-1.097v106.84c0 33.418 27.234 60.651 60.653 60.651h36.31v66.638c0 23.143 8.58 44.69 24.341 60.452 15.762 15.761 37.31 24.54 60.553 24.54 23.143 0 44.69-8.58 60.452-24.34 15.762-15.762 24.54-37.31 24.54-60.553V872.57h72.723v66.438c0 23.143 8.579 44.69 24.34 60.452 15.762 15.761 37.31 24.54 60.552 24.54s44.691-8.58 60.453-24.74c15.761-15.761 24.54-37.309 24.54-60.552v-66.537h36.311c33.419 0 60.652-27.234 60.652-60.652V707.074c3.691 0.698 7.681 1.097 12.17 1.097 23.144 0 44.691-8.579 60.453-24.34 15.761-15.762 24.54-37.31 24.54-60.553V354.834c0.2-23.144-8.38-44.591-24.041-60.453zM208.94 623.578c0 7.78-4.39 12.17-12.17 12.17-7.781 0-12.17-4.39-12.17-12.17V354.834c0-7.781 4.389-12.17 12.17-12.17 7.78 0 12.17 4.389 12.17 12.17v268.744z m149.335-453.493c42.696-31.224 97.163-48.382 153.825-48.382 56.661 0 111.128 17.258 153.824 48.581 36.91 27.034 61.75 61.949 71.426 99.956h-450.4c9.676-38.107 34.715-73.121 71.325-100.155z m44.791 771.017c-0.698 6.385-4.988 9.976-11.97 9.976-7.782 0-12.171-4.39-12.171-12.17V872.37h24.141v68.732z m242.508 0c-0.698 6.385-4.988 9.976-11.97 9.976-7.782 0-12.171-4.39-12.171-12.17V872.37h24.14v68.732z m97.063-141.554H281.762V342.863h460.875v456.685z m97.063-175.97c0 7.78-4.39 12.17-12.17 12.17-7.781 0-12.17-4.39-12.17-12.17V354.834c0-7.781 4.389-12.17 12.17-12.17 7.78 0 12.17 4.389 12.17 12.17v268.744z"></path>
  <path d="M585.022 184.25c-21.149 0-36.511 15.363-36.511 36.511 0 21.148 15.362 36.51 36.51 36.51 21.15 0 36.512-15.362 36.512-36.61-0.1-21.348-15.163-36.41-36.511-36.41zM439.377 184.25c-21.148 0-36.51 15.363-36.51 36.511 0 21.148 15.362 36.51 36.51 36.51 21.149 0 36.511-15.362 36.511-36.51 0.1-21.148-15.263-36.51-36.51-36.51z"></path>
</svg>