<?xml version="1.0" encoding="utf-8"?>
<svg id="ant-design" viewBox="0 0 1024 1024" version="1.1" xmlns="http://www.w3.org/2000/svg" xmlns:xlink="http://www.w3.org/1999/xlink">
  <path d="M744.581 285.159c21.697-21.582 21.697-56.71 0-78.293l-79.785-79.784 0.115 0.114c-21.123-21.122-57.399-57.399-108.828-108.713-24.223-23.649-63.37-23.42-87.362 0.574l-449.55 449.32c-24.222 24.107-24.222 63.139 0 87.246l449.55 449.206c24.222 24.107 63.254 24.107 87.362 0L744.58 816.445c21.697-21.582 21.697-56.71 0-78.293-21.697-21.582-56.71-21.582-78.407 0l-142.809 142.81c-5.97 5.969-15.153 5.969-21.123 0L143.153 522.216c-5.97-5.97-5.97-15.153 0-21.123L502.127 142.35c0.46-0.46 1.034-0.804 1.493-1.263 5.97-4.707 14.12-4.248 19.63 1.263l142.924 142.809c21.697 21.697 56.825 21.697 78.407 0z" fill=""></path>
  <path d="M1005.517 470.213L865.234 330.504c-21.697-21.582-56.825-21.582-78.407 0.115-21.697 21.582-21.697 56.71 0 78.292l94.708 94.594c5.97 5.97 5.97 15.153 0 21.123l-93.445 93.33c-21.697 21.583-21.697 56.711 0 78.293 21.697 21.582 56.71 21.582 78.407 0l139.02-138.906c24.223-23.993 24.223-63.024 0-87.132zM393.298 514.296a121.342 121.227 0 1 0 242.684 0 121.342 121.227 0 1 0-242.684 0z" fill=""></path>
</svg>