<?xml version="1.0" encoding="utf-8"?>
<!-- Generator: Adobe Illustrator 21.0.0, SVG Export Plug-In . SVG Version: 6.00 Build 0)  -->
<svg version="1.1" id="图层_1" xmlns="http://www.w3.org/2000/svg" xmlns:xlink="http://www.w3.org/1999/xlink" x="0px" y="0px"
	 viewBox="0 0 1024 1024" style="enable-background:new 0 0 1024 1024;" xml:space="preserve">
<title>ant-cloud</title>
<desc>Created with Sketch.</desc>
<g>
	<path d="M378.9,738c-3.1,0-6.1-0.5-8.8-1.5l4.4,30.7h26.3l-15.5-29.9C383.2,737.8,381.1,738,378.9,738z"/>
	<path d="M799.9,446.8c-12.6,0-24.8,1.5-36.5,4.2c-21.4-38.4-62.3-64.3-109.3-64.3c-6.9,0-13.6,0.6-20.2,1.6
		c-35.4-77.4-113.4-131.1-203.9-131.1c-112.3,0-205.3,82.6-221.6,190.4C127.3,455.5,64,523.8,64,607c0,88.4,71.6,160.1,160,160.2v0
		h50l13.2-27.6c-26.2-8.3-43.3-29-39.1-48.8c4.6-21.6,32.8-33.9,63.1-27.5c22.9,4.9,40.4,19.1,45.5,35.1
		c4.6-7.4,12.8-12.4,22.1-12.4c0.1,0,0.2,0,0.2,0c-0.8-3.2-1.2-6.5-1.2-9.9c0-20.1,14.8-36.7,34.1-39.6v-25.4c0-4.4,3.6-8,8-8
		c4.4,0,8,3.6,8,8v26.3c4.6,1.2,8.8,3.2,12.6,5.8l19.5-21.4c3-3.3,8-3.5,11.3-0.5c3.3,3,3.5,8,0.5,11.3l-20,22
		c-0.1,0.1-0.1,0.1-0.2,0.2c3.9,6.2,6.2,13.5,6.2,21.4c0,22.1-17.9,40-40,40c-4.6,0-9-0.8-13.1-2.2c-0.4,5.6-2.6,10.7-6,14.8
		l20,38.4H804v-0.1c86.5-2.2,156-73,156-160.1C960,518.5,888.3,446.8,799.9,446.8z"/>
	<path d="M338.2,737.2l-4.3,30h24.4l-5.9-41.5C348.9,730.3,344.1,734.2,338.2,737.2z"/>
	<circle cx="845.5" cy="305" r="48"/>
	<circle cx="755.8" cy="366.3" r="24"/>
	<path d="M303.4,742.9l-11.6,24.3h26l3.5-24.7C315.6,743.3,309.6,743.5,303.4,742.9z"/>
</g>
</svg>
