<?xml version="1.0" encoding="utf-8"?>
<!-- Generator: Adobe Illustrator 21.0.0, SVG Export Plug-In . SVG Version: 6.00 Build 0)  -->
<svg version="1.1" id="图层_1" xmlns="http://www.w3.org/2000/svg" xmlns:xlink="http://www.w3.org/1999/xlink" x="0px" y="0px"
	 viewBox="0 0 1024 1024" style="enable-background:new 0 0 1024 1024;" xml:space="preserve">
<style type="text/css">
	.st0{fill:none;}
</style>
<title>api</title>
<desc>Created with Sketch.</desc>
<g>
	<path class="st0" d="M675.7,216.2c-35.3,0-68.4,13.7-93.4,38.7l-59.4,59.4l186.8,186.8l59.4-59.4c24.9-24.9,38.7-58.1,38.7-93.4
		c0-35.3-13.7-68.4-38.7-93.4C744.1,230,711,216.2,675.7,216.2z"/>
	<path class="st0" d="M254.9,582.3c-24.9,24.9-38.7,58.1-38.7,93.4c0,35.3,13.7,68.4,38.7,93.4c24.9,24.9,58.1,38.7,93.4,38.7
		c35.3,0,68.4-13.7,93.4-38.7l59.4-59.4L314.3,522.9L254.9,582.3z"/>
	<path d="M917.7,148.8l-42.4-42.4c-1.6-1.6-3.6-2.3-5.7-2.3s-4.1,0.8-5.7,2.3l-76.1,76.1c-33.7-22.9-72.9-34.3-112.1-34.3
		c-51.2,0-102.4,19.5-141.5,58.6L432.3,308.7c-3.1,3.1-3.1,8.2,0,11.3L704,591.7c1.6,1.6,3.6,2.3,5.7,2.3c2,0,4.1-0.8,5.7-2.3
		l101.9-101.9c68.9-69,77-175.7,24.3-253.5l76.1-76.1C920.8,157,920.8,151.9,917.7,148.8z M769.1,441.7l-59.4,59.4L522.9,314.3
		l59.4-59.4c24.9-24.9,58.1-38.7,93.4-38.7c35.3,0,68.4,13.7,93.4,38.7c24.9,24.9,38.7,58.1,38.7,93.4
		C807.8,383.6,794,416.7,769.1,441.7z"/>
	<path d="M578.9,546.7c-3.1-3.1-8.2-3.1-11.3,0L501,613.3L410.7,523l66.7-66.7c3.1-3.1,3.1-8.2,0-11.3l-36.4-36.4
		c-3.1-3.1-8.2-3.1-11.3,0L363,475.3l-43-43c-1.6-1.6-3.6-2.3-5.7-2.3c-2,0-4.1,0.8-5.7,2.3L206.8,534.2
		c-68.9,69-77,175.7-24.3,253.5l-76.1,76.1c-3.1,3.1-3.1,8.2,0,11.3l42.4,42.4c1.6,1.6,3.6,2.3,5.7,2.3s4.1-0.8,5.7-2.3l76.1-76.1
		c33.7,22.9,72.9,34.3,112.1,34.3c51.2,0,102.4-19.5,141.5-58.6l101.9-101.9c3.1-3.1,3.1-8.2,0-11.3l-43-43l66.7-66.7
		c3.1-3.1,3.1-8.2,0-11.3L578.9,546.7z M441.7,769.1c-24.9,24.9-58.1,38.7-93.4,38.7c-35.3,0-68.4-13.7-93.4-38.7
		c-24.9-24.9-38.7-58.1-38.7-93.4c0-35.3,13.7-68.4,38.7-93.4l59.4-59.4l186.8,186.8L441.7,769.1z"/>
</g>
</svg>
