<?xml version="1.0" encoding="utf-8"?>
<svg id="apple" viewBox="0 0 1024 1024" version="1.1" xmlns="http://www.w3.org/2000/svg" xmlns:xlink="http://www.w3.org/1999/xlink">
  <path d="M902 349.1c-60.1-88-153.8-100.1-187.2-101.5-79.7-8.1-155.6 46.9-196 46.9-40.4 0-102.8-45.8-168.9-44.6-86.9 1.3-167 50.5-211.8 128.4C47.8 535 115 767.1 203 894.2c43 62.2 94.3 132.1 161.6 129.6 64.8-2.6 89.4-42 167.7-42 78.4 0 100.4 42 169 40.7 69.8-1.3 114-63.4 156.7-125.8 49.4-72.2 69.7-142 70.9-145.6-1.6-0.7-136-52.2-137.4-207.1-1.3-129.6 105.7-191.8 110.5-194.9zM715.8 0C664.3 2.1 602 34.3 565 77.5c-33.1 38.4-58.7 99.6-50.9 158.4 57.5 4.5 112.7-29.2 148.5-72.5C698.3 120.2 722.4 60 715.8 0z"></path>
</svg>