<?xml version="1.0" encoding="utf-8"?>
<svg id="apple-o" viewBox="0 0 1024 1024" version="1.1" xmlns="http://www.w3.org/2000/svg" xmlns:xlink="http://www.w3.org/1999/xlink">
  <path d="M698.5 318.8c3.1 0 6.1 0.1 9 0.4l2.1 0.2 2.1 0.1c11.4 0.5 34.2 2.8 59.6 13.1 8.7 3.5 16.9 7.7 24.7 12.5-3.4 3.7-6.6 7.5-9.8 11.4-19.7 24.1-35.4 50.5-46.5 78.4-13.8 34.7-20.6 71.6-20.3 109.8 0.7 81.9 31.2 154.6 88.1 210.2 10.9 10.6 21.8 19.7 32.2 27.5-9.9 21.8-23.5 47.7-41.3 73.8-20.5 29.9-39 56.1-58 73.9-19.2 17.9-31.8 20.4-40.6 20.6h-1.7c-16.2 0-26.9-4.3-47.5-13.3-26.8-11.6-63.4-27.4-118.4-27.4-56.7 0-94.6 16.2-122.3 28-20.6 8.8-32.1 13.4-48.1 14h-0.8c-12.4 0-27.6-12-38.2-22.1-21-20-41.5-48.8-60.7-76.5-41.2-59.5-74-141.2-87.6-218.4-7.5-42.6-9.3-83-5.2-119.8 4.2-38.3 14.7-72.2 31.1-100.8 16-27.8 38.5-51.1 65.1-67.3 26.2-15.9 55.7-24.6 85.3-25h1.5c22.8 0 50.1 10.8 76.4 21.3 28.9 11.5 58.7 23.3 89.9 23.3 29.4 0 57.8-11.2 87.8-23 29.5-11.7 62.8-24.9 92.1-24.9m0-72c-73.7 0-142.1 47.8-179.8 47.8-39.8 0-101.2-44.6-166.4-44.6h-2.6c-86.9 1.3-167 50.5-211.8 128.4-90.3 156.7-23.1 388.8 64.9 515.9C245.1 955.5 295.4 1024 361 1024c1.2 0 2.3 0 3.5-0.1 64.8-2.6 89.4-42 167.7-42 77.2 0 99.7 40.7 165.9 40.7h3.1c69.8-1.3 114-63.4 156.7-125.8 49.4-72.2 69.7-142 70.9-145.6-1.6-0.7-136-52.2-137.4-207.1-1.3-129.7 105.7-191.9 110.5-195-60.1-88-153.8-100.1-187.2-101.5-5.4-0.5-10.8-0.8-16.2-0.8zM715.8 0C664.3 2.1 602 34.3 565 77.5c-33.1 38.4-58.7 99.6-50.9 158.4 57.5 4.5 112.7-29.2 148.5-72.5C698.3 120.2 722.4 60 715.8 0z"></path>
</svg>