<?xml version="1.0" encoding="utf-8"?>
<!-- Generator: Adobe Illustrator 21.0.0, SVG Export Plug-In . SVG Version: 6.00 Build 0)  -->
<svg version="1.1" id="图层_1" xmlns="http://www.w3.org/2000/svg" xmlns:xlink="http://www.w3.org/1999/xlink" x="0px" y="0px"
	 viewBox="0 0 1024 1024" style="enable-background:new 0 0 1024 1024;" xml:space="preserve">
<title>apple-fill</title>
<desc>Created with Sketch.</desc>
<g>
	<path d="M747.4,535.7c-0.4-68.2,30.5-119.6,92.9-157.5c-34.9-50-87.7-77.5-157.3-82.8c-65.9-5.2-138,38.4-164.4,38.4
		c-27.9,0-91.7-36.6-141.9-36.6C273.1,298.8,163,379.8,163,544.6c0,48.7,8.9,99,26.7,150.8c23.8,68.2,109.6,235.3,199.1,232.6
		c46.8-1.1,79.9-33.2,140.8-33.2c59.1,0,89.7,33.2,141.9,33.2c90.3-1.3,167.9-153.2,190.5-221.6
		C740.9,649.3,747.4,539.2,747.4,535.7z"/>
	<path d="M642.3,230.7c50.7-60.2,46.1-115,44.6-134.7c-44.8,2.6-96.6,30.5-126.1,64.8c-32.5,36.8-51.6,82.3-47.5,133.6
		C561.7,298.1,605.9,273.2,642.3,230.7z"/>
</g>
</svg>
