<?xml version="1.0" encoding="utf-8"?>
<svg id="arrow-left" viewBox="0 0 1024 1024" version="1.1" xmlns="http://www.w3.org/2000/svg" xmlns:xlink="http://www.w3.org/1999/xlink">
  <path d="M854.8 468 281.1 468c-0.1 0-0.2-0.2-0.1-0.2l216.4-208c17.5-16.8 18.1-44.7 1.2-62.2-16.8-17.5-44.7-18.1-62.2-1.2L141.8 479.5c-8.6 8.3-13.5 19.8-13.5 31.7 0 12 4.9 23.4 13.5 31.7l296.2 284.7c8.5 8.2 19.5 12.3 30.5 12.3 11.6 0 23.1-4.5 31.7-13.5 16.8-17.5 16.3-45.4-1.2-62.2l-216.4-208c-0.1-0.1 0-0.2 0.1-0.2l573.1 0c23.4 0 42.5-18.3 43.9-41.3C901.2 489.2 880.3 468 854.8 468z"></path>
</svg>