<?xml version="1.0" encoding="utf-8"?>
<svg id="arrow-up" viewBox="0 0 1024 1024" version="1.1" xmlns="http://www.w3.org/2000/svg" xmlns:xlink="http://www.w3.org/1999/xlink">
  <path d="M470 852.8 470 279.1c0-0.1-0.2-0.2-0.2-0.1l-208 216.4c-16.8 17.5-44.7 18.1-62.2 1.2-17.5-16.8-18.1-44.7-1.2-62.2l283.2-294.7c8.3-8.6 19.8-13.5 31.7-13.5 12 0 23.4 4.9 31.7 13.5L829.7 436c8.2 8.5 12.3 19.5 12.3 30.5 0 11.6-4.5 23.1-13.5 31.7-17.5 16.8-45.4 16.3-62.2-1.2l-208-216.4c-0.1-0.1-0.2 0-0.2 0.1l0 573.1c0 23.4-18.3 42.5-41.3 43.9C491.2 899.2 470 878.3 470 852.8z"></path>
</svg>