<?xml version="1.0" encoding="utf-8"?>

<svg id="back" viewBox="0 0 1024 1024">
  <path d="M811.6 424.1c-57.2-57.2-133.2-88.6-214-88.6L262.4 335.5l113.4-113.4c15.6-15.6 15.6-40.9 0-56.6s-40.9-15.6-56.6 0L135.5 349.3c-7.5 7.5-11.7 17.7-11.7 28.3 0 10.6 4.2 20.8 11.7 28.3L314 584.4c7.8 7.8 18 11.7 28.3 11.7s20.5-3.9 28.3-11.7c15.6-15.6 15.6-40.9 0-56.6L258.2 415.5l339.4 0c59.5 0 115.4 23.2 157.4 65.2 42.1 42.1 65.2 98 65.2 157.4l0 192c0 22.1 17.9 40 40 40s40-17.9 40-40l0-192C900.3 557.3 868.8 481.3 811.6 424.1z"></path>
</svg>