<?xml version="1.0" encoding="utf-8"?>

<svg id="bank" viewBox="0 0 1024 1024">
  <path d="M939.6 477.1L538 75.5c-7-7-16.2-10.5-25.5-10.5-9.2 0-18.4 3.5-25.5 10.5L85.5 477.1c-14.1 14.1-14.1 36.9 0 50.9 14.1 14.1 36.9 14.1 50.9 0l376.2-376.2L888.7 528c14.1 14.1 36.9 14.1 50.9 0 14.1-14.1 14.1-36.8 0-50.9zM828 604c-19.9 0-36 16.1-36 36v248H232V640c0-19.9-16.1-36-36-36s-36 16.1-36 36v248c0 39.8 32.2 72 72 72h560c39.8 0 72-32.2 72-72V640c0-19.9-16.1-36-36-36z"></path>
  <path d="M320 538v4c0 18.8 15.2 34 34 34h122v64h-90c-18.8 0-34 15.2-34 34v4c0 18.8 15.2 34 34 34h90v84c0 19.9 16.1 36 36 36s36-16.1 36-36v-84h90c18.8 0 34-15.2 34-34v-4c0-18.8-15.2-34-34-34h-90v-64h122c18.8 0 34-15.2 34-34v-4c0-18.8-15.2-34-34-34H535.1c0.7-0.6 1.4-1.2 2.1-1.9l84.9-84.9c14.1-14.1 14.1-36.9 0-50.9-14.1-14.1-36.9-14.1-50.9 0l-59.4 59.4-59.4-59.4c-14.1-14.1-36.9-14.1-50.9 0-14.1 14.1-14.1 36.9 0 50.9l84.9 84.9c0.7 0.7 1.4 1.3 2.1 1.9H354c-18.8 0-34 15.2-34 34z"></path>
</svg>