<?xml version="1.0" encoding="utf-8"?>
<!-- Generator: Adobe Illustrator 21.0.0, SVG Export Plug-In . SVG Version: 6.00 Build 0)  -->
<svg version="1.1" id="图层_1" xmlns="http://www.w3.org/2000/svg" xmlns:xlink="http://www.w3.org/1999/xlink" x="0px" y="0px"
	 viewBox="0 0 1024 1024" style="enable-background:new 0 0 1024 1024;" xml:space="preserve">
<title>barcode</title>
<desc>Created with Sketch.</desc>
<g>
	<path d="M120,160H72c-4.4,0-8,3.6-8,8v688c0,4.4,3.6,8,8,8h48c4.4,0,8-3.6,8-8V168C128,163.6,124.4,160,120,160z"/>
	<path d="M953,160h-48c-4.4,0-8,3.6-8,8v688c0,4.4,3.6,8,8,8h48c4.4,0,8-3.6,8-8V168C961,163.6,957.4,160,953,160z"/>
	<path d="M200,736h112c4.4,0,8-3.6,8-8V168c0-4.4-3.6-8-8-8H200c-4.4,0-8,3.6-8,8v560C192,732.4,195.6,736,200,736z"/>
	<path d="M521,736h48c4.4,0,8-3.6,8-8V168c0-4.4-3.6-8-8-8h-48c-4.4,0-8,3.6-8,8v560C513,732.4,516.6,736,521,736z"/>
	<path d="M647,736h178c4.4,0,8-3.6,8-8V168c0-4.4-3.6-8-8-8H647c-4.4,0-8,3.6-8,8v560C639,732.4,642.6,736,647,736z"/>
	<path d="M392,736h48c4.4,0,8-3.6,8-8V168c0-4.4-3.6-8-8-8h-48c-4.4,0-8,3.6-8,8v560C384,732.4,387.6,736,392,736z"/>
	<path d="M313,800H201c-4.4,0-8,3.6-8,8v48c0,4.4,3.6,8,8,8h112c4.4,0,8-3.6,8-8v-48C321,803.6,317.4,800,313,800z"/>
	<path d="M570,800h-48c-4.4,0-8,3.6-8,8v48c0,4.4,3.6,8,8,8h48c4.4,0,8-3.6,8-8v-48C578,803.6,574.4,800,570,800z"/>
	<path d="M826,800H648c-4.4,0-8,3.6-8,8v48c0,4.4,3.6,8,8,8h178c4.4,0,8-3.6,8-8v-48C834,803.6,830.4,800,826,800z"/>
	<path d="M441,800h-48c-4.4,0-8,3.6-8,8v48c0,4.4,3.6,8,8,8h48c4.4,0,8-3.6,8-8v-48C449,803.6,445.4,800,441,800z"/>
</g>
</svg>
