<?xml version="1.0" encoding="utf-8"?>

<svg id="barcode" viewBox="0 0 1024 1024">
  <path d="M706 768h70c0.5 0 1-0.4 1-1V129c0-0.5-0.4-1-1-1h-70c-0.5 0-1 0.4-1 1v638c0 0.6 0.4 1 1 1zM534 824h-70c-0.5 0-1 0.4-1 1v70c0 0.5 0.4 1 1 1h70c0.5 0 1-0.4 1-1v-70c0-0.6-0.4-1-1-1zM640 824h-70c-0.5 0-1 0.4-1 1v70c0 0.5 0.4 1 1 1h70c0.5 0 1-0.4 1-1v-70c0-0.6-0.4-1-1-1zM428 824H214c-0.6 0-1 0.4-1 1v70c0 0.5 0.4 1 1 1h214c0.6 0 1-0.4 1-1v-70c0-0.6-0.4-1-1-1zM670 128h-34c-0.5 0-1 0.4-1 1v638c0 0.5 0.4 1 1 1h34c0.5 0 1-0.4 1-1V129c0-0.6-0.4-1-1-1zM213 129c0-0.5-0.4-1-1-1h-34c-0.5 0-1 0.4-1 1v638c0 0.5 0.4 1 1 1h34c0.5 0 1-0.4 1-1V129zM1023 128h-70c-0.5 0-1 0.4-1 1v766c0 0.5 0.4 1 1 1h70c0.5 0 1-0.4 1-1V129c0-0.5-0.4-1-1-1zM916 824H676c-0.6 0-1 0.4-1 1v70c0 0.5 0.4 1 1 1h240c0.6 0 1-0.4 1-1v-70c0-0.6-0.4-1-1-1zM916 128h-34c-0.5 0-1 0.4-1 1v638c0 0.5 0.4 1 1 1h34c0.5 0 1-0.4 1-1V129c0-0.6-0.4-1-1-1zM108 768h34c0.5 0 1-0.4 1-1V129c0-0.5-0.4-1-1-1h-34c-0.5 0-1 0.4-1 1v638c0 0.6 0.4 1 1 1zM354 768h34c0.5 0 1-0.4 1-1V129c0-0.5-0.4-1-1-1h-34c-0.5 0-1 0.4-1 1v638c0 0.6 0.4 1 1 1zM424 768h70c0.5 0 1-0.4 1-1V129c0-0.5-0.4-1-1-1h-70c-0.5 0-1 0.4-1 1v638c0 0.6 0.4 1 1 1zM530 768h70c0.5 0 1-0.4 1-1V129c0-0.5-0.4-1-1-1h-70c-0.5 0-1 0.4-1 1v638c0 0.6 0.4 1 1 1zM812 768h34c0.5 0 1-0.4 1-1V129c0-0.5-0.4-1-1-1h-34c-0.5 0-1 0.4-1 1v638c0 0.6 0.4 1 1 1zM71 128H1c-0.5 0-1 0.4-1 1v766c0 0.5 0.4 1 1 1h70c0.5 0 1-0.4 1-1V129c0-0.5-0.4-1-1-1zM178 824h-70c-0.5 0-1 0.4-1 1v70c0 0.5 0.4 1 1 1h70c0.5 0 1-0.4 1-1v-70c0-0.6-0.4-1-1-1zM248 768h70c0.5 0 1-0.4 1-1V129c0-0.5-0.4-1-1-1h-70c-0.5 0-1 0.4-1 1v638c0 0.6 0.4 1 1 1z"></path>
</svg>