<?xml version="1.0" encoding="utf-8"?>

<svg id="bars-chart" viewBox="0 0 1024 1024">
  <path d="M202.6 166l0 696c0 19.9-16.1 36-36 36l0 0c-19.9 0-36-16.1-36-36L130.6 166c0-19.9 16.1-36 36-36l0 0C186.5 130 202.6 146.1 202.6 166z"></path>
  <path d="M166.6 826l694 0c19.9 0 36 16.1 36 36l0 0c0 19.9-16.1 36-36 36l-694 0c-19.9 0-36-16.1-36-36l0 0C130.6 842.1 146.7 826 166.6 826z"></path>
  <path d="M393.8 359l0 371c0 19.9-16.1 36-36 36l0 0c-19.9 0-36-16.1-36-36L321.8 359c0-19.9 16.1-36 36-36l0 0C377.7 323 393.8 339.1 393.8 359z"></path>
  <path d="M777.3 229l0 501c0 19.9-16.1 36-36 36l0 0c-19.9 0-36-16.1-36-36L705.3 229c0-19.9 16.1-36 36-36l0 0C761.2 193 777.3 209.1 777.3 229z"></path>
  <path d="M584.6 485l0 245c0 19.9-16.1 36-36 36l0 0c-19.9 0-36-16.1-36-36L512.6 485c0-19.9 16.1-36 36-36l0 0C568.4 449 584.6 465.1 584.6 485z"></path>
</svg>