<?xml version="1.0" encoding="utf-8"?>
<!-- Generator: Adobe Illustrator 21.0.0, SVG Export Plug-In . SVG Version: 6.00 Build 0)  -->
<svg version="1.1" id="图层_1" xmlns="http://www.w3.org/2000/svg" xmlns:xlink="http://www.w3.org/1999/xlink" x="0px" y="0px"
	 viewBox="0 0 1024 1024" style="enable-background:new 0 0 1024 1024;" xml:space="preserve">
<style type="text/css">
	.st0{fill:none;}
</style>
<title>batch folding-fill</title>
<desc>Created with Sketch.</desc>
<g>
	<path class="st0" d="M588,550H308c-4.4,0-8,3.6-8,8v48c0,4.4,3.6,8,8,8h280c4.4,0,8-3.6,8-8v-48C596,553.6,592.4,550,588,550z"/>
	<path d="M752,240H144c-17.7,0-32,14.3-32,32v608c0,17.7,14.3,32,32,32h608c17.7,0,32-14.3,32-32V272C784,254.3,769.7,240,752,240z
		 M596,606c0,4.4-3.6,8-8,8H308c-4.4,0-8-3.6-8-8v-48c0-4.4,3.6-8,8-8h280c4.4,0,8,3.6,8,8V606z"/>
	<path d="M880,112H264c-4.4,0-8,3.6-8,8v56c0,4.4,3.6,8,8,8h576v576c0,4.4,3.6,8,8,8h56c4.4,0,8-3.6,8-8V144
		C912,126.3,897.7,112,880,112z"/>
</g>
</svg>
