<?xml version="1.0" encoding="utf-8"?>
<!-- Generator: Adobe Illustrator 21.0.0, SVG Export Plug-In . SVG Version: 6.00 Build 0)  -->
<svg version="1.1" id="图层_1" xmlns="http://www.w3.org/2000/svg" xmlns:xlink="http://www.w3.org/1999/xlink" x="0px" y="0px"
	 viewBox="0 0 1024 1024" style="enable-background:new 0 0 1024 1024;" xml:space="preserve">
<style type="text/css">
	.st0{fill:none;}
</style>
<title>behance-square-fill</title>
<desc>Created with Sketch.</desc>
<g>
	<path class="st0" d="M459.6,497.5c15.5-7.3,27-16.6,34.8-28.1c7.9-11.5,11.7-25.7,11.7-42.9c0-15.9-2.6-29.3-7.9-40
		c-5.3-10.8-12.8-19.4-22.3-26c-9.6-6.5-21.1-11.3-34.4-14.1c-13.5-2.8-28.3-4.3-44.6-4.3H236v341.1l165.6,0c15,0.1,30-1.9,44.6-5.7
		c13.9-3.6,27-9.6,38.8-17.7c11.3-8,20.5-18.6,26.9-30.9l0,0c6.7-12.4,10-27.3,9.9-44.8c0-21.3-5.1-39.6-15.5-54.8
		C496.1,514.2,480.6,503.5,459.6,497.5z M311.1,400.1h70.3c6.5,0,13,0.6,19.3,1.7c5.9,0.9,11.5,3,16.6,6c4.9,2.8,8.9,6.9,11.6,11.9
		c3,6.1,4.4,12.8,4.1,19.6c0,14.4-4.1,24.8-12.8,31h0c-8.7,6.4-19.7,9.6-33.1,9.5h-76.1V400.1z M442.4,602.1
		c-3,5.8-7.2,10.3-12.3,13.6c-5.1,3.5-11.1,5.8-17.8,7.2s-13.6,2.1-21.1,2.1h-80.2v-94h81.8c16.3,0,29.4,3.7,39.2,11.2h0
		c9.9,7.6,14.8,20.1,14.8,37.7C447,589,445.5,596.4,442.4,602.1z"/>
	<rect x="598.5" y="350.9" class="st0" width="138.4" height="33.7"/>
	<path class="st0" d="M764.4,474.3c-10.1-13.7-22.9-24.6-38.6-32.8c-15.7-8.2-34-12.2-55-12.2c-17.7-0.2-35.2,3.2-51.5,10
		c-30.6,12.9-54.4,37.8-65.9,68.9c-6,16-9.1,33.2-9.1,51.7c-0.2,17.9,2.9,35.7,8.9,52.6c5.5,15.3,14.1,29.3,25.1,41.2
		c11.2,11.6,24.8,20.7,39.9,26.5c15.7,6.1,33.2,9.3,52.7,9.3c27.9,0,51.9-6.4,71.5-19.2c19.9-12.8,34.4-34,44-63.7h-59.8
		c-2.3,7.6-8.3,14.9-18.1,21.8c-10,7-21.7,10.4-35.5,10.4c-19.1,0-33.7-5.1-43.9-14.9c-10.2-10-16.8-28.5-16.8-48h178.4v0
		c1.2-19.2-0.3-37.4-4.7-54.8C781.6,503.7,774.5,488.1,764.4,474.3z M612.4,533.4c0.4-5.5,1.4-11,3.1-16.2
		c1.8-6.4,4.9-12.3,9.1-17.4c4.4-5.3,10.2-9.9,17.2-13.6c7-3.7,16.1-5.6,26.9-5.6v0c16.7,0,30.3,4.8,38.6,13.9
		c8,9,14,21.8,15.6,39.1H612.4z"/>
	<path d="M880,112H144c-17.7,0-32,14.3-32,32v736c0,17.7,14.3,32,32,32h736c17.7,0,32-14.3,32-32V144C912,126.3,897.7,112,880,112z
		 M598.5,350.9h138.4v33.7H598.5V350.9z M512,628.8L512,628.8c-6.5,12.3-15.7,22.9-27,31c-11.8,8.2-24.9,14.2-38.8,17.7
		c-14.5,3.9-29.5,5.8-44.6,5.7l-165.6,0V342.1H397c16.3,0,31.1,1.5,44.6,4.3c13.4,2.8,24.8,7.6,34.4,14.1c9.5,6.5,17,15.2,22.3,26
		c5.2,10.7,7.9,24.1,7.9,40c0,17.2-3.9,31.4-11.7,42.9c-7.9,11.5-19.3,20.8-34.8,28.1c21.1,6,36.6,16.7,46.8,31.7
		c10.4,15.2,15.5,33.4,15.5,54.8C522,601.4,518.7,616.3,512,628.8z M790.8,576L790.8,576l-178.4,0c0,19.4,6.7,38,16.8,48
		c10.2,9.9,24.8,14.9,43.9,14.9c13.8,0,25.5-3.5,35.5-10.4c9.9-6.9,15.9-14.2,18.1-21.8h59.8c-9.6,29.7-24.2,50.9-44,63.7
		c-19.6,12.8-43.6,19.2-71.5,19.2c-19.5,0-37-3.2-52.7-9.3c-15.1-5.9-28.7-14.9-39.9-26.5c-11-11.9-19.6-25.9-25.1-41.2
		c-6.1-16.9-9.1-34.7-8.9-52.6c0-18.5,3.1-35.7,9.1-51.7c11.5-31.1,35.4-56,65.9-68.9c16.3-6.8,33.8-10.2,51.5-10
		c21,0,39.2,4,55,12.2c15.6,8.1,28.4,19.1,38.6,32.8c10.1,13.7,17.2,29.3,21.7,46.9C790.5,538.6,792,556.8,790.8,576z"/>
	<path d="M668.8,480.4L668.8,480.4c-10.8,0-19.9,1.9-26.9,5.6c-7,3.7-12.8,8.3-17.2,13.6c-4.2,5.1-7.3,11.1-9.1,17.4
		c-1.6,5.3-2.7,10.7-3.1,16.2h110.5c-1.6-17.3-7.6-30.1-15.6-39.1C699,485.2,685.5,480.4,668.8,480.4z"/>
	<path d="M420.3,470.3L420.3,470.3c8.7-6.3,12.9-16.7,12.9-31c0.3-6.8-1.1-13.5-4.1-19.6c-2.7-4.9-6.7-9-11.6-11.9
		c-5.1-3.1-10.7-5.1-16.6-6c-6.4-1.2-12.9-1.8-19.3-1.7h-70.3v79.7h76.1C400.5,479.9,411.6,476.7,420.3,470.3z"/>
	<path d="M432.1,542.3L432.1,542.3c-9.8-7.5-22.9-11.2-39.2-11.2h-81.8v94h80.2c7.5,0,14.4-0.7,21.1-2.1s12.7-3.8,17.8-7.2
		c5.1-3.3,9.2-7.8,12.3-13.6c3-5.8,4.5-13.2,4.5-22.1C447,562.4,442,549.9,432.1,542.3z"/>
</g>
</svg>
