<?xml version="1.0" encoding="utf-8"?>
<svg id="behance-square" viewBox="0 0 1024 1024" version="1.1" xmlns="http://www.w3.org/2000/svg" xmlns:xlink="http://www.w3.org/1999/xlink">
  <path d="M417.696 456.504c11.368-8.232 16.8-21.896 16.8-40.768a52.416 52.416 0 0 0-5.432-25.704 40.32 40.32 0 0 0-15.232-15.568 60.2 60.2 0 0 0-21.728-7.896 133.616 133.616 0 0 0-25.368-2.296h-92.232v104.664h99.736c17.528 0.168 32.032-4.032 43.4-12.432h0.056z m15.568 94.528c-12.936-9.8-30.072-14.672-51.464-14.672H274.504v123.368h105.168c9.8 0 18.928-0.896 27.664-2.8s16.632-4.928 23.296-9.464c6.664-4.368 12.096-10.304 16.072-17.864 3.976-7.56 5.936-17.304 5.936-29.064 0-23.072-6.496-39.536-19.432-49.504h0.056z"></path>
  <path d="M876 64H148c-46.2 0-84 37.8-84 84v728c0 46.2 37.8 84 84 84h728c46.2 0 84-37.8 84-84V148c0-46.2-37.8-84-84-84zM651.328 299.704h181.496V344H651.328v-44.296zM537.928 664.6a115.36 115.36 0 0 1-35.336 40.6 157.92 157.92 0 0 1-50.904 23.296A224.392 224.392 0 0 1 393.224 736l-217.168 0.002V288.168H387.12c21.336 0 40.768 1.904 58.464 5.6 17.528 3.696 32.536 9.968 45.136 18.536 12.432 8.568 22.232 19.936 29.232 34.104 6.832 14 10.304 31.696 10.304 52.528 0 22.568-5.096 41.272-15.4 56.336s-25.368 27.272-45.696 36.904c27.664 7.896 47.936 21.896 61.432 41.664 13.664 19.936 20.328 43.904 20.328 71.904 0.168 22.904-4.2 42.504-12.936 58.8l-0.056 0.056z m365.568-69.272H669.528c0 25.536 8.736 49.896 22.064 63 13.328 12.936 32.536 19.6 57.568 19.6 18.032 0 33.432-4.536 46.536-13.664 12.936-9.072 20.832-18.704 23.8-28.672h78.4c-12.6 39.032-31.696 66.864-57.736 83.664-25.704 16.8-57.232 25.2-93.8 25.2-25.536 0-48.496-4.2-69.104-12.264a146.328 146.328 0 0 1-52.304-34.832 159.824 159.824 0 0 1-32.928-54.096 199.472 199.472 0 0 1-11.704-69.104c0-24.304 4.032-46.928 11.928-67.928a157.64 157.64 0 0 1 86.464-90.496 168.728 168.728 0 0 1 67.536-13.104c27.496 0 51.464 5.264 72.072 16.072 20.496 10.696 37.296 25.032 50.568 43.064 13.272 18.032 22.568 38.528 28.504 61.6 5.768 22.736 7.672 46.704 6.104 71.904v0.056z"></path>
  <path d="M743.504 469.832c-14.168 0-26.096 2.464-35.336 7.336-9.24 4.872-16.8 10.864-22.568 17.864a63.336 63.336 0 0 0-11.928 22.904 96.6 96.6 0 0 0-4.032 21.336h144.928c-2.072-22.736-9.968-39.536-20.496-51.296-10.864-11.928-28.672-18.2-50.568-18.2v0.056z"></path>
</svg>