<?xml version="1.0" encoding="utf-8"?>
<svg id="behance" viewBox="0 0 1024 1024" version="1.1" xmlns="http://www.w3.org/2000/svg" xmlns:xlink="http://www.w3.org/1999/xlink">
  <path d="M872.007 268.302H648.59v54.24h223.416v-54.24zM761.838 454.681c-52.468 0-87.447 32.818-90.944 85.32h178.39c-4.812-52.95-32.348-85.32-87.446-85.32z m6.996 255.962c33.244 0 76.085-17.949 86.579-52.055h96.625c-29.718 91.453-91.392 134.324-186.702 134.324-125.923 0-204.191-85.321-204.191-209.564 0-119.875 82.633-211.328 204.19-211.328 125.057 0 194.118 98.454 194.118 216.564 0 7-0.447 14.001-0.867 20.553H670.894c0 63.872 33.663 101.506 97.94 101.506zM185.11 688.746h129.421c49.418 0 89.63-17.501 89.63-73.056 0-56.451-33.664-78.74-87-78.74h-132.05v151.824-0.028z m0-234.933h122.873c43.29 0 73.903-18.817 73.903-65.636 0-50.767-39.344-63.003-83.081-63.003H185.138v128.639h-0.028zM64 231.116h259.71c94.442 0 176.208 26.686 176.208 136.508 0 55.555-25.8 91.453-75.218 115.058 67.774 19.265 100.57 70.452 100.57 139.56 0 112.006-93.994 160.141-194.117 160.141H64V231.088v0.028z"></path>
</svg>