<?xml version="1.0" encoding="utf-8"?>
<!-- Generator: Adobe Illustrator 21.0.0, SVG Export Plug-In . SVG Version: 6.00 Build 0)  -->
<svg version="1.1" id="图层_1" xmlns="http://www.w3.org/2000/svg" xmlns:xlink="http://www.w3.org/1999/xlink" x="0px" y="0px"
	 viewBox="0 0 1024 1024" style="enable-background:new 0 0 1024 1024;" xml:space="preserve">
<style type="text/css">
	.st0{fill:none;}
</style>
<title>bell-fill</title>
<desc>Created with Sketch.</desc>
<g>
	<path class="st0" d="M512,888c26.5,0,48-21.5,48-48h-96C464,866.5,485.5,888,512,888z"/>
	<path d="M816,768h-24V428c0-141.1-104.3-257.8-240-277.2V112c0-22.1-17.9-40-40-40c-22.1,0-40,17.9-40,40v38.8
		C336.3,170.2,232,286.9,232,428v340h-24c-17.7,0-32,14.3-32,32v32c0,4.4,3.6,8,8,8h216c0,61.8,50.2,112,112,112s112-50.2,112-112
		h216c4.4,0,8-3.6,8-8v-32C848,782.3,833.7,768,816,768z M512,888c-26.5,0-48-21.5-48-48h96C560,866.5,538.5,888,512,888z"/>
</g>
</svg>
