<?xml version="1.0" encoding="utf-8"?>
<!-- Generator: Adobe Illustrator 21.0.0, SVG Export Plug-In . SVG Version: 6.00 Build 0)  -->
<svg version="1.1" id="图层_1" xmlns="http://www.w3.org/2000/svg" xmlns:xlink="http://www.w3.org/1999/xlink" x="0px" y="0px"
	 viewBox="0 0 1024 1024" style="enable-background:new 0 0 1024 1024;" xml:space="preserve">
<style type="text/css">
	.st0{fill:none;}
</style>
<title>bg-colors</title>
<desc>Created with Sketch.</desc>
<g>
	<polygon class="st0" points="402.2,251.6 223.4,430.4 581.1,430.4 	"/>
	<path d="M766.4,744.3c43.7,0,79.4-36.2,79.4-80.5c0-53.5-79.4-140.8-79.4-140.8S687,610.3,687,663.8
		C687,708.1,722.7,744.3,766.4,744.3z"/>
	<path d="M389.3,700.2c7.1,7.1,18.6,7.1,25.6,0L671,444.2c7.1-7.1,7.1-18.6,0-25.6l-256-256c-0.6-0.6-1.3-1.2-2-1.7l-78.2-78.2
		c-3.5-3.5-9.3-3.5-12.8,0l-48,48c-3.5,3.5-3.5,9.3,0,12.8l67.2,67.2L133.4,418.6c-7.1,7.1-7.1,18.6,0,25.6L389.3,700.2z
		 M402.2,251.6l178.9,178.9l-357.7,0L402.2,251.6z"/>
	<path d="M904,816H120c-4.4,0-8,3.6-8,8v80c0,4.4,3.6,8,8,8h784c4.4,0,8-3.6,8-8v-80C912,819.6,908.4,816,904,816z"/>
</g>
</svg>
