<?xml version="1.0" encoding="utf-8"?>
<!-- Generator: Adobe Illustrator 21.0.0, SVG Export Plug-In . SVG Version: 6.00 Build 0)  -->
<svg version="1.1" id="图层_1" xmlns="http://www.w3.org/2000/svg" xmlns:xlink="http://www.w3.org/1999/xlink" x="0px" y="0px"
	 viewBox="0 0 1024 1024" style="enable-background:new 0 0 1024 1024;" xml:space="preserve">
<style type="text/css">
	.st0{fill:none;}
</style>
<title>bold</title>
<desc>Created with Sketch.</desc>
<g>
	<path class="st0" d="M579.1,542.7H328v238.7h251.1c63.8,0,115.5-51,115.5-113.9v-10.8C694.6,593.7,642.9,542.7,579.1,542.7z"/>
	<path class="st0" d="M656,346.7v-9.5c0-54.8-46.3-99.3-103.3-99.3H328v208h224.7C609.7,446,656,401.6,656,346.7z"/>
	<path d="M697.8,481.4c33.6-35,54.2-82.3,54.2-134.3v-10.2C752,229.3,663.9,142,555.3,142H259.4c-15.1,0-27.4,12.3-27.4,27.4V446v96
		v306.5c0,16.3,13.2,29.5,29.5,29.5h318.7c117,0,211.8-94.2,211.8-210.5v-11C792,583.5,754.6,519.2,697.8,481.4z M328,238h224.7
		c57.1,0,103.3,44.4,103.3,99.3v9.5c0,54.8-46.3,99.3-103.3,99.3H328V238z M694.6,667.4c0,62.9-51.7,113.9-115.5,113.9H328V542.7
		h251.1c63.8,0,115.5,51,115.5,113.9V667.4z"/>
</g>
</svg>
