<?xml version="1.0" encoding="utf-8"?>
<svg id="book" viewBox="0 0 1024 1024" version="1.1" xmlns="http://www.w3.org/2000/svg" xmlns:xlink="http://www.w3.org/1999/xlink">
  <path d="M822.5 63.5 562.6 63.5l-72 0-121 0-72 0-93.1 0c-39.8 0-72 32.2-72 72l0 753.1c0 39.8 32.2 72 72 72l618.1 0c39.8 0 72-32.2 72-72L894.6 135.5C894.5 95.7 862.2 63.5 822.5 63.5zM490.6 135.5l0 209.9-8.7-8.7-33.3-33.3c-9.5-9.5-25-9.6-34.6-0.1l-44.4 43.9L369.6 135.5 490.6 135.5zM297.6 135.5l0 277.3c0 19.7 15.9 35.6 35.6 35.6l0 0c23.3 0 45.7-9.2 62.3-25.6l35.5-35.2 34.9 34.9c15.9 15.9 37.3 25.2 59.8 25.9l1.4 0c19.7 0 35.6-15.9 35.6-35.6L562.7 135.5l259.9 0 0 624.3-618 0L204.6 135.5 297.6 135.5zM204.5 888.6l0-56.8 618 0 0 56.8L204.5 888.6z"></path>
</svg>