<?xml version="1.0" encoding="utf-8"?>
<!-- Generator: Adobe Illustrator 21.0.0, SVG Export Plug-In . SVG Version: 6.00 Build 0)  -->
<svg version="1.1" id="图层_1" xmlns="http://www.w3.org/2000/svg" xmlns:xlink="http://www.w3.org/1999/xlink" x="0px" y="0px"
	 viewBox="0 0 1024 1024" style="enable-background:new 0 0 1024 1024;" xml:space="preserve">
<style type="text/css">
	.st0{fill:none;}
</style>
<title>border-outer</title>
<desc>Created with Sketch.</desc>
<g>
	<path class="st0" d="M184,840h656V184H184V840z M658,484c0-4.4,3.6-8,8-8h56c4.4,0,8,3.6,8,8v56c0,4.4-3.6,8-8,8h-56
		c-4.4,0-8-3.6-8-8V484z M476,302c0-4.4,3.6-8,8-8h56c4.4,0,8,3.6,8,8v56c0,4.4-3.6,8-8,8h-56c-4.4,0-8-3.6-8-8V302z M476,484
		c0-4.4,3.6-8,8-8h56c4.4,0,8,3.6,8,8v56c0,4.4-3.6,8-8,8h-56c-4.4,0-8-3.6-8-8V484z M476,666c0-4.4,3.6-8,8-8h56c4.4,0,8,3.6,8,8
		v56c0,4.4-3.6,8-8,8h-56c-4.4,0-8-3.6-8-8V666z M294,484c0-4.4,3.6-8,8-8h56c4.4,0,8,3.6,8,8v56c0,4.4-3.6,8-8,8h-56
		c-4.4,0-8-3.6-8-8V484z"/>
	<path d="M880,112H144c-17.7,0-32,14.3-32,32v736c0,17.7,14.3,32,32,32h736c17.7,0,32-14.3,32-32V144C912,126.3,897.7,112,880,112z
		 M840,840H184V184h656V840z"/>
	<path d="M484,366h56c4.4,0,8-3.6,8-8v-56c0-4.4-3.6-8-8-8h-56c-4.4,0-8,3.6-8,8v56C476,362.4,479.6,366,484,366z"/>
	<path d="M302,548h56c4.4,0,8-3.6,8-8v-56c0-4.4-3.6-8-8-8h-56c-4.4,0-8,3.6-8,8v56C294,544.4,297.6,548,302,548z"/>
	<path d="M666,548h56c4.4,0,8-3.6,8-8v-56c0-4.4-3.6-8-8-8h-56c-4.4,0-8,3.6-8,8v56C658,544.4,661.6,548,666,548z"/>
	<path d="M484,548h56c4.4,0,8-3.6,8-8v-56c0-4.4-3.6-8-8-8h-56c-4.4,0-8,3.6-8,8v56C476,544.4,479.6,548,484,548z"/>
	<path d="M484,730h56c4.4,0,8-3.6,8-8v-56c0-4.4-3.6-8-8-8h-56c-4.4,0-8,3.6-8,8v56C476,726.4,479.6,730,484,730z"/>
</g>
</svg>
