<?xml version="1.0" encoding="utf-8"?>
<!-- Generator: Adobe Illustrator 21.0.0, SVG Export Plug-In . SVG Version: 6.00 Build 0)  -->
<svg version="1.1" id="图层_1" xmlns="http://www.w3.org/2000/svg" xmlns:xlink="http://www.w3.org/1999/xlink" x="0px" y="0px"
	 viewBox="0 0 1024 1024" style="enable-background:new 0 0 1024 1024;" xml:space="preserve">
<style type="text/css">
	.st0{fill:none;}
</style>
<title>branches</title>
<desc>Created with Sketch.</desc>
<g>
	<path class="st0" d="M284,764c-26.5,0-48,21.5-48,48s21.5,48,48,48s48-21.5,48-48S310.5,764,284,764z"/>
	<path class="st0" d="M284,260c26.5,0,48-21.5,48-48s-21.5-48-48-48s-48,21.5-48,48S257.5,260,284,260z"/>
	<path class="st0" d="M740,225c-26.5,0-48,21.5-48,48s21.5,48,48,48s48-21.5,48-48S766.5,225,740,225z"/>
	<path d="M740,161c-61.8,0-112,50.2-112,112c0,50.1,33.1,92.6,78.5,106.9l0,95.9L320,602.4V318.1c44.2-15,76-56.9,76-106.1
		c0-61.8-50.2-112-112-112s-112,50.2-112,112c0,49.2,31.8,91,76,106.1v387.9c-44.2,15-76,56.9-76,106.1c0,61.8,50.2,112,112,112
		s112-50.2,112-112c0-49.2-31.8-91-76-106.1v-27.8l423.5-138.7c20.9-6.8,34.9-26.2,34.9-48.2l0-113.1C821.3,362.4,852,321.2,852,273
		C852,211.2,801.8,161,740,161z M236,212c0-26.5,21.5-48,48-48s48,21.5,48,48s-21.5,48-48,48S236,238.5,236,212z M332,812
		c0,26.5-21.5,48-48,48s-48-21.5-48-48s21.5-48,48-48S332,785.5,332,812z M740,321c-26.5,0-48-21.5-48-48s21.5-48,48-48
		s48,21.5,48,48S766.5,321,740,321z"/>
</g>
</svg>
