<?xml version="1.0" encoding="utf-8"?>
<!-- Generator: Adobe Illustrator 21.0.0, SVG Export Plug-In . SVG Version: 6.00 Build 0)  -->
<svg version="1.1" id="图层_1" xmlns="http://www.w3.org/2000/svg" xmlns:xlink="http://www.w3.org/1999/xlink" x="0px" y="0px"
	 viewBox="0 0 1024 1024" style="enable-background:new 0 0 1024 1024;" xml:space="preserve">
<style type="text/css">
	.st0{fill:none;}
</style>
<title>build</title>
<desc>Created with Sketch.</desc>
<g>
	<rect x="144" y="546" class="st0" width="200" height="200"/>
	<rect x="412" y="278" class="st0" width="200" height="200"/>
	<rect x="412" y="546" class="st0" width="200" height="200"/>
	<rect x="680" y="278" class="st0" width="200" height="200"/>
	<path d="M916,210H680h-68H376c-17.7,0-32,14.3-32,32v236H108c-17.7,0-32,14.3-32,32v272c0,17.7,14.3,32,32,32h236h68h236
		c17.7,0,32-14.3,32-32V546h236c17.7,0,32-14.3,32-32V242C948,224.3,933.7,210,916,210z M412,278h200v200H412V278z M344,746H144V546
		h200V746z M612,746H412V546h200V746z M880,478H680V278h200V478z"/>
</g>
</svg>
