<?xml version="1.0" encoding="utf-8"?>

<svg id="bulb" viewBox="0 0 1024 1024">
  <path d="M640 952H384c-19.9 0-36 16.1-36 36s16.1 36 36 36h256c19.9 0 36-16.1 36-36s-16.1-36-36-36zM896 374C896 167.4 724.1 0 512 0S128 167.4 128 374c0 138.4 77.2 259.3 192 323.9V760c0 39.8 32.2 72 72 72h240c39.8 0 72-32.2 72-72v-62.1C818.8 633.3 896 512.4 896 374zM733.3 586.9c-28.7 27.9-62 49.8-99.2 65.2-0.7 0.3-1.4 0.5-2 0.8V760H392V652.9c-0.7-0.3-1.4-0.5-2-0.8-37.2-15.3-70.6-37.2-99.2-65.2-28.5-27.8-50.9-60.1-66.5-96-16.1-37-24.2-76.3-24.2-116.9s8.1-79.9 24.2-116.9c15.6-35.9 38-68.2 66.5-96 28.7-27.9 62-49.8 99.2-65.2 38.6-15.9 79.7-24 122-24 42.4 0 83.4 8.1 122 24 37.2 15.3 70.6 37.2 99.2 65.2 28.5 27.8 50.9 60.1 66.5 96 16.1 37 24.2 76.3 24.2 116.9s-8.1 79.9-24.2 116.9c-15.5 35.9-37.9 68.2-66.4 96z"></path>
</svg>