<?xml version="1.0" encoding="utf-8"?>
<svg id="calculator" viewBox="0 0 1024 1024" version="1.1" xmlns="http://www.w3.org/2000/svg" xmlns:xlink="http://www.w3.org/1999/xlink">
  <path d="M856.6 64 167.5 64c-21.3 0-38.7 17.5-38.7 38.8l0 818.3c0 21.4 17.4 38.9 38.7 38.9l689.1 0c21.3 0 38.7-17.5 38.7-38.9L895.3 102.8C895.2 81.4 877.9 64 856.6 64zM817.9 882.3 206.1 882.3 206.1 141.7l611.7 0L817.9 882.3 817.9 882.3z"></path>
  <path d="M323.7 486.1l377.5 0c21.3 0 38.7-17.4 38.7-38.7L739.9 262c0-21.3-17.4-38.7-38.7-38.7L323.7 223.3c-21.3 0-38.7 17.4-38.7 38.7l0 185.2C285 468.7 302.4 486.1 323.7 486.1zM362.3 300.7l300.2 0 0 107.9L362.3 408.6 362.3 300.7z"></path>
  <path d="M293 707l23.5 0 0 23.5c0 21.3 17.4 38.7 38.7 38.7 21.3 0 38.7-17.4 38.7-38.7L393.9 707l23.4 0c21.3 0 38.7-17.4 38.7-38.7 0-21.3-17.4-38.7-38.7-38.7l-23.4 0 0-23.4c0-21.3-17.4-38.7-38.7-38.7-21.3 0-38.7 17.4-38.7 38.7l0 23.4L293 629.6c-21.3 0-38.7 17.4-38.7 38.7C254.4 689.6 271.8 707 293 707z"></path>
  <path d="M606.6 567.6c-21.3 0-38.7 17.4-38.7 38.7 0 21.3 17.4 38.7 38.7 38.7L731 645c21.3 0 38.7-17.4 38.7-38.7 0-21.3-17.4-38.7-38.7-38.7L606.6 567.6z"></path>
  <path d="M731 734.4 606.6 734.4c-21.3 0-38.7 17.4-38.7 38.7s17.4 38.7 38.7 38.7L731 811.8c21.3 0 38.7-17.4 38.7-38.7S752.2 734.4 731 734.4z"></path>
</svg>