<?xml version="1.0" encoding="utf-8"?>
<!-- Generator: Adobe Illustrator 21.0.0, SVG Export Plug-In . SVG Version: 6.00 Build 0)  -->
<svg version="1.1" id="图层_1" xmlns="http://www.w3.org/2000/svg" xmlns:xlink="http://www.w3.org/1999/xlink" x="0px" y="0px"
	 viewBox="0 0 1024 1024" style="enable-background:new 0 0 1024 1024;" xml:space="preserve">
<style type="text/css">
	.st0{fill:none;}
</style>
<title>calendar-check-fill</title>
<desc>Created with Sketch.</desc>
<g>
	<path class="st0" d="M416,632H232c-4.4,0-8,3.6-8,8v48c0,4.4,3.6,8,8,8h184c4.4,0,8-3.6,8-8v-48C424,635.6,420.4,632,416,632z"/>
	<path class="st0" d="M416,496H232c-4.4,0-8,3.6-8,8v48c0,4.4,3.6,8,8,8h184c4.4,0,8-3.6,8-8v-48C424,499.6,420.4,496,416,496z"/>
	<path class="st0" d="M792,448h-54.9c-5.1,0-9.9,2.5-12.9,6.6L620.6,598.3l-52.8-73.1c-3-4.2-7.8-6.6-12.9-6.6H500
		c-6.5,0-10.3,7.4-6.5,12.7l114.1,158.2c6.4,8.8,19.4,8.8,25.8,0l165-228.7C802.3,455.4,798.5,448,792,448z"/>
	<path d="M928,224H768v-56c0-4.4-3.6-8-8-8h-56c-4.4,0-8,3.6-8,8v56H548v-56c0-4.4-3.6-8-8-8h-56c-4.4,0-8,3.6-8,8v56H328v-56
		c0-4.4-3.6-8-8-8h-56c-4.4,0-8,3.6-8,8v56H96c-17.7,0-32,14.3-32,32v576c0,17.7,14.3,32,32,32h832c17.7,0,32-14.3,32-32V256
		C960,238.3,945.7,224,928,224z M424,688c0,4.4-3.6,8-8,8H232c-4.4,0-8-3.6-8-8v-48c0-4.4,3.6-8,8-8h184c4.4,0,8,3.6,8,8V688z
		 M424,552c0,4.4-3.6,8-8,8H232c-4.4,0-8-3.6-8-8v-48c0-4.4,3.6-8,8-8h184c4.4,0,8,3.6,8,8V552z M798.5,460.7l-165,228.7
		c-6.4,8.8-19.4,8.8-25.8,0L493.5,531.2c-3.8-5.3,0-12.7,6.5-12.7h54.9c5.1,0,9.9,2.5,12.9,6.6l52.8,73.1l103.7-143.7
		c3-4.2,7.8-6.6,12.9-6.6H792C798.5,448,802.3,455.4,798.5,460.7z"/>
</g>
</svg>
