<?xml version="1.0" encoding="utf-8"?>

<svg id="calendar" viewBox="0 0 1024 1024">
  <path d="M888 128H768v-28c0-19.9-16.1-36-36-36s-36 16.1-36 36v28H328v-28c0-19.9-16.1-36-36-36s-36 16.1-36 36v28H136c-39.8 0-72 32.2-72 72v688c0 39.8 32.2 72 72 72h752c39.8 0 72-32.3 72-72V200c0-39.8-32.2-72-72-72z m-752 72h120v20c0 19.9 16.1 36 36 36s36-16.1 36-36v-20h368v20c0 19.9 16.1 36 36 36s36-16.1 36-36v-20h120v112H136V200z m752 688H136V384h752v504zM288 512h64c17.7 0 32 14.3 32 32s-14.3 32-32 32h-64c-17.7 0-32-14.3-32-32s14.3-32 32-32zM480 512h64c17.7 0 32 14.3 32 32s-14.3 32-32 32h-64c-17.7 0-32-14.3-32-32s14.3-32 32-32zM672 512h64c17.7 0 32 14.3 32 32s-14.3 32-32 32h-64c-17.7 0-32-14.3-32-32s14.3-32 32-32zM288 706h64c17.7 0 32 14.3 32 32s-14.3 32-32 32h-64c-17.7 0-32-14.3-32-32s14.3-32 32-32zM480 706h64c17.7 0 32 14.3 32 32s-14.3 32-32 32h-64c-17.7 0-32-14.3-32-32s14.3-32 32-32z"></path>
</svg>