<?xml version="1.0" encoding="utf-8"?>

<svg id="camera" viewBox="0 0 1024 1024">
  <path d="M899 237 730.7 237l-93.9-99.6-0.4-0.4c-6.7-6.2-16.4-9.7-26.7-9.7L413.9 127.3c-10.3 0-20 3.6-26.6 9.8l-0.2 0.2L292.8 237 125 237c-34.9 0-63.3 28.4-63.3 63.3l0 531.9c0 34.9 28.4 63.3 63.3 63.3L899 895.5c34.9 0 63.3-28.4 63.3-63.3L962.3 300.3C962.3 265.4 933.9 237 899 237zM427.8 200l168 0 34.8 37L392.9 237 427.8 200zM511.2 732.1c-95.9 0-173.9-78-173.9-173.9 0-95.9 78-173.9 173.9-173.9 95.9 0 173.9 78 173.9 173.9C685.1 654.1 607.1 732.1 511.2 732.1z"></path>
  <path d="M511.2 455.7c-27.4 0-53.1 10.7-72.5 30.1-19.4 19.4-30.1 45.1-30.1 72.5 0 27.4 10.7 53.1 30.1 72.5 19.4 19.4 45.1 30.1 72.5 30.1 27.4 0 53.1-10.7 72.5-30.1 19.4-19.4 30.1-45.1 30.1-72.5s-10.7-53.1-30.1-72.5C564.4 466.3 538.6 455.7 511.2 455.7z"></path>
</svg>