<?xml version="1.0" encoding="utf-8"?>
<!-- Generator: Adobe Illustrator 21.0.0, SVG Export Plug-In . SVG Version: 6.00 Build 0)  -->
<svg version="1.1" id="图层_1" xmlns="http://www.w3.org/2000/svg" xmlns:xlink="http://www.w3.org/1999/xlink" x="0px" y="0px"
	 viewBox="0 0 1024 1024" style="enable-background:new 0 0 1024 1024;" xml:space="preserve">
<style type="text/css">
	.st0{fill:none;}
</style>
<title>car-fill</title>
<desc>Created with Sketch.</desc>
<g>
	<path class="st0" d="M644,604h-40c-4.4,0-8,3.6-8,8v36H428v-36c0-4.4-3.6-8-8-8h-40c-4.4,0-8,3.6-8,8v84c0,4.4,3.6,8,8,8h264
		c4.4,0,8-3.6,8-8v-84C652,607.6,648.4,604,644,604z"/>
	<circle class="st0" cx="264" cy="581" r="40"/>
	<circle class="st0" cx="760" cy="581" r="40"/>
	<path class="st0" d="M301.2,210c-3.5,0-6.5,2.2-7.6,5.5l-0.4,1.3l-0.5,1.3L220,418h584.2l-75.4-208H301.2z"/>
	<path d="M959,413.4L935.3,372c-2.2-3.8-7.1-5.1-10.9-2.9l-50.7,29.6l-78.3-216.2c-8.5-26.5-33.1-44.4-60.9-44.4H301.2
		c-34.7,0-65.5,22.4-76.2,55.5l-74.6,205.2l-50.8-29.6c-3.8-2.2-8.7-0.9-10.9,2.9L65,413.4c-2.2,3.8-0.9,8.6,2.9,10.8l60.4,35.2
		l-14.5,40c-1.2,3.2-1.8,6.6-1.8,10V822v35.6c0,15.7,11.8,28.4,26.3,28.4h67.6c12.3,0,23-9.3,25.6-22.3l7.7-37.7h545.6l7.7,37.7
		c2.7,13,13.3,22.3,25.6,22.3h67.6c14.5,0,26.3-12.7,26.3-28.4V822V509.4c0-3.4-0.6-6.8-1.8-10l-14.5-40l60.3-35.2
		C959.8,422,961.1,417.2,959,413.4z M264,621c-22.1,0-40-17.9-40-40c0-22.1,17.9-40,40-40s40,17.9,40,40
		C304,603.1,286.1,621,264,621z M652,696c0,4.4-3.6,8-8,8H380c-4.4,0-8-3.6-8-8v-84c0-4.4,3.6-8,8-8h40c4.4,0,8,3.6,8,8v36h168v-36
		c0-4.4,3.6-8,8-8h40c4.4,0,8,3.6,8,8V696z M760,621c-22.1,0-40-17.9-40-40c0-22.1,17.9-40,40-40s40,17.9,40,40
		C800,603.1,782.1,621,760,621z M220,418l72.7-199.9l0.5-1.3l0.4-1.3c1.1-3.3,4.1-5.5,7.6-5.5h427.6l75.4,208H220z"/>
</g>
</svg>
