<?xml version="1.0" encoding="utf-8"?>
<svg id="car" viewBox="0 0 1024 1024" version="1.1" xmlns="http://www.w3.org/2000/svg" xmlns:xlink="http://www.w3.org/1999/xlink">
  <path d="M952 448h8l-49.5-241.5c-8-39-46.7-70.5-86.5-70.5H200c-39.8 0-78.5 31.6-86.5 70.5L64 448h8c-39.8 0-72 32.2-72 72v176c0 37.1 28 67.6 64 71.6v0.4c0 70.7 57.3 128 128 128s128-57.3 128-128h384c0 70.7 57.3 128 128 128s128-57.3 128-128v-0.4c36-4 64-34.5 64-71.6V520c0-39.8-32.2-72-72-72zM182 208h656l50 240H136l46-240z m770 488h-64v72c0 30.9-25.1 56-56 56s-56-25.1-56-56v-72H248v72c0 30.9-25.1 56-56 56s-56-25.1-56-56v-72H72V520h880v176z"></path>
  <path d="M192 608m-36 0a36 36 0 1 0 72 0 36 36 0 1 0-72 0Z"></path>
  <path d="M832 608m-36 0a36 36 0 1 0 72 0 36 36 0 1 0-72 0Z"></path>
</svg>