<?xml version="1.0" encoding="utf-8"?>

<svg id="caret-circleoup" viewBox="0 0 1024 1024">
  <path d="M511.6 1.2C229.2 1.2 0.2 230.2 0.2 512.6s229 511.4 511.4 511.4S1023 795 1023 512.6 794 1.2 511.6 1.2zM828 829c-41.1 41.1-89 73.4-142.2 95.9C630.6 948.2 572 960 511.6 960c-60.4 0-119-11.8-174.1-35.1-53.3-22.5-101.1-54.8-142.2-95.9-41.1-41.1-73.4-89-95.9-142.2C76 631.6 64.2 573 64.2 512.6s11.8-119 35.1-174.1c22.5-53.3 54.8-101.1 95.9-142.2 41.1-41.1 89-73.4 142.2-95.9C392.6 77 451.2 65.2 511.6 65.2c60.4 0 119 11.8 174.1 35.1 53.3 22.5 101.1 54.8 142.2 95.9 41.1 41.1 73.4 89 95.9 142.2 23.3 55.1 35.1 113.7 35.1 174.1s-11.8 119-35.1 174.1C901.3 740 869.1 787.8 828 829z"></path>
  <path d="M528.3 336.8c-4.4-4.6-10.3-7.2-16.7-7.2 0 0-0.1 0-0.1 0-6.4 0-12.4 2.5-16.8 7.1L266.2 580.7c-6.6 6.8-8.4 16.5-4.7 25.4 3.7 8.9 12 14.4 21.6 14.4L740 620.5c9.6 0 17.9-5.5 21.6-14.4 3.7-8.8 1.8-18.5-4.9-25.4L528.3 336.8z"></path>
</svg>