<?xml version="1.0" encoding="utf-8"?>
<svg id="check-circle" viewBox="0 0 1024 1024" version="1.1" xmlns="http://www.w3.org/2000/svg" xmlns:xlink="http://www.w3.org/1999/xlink">
  <path d="M512 0C229.2 0 0 229.2 0 512s229.2 512 512 512 512-229.2 512-512S794.8 0 512 0zM772.3 356.4 412.8 717.1c-0.1 0.1-0.3 0.3-0.4 0.4-2.4 2.6-5.3 4.9-8.5 6.7-5.6 3.2-11.8 4.7-17.8 4.7-12.5 0-24.7-6.5-31.3-18.2L245.9 520.3c-9.9-17.3-3.9-39.3 13.4-49.1 17.3-9.9 39.3-3.9 49.1 13.4l85.4 149.5 327.5-328.5c14-14.1 36.8-14.1 50.9-0.1C786.3 319.6 786.3 342.4 772.3 356.4z"></path>
</svg>