<?xml version="1.0" encoding="utf-8"?>

<svg id="check-square-o" viewBox="0 0 1024 1024">
  <path d="M721.3 305.6 393.8 634.1l-85.4-149.5c-9.9-17.3-31.8-23.3-49.1-13.4S236 503 245.9 520.3l108.8 190.5c6.6 11.6 18.8 18.2 31.3 18.2 6.1 0 12.2-1.5 17.8-4.7 3.2-1.9 6.1-4.1 8.5-6.7 0.1-0.1 0.3-0.3 0.4-0.4l359.5-360.6c14-14.1 14-36.9-0.1-50.9C758.1 291.5 735.4 291.5 721.3 305.6z"></path>
  <path d="M888.5 135.5 888.5 135.5 888.5 135.5l0 753.1 0 0-753 0 0 0L135.5 135.5l0 0L888.5 135.5M888.5 63.5l-753 0c-39.8 0-72 32.2-72 72l0 753.1c0 39.8 32.2 72 72 72l753.1 0c39.8 0 72-32.2 72-72L960.6 135.5C960.5 95.7 928.2 63.5 888.5 63.5L888.5 63.5z"></path>
</svg>