<?xml version="1.0" encoding="utf-8"?>

<svg id="checks-quare" viewBox="0 0 1024 1024">
  <path d="M888.5 63.5l-753 0c-39.8 0-72 32.2-72 72l0 753.1c0 39.8 32.2 72 72 72l753.1 0c39.8 0 72-32.2 72-72L960.6 135.5C960.5 95.7 928.2 63.5 888.5 63.5zM772.2 356.6 412.7 717.2c-0.1 0.1-0.3 0.3-0.4 0.4-2.4 2.6-5.3 4.8-8.5 6.7-5.6 3.2-11.7 4.7-17.8 4.7-12.5 0-24.7-6.6-31.3-18.2L245.9 520.3c-9.9-17.3-3.9-39.2 13.4-49.1 17.3-9.9 39.2-3.9 49.1 13.4l85.4 149.5 327.5-328.5c14.1-14.1 36.8-14.1 50.8 0.1C786.2 319.7 786.2 342.5 772.2 356.6z"></path>
</svg>