<?xml version="1.0" encoding="utf-8"?>

<svg id="check-circle-o" viewBox="0 0 1024 1024">
  <path d="M721.3 305.6 393.8 634.1l-85.4-149.5c-9.9-17.3-31.8-23.3-49.1-13.4-17.3 9.9-23.3 31.8-13.4 49.1l108.8 190.5c6.6 11.6 18.8 18.2 31.3 18.2 6.1 0 12.2-1.5 17.8-4.7 3.2-1.9 6.1-4.1 8.5-6.7 0.1-0.1 0.3-0.3 0.4-0.4l359.5-360.6c14-14.1 14-36.9-0.1-50.9C758.1 291.5 735.4 291.5 721.3 305.6z"></path>
  <path d="M512 0C229.2 0 0 229.2 0 512s229.2 512 512 512 512-229.2 512-512S794.8 0 512 0zM823.1 823.1c-40.4 40.4-87.5 72.2-139.9 94.3C629 940.4 571.4 952 512 952c-59.4 0-117-11.6-171.2-34.5-52.4-22.2-99.4-53.9-139.9-94.3-40.4-40.4-72.2-87.5-94.3-139.9C83.6 629 72 571.4 72 512c0-59.4 11.6-117 34.5-171.2 22.2-52.4 53.9-99.4 94.3-139.9 40.4-40.4 87.5-72.2 139.9-94.3C395 83.6 452.6 72 512 72c59.4 0 117 11.6 171.2 34.5 52.4 22.2 99.4 53.9 139.9 94.3 40.4 40.4 72.2 87.5 94.3 139.9C940.4 395 952 452.6 952 512c0 59.4-11.6 117-34.5 171.2C895.3 735.6 863.6 782.7 823.1 823.1z"></path>
</svg>