<?xml version="1.0" encoding="utf-8"?>
<!-- Generator: Adobe Illustrator 21.0.0, SVG Export Plug-In . SVG Version: 6.00 Build 0)  -->
<svg version="1.1" id="图层_1" xmlns="http://www.w3.org/2000/svg" xmlns:xlink="http://www.w3.org/1999/xlink" x="0px" y="0px"
	 viewBox="0 0 1024 1024" style="enable-background:new 0 0 1024 1024;" xml:space="preserve">
<style type="text/css">
	.st0{fill:none;}
	.st1{fill:none;stroke:#000000;stroke-width:0;stroke-linecap:round;stroke-linejoin:round;}
</style>
<title>chrome</title>
<desc>Created with Sketch.</desc>
<g>
	<path class="st0" d="M512,371.8c-77.5,0-140.2,62.6-140.2,140.2c0,77.5,62.7,140.2,140.2,140.2S652.2,589.5,652.2,512
		S589.5,371.8,512,371.8z"/>
	<path class="st0" d="M538.8,306.4l263.6,13.9C740.2,226.1,633.3,164,512,164c-117.3,0-221.1,58.1-284.2,147.1l88.7,136.4
		C348.6,355.5,441.4,300.7,538.8,306.4z"/>
	<path class="st0" d="M860,512c0-52.1-11.5-101.5-32-145.9l-162.4,8.4c63.6,74.3,64.6,181.5,11.1,263.7L532.9,859.4
		C715.4,848.6,860,697.2,860,512z"/>
	<path class="st0" d="M102.5,585.8C128.5,731,229.6,850,364.1,901C229.6,849.8,128.5,730.8,102.5,585.8z"/>
	<path class="st0" d="M320.3,591.9L200.6,356.5C177.2,403.3,164,456.1,164,512c0,181.5,138.9,330.5,316.2,346.6l74-145.1
		C457.7,731.6,364.4,678.6,320.3,591.9z"/>
	<path class="st0" d="M488.7,927.4c4,0.2,8,0.4,12,0.5C496.7,927.7,492.7,927.6,488.7,927.4L488.7,927.4z"/>
	<path d="M928,512.3c0-0.1,0-0.2,0-0.3c0-229.8-186.2-416-416-416S96,282.2,96,512c0,0.1,0,0.3,0,0.4c0-0.1,0-0.2,0-0.2
		c0,0.1,0,0.1,0,0.2c0,229.8,186.2,416,416,416s416-186.2,416-416c0-0.1,0-0.2,0-0.3C928,512.1,928,512.2,928,512.3z M921.3,437.7
		c0.2,1.1,0.4,2.2,0.6,3.3c0.4,2.4,0.8,4.8,1.2,7.1c-0.4-2.4-0.8-4.8-1.2-7.1C921.7,439.9,921.5,438.8,921.3,437.7
		c-0.2-1-0.4-2-0.6-3.1C920.9,435.7,921.1,436.7,921.3,437.7z M676.7,638.2c53.5-82.2,52.5-189.4-11.1-263.7l162.4-8.4
		c20.5,44.4,32,93.8,32,145.9c0,185.2-144.6,336.6-327.1,347.4L676.7,638.2z M512,652.3c-77.5,0-140.2-62.7-140.2-140.2
		c0-77.7,62.7-140.2,140.2-140.2S652.2,434.5,652.2,512S589.5,652.3,512,652.3z M881.2,320.6c-1-1.9-2-3.8-3-5.7
		C879.2,316.8,880.2,318.7,881.2,320.6z M512,164c121.3,0,228.2,62.1,290.4,156.2l-263.6-13.9c-97.5-5.7-190.2,49.2-222.3,141.1
		l-88.7-136.4C290.9,222.1,394.7,164,512,164z M102.5,585.8c26,145,127.1,264,261.6,315.1C229.6,850,128.5,731,102.5,585.8z
		 M164,512c0-55.9,13.2-108.7,36.6-155.5l119.7,235.4c44.1,86.7,137.4,139.7,234,121.6l-74,145.1C302.9,842.5,164,693.5,164,512z
		 M488.7,927.4L488.7,927.4c4,0.2,8,0.4,12,0.5C496.7,927.7,492.7,927.6,488.7,927.4z"/>
	<path class="st1" d="M920.7,434.7c0.2,1,0.4,2,0.6,3.1"/>
	<path class="st1" d="M878.2,314.9c1,1.9,2,3.8,3,5.7"/>
	<path class="st1" d="M921.9,441c0.4,2.4,0.8,4.8,1.2,7.1"/>
	<path class="st1" d="M921.3,437.7c0.2,1.1,0.4,2.2,0.6,3.3"/>
</g>
</svg>
