<?xml version="1.0" encoding="utf-8"?>
<!-- Generator: Adobe Illustrator 21.0.0, SVG Export Plug-In . SVG Version: 6.00 Build 0)  -->
<svg version="1.1" id="图层_1" xmlns="http://www.w3.org/2000/svg" xmlns:xlink="http://www.w3.org/1999/xlink" x="0px" y="0px"
	 viewBox="0 0 1024 1024" style="enable-background:new 0 0 1024 1024;" xml:space="preserve">
<title>chrome-fill</title>
<desc>Created with Sketch.</desc>
<g>
	<path d="M371.8,512c0,77.5,62.7,140.2,140.2,140.2S652.2,589.5,652.2,512S589.5,371.8,512,371.8S371.8,434.4,371.8,512z"/>
	<path d="M900,362.4l-234.3,12.1c63.6,74.3,64.6,181.5,11.1,263.7l-188,289.2c78,4.2,158.4-12.9,231.2-55.2
		C900,768.2,973,550.1,900,362.4z"/>
	<path d="M320.3,591.9L163.8,284.1C121,349.5,96,428,96,512c0,208,152.3,380.3,351.4,410.8l106.9-209.4
		C457.7,731.6,364.4,678.6,320.3,591.9z"/>
	<path d="M538.8,306.4l344.4,18.1C848,254.7,792.6,194,719.8,151.7C653.9,113.6,581.5,95.5,510.5,96
		C388,96.5,268.3,151.2,188.4,250.5l128.2,196.9C348.6,355.5,441.4,300.7,538.8,306.4z"/>
</g>
</svg>
