<?xml version="1.0" encoding="utf-8"?>
<svg id="chrome" viewBox="0 0 1024 1024" version="1.1" xmlns="http://www.w3.org/2000/svg" xmlns:xlink="http://www.w3.org/1999/xlink">
  <path d="M258.242531 446.582031 111.621438 192.832031C205.430031 75.214844 350.058938 0 511.992531 0c187.441406 0 351.464844 100.722656 440.683594 251.054688L534.805031 251.054688c-7.5-0.703125-15.097656-0.996094-22.695313-0.996094C390.176125 249.941406 287.363625 333.671875 258.242531 446.582031L258.242531 446.582031zM695.430031 324.960938l293.554688 0c22.695313 57.910156 35.214844 121.015625 35.214844 187.03125 0 280.859375-226.152344 508.808594-506.308594 511.992188l209.433594-362.773438c29.511719-42.402344 46.71875-93.828125 46.71875-149.335938C774.043313 438.789063 744.043313 372.578125 695.430031 324.960938L695.430031 324.960938 695.430031 324.960938zM326.055031 511.992188c0-102.617188 83.417969-186.035156 186.035156-186.035156S698.144875 409.375 698.144875 511.992188 614.726906 698.046875 512.090187 698.046875 326.055031 614.628906 326.055031 511.992188zM582.207375 764.550781l-146.523438 253.945313C188.926125 981.601563 0.000344 768.945313 0.000344 511.992188c0-91.210938 23.90625-176.933594 65.722656-251.054688l209.140625 362.167969c41.914063 89.21875 132.519531 151.035156 237.34375 151.035156C536.406594 774.160156 559.805031 770.761719 582.207375 764.550781z"></path>
</svg>