<?xml version="1.0" encoding="utf-8"?>

<svg id="circle-down" viewBox="0 0 1024 1024">
  <path d="M511.600078 0.999805C229.155243 0.999805 0.09998 230.055067 0.09998 512.499902s229.055263 511.500098 511.500098 511.500098 511.500098-229.055263 511.500098-511.500098S794.044913 0.999805 511.600078 0.999805zM796.244483 443.713337 538.494825 700.463191c-7.198594 7.398555-17.096661 11.497754-27.894552 11.497754-10.59793 0-20.495997-4.099199-27.994532-11.597735L226.855692 444.613161c-15.396993-15.396993-15.396993-40.492091 0-55.789104 15.396993-15.396993 40.492091-15.396993 55.789104 0l227.755517 227.855497 229.855106-228.855302c7.498535-7.498535 17.396602-11.497754 27.894552-11.497754 10.49795 0 20.495997 4.099199 27.894552 11.597735 7.498535 7.398555 11.597735 17.396602 11.597735 27.894552S803.543058 436.214802 796.244483 443.713337z"></path>
</svg>