<?xml version="1.0" encoding="utf-8"?>
<svg id="circle-down-o" viewBox="0 0 1024 1024" version="1.1" xmlns="http://www.w3.org/2000/svg" xmlns:xlink="http://www.w3.org/1999/xlink">
  <path d="M511.600078 0.999805C229.155243 0.999805 0.09998 230.055067 0.09998 512.499902s229.055263 511.500098 511.500098 511.500098 511.500098-229.055263 511.500098-511.500098S794.044913 0.999805 511.600078 0.999805zM822.339387 823.239211c-40.392111 40.392111-87.382933 72.085921-139.772701 94.181605-54.089436 22.895528-111.678188 34.493263-171.066589 34.493263-59.388401 0-116.877172-11.597735-171.066589-34.493263-52.289787-22.095684-99.38059-53.789494-139.772701-94.181605-40.392111-40.392111-72.085921-87.382933-94.181605-139.772701C83.683656 629.377075 72.085921 571.888303 72.085921 512.499902c0-59.388401 11.597735-116.877172 34.493263-171.066589 22.095684-52.289787 53.789494-99.38059 94.181605-139.772701 40.392111-40.392111 87.382933-72.085921 139.772701-94.181605C394.722906 84.58348 452.211677 72.985745 511.600078 72.985745c59.388401 0 116.877172 11.597735 171.066589 34.493263 52.289787 22.095684 99.38059 53.789494 139.772701 94.181605 40.392111 40.392111 72.085921 87.382933 94.181605 139.772701 22.895528 54.089436 34.493263 111.678188 34.493263 171.066589 0 59.388401-11.597735 116.877172-34.493263 171.066589C894.425308 735.856278 862.731498 782.8471 822.339387 823.239211z"></path>
  <path d="M768.249951 376.226518c-10.49795 0-20.396016 3.999219-27.894552 11.497754L510.500293 616.679555 282.744776 388.724077c-15.396993-15.396993-40.492091-15.396993-55.789104 0-15.396993 15.396993-15.396993 40.492091 0 55.789104l255.750049 255.750049c7.498535 7.498535 17.396602 11.597735 27.994532 11.597735 10.697911 0 20.595977-4.099199 27.894552-11.497754l257.749658-256.749854c7.398555-7.498535 11.497754-17.496583 11.497754-27.994532s-4.099199-20.495997-11.597735-27.894552C788.745948 380.425698 778.747901 376.226518 768.249951 376.226518z"></path>
</svg>