<?xml version="1.0" encoding="utf-8"?>
<svg id="close-square-o" viewBox="0 0 1024 1024" version="1.1" xmlns="http://www.w3.org/2000/svg" xmlns:xlink="http://www.w3.org/1999/xlink">
  <path d="M717.2 306.2c-14.1-14-36.9-14-50.9 0.1L512 461 357.7 306.3c-14-14.1-36.8-14.1-50.9-0.1s-14.1 36.8-0.1 50.9L461.2 512 306.7 666.9c-14 14.1-14 36.9 0.1 50.9 7 7 16.2 10.5 25.4 10.5 9.2 0 18.5-3.5 25.5-10.6L512 563l154.3 154.8c7 7.1 16.3 10.6 25.5 10.6s18.4-3.5 25.4-10.5c14.1-14 14.1-36.8 0.1-50.9L562.8 512l154.4-154.9C731.3 343 731.3 320.2 717.2 306.2z"></path>
  <path d="M888.5 135.5 888.5 135.5 888.5 135.5l0 753.1 0 0-753 0 0 0L135.5 135.5l0 0L888.5 135.5M888.5 63.5l-753 0c-39.8 0-72 32.2-72 72l0 753.1c0 39.8 32.2 72 72 72l753.1 0c39.8 0 72-32.2 72-72L960.6 135.5C960.5 95.7 928.2 63.5 888.5 63.5L888.5 63.5z"></path>
</svg>