<?xml version="1.0" encoding="utf-8"?>
<!-- Generator: Adobe Illustrator 21.0.0, SVG Export Plug-In . SVG Version: 6.00 Build 0)  -->
<svg version="1.1" id="图层_1" xmlns="http://www.w3.org/2000/svg" xmlns:xlink="http://www.w3.org/1999/xlink" x="0px" y="0px"
	 viewBox="0 0 1024 1024" style="enable-background:new 0 0 1024 1024;" xml:space="preserve">
<style type="text/css">
	.st0{fill:none;}
</style>
<title>close-circle-fill</title>
<desc>Created with Sketch.</desc>
<g>
	<path class="st0" d="M553.5,514l129.9-154.9c1.2-1.5,1.9-3.3,1.9-5.2c0-4.5-3.6-8-8-8l-66,0.3L512,464.6l-99.3-118.5l-66.1-0.3
		c-4.4,0-8,3.6-8,8c0,1.9,0.7,3.7,1.9,5.2l130.1,154.9l-130.1,155c-1.2,1.5-1.9,3.3-1.9,5.2c0,4.5,3.6,8,8,8l66.1-0.3L512,563.4
		l99.4,118.5l66,0.3c4.4,0,8-3.6,8-8c0-1.9-0.7-3.7-1.9-5.2L553.5,514z"/>
	<path d="M512,64C264.6,64,64,264.6,64,512s200.6,448,448,448s448-200.6,448-448S759.4,64,512,64z M677.4,682.2l-66-0.3L512,563.4
		l-99.3,118.4l-66.1,0.3c-4.4,0-8-3.5-8-8c0-1.9,0.7-3.7,1.9-5.2l130.1-155L340.5,359c-1.2-1.5-1.9-3.3-1.9-5.2c0-4.4,3.6-8,8-8
		l66.1,0.3L512,464.6l99.3-118.4l66-0.3c4.4,0,8,3.5,8,8c0,1.9-0.7,3.7-1.9,5.2L553.5,514l130,155c1.2,1.5,1.9,3.3,1.9,5.2
		C685.4,678.6,681.8,682.2,677.4,682.2z"/>
</g>
</svg>
