<?xml version="1.0" encoding="utf-8"?>

<svg id="close-circle-o" viewBox="0 0 1024 1024">
  <path d="M717.2 306.2c-14.1-14-36.9-14-50.9 0.1L512 461 357.7 306.3c-14-14.1-36.8-14.1-50.9-0.1-14.1 14-14.1 36.8-0.1 50.9L461.2 512 306.7 666.9c-14 14.1-14 36.9 0.1 50.9 7 7 16.2 10.5 25.4 10.5 9.2 0 18.5-3.5 25.5-10.6L512 563l154.3 154.8c7 7.1 16.3 10.6 25.5 10.6 9.2 0 18.4-3.5 25.4-10.5 14.1-14 14.1-36.8 0.1-50.9L562.8 512l154.4-154.9C731.3 343 731.3 320.2 717.2 306.2z"></path>
  <path d="M512 0C229.2 0 0 229.2 0 512s229.2 512 512 512 512-229.2 512-512S794.8 0 512 0zM823.1 823.1c-40.4 40.4-87.5 72.2-139.9 94.3C629 940.4 571.4 952 512 952c-59.4 0-117-11.6-171.2-34.5-52.4-22.2-99.4-53.9-139.9-94.3-40.4-40.4-72.2-87.5-94.3-139.9C83.6 629 72 571.4 72 512c0-59.4 11.6-117 34.5-171.2 22.2-52.4 53.9-99.4 94.3-139.9 40.4-40.4 87.5-72.2 139.9-94.3C395 83.6 452.6 72 512 72c59.4 0 117 11.6 171.2 34.5 52.4 22.2 99.4 53.9 139.9 94.3 40.4 40.4 72.2 87.5 94.3 139.9C940.4 395 952 452.6 952 512c0 59.4-11.6 117-34.5 171.2C895.3 735.6 863.6 782.7 823.1 823.1z"></path>
</svg>