<?xml version="1.0" encoding="utf-8"?>
<!-- Generator: Adobe Illustrator 21.0.0, SVG Export Plug-In . SVG Version: 6.00 Build 0)  -->
<svg version="1.1" id="图层_1" xmlns="http://www.w3.org/2000/svg" xmlns:xlink="http://www.w3.org/1999/xlink" x="0px" y="0px"
	 viewBox="0 0 1024 1024" style="enable-background:new 0 0 1024 1024;" xml:space="preserve">
<style type="text/css">
	.st0{fill:none;}
</style>
<title>close-square-o</title>
<desc>Created with Sketch.</desc>
<g>
	<path class="st0" d="M184,840h656V184H184V840z M347.9,366.1c-4.4-5.2-0.7-13.1,6.1-13.1h58.9c4.7,0,9.2,2.1,12.3,5.7L512,462.2
		l86.8-103.5c3-3.6,7.5-5.7,12.3-5.7H670c6.8,0,10.5,7.9,6.1,13.1L553.8,512l122.4,145.9c4.4,5.2,0.7,13.1-6.1,13.1h-58.9
		c-4.7,0-9.2-2.1-12.3-5.7L512,561.8l-86.8,103.5c-3,3.6-7.5,5.7-12.3,5.7H354c-6.8,0-10.5-7.9-6.1-13.1L470.2,512L347.9,366.1z"/>
	<path d="M354,671h58.9c4.7,0,9.2-2.1,12.3-5.7L512,561.8l86.8,103.5c3,3.6,7.5,5.7,12.3,5.7H670c6.8,0,10.5-7.9,6.1-13.1L553.8,512
		l122.4-145.9c4.4-5.2,0.7-13.1-6.1-13.1h-58.9c-4.7,0-9.2,2.1-12.3,5.7L512,462.2l-86.8-103.5c-3-3.6-7.5-5.7-12.3-5.7H354
		c-6.8,0-10.5,7.9-6.1,13.1L470.2,512L347.9,657.9C343.5,663.1,347.2,671,354,671z"/>
	<path d="M880,112H144c-17.7,0-32,14.3-32,32v736c0,17.7,14.3,32,32,32h736c17.7,0,32-14.3,32-32V144C912,126.3,897.7,112,880,112z
		 M840,840H184V184h656V840z"/>
</g>
</svg>
