<?xml version="1.0" encoding="utf-8"?>
<!-- Generator: Adobe Illustrator 21.0.0, SVG Export Plug-In . SVG Version: 6.00 Build 0)  -->
<svg version="1.1" id="图层_1" xmlns="http://www.w3.org/2000/svg" xmlns:xlink="http://www.w3.org/1999/xlink" x="0px" y="0px"
	 viewBox="0 0 1024 1024" style="enable-background:new 0 0 1024 1024;" xml:space="preserve">
<title>cloud download-o</title>
<desc>Created with Sketch.</desc>
<g>
	<path d="M624,706.3h-74.1V464c0-4.4-3.6-8-8-8h-60c-4.4,0-8,3.6-8,8v242.3H400c-6.7,0-10.4,7.7-6.3,12.9l112,141.7
		c3.2,4.1,9.4,4.1,12.6,0l112-141.7C634.4,714,630.7,706.3,624,706.3z"/>
	<path d="M811.4,366.7C765.6,245.9,648.9,160,512.2,160c-136.7,0-253.4,85.8-299.2,206.6C127.3,389.1,64,467.2,64,560
		c0,110.5,89.5,200,199.9,200H304c4.4,0,8-3.6,8-8v-60c0-4.4-3.6-8-8-8h-40.1c-33.7,0-65.4-13.4-89-37.7
		c-23.5-24.2-36-56.8-34.9-90.6c0.9-26.4,9.9-51.2,26.2-72.1c16.7-21.3,40.1-36.8,66.1-43.7l37.9-9.9l13.9-36.6
		c8.6-22.8,20.6-44.1,35.7-63.4c14.9-19.2,32.6-35.9,52.4-49.9c41.1-28.9,89.5-44.2,140-44.2c50.5,0,98.9,15.3,140,44.2
		c19.9,14,37.5,30.8,52.4,49.9c15.1,19.3,27.1,40.7,35.7,63.4l13.8,36.5l37.8,10C846.1,454.5,884,503.8,884,560
		c0,33.1-12.9,64.3-36.3,87.7c-23.4,23.4-54.5,36.3-87.6,36.3H720c-4.4,0-8,3.6-8,8v60c0,4.4,3.6,8,8,8h40.1
		C870.5,760,960,670.5,960,560C960,467.3,896.9,389.3,811.4,366.7z"/>
</g>
</svg>
