<?xml version="1.0" encoding="utf-8"?>

<svg id="cloud-o" viewBox="0 0 1024 1024">
  <path d="M702.3 861.3 297.9 861.3c-31.8 0-62.1-5.8-90.2-17.1-27.9-11.3-53.7-28.2-76.4-50.3-23-22.3-40.7-47.8-52.5-75.7-11.9-28-18-58.4-18-90.3 0-55 17.8-104.4 52.9-146.8 12.6-15.3 26.8-28.9 42.4-40.4 0.2-24.8 5.1-48.5 14.5-70.6 9.3-22.2 23.4-42.6 41.8-60.6l0.1-0.1c18.1-17.6 38.7-31.1 61.2-40.2 22.5-9.1 46.7-13.7 71.8-13.7 8.5 0 16.8 0.5 25 1.5 15.8-17.4 33.9-33 54-46.4 47.3-31.7 100.8-47.8 158.9-47.8 38.5 0 75 6.9 108.5 20.5 33.8 13.6 64.7 34 92 60.6 27.5 26.9 48.7 57.3 62.8 90.6 9.5 22.2 15.8 45.7 19 70.3 21.3 16.8 39.9 37 55.3 60.2l7.3 10.9 0 0.7c23.2 39.2 35 82.2 35 128.2 0 34.8-6.7 68.2-19.8 99.1-13.1 30.7-32.5 58.7-57.6 83.1-25 24.3-53.3 43-84.3 55.6C770.6 855 737.3 861.3 702.3 861.3zM262.6 360.9c-11.5 11.2-20.2 23.7-25.7 37l-0.1 0.2c-5.8 13.7-8.8 28.6-8.8 44.3 0 4.4 0.2 8.7 0.7 13l2.5 22.9-19.7 11.8c-15.9 9.5-30.1 21.9-42.2 36.7l-0.1 0.2c-24.2 29.2-36.4 63.1-36.4 100.9 0 22.1 4.1 43 12.3 62.1 8.1 19.1 20.3 36.6 36.4 52.2 16.1 15.6 34 27.5 53.3 35.3 19.4 7.9 40.6 11.9 63.1 11.9l404.4 0c25.7 0 50-4.6 72.2-13.5 22.2-9 42.8-22.6 61.1-40.4 18.3-17.8 32.3-37.9 41.6-59.7 9.3-21.9 14-45.8 14-70.9 0-35.5-9.8-68.5-29.2-98.3l-2.3-3.5c-13.3-19.5-29.7-36-48.7-49l-14.4-9.8-1.2-17.4c-1.6-22.7-6.7-44.3-15.2-64.1-10.4-24.5-26.2-47.1-46.9-67.3-20.5-20-43.6-35.3-68.7-45.4-24.9-10.1-52.3-15.2-81.5-15.2-43.6 0-83.6 12-118.9 35.6-20.1 13.4-37.4 29.5-51.4 47.7l-14.5 18.8-23-5.9c-9.5-2.4-19.7-3.6-30.2-3.6-15.8 0-30.9 2.8-44.8 8.4C286.8 341.4 274 349.8 262.6 360.9z"></path>
</svg>