<?xml version="1.0" encoding="utf-8"?>
<svg id="cloud-download-o" viewBox="0 0 1024 1024" version="1.1" xmlns="http://www.w3.org/2000/svg" xmlns:xlink="http://www.w3.org/1999/xlink">
  <path d="M926.3 484.6l0-0.1-1.3-2c-17.6-26.4-39.4-48.6-64.9-66.1-2-29.1-8.6-56.8-19.6-82.5-13.4-31.4-33.5-60.4-59.8-86-26-25.4-55.5-44.8-87.6-57.8-31.7-12.9-66.5-19.4-103.4-19.4-55.4 0-106.3 15.3-151.3 45.4-25.4 17-47.4 37.4-65.3 60.7-13.5-3.4-27.8-5.2-42.6-5.2-22.3 0-43.7 4-63.5 12-19.8 8-38 20-54.1 35.5-16.3 16-28.7 33.9-36.8 53.3-8.4 19.8-12.7 41.2-12.7 63.6 0 6.2 0.3 12.3 1 18.3-21.2 12.7-40 29.1-56.1 48.7-32.3 39-48.7 84.4-48.7 135 0 29.4 5.6 57.3 16.5 83.1 10.8 25.5 27.1 49 48.4 69.6 21.2 20.5 45 36.2 70.7 46.6 25.8 10.5 53.9 15.8 83.5 15.8l440.6 0c33 0 64.4-5.9 93.4-17.6 29-11.8 55.7-29.4 79.2-52.3 23.6-23 41.8-49.2 54-77.8 12.2-28.8 18.4-60 18.4-92.6C964.4 566.6 951.6 523.4 926.3 484.6zM142 693c-7.2-16.8-10.8-35.3-10.8-54.9 0-16.8 2.7-32.8 8-47.5 5.3-14.7 13.4-28.6 24-41.5l0.4-0.5c11.7-14.3 25.5-26 40.8-34.7l37.9-21.5-6.5-43.2c-0.6-3.7-0.9-8-0.9-13.2 0-12.7 2.4-24.7 7-35.8l0.5-1.4c4.5-10.2 11.3-19.8 20.3-28.5 9.2-9 19.6-15.9 30.9-20.5 11.4-4.5 23.8-6.8 36.8-6.8 9.9 0 19.3 1.3 27.8 3.8l42.8 12.6 26.4-35.9c13.6-18.5 30.7-34.6 50.7-48 33-22 70.5-33.1 111.4-33.1 27.7 0 53.5 4.8 76.7 14.3 23.5 9.5 45.2 23.8 64.4 42.6 19.4 19 34.1 40.1 43.9 62.9 8.1 18.9 12.9 39.9 14.2 62.4l1.8 31.9 26.6 17.6c17.6 11.6 32.9 26.6 45.6 44.6l2.5 3.7c9.2 13.8 16.1 28.4 20.6 43.3 4.6 15.1 6.9 31.1 6.9 47.5 0 22.9-4.3 44.6-12.7 64.6-8.4 19.7-21.2 38-38.2 54.5-16.9 16.5-35.7 29-56.1 37.2-20.5 8.2-42.9 12.4-66.6 12.4L278.8 781.9c-20.4 0-39.4-3.6-56.7-10.6-17-6.8-33.1-17.5-47.7-31.6-13.9-13.5-24.6-28.6-31.8-44.8l0-0.1L142 693z"></path>
  <path d="M466.6 541c9.5 0 18.5 3.7 25.3 10.5l68.6 68.5L560.5 373.6c0-19.7 16-35.8 35.8-35.8 19.7 0 35.8 16.1 35.8 35.9L632.1 620l68.5-68.5c6.8-6.8 15.7-10.5 25.3-10.5s18.5 3.7 25.3 10.5c14 14 14 36.7 0 50.6L621.5 731.7c-6.8 6.8-15.8 10.5-25.3 10.5s-18.6-3.7-25.3-10.5L441.3 602.1c-14-14-14-36.7 0-50.6C448 544.7 457 541 466.6 541z"></path>
</svg>