<?xml version="1.0" encoding="utf-8"?>

<svg id="codepen-circle" viewBox="0 0 1024 1024">
  <path d="M250.5 465.9v90.9l67.9-45.4zM485 399.9V273.3L272.2 415.1l95.1 63.6zM752.1 415.1L539.3 273.3v126.6L657 478.7zM272.2 607.6L485 749.4V622.8L367.3 544zM539.3 622.8v126.6l212.8-141.8L657 544zM512.2 447.1l-96.1 64.3 96.1 64.2 96-64.2z"></path>
  <path d="M512.2 0.3c-282.2 0-511 228.8-511 511s228.8 511 511 511 511-228.8 511-511S794.4 0.3 512.2 0.3z m315.9 607.3c0 1.2-0.1 2.4-0.2 3.6-0.1 0.4-0.2 0.8-0.2 1.2-0.1 0.8-0.3 1.5-0.5 2.3-0.1 0.4-0.3 0.9-0.4 1.3-0.2 0.7-0.4 1.3-0.7 2-0.2 0.4-0.4 0.9-0.6 1.3l-0.9 1.8c-0.2 0.4-0.5 0.8-0.8 1.2-0.4 0.6-0.7 1.1-1.1 1.6l-0.9 1.2c-0.4 0.5-0.9 1-1.3 1.5l-1.1 1.1c-0.5 0.4-1 0.9-1.5 1.3l-1.2 0.9c-0.2 0.1-0.3 0.2-0.5 0.3l-289 192.6c-4.6 3-9.8 4.6-15.1 4.6-5.2 0-10.5-1.5-15.1-4.6L208.3 630.2c-0.2-0.1-0.3-0.2-0.4-0.3l-1.2-0.9c-0.5-0.4-1-0.8-1.5-1.3-0.4-0.3-0.7-0.7-1.1-1.1-0.5-0.5-0.9-1-1.4-1.5l-0.9-1.2c-0.4-0.5-0.8-1.1-1.1-1.6-0.3-0.4-0.5-0.8-0.8-1.2l-0.9-1.8c-0.2-0.4-0.4-0.9-0.6-1.3-0.3-0.7-0.5-1.3-0.7-2-0.1-0.4-0.3-0.9-0.4-1.3-0.2-0.7-0.3-1.5-0.5-2.3-0.1-0.4-0.2-0.8-0.2-1.2-0.2-1.2-0.2-2.4-0.2-3.6V415.1c0-1.2 0.1-2.4 0.2-3.5 0.1-0.4 0.2-0.8 0.2-1.2 0.1-0.8 0.3-1.5 0.5-2.3 0.1-0.4 0.3-0.9 0.4-1.3 0.2-0.7 0.4-1.3 0.7-2 0.2-0.4 0.4-0.9 0.6-1.3l0.9-1.8c0.2-0.4 0.5-0.8 0.8-1.3 0.4-0.6 0.7-1.1 1.1-1.6l0.9-1.2c0.4-0.5 0.9-1 1.4-1.5l1.1-1.1c0.5-0.4 1-0.9 1.5-1.3l1.2-0.9c0.1-0.1 0.3-0.2 0.4-0.3L497.1 200c9.1-6.1 21-6.1 30.1 0L816 392.5c0.2 0.1 0.3 0.2 0.5 0.3l1.2 0.9c0.5 0.4 1.1 0.8 1.5 1.3 0.4 0.3 0.7 0.7 1.1 1.1 0.5 0.5 0.9 1 1.3 1.5l0.9 1.2c0.4 0.5 0.8 1.1 1.1 1.6 0.3 0.4 0.5 0.8 0.8 1.3l0.9 1.8c0.2 0.4 0.4 0.9 0.6 1.3 0.3 0.7 0.5 1.3 0.7 2 0.1 0.4 0.3 0.9 0.4 1.3 0.2 0.7 0.3 1.5 0.5 2.3 0.1 0.4 0.2 0.8 0.2 1.2 0.2 1.2 0.2 2.3 0.2 3.5v192.5z"></path>
  <path d="M773.8 556.8v-90.9l-67.9 45.5z"></path>
</svg>