<?xml version="1.0" encoding="utf-8"?>
<!-- Generator: Adobe Illustrator 21.0.0, SVG Export Plug-In . SVG Version: 6.00 Build 0)  -->
<svg version="1.1" id="图层_1" xmlns="http://www.w3.org/2000/svg" xmlns:xlink="http://www.w3.org/1999/xlink" x="0px" y="0px"
	 viewBox="0 0 1024 1024" style="enable-background:new 0 0 1024 1024;" xml:space="preserve">
<style type="text/css">
	.st0{opacity:0.2244;enable-background:new    ;}
</style>
<title>code</title>
<desc>Created with Sketch.</desc>
<g>
	<path class="st0" d="M438.4,849.1l222.7-646.7c0.2-0.5,0.3-1.1,0.4-1.6L438.4,849.1C438.4,849.1,438.4,849.1,438.4,849.1z"/>
	<path d="M661.2,168.7h-67.5c-3.4,0-6.5,2.2-7.6,5.4L354.7,846c-0.3,0.8-0.4,1.7-0.4,2.6c0,4.4,3.6,8,8,8l67.8,0
		c3.4,0,6.5-2.2,7.6-5.4l0.7-2.1l223.1-648.3l7.4-21.4c0.3-0.8,0.4-1.7,0.4-2.6C669.2,172.3,665.7,168.7,661.2,168.7z"/>
	<path d="M954.6,502.1c-0.8-1-1.7-1.9-2.7-2.7l-219-171.3c-3.5-2.7-8.5-2.1-11.2,1.4c-1.1,1.4-1.7,3.1-1.7,4.9v81.3
		c0,2.5,1.1,4.8,3.1,6.3l115,90l-115,90c-1.9,1.5-3.1,3.8-3.1,6.3v81.3c0,4.4,3.6,8,8,8c1.8,0,3.5-0.6,4.9-1.7l219-171.3
		C958.8,519.2,960.1,509.1,954.6,502.1z"/>
	<path d="M291.1,328.1l-219,171.3c-1,0.8-1.9,1.7-2.7,2.7c-5.4,7-4.2,17,2.7,22.5l219,171.3c1.4,1.1,3.1,1.7,4.9,1.7
		c4.4,0,8-3.6,8-8v-81.3c0-2.5-1.1-4.8-3.1-6.3l-115-90l115-90c1.9-1.5,3.1-3.8,3.1-6.3v-81.3c0-1.8-0.6-3.5-1.7-4.9
		C299.6,326,294.6,325.4,291.1,328.1z"/>
</g>
</svg>
