<?xml version="1.0" encoding="utf-8"?>
<!-- Generator: Adobe Illustrator 21.0.0, SVG Export Plug-In . SVG Version: 6.00 Build 0)  -->
<svg version="1.1" id="图层_1" xmlns="http://www.w3.org/2000/svg" xmlns:xlink="http://www.w3.org/1999/xlink" x="0px" y="0px"
	 viewBox="0 0 1024 1024" style="enable-background:new 0 0 1024 1024;" xml:space="preserve">
<style type="text/css">
	.st0{fill:none;}
</style>
<title>codepen-square-fill</title>
<desc>Created with Sketch.</desc>
<g>
	<path class="st0" d="M789.6,423.8L789.6,423.8c-0.1-0.7-0.2-1.3-0.4-2c-0.1-0.4-0.2-0.8-0.4-1.2c-0.2-0.6-0.4-1.2-0.6-1.7
		c-0.2-0.4-0.4-0.8-0.5-1.2c-0.2-0.5-0.5-1.1-0.8-1.6c-0.2-0.4-0.4-0.7-0.7-1.1c-0.6-0.9-1.2-1.7-1.8-2.5c-0.4-0.4-0.8-0.9-1.2-1.3
		c-0.3-0.3-0.6-0.6-1-0.9c-0.4-0.4-0.9-0.8-1.4-1.1c-0.4-0.3-0.7-0.6-1.1-0.8c-0.1-0.1-0.3-0.2-0.4-0.3L525.2,239
		c-8-5.3-18.5-5.3-26.5,0L244.6,408.1c-0.1,0.1-0.3,0.2-0.4,0.3c-0.4,0.3-0.7,0.5-1.1,0.8c-0.5,0.4-0.9,0.7-1.3,1.1
		c-0.3,0.3-0.6,0.6-1,0.9c-0.4,0.4-0.8,0.8-1.2,1.3c-0.7,0.8-1.3,1.6-1.8,2.5c-0.2,0.4-0.5,0.7-0.7,1.1c-0.3,0.5-0.6,1-0.8,1.6
		c-0.2,0.4-0.4,0.8-0.5,1.2c-0.2,0.6-0.4,1.2-0.6,1.7c-0.1,0.4-0.3,0.8-0.4,1.2c-0.2,0.7-0.3,1.3-0.4,2c-0.1,0.3-0.1,0.7-0.2,1
		c-0.1,1-0.2,2.1-0.2,3.1V597c0,1.1,0.1,2.1,0.2,3.1c0.1,0.4,0.1,0.7,0.2,1c0.1,0.7,0.2,1.3,0.4,2c0.1,0.4,0.2,0.8,0.4,1.2
		c0.2,0.6,0.4,1.2,0.6,1.7c0.2,0.4,0.4,0.8,0.5,1.2c0.2,0.5,0.5,1.1,0.8,1.6c0.2,0.4,0.4,0.7,0.7,1.1c0.3,0.5,0.7,1,1,1.5
		c0.3,0.4,0.5,0.7,0.8,1c0.4,0.4,0.8,0.9,1.2,1.3c0.3,0.3,0.6,0.6,1,0.9c0.4,0.4,0.9,0.8,1.3,1.1c0.4,0.3,0.7,0.6,1.1,0.8
		c0.1,0.1,0.3,0.2,0.4,0.3L498.7,786c3.9,2.6,8.5,4,13.3,4c4.6,0,9.2-1.3,13.2-4l254.1-169.1c0.1-0.1,0.3-0.2,0.4-0.3
		c0.4-0.3,0.7-0.5,1.1-0.8c0.5-0.4,0.9-0.7,1.4-1.1c0.3-0.3,0.6-0.6,1-0.9c0.4-0.4,0.8-0.8,1.2-1.3c0.3-0.3,0.6-0.7,0.8-1
		c0.4-0.5,0.7-1,1-1.5c0.2-0.4,0.5-0.7,0.7-1.1c0.3-0.5,0.6-1.1,0.8-1.6c0.2-0.4,0.4-0.8,0.5-1.2c0.2-0.6,0.4-1.2,0.6-1.7
		c0.1-0.4,0.3-0.8,0.4-1.2c0.2-0.7,0.3-1.3,0.4-2c0.1-0.3,0.1-0.7,0.2-1c0.1-1,0.2-2.1,0.2-3.1V427.9c0-1-0.1-2.1-0.2-3.1
		C789.7,424.5,789.7,424.1,789.6,423.8z M535.9,303.4L723.1,428l-83.6,55.8l-103.6-69.2V303.4z M488.1,303.4v111.2v0l-103.6,69.1
		L300.9,428L488.1,303.4z M281.8,472.6l59.8,39.9l-59.8,39.9V472.6z M488.1,721.6L300.9,597l83.6-55.8v0l103.6,69.2V721.6z
		 M512,568.9l-84.5-56.4l84.5-56.4l84.5,56.4L512,568.9z M535.9,721.6V610.3v0l103.6-69.1l83.6,55.8L535.9,721.6z M742.2,552.4
		l-59.8-39.9l59.8-39.9V552.4z"/>
	<polygon points="723.1,428 535.9,303.4 535.9,414.7 639.5,483.8 	"/>
	<polygon points="512,456.1 427.5,512.5 512,568.9 596.5,512.5 	"/>
	<polygon points="535.9,610.3 535.9,610.3 535.9,721.6 723.1,597 639.5,541.2 	"/>
	<polygon points="384.5,541.2 300.9,597 488.1,721.6 488.1,610.3 384.5,541.2 	"/>
	<path d="M880,112H144c-17.7,0-32,14.3-32,32v736c0,17.7,14.3,32,32,32h736c17.7,0,32-14.3,32-32V144C912,126.3,897.7,112,880,112z
		 M790,597c0,1.1-0.1,2.1-0.2,3.1c0,0.4-0.1,0.7-0.2,1c-0.1,0.7-0.2,1.3-0.4,2c-0.1,0.4-0.2,0.8-0.4,1.2c-0.2,0.6-0.4,1.2-0.6,1.7
		c-0.2,0.4-0.4,0.8-0.5,1.2c-0.3,0.5-0.5,1.1-0.8,1.6c-0.2,0.4-0.4,0.7-0.7,1.1c-0.3,0.5-0.7,1-1,1.5c-0.3,0.4-0.5,0.7-0.8,1
		c-0.4,0.4-0.8,0.9-1.2,1.3c-0.3,0.3-0.6,0.6-1,0.9c-0.4,0.4-0.9,0.8-1.4,1.1c-0.4,0.3-0.7,0.6-1.1,0.8c-0.1,0.1-0.3,0.2-0.4,0.3
		L525.2,786c-4,2.7-8.6,4-13.2,4c-4.7,0-9.3-1.4-13.3-4L244.6,616.9c-0.1-0.1-0.3-0.2-0.4-0.3c-0.4-0.3-0.7-0.5-1.1-0.8
		c-0.5-0.4-0.9-0.7-1.3-1.1c-0.3-0.3-0.6-0.6-1-0.9c-0.4-0.4-0.8-0.8-1.2-1.3c-0.3-0.3-0.6-0.7-0.8-1c-0.4-0.5-0.7-1-1-1.5
		c-0.2-0.4-0.5-0.7-0.7-1.1c-0.3-0.5-0.6-1.1-0.8-1.6c-0.2-0.4-0.4-0.8-0.5-1.2c-0.2-0.6-0.4-1.2-0.6-1.7c-0.1-0.4-0.3-0.8-0.4-1.2
		c-0.2-0.7-0.3-1.3-0.4-2c-0.1-0.3-0.1-0.7-0.2-1c-0.1-1-0.2-2.1-0.2-3.1V427.9c0-1,0.1-2.1,0.2-3.1c0.1-0.3,0.1-0.7,0.2-1
		c0.1-0.7,0.2-1.3,0.4-2c0.1-0.4,0.2-0.8,0.4-1.2c0.2-0.6,0.4-1.2,0.6-1.7c0.2-0.4,0.4-0.8,0.5-1.2c0.2-0.5,0.5-1.1,0.8-1.6
		c0.2-0.4,0.4-0.7,0.7-1.1c0.6-0.9,1.2-1.7,1.8-2.5c0.4-0.4,0.8-0.9,1.2-1.3c0.3-0.3,0.6-0.6,1-0.9c0.4-0.4,0.9-0.8,1.3-1.1
		c0.4-0.3,0.7-0.6,1.1-0.8c0.1-0.1,0.3-0.2,0.4-0.3L498.7,239c8-5.3,18.5-5.3,26.5,0l254.1,169.1c0.1,0.1,0.3,0.2,0.4,0.3
		c0.4,0.3,0.7,0.5,1.1,0.8c0.5,0.4,0.9,0.7,1.4,1.1c0.3,0.3,0.6,0.6,1,0.9c0.4,0.4,0.8,0.8,1.2,1.3c0.7,0.8,1.3,1.6,1.8,2.5
		c0.2,0.4,0.5,0.7,0.7,1.1c0.3,0.5,0.6,1,0.8,1.6c0.2,0.4,0.4,0.8,0.5,1.2c0.2,0.6,0.4,1.2,0.6,1.7c0.1,0.4,0.3,0.8,0.4,1.2
		c0.2,0.7,0.3,1.3,0.4,2v0c0.1,0.3,0.1,0.7,0.2,1c0.1,1,0.2,2.1,0.2,3.1V597z"/>
	<polygon points="742.2,552.4 742.2,472.6 682.4,512.5 	"/>
	<polygon points="281.8,472.6 281.8,552.4 341.6,512.5 	"/>
	<polygon points="488.1,414.7 488.1,414.7 488.1,303.4 300.9,428 384.5,483.8 	"/>
</g>
</svg>
