<?xml version="1.0" encoding="utf-8"?>

<svg id="codepen" viewBox="0 0 1024 1024">
  <path d="M717.418 465.68L550.492 354.042V174.446l301.683 201.11-134.757 90.124z m69.249 46.323l96.338-64.434v128.856l-96.338-64.422z m-236.175 157.96l166.926-111.637 134.757 90.123-301.683 201.11V669.965zM306.57 558.327l166.926 111.638V849.56L171.825 648.45l134.745-90.124z m-69.249-46.323l-96.326 64.422V447.57l96.326 64.434z m236.175-157.96L306.57 465.68l-134.745-90.123 301.671-201.11v179.595zM512 603.08l-136.181-91.077L512 420.914l136.181 91.089L512 603.08zM959.348 368.81c-0.205-1.098-0.386-2.171-0.675-3.233-0.181-0.64-0.398-1.243-0.604-1.87-0.301-0.942-0.603-1.883-0.99-2.812-0.265-0.628-0.566-1.255-0.856-1.87a34.089 34.089 0 0 0-1.315-2.558c-0.35-0.616-0.724-1.195-1.098-1.786a38.633 38.633 0 0 0-2.944-3.994 34.776 34.776 0 0 0-1.919-2.088 44.984 44.984 0 0 0-1.532-1.508c-0.7-0.627-1.436-1.23-2.184-1.822-0.58-0.446-1.147-0.905-1.75-1.315-0.205-0.157-0.41-0.338-0.627-0.483L533.345 70.471a38.463 38.463 0 0 0-42.702 0L81.146 343.472c-0.229 0.145-0.422 0.326-0.64 0.483-0.603 0.41-1.17 0.869-1.749 1.315-0.736 0.591-1.484 1.195-2.172 1.822-0.53 0.483-1.037 0.99-1.532 1.508a34.984 34.984 0 0 0-1.93 2.088 38.633 38.633 0 0 0-2.944 3.994c-0.375 0.591-0.75 1.17-1.087 1.786-0.495 0.832-0.917 1.689-1.315 2.558-0.29 0.615-0.604 1.242-0.857 1.87-0.374 0.929-0.7 1.87-1.001 2.811-0.206 0.628-0.423 1.231-0.592 1.87-0.277 1.063-0.482 2.136-0.675 3.234-0.097 0.556-0.23 1.099-0.314 1.654a38.87 38.87 0 0 0-0.338 5.031v273.002c0 1.701 0.12 3.366 0.338 5.031 0.084 0.568 0.217 1.11 0.314 1.666 0.193 1.073 0.398 2.16 0.675 3.221 0.17 0.64 0.386 1.255 0.592 1.87 0.301 0.954 0.627 1.895 1.001 2.824 0.253 0.64 0.567 1.243 0.857 1.858 0.398 0.87 0.82 1.726 1.315 2.57a28.67 28.67 0 0 0 1.086 1.762c0.519 0.809 1.05 1.58 1.629 2.353 0.422 0.58 0.857 1.122 1.315 1.665a34.775 34.775 0 0 0 1.93 2.076 29.88 29.88 0 0 0 1.533 1.496c0.688 0.64 1.436 1.255 2.172 1.846 0.58 0.447 1.146 0.893 1.75 1.315 0.217 0.157 0.41 0.326 0.64 0.47l409.496 273.002a38.383 38.383 0 0 0 21.357 6.48c7.445 0 14.89-2.16 21.345-6.48l409.509-273.001c0.217-0.145 0.422-0.314 0.627-0.47 0.603-0.423 1.17-0.87 1.75-1.316a40.09 40.09 0 0 0 2.184-1.846c0.519-0.47 1.025-0.99 1.532-1.496a34.566 34.566 0 0 0 1.919-2.076c0.458-0.543 0.893-1.086 1.315-1.665 0.58-0.772 1.11-1.544 1.629-2.353 0.374-0.567 0.748-1.158 1.098-1.762 0.483-0.844 0.905-1.7 1.315-2.57 0.29-0.615 0.591-1.218 0.857-1.858 0.386-0.929 0.688-1.87 0.99-2.823 0.205-0.616 0.422-1.231 0.603-1.87 0.29-1.063 0.47-2.149 0.675-3.222 0.097-0.555 0.23-1.098 0.302-1.666 0.217-1.665 0.35-3.33 0.35-5.031V375.496c0-1.69-0.133-3.366-0.35-5.031-0.072-0.555-0.205-1.098-0.302-1.654z"></path>
</svg>