<?xml version="1.0" encoding="utf-8"?>
<svg id="code-o" viewBox="0 0 1024 1024" version="1.1" xmlns="http://www.w3.org/2000/svg" xmlns:xlink="http://www.w3.org/1999/xlink">
  <path d="M888.5 63.5l-753 0c-39.8 0-72 32.2-72 72l0 753.1c0 39.8 32.2 72 72 72l753.1 0c39.8 0 72-32.2 72-72L960.6 135.5C960.5 95.7 928.2 63.5 888.5 63.5zM888.5 888.6l-753 0L135.5 135.5l753 0L888.5 888.6z"></path>
  <path d="M203.2 538.2c7 7 16.2 10.5 25.4 10.5 9.2 0 18.5-3.5 25.5-10.6l140.4-140.9c14-14 14-36.6 0.1-50.7L254.2 204.3c-14-14.1-36.8-14.3-50.9-0.3-14.1 14-14.3 36.8-0.3 50.9l115.3 116.8L203.1 487.3C189.1 501.4 189.1 524.1 203.2 538.2z"></path>
  <path d="M382.6 512.3c0 19.9 16.1 36 35.9 36.1l198.9 0.3c0 0 0 0 0.1 0 19.9 0 36-16.1 36-35.9 0-19.9-16.1-36-35.9-36.1l-198.9-0.3c0 0 0 0-0.1 0C398.8 476.4 382.7 492.5 382.6 512.3z"></path>
</svg>