<?xml version="1.0" encoding="utf-8"?>
<svg id="coffee" viewBox="0 0 1024 1024" version="1.1" xmlns="http://www.w3.org/2000/svg" xmlns:xlink="http://www.w3.org/1999/xlink">
  <path d="M275 281c19.9 0 36-16.1 36-36V36c0-19.9-16.1-36-36-36s-36 16.1-36 36v209c0 19.9 16.1 36 36 36zM888 425H768c0-39.8-32.2-72-72-72H200c-39.8 0-72 32.2-72 72v248c0 3.4 0.2 6.7 0.7 9.9-0.5 7-0.7 14-0.7 21.1 0 176.7 143.3 320 320 320 160.1 0 292.7-117.5 316.3-271H888c39.8 0 72-32.2 72-72V497c0-39.8-32.2-72-72-72zM696 681h-1.1c0.7 7.6 1.1 15.2 1.1 23 0 137-111 248-248 248S200 841 200 704c0-7.8 0.4-15.4 1.1-23H200V425h496v256z m192-8H776V497h112v176zM613 281c19.9 0 36-16.1 36-36V36c0-19.9-16.1-36-36-36s-36 16.1-36 36v209c0 19.9 16.1 36 36 36zM443 281c19.9 0 36-16.1 36-36V36c0-19.9-16.1-36-36-36s-36 16.1-36 36v209c0 19.9 16.1 36 36 36z"></path>
</svg>