<?xml version="1.0" encoding="utf-8"?>
<!-- Generator: Adobe Illustrator 21.0.0, SVG Export Plug-In . SVG Version: 6.00 Build 0)  -->
<svg version="1.1" id="图层_1" xmlns="http://www.w3.org/2000/svg" xmlns:xlink="http://www.w3.org/1999/xlink" x="0px" y="0px"
	 viewBox="0 0 1024 1024" style="enable-background:new 0 0 1024 1024;" xml:space="preserve">
<title>column-width</title>
<desc>Created with Sketch.</desc>
<g>
	<path d="M180,176h-60c-4.4,0-8,3.6-8,8v656c0,4.4,3.6,8,8,8h60c4.4,0,8-3.6,8-8V184C188,179.6,184.4,176,180,176z"/>
	<path d="M904,176h-60c-4.4,0-8,3.6-8,8v656c0,4.4,3.6,8,8,8h60c4.4,0,8-3.6,8-8V184C912,179.6,908.4,176,904,176z"/>
	<path d="M785.3,504.3L657.7,403.6c-4.7-3.7-11.7-0.4-11.7,5.7V476H378v-62.8c0-6-7-9.4-11.7-5.7L238.7,508.3
		c-3.7,2.9-3.7,8.5,0,11.3l127.5,100.8c4.7,3.7,11.7,0.4,11.7-5.7V548h268v62.8c0,6,7,9.4,11.7,5.7l127.5-100.8
		C788.9,512.8,788.9,507.2,785.3,504.3z"/>
</g>
</svg>
