<?xml version="1.0" encoding="utf-8"?>
<!-- Generator: Adobe Illustrator 21.0.0, SVG Export Plug-In . SVG Version: 6.00 Build 0)  -->
<svg version="1.1" id="图层_1" xmlns="http://www.w3.org/2000/svg" xmlns:xlink="http://www.w3.org/1999/xlink" x="0px" y="0px"
	 viewBox="0 0 1024 1024" style="enable-background:new 0 0 1024 1024;" xml:space="preserve">
<style type="text/css">
	.st0{fill:none;}
	.st1{fill:#010101;}
</style>
<title>control</title>
<desc>Created with Sketch.</desc>
<g>
	<path class="st0" d="M341.2,602.6C341.2,602.6,341.2,602.6,341.2,602.6c0.4,0.7,0.8,1.3,1.2,1.9c0.1,0.2,0.2,0.3,0.3,0.5
		c0.3,0.5,0.7,0.9,1,1.4c0.1,0.1,0.2,0.3,0.3,0.4c0.5,0.6,0.9,1.1,1.4,1.6c0.1,0.1,0.2,0.2,0.3,0.3c0.4,0.4,0.8,0.8,1.2,1.2
		c0.1,0.1,0.3,0.3,0.4,0.4c0.5,0.5,1,0.9,1.6,1.4c0,0,0,0,0,0c0.6,0.5,1.1,0.9,1.7,1.3c0.2,0.1,0.3,0.2,0.5,0.3
		c0.5,0.3,0.9,0.7,1.4,1c0.1,0.1,0.3,0.2,0.4,0.3c0.6,0.4,1.2,0.7,1.9,1.1c0.1,0.1,0.3,0.1,0.4,0.2c0.5,0.3,1,0.5,1.6,0.8
		c0.2,0.1,0.4,0.2,0.6,0.3c0.7,0.3,1.3,0.6,2,0.8c0,0,0,0,0,0c0.7,0.3,1.4,0.5,2.1,0.7c0.2,0.1,0.4,0.1,0.6,0.2
		c0.6,0.2,1.1,0.3,1.7,0.4c0.2,0,0.3,0.1,0.5,0.1c0.7,0.2,1.5,0.3,2.2,0.4c0.2,0,0.3,0,0.5,0.1c0.6,0.1,1.2,0.1,1.8,0.2
		c0.2,0,0.4,0,0.6,0c0.8,0,1.5,0.1,2.3,0.1s1.5,0,2.3-0.1c0.2,0,0.4,0,0.6,0c0.6,0,1.2-0.1,1.8-0.2c0.2,0,0.3,0,0.5-0.1
		c0.7-0.1,1.5-0.2,2.2-0.4c0.2,0,0.3-0.1,0.5-0.1c0.6-0.1,1.2-0.3,1.7-0.4c0.2-0.1,0.4-0.1,0.6-0.2c0.7-0.2,1.4-0.4,2.1-0.7
		c0,0,0,0,0,0c0.7-0.2,1.3-0.5,2-0.8c0.2-0.1,0.4-0.2,0.6-0.3c0.5-0.2,1.1-0.5,1.6-0.8c0.1-0.1,0.3-0.1,0.4-0.2
		c0.6-0.3,1.3-0.7,1.9-1.1c0.1-0.1,0.3-0.2,0.4-0.3c0.5-0.3,1-0.6,1.4-1c0.2-0.1,0.3-0.2,0.5-0.3c0.6-0.4,1.2-0.9,1.7-1.3
		c0,0,0,0,0,0c0.5-0.4,1.1-0.9,1.6-1.4c0.1-0.1,0.3-0.3,0.4-0.4c0.4-0.4,0.8-0.8,1.2-1.2c0.1-0.1,0.2-0.2,0.3-0.3
		c0.5-0.5,1-1.1,1.4-1.6c0.1-0.1,0.2-0.3,0.3-0.4c0.4-0.4,0.7-0.9,1-1.4c0.1-0.2,0.2-0.3,0.3-0.5c0.4-0.6,0.8-1.2,1.2-1.8
		c0,0,0-0.1,0.1-0.1c0.4-0.6,0.7-1.2,1-1.8c2.6-5,4.1-10.7,4.1-16.7s-1.5-11.7-4.1-16.7c-0.3-0.6-0.7-1.2-1-1.8c0,0,0-0.1-0.1-0.1
		c-0.4-0.6-0.8-1.2-1.2-1.8c-0.1-0.2-0.2-0.3-0.3-0.5c-0.3-0.5-0.7-0.9-1-1.4c-0.1-0.1-0.2-0.3-0.3-0.4c-0.5-0.6-0.9-1.1-1.4-1.6
		c-0.1-0.1-0.2-0.2-0.3-0.3c-0.4-0.4-0.8-0.8-1.2-1.2c-0.1-0.1-0.3-0.3-0.4-0.4c-0.5-0.5-1-0.9-1.6-1.4c0,0,0,0,0,0
		c-0.6-0.5-1.1-0.9-1.7-1.3c-0.2-0.1-0.3-0.2-0.5-0.3c-0.5-0.3-0.9-0.7-1.4-1c-0.1-0.1-0.3-0.2-0.4-0.3c-0.6-0.4-1.2-0.7-1.9-1.1
		c-0.1-0.1-0.3-0.1-0.4-0.2c-0.5-0.3-1-0.5-1.6-0.8c-0.2-0.1-0.4-0.2-0.6-0.3c-0.7-0.3-1.3-0.6-2-0.8c0,0,0,0,0,0
		c-0.7-0.3-1.4-0.5-2.1-0.7c-0.2-0.1-0.4-0.1-0.6-0.2c-0.6-0.2-1.1-0.3-1.7-0.4c-0.2,0-0.3-0.1-0.5-0.1c-0.7-0.2-1.5-0.3-2.2-0.4
		c-0.2,0-0.3,0-0.5-0.1c-0.6-0.1-1.2-0.1-1.8-0.2c-0.2,0-0.4,0-0.6,0c-0.8,0-1.5-0.1-2.3-0.1s-1.5,0-2.3,0.1c-0.2,0-0.4,0-0.6,0
		c-0.6,0-1.2,0.1-1.8,0.2c-0.2,0-0.3,0-0.5,0.1c-0.7,0.1-1.5,0.2-2.2,0.4c-0.2,0-0.3,0.1-0.5,0.1c-0.6,0.1-1.2,0.3-1.7,0.4
		c-0.2,0.1-0.4,0.1-0.6,0.2c-0.7,0.2-1.4,0.4-2.1,0.7c0,0,0,0,0,0c-0.7,0.2-1.3,0.5-2,0.8c-0.2,0.1-0.4,0.2-0.6,0.3
		c-0.5,0.2-1.1,0.5-1.6,0.8c-0.1,0.1-0.3,0.1-0.4,0.2c-0.6,0.3-1.3,0.7-1.9,1.1c-0.1,0.1-0.3,0.2-0.4,0.3c-0.5,0.3-1,0.6-1.4,1
		c-0.2,0.1-0.3,0.2-0.5,0.3c-0.6,0.4-1.2,0.9-1.7,1.3c0,0,0,0,0,0c-0.5,0.4-1.1,0.9-1.6,1.4c-0.1,0.1-0.3,0.3-0.4,0.4
		c-0.4,0.4-0.8,0.8-1.2,1.2c-0.1,0.1-0.2,0.2-0.3,0.3c-0.5,0.5-1,1.1-1.4,1.6c-0.1,0.1-0.2,0.3-0.3,0.4c-0.4,0.4-0.7,0.9-1,1.4
		c-0.1,0.2-0.2,0.3-0.3,0.5c-0.4,0.6-0.8,1.2-1.2,1.8c0,0,0,0.1,0,0.1c-0.4,0.6-0.7,1.2-1,1.8c-2.6,5-4.1,10.7-4.1,16.7
		s1.5,11.7,4.1,16.7C340.5,601.4,340.8,602,341.2,602.6z"/>
	<path class="st0" d="M621.2,458.6C621.2,458.6,621.2,458.6,621.2,458.6c0.4,0.7,0.8,1.3,1.2,1.9c0.1,0.2,0.2,0.3,0.3,0.5
		c0.3,0.5,0.7,0.9,1,1.4c0.1,0.1,0.2,0.3,0.3,0.4c0.5,0.6,0.9,1.1,1.4,1.6c0.1,0.1,0.2,0.2,0.3,0.3c0.4,0.4,0.8,0.8,1.2,1.2
		c0.1,0.1,0.3,0.3,0.4,0.4c0.5,0.5,1,0.9,1.6,1.4c0,0,0,0,0,0c0.6,0.5,1.1,0.9,1.7,1.3c0.2,0.1,0.3,0.2,0.5,0.3
		c0.5,0.3,0.9,0.7,1.4,1c0.1,0.1,0.3,0.2,0.4,0.3c0.6,0.4,1.2,0.7,1.9,1.1c0.1,0.1,0.3,0.1,0.4,0.2c0.5,0.3,1,0.5,1.6,0.8
		c0.2,0.1,0.4,0.2,0.6,0.3c0.7,0.3,1.3,0.6,2,0.8c0,0,0,0,0,0c0.7,0.3,1.4,0.5,2.1,0.7c0.2,0.1,0.4,0.1,0.6,0.2
		c0.6,0.2,1.1,0.3,1.7,0.4c0.2,0,0.3,0.1,0.5,0.1c0.7,0.2,1.5,0.3,2.2,0.4c0.2,0,0.3,0,0.5,0.1c0.6,0.1,1.2,0.1,1.8,0.2
		c0.2,0,0.4,0,0.6,0c0.8,0,1.5,0.1,2.3,0.1s1.5,0,2.3-0.1c0.2,0,0.4,0,0.6,0c0.6,0,1.2-0.1,1.8-0.2c0.2,0,0.3,0,0.5-0.1
		c0.7-0.1,1.5-0.2,2.2-0.4c0.2,0,0.3-0.1,0.5-0.1c0.6-0.1,1.2-0.3,1.7-0.4c0.2-0.1,0.4-0.1,0.6-0.2c0.7-0.2,1.4-0.4,2.1-0.7
		c0,0,0,0,0,0c0.7-0.2,1.3-0.5,2-0.8c0.2-0.1,0.4-0.2,0.6-0.3c0.5-0.2,1.1-0.5,1.6-0.8c0.1-0.1,0.3-0.1,0.4-0.2
		c0.6-0.3,1.3-0.7,1.9-1.1c0.1-0.1,0.3-0.2,0.4-0.3c0.5-0.3,1-0.6,1.4-1c0.2-0.1,0.3-0.2,0.5-0.3c0.6-0.4,1.2-0.9,1.7-1.3
		c0,0,0,0,0,0c0.5-0.4,1.1-0.9,1.6-1.4c0.1-0.1,0.3-0.3,0.4-0.4c0.4-0.4,0.8-0.8,1.2-1.2c0.1-0.1,0.2-0.2,0.3-0.3
		c0.5-0.5,1-1.1,1.4-1.6c0.1-0.1,0.2-0.3,0.3-0.4c0.4-0.4,0.7-0.9,1-1.4c0.1-0.2,0.2-0.3,0.3-0.5c0.4-0.6,0.8-1.2,1.2-1.8
		c0,0,0-0.1,0-0.1c0.4-0.6,0.7-1.2,1-1.8c2.6-5,4.1-10.7,4.1-16.7s-1.5-11.7-4.1-16.7c-0.3-0.6-0.7-1.2-1-1.8c0,0,0-0.1,0-0.1
		c-0.4-0.6-0.8-1.2-1.2-1.8c-0.1-0.2-0.2-0.3-0.3-0.5c-0.3-0.5-0.7-0.9-1-1.4c-0.1-0.1-0.2-0.3-0.3-0.4c-0.5-0.6-0.9-1.1-1.4-1.6
		c-0.1-0.1-0.2-0.2-0.3-0.3c-0.4-0.4-0.8-0.8-1.2-1.2c-0.1-0.1-0.3-0.3-0.4-0.4c-0.5-0.5-1-0.9-1.6-1.4c0,0,0,0,0,0
		c-0.6-0.5-1.1-0.9-1.7-1.3c-0.2-0.1-0.3-0.2-0.5-0.3c-0.5-0.3-0.9-0.7-1.4-1c-0.1-0.1-0.3-0.2-0.4-0.3c-0.6-0.4-1.2-0.7-1.9-1.1
		c-0.1-0.1-0.3-0.1-0.4-0.2c-0.5-0.3-1-0.5-1.6-0.8c-0.2-0.1-0.4-0.2-0.6-0.3c-0.7-0.3-1.3-0.6-2-0.8c0,0,0,0,0,0
		c-0.7-0.3-1.4-0.5-2.1-0.7c-0.2-0.1-0.4-0.1-0.6-0.2c-0.6-0.2-1.1-0.3-1.7-0.4c-0.2,0-0.3-0.1-0.5-0.1c-0.7-0.2-1.5-0.3-2.2-0.4
		c-0.2,0-0.3,0-0.5-0.1c-0.6-0.1-1.2-0.1-1.8-0.2c-0.2,0-0.4,0-0.6,0c-0.8,0-1.5-0.1-2.3-0.1s-1.5,0-2.3,0.1c-0.2,0-0.4,0-0.6,0
		c-0.6,0-1.2,0.1-1.8,0.2c-0.2,0-0.3,0-0.5,0.1c-0.7,0.1-1.5,0.2-2.2,0.4c-0.2,0-0.3,0.1-0.5,0.1c-0.6,0.1-1.2,0.3-1.7,0.4
		c-0.2,0.1-0.4,0.1-0.6,0.2c-0.7,0.2-1.4,0.4-2.1,0.7c0,0,0,0,0,0c-0.7,0.2-1.3,0.5-2,0.8c-0.2,0.1-0.4,0.2-0.6,0.3
		c-0.5,0.2-1.1,0.5-1.6,0.8c-0.1,0.1-0.3,0.1-0.4,0.2c-0.6,0.3-1.3,0.7-1.9,1.1c-0.1,0.1-0.3,0.2-0.4,0.3c-0.5,0.3-1,0.6-1.4,1
		c-0.2,0.1-0.3,0.2-0.5,0.3c-0.6,0.4-1.2,0.9-1.7,1.3c0,0,0,0,0,0c-0.5,0.4-1.1,0.9-1.6,1.4c-0.1,0.1-0.3,0.3-0.4,0.4
		c-0.4,0.4-0.8,0.8-1.2,1.2c-0.1,0.1-0.2,0.2-0.3,0.3c-0.5,0.5-1,1.1-1.4,1.6c-0.1,0.1-0.2,0.3-0.3,0.4c-0.4,0.4-0.7,0.9-1,1.4
		c-0.1,0.2-0.2,0.3-0.3,0.5c-0.4,0.6-0.8,1.2-1.2,1.8c0,0,0,0.1,0,0.1c-0.4,0.6-0.7,1.2-1,1.8c-2.6,5-4.1,10.7-4.1,16.7
		c0,6,1.5,11.7,4.1,16.7C620.5,457.4,620.8,458,621.2,458.6z"/>
	<path class="st0" d="M184,840h656V184H184V840z M620,341v-77c0-4.4,3.6-8,8-8h48c4.4,0,8,3.6,8,8v77c41.8,13.5,72,52.7,72,99
		s-30.2,85.5-72,99v221c0,4.4-3.6,8-8,8h-48c-4.4,0-8-3.6-8-8V539c-41.8-13.5-72-52.7-72-99S578.2,354.5,620,341z M340,485V264
		c0-4.4,3.6-8,8-8h48c4.4,0,8,3.6,8,8v221c41.8,13.5,72,52.7,72,99s-30.2,85.5-72,99v77c0,4.4-3.6,8-8,8h-48c-4.4,0-8-3.6-8-8v-77
		c-41.8-13.5-72-52.7-72-99S298.2,498.5,340,485z"/>
	<path d="M880,112H144c-17.7,0-32,14.3-32,32v736c0,17.7,14.3,32,32,32h736c17.7,0,32-14.3,32-32V144C912,126.3,897.7,112,880,112z
		 M840,840H184V184h656V840z"/>
	<path d="M340,683v77c0,4.4,3.6,8,8,8h48c4.4,0,8-3.6,8-8v-77c-10.1,3.3-20.8,5-32,5S350.1,686.2,340,683z"/>
	<path d="M404,485V264c0-4.4-3.6-8-8-8h-48c-4.4,0-8,3.6-8,8v221c10.1-3.3,20.8-5,32-5S393.9,481.8,404,485z"/>
	<path class="st1" d="M340,683c10.1,3.3,20.8,5,32,5s21.9-1.8,32-5c41.8-13.5,72-52.7,72-99s-30.2-85.5-72-99c-10.1-3.3-20.8-5-32-5
		s-21.9,1.8-32,5c-41.8,13.5-72,52.7-72,99S298.2,669.5,340,683z M340.1,567.3c0.3-0.6,0.7-1.2,1-1.8c0,0,0-0.1,0-0.1
		c0.4-0.6,0.8-1.2,1.2-1.8c0.1-0.2,0.2-0.3,0.3-0.5c0.3-0.5,0.7-0.9,1-1.4c0.1-0.1,0.2-0.3,0.3-0.4c0.5-0.6,0.9-1.1,1.4-1.6
		c0.1-0.1,0.2-0.2,0.3-0.3c0.4-0.4,0.8-0.8,1.2-1.2c0.1-0.1,0.3-0.3,0.4-0.4c0.5-0.5,1-0.9,1.6-1.4c0,0,0,0,0,0
		c0.6-0.5,1.1-0.9,1.7-1.3c0.2-0.1,0.3-0.2,0.5-0.3c0.5-0.3,0.9-0.7,1.4-1c0.1-0.1,0.3-0.2,0.4-0.3c0.6-0.4,1.2-0.7,1.9-1.1
		c0.1-0.1,0.3-0.1,0.4-0.2c0.5-0.3,1-0.5,1.6-0.8c0.2-0.1,0.4-0.2,0.6-0.3c0.7-0.3,1.3-0.6,2-0.8c0,0,0,0,0,0
		c0.7-0.3,1.4-0.5,2.1-0.7c0.2-0.1,0.4-0.1,0.6-0.2c0.6-0.2,1.1-0.3,1.7-0.4c0.2,0,0.3-0.1,0.5-0.1c0.7-0.2,1.5-0.3,2.2-0.4
		c0.2,0,0.3,0,0.5-0.1c0.6-0.1,1.2-0.1,1.8-0.2c0.2,0,0.4,0,0.6,0c0.8,0,1.5-0.1,2.3-0.1s1.5,0,2.3,0.1c0.2,0,0.4,0,0.6,0
		c0.6,0,1.2,0.1,1.8,0.2c0.2,0,0.3,0,0.5,0.1c0.7,0.1,1.5,0.2,2.2,0.4c0.2,0,0.3,0.1,0.5,0.1c0.6,0.1,1.2,0.3,1.7,0.4
		c0.2,0.1,0.4,0.1,0.6,0.2c0.7,0.2,1.4,0.4,2.1,0.7c0,0,0,0,0,0c0.7,0.2,1.3,0.5,2,0.8c0.2,0.1,0.4,0.2,0.6,0.3
		c0.5,0.2,1.1,0.5,1.6,0.8c0.1,0.1,0.3,0.1,0.4,0.2c0.6,0.3,1.3,0.7,1.9,1.1c0.1,0.1,0.3,0.2,0.4,0.3c0.5,0.3,1,0.6,1.4,1
		c0.2,0.1,0.3,0.2,0.5,0.3c0.6,0.4,1.2,0.9,1.7,1.3c0,0,0,0,0,0c0.5,0.4,1.1,0.9,1.6,1.4c0.1,0.1,0.3,0.3,0.4,0.4
		c0.4,0.4,0.8,0.8,1.2,1.2c0.1,0.1,0.2,0.2,0.3,0.3c0.5,0.5,1,1.1,1.4,1.6c0.1,0.1,0.2,0.3,0.3,0.4c0.4,0.4,0.7,0.9,1,1.4
		c0.1,0.2,0.2,0.3,0.3,0.5c0.4,0.6,0.8,1.2,1.2,1.8c0,0,0,0.1,0.1,0.1c0.4,0.6,0.7,1.2,1,1.8c2.6,5,4.1,10.7,4.1,16.7
		s-1.5,11.7-4.1,16.7c-0.3,0.6-0.7,1.2-1,1.8c0,0,0,0.1-0.1,0.1c-0.4,0.6-0.8,1.2-1.2,1.8c-0.1,0.2-0.2,0.3-0.3,0.5
		c-0.3,0.5-0.7,0.9-1,1.4c-0.1,0.1-0.2,0.3-0.3,0.4c-0.5,0.6-0.9,1.1-1.4,1.6c-0.1,0.1-0.2,0.2-0.3,0.3c-0.4,0.4-0.8,0.8-1.2,1.2
		c-0.1,0.1-0.3,0.3-0.4,0.4c-0.5,0.5-1,0.9-1.6,1.4c0,0,0,0,0,0c-0.6,0.5-1.1,0.9-1.7,1.3c-0.2,0.1-0.3,0.2-0.5,0.3
		c-0.5,0.3-0.9,0.7-1.4,1c-0.1,0.1-0.3,0.2-0.4,0.3c-0.6,0.4-1.2,0.7-1.9,1.1c-0.1,0.1-0.3,0.1-0.4,0.2c-0.5,0.3-1,0.5-1.6,0.8
		c-0.2,0.1-0.4,0.2-0.6,0.3c-0.7,0.3-1.3,0.6-2,0.8c0,0,0,0,0,0c-0.7,0.3-1.4,0.5-2.1,0.7c-0.2,0.1-0.4,0.1-0.6,0.2
		c-0.6,0.2-1.1,0.3-1.7,0.4c-0.2,0-0.3,0.1-0.5,0.1c-0.7,0.2-1.5,0.3-2.2,0.4c-0.2,0-0.3,0-0.5,0.1c-0.6,0.1-1.2,0.1-1.8,0.2
		c-0.2,0-0.4,0-0.6,0c-0.8,0-1.5,0.1-2.3,0.1s-1.5,0-2.3-0.1c-0.2,0-0.4,0-0.6,0c-0.6,0-1.2-0.1-1.8-0.2c-0.2,0-0.3,0-0.5-0.1
		c-0.7-0.1-1.5-0.2-2.2-0.4c-0.2,0-0.3-0.1-0.5-0.1c-0.6-0.1-1.2-0.3-1.7-0.4c-0.2-0.1-0.4-0.1-0.6-0.2c-0.7-0.2-1.4-0.4-2.1-0.7
		c0,0,0,0,0,0c-0.7-0.2-1.3-0.5-2-0.8c-0.2-0.1-0.4-0.2-0.6-0.3c-0.5-0.2-1.1-0.5-1.6-0.8c-0.1-0.1-0.3-0.1-0.4-0.2
		c-0.6-0.3-1.3-0.7-1.9-1.1c-0.1-0.1-0.3-0.2-0.4-0.3c-0.5-0.3-1-0.6-1.4-1c-0.2-0.1-0.3-0.2-0.5-0.3c-0.6-0.4-1.2-0.9-1.7-1.3
		c0,0,0,0,0,0c-0.5-0.4-1.1-0.9-1.6-1.4c-0.1-0.1-0.3-0.3-0.4-0.4c-0.4-0.4-0.8-0.8-1.2-1.2c-0.1-0.1-0.2-0.2-0.3-0.3
		c-0.5-0.5-1-1.1-1.4-1.6c-0.1-0.1-0.2-0.3-0.3-0.4c-0.4-0.4-0.7-0.9-1-1.4c-0.1-0.2-0.2-0.3-0.3-0.5c-0.4-0.6-0.8-1.2-1.2-1.8
		c0,0,0-0.1,0-0.1c-0.4-0.6-0.7-1.2-1-1.8c-2.6-5-4.1-10.7-4.1-16.7S337.5,572.3,340.1,567.3z"/>
	<path d="M620,539v221c0,4.4,3.6,8,8,8h48c4.4,0,8-3.6,8-8V539c-10.1,3.3-20.8,5-32,5S630.1,542.2,620,539z"/>
	<path d="M684,341v-77c0-4.4-3.6-8-8-8h-48c-4.4,0-8,3.6-8,8v77c10.1-3.3,20.8-5,32-5S673.9,337.8,684,341z"/>
	<path class="st1" d="M620,539c10.1,3.3,20.8,5,32,5s21.9-1.8,32-5c41.8-13.5,72-52.7,72-99s-30.2-85.5-72-99c-10.1-3.3-20.8-5-32-5
		s-21.9,1.8-32,5c-41.8,13.5-72,52.7-72,99S578.2,525.5,620,539z M620.1,423.3c0.3-0.6,0.7-1.2,1-1.8c0,0,0-0.1,0-0.1
		c0.4-0.6,0.8-1.2,1.2-1.8c0.1-0.2,0.2-0.3,0.3-0.5c0.3-0.5,0.7-0.9,1-1.4c0.1-0.1,0.2-0.3,0.3-0.4c0.5-0.6,0.9-1.1,1.4-1.6
		c0.1-0.1,0.2-0.2,0.3-0.3c0.4-0.4,0.8-0.8,1.2-1.2c0.1-0.1,0.3-0.3,0.4-0.4c0.5-0.5,1-0.9,1.6-1.4c0,0,0,0,0,0
		c0.6-0.5,1.1-0.9,1.7-1.3c0.2-0.1,0.3-0.2,0.5-0.3c0.5-0.3,0.9-0.7,1.4-1c0.1-0.1,0.3-0.2,0.4-0.3c0.6-0.4,1.2-0.7,1.9-1.1
		c0.1-0.1,0.3-0.1,0.4-0.2c0.5-0.3,1-0.5,1.6-0.8c0.2-0.1,0.4-0.2,0.6-0.3c0.7-0.3,1.3-0.6,2-0.8c0,0,0,0,0,0
		c0.7-0.3,1.4-0.5,2.1-0.7c0.2-0.1,0.4-0.1,0.6-0.2c0.6-0.2,1.1-0.3,1.7-0.4c0.2,0,0.3-0.1,0.5-0.1c0.7-0.2,1.5-0.3,2.2-0.4
		c0.2,0,0.3,0,0.5-0.1c0.6-0.1,1.2-0.1,1.8-0.2c0.2,0,0.4,0,0.6,0c0.8,0,1.5-0.1,2.3-0.1s1.5,0,2.3,0.1c0.2,0,0.4,0,0.6,0
		c0.6,0,1.2,0.1,1.8,0.2c0.2,0,0.3,0,0.5,0.1c0.7,0.1,1.5,0.2,2.2,0.4c0.2,0,0.3,0.1,0.5,0.1c0.6,0.1,1.2,0.3,1.7,0.4
		c0.2,0.1,0.4,0.1,0.6,0.2c0.7,0.2,1.4,0.4,2.1,0.7c0,0,0,0,0,0c0.7,0.2,1.3,0.5,2,0.8c0.2,0.1,0.4,0.2,0.6,0.3
		c0.5,0.2,1.1,0.5,1.6,0.8c0.1,0.1,0.3,0.1,0.4,0.2c0.6,0.3,1.3,0.7,1.9,1.1c0.1,0.1,0.3,0.2,0.4,0.3c0.5,0.3,1,0.6,1.4,1
		c0.2,0.1,0.3,0.2,0.5,0.3c0.6,0.4,1.2,0.9,1.7,1.3c0,0,0,0,0,0c0.5,0.4,1.1,0.9,1.6,1.4c0.1,0.1,0.3,0.3,0.4,0.4
		c0.4,0.4,0.8,0.8,1.2,1.2c0.1,0.1,0.2,0.2,0.3,0.3c0.5,0.5,1,1.1,1.4,1.6c0.1,0.1,0.2,0.3,0.3,0.4c0.4,0.4,0.7,0.9,1,1.4
		c0.1,0.2,0.2,0.3,0.3,0.5c0.4,0.6,0.8,1.2,1.2,1.8c0,0,0,0.1,0,0.1c0.4,0.6,0.7,1.2,1,1.8c2.6,5,4.1,10.7,4.1,16.7
		s-1.5,11.7-4.1,16.7c-0.3,0.6-0.7,1.2-1,1.8c0,0,0,0.1,0,0.1c-0.4,0.6-0.8,1.2-1.2,1.8c-0.1,0.2-0.2,0.3-0.3,0.5
		c-0.3,0.5-0.7,0.9-1,1.4c-0.1,0.1-0.2,0.3-0.3,0.4c-0.5,0.6-0.9,1.1-1.4,1.6c-0.1,0.1-0.2,0.2-0.3,0.3c-0.4,0.4-0.8,0.8-1.2,1.2
		c-0.1,0.1-0.3,0.3-0.4,0.4c-0.5,0.5-1,0.9-1.6,1.4c0,0,0,0,0,0c-0.6,0.5-1.1,0.9-1.7,1.3c-0.2,0.1-0.3,0.2-0.5,0.3
		c-0.5,0.3-0.9,0.7-1.4,1c-0.1,0.1-0.3,0.2-0.4,0.3c-0.6,0.4-1.2,0.7-1.9,1.1c-0.1,0.1-0.3,0.1-0.4,0.2c-0.5,0.3-1,0.5-1.6,0.8
		c-0.2,0.1-0.4,0.2-0.6,0.3c-0.7,0.3-1.3,0.6-2,0.8c0,0,0,0,0,0c-0.7,0.3-1.4,0.5-2.1,0.7c-0.2,0.1-0.4,0.1-0.6,0.2
		c-0.6,0.2-1.1,0.3-1.7,0.4c-0.2,0-0.3,0.1-0.5,0.1c-0.7,0.2-1.5,0.3-2.2,0.4c-0.2,0-0.3,0-0.5,0.1c-0.6,0.1-1.2,0.1-1.8,0.2
		c-0.2,0-0.4,0-0.6,0c-0.8,0-1.5,0.1-2.3,0.1s-1.5,0-2.3-0.1c-0.2,0-0.4,0-0.6,0c-0.6,0-1.2-0.1-1.8-0.2c-0.2,0-0.3,0-0.5-0.1
		c-0.7-0.1-1.5-0.2-2.2-0.4c-0.2,0-0.3-0.1-0.5-0.1c-0.6-0.1-1.2-0.3-1.7-0.4c-0.2-0.1-0.4-0.1-0.6-0.2c-0.7-0.2-1.4-0.4-2.1-0.7
		c0,0,0,0,0,0c-0.7-0.2-1.3-0.5-2-0.8c-0.2-0.1-0.4-0.2-0.6-0.3c-0.5-0.2-1.1-0.5-1.6-0.8c-0.1-0.1-0.3-0.1-0.4-0.2
		c-0.6-0.3-1.3-0.7-1.9-1.1c-0.1-0.1-0.3-0.2-0.4-0.3c-0.5-0.3-1-0.6-1.4-1c-0.2-0.1-0.3-0.2-0.5-0.3c-0.6-0.4-1.2-0.9-1.7-1.3
		c0,0,0,0,0,0c-0.5-0.4-1.1-0.9-1.6-1.4c-0.1-0.1-0.3-0.3-0.4-0.4c-0.4-0.4-0.8-0.8-1.2-1.2c-0.1-0.1-0.2-0.2-0.3-0.3
		c-0.5-0.5-1-1.1-1.4-1.6c-0.1-0.1-0.2-0.3-0.3-0.4c-0.4-0.4-0.7-0.9-1-1.4c-0.1-0.2-0.2-0.3-0.3-0.5c-0.4-0.6-0.8-1.2-1.2-1.8
		c0,0,0-0.1,0-0.1c-0.4-0.6-0.7-1.2-1-1.8c-2.6-5-4.1-10.7-4.1-16.7C616,434,617.5,428.3,620.1,423.3z"/>
</g>
</svg>
