<?xml version="1.0" encoding="utf-8"?>
<svg id="contacts" viewBox="0 0 1024 1024" version="1.1" xmlns="http://www.w3.org/2000/svg" xmlns:xlink="http://www.w3.org/1999/xlink">
  <path d="M256 692c0-19.9-16.1-36-36-36H100c-19.9 0-36 16.1-36 36s16.1 36 36 36h120c19.9 0 36-16.1 36-36zM100 370h120c19.9 0 36-16.1 36-36s-16.1-36-36-36H100c-19.9 0-36 16.1-36 36s16.1 36 36 36z"></path>
  <path d="M888 64H200c-39.8 0-72 32.2-72 72v56c0 19.9 16.1 36 36 36s36-16.1 36-36v-56h688v752H200v-54h-0.1c0-0.7 0.1-1.3 0.1-2 0-19.9-16.1-36-36-36s-36 16.1-36 36c0 0.7 0 1.3 0.1 2h-0.1v54c0 39.8 32.2 72 72 72h688c39.8 0 72-32.2 72-72V136c0-39.8-32.2-72-72-72z"></path>
  <path d="M100 549h120c19.9 0 36-16.1 36-36s-16.1-36-36-36H100c-19.9 0-36 16.1-36 36s16.1 36 36 36zM575.6 584c-90.4 0-164-73.6-164-164s73.6-164 164-164 164 73.6 164 164-73.6 164-164 164z m0-256c-50.7 0-92 41.3-92 92s41.3 92 92 92 92-41.3 92-92-41.3-92-92-92z"></path>
  <path d="M764.2 768c-17 0-32.1-12-35.3-29.3-14-73.4-78.4-126.7-153.3-126.7s-139.3 53.3-153.3 126.7C419 756 403.9 768 387 768c-2.2 0-4.5-0.2-6.7-0.6-19.5-3.7-32.4-22.5-28.7-42.1C371.9 617.9 466.1 540 575.6 540c109.4 0 203.7 77.9 224 185.3 3.7 19.5-9.1 38.4-28.7 42.1-2.2 0.4-4.5 0.6-6.7 0.6z"></path>
</svg>