<?xml version="1.0" encoding="utf-8"?>
<!-- Generator: Adobe Illustrator 21.0.0, SVG Export Plug-In . SVG Version: 6.00 Build 0)  -->
<svg version="1.1" id="图层_1" xmlns="http://www.w3.org/2000/svg" xmlns:xlink="http://www.w3.org/1999/xlink" x="0px" y="0px"
	 viewBox="0 0 1024 1024" style="enable-background:new 0 0 1024 1024;" xml:space="preserve">
<style type="text/css">
	.st0{fill:none;}
</style>
<title>control-fill</title>
<desc>Created with Sketch.</desc>
<g>
	<path class="st0" d="M683.6,340.9c0.1,0,0.2,0.1,0.4,0.1v-77c0-4.4-3.6-8-8-8h-48c-4.4,0-8,3.6-8,8v77c0.1,0,0.2-0.1,0.4-0.1
		c-42,13.4-72.4,52.7-72.4,99.1c0,46.4,30.4,85.7,72.4,99.1c-0.1,0-0.2-0.1-0.4-0.1v221c0,4.4,3.6,8,8,8h48c4.4,0,8-3.6,8-8V539
		c-0.1,0-0.2,0.1-0.4,0.1c42-13.4,72.4-52.7,72.4-99.1C756,393.6,725.6,354.3,683.6,340.9z M652,476c-19.9,0-36-16.1-36-36
		s16.1-36,36-36s36,16.1,36,36S671.9,476,652,476z"/>
	<path class="st0" d="M404,485V264c0-4.4-3.6-8-8-8h-48c-4.4,0-8,3.6-8,8v221c-41.7,13.5-72,52.8-72,99s30.3,85.4,72,99v77
		c0,4.4,3.6,8,8,8h48c4.4,0,8-3.6,8-8v-77c41.7-13.5,72-52.8,72-99S445.7,498.6,404,485z M403.7,601c-0.1,0.2-0.2,0.3-0.3,0.5
		c-0.5,0.8-1,1.6-1.5,2.4c0,0.1-0.1,0.1-0.1,0.2c-0.3,0.4-0.6,0.8-0.9,1.2c0,0.1-0.1,0.2-0.2,0.3c-1,1.2-2.1,2.5-3.2,3.6
		c-0.1,0.1-0.1,0.1-0.2,0.2c-0.4,0.4-0.8,0.7-1.2,1.1c-0.8,0.7-1.7,1.4-2.6,2.1c-0.1,0-0.1,0-0.1,0c-0.4,0.3-0.8,0.6-1.2,0.9
		c-0.1,0.1-0.3,0.2-0.4,0.3c-1.3,0.8-2.6,1.5-3.9,2.2c-0.2,0.2-0.5,0.3-0.7,0.4c-0.4,0.2-0.7,0.3-1.1,0.5c-0.3,0.1-0.7,0.3-1,0.4
		c-0.5,0.1-1,0.3-1.5,0.5c-0.4,0.1-0.9,0.3-1.3,0.4c-0.3,0.1-0.6,0.2-0.9,0.3c-0.5,0.1-0.9,0.2-1.4,0.3c-0.2,0.1-0.5,0.1-0.7,0.2
		c-0.7,0.2-1.4,0.3-2.1,0.4c-0.2,0.1-0.4,0.1-0.6,0.1c-0.5,0.1-1.1,0.2-1.7,0.2c-0.3,0.1-0.5,0.1-0.7,0.1c-0.8,0.1-1.5,0.1-2.3,0.1
		s-1.5-0.1-2.3-0.1c-0.3-0.1-0.5-0.1-0.7-0.1c-0.6-0.1-1.1-0.1-1.7-0.2c-0.2-0.1-0.4-0.1-0.6-0.1c-0.7-0.1-1.4-0.3-2.1-0.4
		c-0.2-0.1-0.5-0.1-0.7-0.2c-0.5-0.1-0.9-0.2-1.4-0.3c-0.3-0.1-0.6-0.2-0.9-0.3c-0.4-0.1-0.9-0.3-1.3-0.4c-0.5-0.1-1-0.3-1.5-0.5
		c-0.3-0.1-0.7-0.3-1-0.4c-0.4-0.2-0.7-0.3-1.1-0.5c-0.2-0.2-0.5-0.3-0.7-0.4c-1.4-0.6-2.7-1.4-3.9-2.2c-0.1-0.1-0.3-0.2-0.4-0.3
		c-0.4-0.3-0.8-0.6-1.2-0.9c-0.1,0-0.1,0-0.1,0c-0.9-0.6-1.8-1.3-2.6-2.1c-0.4-0.3-0.8-0.7-1.2-1.1c-0.1-0.1-0.1-0.1-0.2-0.2
		c-1.2-1.1-2.2-2.3-3.2-3.6c0-0.1-0.1-0.2-0.2-0.3c-0.3-0.4-0.6-0.8-0.9-1.2c0-0.1-0.1-0.1-0.1-0.2c-0.5-0.8-1-1.6-1.5-2.4
		c-0.1-0.2-0.2-0.3-0.3-0.5c-2.7-5-4.3-10.9-4.3-17c0-6.1,1.6-11.9,4.3-17c0.1-0.2,0.2-0.3,0.3-0.5c0.5-0.8,1-1.6,1.5-2.4
		c0-0.1,0.1-0.1,0.1-0.2c0.3-0.4,0.6-0.8,0.9-1.2c0-0.1,0.1-0.2,0.2-0.3c1-1.2,2.1-2.5,3.2-3.6c0.1-0.1,0.1-0.1,0.2-0.2
		c0.4-0.4,0.8-0.7,1.2-1.1c0.8-0.7,1.7-1.4,2.6-2.1c0.1,0,0.1,0,0.1,0c0.4-0.3,0.8-0.6,1.2-0.9c0.1-0.1,0.3-0.2,0.4-0.3
		c1.3-0.8,2.6-1.5,3.9-2.2c0.2-0.2,0.5-0.3,0.7-0.4c0.4-0.2,0.7-0.3,1.1-0.5c0.3-0.1,0.7-0.3,1-0.4c0.5-0.1,1-0.3,1.5-0.5
		c0.4-0.1,0.9-0.3,1.3-0.4c0.3-0.1,0.6-0.2,0.9-0.3c0.5-0.1,0.9-0.2,1.4-0.3c0.2-0.1,0.5-0.1,0.7-0.2c0.7-0.2,1.4-0.3,2.1-0.4
		c0.2-0.1,0.4-0.1,0.6-0.1c0.5-0.1,1.1-0.2,1.7-0.2c0.3-0.1,0.5-0.1,0.7-0.1c0.8-0.1,1.5-0.1,2.3-0.1s1.5,0.1,2.3,0.1
		c0.3,0.1,0.5,0.1,0.7,0.1c0.6,0.1,1.1,0.1,1.7,0.2c0.2,0.1,0.4,0.1,0.6,0.1c0.7,0.1,1.4,0.3,2.1,0.4c0.2,0.1,0.5,0.1,0.7,0.2
		c0.5,0.1,0.9,0.2,1.4,0.3c0.3,0.1,0.6,0.2,0.9,0.3c0.4,0.1,0.9,0.3,1.3,0.4c0.5,0.1,1,0.3,1.5,0.5c0.3,0.1,0.7,0.3,1,0.4
		c0.4,0.2,0.7,0.3,1.1,0.5c0.2,0.2,0.5,0.3,0.7,0.4c1.4,0.6,2.7,1.4,3.9,2.2c0.1,0.1,0.3,0.2,0.4,0.3c0.4,0.3,0.8,0.6,1.2,0.9
		c0.1,0,0.1,0,0.1,0c0.9,0.6,1.8,1.3,2.6,2.1c0.4,0.3,0.8,0.7,1.2,1.1c0.1,0.1,0.1,0.1,0.2,0.2c1.2,1.1,2.2,2.3,3.2,3.6
		c0,0.1,0.1,0.2,0.2,0.3c0.3,0.4,0.6,0.8,0.9,1.2c0,0.1,0.1,0.1,0.1,0.2c0.5,0.8,1,1.6,1.5,2.4c0.1,0.1,0.2,0.3,0.3,0.5
		c2.7,5,4.3,10.9,4.3,17C408,590.1,406.4,595.9,403.7,601z"/>
	<path d="M880,112H144c-17.7,0-32,14.3-32,32v736c0,17.7,14.3,32,32,32h736c17.7,0,32-14.3,32-32V144C912,126.3,897.7,112,880,112z
		 M404,683v77c0,4.4-3.6,8-8,8h-48c-4.4,0-8-3.6-8-8v-77c-41.7-13.6-72-52.8-72-99s30.3-85.5,72-99V264c0-4.4,3.6-8,8-8h48
		c4.4,0,8,3.6,8,8v221c41.7,13.6,72,52.8,72,99S445.7,669.5,404,683z M683.6,539.1c0.2,0,0.3-0.1,0.4-0.1v221c0,4.4-3.6,8-8,8h-48
		c-4.4,0-8-3.6-8-8V539c0.2,0,0.3,0.1,0.4,0.1c-42-13.4-72.4-52.7-72.4-99.1c0-46.4,30.4-85.7,72.4-99.1c-0.2,0-0.3,0.1-0.4,0.1v-77
		c0-4.4,3.6-8,8-8h48c4.4,0,8,3.6,8,8v77c-0.2,0-0.3-0.1-0.4-0.1c42,13.4,72.4,52.7,72.4,99.1C756,486.4,725.6,525.7,683.6,539.1z"
		/>
	<circle cx="652" cy="440" r="36"/>
	<path d="M403.4,566.5c-0.5-0.8-1-1.6-1.5-2.4c0-0.1-0.1-0.1-0.1-0.2c-0.3-0.4-0.6-0.8-0.9-1.2c-0.1-0.1-0.2-0.2-0.2-0.3
		c-1-1.3-2-2.5-3.2-3.6c-0.1-0.1-0.1-0.1-0.2-0.2c-0.4-0.4-0.8-0.8-1.2-1.1c-0.8-0.8-1.7-1.5-2.6-2.1c0,0,0,0-0.1,0
		c-0.4-0.3-0.8-0.6-1.2-0.9c-0.1-0.1-0.3-0.2-0.4-0.3c-1.2-0.8-2.5-1.6-3.9-2.2c-0.2-0.1-0.5-0.2-0.7-0.4c-0.4-0.2-0.7-0.3-1.1-0.5
		c-0.3-0.1-0.7-0.3-1-0.4c-0.5-0.2-1-0.4-1.5-0.5c-0.4-0.1-0.9-0.3-1.3-0.4c-0.3-0.1-0.6-0.2-0.9-0.3c-0.5-0.1-0.9-0.2-1.4-0.3
		c-0.2-0.1-0.5-0.1-0.7-0.2c-0.7-0.1-1.4-0.3-2.1-0.4c-0.2,0-0.4,0-0.6-0.1c-0.6-0.1-1.1-0.1-1.7-0.2c-0.2,0-0.4,0-0.7-0.1
		c-0.8,0-1.5-0.1-2.3-0.1s-1.5,0-2.3,0.1c-0.2,0-0.4,0-0.7,0.1c-0.6,0-1.2,0.1-1.7,0.2c-0.2,0-0.4,0-0.6,0.1
		c-0.7,0.1-1.4,0.2-2.1,0.4c-0.2,0.1-0.5,0.1-0.7,0.2c-0.5,0.1-0.9,0.2-1.4,0.3c-0.3,0.1-0.6,0.2-0.9,0.3c-0.4,0.1-0.9,0.3-1.3,0.4
		c-0.5,0.2-1,0.4-1.5,0.5c-0.3,0.1-0.7,0.3-1,0.4c-0.4,0.2-0.7,0.3-1.1,0.5c-0.2,0.1-0.5,0.2-0.7,0.4c-1.3,0.7-2.6,1.4-3.9,2.2
		c-0.1,0.1-0.3,0.2-0.4,0.3c-0.4,0.3-0.8,0.6-1.2,0.9c0,0,0,0-0.1,0c-0.9,0.7-1.8,1.4-2.6,2.1c-0.4,0.4-0.8,0.7-1.2,1.1
		c-0.1,0.1-0.1,0.1-0.2,0.2c-1.1,1.1-2.2,2.4-3.2,3.6c-0.1,0.1-0.2,0.2-0.2,0.3c-0.3,0.4-0.6,0.8-0.9,1.2c0,0.1-0.1,0.1-0.1,0.2
		c-0.5,0.8-1,1.6-1.5,2.4c-0.1,0.2-0.2,0.3-0.3,0.5c-2.7,5.1-4.3,10.9-4.3,17c0,6.1,1.6,12,4.3,17c0.1,0.2,0.2,0.3,0.3,0.5
		c0.5,0.8,1,1.6,1.5,2.4c0,0.1,0.1,0.1,0.1,0.2c0.3,0.4,0.6,0.8,0.9,1.2c0.1,0.1,0.2,0.2,0.2,0.3c1,1.3,2,2.5,3.2,3.6
		c0.1,0.1,0.1,0.1,0.2,0.2c0.4,0.4,0.8,0.8,1.2,1.1c0.8,0.8,1.7,1.5,2.6,2.1c0,0,0,0,0.1,0c0.4,0.3,0.8,0.6,1.2,0.9
		c0.1,0.1,0.3,0.2,0.4,0.3c1.2,0.8,2.5,1.6,3.9,2.2c0.2,0.1,0.5,0.2,0.7,0.4c0.4,0.2,0.7,0.3,1.1,0.5c0.3,0.1,0.7,0.3,1,0.4
		c0.5,0.2,1,0.4,1.5,0.5c0.4,0.1,0.9,0.3,1.3,0.4c0.3,0.1,0.6,0.2,0.9,0.3c0.5,0.1,0.9,0.2,1.4,0.3c0.2,0.1,0.5,0.1,0.7,0.2
		c0.7,0.1,1.4,0.3,2.1,0.4c0.2,0,0.4,0,0.6,0.1c0.6,0.1,1.1,0.1,1.7,0.2c0.2,0,0.4,0,0.7,0.1c0.8,0,1.5,0.1,2.3,0.1s1.5,0,2.3-0.1
		c0.2,0,0.4,0,0.7-0.1c0.6,0,1.2-0.1,1.7-0.2c0.2,0,0.4,0,0.6-0.1c0.7-0.1,1.4-0.2,2.1-0.4c0.2-0.1,0.5-0.1,0.7-0.2
		c0.5-0.1,0.9-0.2,1.4-0.3c0.3-0.1,0.6-0.2,0.9-0.3c0.4-0.1,0.9-0.3,1.3-0.4c0.5-0.2,1-0.4,1.5-0.5c0.3-0.1,0.7-0.3,1-0.4
		c0.4-0.2,0.7-0.3,1.1-0.5c0.2-0.1,0.5-0.2,0.7-0.4c1.3-0.7,2.6-1.4,3.9-2.2c0.1-0.1,0.3-0.2,0.4-0.3c0.4-0.3,0.8-0.6,1.2-0.9
		c0,0,0,0,0.1,0c0.9-0.7,1.8-1.4,2.6-2.1c0.4-0.4,0.8-0.7,1.2-1.1c0.1-0.1,0.1-0.1,0.2-0.2c1.1-1.1,2.2-2.4,3.2-3.6
		c0.1-0.1,0.2-0.2,0.2-0.3c0.3-0.4,0.6-0.8,0.9-1.2c0-0.1,0.1-0.1,0.1-0.2c0.5-0.8,1-1.6,1.5-2.4c0.1-0.2,0.2-0.3,0.3-0.5
		c2.7-5.1,4.3-10.9,4.3-17c0-6.1-1.6-12-4.3-17C403.6,566.8,403.5,566.6,403.4,566.5z"/>
</g>
</svg>
