<?xml version="1.0" encoding="UTF-8"?>
<svg width="1024px" height="1024px" viewBox="0 0 1024 1024" version="1.1" xmlns="http://www.w3.org/2000/svg" xmlns:xlink="http://www.w3.org/1999/xlink">
    <!-- Generator: Sketch 50.2 (55047) - http://www.bohemiancoding.com/sketch -->
    <title>contacts-fill</title>
    <desc>Created with Sketch.</desc>
    <defs></defs>
    <g id="contacts-fill" stroke="none" stroke-width="1" fill="none" fill-rule="evenodd">
        <g transform="translate(64.000000, 160.000000)" fill="#000000" fill-rule="nonzero" id="Combined-Shape">
            <path d="M864,64 L704,64 L704,8 C704,3.6 700.4,0 696,0 L640,0 C635.6,0 632,3.6 632,8 L632,64 L484,64 L484,8 C484,3.6 480.4,0 476,0 L420,0 C415.6,0 412,3.6 412,8 L412,64 L264,64 L264,8 C264,3.6 260.4,0 256,0 L200,0 C195.6,0 192,3.6 192,8 L192,64 L32,64 C14.3,64 0,78.3 0,96 L0,672 C0,689.7 14.3,704 32,704 L864,704 C881.7,704 896,689.7 896,672 L896,96 C896,78.3 881.7,64 864,64 Z M597,576 L553.1,576 C548.9,576 545.5,572.7 545.2,568.5 C541.4,517.9 499.2,478 448,478 C396.8,478 354.6,518 350.8,568.5 C350.5,572.7 347.1,576 342.9,576 L299,576 C294.4,576 290.8,572.2 291,567.6 C293.8,514.3 323,467.9 365.6,441.5 C347.5,421.6 336.5,395.1 336.5,366 C336.5,304.1 386.4,254 447.9,254 C509.4,254 559.3,304.1 559.3,366 C559.3,395.1 548.3,421.5 530.2,441.5 C572.9,468 602,514.3 604.8,567.6 C605.2,572.2 601.6,576 597,576 Z M448,314 C419.5,314 396.3,337.3 396.3,366 C396.3,394.7 419.5,418 448,418 C476.5,418 499.7,394.7 499.7,366 C499.7,337.3 476.5,314 448,314 Z"></path>
        </g>
    </g>
</svg>