<?xml version="1.0" encoding="utf-8"?>
<!-- Generator: Adobe Illustrator 21.0.0, SVG Export Plug-In . SVG Version: 6.00 Build 0)  -->
<svg version="1.1" id="图层_1" xmlns="http://www.w3.org/2000/svg" xmlns:xlink="http://www.w3.org/1999/xlink" x="0px" y="0px"
	 viewBox="0 0 1024 1024" style="enable-background:new 0 0 1024 1024;" xml:space="preserve">
<style type="text/css">
	.st0{fill:none;}
</style>
<title>contacts</title>
<desc>Created with Sketch.</desc>
<g>
	<path class="st0" d="M512,474c-28.5,0-51.7,23.3-51.7,52c0,28.7,23.2,52,51.7,52s51.7-23.3,51.7-52C563.7,497.3,540.5,474,512,474z
		"/>
	<path class="st0" d="M768,352c0,4.4-3.6,8-8,8h-56c-4.4,0-8-3.6-8-8v-56H548v56c0,4.4-3.6,8-8,8h-56c-4.4,0-8-3.6-8-8v-56H328v56
		c0,4.4-3.6,8-8,8h-56c-4.4,0-8-3.6-8-8v-56H136v496h752V296H768V352z M661,736h-43.9c-4.2,0-7.6-3.3-7.9-7.5
		c-3.8-50.6-46-90.5-97.2-90.5s-93.4,40-97.2,90.5c-0.3,4.2-3.7,7.5-7.9,7.5H363c-4.6,0-8.2-3.8-8-8.4c2.8-53.3,32-99.7,74.6-126.1
		c-18.1-19.9-29.1-46.4-29.1-75.5c0-61.9,49.9-112,111.4-112s111.4,50.1,111.4,112c0,29.1-11,55.5-29.1,75.5
		c42.7,26.5,71.8,72.8,74.6,126.1C669.2,732.2,665.6,736,661,736z"/>
	<path d="M594.3,601.5c18.1-19.9,29.1-46.4,29.1-75.5c0-61.9-49.9-112-111.4-112s-111.4,50.1-111.4,112c0,29.1,11,55.5,29.1,75.5
		c-42.7,26.5-71.8,72.8-74.6,126.1c-0.2,4.6,3.4,8.4,8,8.4h43.9c4.2,0,7.6-3.3,7.9-7.5c3.8-50.6,46-90.5,97.2-90.5
		s93.4,40,97.2,90.5c0.3,4.2,3.7,7.5,7.9,7.5H661c4.6,0,8.2-3.8,8-8.4C666.2,674.3,637,627.9,594.3,601.5z M512,578
		c-28.5,0-51.7-23.3-51.7-52c0-28.7,23.2-52,51.7-52s51.7,23.3,51.7,52C563.7,554.7,540.5,578,512,578z"/>
	<path d="M928,224H768v-56c0-4.4-3.6-8-8-8h-56c-4.4,0-8,3.6-8,8v56H548v-56c0-4.4-3.6-8-8-8h-56c-4.4,0-8,3.6-8,8v56H328v-56
		c0-4.4-3.6-8-8-8h-56c-4.4,0-8,3.6-8,8v56H96c-17.7,0-32,14.3-32,32v576c0,17.7,14.3,32,32,32h832c17.7,0,32-14.3,32-32V256
		C960,238.3,945.7,224,928,224z M888,792H136V296h120v56c0,4.4,3.6,8,8,8h56c4.4,0,8-3.6,8-8v-56h148v56c0,4.4,3.6,8,8,8h56
		c4.4,0,8-3.6,8-8v-56h148v56c0,4.4,3.6,8,8,8h56c4.4,0,8-3.6,8-8v-56h120V792z"/>
</g>
</svg>
