<?xml version="1.0" encoding="utf-8"?>
<!-- Generator: Adobe Illustrator 21.0.0, SVG Export Plug-In . SVG Version: 6.00 Build 0)  -->
<svg version="1.1" id="图层_1" xmlns="http://www.w3.org/2000/svg" xmlns:xlink="http://www.w3.org/1999/xlink" x="0px" y="0px"
	 viewBox="0 0 1024 1024" style="enable-background:new 0 0 1024 1024;" xml:space="preserve">
<style type="text/css">
	.st0{fill:none;}
</style>
<title>copyright-circle-fill</title>
<desc>Created with Sketch.</desc>
<g>
	<path class="st0" d="M675.4,587.9h-56.8c-4.2,0-7.6,3.2-8,7.3c-4.3,46.1-40.2,77.8-93,77.8c-65.2,0-102.1-47.9-102.1-133.6v-52.6
		c0-87,36.8-135.5,102.1-135.5c53,0,89,33.9,93,83.4c0.4,4.2,3.8,7.4,8,7.4h56.7c2.6,0,4.7-2.1,4.7-4.7
		c0-86.7-68.4-147.4-162.7-147.4C407.4,290,344,364.2,344,486.8v52.3C344,660.8,407.4,734,517.4,734c94,0,162.7-58.8,162.7-141.4
		C680.1,590,678,587.9,675.4,587.9z"/>
	<path d="M512,64C264.6,64,64,264.6,64,512s200.6,448,448,448s448-200.6,448-448S759.4,64,512,64z M517.4,734
		c-110,0-173.4-73.2-173.4-194.9v-52.3C344,364.2,407.4,290,517.3,290c94.3,0,162.7,60.7,162.7,147.4c0,2.6-2.1,4.7-4.7,4.7h-56.7
		c-4.2,0-7.6-3.2-8-7.4c-4-49.5-40-83.4-93-83.4c-65.3,0-102.1,48.5-102.1,135.5v52.6c0,85.7,36.9,133.6,102.1,133.6
		c52.8,0,88.7-31.7,93-77.8c0.4-4.1,3.8-7.3,8-7.3h56.8c2.6,0,4.7,2.1,4.7,4.7C680.1,675.2,611.4,734,517.4,734z"/>
</g>
</svg>
