<?xml version="1.0" encoding="utf-8"?>
<svg id="copy" viewBox="0 0 1024 1024" version="1.1" xmlns="http://www.w3.org/2000/svg" xmlns:xlink="http://www.w3.org/1999/xlink">
  <path d="M874.6 237.8L660.8 21.3c-4.5-4.5-9.4-8.3-14.7-11.5-1.4-0.8-2.8-1.6-4.3-2.3-0.9-0.5-1.9-0.9-2.8-1.3-9-4-18.9-6.2-29-6.2H329c-39.8 0-73 32.2-73 72v56h-55.5c-39.8 0-72.5 32.6-72.5 72.4v752c0 39.8 32.7 71.6 72.5 71.6h495c39.8 0 71.5-31.8 71.5-71.6V896h57c39.8 0 71-32.2 71-72V288.5c0-19-7-37.2-20.4-50.7zM647 110.4L783.8 248H647V110.4zM695 952H200V200h56v624c0 39.8 33.2 72 73 72h366v56z m128-128H328V72h247v176c0 39.8 33.2 72 73 72h175v504zM640 420c0-19.9-16.1-36-36-36H420c-19.9 0-36 16.1-36 36s16.1 36 36 36h184c19.9 0 36-16.1 36-36zM768 548c0-19.9-16.1-36-36-36H420c-19.9 0-36 16.1-36 36s16.1 36 36 36h312c19.9 0 36-16.1 36-36zM704 676c0-19.9-16.1-36-36-36H420c-19.9 0-36 16.1-36 36s16.1 36 36 36h248c19.9 0 36-16.1 36-36z"></path>
</svg>