<?xml version="1.0" encoding="utf-8"?>
<svg id="credit-card" viewBox="0 0 1024 1024" version="1.1" xmlns="http://www.w3.org/2000/svg" xmlns:xlink="http://www.w3.org/1999/xlink">
  <path d="M951.9 129.5 72 129.5c-39.8 0-72 32.2-72 72L0 322l0 96 0 404.6c0 39.8 32.2 72 72 72l880 0c39.8 0 72-32.2 72-72L1024 418l0-96L1024 201.5C1023.9 161.7 991.6 129.5 951.9 129.5zM951.9 822.6 72 822.6 72 418l879.9 0L951.9 822.6zM72 322 72 201.5l879.9 0L951.9 322 72 322z"></path>
  <path d="M237 704 237 704c24.3 0 44-19.7 44-44l0 0c0-24.3-19.7-44-44-44l0 0c-24.3 0-44 19.7-44 44l0 0C193 684.3 212.7 704 237 704z"></path>
  <path d="M403.5 704 403.5 704c24.3 0 44-19.7 44-44l0 0c0-24.3-19.7-44-44-44l0 0c-24.3 0-44 19.7-44 44l0 0C359.5 684.3 379.2 704 403.5 704z"></path>
</svg>