<?xml version="1.0" encoding="utf-8"?>
<svg id="cross" viewBox="0 0 1024 1024" version="1.1" xmlns="http://www.w3.org/2000/svg" xmlns:xlink="http://www.w3.org/1999/xlink">
  <path d="M567.7 514.9l254.8-254.6c15.4-15.4 15.4-40.3 0-55.6-15.4-15.4-40.3-15.4-55.6 0L512 459.2 257.1 204.6c-15.4-15.4-40.3-15.4-55.6 0-15.4 15.4-15.4 40.3 0 55.6l254.8 254.6L201.5 769.5c-15.4 15.4-15.4 40.3 0 55.6 7.7 7.7 17.8 11.5 27.8 11.5 10.1 0 20.1-3.8 27.8-11.5L512 570.5l254.9 254.7c7.7 7.7 17.7 11.5 27.8 11.5 10.1 0 20.1-3.8 27.8-11.5 15.4-15.4 15.4-40.3 0-55.6L567.7 514.9z"></path>
</svg>