<?xml version="1.0" encoding="utf-8"?>
<svg id="cross-circle" viewBox="0 0 1024 1024" version="1.1" xmlns="http://www.w3.org/2000/svg" xmlns:xlink="http://www.w3.org/1999/xlink">
  <path d="M512 0C229.2 0 0 229.2 0 512s229.2 512 512 512 512-229.2 512-512S794.8 0 512 0zM717.3 666.9c14 14.1 14 36.9-0.1 50.9-7 7-16.2 10.5-25.4 10.5-9.2 0-18.5-3.5-25.5-10.6L512 563 357.7 717.7c-7 7.1-16.3 10.6-25.5 10.6-9.2 0-18.4-3.5-25.4-10.5-14.1-14-14.1-36.8-0.1-50.9L461.2 512 306.7 357.1c-14-14.1-14-36.9 0.1-50.9 14.1-14 36.9-14 50.9 0.1L512 461l154.3-154.8c14-14.1 36.8-14.1 50.9-0.1 14.1 14 14.1 36.8 0.1 50.9L562.8 512 717.3 666.9z"></path>
</svg>