<?xml version="1.0" encoding="utf-8"?>
<!-- Generator: Adobe Illustrator 21.0.0, SVG Export Plug-In . SVG Version: 6.00 Build 0)  -->
<svg version="1.1" id="图层_1" xmlns="http://www.w3.org/2000/svg" xmlns:xlink="http://www.w3.org/1999/xlink" x="0px" y="0px"
	 viewBox="0 0 1024 1024" style="enable-background:new 0 0 1024 1024;" xml:space="preserve">
<title>customerservice-fill</title>
<desc>Created with Sketch.</desc>
<path d="M512,128c-212.1,0-384,171.9-384,384v48v312c0,13.3,10.7,24,24,24h184c35.3,0,64-28.7,64-64V624c0-35.3-28.7-64-64-64H200
	v-48c0-172.3,139.7-312,312-312s312,139.7,312,312v48H688c-35.3,0-64,28.7-64,64v208c0,35.3,28.7,64,64,64h184c13.3,0,24-10.7,24-24
	V560v-48C896,299.9,724.1,128,512,128z"/>
</svg>
