<?xml version="1.0" encoding="utf-8"?>
<svg id="customer-service" viewBox="0 0 1024 1024" version="1.1" xmlns="http://www.w3.org/2000/svg" xmlns:xlink="http://www.w3.org/1999/xlink">
  <path d="M838 317.2c-4.3-17.9-10.2-35.4-17.5-52.2-17-39.2-41.3-74.4-72.4-104.7-30.9-30.1-67-53.8-107.1-70.4-41.6-17.1-85.7-25.8-131-25.8-45.2 0-89.3 8.7-130.9 25.8-40.1 16.5-76.1 40.2-107.1 70.4-31 30.2-55.4 65.4-72.4 104.7-7.4 17-13.4 35-17.9 53.5-15.8 5.3-30.7 13-44.4 22.8-14.8 10.6-27.8 23.4-38.6 38.1C76 409.9 64 446.3 64 484.6c0 46.5 18.2 90.4 51.3 123.6 24.3 24.3 54.5 40.8 87.1 47.6 2.4 0.5 4.9 0.8 7.4 0.8 9.4 0 18.6-3.8 25.2-10.6 6.7-6.7 10.3-15.7 10.2-25.2l-1.5-227.1c0-68.9 27.6-133.7 77.6-182.5 50.4-49.1 117.4-76.1 188.6-76.1 71.2 0 138.2 27 188.6 76 50 48.8 77.6 113.6 77.6 182.5l0 236.8c0 68.9-27.6 133.7-77.6 182.5-21.2 20.7-45.3 37.5-71.8 50 1.2-7.2 1.7-14.5 1.6-21.9-0.7-29.9-12.7-58.1-33.9-79.4-21.2-21.3-49.3-33.5-79.2-34.3-1 0-2 0-3 0-31 0-60.2 12.1-82.2 34.1-22 22-34.1 51.2-34.1 82.2 0 30.6 11.8 59.6 33.4 81.5 21.5 21.9 50.1 34.2 80.7 34.8 0.1 0 0.1 0 0.2 0l1.4 0 0.7 0 1.8 0 0.7 0 0.3 0c0 0 0.1 0 0.1 0 43.7-0.6 86.1-9.3 125.9-25.8 40.1-16.5 76.1-40.2 107.1-70.4 31-30.2 55.4-65.4 72.4-104.7 15.2-35.1 24-72.3 26.2-110.7 23.2-8.7 44.1-22.3 62-40.3 33.1-33.1 51.3-77 51.3-123.5C960 407.3 910.1 339.2 838 317.2zM81.7 540.7c0.9 2.5 1.9 5.1 2.9 7.6C83.6 545.8 82.6 543.3 81.7 540.7zM91.6 562.9c1.7 3.1 3.5 6.2 5.3 9.2C95.1 569.1 93.3 566.1 91.6 562.9zM159.9 563.6c-1-1-2-2-2.9-3C157.9 561.6 158.9 562.6 159.9 563.6c0.8 0.8 1.6 1.6 2.4 2.4C161.5 565.2 160.7 564.4 159.9 563.6zM172.8 564.5c-2.5-2.1-4.9-4.3-7.2-6.6-19.7-19.7-30.6-45.8-30.6-73.3 0-18.5 4.8-36.7 13.8-52.6 6.2-11 14.4-20.7 24-28.6L172.8 564.5zM180.8 580.1c-0.9-0.6-1.9-1.2-2.8-1.8C178.9 579 179.9 579.6 180.8 580.1L180.8 580.1zM188.4 324.7 188.4 324.7c1-4.3 2.1-8.6 3.2-12.9C190.4 316.1 189.3 320.4 188.4 324.7zM204.1 647.9c-3.4-0.7-6.7-1.5-10-2.4C197.4 646.3 200.7 647.2 204.1 647.9c0.5 0.1 1 0.2 1.5 0.3C205.1 648.1 204.6 648 204.1 647.9zM209.8 648.5c-0.2 0-0.4 0-0.5 0 0.3 0 0.6 0 0.9 0C210.1 648.5 209.9 648.5 209.8 648.5zM237.2 622.3c0-0.5 0-1 0-1.5l-1.5-227.1 1.5 227.1C237.3 621.3 237.3 621.8 237.2 622.3zM307.2 140.3c3.3-2.5 6.6-5 10-7.3C313.9 135.3 310.5 137.7 307.2 140.3zM382.1 97.3c-20.4 8.4-39.7 18.7-57.8 30.8C342.4 116 361.7 105.7 382.1 97.3c1.5-0.6 3.1-1.2 4.6-1.8C385.1 96 383.6 96.6 382.1 97.3zM441.5 135.4c2.6-0.6 5.2-1.3 7.8-1.8C446.8 134.2 444.1 134.8 441.5 135.4zM742.5 166c-30.2-29.5-65.5-52.6-104.6-68.7-1.5-0.6-3.1-1.2-4.6-1.8 1.5 0.6 3.1 1.2 4.6 1.8C677 113.4 712.2 136.5 742.5 166c1.9 1.8 3.8 3.7 5.6 5.6C746.2 169.7 744.4 167.9 742.5 166zM754 177.8c3.2 3.4 6.3 6.9 9.3 10.4C760.3 184.7 757.2 181.2 754 177.8zM764.8 190.1c2.7 3.2 5.3 6.5 7.9 9.8C770.2 196.6 767.5 193.3 764.8 190.1zM403.8 843.6 403.8 843.6c0-0.9 0-1.9 0-2.8C403.8 841.8 403.8 842.7 403.8 843.6zM512.1 735.3c0.9 0 1.9 0 2.8 0C514 735.3 513 735.3 512.1 735.3 512.1 735.3 512.1 735.3 512.1 735.3zM544.5 875.3c-8.2 8.4-19.1 13.3-30.8 13.7l-2.2 0c-24.6-0.3-44.7-20.6-44.7-45.3 0-25 20.3-45.3 45.3-45.3 25 0 45.3 20.3 45.3 45.3C557.3 855.5 552.8 866.8 544.5 875.3zM564.8 851.7c0.4-2.6 0.6-5.3 0.6-8 0-0.9 0-1.8-0.1-2.7 0 0.9 0.1 1.8 0.1 2.7C565.4 846.4 565.2 849.1 564.8 851.7zM615.1 876.7c0.3-1 0.6-2 0.9-3C615.7 874.7 615.4 875.7 615.1 876.7c1.5-0.6 3.1-1.3 4.6-1.9C618.2 875.5 616.7 876.1 615.1 876.7zM742.5 858c-2 2-4.1 3.9-6.1 5.8C738.4 861.9 740.5 859.9 742.5 858c1.9-1.8 3.8-3.7 5.6-5.6C746.2 854.3 744.4 856.1 742.5 858zM784.1 630.4c0 4.4-0.1 8.7-0.3 13.1C784 639.1 784.1 634.8 784.1 630.4l0-236.8c0-1.9 0-3.9-0.1-5.8 0 1.9 0.1 3.9 0.1 5.8L784.1 630.4zM813.1 755.8c-2.1 4.8-4.3 9.5-6.6 14.2C808.9 765.3 811.1 760.6 813.1 755.8c0.7-1.7 1.5-3.4 2.2-5.1C814.6 752.4 813.9 754.1 813.1 755.8zM813.1 268.2c-2.1-4.8-4.3-9.5-6.6-14.2C808.9 258.7 811.1 263.4 813.1 268.2c1 2.2 1.9 4.5 2.8 6.8C815.1 272.7 814.1 270.4 813.1 268.2zM831.3 323.5c-0.5-2.1-1-4.1-1.5-6.1C830.3 319.4 830.8 321.5 831.3 323.5L831.3 323.5zM839.1 385.6c4 2.2 7.9 4.6 11.6 7.3C847 390.2 843.1 387.8 839.1 385.6 839.1 385.6 839.1 385.6 839.1 385.6zM864.1 563.6c-7.6 7.6-16 13.9-24.9 18.9l0 0C848.1 577.5 856.5 571.1 864.1 563.6c0.5-0.5 0.9-1 1.4-1.4C865 562.6 864.6 563.1 864.1 563.6zM858.4 557.9c-3.6 3.6-7.3 6.8-11.3 9.8L847.1 400.2c10.7 8 19.9 18.1 26.9 29.9 9.8 16.4 14.9 35.2 14.9 54.5C889 512.2 878.1 538.2 858.4 557.9zM945 436.1c-0.7-2.2-1.3-4.4-2.1-6.5C943.6 431.7 944.3 433.9 945 436.1zM935.2 410.8c1 2 1.9 4.1 2.8 6.1C937.1 414.8 936.1 412.8 935.2 410.8zM942.6 539.6c0.8-2.2 1.5-4.5 2.2-6.7C944.2 535.2 943.4 537.4 942.6 539.6z"></path>
</svg>