<?xml version="1.0" encoding="utf-8"?>

<svg id="dashboard" viewBox="0 0 1024 1024">
  <path d="M512 48C229.2 48 0 277.2 0 560c0 167.5 80.4 316.2 204.8 409.6l0.1-0.2c6.1 4.7 13.8 7.6 22.1 7.6 19.9 0 36-16.1 36-36 0-13.2-7.1-24.7-17.7-31-37.8-28.8-70.8-63.7-97.5-103.1l44.2-25.5c15.3-8.8 20.5-28.4 11.7-43.7-8.8-15.3-28.4-20.5-43.7-11.7l-44.2 25.5C92.1 702.7 77.2 648.8 73.2 592H124c17.7 0 32-14.3 32-32s-14.3-32-32-32H73.2c4.1-57 19.1-111 42.8-160l44 25.4c15.3 8.8 34.9 3.6 43.7-11.7 8.8-15.3 3.6-34.9-11.7-43.7l-43.9-25.3c31.2-45.8 70.8-85.4 116.6-116.6L290 240c8.8 15.3 28.4 20.5 43.7 11.7 15.3-8.8 20.5-28.4 11.7-43.7L320 164c48.9-23.8 102.9-38.7 160-42.8V172c0 17.7 14.3 32 32 32s32-14.3 32-32v-50.8c56.8 4.1 110.7 19 159.5 42.6L678 208c-8.8 15.3-3.6 34.9 11.7 43.7 15.3 8.8 34.9 3.6 43.7-11.7l25.5-44.2c46 31.2 85.7 70.9 117 116.9L832 338c-15.3 8.8-20.5 28.4-11.7 43.7 8.8 15.3 28.4 20.5 43.7 11.7l44-25.4c23.8 48.9 38.7 103 42.8 160H900c-17.7 0-32 14.3-32 32s14.3 32 32 32h50.8c-4.1 56.9-19 110.7-42.6 159.5L864 726c-15.3-8.8-34.9-3.6-43.7 11.7-8.8 15.3-3.6 34.9 11.7 43.7l44.2 25.5C848.8 847.3 814.9 882.8 776 912l0.2 0.3c-8.7 6.6-14.2 17-14.2 28.7 0 19.9 16.1 36 36 36 10 0 19.1-4.1 25.7-10.8C945.5 872.7 1024 725.5 1024 560c0-282.8-229.2-512-512-512z"></path>
  <path d="M669.6 396.8L543.9 495c-9.6-4.8-20.5-7.4-31.9-7.4-39.8 0-72 32.2-72 72s32.2 72 72 72 72-32.2 72-72c0-4.7-0.4-9.2-1.3-13.6L709 447.2c13.9-10.9 16.4-31 5.5-44.9-10.9-13.9-31-16.4-44.9-5.5z"></path>
</svg>