<?xml version="1.0" encoding="utf-8"?>

<svg id="database" viewBox="0 0 1024 1024">
  <path d="M824 0H200c-39.8 0-72 32.2-72 72v880c0 39.8 32.2 72 72 72h624c39.8 0 72-32.2 72-72V72c0-39.8-32.2-72-72-72z m0 943H200V699c0 0.5 0.4 1 1 1h622c0.5 0 1-0.4 1-1v244z m0-314c0-0.5-0.4-1-1-1H201c-0.5 0-1 0.4-1 1V385c0 0.5 0.4 1 1 1h622c0.5 0 1-0.4 1-1v244z m0-314c0-0.5-0.4-1-1-1H201c-0.5 0-1 0.4-1 1V72h624v243z"></path>
  <path d="M321 821m-36 0a36 36 0 1 0 72 0 36 36 0 1 0-72 0Z"></path>
  <path d="M321 507m-36 0a36 36 0 1 0 72 0 36 36 0 1 0-72 0Z"></path>
  <path d="M321 193m-36 0a36 36 0 1 0 72 0 36 36 0 1 0-72 0Z"></path>
</svg>