<?xml version="1.0" encoding="utf-8"?>
<!-- Generator: Adobe Illustrator 21.0.0, SVG Export Plug-In . SVG Version: 6.00 Build 0)  -->
<svg version="1.1" id="图层_1" xmlns="http://www.w3.org/2000/svg" xmlns:xlink="http://www.w3.org/1999/xlink" x="0px" y="0px"
	 viewBox="0 0 1024 1024" style="enable-background:new 0 0 1024 1024;" xml:space="preserve">
<style type="text/css">
	.st0{fill:none;}
</style>
<title>delete user</title>
<desc>Created with Sketch.</desc>
<g>
	<path class="st0" d="M633.5,240.4C601.1,207.9,558,190,512.2,190s-88.9,17.9-121.4,50.4s-50.3,75.7-50.3,121.6
		c0,45.9,17.9,89.1,50.3,121.6c32.4,32.5,75.5,50.4,121.4,50.4s88.9-17.9,121.4-50.4c32.4-32.5,50.3-75.7,50.3-121.6
		C683.8,316.1,666,272.9,633.5,240.4z"/>
	<path d="M678.3,655.4c24.2-13,51.9-20.4,81.4-20.4h0.1c3,0,4.4-3.6,2.2-5.6c-30.8-27.6-65.6-49.7-103.7-65.8
		c-0.4-0.2-0.8-0.3-1.2-0.5C719.2,518,759.6,444.7,759.6,362c0-137-110.8-248-247.5-248S264.7,225,264.7,362
		c0,82.7,40.4,156,102.6,201.1c-0.4,0.2-0.8,0.3-1.2,0.5c-44.7,18.9-84.8,46-119.3,80.6c-34.5,34.5-61.5,74.7-80.4,119.5
		C147.9,807.5,138,854,137,901.8c-0.1,4.5,3.5,8.2,8,8.2h59.9c4.3,0,7.9-3.5,8-7.8c2-77.2,32.9-149.5,87.6-204.3
		C357,641.2,432.2,610,512.2,610c56.7,0,111.1,15.7,158,45.1C672.7,656.6,675.7,656.8,678.3,655.4z M512.2,534
		c-45.8,0-88.9-17.9-121.4-50.4c-32.4-32.5-50.3-75.7-50.3-121.6c0-45.9,17.9-89.1,50.3-121.6S466.3,190,512.2,190
		s88.9,17.9,121.4,50.4c32.4,32.5,50.3,75.7,50.3,121.6c0,45.9-17.9,89.1-50.3,121.6C601.1,516.1,558,534,512.2,534z"/>
	<path d="M880,772H640c-4.4,0-8,3.6-8,8v56c0,4.4,3.6,8,8,8h240c4.4,0,8-3.6,8-8v-56C888,775.6,884.4,772,880,772z"/>
</g>
</svg>
