<?xml version="1.0" encoding="utf-8"?>

<svg id="delete" viewBox="0 0 1024 1024">
  <path d="M178.085938 945.957031c-1.09375-0.390625-2.207031-0.898437-3.300781-1.40625C175.996094 945.058594 176.992188 945.566406 178.085938 945.957031zM169.511719 941.875c-1.503906-0.898437-2.988281-1.796875-4.394531-2.792969C166.503906 940.078125 168.007813 940.976563 169.511719 941.875zM950.390625 203.4375c-6.796875-6.796875-16.679688-10.585938-26.269531-10.585938l-184.375 0L739.746094 135.410156c0-38.847656-31.5625-70.410156-70.410156-70.410156l-314.726563 0c-38.847656 0-70.410156 31.5625-70.410156 70.410156l0 57.441406L98.886719 192.851563c-19.667969 0-35.761719 15.976563-35.761719 35.761719s15.976563 35.761719 35.761719 35.761719l31.5625 0 0 622.363281c0 38.847656 31.5625 70.410156 70.410156 70.410156l632.265625 0c38.847656 0 70.410156-31.5625 70.410156-70.410156L903.535156 264.375l20.566406 0c19.667969 0 36.757813-15.976563 36.757813-35.761719C960.878906 219.121094 957.1875 210.234375 950.390625 203.4375zM354.492188 135.625l314.53125 0 0 57.832031L354.492188 193.457031 354.492188 135.625zM833.027344 886.640625 200.859375 886.640625l0-622.265625 91.09375 0 541.054688 0L833.007813 886.640625zM511.503906 384.21875c-19.882813 0-35.957031 16.074219-35.957031 35.957031l0 333.613281c0 19.882813 16.074219 35.957031 35.957031 35.957031s35.957031-16.074219 35.957031-35.957031L547.460938 420.175781C547.460938 400.3125 531.386719 384.21875 511.503906 384.21875zM316.738281 384.21875c-19.882813 0-35.957031 16.074219-35.957031 35.957031l0 333.613281c0 19.882813 16.074219 35.957031 35.957031 35.957031s35.957031-16.074219 35.957031-35.957031L352.695313 420.175781C352.695313 400.3125 336.601563 384.21875 316.738281 384.21875zM704.277344 384.21875c-19.882813 0-35.957031 16.074219-35.957031 35.957031l0 333.613281c0 19.882813 16.074219 35.957031 35.957031 35.957031s35.957031-16.074219 35.957031-35.957031L740.234375 420.175781C740.234375 400.3125 724.160156 384.21875 704.277344 384.21875z"></path>
</svg>