<?xml version="1.0" encoding="utf-8"?>
<svg id="dingding-o" viewBox="0 0 1024 1024" version="1.1" xmlns="http://www.w3.org/2000/svg" xmlns:xlink="http://www.w3.org/1999/xlink">
  <path d="M512 0C229.2 0 0 229.2 0 512s229.2 512 512 512 512-229.2 512-512S794.8 0 512 0z m237.3 480.8c-1.1 4.5-3.7 11.1-7.4 19h0.1l-0.4 0.7c-21.5 46-77.6 136.1-77.6 136.1l-0.3-0.6-16.4 28.5h79L575.4 865.4l34.3-136.5h-62.2l21.6-90.3c-17.5 4.2-38.1 10-62.6 17.9 0 0-33.1 19.4-95.3-37.3 0 0-42-37-17.6-46.2 10.4-3.9 50.3-8.9 81.7-13.2 42.4-5.7 68.5-8.8 68.5-8.8S413 553 382 548.1s-70.4-56.7-78.8-102.2c0 0-13-25 27.9-13.2s210 46.1 210 46.1-220-67.4-234.6-83.9c-14.6-16.5-43.1-89.8-39.4-134.9 0 0 1.6-11.2 13.1-8.2 0 0 162.6 74.3 273.8 115 111.1 40.7 207.8 61.4 195.3 114z"></path>
</svg>