<?xml version="1.0" encoding="utf-8"?>
<!-- Generator: Adobe Illustrator 21.0.0, SVG Export Plug-In . SVG Version: 6.00 Build 0)  -->
<svg version="1.1" id="图层_1" xmlns="http://www.w3.org/2000/svg" xmlns:xlink="http://www.w3.org/1999/xlink" x="0px" y="0px"
	 viewBox="0 0 1024 1024" style="enable-background:new 0 0 1024 1024;" xml:space="preserve">
<title>dingtalk</title>
<desc>Created with Sketch.</desc>
<path d="M573.7,252.5C422.5,197.4,201.3,96.7,201.3,96.7c-15.7-4.1-17.9,11.1-17.9,11.1c-5,61.1,33.6,160.5,53.6,182.8
	c19.9,22.3,319.1,113.7,319.1,113.7s-230.1-46.4-285.6-62.4c-55.6-16-37.9,17.8-37.9,17.8c11.4,61.7,64.9,131.8,107.2,138.4
	c42.2,6.6,220.1,4,220.1,4s-35.5,4.1-93.2,11.9c-42.7,5.8-97,12.5-111.1,17.8c-33.1,12.5,24,62.6,24,62.6
	c84.7,76.8,129.7,50.5,129.7,50.5c33.3-10.7,61.4-18.5,85.2-24.2L565,743.1h84.6L603,928l205.3-271.9H700.8l22.3-38.7
	c0.3,0.5,0.4,0.8,0.4,0.8S799.8,496.1,829,433.8l0.6-1h-0.1c5-10.8,8.6-19.7,10-25.8C856.5,335.7,725,307.6,573.7,252.5z"/>
</svg>
