<?xml version="1.0" encoding="utf-8"?>

<svg id="dingding" viewBox="0 0 1024 1024">
  <path d="M912.9 382.8c-1.8 7.5-6.1 18.5-12.3 31.7h0.1l-0.7 1.2c-35.8 76.7-129.2 227-129.2 227s-0.1-0.4-0.5-0.9L743 689.4h131.5L623.4 1024l57-227.6H576.9l36-150.5c-29.1 7-63.5 16.7-104.2 29.8 0 0-55.1 32.3-158.7-62.2 0 0-69.9-61.7-29.4-77.1 17.2-6.6 83.7-14.9 136-21.9 70.6-9.6 114.1-14.6 114.1-14.6s-217.8 3.3-269.5-4.9C249.5 486.9 184 400.5 170 324.6c0 0-21.6-41.7 46.4-21.9S566 379.4 566 379.4 199.8 266.9 175.4 239.5C151 212.1 103.7 89.7 109.8 14.6c0 0 2.7-18.7 21.9-13.7 0 0 270.8 123.9 455.9 191.7s346.1 102.3 325.3 190.2z"></path>
</svg>