<?xml version="1.0" encoding="utf-8"?>
<svg id="dislike" viewBox="0 0 1024 1024" version="1.1" xmlns="http://www.w3.org/2000/svg" xmlns:xlink="http://www.w3.org/1999/xlink">
  <path d="M256 504c0 39.8-32.2 72-72 72h-48c-39.8 0-72-32.2-72-72V136c0-39.8 32.2-72 72-72h48c39.8 0 72 32.2 72 72v368zM957.2 549.9c-6.7 26.1-21.1 46.6-47 55.7-13.5 4.4-27.6 6.7-41.8 6.6-75.3 0.6-150.6 0.2-225.9 0.2-9.7 0-10 0.6-8.5 9.9 4.7 27.5 8.6 55.1 14 82.4 7.3 37 8.2 73.8-4.1 109.7-11.1 32.3-23.7 64.2-35.8 96.2-6.8 18.1-18.2 31.3-36.5 38.9-34.5 14.5-68.6 14.2-101.7-3-21.1-11.1-33.5-28.7-32.8-53.8 1-35.4 1.2-70.8 2.7-106.2 0.7-11.4-2.1-22.8-7.8-32.6-27.3-46.9-47.1-83.4-75.6-129.6-5.3-8.5-21.4-24.8-28.3-32.1-20.4-21.5-30.9-35.5-31-59.1-0.1-85.9-0.3-275-0.7-396.8-0.1-39.9 32.2-72.3 72.1-72.2 105.2 0.1 296.3 0.3 390 0.3 22.4 0 44.4 1.4 66 8.4 42.8 14 69.7 47.2 73.1 92 1.3 17 0.5 33.9-5.6 50.3-0.9 2.3 0.6 6.3 2.3 8.6 16.9 22.6 27 47.6 25.2 76.1-0.6 9.8-3.7 19.6-6.7 29.1-1.6 5.1-1.6 8.5 1.9 12.8 16.1 20.2 25.9 43.2 25.1 69.2-0.4 12.3-4.9 24.4-7.2 36.6-0.6 2.9-1 7.2 0.6 9 13.8 15.4 21.5 33.6 25.5 53.7 0.3 0.8 0.8 1.4 1.4 2v28.3c-1 3.1-2 6.2-2.9 9.4z"></path>
</svg>