<?xml version="1.0" encoding="utf-8"?>

<svg id="dotchart" viewBox="0 0 1024 1024">
  <path d="M923 888 135 888 135 99c0-19.9-16.1-36-36-36S63 79.1 63 99l0 825c0 19.9 16.1 36 36 36l824 0c19.9 0 36-16.1 36-36S942.9 888 923 888z"></path>
  <path d="M318.8 636.8m-66 0a66 66 0 1 0 132 0 66 66 0 1 0-132 0Z"></path>
  <path d="M597.5 597m-85.5 0a85.5 85.5 0 1 0 171 0 85.5 85.5 0 1 0-171 0Z"></path>
  <path d="M623.1 381.8m-59.9 0a59.9 59.9 0 1 0 119.8 0 59.9 59.9 0 1 0-119.8 0Z"></path>
  <path d="M850.2 238.6m-45.5 0a45.5 45.5 0 1 0 91 0 45.5 45.5 0 1 0-91 0Z"></path>
  <path d="M862.8 429.9m-33.3 0a33.3 33.3 0 1 0 66.6 0 33.3 33.3 0 1 0-66.6 0Z"></path>
</svg>