<?xml version="1.0" encoding="utf-8"?>

<svg id="doubleleft" viewBox="0 0 1024 1024">
  <path d="M558.9 895.7c-9.6 0-19.3-3.2-27.4-9.6L107.7 545.2c-10.3-8.3-16.3-20.8-16.3-34.1 0-13.2 6-25.8 16.3-34l422-339.1c18.8-15.1 46.3-12.1 61.4 6.7 15.1 18.8 12.1 46.3-6.7 61.4l-379.6 305L586.3 818c18.8 15.1 21.8 42.6 6.7 61.4C584.3 890.1 571.7 895.7 558.9 895.7z"></path>
  <path d="M888.9 895.7c-9.6 0-19.3-3.2-27.4-9.6L437.7 545.2c-10.3-8.3-16.3-20.8-16.3-34.1 0-13.2 6-25.8 16.3-34l422-339.1c18.8-15.1 46.3-12.1 61.4 6.7 15.1 18.8 12.1 46.3-6.7 61.4l-379.6 305L916.3 818c18.8 15.1 21.8 42.6 6.7 61.4C914.3 890.1 901.7 895.7 888.9 895.7z"></path>
</svg>