<?xml version="1.0" encoding="utf-8"?>
<!-- Generator: Adobe Illustrator 21.0.0, SVG Export Plug-In . SVG Version: 6.00 Build 0)  -->
<svg version="1.1" id="图层_1" xmlns="http://www.w3.org/2000/svg" xmlns:xlink="http://www.w3.org/1999/xlink" x="0px" y="0px"
	 viewBox="0 0 1024 1024" style="enable-background:new 0 0 1024 1024;" xml:space="preserve">
<title>doubleleft</title>
<desc>Created with Sketch.</desc>
<g>
	<path d="M272.9,512l265.4-339.1c4.1-5.2,0.4-12.9-6.3-12.9h-77.3c-4.9,0-9.6,2.3-12.6,6.1L186.8,492.3c-9.1,11.6-9.1,27.9,0,39.5
		l255.3,326.1c3,3.9,7.7,6.1,12.6,6.1H532c6.7,0,10.4-7.7,6.3-12.9L272.9,512z"/>
	<path d="M576.9,512l265.4-339.1c4.1-5.2,0.4-12.9-6.3-12.9h-77.3c-4.9,0-9.6,2.3-12.6,6.1L490.8,492.3c-9.1,11.6-9.1,27.9,0,39.5
		l255.3,326.1c3,3.9,7.7,6.1,12.6,6.1H836c6.7,0,10.4-7.7,6.3-12.9L576.9,512z"/>
</g>
</svg>
