<?xml version="1.0" encoding="utf-8"?>
<!-- Generator: Adobe Illustrator 21.0.0, SVG Export Plug-In . SVG Version: 6.00 Build 0)  -->
<svg version="1.1" id="图层_1" xmlns="http://www.w3.org/2000/svg" xmlns:xlink="http://www.w3.org/1999/xlink" x="0px" y="0px"
	 viewBox="0 0 1024 1024" style="enable-background:new 0 0 1024 1024;" xml:space="preserve">
<title>double right</title>
<desc>Created with Sketch.</desc>
<g>
	<path d="M533.2,492.3L277.9,166.1c-3-3.9-7.7-6.1-12.6-6.1H188c-6.7,0-10.4,7.7-6.3,12.9L447.1,512L181.7,851.1
		c-4.1,5.2-0.4,12.9,6.3,12.9h77.3c4.9,0,9.6-2.3,12.6-6.1l255.3-326.1C542.3,520.1,542.3,503.9,533.2,492.3z"/>
	<path d="M837.2,492.3L581.9,166.1c-3-3.9-7.7-6.1-12.6-6.1H492c-6.7,0-10.4,7.7-6.3,12.9L751.1,512L485.7,851.1
		c-4.1,5.2-0.4,12.9,6.3,12.9h77.3c4.9,0,9.6-2.3,12.6-6.1l255.3-326.1C846.3,520.1,846.3,503.9,837.2,492.3z"/>
</g>
</svg>
