<?xml version="1.0" encoding="utf-8"?>

<svg id="down-square-o" viewBox="0 0 1024 1024">
  <path d="M888.5 135.5 888.5 135.5 888.5 135.5l0 753.1 0 0-753 0 0 0L135.5 135.5l0 0L888.5 135.5M888.5 63.5l-753 0c-39.8 0-72 32.2-72 72l0 753.1c0 39.8 32.2 72 72 72l753.1 0c39.8 0 72-32.2 72-72L960.6 135.5C960.5 95.7 928.3 63.5 888.5 63.5L888.5 63.5z"></path>
  <path d="M538.2 680.7l221-235.8c13.6-14.5 12.9-37.3-1.6-50.9-14.5-13.6-37.3-12.9-50.9 1.6L512 603.3 317.2 395.5c-13.6-14.5-36.4-15.2-50.9-1.6-14.5 13.6-15.2 36.4-1.6 50.9l221 235.8c6.8 7.3 16.3 11.4 26.3 11.4S531.5 687.9 538.2 680.7z"></path>
</svg>