<?xml version="1.0" encoding="utf-8"?>
<svg id="down-circle" viewBox="0 0 1024 1024" version="1.1" xmlns="http://www.w3.org/2000/svg" xmlns:xlink="http://www.w3.org/1999/xlink">
  <path d="M512 0.999024C229.475902 0.999024 0.499512 229.975415 0.499512 512.499512s228.97639 511.500488 511.500488 511.500488 511.500488-228.97639 511.500488-511.500488S794.524098 0.999024 512 0.999024zM758.958829 466.344585l-220.78439 235.569951c-6.693463 7.192976-16.184195 11.288976-26.174439 11.288976s-19.480976-4.096-26.274341-11.388878l-220.78439-235.569951c-13.586732-14.485854-12.887415-37.26361 1.598439-50.850341 14.485854-13.586732 37.26361-12.887415 50.850341 1.598439L512 624.590049l194.510049-207.497366c13.586732-14.485854 36.364488-15.185171 50.850341-1.598439C771.846244 429.080976 772.545561 451.858732 758.958829 466.344585z"></path>
</svg>