<?xml version="1.0" encoding="utf-8"?>

<svg id="dribbble-square" viewBox="0 0 1024 1024">
  <path d="M535.408 515.444C362.732 571.248 270.836 723.4 263.248 736.392c-53.48-59.36-86.072-137.872-86.072-223.888 0-3.416 0.056-6.832 0.168-10.22 14.644 0.308 176.904 2.38 344.12-47.656 9.576 18.76 18.732 37.8 27.132 56.812-4.424 1.26-8.82 2.576-13.188 4.004z m198.548-253.4c-6.02 8.596-56.42 76.328-175.476 120.96-54.88-100.8-115.696-183.624-124.936-196A333.97 333.97 0 0 1 512 177.68c85.064 0 162.82 31.92 221.956 84.364zM493.8 403.136c-156.632 41.608-294.588 40.992-309.568 40.796 21.728-103.908 91.756-190.26 185.416-234.444 8.82 12.124 68.656 95.032 124.152 193.648z m75.348 164.416c0.728-0.252 1.484-0.476 2.212-0.728 47.012 122.136 66.444 224.532 71.428 253.904-40.208 17.136-84.392 26.6-130.788 26.6-77.392 0-148.736-26.404-205.52-70.672 6.02-12.32 73.808-143.276 262.668-209.104zM809.5 64h-595C131.732 64 64 131.732 64 214.5v595C64 892.268 131.732 960 214.5 960h595c82.768 0 150.5-67.732 150.5-150.5v-595C960 131.732 892.268 64 809.5 64zM512 904c-216.16 0-392-175.84-392-392s175.84-392 392-392 392 175.84 392 392-175.84 392-392 392z m122.024-352.66c104.944-16.8 197.12 10.696 208.572 14.308-14.924 93.184-68.404 173.628-143.528 224.42-3.416-20.356-21.252-118.384-65.044-238.728z m-49.812-118.552c123.788-50.54 179.9-122.472 186.956-132.02 46.648 56.98 74.872 129.556 75.628 208.572-11.032-2.324-121.744-24.78-233.156-10.78a1647.96 1647.96 0 0 0-7.224-17.276c-6.944-16.324-14.42-32.536-22.204-48.496z"></path>
</svg>