<?xml version="1.0" encoding="utf-8"?>
<!-- Generator: Adobe Illustrator 21.0.0, SVG Export Plug-In . SVG Version: 6.00 Build 0)  -->
<svg version="1.1" id="图层_1" xmlns="http://www.w3.org/2000/svg" xmlns:xlink="http://www.w3.org/1999/xlink" x="0px" y="0px"
	 viewBox="0 0 1024 1024" style="enable-background:new 0 0 1024 1024;" xml:space="preserve">
<style type="text/css">
	.st0{fill:none;}
</style>
<title>dribbble</title>
<desc>Created with Sketch.</desc>
<g>
	<path class="st0" d="M747.5,246.7c-62.7-55.7-145.3-89.5-235.5-89.5c-28.1,0-56,3.3-83.3,9.9c9.8,13.2,74.4,101,132.6,208
		C687.7,327.7,741.1,255.8,747.5,246.7z"/>
	<path class="st0" d="M612.2,479.4c2.6,6.1,5.2,12.2,7.6,18.3c118.2-14.9,235.7,9,247.4,11.4c-0.8-83.9-30.8-160.9-80.2-221.4
		c-7.5,10.1-67,86.5-198.4,140.1C596.9,444.9,604.8,462.1,612.2,479.4z"/>
	<path class="st0" d="M492.7,396.5C433.8,291.8,370.3,203.8,360.9,191c-99.4,46.9-173.7,138.5-196.7,248.8
		C180.1,440,326.5,440.6,492.7,396.5z"/>
	<path class="st0" d="M536.9,515.6c4.6-1.5,9.3-2.9,14-4.2c-8.9-20.2-18.6-40.4-28.8-60.3c-177.5,53.1-349.6,50.9-365.2,50.6
		c-0.1,3.6-0.2,7.2-0.2,10.9c0,91.3,34.6,174.6,91.3,237.6C256.1,736.4,353.6,574.9,536.9,515.6z"/>
	<path class="st0" d="M641.5,553.8c46.5,127.7,65.4,231.7,69,253.3c79.7-53.9,136.4-139.3,152.3-238.2
		C850.7,565.1,752.9,535.9,641.5,553.8z"/>
	<path class="st0" d="M572.6,570.9c-200.4,69.8-272.4,208.8-278.7,221.9c60.2,47,136,75,218.1,75c49.2,0,96.1-10,138.8-28.2
		c-5.3-31.2-25.9-139.8-75.8-269.5L572.6,570.9z"/>
	<path d="M512,96C282.6,96,96,282.6,96,512s186.6,416,416,416c229.4,0,416-186.6,416-416S741.4,96,512,96z M787.1,287.8
		c49.5,60.5,79.5,137.5,80.2,221.4c-11.7-2.5-129.2-26.3-247.4-11.4c-2.5-6.1-5-12.2-7.6-18.3c-7.4-17.3-15.3-34.6-23.6-51.5
		C720,374.3,779.6,298,787.1,287.8z M512,157.2c90.3,0,172.8,33.9,235.5,89.5c-6.4,9.1-59.9,81-186.2,128.4
		c-58.2-107-122.7-194.8-132.6-208C456,160.5,483.9,157.2,512,157.2z M360.9,191c9.4,12.8,72.9,100.9,131.7,205.5
		c-166.2,44.1-312.6,43.5-328.5,43.3C187.2,329.5,261.5,237.9,360.9,191z M156.7,512.5c0-3.6,0.1-7.3,0.2-10.9
		c15.5,0.3,187.7,2.5,365.2-50.6c10.2,19.9,19.9,40.1,28.8,60.3c-4.7,1.3-9.4,2.7-14,4.2C353.6,574.9,256.1,736.4,248,750.1
		C191.3,687.1,156.7,603.8,156.7,512.5z M512,867.8c-82.2,0-157.9-28-218.1-75c6.4-13.1,78.3-152,278.7-221.9l2.3-0.8
		c49.9,129.6,70.5,238.3,75.8,269.5C608.1,857.8,561.2,867.9,512,867.8z M710.5,807.1c-3.6-21.6-22.5-125.6-69-253.3
		c111.4-17.8,209.2,11.4,221.3,15.2C847,667.8,790.3,753.2,710.5,807.1z"/>
</g>
</svg>
