<?xml version="1.0" encoding="utf-8"?>

<svg id="dribbble" viewBox="0 0 1024 1024">
  <path d="M512 1024C229.696 1024 0 794.304 0 512S229.696 0 512 0c282.336 0 512 229.696 512 512s-229.664 512-512 512z m431.808-441.92c-14.976-4.704-135.36-40.64-272.416-18.688 57.216 157.184 80.48 285.216 84.96 311.808 98.112-66.336 167.936-171.424 187.456-293.12zM682.816 915.232c-6.496-38.368-31.904-172.096-93.312-331.648l-2.88 0.96c-246.656 85.952-335.232 257.024-343.072 273.088 74.144 57.824 167.328 92.32 268.448 92.32 60.576 0.032 118.336-12.352 170.816-34.72zM187.104 805.088c9.92-16.96 129.92-215.68 355.488-288.608a446.923 446.923 0 0 1 17.248-5.216c-10.976-24.832-22.944-49.728-35.456-74.208-218.4 65.344-430.336 62.624-449.472 62.24-0.128 4.448-0.224 8.896-0.224 13.376-0.032 112.32 42.56 214.88 112.416 292.416z m-103.2-381.984c19.552 0.256 199.744 1.056 404.288-53.28-72.448-128.8-150.624-237.12-162.144-252.928-122.336 57.696-213.792 170.496-242.144 306.208z m325.6-335.616c12.096 16.192 91.52 124.352 163.168 256 155.52-58.272 221.344-146.784 229.216-157.984C724.672 116.992 623.104 75.296 512 75.296a439.89 439.89 0 0 0-102.496 12.192z m441.024 148.608c-9.216 12.48-82.496 106.432-244.192 172.448 10.176 20.832 19.936 42.016 29.024 63.36a1305.295 1305.295 0 0 1 9.408 22.56c145.504-18.304 290.112 11.04 304.512 14.08-0.96-103.232-37.856-198.016-98.752-272.448z"></path>
</svg>