<?xml version="1.0" encoding="utf-8"?>
<!-- Generator: Adobe Illustrator 21.0.0, SVG Export Plug-In . SVG Version: 6.00 Build 0)  -->
<svg version="1.1" id="图层_1" xmlns="http://www.w3.org/2000/svg" xmlns:xlink="http://www.w3.org/1999/xlink" x="0px" y="0px"
	 viewBox="0 0 1024 1024" style="enable-background:new 0 0 1024 1024;" xml:space="preserve">
<style type="text/css">
	.st0{fill:none;}
</style>
<title>earth</title>
<desc>Created with Sketch.</desc>
<g>
	<path class="st0" d="M352.8,667.8c0.1,0.4,0.2,0.8,0.3,1.2c41.1-15.6,85-25.3,130.9-28.1V540H336.5
		C338.1,584.2,343.6,627.1,352.8,667.8z"/>
	<path class="st0" d="M671.2,667.8c9.2-40.7,14.7-83.5,16.3-127.8H540v100.9c45.8,2.8,89.8,12.5,130.9,28.1
		C671,668.6,671.1,668.2,671.2,667.8z"/>
	<path class="st0" d="M540,327c39.9-2.8,78.6-11.6,115.7-26.2c-8.3-24.6-17.9-47.3-29-67.8c-17.4-32.4-37.8-58.4-59.1-75.1
		c-9.2-7.2-18.4-12.7-27.7-16.4V327z"/>
	<path class="st0" d="M671.2,356.3c-0.1-0.4-0.2-0.8-0.3-1.2c-41.1,15.6-85,25.3-130.9,28.1V484h147.5
		C685.9,439.8,680.4,396.9,671.2,356.3z"/>
	<path class="st0" d="M655.7,723.2c-37.1-14.6-75.8-23.4-115.7-26.2v185.4c9.2-3.7,18.5-9.1,27.7-16.4
		c21.2-16.7,41.7-42.7,59.1-75.1C637.8,770.4,647.4,747.7,655.7,723.2z"/>
	<path class="st0" d="M765.9,234.7c-31.8-29.1-67.9-52.4-107.6-69.2c-3.7-1.5-7.3-3-11-4.4c23.4,31.3,43.5,70.4,59.2,115.4
		C727.5,264.4,747.4,250.5,765.9,234.7z"/>
	<path class="st0" d="M722.8,692.6c29.3,15.6,56.6,34.4,81.5,55.9c22.2-27.4,40.4-57.6,54.2-90.2c16-37.7,25.5-77.4,28.5-118.3
		H743.5C741.7,594.2,734.4,645.7,722.8,692.6z"/>
	<path class="st0" d="M722.8,331.4c11.6,46.9,18.8,98.4,20.7,152.6H887c-3-40.9-12.5-80.6-28.5-118.3c-13.8-32.6-32-62.8-54.2-90.2
		C779.4,297,752.1,315.8,722.8,331.4z"/>
	<path class="st0" d="M301.2,331.4c-29.3-15.6-56.6-34.4-81.5-55.9c-22.2,27.4-40.4,57.6-54.2,90.2c-16,37.7-25.5,77.4-28.5,118.3
		h143.5C282.3,429.8,289.6,378.3,301.2,331.4z"/>
	<path class="st0" d="M301.2,692.6c-11.6-46.9-18.8-98.4-20.7-152.6H137c3,40.9,12.5,80.6,28.5,118.3c13.8,32.6,32,62.8,54.2,90.2
		C244.6,727,271.9,708.2,301.2,692.6z"/>
	<path class="st0" d="M484,383.1c-45.8-2.8-89.8-12.5-130.9-28.1c-0.1,0.4-0.2,0.8-0.3,1.2c-9.2,40.7-14.7,83.5-16.3,127.8H484
		V383.1z"/>
	<path class="st0" d="M647.3,862.9c3.7-1.4,7.4-2.9,11-4.4c39.7-16.8,75.8-40,107.6-69.2c-18.5-15.8-38.4-29.7-59.4-41.8
		C690.8,792.5,670.7,831.7,647.3,862.9z"/>
	<path class="st0" d="M258.1,789.3c31.8,29.1,67.9,52.4,107.6,69.2c3.7,1.5,7.3,3,11,4.4c-23.4-31.3-43.5-70.4-59.2-115.4
		C296.5,759.6,276.6,773.5,258.1,789.3z"/>
	<path class="st0" d="M376.7,161.1c-3.7,1.4-7.4,2.9-11,4.4c-39.7,16.8-75.8,40-107.6,69.2c18.5,15.8,38.4,29.7,59.4,41.8
		C333.2,231.5,353.3,192.3,376.7,161.1z"/>
	<path class="st0" d="M456.3,866.1c9.2,7.2,18.4,12.7,27.7,16.4V697c-39.9,2.8-78.6,11.6-115.7,26.2c8.3,24.6,17.9,47.3,29,67.8
		C414.7,823.4,435.1,849.3,456.3,866.1z"/>
	<path class="st0" d="M397.3,233c-11,20.6-20.7,43.3-29,67.8c37.1,14.6,75.8,23.4,115.7,26.2V141.6c-9.2,3.7-18.5,9.1-27.7,16.4
		C435.1,174.7,414.7,200.6,397.3,233z"/>
	<path d="M854.4,800.9c0.2-0.3,0.5-0.6,0.7-0.9c0,0,0,0,0,0C920.6,722.1,960,621.7,960,512s-39.4-210.1-104.8-288c0,0,0,0,0,0
		c-0.2-0.3-0.5-0.5-0.7-0.8c-1.1-1.3-2.1-2.5-3.2-3.7c-0.4-0.5-0.8-0.9-1.2-1.4c-1.4-1.6-2.7-3.1-4.1-4.7c0,0-0.1-0.1-0.1-0.1
		c-1.5-1.7-3.1-3.4-4.6-5.1c0,0-0.1-0.1-0.1-0.1c-3.2-3.4-6.4-6.8-9.7-10.1c0,0-0.1-0.1-0.1-0.1c-1.6-1.6-3.2-3.2-4.8-4.8
		c-0.1-0.1-0.2-0.2-0.3-0.3c-1.5-1.5-3-2.9-4.5-4.3c-0.5-0.5-1-1-1.6-1.5c-1-1-2-1.9-3-2.8c-0.3-0.3-0.7-0.6-1-1c0,0,0,0,0,0
		C736.4,109.2,629.5,64,512,64s-224.4,45.2-304.3,119.2c0,0,0,0,0,0c-0.3,0.3-0.7,0.6-1,1c-1,0.9-2,1.9-3,2.9c-0.5,0.5-1,1-1.6,1.5
		c-1.5,1.4-3,2.9-4.5,4.3c-0.1,0.1-0.2,0.2-0.3,0.3c-1.6,1.6-3.2,3.2-4.8,4.8c0,0-0.1,0.1-0.1,0.1c-3.3,3.3-6.5,6.7-9.7,10.1
		c0,0-0.1,0.1-0.1,0.1c-1.6,1.7-3.1,3.4-4.6,5.1c0,0-0.1,0.1-0.1,0.1c-1.4,1.5-2.8,3.1-4.1,4.7c-0.4,0.5-0.8,0.9-1.2,1.4
		c-1.1,1.2-2.1,2.5-3.2,3.7c-0.2,0.3-0.5,0.5-0.7,0.8c0,0,0,0,0,0C103.4,301.9,64,402.3,64,512s39.4,210.1,104.8,288c0,0,0,0,0,0
		c0.2,0.3,0.5,0.6,0.7,0.9c1,1.2,2.1,2.5,3.1,3.7c0.4,0.5,0.8,0.9,1.2,1.4c1.4,1.6,2.7,3.1,4.1,4.7c0,0.1,0.1,0.1,0.1,0.2
		c1.5,1.7,3,3.4,4.6,5c0,0,0.1,0.1,0.1,0.1c3.2,3.4,6.4,6.8,9.6,10.1c0,0,0.1,0.1,0.1,0.1c1.6,1.6,3.1,3.2,4.7,4.7
		c0.1,0.1,0.2,0.2,0.3,0.3c3.3,3.3,6.7,6.5,10.1,9.6c0,0,0,0,0,0c0,0,0,0,0,0C287.6,914.8,394.5,960,512,960s224.4-45.2,304.3-119.2
		c0,0,0,0,0,0c0,0,0,0,0,0c3.4-3.1,6.7-6.3,10-9.6c0.1-0.1,0.2-0.2,0.3-0.3c1.6-1.6,3.2-3.1,4.7-4.7c0,0,0.1-0.1,0.1-0.1
		c3.3-3.3,6.5-6.7,9.6-10.1c0,0,0.1-0.1,0.1-0.1c1.5-1.7,3.1-3.3,4.6-5c0-0.1,0.1-0.1,0.1-0.2c1.4-1.5,2.8-3.1,4.1-4.7
		c0.4-0.5,0.8-0.9,1.2-1.4C852.3,803.3,853.4,802.1,854.4,800.9z M858.5,658.3c-13.8,32.6-32,62.8-54.2,90.2
		c-24.9-21.5-52.2-40.3-81.5-55.9c11.6-46.9,18.8-98.4,20.7-152.6H887C884,580.9,874.4,620.6,858.5,658.3z M887,484H743.5
		c-1.9-54.2-9.1-105.7-20.7-152.6c29.3-15.6,56.6-34.4,81.5-55.9c22.2,27.4,40.4,57.6,54.2,90.2C874.4,403.4,884,443.1,887,484z
		 M658.3,165.5c39.7,16.8,75.8,40,107.6,69.2c-18.5,15.8-38.4,29.7-59.4,41.8c-15.7-45-35.8-84.1-59.2-115.4
		C651,162.5,654.7,164,658.3,165.5z M567.7,866.1c-9.2,7.2-18.4,12.7-27.7,16.4V697c39.9,2.8,78.6,11.6,115.7,26.2
		c-8.3,24.6-17.9,47.3-29,67.8C609.3,823.4,588.9,849.3,567.7,866.1z M626.7,233c11,20.6,20.7,43.3,29,67.8
		c-37.1,14.6-75.8,23.4-115.7,26.2V141.6c9.2,3.7,18.5,9.1,27.7,16.4C588.9,174.7,609.3,200.6,626.7,233z M540,640.9V540h147.5
		c-1.6,44.2-7.1,87.1-16.3,127.8c-0.1,0.4-0.2,0.8-0.3,1.2C629.8,653.4,585.8,643.7,540,640.9z M540,484V383.1
		c45.8-2.8,89.8-12.5,130.9-28.1c0.1,0.4,0.2,0.8,0.3,1.2c9.2,40.7,14.7,83.5,16.3,127.8H540z M484,540v100.9
		c-45.8,2.8-89.8,12.5-130.9,28.1c-0.1-0.4-0.2-0.8-0.3-1.2c-9.2-40.7-14.7-83.5-16.3-127.8H484z M336.5,484
		c1.6-44.2,7.1-87.1,16.3-127.8c0.1-0.4,0.2-0.8,0.3-1.2c41.1,15.6,85,25.3,130.9,28.1V484H336.5z M484,697v185.4
		c-9.2-3.7-18.5-9.1-27.7-16.4c-21.2-16.7-41.7-42.7-59.1-75.1c-11-20.6-20.7-43.3-29-67.8C405.4,708.5,444.1,699.8,484,697z
		 M484,327c-39.9-2.8-78.6-11.6-115.7-26.2c8.3-24.6,17.9-47.3,29-67.8c17.4-32.4,37.8-58.4,59.1-75.1c9.2-7.2,18.4-12.7,27.7-16.4
		V327z M365.7,165.5c3.7-1.5,7.3-3,11-4.4c-23.4,31.3-43.5,70.4-59.2,115.4c-21-12-40.9-26-59.4-41.8
		C289.9,205.5,326,182.3,365.7,165.5z M165.5,365.7c13.8-32.6,32-62.8,54.2-90.2c24.9,21.5,52.2,40.3,81.5,55.9
		c-11.6,46.9-18.8,98.4-20.7,152.6H137C140,443.1,149.6,403.4,165.5,365.7z M137,540h143.5c1.9,54.2,9.1,105.7,20.7,152.6
		c-29.3,15.6-56.6,34.4-81.5,55.9c-22.2-27.4-40.4-57.6-54.2-90.2C149.6,620.6,140,580.9,137,540z M365.7,858.5
		c-39.7-16.8-75.8-40-107.6-69.2c18.5-15.8,38.4-29.7,59.4-41.8c15.7,45,35.8,84.1,59.2,115.4C373,861.5,369.3,860,365.7,858.5z
		 M658.3,858.5c-3.7,1.5-7.3,3-11,4.4c23.4-31.3,43.5-70.4,59.2-115.4c21,12,40.9,26,59.4,41.8C734.1,818.5,698,841.7,658.3,858.5z"
		/>
</g>
</svg>
