<?xml version="1.0" encoding="utf-8"?>
<!-- Generator: Adobe Illustrator 21.0.0, SVG Export Plug-In . SVG Version: 6.00 Build 0)  -->
<svg version="1.1" id="图层_1" xmlns="http://www.w3.org/2000/svg" xmlns:xlink="http://www.w3.org/1999/xlink" x="0px" y="0px"
	 viewBox="0 0 1024 1024" style="enable-background:new 0 0 1024 1024;" xml:space="preserve">
<style type="text/css">
	.st0{fill:none;}
</style>
<title>edit-square-o</title>
<desc>Created with Sketch.</desc>
<g>
	<polygon class="st0" points="824.9,244 779.7,198.9 419.4,558.5 418.7,605 464.4,603.8 	"/>
	<path d="M904,512h-56c-4.4,0-8,3.6-8,8v320H184V184h320c4.4,0,8-3.6,8-8v-56c0-4.4-3.6-8-8-8H144c-17.7,0-32,14.3-32,32v736
		c0,17.7,14.3,32,32,32h736c17.7,0,32-14.3,32-32V520C912,515.6,908.4,512,904,512z"/>
	<path d="M355.9,534.9L354,653.8c-0.1,8.9,7.1,16.2,16,16.2c0.1,0,0.3,0,0.4,0l118-2.9c2-0.1,4-0.9,5.4-2.3l415.9-415
		c3.1-3.1,3.1-8.2,0-11.3L785.4,114.3c-1.6-1.6-3.6-2.3-5.7-2.3s-4.1,0.8-5.7,2.3l-415.8,415C356.8,530.8,355.9,532.8,355.9,534.9z
		 M419.4,558.5l360.3-359.5l45.2,45.1L464.4,603.8l-45.7,1.1L419.4,558.5z"/>
</g>
</svg>
