<?xml version="1.0" encoding="utf-8"?>

<svg id="edit" viewBox="0 0 1024 1024">
  <path d="M924 888H100c-19.9 0-36 16.1-36 36s16.1 36 36 36h824c19.9 0 36-16.1 36-36s-16.1-36-36-36zM296 770l235.5-99.7c3.8-1.6 7.2-3.9 10.2-6.8l397.2-397.2c28.1-28.1 28.3-73.9 0.2-102L859.8 85c-28.1-28.1-73.9-27.9-102 0.2L360.6 482.4c-2.9 2.9-5.2 6.4-6.8 10.2L254 728c-5.6 13.2-1.7 26.5 6.8 35.1s21.9 12.5 35.2 6.9z m512.7-633.9l0.2-0.2 79.2 79.2-0.2 0.2-62 62-79.2-79.2 62-62zM417 527.8L695.8 249l79.2 79.2L496.2 607l-137.4 58.2L417 527.8z" fill=""></path>
</svg>