<?xml version="1.0" encoding="utf-8"?>

<svg id="enter" viewBox="0 0 1024 1024">
  <path d="M900.2 385.8l0-192c0-22.1-17.9-40-40-40s-40 17.9-40 40l0 192c0 59.4-23.1 115.3-65.2 157.4-42 42-97.9 65.2-157.4 65.2L258.2 608.4l112.4-112.3c15.6-15.7 15.6-41 0-56.6-7.8-7.8-18-11.7-28.3-11.7s-20.5 3.9-28.3 11.7L135.5 618c-7.5 7.5-11.7 17.7-11.7 28.3s4.2 20.8 11.7 28.3l183.7 183.8c15.7 15.6 41 15.7 56.6 0s15.6-41 0-56.6L262.4 688.4l335.2 0c80.8 0 156.8-31.4 214-88.6S900.3 466.6 900.2 385.8z"></path>
</svg>