<?xml version="1.0" encoding="utf-8"?>
<svg id="environment-o" viewBox="0 0 1024 1024" version="1.1" xmlns="http://www.w3.org/2000/svg" xmlns:xlink="http://www.w3.org/1999/xlink">
  <path d="M512 232.7c-53.9 0-104.6 21-142.8 59.1-38.1 38.1-59.1 88.8-59.1 142.8s21 104.6 59.1 142.8c38.1 38.1 88.8 59.1 142.8 59.1s104.6-21 142.8-59.1c38.1-38.1 59.1-88.8 59.1-142.8s-21-104.6-59.1-142.8C616.6 253.7 565.9 232.7 512 232.7zM512 565.1c-72 0-130.5-58.5-130.5-130.5S440 304.1 512 304.1c72 0 130.5 58.5 130.5 130.5S584 565.1 512 565.1z"></path>
  <path d="M870.6 274.6c-20.3-40.7-49.1-77.3-85.7-108.9-36.3-31.3-78.1-55.9-124.4-73.2-47.7-17.8-97.6-26.8-148.4-26.8l-0.2 0c-50.8 0-100.7 9-148.4 26.8-46.3 17.3-88.1 41.9-124.4 73.2-36.6 31.6-65.5 68.3-85.7 108.9-21.2 42.6-32 87.7-32 133.9 0 64.3 15.8 130.4 47 196.5 25.8 54.7 62.3 109.9 108.6 164.1 82.8 97 176 166.4 212.2 191.7 6.7 4.7 14.6 7.2 22.8 7.2 8.1 0 16-2.5 22.8-7.2 36.2-25.3 129.5-94.7 212.2-191.7 46.2-54.2 82.8-109.4 108.6-164.1 31.2-66.1 47-132.3 47-196.5C902.6 362.2 891.8 317.2 870.6 274.6zM831.1 408.6c0 53.7-13.5 109.6-40.2 166.1-22.9 48.8-56 98.6-98.2 148.1C626.8 800.1 553 859.2 512 889.3c-41-30.2-114.8-89.2-180.7-166.5-42.2-49.5-75.3-99.4-98.3-148.2-26.7-56.5-40.2-112.4-40.2-166.1 0-35.2 8.2-69.6 24.5-102.1 16.1-32.2 39.1-61.4 68.5-86.8 29.8-25.8 64.4-46.1 102.6-60.4 39.8-14.8 81.4-22.3 123.5-22.3l0.2 0c42.2 0 83.8 7.5 123.4 22.3 38.3 14.3 72.8 34.6 102.7 60.4 29.5 25.4 52.5 54.6 68.4 86.8C822.9 339.2 831.1 373.5 831.1 408.6z"></path>
</svg>