<?xml version="1.0" encoding="utf-8"?>
<!-- Generator: Adobe Illustrator 21.0.0, SVG Export Plug-In . SVG Version: 6.00 Build 0)  -->
<svg version="1.1" id="图层_1" xmlns="http://www.w3.org/2000/svg" xmlns:xlink="http://www.w3.org/1999/xlink" x="0px" y="0px"
	 viewBox="0 0 1024 1024" style="enable-background:new 0 0 1024 1024;" xml:space="preserve">
<style type="text/css">
	.st0{fill:none;}
</style>
<title>error-fill</title>
<desc>Created with Sketch.</desc>
<g>
	<path class="st0" d="M488,608h48c4.4,0,8-3.6,8-8V416c0-4.4-3.6-8-8-8h-48c-4.4,0-8,3.6-8,8v184C480,604.4,483.6,608,488,608z"/>
	<circle class="st0" cx="512" cy="720" r="48"/>
	<path d="M955.7,856L539.7,136c-6.2-10.7-16.9-16-27.7-16c-10.8,0-21.6,5.3-27.7,16L68.3,856C56,877.4,71.4,904,96,904H928
		C952.6,904,968,877.4,955.7,856z M480,416c0-4.4,3.6-8,8-8h48c4.4,0,8,3.6,8,8v184c0,4.4-3.6,8-8,8h-48c-4.4,0-8-3.6-8-8V416z
		 M512,768c-26.5,0-48-21.5-48-48s21.5-48,48-48s48,21.5,48,48S538.5,768,512,768z"/>
</g>
</svg>
