<?xml version="1.0" encoding="utf-8"?>
<!-- Generator: Adobe Illustrator 21.0.0, SVG Export Plug-In . SVG Version: 6.00 Build 0)  -->
<svg version="1.1" id="图层_1" xmlns="http://www.w3.org/2000/svg" xmlns:xlink="http://www.w3.org/1999/xlink" x="0px" y="0px"
	 viewBox="0 0 1024 1024" style="enable-background:new 0 0 1024 1024;" xml:space="preserve">
<style type="text/css">
	.st0{fill:none;}
</style>
<title>EURO</title>
<desc>Created with Sketch.</desc>
<g>
	<path class="st0" d="M512,140c-205.4,0-372,166.6-372,372s166.6,372,372,372s372-166.6,372-372S717.4,140,512,140z M636,346
		c0,5.1-4.6,8.8-9.6,7.8c-14.7-2.9-31.8-4.4-51.7-4.4c-65.4,0-110.4,33.5-127.6,90.4h128.4c4.4,0,8,3.6,8,8v27.2c0,4.4-3.6,8-8,8
		H439.5c-0.3,4.4-0.3,9.1-0.3,13.8v36h136.2c4.4,0,8,3.6,8,8V568c0,4.4-3.6,8-8,8H444.9c15.3,62,61.3,98.6,129.8,98.6
		c19.9,0,37.1-1.2,51.8-4.1c4.9-1,9.5,2.8,9.5,7.8v42.8c0,3.8-2.7,7-6.4,7.8c-15.9,3.4-34.3,5.1-55.3,5.1
		c-109.8,0-183-58.8-200.2-158H344c-4.4,0-8-3.6-8-8v-27.2c0-4.4,3.6-8,8-8h26.1v-36.9c0-4.4,0-8.8,0.3-12.8H344c-4.4,0-8-3.6-8-8
		v-27.2c0-4.4,3.6-8,8-8h31.7c19.7-94.2,92-149.9,198.6-149.9c20.9,0,39.4,1.9,55.3,5.4c3.7,0.8,6.3,4.1,6.3,7.8V346z"/>
	<path d="M512,64C264.6,64,64,264.6,64,512s200.6,448,448,448s448-200.6,448-448S759.4,64,512,64z M512,884
		c-205.4,0-372-166.6-372-372s166.6-372,372-372s372,166.6,372,372S717.4,884,512,884z"/>
	<path d="M629.7,295.4c-15.9-3.5-34.4-5.4-55.3-5.4c-106.7,0-178.9,55.7-198.6,149.9H344c-4.4,0-8,3.6-8,8v27.2c0,4.4,3.6,8,8,8
		h26.4c-0.3,4.1-0.3,8.4-0.3,12.8v36.9H344c-4.4,0-8,3.6-8,8V568c0,4.4,3.6,8,8,8h30.2c17.2,99.2,90.4,158,200.2,158
		c20.9,0,39.4-1.7,55.3-5.1c3.7-0.8,6.4-4,6.4-7.8v-42.8c0-5-4.6-8.8-9.5-7.8c-14.7,2.8-31.9,4.1-51.8,4.1
		c-68.5,0-114.5-36.6-129.8-98.6h130.6c4.4,0,8-3.6,8-8v-27.2c0-4.4-3.6-8-8-8H439.2v-36c0-4.7,0-9.4,0.3-13.8h135.9
		c4.4,0,8-3.6,8-8v-27.2c0-4.4-3.6-8-8-8H447.1c17.2-56.9,62.3-90.4,127.6-90.4c19.9,0,37.1,1.5,51.7,4.4c5,1,9.6-2.8,9.6-7.8v-42.8
		C636,299.4,633.4,296.2,629.7,295.4z"/>
</g>
</svg>
