<?xml version="1.0" encoding="utf-8"?>
<!-- Generator: Adobe Illustrator 21.0.0, SVG Export Plug-In . SVG Version: 6.00 Build 0)  -->
<svg version="1.1" id="图层_1" xmlns="http://www.w3.org/2000/svg" xmlns:xlink="http://www.w3.org/1999/xlink" x="0px" y="0px"
	 viewBox="0 0 1024 1024" style="enable-background:new 0 0 1024 1024;" xml:space="preserve">
<style type="text/css">
	.st0{fill:none;}
</style>
<title>experiment-fill</title>
<desc>Created with Sketch.</desc>
<g>
	<path class="st0" d="M551.9,513c22,0,39.9-17.9,39.9-39.9c0-22-17.9-39.9-39.9-39.9c-22,0-39.9,17.9-39.9,39.9
		C512,495.1,529.9,513,551.9,513z"/>
	<path d="M218.9,636.3l42.6,26.6c0.1,0.1,0.3,0.2,0.4,0.3l12.7,8c0.1,0.1,0.2,0.2,0.3,0.3c28.3,16.4,60.5,25.1,94.1,25.1
		c44.9,0,87.2-15.7,121-43.8c45.9-38.4,103.8-59.9,164.9-59.9c52.3,0,102.2,15.7,144.6,44.5l7.9,5L695.8,353.4V179.8h63.5
		c4.4,0,8-3.6,8-8V120c0-4.4-3.6-8-8-8H264.7c-4.4,0-8,3.6-8,8v51.9c0,4.4,3.6,8,8,8h63.5v173.6L218.9,636.3z M551.9,433.2
		c22,0,39.9,17.9,39.9,39.9c0,22-17.9,39.9-39.9,39.9c-22,0-39.9-17.9-39.9-39.9C512,451.1,529.9,433.2,551.9,433.2z"/>
	<path d="M878,825.1l-29.9-77.4l-85.7-53.5l-0.1,0.1c-0.7-0.5-1.5-1-2.2-1.5l-8.1-5c-0.1-0.1-0.2-0.2-0.3-0.3
		c-29-17.5-62.3-26.8-97-26.8c-44.9,0-87.2,15.7-121,43.8c-45.9,38.4-103.8,59.9-164.9,59.9c-53,0-103.5-16.1-146.2-45.6l-28.9-18.1
		L146,825.1c-2.8,7.4-4.3,15.2-4.3,23c0,35.2,28.6,63.8,63.8,63.8h612.9c7.9,0,15.7-1.5,23-4.3C874.4,895,890.8,858,878,825.1z"/>
</g>
</svg>
