<?xml version="1.0" encoding="utf-8"?>

<svg id="export" viewBox="0 0 1024 1024">
  <path d="M838.1 566.2c-19.7 0-35.8 16-35.8 35.8l0 203.9c0 10.3-8.3 18.6-18.6 18.6l-567 0c-10.3 0-18.6-8.3-18.6-18.6L198.1 218.8c0-10.3 8.3-18.6 18.6-18.6l254.6 0c19.7 0 35.8-16 35.8-35.8s-16-35.8-35.8-35.8L216.8 128.6c-49.7 0-90.1 40.4-90.1 90.1l0 587.1c0 49.6 40.4 90 90.1 90l567.1 0c49.7 0 90.1-40.4 90.1-90.1L874 602C873.9 582.3 857.8 566.2 838.1 566.2z"></path>
  <path d="M464.3 356C421.3 421 410.8 484.9 409.8 492c-2.7 19.6 10.9 37.8 30.3 40.5 1.6 0.3 3.4 0.4 5.1 0.4 17.6 0 32.8-13.2 35.4-30.4 0.3-2.4 9.4-56.4 44.5-108.5 46.1-68.4 115.4-103.3 205.6-103.6 1.4 0.1 2.6 0.2 3.6 0.2 19.7 0 35.8-16 35.8-35.8l0-42.1 100.5 95.6L770 392.1l0-34.2c0-19.7-16-35.8-35.8-35.8-19.7 0-35.8 16-35.8 35.8l0 110.6c0 13.8 8.1 26.5 20.7 32.4 4.7 2.3 10 3.4 15.1 3.4 8.4 0 16.5-3 22.8-8.2l190.1-158.3c7.8-6.7 12.5-16.2 12.7-26.3 0.4-10.2-3.6-20.1-11-27.2L758.8 103.4c-10.4-10-25.6-12.6-38.7-7-13.2 5.7-21.6 18.6-21.6 32.9l0 90.9C572.8 230.7 501.8 299.6 464.3 356z"></path>
</svg>