<?xml version="1.0" encoding="utf-8"?>
<svg id="export-o" viewBox="0 0 1024 1024" version="1.1" xmlns="http://www.w3.org/2000/svg" xmlns:xlink="http://www.w3.org/1999/xlink">
  <path d="M248.5 423.1c19.7 0 35.8-16 35.8-35.8L284.3 183.5c0-10.3 8.3-18.6 18.6-18.6l567 0c10.3 0 18.6 8.3 18.6 18.6l0 587.1c0 10.3-8.3 18.6-18.6 18.6L615.2 789.2c-19.7 0-35.8 16-35.8 35.8 0 19.7 16 35.8 35.8 35.8l254.6 0c49.7 0 90.1-40.4 90.1-90.1L959.9 183.5c0-49.6-40.4-90-90.1-90L302.7 93.5c-49.7 0-90.1 40.4-90.1 90.1l0 203.8C212.7 407.1 228.9 423.1 248.5 423.1z"></path>
  <path d="M622.3 633.3c43.1-64.9 53.5-128.8 54.6-135.9 2.7-19.6-10.9-37.8-30.3-40.5-1.6-0.3-3.4-0.4-5.1-0.4-17.6 0-32.8 13.2-35.4 30.4-0.3 2.4-9.4 56.4-44.5 108.5C515.3 663.8 446.1 698.7 355.9 699c-1.4-0.1-2.6-0.2-3.6-0.2-19.7 0-35.8 16-35.8 35.8l0 42.1L216 681.1l100.6-83.8 0 34.2c0 19.7 16 35.8 35.8 35.8 19.7 0 35.8-16 35.8-35.8L388.2 520.9c0-13.8-8.1-26.5-20.7-32.4-4.7-2.3-10-3.4-15.1-3.4-8.4 0-16.5 3-22.8 8.2L139.5 651.7c-7.8 6.7-12.5 16.2-12.7 26.3-0.4 10.2 3.6 20.1 11 27.2L327.8 886c10.4 10 25.6 12.6 38.7 7s21.6-18.6 21.6-32.9l0-90.9C513.8 758.7 584.8 689.7 622.3 633.3z"></path>
</svg>