<?xml version="1.0" encoding="utf-8"?>
<svg id="eye-o" viewBox="0 0 1024 1024" version="1.1" xmlns="http://www.w3.org/2000/svg" xmlns:xlink="http://www.w3.org/1999/xlink">
  <path d="M963.4 511.7c-0.3-5.6-8.9-33.3-20.9-62.1-12.3-29.7-33.1-72.7-61.9-108.6-37.7-47.2-84.2-84.9-138.2-111.9-66.3-33.3-143.9-50.1-230.5-50.1-86.5 0-164.1 16.9-230.4 50.2-53.6 26.8-100.1 64.4-138.2 111.8C114.5 377 93.8 420 81.5 449.7c-12 28.8-20.5 56.5-20.8 62.1l0 0c0 0.1 0 0.1 0 0.2 0 0.1 0 0.1 0 0.2l0 0c0.3 5.6 8.9 33.3 20.9 62.2 12.4 29.7 33.1 72.7 61.8 108.5 37.7 47.2 84.2 84.9 138.2 111.9 66.7 33.4 144.2 50.3 230.4 50.3 86.3 0 163.8-16.9 230.4-50.3 53.8-26.9 100.3-64.6 138.2-111.8 28.8-35.9 49.6-78.9 61.9-108.6 12-28.8 20.6-56.5 20.9-62.1l0 0c0-0.1 0-0.1 0-0.2C963.4 511.9 963.4 511.8 963.4 511.7L963.4 511.7zM889.2 511.9c-5.7 17.4-27.8 80.2-64.4 125.8l-0.5 0.5c-31.1 39-69.6 70.1-114.3 92.6-56.5 28.3-123.3 42.7-198.4 42.7-75.2 0-141.9-14.4-198.4-42.7-44.6-22.3-83-53.5-114.3-92.7-36.8-45.8-59-108.8-64.7-126.3 5.7-17.4 27.9-80.3 64.7-126.3 31.4-39.2 69.9-70.3 114.4-92.6 56.6-28.3 123.4-42.6 198.6-42.6 75.5 0 142.2 14.3 198.3 42.6 44.6 22.3 83 53.5 114.3 92.7C861.3 431.6 883.5 494.5 889.2 511.9z"></path>
  <path d="M511.9 337.8c-95.6 0-173.3 77.8-173.3 173.3s77.8 173.3 173.3 173.3 173.3-77.8 173.3-173.3S607.5 337.8 511.9 337.8zM613.9 511.1c0 27.2-10.6 52.8-29.9 72.1-19.3 19.3-44.9 29.9-72.1 29.9-27.2 0-52.8-10.6-72.1-29.9-19.3-19.3-29.9-44.9-29.9-72.1 0-27.2 10.6-52.8 29.9-72.1 19.3-19.3 44.9-29.9 72.1-29.9 27.2 0 52.8 10.6 72.1 29.9C603.3 458.3 613.9 483.9 613.9 511.1z"></path>
</svg>