<?xml version="1.0" encoding="utf-8"?>

<svg id="eye" viewBox="0 0 1024 1024">
  <path d="M511.9 409.2c-27.2 0-52.8 10.6-72.1 29.9-19.3 19.3-29.9 44.9-29.9 72.1 0 27.2 10.6 52.8 29.9 72.1 19.3 19.3 44.9 29.9 72.1 29.9 27.2 0 52.8-10.6 72.1-29.9 19.3-19.3 29.9-44.9 29.9-72.1 0-27.2-10.6-52.8-29.9-72.1C564.8 419.8 539.1 409.2 511.9 409.2z"></path>
  <path d="M963.4 511.7c-0.3-5.6-8.9-33.3-20.9-62.1-12.3-29.7-33.1-72.7-61.9-108.6-37.7-47.2-84.2-84.9-138.2-111.9-66.3-33.3-143.9-50.1-230.5-50.1-86.5 0-164.1 16.9-230.4 50.2-53.6 26.8-100.1 64.4-138.2 111.8C114.5 377 93.8 420 81.5 449.7c-12 28.8-20.5 56.5-20.8 62.1l0 0c0 0.1 0 0.1 0 0.2 0 0.1 0 0.1 0 0.2l0 0c0.3 5.6 8.9 33.3 20.9 62.2 12.4 29.7 33.1 72.7 61.8 108.5 37.7 47.2 84.2 84.9 138.2 111.9 66.7 33.4 144.2 50.3 230.4 50.3 86.3 0 163.8-16.9 230.4-50.3 53.8-26.9 100.3-64.6 138.2-111.8 28.8-35.9 49.6-78.9 61.9-108.6 12-28.8 20.6-56.5 20.9-62.1l0 0c0-0.1 0-0.1 0-0.2C963.4 511.9 963.4 511.8 963.4 511.7L963.4 511.7zM511.9 684.5c-95.6 0-173.3-77.8-173.3-173.3s77.8-173.3 173.3-173.3 173.3 77.8 173.3 173.3S607.5 684.5 511.9 684.5z"></path>
</svg>