<?xml version="1.0" encoding="utf-8"?>
<!-- Generator: Adobe Illustrator 21.0.0, SVG Export Plug-In . SVG Version: 6.00 Build 0)  -->
<svg version="1.1" id="图层_1" xmlns="http://www.w3.org/2000/svg" xmlns:xlink="http://www.w3.org/1999/xlink" x="0px" y="0px"
	 viewBox="0 0 1024 1024" style="enable-background:new 0 0 1024 1024;" xml:space="preserve">
<style type="text/css">
	.st0{fill:none;}
</style>
<title>facebook-fill</title>
<desc>Created with Sketch.</desc>
<g>
	<path class="st0" d="M539.2,392.4v89H434.9v120.7h104.3V912h124.7V602.2h104l15.6-120.7H663.9v-77.1c0-35,9.7-58.8,59.8-58.8
		l63.9,0v-108c-11.1-1.5-49-4.8-93.2-4.8C602.3,232.8,539.2,289,539.2,392.4z"/>
	<path d="M880,112H144c-17.7,0-32,14.3-32,32v736c0,17.7,14.3,32,32,32h736c17.7,0,32-14.3,32-32V144C912,126.3,897.7,112,880,112z
		 M787.6,345.5l-63.9,0c-50.1,0-59.8,23.8-59.8,58.8v77.1h119.6l-15.6,120.7h-104V912H539.2V602.2H434.9V481.4h104.3v-89
		c0-103.3,63.1-159.6,155.3-159.6c44.2,0,82.1,3.3,93.2,4.8V345.5z"/>
</g>
</svg>
