<?xml version="1.0" encoding="utf-8"?>
<!-- Generator: Adobe Illustrator 21.0.0, SVG Export Plug-In . SVG Version: 6.00 Build 0)  -->
<svg version="1.1" id="图层_1" xmlns="http://www.w3.org/2000/svg" xmlns:xlink="http://www.w3.org/1999/xlink" x="0px" y="0px"
	 viewBox="0 0 1024 1024" style="enable-background:new 0 0 1024 1024;" xml:space="preserve">
<style type="text/css">
	.st0{fill:none;}
</style>
<title>file-word</title>
<desc>Created with Sketch.</desc>
<g>
	<polygon class="st0" points="602,326 790.2,326 602,137.8 	"/>
	<path class="st0" d="M534,352V136H232v752h560V394H576C552.8,394,534,375.2,534,352z M635.3,481.3c1.3-5.4,6.1-9.3,11.7-9.3h35.6
		c6.6,0,12,5.4,12,12c0,1.1-0.1,2.1-0.4,3.1l-74.4,276c-1.4,5.2-6.2,8.9-11.6,8.9h-31.8c-5.4,0-10.2-3.6-11.6-8.9l-52.8-197
		l-52.8,197c-1.4,5.2-6.2,8.9-11.6,8.9h-32c-5.4,0-10.2-3.6-11.6-8.9l-74.2-276c-1.7-6.4,2.1-13,8.5-14.7c1-0.3,2.1-0.4,3.1-0.4
		h35.4c5.6,0,10.4,3.9,11.7,9.3L434.6,680l49.7-198.9c1.3-5.3,6.1-9.1,11.6-9.1h32.2c5.5,0,10.3,3.7,11.6,9.1l49.8,199.3
		L635.3,481.3z"/>
	<path d="M854.6,288.6L639.4,73.4c-6-6-14.1-9.4-22.6-9.4H192c-17.7,0-32,14.3-32,32v832c0,17.7,14.3,32,32,32h640
		c17.7,0,32-14.3,32-32V311.3C864,302.8,860.6,294.6,854.6,288.6z M790.2,326H602V137.8L790.2,326z M792,888H232V136h302v216
		c0,23.2,18.8,42,42,42h216V888z"/>
	<path d="M528.1,472h-32.2c-5.5,0-10.3,3.7-11.6,9.1L434.6,680l-46.1-198.7c-1.3-5.4-6.1-9.3-11.7-9.3h-35.4c-1.1,0-2.1,0.1-3.1,0.4
		c-6.4,1.7-10.2,8.3-8.5,14.7l74.2,276c1.4,5.2,6.2,8.9,11.6,8.9h32c5.4,0,10.2-3.6,11.6-8.9l52.8-197l52.8,197
		c1.4,5.2,6.2,8.9,11.6,8.9h31.8c5.4,0,10.2-3.6,11.6-8.9l74.4-276c0.3-1,0.4-2.1,0.4-3.1c0-6.6-5.4-12-12-12H647
		c-5.6,0-10.4,3.9-11.7,9.3l-45.8,199.1l-49.8-199.3C538.4,475.7,533.6,472,528.1,472z"/>
</g>
</svg>
