<?xml version="1.0" encoding="utf-8"?>
<svg id="file-markdown" viewBox="0 0 1024 1024" version="1.1" xmlns="http://www.w3.org/2000/svg" xmlns:xlink="http://www.w3.org/1999/xlink">
  <path d="M938.6 301.8L660.8 21.3c-4.5-4.5-9.4-8.3-14.7-11.5-1.4-0.8-2.8-1.6-4.3-2.3-0.9-0.5-1.9-0.9-2.8-1.3-9-4-18.9-6.2-29-6.2H265c-39.8 0-73 32.2-73 72v880c0 39.8 33.2 72 73 72h623c39.8 0 71-32.2 71-72V352.5c0-19-7-37.2-20.4-50.7zM647 110.4L847.8 312H647V110.4zM887 952H264V72h311v240c0 39.8 33.2 72 73 72h239v568z"></path>
  <path d="M487.5 515.2h-68.4v301.6h56.3v-204l82.3 192.6h42.6l82.3-192.6v204h56.2V515.2h-68.3L579 730.7z"></path>
</svg>