<?xml version="1.0" encoding="utf-8"?>
<svg id="file-add" viewBox="0 0 1024 1024" version="1.1" xmlns="http://www.w3.org/2000/svg" xmlns:xlink="http://www.w3.org/1999/xlink">
  <path d="M860 768H704V612c0-19.9-16.1-36-36-36s-36 16.1-36 36v156H484c-19.9 0-36 16.1-36 36s16.1 36 36 36h148v148c0 19.9 16.1 36 36 36s36-16.1 36-36V840h156c19.9 0 36-16.1 36-36s-16.1-36-36-36z"></path>
  <path d="M875.1 301.8l-278-280.5c-4.5-4.5-9.5-8.3-14.8-11.5-1.4-0.8-2.9-1.6-4.4-2.3-0.9-0.5-1.9-0.9-2.8-1.3-9.1-4-19-6.2-29.1-6.2H200c-39.8 0-72 32.2-72 72v880c0 39.8 32.2 72 72 72h212c19.9 0 36-16.1 36-36s-16.1-36-36-36H200V72h312v240c0 39.8 32.2 72 72 72h240v156c0 19.9 16.1 36 36 36s36-16.1 36-36V352.5c0-19-7.5-37.2-20.9-50.7zM584 312V110.4L783.8 312H584z"></path>
</svg>