<?xml version="1.0" encoding="UTF-8"?>
<svg width="1024px" height="1024px" viewBox="0 0 1024 1024" version="1.1" xmlns="http://www.w3.org/2000/svg" xmlns:xlink="http://www.w3.org/1999/xlink">
    <!-- Generator: Sketch 50.2 (55047) - http://www.bohemiancoding.com/sketch -->
    <title>file-pdf-fill</title>
    <desc>Created with Sketch.</desc>
    <defs></defs>
    <g id="file-pdf-fill" stroke="none" stroke-width="1" fill="none" fill-rule="evenodd">
        <path d="M854.6,288.7 C860.6,294.7 864,302.8 864,311.3 L864,928 C864,945.7 849.7,960 832,960 L192,960 C174.3,960 160,945.7 160,928 L160,96 C160,78.3 174.3,64 192,64 L616.7,64 C625.2,64 633.4,67.4 639.4,73.4 L854.6,288.7 Z M790.2,326 L602,137.8 L602,326 L790.2,326 Z M633.217281,637.256361 C618.043219,636.767375 601.902942,637.925943 583.566103,640.220389 C559.268813,625.233094 542.912908,604.637686 531.292886,574.393471 C531.572784,573.240766 532.152243,570.854743 532.356082,570.012655 C532.83004,568.054671 533.222608,566.418908 533.599285,564.827916 C537.891879,546.69706 540.214356,533.470081 540.899765,520.132602 C541.417447,510.058966 540.859932,500.764783 539.072377,492.156853 C535.774118,473.573377 522.61817,462.70428 506.051041,462.031245 C490.605204,461.403761 476.402032,470.024111 472.769836,483.404153 C466.857484,505.015876 470.320381,533.473159 482.850792,581.985715 C466.88551,620.041837 445.797889,664.647105 431.646967,689.524902 C412.76215,699.264215 398.043163,708.129995 385.69427,717.951572 C369.391454,730.917865 359.21433,744.241878 356.408256,758.257918 C355.053387,764.737885 357.100003,773.224104 361.768695,780.17007 C367.064287,788.048723 375.050383,793.161409 384.623182,793.905401 C408.775315,795.78249 438.453506,770.881323 471.212701,714.646558 C474.507669,713.557023 477.992637,712.39024 482.238611,710.957898 C484.561779,710.174198 492.702805,707.419475 494.1491,706.931038 C501.670306,704.391007 507.12848,702.570816 512.524698,700.815163 C535.921461,693.203053 553.62068,688.386117 569.735891,685.652351 C597.708309,700.624536 630.051346,710.448197 651.833162,710.448197 C669.811907,710.448197 681.95932,701.129135 686.348157,686.46347 C690.204546,673.577024 687.14236,658.638622 678.874537,650.379339 C670.315774,641.969482 654.574588,637.944603 633.217281,637.256361 Z M385.232232,765.675936 L385.232232,765.315402 L385.358126,764.977562 C386.632884,761.55671 388.515242,757.96999 390.957593,754.220486 C395.241669,747.643564 401.130532,740.719449 408.429691,733.355335 C412.350501,729.399634 416.43212,725.555117 421.220274,721.234426 C422.293391,720.266076 429.130055,714.176371 430.408916,712.98543 L441.584987,702.5777 L433.465858,715.512349 C421.139471,735.149617 410.005576,749.292039 400.452279,758.515939 C396.944664,761.902612 393.851384,764.415669 391.360584,766.021363 C390.333924,766.683199 389.444919,767.165362 388.747842,767.444531 C388.339037,767.608252 387.976934,767.712948 387.618318,767.747482 C387.252852,767.782677 386.894934,767.753404 386.501249,767.586727 C385.749015,767.26825 385.232232,766.534837 385.232232,765.675936 Z M511.165546,547.407141 L508.906341,551.414287 L507.516787,547.029043 C504.402288,537.200107 502.128796,522.387648 501.499681,509.031915 C500.78382,493.834597 501.990544,484.709005 506.786141,484.709005 C513.526509,484.709005 516.617032,495.517473 516.862394,511.761673 C517.078082,526.041253 514.831784,540.904347 511.165546,547.407141 Z M505.355439,605.871228 L506.890065,601.821207 L508.977938,605.615747 C520.667875,626.86126 535.8361,644.582884 552.515845,656.931141 L556.110863,659.592586 L551.730335,660.497251 C535.40299,663.869168 520.187248,668.953564 499.390946,677.33949 C501.564922,676.462853 477.767982,686.202418 471.752924,688.507725 L466.501126,690.520508 L469.303029,685.643827 C481.653576,664.14784 493.060924,638.317593 505.355439,605.871228 Z M662.981912,682.132287 C655.118476,685.235954 638.204624,682.460543 608.413031,669.745246 L600.85156,666.517948 L609.050535,665.911237 C632.346398,664.18738 648.858048,665.470466 658.47298,668.991598 C662.562384,670.489199 665.297023,672.378742 666.509957,674.543637 C667.819231,676.880484 667.220334,679.353985 665.14796,680.85327 C664.70033,681.281338 663.992773,681.733304 662.981912,682.132287 Z" id="Combined-Shape" fill="#000000" fill-rule="nonzero"></path>
    </g>
</svg>