<?xml version="1.0" encoding="utf-8"?>
<!-- Generator: Adobe Illustrator 21.0.0, SVG Export Plug-In . SVG Version: 6.00 Build 0)  -->
<svg version="1.1" id="图层_1" xmlns="http://www.w3.org/2000/svg" xmlns:xlink="http://www.w3.org/1999/xlink" x="0px" y="0px"
	 viewBox="0 0 1024 1024" style="enable-background:new 0 0 1024 1024;" xml:space="preserve">
<style type="text/css">
	.st0{fill:none;}
</style>
<title>file -exception</title>
<desc>Created with Sketch.</desc>
<g>
	<path class="st0" d="M672,580c-40.6,0-78.8,15.8-107.5,44.5C535.8,653.2,520,691.4,520,732s15.8,78.8,44.5,107.5
		C593.2,868.2,631.4,884,672,884s78.8-15.8,107.5-44.5C808.2,810.8,824,772.6,824,732s-15.8-78.8-44.5-107.5
		C750.8,595.8,712.6,580,672,580z M644,628c0-4.4,3.6-8,8-8h40c4.4,0,8,3.6,8,8v112c0,4.4-3.6,8-8,8h-40c-4.4,0-8-3.6-8-8V628z
		 M672,844c-17.7,0-32-14.3-32-32s14.3-32,32-32s32,14.3,32,32S689.7,844,672,844z"/>
	<path d="M688,312v-48c0-4.4-3.6-8-8-8H296c-4.4,0-8,3.6-8,8v48c0,4.4,3.6,8,8,8h384C684.4,320,688,316.4,688,312z"/>
	<path d="M296,400c-4.4,0-8,3.6-8,8v48c0,4.4,3.6,8,8,8h184c4.4,0,8-3.6,8-8v-48c0-4.4-3.6-8-8-8H296z"/>
	<path d="M672,516c-119.3,0-216,96.7-216,216s96.7,216,216,216s216-96.7,216-216S791.3,516,672,516z M779.5,839.5
		C750.8,868.2,712.6,884,672,884s-78.8-15.8-107.5-44.5C535.8,810.8,520,772.6,520,732s15.8-78.8,44.5-107.5
		C593.2,595.8,631.4,580,672,580s78.8,15.8,107.5,44.5C808.2,653.2,824,691.4,824,732S808.2,810.8,779.5,839.5z"/>
	<circle cx="672" cy="812" r="32"/>
	<path d="M652,748h40c4.4,0,8-3.6,8-8V628c0-4.4-3.6-8-8-8h-40c-4.4,0-8,3.6-8,8v112C644,744.4,647.6,748,652,748z"/>
	<path d="M440,852H208V148h560v344c0,4.4,3.6,8,8,8h56c4.4,0,8-3.6,8-8V108c0-17.7-14.3-32-32-32H168c-17.7,0-32,14.3-32,32v784
		c0,17.7,14.3,32,32,32h272c4.4,0,8-3.6,8-8v-56C448,855.6,444.4,852,440,852z"/>
</g>
</svg>
