<?xml version="1.0" encoding="utf-8"?>
<svg id="file-word" viewBox="0 0 1024 1024" version="1.1" xmlns="http://www.w3.org/2000/svg" xmlns:xlink="http://www.w3.org/1999/xlink">
  <path d="M874.6 301.8L596.8 21.3c-4.5-4.5-9.4-8.3-14.7-11.5-1.4-0.8-2.8-1.6-4.3-2.3-0.9-0.5-1.9-0.9-2.8-1.3-9-4-18.9-6.2-29-6.2H201c-39.8 0-73 32.2-73 72v880c0 39.8 33.2 72 73 72h623c39.8 0 71-32.2 71-72V352.5c0-19-7-37.2-20.4-50.7zM583 110.4L783.8 312H583V110.4zM823 952H200V72h311v240c0 39.8 33.2 72 73 72h239v568zM558.6 753.9c-0.4-32.6 0-64.1-0.6-94.4l-7.4-135.8h-60l-54.4 135.8c-11.4 30.8-23.1 62.7-34.2 94.4h-1.7l4.6-94.4 5-135.8h-73.3l2.1 298.3h88.4L476 691.9c8.4-22.8 16.2-47.1 23.8-69.5h2c-1.2 22.4-1.4 46.6-0.6 69.5l4 130.1h90.1l104.2-298.3h-68.1l-43.1 135.8c-9 30.8-18.6 61.8-27.9 94.4h-1.8z"></path>
</svg>