<?xml version="1.0" encoding="utf-8"?>

<svg id="file-excle" viewBox="0 0 1024 1024">
  <path d="M874.6 301.8L596.8 21.3c-4.5-4.5-9.4-8.3-14.7-11.5-1.4-0.8-2.8-1.6-4.3-2.3-0.9-0.5-1.9-0.9-2.8-1.3-9-4-18.9-6.2-29-6.2H201c-39.8 0-73 32.2-73 72v880c0 39.8 33.2 72 73 72h623c39.8 0 71-32.2 71-72V352.5c0-19-7-37.2-20.4-50.7zM583 110.4L783.8 312H583V110.4zM823 952H200V72h311v240c0 39.8 33.2 72 73 72h239v568zM460.2 667.3l-55.8-155.8h85.9l15.8 57.4c4.2 15.2 8.6 31.9 14 52.6h1.7c11-20.7 20.8-37.6 30.1-52.6l33.4-57.4h81.6l-111 159.3 60 161.9H530L511.2 770c-4.8-16.9-9.1-33.6-14.3-53.5h-1.7C484 736.4 474 753.2 463.8 770l-38.7 62.6h-82.4l117.5-165.3z"></path>
</svg>