<?xml version="1.0" encoding="UTF-8"?>
<svg width="1024px" height="1024px" viewBox="0 0 1024 1024" version="1.1" xmlns="http://www.w3.org/2000/svg" xmlns:xlink="http://www.w3.org/1999/xlink">
    <!-- Generator: Sketch 50.2 (55047) - http://www.bohemiancoding.com/sketch -->
    <title>file-markdown-fill</title>
    <desc>Created with Sketch.</desc>
    <defs></defs>
    <g id="file-markdown-fill" stroke="none" stroke-width="1" fill="none" fill-rule="evenodd">
        <path d="M854.6,288.7 C860.6,294.7 864,302.8 864,311.3 L864,928 C864,945.7 849.7,960 832,960 L192,960 C174.3,960 160,945.7 160,928 L160,96 C160,78.3 174.3,64 192,64 L616.7,64 C625.2,64 633.4,67.4 639.4,73.4 L854.6,288.7 Z M790.2,326 L602,137.8 L602,326 L790.2,326 Z M426.130606,600.929284 L485.240219,733.904903 C487.808912,739.683548 493.539664,743.40757 499.863501,743.40757 L523.919108,743.40757 C530.249033,743.40757 535.984104,739.676461 538.5492,733.889559 L597.657974,600.539133 L597.657974,757.998046 C597.657974,766.836221 604.82273,774.000977 613.660904,774.000977 L640.998046,774.000977 C649.836221,774.000977 657.000977,766.836221 657.000977,757.998046 L657.000977,486.001954 C657.000977,477.163779 649.836221,469.999023 640.998046,469.999023 L606.251865,469.999023 C599.883014,469.999023 594.120409,473.775596 591.578629,479.615255 L512.10571,662.201736 L432.632791,479.615255 C430.09101,473.775596 424.328406,469.999023 417.959555,469.999023 L383.001954,469.999023 C374.163779,469.999023 366.999023,477.163779 366.999023,486.001954 L366.999023,757.998046 C366.999023,766.836221 374.163779,774.000977 383.001954,774.000977 L410.127676,774.000977 C418.96585,774.000977 426.130606,766.836221 426.130606,757.998046 L426.130606,600.929284 Z" id="Combined-Shape" fill="#000000" fill-rule="nonzero"></path>
    </g>
</svg>