<?xml version="1.0" encoding="utf-8"?>
<svg id="file-pdf" viewBox="0 0 1024 1024" version="1.1" xmlns="http://www.w3.org/2000/svg" xmlns:xlink="http://www.w3.org/1999/xlink">
  <path d="M874.6 301.8L596.8 21.3c-4.5-4.5-9.4-8.3-14.7-11.5-1.4-0.8-2.8-1.6-4.3-2.3-0.9-0.5-1.9-0.9-2.8-1.3-9-4-18.9-6.2-29-6.2H201c-39.8 0-73 32.2-73 72v880c0 39.8 33.2 72 73 72h623c39.8 0 71-32.2 71-72V352.5c0-19-7-37.2-20.4-50.7zM583 110.4L783.8 312H583V110.4zM823 952H200V72h311v240c0 39.8 33.2 72 73 72h239v568zM332.7 576H266v192h46v-64h22.1c40.4 0 75.6-20.2 75.6-65.7-0.1-47.3-34.7-62.3-77-62.3z m-0.9 92H312v-56h18.5c22.2 0 34.5 7 34.5 26.4 0 18.7-10.8 29.6-33.2 29.6zM497.5 576H442v192h58.1c55.8 0 94.4-30.4 94.4-97s-38.6-95-97-95z m-2.9 155H489V613h5.6c30.9 0 52.7 12.8 52.7 58.3S525.5 731 494.6 731zM752 614v-38H630v192h46v-73h65v-38h-65v-43z"></path>
</svg>