<?xml version="1.0" encoding="utf-8"?>

<svg id="file-unknown" viewBox="0 0 1024 1024">
  <path d="M874.6 301.8L596.8 21.3c-4.5-4.5-9.4-8.3-14.7-11.5-1.4-0.8-2.8-1.6-4.3-2.3-0.9-0.5-1.9-0.9-2.8-1.3-9-4-18.9-6.2-29-6.2H201c-39.8 0-73 32.2-73 72v880c0 39.8 33.2 72 73 72h623c39.8 0 71-32.2 71-72V352.5c0-19-7-37.2-20.4-50.7zM583 110.4L783.8 312H583V110.4zM823 952H200V72h311v240c0 39.8 33.2 72 73 72h239v568zM510.2 566.7c0-24.9-17.5-37.8-40.7-37.8-23.2 0-39.5 11.8-57 29.3l-55.2-50.8c31-35.6 73.9-59.3 124.7-59.3 70 0 124.7 33.3 124.7 111.7s-96.5 101.5-89.2 176H430c-13.4-86.8 80.2-122.9 80.2-169.1zM432.1 833.6c0-23.9 17.2-43 41.4-43 23.9 0 41.4 19.1 41.4 43 0 24.3-17.6 43.4-41.4 43.4-24.1 0-41.4-19.1-41.4-43.4z"></path>
</svg>