<?xml version="1.0" encoding="UTF-8"?>
<svg width="1024px" height="1024px" viewBox="0 0 1024 1024" version="1.1" xmlns="http://www.w3.org/2000/svg" xmlns:xlink="http://www.w3.org/1999/xlink">
    <!-- Generator: Sketch 50.2 (55047) - http://www.bohemiancoding.com/sketch -->
    <title>file-ppt-fill</title>
    <desc>Created with Sketch.</desc>
    <defs></defs>
    <g id="file-ppt-fill" stroke="none" stroke-width="1" fill="none" fill-rule="evenodd">
        <path d="M854.6,288.7 C860.6,294.7 864,302.8 864,311.3 L864,928 C864,945.7 849.7,960 832,960 L192,960 C174.3,960 160,945.7 160,928 L160,96 C160,78.3 174.3,64 192,64 L616.7,64 C625.2,64 633.4,67.4 639.4,73.4 L854.6,288.7 Z M790.2,326 L602,137.8 L602,326 L790.2,326 Z M468.526208,760 L468.526208,668.463004 L527.802672,668.463004 C588.372142,668.463004 628,628.807789 628,570.338462 C628,512.115542 588.42362,472 528.016444,472 L424,472 C417.372583,472 412,477.372583 412,484 L412,760 C412,766.627417 417.372583,772 424,772 L456.526208,772 C463.153625,772 468.526208,766.627417 468.526208,760 Z M468.526208,620.673993 L503.432682,620.673993 C551.248262,620.673993 570.618705,607.737311 570.618705,570.338462 C570.618705,538.293412 552.502253,520.21685 520.748201,520.21685 L468.526208,520.21685 L468.526208,620.673993 Z" id="Combined-Shape" fill="#000000" fill-rule="nonzero"></path>
    </g>
</svg>