<?xml version="1.0" encoding="utf-8"?>
<!-- Generator: Adobe Illustrator 21.0.0, SVG Export Plug-In . SVG Version: 6.00 Build 0)  -->
<svg version="1.1" id="图层_1" xmlns="http://www.w3.org/2000/svg" xmlns:xlink="http://www.w3.org/1999/xlink" x="0px" y="0px"
	 viewBox="0 0 1024 1024" style="enable-background:new 0 0 1024 1024;" xml:space="preserve">
<style type="text/css">
	.st0{fill:none;}
</style>
<title>file protect</title>
<desc>Created with Sketch.</desc>
<g>
	<path class="st0" d="M550,577v186.7l138,107.9l138-107.9V577l-138-48L550,577z M737.7,610H782c6.5,0,10.3,7.4,6.5,12.7l-114.2,158
		c-3.2,4.4-9.7,4.4-12.9,0l-73.8-102.1c-3.8-5.3,0-12.7,6.5-12.7h44.3c2.6,0,5,1.2,6.5,3.3l23.1,31.9l63.5-87.8
		C732.8,611.2,735.2,610,737.7,610z"/>
	<path d="M644.7,669.2c-1.5-2.1-3.9-3.3-6.5-3.3H594c-6.5,0-10.3,7.4-6.5,12.7l73.8,102.1c3.2,4.4,9.7,4.4,12.9,0l114.2-158
		c3.8-5.3,0-12.7-6.5-12.7h-44.3c-2.6,0-5,1.2-6.5,3.3l-63.5,87.8L644.7,669.2z"/>
	<path d="M688,306v-48c0-4.4-3.6-8-8-8H296c-4.4,0-8,3.6-8,8v48c0,4.4,3.6,8,8,8h384C684.4,314,688,310.4,688,306z"/>
	<path d="M296,394c-4.4,0-8,3.6-8,8v48c0,4.4,3.6,8,8,8h184c4.4,0,8-3.6,8-8v-48c0-4.4-3.6-8-8-8H296z"/>
	<path d="M480,852H208V148h560v296c0,4.4,3.6,8,8,8h56c4.4,0,8-3.6,8-8V108c0-17.7-14.3-32-32-32H168c-17.7,0-32,14.3-32,32v784
		c0,17.7,14.3,32,32,32h312c4.4,0,8-3.6,8-8v-56C488,855.6,484.4,852,480,852z"/>
	<path d="M882.6,531.2l-192-66.7c-0.9-0.3-1.7-0.4-2.6-0.4s-1.8,0.1-2.6,0.4l-192,66.7c-3.2,1.1-5.4,4.1-5.4,7.5v251.1
		c0,2.5,1.1,4.8,3.1,6.3l192,150.2c1.4,1.1,3.2,1.7,4.9,1.7s3.5-0.6,4.9-1.7l192-150.2c1.9-1.5,3.1-3.8,3.1-6.3V538.7
		C888,535.3,885.8,532.3,882.6,531.2z M826,763.7L688,871.6L550,763.7V577l138-48l138,48V763.7z"/>
</g>
</svg>
