<?xml version="1.0" encoding="utf-8"?>
<svg id="file-ppt" viewBox="0 0 1024 1024" version="1.1" xmlns="http://www.w3.org/2000/svg" xmlns:xlink="http://www.w3.org/1999/xlink">
  <path d="M874.6 301.8L596.8 21.3c-4.5-4.5-9.4-8.3-14.7-11.5-1.4-0.8-2.8-1.6-4.3-2.3-0.9-0.5-1.9-0.9-2.8-1.3-9-4-18.9-6.2-29-6.2H201c-39.8 0-73 32.2-73 72v880c0 39.8 33.2 72 73 72h623c39.8 0 71-32.2 71-72V352.5c0-19-7-37.2-20.4-50.7zM583 110.4L783.8 312H583V110.4zM823 952H200V72h311v240c0 39.8 33.2 72 73 72h239v568zM538.2 506H425.5l-56.7 334H446l18.8-119h37.6c67.8 0 132.9-33.9 146.4-110.3C662.9 531.3 609 506 538.2 506z m35.5 104.7c-5.5 31.4-26.7 49.3-64.3 49.3h-33.6l16.3-93h31.5c37 0 55.8 11.3 50.1 43.7z"></path>
</svg>