<?xml version="1.0" encoding="utf-8"?>

<svg id="file-text" viewBox="0 0 1024 1024">
  <path d="M874.6 301.8L596.8 21.3c-4.5-4.5-9.4-8.3-14.7-11.5-1.4-0.8-2.8-1.6-4.3-2.3-0.9-0.5-1.9-0.9-2.8-1.3-9-4-18.9-6.2-29-6.2H201c-39.8 0-73 32.2-73 72v880c0 39.8 33.2 72 73 72h623c39.8 0 71-32.2 71-72V352.5c0-19-7-37.2-20.4-50.7zM583 110.4L783.8 312H583V110.4zM823 952H200V72h311v240c0 39.8 33.2 72 73 72h239v568zM584 484c0-19.9-16.1-36-36-36H292c-19.9 0-36 16.1-36 36s16.1 36 36 36h256c19.9 0 36-16.1 36-36zM776 644c0-19.9-16.1-36-36-36H292c-19.9 0-36 16.1-36 36s16.1 36 36 36h448c19.9 0 36-16.1 36-36zM648 804c0-19.9-16.1-36-36-36H292c-19.9 0-36 16.1-36 36s16.1 36 36 36h320c19.9 0 36-16.1 36-36z"></path>
</svg>