<?xml version="1.0" encoding="utf-8"?>
<!-- Generator: Adobe Illustrator 21.0.0, SVG Export Plug-In . SVG Version: 6.00 Build 0)  -->
<svg version="1.1" id="图层_1" xmlns="http://www.w3.org/2000/svg" xmlns:xlink="http://www.w3.org/1999/xlink" x="0px" y="0px"
	 viewBox="0 0 1024 1024" style="enable-background:new 0 0 1024 1024;" xml:space="preserve">
<style type="text/css">
	.st0{fill:none;}
</style>
<title>file-exclamation</title>
<desc>Created with Sketch.</desc>
<g>
	<polygon class="st0" points="602,326 790.2,326 602,137.8 	"/>
	<path class="st0" d="M534,352V136H232v752h560V394H576C552.8,394,534,375.2,534,352z M480,448c0-4.4,3.6-8,8-8h48c4.4,0,8,3.6,8,8
		v184c0,4.4-3.6,8-8,8h-48c-4.4,0-8-3.6-8-8V448z M512,784c-22.1,0-40-17.9-40-40s17.9-40,40-40s40,17.9,40,40S534.1,784,512,784z"
		/>
	<path d="M854.6,288.6L639.4,73.4c-6-6-14.1-9.4-22.6-9.4H192c-17.7,0-32,14.3-32,32v832c0,17.7,14.3,32,32,32h640
		c17.7,0,32-14.3,32-32V311.3C864,302.8,860.6,294.6,854.6,288.6z M790.2,326H602V137.8L790.2,326z M792,888H232V136h302v216
		c0,23.2,18.8,42,42,42h216V888z"/>
	<circle cx="512" cy="744" r="40"/>
	<path d="M488,640h48c4.4,0,8-3.6,8-8V448c0-4.4-3.6-8-8-8h-48c-4.4,0-8,3.6-8,8v184C480,636.4,483.6,640,488,640z"/>
</g>
</svg>
