<?xml version="1.0" encoding="utf-8"?>

<svg id="filter" viewBox="0 0 1024 1024">
  <path d="M890.1 176.6c-12.8-31-42.8-51-76.4-51L212 125.6c-33.5 0-63.5 20-76.4 51-12.9 31-5.9 66.3 17.8 90.1l273 263.3 0 262c0 9.3 3.6 18.3 10.1 25l125.2 129.5c6.9 7.2 16.3 11 25.9 11 4.5 0 9.1-0.9 13.5-2.6 13.6-5.5 22.5-18.7 22.5-33.4L623.6 528.3l248.5-261.5C895.9 243 902.9 207.7 890.1 176.6zM821.2 215.8 562.2 487.9c-6.8 6.8-10.5 15.9-10.5 25.5l0 322-53.2-58L498.5 515c0-9.5-3.8-18.7-10.5-25.4L204.4 215.8c-4.2-4.2-3.5-8.6-2.3-11.6 1.2-3 4-6.6 9.9-6.6l601.7 0c5.9 0 8.6 3.6 9.9 6.6C824.8 207.2 825.4 211.7 821.2 215.8z"></path>
</svg>