<?xml version="1.0" encoding="utf-8"?>
<!-- Generator: Adobe Illustrator 21.0.0, SVG Export Plug-In . SVG Version: 6.00 Build 0)  -->
<svg version="1.1" id="图层_1" xmlns="http://www.w3.org/2000/svg" xmlns:xlink="http://www.w3.org/1999/xlink" x="0px" y="0px"
	 viewBox="0 0 1024 1024" style="enable-background:new 0 0 1024 1024;" xml:space="preserve">
<style type="text/css">
	.st0{fill:none;}
</style>
<title>folder-open-fill</title>
<desc>Created with Sketch.</desc>
<g>
	<path class="st0" d="M324.5,256H136v387.2L208.3,464c4.9-12.1,16.6-20,29.7-20h510v-73.6H444.1L324.5,256z"/>
	<path d="M928,444H820V330.4c0-17.7-14.3-32-32-32H473L355.7,186.2c-1.5-1.4-3.5-2.2-5.5-2.2H96c-17.7,0-32,14.3-32,32v592
		c0,17.7,14.3,32,32,32h8h690c13,0,24.8-7.9,29.7-20l134-332c1.5-3.8,2.3-7.9,2.3-12C960,458.3,945.7,444,928,444z M748,444H238
		c-13,0-24.8,7.9-29.7,20L136,643.2V256h188.5l119.6,114.4H748V444z"/>
</g>
</svg>
