<?xml version="1.0" encoding="utf-8"?>
<!-- Generator: Adobe Illustrator 21.0.0, SVG Export Plug-In . SVG Version: 6.00 Build 0)  -->
<svg version="1.1" id="图层_1" xmlns="http://www.w3.org/2000/svg" xmlns:xlink="http://www.w3.org/1999/xlink" x="0px" y="0px"
	 viewBox="0 0 1024 1024" style="enable-background:new 0 0 1024 1024;" xml:space="preserve">
<style type="text/css">
	.st0{fill:none;}
</style>
<title>fork</title>
<desc>Created with Sketch.</desc>
<g>
	<path class="st0" d="M320,212c0-26.5-21.5-48-48-48s-48,21.5-48,48s21.5,48,48,48S320,238.5,320,212z"/>
	<path class="st0" d="M512,764c-26.5,0-48,21.5-48,48s21.5,48,48,48c26.5,0,48-21.5,48-48S538.5,764,512,764z"/>
	<path class="st0" d="M752,164c-26.5,0-48,21.5-48,48s21.5,48,48,48s48-21.5,48-48S778.5,164,752,164z"/>
	<path d="M752,100c-61.8,0-112,50.2-112,112c0,47.7,29.9,88.5,72,104.6v27.6L512,601.4L312,344.2v-27.6c42.1-16.1,72-56.9,72-104.6
		c0-61.8-50.2-112-112-112s-112,50.2-112,112c0,50.6,33.8,93.5,80,107.3v34.4c0,9.7,3.3,19.3,9.3,27L476,672.3v33.6
		c-44.2,15-76,56.9-76,106.1c0,61.8,50.2,112,112,112s112-50.2,112-112c0-49.2-31.8-91-76-106.1v-33.6l226.7-291.6
		c6-7.7,9.3-17.3,9.3-27v-34.4c46.2-13.8,80-56.7,80-107.3C864,150.2,813.8,100,752,100z M224,212c0-26.5,21.5-48,48-48
		s48,21.5,48,48s-21.5,48-48,48S224,238.5,224,212z M560,812c0,26.5-21.5,48-48,48c-26.5,0-48-21.5-48-48s21.5-48,48-48
		C538.5,764,560,785.5,560,812z M752,260c-26.5,0-48-21.5-48-48s21.5-48,48-48s48,21.5,48,48S778.5,260,752,260z"/>
</g>
</svg>
