<?xml version="1.0" encoding="utf-8"?>
<svg id="frown" viewBox="0 0 1024 1024" version="1.1" xmlns="http://www.w3.org/2000/svg" xmlns:xlink="http://www.w3.org/1999/xlink">
  <path d="M512 0C229.2 0 0 229.2 0 512s229.2 512 512 512 512-229.2 512-512S794.8 0 512 0zM254.2 442.4c-33.1 0-60-26.9-60-60s26.9-60 60-60 60 26.9 60 60S287.3 442.4 254.2 442.4zM640.3 765.5c-19.9 0-36-16.1-36-36 0-50.9-41.4-92.3-92.3-92.3-50.9 0-92.3 41.4-92.3 92.3 0 19.9-16.1 36-36 36s-36-16.1-36-36c0-90.6 73.7-164.3 164.3-164.3 90.6 0 164.3 73.7 164.3 164.3C676.3 749.4 660.2 765.5 640.3 765.5zM769.5 442.4c-33.1 0-60-26.9-60-60s26.9-60 60-60 60 26.9 60 60S802.6 442.4 769.5 442.4z"></path>
</svg>