<?xml version="1.0" encoding="utf-8"?>
<!-- Generator: Adobe Illustrator 21.0.0, SVG Export Plug-In . SVG Version: 6.00 Build 0)  -->
<svg version="1.1" id="图层_1" xmlns="http://www.w3.org/2000/svg" xmlns:xlink="http://www.w3.org/1999/xlink" x="0px" y="0px"
	 viewBox="0 0 1024 1024" style="enable-background:new 0 0 1024 1024;" xml:space="preserve">
<title>fullscreen-exit</title>
<desc>Created with Sketch.</desc>
<g>
	<path d="M391,240.9c-0.8-6.6-8.9-9.4-13.6-4.7l-43.7,43.7L200,146.3c-3.1-3.1-8.2-3.1-11.3,0l-42.4,42.3c-3.1,3.1-3.1,8.2,0,11.3
		L280,333.6l-43.9,43.9c-4.7,4.7-1.9,12.8,4.7,13.6l160.2,18.9c5.1,0.6,9.5-3.7,8.9-8.9L391,240.9z"/>
	<path d="M401.1,614.1L240.8,633c-6.6,0.8-9.4,8.9-4.7,13.6l43.9,43.9L146.3,824c-3.1,3.1-3.1,8.2,0,11.3l42.4,42.3
		c3.1,3.1,8.2,3.1,11.3,0l133.7-133.6l43.7,43.7c4.7,4.7,12.8,1.9,13.6-4.7l18.9-160.1C410.5,617.8,406.2,613.5,401.1,614.1z"/>
	<path d="M622.9,409.9L783.2,391c6.6-0.8,9.4-8.9,4.7-13.6L744,333.6L877.7,200c3.1-3.1,3.1-8.2,0-11.3l-42.4-42.3
		c-3.1-3.1-8.2-3.1-11.3,0L690.3,279.9l-43.7-43.7c-4.7-4.7-12.8-1.9-13.6,4.7l-18.9,160.1C613.5,406.2,617.8,410.5,622.9,409.9z"/>
	<path d="M744,690.4l43.9-43.9c4.7-4.7,1.9-12.8-4.7-13.6l-160.2-18.9c-5.1-0.6-9.5,3.7-8.9,8.9L633,783.1c0.8,6.6,8.9,9.4,13.6,4.7
		l43.7-43.7L824,877.7c3.1,3.1,8.2,3.1,11.3,0l42.4-42.3c3.1-3.1,3.1-8.2,0-11.3L744,690.4z"/>
</g>
</svg>
