<?xml version="1.0" encoding="utf-8"?>

<svg id="gift" viewBox="0 0 1024 1024">
  <path d="M888 320H640c70.7 0 128-57.3 128-128S710.7 64 640 64s-128 57.3-128 128c0-70.7-57.3-128-128-128s-128 57.3-128 128 57.3 128 128 128H136c-39.8 0-72 32.2-72 72v112c0 39.8 32.2 72 72 72h-8v312c0 39.8 32.2 72 72 72h624c39.8 0 72-32.2 72-72V576h-8c39.8 0 72-32.2 72-72V392c0-39.8-32.2-72-72-72z m-504-72c-30.9 0-56-25.1-56-56s25.1-56 56-56 56 25.1 56 56v56h-56z m92 640H200V576h276v312z m0-384H136V392h340v112z m108-312c0-30.9 25.1-56 56-56s56 25.1 56 56-25.1 56-56 56h-56v-56z m240 696H548V576h276v312z m64-384H548V392h340v112z"></path>
</svg>