<?xml version="1.0" encoding="utf-8"?>
<!-- Generator: Adobe Illustrator 21.0.0, SVG Export Plug-In . SVG Version: 6.00 Build 0)  -->
<svg version="1.1" id="图层_1" xmlns="http://www.w3.org/2000/svg" xmlns:xlink="http://www.w3.org/1999/xlink" x="0px" y="0px"
	 viewBox="0 0 1024 1024" style="enable-background:new 0 0 1024 1024;" xml:space="preserve">
<style type="text/css">
	.st0{fill:none;}
</style>
<title>gift-fill</title>
<desc>Created with Sketch.</desc>
<g>
	<path class="st0" d="M616,166c-38.6,0-70,31.4-70,70v70h70c38.6,0,70-31.4,70-70S654.6,166,616,166z"/>
	<path class="st0" d="M408,166c-38.6,0-70,31.4-70,70s31.4,70,70,70h70v-70C478,197.4,446.6,166,408,166z"/>
	<path d="M160,894c0,17.7,14.3,32,32,32h286V550H160V894z"/>
	<path d="M546,926h286c17.7,0,32-14.3,32-32V550H546V926z"/>
	<path d="M880,310H732.4c13.6-21.4,21.6-46.8,21.6-74c0-76.1-61.9-138-138-138c-41.4,0-78.7,18.4-104,47.4
		c-25.3-29-62.6-47.4-104-47.4c-76.1,0-138,61.9-138,138c0,27.2,7.9,52.6,21.6,74H144c-17.7,0-32,14.3-32,32v140h366V374v-64h68v64
		v108h366V342C912,324.3,897.7,310,880,310z M478,306h-70c-38.6,0-70-31.4-70-70s31.4-70,70-70c38.6,0,70,31.4,70,70V306z M616,306
		h-70v-70c0-38.6,31.4-70,70-70s70,31.4,70,70S654.6,306,616,306z"/>
</g>
</svg>
