<?xml version="1.0" encoding="utf-8"?>
<!-- Generator: Adobe Illustrator 21.0.0, SVG Export Plug-In . SVG Version: 6.00 Build 0)  -->
<svg version="1.1" id="图层_1" xmlns="http://www.w3.org/2000/svg" xmlns:xlink="http://www.w3.org/1999/xlink" x="0px" y="0px"
	 viewBox="0 0 1024 1024" style="enable-background:new 0 0 1024 1024;" xml:space="preserve">
<title>github-fill</title>
<desc>Created with Sketch.</desc>
<path d="M511.6,76.3C264.3,76.2,64,276.4,64,523.5C64,718.9,189.3,885,363.8,946c23.5,5.9,19.9-10.8,19.9-22.2v-77.5
	c-135.7,15.9-141.2-73.9-150.3-88.9C215,726,171.5,718,184.5,703c30.9-15.9,62.4,4,98.9,57.9c26.4,39.1,77.9,32.5,104,26
	c5.7-23.5,17.9-44.5,34.7-60.8c-140.6-25.2-199.2-111-199.2-213c0-49.5,16.3-95,48.3-131.7c-20.4-60.5,1.9-112.3,4.9-120
	c58.1-5.2,118.5,41.6,123.2,45.3c33-8.9,70.7-13.6,112.9-13.6c42.4,0,80.2,4.9,113.5,13.9c11.3-8.6,67.3-48.8,121.3-43.9
	c2.9,7.7,24.7,58.3,5.5,118c32.4,36.8,48.9,82.7,48.9,132.3c0,102.2-59,188.1-200,212.9c23.5,23.2,38.1,55.4,38.1,91v112.5
	c0.8,9,0,17.9,15,17.9c177.1-59.7,304.6-227,304.6-424.1C959.1,276.4,758.7,76.3,511.6,76.3z"/>
</svg>
