<?xml version="1.0" encoding="utf-8"?>
<svg id="github" viewBox="0 0 1024 1024" version="1.1" xmlns="http://www.w3.org/2000/svg" xmlns:xlink="http://www.w3.org/1999/xlink">
  <path d="M0 525.195313c0 223.59375 143.300781 413.691406 343.007813 483.496094 26.894531 6.796875 22.792969-12.402344 22.792969-25.390625l0-88.691406c-155.292969 18.203125-161.503906-84.609375-171.992188-101.699219-21.09375-35.996094-70.800781-45.195313-55.996094-62.304688 35.390625-18.203125 71.40625 4.609375 113.105469 66.308594 30.195313 44.707031 89.101563 37.207031 119.003906 29.707031 6.503906-26.894531 20.507813-50.898438 39.707031-69.609375-160.800781-28.808594-227.910156-126.992188-227.910156-243.808594 0-56.601563 18.691406-108.691406 55.292969-150.703125-23.300781-69.296875 2.207031-128.496094 5.605469-137.304688 66.503906-5.996094 135.507813 47.597656 140.898438 51.796875 37.792969-10.195313 80.898438-15.605469 129.101563-15.605469 48.496094 0 91.796875 5.605469 129.804688 15.898438 12.890625-9.804688 76.992188-55.800781 138.808594-50.195313 3.300781 8.808594 28.203125 66.699219 6.308594 135 37.109375 42.109375 55.996094 94.609375 55.996094 151.40625 0 116.992188-67.5 215.292969-228.808594 243.691406 26.894531 26.601562 43.59375 63.398438 43.59375 104.199219l0 128.808594c0.898437 10.292969 0 20.507813 17.207031 20.507813 202.597656-68.300781 348.496094-259.804688 348.496094-485.410156 0-282.910156-229.296875-511.992188-511.992188-511.992188C229.101563 13.203125 0 242.304687 0 525.195313L0 525.195313z"></path>
</svg>