<?xml version="1.0" encoding="utf-8"?>
<!-- Generator: Adobe Illustrator 21.0.0, SVG Export Plug-In . SVG Version: 6.00 Build 0)  -->
<svg version="1.1" id="图层_1" xmlns="http://www.w3.org/2000/svg" xmlns:xlink="http://www.w3.org/1999/xlink" x="0px" y="0px"
	 viewBox="0 0 1024 1024" style="enable-background:new 0 0 1024 1024;" xml:space="preserve">
<style type="text/css">
	.st0{fill:none;}
</style>
<title>Gitlab</title>
<desc>Created with Sketch.</desc>
<g>
	<path class="st0" d="M271.2,193.1c-0.5-1.6-0.7-1.7-3.4-1.7c-1.1,0-2.5,0.3-3.4,2.9l-57.9,199.9h132.1L271.2,193.1z"/>
	<polygon class="st0" points="158.8,558.7 389.4,731.6 187,461.4 	"/>
	<polygon class="st0" points="232.7,442.3 445.6,726.5 354.8,442.3 	"/>
	<path class="st0" d="M758.6,194.4c-0.9-2.6-2.3-3-3.4-3c-0.6,0-2.5,0.1-3.5,1.9l-67.3,200.9H818L758.6,194.4z"/>
	<polygon class="st0" points="630.1,736.2 866.8,558.7 837.4,459.5 	"/>
	<polygon class="st0" points="670.8,442.3 580,723.1 790.3,442.3 	"/>
	<polygon class="st0" points="405.7,442.3 512.9,776 620,442.3 	"/>
	<path d="M913.9,552.2L805,181.4l0-0.1c-7.6-22.9-25.7-36.5-48.3-36.5c-23.4,0-42.5,13.5-49.7,35.2l-71.4,213H388.8l-71.4-213
		c-7.2-21.7-26.3-35.2-49.7-35.2c-23.1,0-42.5,14.8-48.4,36.6L110.5,552.2c-4.4,14.7,1.2,31.4,13.5,40.7l368.5,276.4
		c2.6,3.6,6.2,6.3,10.4,7.8l8.6,6.4l8.5-6.4c4.9-1.7,9-4.7,11.9-8.9l368.4-275.4C912.7,583.6,918.3,566.9,913.9,552.2z M751.7,193.4
		c1-1.8,2.9-1.9,3.5-1.9c1.1,0,2.5,0.3,3.4,3L818,394.3H684.5L751.7,193.4z M264.3,194.4c0.9-2.6,2.3-2.9,3.4-2.9
		c2.7,0,2.9,0.1,3.4,1.7l67.3,201.2H206.5L264.3,194.4z M158.8,558.7l28.2-97.3l202.4,270.2L158.8,558.7z M232.7,442.3h122.1
		l90.8,284.3L232.7,442.3z M512.9,776L405.7,442.3H620L512.9,776z M670.8,442.3h119.5L580,723.1L670.8,442.3z M630.1,736.2
		l207.3-276.7l29.5,99.2L630.1,736.2z"/>
</g>
</svg>
