<?xml version="1.0" encoding="utf-8"?>
<svg id="global" viewBox="0 0 1024 1024" version="1.1" xmlns="http://www.w3.org/2000/svg" xmlns:xlink="http://www.w3.org/1999/xlink">
  <path d="M512 0C229.2 0 0 229.2 0 512s229.2 512 512 512 512-229.2 512-512S794.8 0 512 0zM394.4 87.9c-30.5 25.8-57.8 61.2-80.5 104.1-20.7-10.5-40.5-22.5-59.2-36h-1.4c42.1-30.6 89.7-53.9 141.1-68.1zM198.2 203.6c26.8 20.8 55.8 39 86.4 54.3C262.5 318 248 387.4 243.5 462H74.8c11.3-100.2 56.3-190.2 123.4-258.4zM72.5 534h169.8c2.2 85.3 17.5 164.6 42.3 232.1-30.7 15.2-59.6 33.5-86.4 54.3C124.9 745.9 78 645.4 72.5 534z m180.9 334h1.4c18.7-13.5 38.4-25.5 59.2-36 22.8 42.9 50 78.3 80.5 104.1-51.5-14.2-99.1-37.5-141.1-68.1zM481 906.1c-39.4-12.5-74.9-48.4-103-100.3 32.8-10.5 67.3-17.2 103-19.7v120z m0-192.2c-45.8 2.7-89.9 11.5-131.7 25.5-20.3-58.9-32.9-129.3-35-205.4H481v179.9z m0-251.9H315.5c4.1-65.4 16-125.8 33.7-177.4 41.8 14 85.9 22.7 131.7 25.5V462z m0-224.1c-35.7-2.5-70.2-9.2-103-19.7 28.1-52 63.6-87.9 103-100.3v120zM949.2 462H780.5c-4.5-74.6-19-144-41.1-204.1 30.7-15.2 59.6-33.5 86.4-54.3 67.1 68.2 112.1 158.2 123.4 258.4zM770.6 156h-1.4c-18.7 13.5-38.4 25.5-59.2 36-22.8-42.9-50-78.3-80.5-104.1 51.5 14.2 99.1 37.5 141.1 68.1zM553 121.6c35.4 15 67.3 49.1 93 96.6-29.7 9.5-60.9 15.9-93 18.9V121.6z m0 187.8c42.2-3.3 83-11.8 121.7-24.8 17.8 51.6 29.7 112 33.7 177.4H553V309.4z m0 224.6h156.7c-2.1 76.1-14.7 146.5-35 205.4-38.7-13-79.5-21.4-121.7-24.8V534z m0 368.4V786.9c32.1 3 63.2 9.4 93 18.9-25.7 47.5-57.6 81.6-93 96.6z m76.6 33.7c30.5-25.8 57.8-61.2 80.5-104.1 20.7 10.5 40.5 22.5 59.2 36h1.4c-42.1 30.6-89.7 53.9-141.1 68.1z m196.2-115.7c-26.8-20.8-55.8-39-86.4-54.3 24.9-67.5 40.1-146.9 42.3-232.1h169.8c-5.5 111.4-52.4 211.9-125.7 286.4z"></path>
</svg>