<?xml version="1.0" encoding="utf-8"?>
<!-- Generator: Adobe Illustrator 21.0.0, SVG Export Plug-In . SVG Version: 6.00 Build 0)  -->
<svg version="1.1" id="图层_1" xmlns="http://www.w3.org/2000/svg" xmlns:xlink="http://www.w3.org/1999/xlink" x="0px" y="0px"
	 viewBox="0 0 1024 1024" style="enable-background:new 0 0 1024 1024;" xml:space="preserve">
<style type="text/css">
	.st0{fill:none;}
</style>
<title>gold</title>
<desc>Created with Sketch.</desc>
<g>
	<polygon class="st0" points="217.2,620 196.5,748 397.5,748 376.8,620 	"/>
	<polygon class="st0" points="592.8,276 433.2,276 412.5,404 613.5,404 	"/>
	<polygon class="st0" points="647.2,620 626.5,748 827.5,748 806.8,620 	"/>
	<path d="M342,472h342c0.4,0,0.9,0,1.3-0.1c4.4-0.7,7.3-4.8,6.6-9.2l-40.2-248c-0.6-3.9-4-6.7-7.9-6.7H382.2c-3.9,0-7.3,2.8-7.9,6.7
		l-40.2,248c-0.1,0.4-0.1,0.9-0.1,1.3C334,468.4,337.6,472,342,472z M433.2,276h159.5l20.7,128h-201L433.2,276z"/>
	<path d="M435.7,558.7c-0.6-3.9-4-6.7-7.9-6.7H166.2c-3.9,0-7.3,2.8-7.9,6.7l-40.2,248c-0.1,0.4-0.1,0.9-0.1,1.3c0,4.4,3.6,8,8,8
		h342c0.4,0,0.9,0,1.3-0.1c4.4-0.7,7.3-4.8,6.6-9.2L435.7,558.7z M196.5,748l20.7-128h159.5l20.7,128H196.5z"/>
	<path d="M905.9,806.7l-40.2-248c-0.6-3.9-4-6.7-7.9-6.7H596.2c-3.9,0-7.3,2.8-7.9,6.7l-40.2,248c-0.1,0.4-0.1,0.9-0.1,1.3
		c0,4.4,3.6,8,8,8h342c0.4,0,0.9,0,1.3-0.1C903.6,815.2,906.6,811.1,905.9,806.7z M626.5,748l20.7-128h159.5l20.7,128H626.5z"/>
</g>
</svg>
