<?xml version="1.0" encoding="utf-8"?>
<!-- Generator: Adobe Illustrator 21.0.0, SVG Export Plug-In . SVG Version: 6.00 Build 0)  -->
<svg version="1.1" id="图层_1" xmlns="http://www.w3.org/2000/svg" xmlns:xlink="http://www.w3.org/1999/xlink" x="0px" y="0px"
	 viewBox="0 0 1024 1024" style="enable-background:new 0 0 1024 1024;" xml:space="preserve">
<title>google</title>
<desc>Created with Sketch.</desc>
<path d="M881,442.4H519.7v148.5h206.4c-8.9,48-35.9,88.6-76.6,115.8c-34.4,23-78.3,36.6-129.9,36.6c-99.9,0-184.4-67.5-214.6-158.2
	c-7.6-23-12-47.6-12-72.9s4.4-49.9,12-72.9c30.3-90.6,114.8-158.1,214.7-158.1c56.3,0,106.8,19.4,146.6,57.4l110-110.1
	c-66.5-62-153.2-100-256.6-100c-149.9,0-279.6,86-342.7,211.4c-26,51.8-40.8,110.4-40.8,172.4S151,632.8,177,684.6
	C240.1,810,369.8,896,519.7,896c103.6,0,190.4-34.4,253.8-93c72.5-66.8,114.4-165.2,114.4-282.1C887.9,493.7,885.5,467.6,881,442.4z
	"/>
</svg>
