<?xml version="1.0" encoding="utf-8"?>
<svg id="google-plus" viewBox="0 0 1024 1024" version="1.1" xmlns="http://www.w3.org/2000/svg" xmlns:xlink="http://www.w3.org/1999/xlink">
  <path d="M0.86 494.34C3.645 327.67 156.87 181.71 323.54 187.27c79.862-3.71 154.933 31.04 216.098 79.85-26.107 29.663-53.138 58.236-82.02 84.96-73.53-50.815-178.098-65.339-251.628-6.64-105.186 72.748-109.975 244.516-8.798 322.824 98.392 89.286 284.364 44.957 311.55-91.753-61.628-0.924-123.42 0-185.047-2.004-0.154-36.764-0.308-73.53-0.154-110.283 103.027-0.309 206.055-0.474 309.237 0.308 6.177 86.5-5.252 178.561-58.39 250.076-80.478 113.224-242.039 146.278-368.09 97.776C79.796 764.19-9.799 630.575 0.86 494.339z m832.875-122.958h91.907c0.154 30.742 0.308 61.638 0.616 92.37 30.742 0.319 61.639 0.319 92.37 0.627v91.907c-30.731 0.308-61.473 0.462-92.37 0.77-0.308 30.886-0.462 61.628-0.616 92.37H833.58c-0.308-30.742-0.308-61.484-0.617-92.215-30.742-0.309-61.627-0.617-92.369-0.925v-91.907c30.742-0.308 61.473-0.463 92.37-0.628 0.153-30.885 0.462-61.627 0.77-92.369z"></path>
</svg>