<?xml version="1.0" encoding="utf-8"?>
<!-- Generator: Adobe Illustrator 21.0.0, SVG Export Plug-In . SVG Version: 6.00 Build 0)  -->
<svg version="1.1" id="图层_1" xmlns="http://www.w3.org/2000/svg" xmlns:xlink="http://www.w3.org/1999/xlink" x="0px" y="0px"
	 viewBox="0 0 1024 1024" style="enable-background:new 0 0 1024 1024;" xml:space="preserve">
<style type="text/css">
	.st0{fill:none;}
</style>
<title>google plus-circle-fill</title>
<desc>Created with Sketch.</desc>
<g>
	<path class="st0" d="M411.6,486.2c-0.1,20.1,0,40.1,0.1,60.2c33.6,1.1,67.4,0.6,101,1.1c-14.8,74.6-116.3,98.8-170.1,50.1
		c-55.2-42.7-52.6-136.4,4.8-176.1c40.1-32,97.2-24.1,137.3,3.6c15.8-14.6,30.5-30.2,44.8-46.3c-33.4-26.6-74.4-45.6-118-43.6
		c-91-3-174.6,76.6-176.1,167.5v0c-5.8,74.3,43.1,147.2,112.1,173.5c68.8,26.5,157,8.4,200.9-53.3c29-39,35.2-89.2,31.9-136.4
		C524.1,486,467.8,486.1,411.6,486.2z"/>
	<path class="st0" d="M740.2,435.6h-50.2h0c-0.2,16.8-0.3,33.5-0.4,50.4c-16.9,0.1-33.6,0.2-50.4,0.3v50.1
		c16.8,0.2,33.6,0.3,50.4,0.5c0.2,16.8,0.2,33.5,0.3,50.3h50.3c0.1-16.8,0.2-33.5,0.3-50.4c16.9-0.2,33.6-0.3,50.4-0.4v-50.1
		c-16.8-0.2-33.6-0.2-50.4-0.3C740.4,469.2,740.3,452.4,740.2,435.6z"/>
	<g>
		<path class="st0" d="M411.6,486.2c-0.1,20.1,0,40.1,0.1,60.2c33.6,1.1,67.4,0.6,101,1.1c-14.8,74.6-116.3,98.8-170.1,50.1
			c-55.2-42.7-52.6-136.4,4.8-176.1c40.1-32,97.2-24.1,137.3,3.6c15.8-14.6,30.5-30.2,44.8-46.3c-33.4-26.6-74.4-45.6-118-43.6
			c-91-3-174.6,76.6-176.1,167.5v0c-5.8,74.3,43.1,147.2,112.1,173.5c68.8,26.5,157,8.4,200.9-53.3c29-39,35.2-89.2,31.9-136.4
			C524.1,486,467.8,486.1,411.6,486.2z"/>
		<path class="st0" d="M740.2,435.6h-50.2h0c-0.2,16.8-0.3,33.5-0.4,50.4c-16.9,0.1-33.6,0.2-50.4,0.3v50.1
			c16.8,0.2,33.6,0.3,50.4,0.5c0.2,16.8,0.2,33.5,0.3,50.3h50.3c0.1-16.8,0.2-33.5,0.3-50.4c16.9-0.2,33.6-0.3,50.4-0.4v-50.1
			c-16.8-0.2-33.6-0.2-50.4-0.3C740.4,469.2,740.3,452.4,740.2,435.6z"/>
		<path d="M512,64C264.6,64,64,264.6,64,512s200.6,448,448,448s448-200.6,448-448S759.4,64,512,64z M548.5,622.8
			c-43.9,61.8-132.1,79.8-200.9,53.3c-69-26.3-118-99.2-112.1-173.5v0c1.5-90.9,85.2-170.6,176.1-167.5c43.6-2,84.6,16.9,118,43.6
			c-14.3,16.2-29,31.8-44.8,46.3c-40.1-27.7-97.2-35.6-137.3-3.6c-57.4,39.7-60,133.4-4.8,176.1c53.7,48.7,155.2,24.5,170.1-50.1
			c-33.6-0.5-67.4,0-101-1.1c-0.1-20.1-0.2-40.1-0.1-60.2c56.2-0.2,112.5-0.3,168.8,0.2C583.8,533.6,577.5,583.8,548.5,622.8z
			 M791,536.5c-16.8,0.2-33.6,0.3-50.4,0.4c-0.2,16.8-0.3,33.6-0.3,50.4H690c-0.2-16.8-0.2-33.5-0.3-50.3
			c-16.8-0.2-33.6-0.3-50.4-0.5v-50.1c16.8-0.2,33.6-0.3,50.4-0.3c0.1-16.8,0.3-33.6,0.4-50.4h0h50.2c0.1,16.8,0.2,33.6,0.3,50.4
			c16.8,0.2,33.6,0.2,50.4,0.3V536.5z"/>
	</g>
</g>
</svg>
