<?xml version="1.0" encoding="utf-8"?>

<svg id="google" viewBox="0 0 1024 1024">
  <path d="M121.8 310.9l149.4 115.9C306.4 321.1 405 242.4 521.5 242.4c65.7 0 124.6 22.6 171 66.9L820.8 181C743.3 108.8 642.1 64.5 521.5 64.5c-174.8 0-326.1 100.2-399.7 246.4z"></path>
  <path d="M942.8 430.4H521.5v173h240.7c-10.4 55.9-41.9 103.3-89.3 135-40.1 26.8-91.3 42.7-151.5 42.7-116.5 0-215.1-78.7-250.3-184.4-8.9-26.8-14-55.5-14-85s5.1-58.1 14-85C306.4 321.1 405 242.4 521.5 242.4c65.7 0 124.6 22.6 171 66.9L820.8 181C743.3 108.8 642.1 64.5 521.5 64.5c-174.8 0-326.1 100.2-399.7 246.4-30.3 60.4-47.6 128.7-47.6 200.9 0 72.2 17.3 140.5 47.6 200.9C195.4 858.8 346.7 959 521.5 959c120.8 0 222-40.1 296-108.4 84.6-77.9 133.4-192.5 133.4-328.7 0-31.7-2.8-62.2-8.1-91.5z"></path>
</svg>