<?xml version="1.0" encoding="utf-8"?>
<!-- Generator: Adobe Illustrator 21.0.0, SVG Export Plug-In . SVG Version: 6.00 Build 0)  -->
<svg version="1.1" id="图层_1" xmlns="http://www.w3.org/2000/svg" xmlns:xlink="http://www.w3.org/1999/xlink" x="0px" y="0px"
	 viewBox="0 0 1024 1024" style="enable-background:new 0 0 1024 1024;" xml:space="preserve">
<title>google plus</title>
<desc>Created with Sketch.</desc>
<g>
	<path d="M879.5,470.4c-0.3-27-0.4-54.2-0.5-81.3h-80.8h0c-0.3,27-0.5,54.1-0.7,81.3c-27.2,0.1-54.2,0.3-81.2,0.6v80.9
		c27,0.3,54.2,0.5,81.2,0.8c0.3,27,0.3,54.1,0.5,81.1h80.9c0.1-27,0.3-54.1,0.5-81.3c27.2-0.3,54.2-0.4,81.2-0.7v-80.9
		C933.7,470.7,906.5,470.7,879.5,470.4z"/>
	<path d="M349.5,470.8c-0.1,32.3,0,64.7,0.1,97c54.2,1.8,108.5,1,162.7,1.8c-23.9,120.3-187.4,159.3-273.9,80.7
		c-89-68.9-84.8-220,7.7-284c64.7-51.6,156.6-38.9,221.3,5.8c25.4-23.5,49.2-48.7,72.1-74.7c-53.8-42.9-119.8-73.5-190-70.3
		C202.9,222.2,68.2,350.6,65.8,497.3v0c-9.4,119.9,69.4,237.4,180.6,279.8c110.8,42.7,252.9,13.6,323.7-86
		c46.7-62.9,56.8-143.9,51.3-220C530.7,470.4,440.1,470.5,349.5,470.8z"/>
</g>
</svg>
