<?xml version="1.0" encoding="utf-8"?>
<!-- Generator: Adobe Illustrator 21.0.0, SVG Export Plug-In . SVG Version: 6.00 Build 0)  -->
<svg version="1.1" id="图层_1" xmlns="http://www.w3.org/2000/svg" xmlns:xlink="http://www.w3.org/1999/xlink" x="0px" y="0px"
	 viewBox="0 0 1024 1024" style="enable-background:new 0 0 1024 1024;" xml:space="preserve">
<title>heart-fill</title>
<desc>Created with Sketch.</desc>
<path d="M923,283.6c-13.4-31.1-32.6-58.9-56.9-82.8c-24.3-23.8-52.5-42.4-84-55.5c-32.5-13.5-66.9-20.3-102.4-20.3
	c-49.3,0-97.4,13.5-139.2,39c-10,6.1-19.5,12.8-28.5,20.1c-9-7.3-18.5-14-28.5-20.1c-41.8-25.5-89.9-39-139.2-39
	c-35.5,0-69.9,6.8-102.4,20.3c-31.4,13-59.7,31.7-84,55.5c-24.4,23.9-43.5,51.7-56.9,82.8c-13.9,32.3-21,66.6-21,101.9
	c0,33.3,6.8,68,20.3,103.3c11.3,29.5,27.5,60.1,48.2,91c32.8,48.9,77.9,99.9,133.9,151.6c92.8,85.7,184.7,144.9,188.6,147.3
	l23.7,15.2c10.5,6.7,24,6.7,34.5,0l23.7-15.2c3.9-2.5,95.7-61.6,188.6-147.3c56-51.7,101.1-102.7,133.9-151.6
	c20.7-30.9,37-61.5,48.2-91c13.5-35.3,20.3-70,20.3-103.3C944,350.2,936.9,315.9,923,283.6z"/>
</svg>
