<?xml version="1.0" encoding="utf-8"?>
<svg id="heart-o" viewBox="0 0 1024 1024" version="1.1" xmlns="http://www.w3.org/2000/svg" xmlns:xlink="http://www.w3.org/1999/xlink">
  <path d="M1000.1 247.9c-15.5-37.3-37.6-70.6-65.7-98.9C880 94.2 808.6 64 733.4 64c-85.7 0-166 39-221.4 107.4C456.6 103 376.3 64 290.6 64c-75.1 0-146.5 30.4-201.1 85.6-28.2 28.5-50.4 61.9-65.8 99.3-16 38.8-24 79.9-23.6 122.2 0.7 91.7 40.1 177.2 108.1 234.8 3.1 2.6 6 5.1 8.9 7.8 14.9 13.4 58 52.8 112.6 102.7 93.5 85.5 209.9 191.9 257.5 234.2 7 6.1 15.8 9.5 24.9 9.5 9.2 0 18.1-3.4 24.9-9.5 34.5-30.7 105.8-95.9 181.4-165 74.2-67.8 150.9-138 195.8-178.2 69.5-57.9 109.6-144.4 109.9-237.3C1024.2 327.6 1016.1 286.5 1000.1 247.9zM567.8 224.4c40.9-53.2 101.2-83.7 165.6-83.7 54.8 0 106.9 22.2 146.8 62.4 20.9 21 37.5 45.9 49.2 74.1 12 29.1 18.1 60.2 18.1 92.3-0.1 35.5-7.7 69.6-22.7 101.3-14.3 29.9-34.9 56.7-59.7 77.5l-1.8 1.6c-38.9 34.9-105.4 95.4-197.5 179.8-72 65.9-121.1 110.7-153.7 140.2C462.4 825 381.4 751.1 309.8 685.7l-47.3-43.2c-45.2-41.4-80.9-74-94.2-85.9-0.8-0.7-1.6-1.4-2.4-2.2-2.6-2.3-5.3-4.7-8.2-7.1-51-43.3-80.5-107.7-81-176.7-0.2-32 5.8-63 17.8-92.2 11.8-28.4 28.4-53.5 49.4-74.6 40.2-40.6 92.4-62.9 146.8-62.9 64.3 0 124.7 30.4 165.6 83.5 13.3 17.2 34.1 27.4 55.8 27.4C533.7 251.9 554.6 241.6 567.8 224.4z"></path>
</svg>