<?xml version="1.0" encoding="utf-8"?>
<svg id="heart" viewBox="0 0 1024 1024" version="1.1" xmlns="http://www.w3.org/2000/svg" xmlns:xlink="http://www.w3.org/1999/xlink">
  <path d="M1000.1 247.9c-15.5-37.3-37.6-70.6-65.7-98.9C880 94.2 808.6 64 733.4 64c-85.7 0-166 39-221.4 107.4C456.6 103 376.3 64 290.6 64c-75.1 0-146.5 30.4-201.1 85.6-28.2 28.5-50.4 61.9-65.8 99.3-16 38.8-24 79.9-23.6 122.2 0.7 91.7 40.1 177.2 108.1 234.8 3.1 2.6 6 5.1 8.9 7.8 14.9 13.4 58 52.8 112.6 102.7 93.5 85.5 209.9 191.9 257.5 234.2 7 6.1 15.8 9.5 24.9 9.5 9.2 0 18.1-3.4 24.9-9.5 34.5-30.7 105.8-95.9 181.4-165 74.2-67.8 150.9-138 195.8-178.2 69.5-57.9 109.6-144.4 109.9-237.3C1024.2 327.6 1016.1 286.5 1000.1 247.9z"></path>
</svg>