<?xml version="1.0" encoding="utf-8"?>
<!-- Generator: Adobe Illustrator 21.0.0, SVG Export Plug-In . SVG Version: 6.00 Build 0)  -->
<svg version="1.1" id="图层_1" xmlns="http://www.w3.org/2000/svg" xmlns:xlink="http://www.w3.org/1999/xlink" x="0px" y="0px"
	 viewBox="0 0 1024 1024" style="enable-background:new 0 0 1024 1024;" xml:space="preserve">
<style type="text/css">
	.st0{fill:none;}
</style>
<title>heat map</title>
<desc>Created with Sketch.</desc>
<g>
	<polygon class="st0" points="482.6,648.3 541.4,648.3 512,597.6 	"/>
	<path class="st0" d="M325.7,744h372.6L512,422L325.7,744z M539.7,549.9l57,98.4C609,669.5,593.6,696,569,696H455
		c-24.6,0-39.9-26.5-27.7-47.7l57-98.4c6.1-10.6,16.9-15.9,27.7-15.9C522.8,534,533.5,539.3,539.7,549.9z"/>
	<path class="st0" d="M165.3,832.1h693.4L512,231.9L165.3,832.1z M539.7,358l227.9,394c12.3,21.3-3.1,48-27.7,48H284.1
		c-24.7,0-40.1-26.7-27.7-48l227.9-394c6.2-10.7,17-16,27.7-16C522.8,342,533.6,347.3,539.7,358z"/>
	<path d="M955.7,856L539.7,136c-6.2-10.7-16.9-16-27.7-16c-10.8,0-21.6,5.3-27.7,16L68.3,856C56,877.4,71.4,904,96,904H928
		C952.6,904,968,877.4,955.7,856z M165.3,832.1L512,231.9l346.7,600.1H165.3z"/>
	<path d="M484.3,358L256.3,752c-12.3,21.3,3.1,48,27.7,48h455.8c24.7,0,40.1-26.7,27.7-48L539.7,358c-6.2-10.7-17-16-27.7-16
		C501.2,342,490.4,347.3,484.3,358z M698.3,744H325.7L512,422L698.3,744z"/>
	<path d="M484.3,549.9l-57,98.4C415,669.5,430.4,696,455,696h114c24.6,0,39.9-26.5,27.7-47.7l-57-98.4
		c-6.1-10.6-16.9-15.9-27.7-15.9C501.2,534,490.5,539.3,484.3,549.9z M541.4,648.3h-58.7l29.4-50.7L541.4,648.3z"/>
</g>
</svg>
