<?xml version="1.0" encoding="utf-8"?>
<svg id="home" viewBox="0 0 1024 1024" version="1.1" xmlns="http://www.w3.org/2000/svg" xmlns:xlink="http://www.w3.org/1999/xlink">
  <path d="M932.4 442.2 560.3 84.1c-27.4-24.8-69.1-24.8-96.5 0L91.6 442.2C76.8 455.5 75.7 478.2 89 493l0 0c13.3 14.8 36.1 15.9 50.8 2.6L512 137.5l372.2 358.1c14.8 13.3 37.5 12.2 50.8-2.6l0 0C948.3 478.2 947.2 455.5 932.4 442.2z"></path>
  <path d="M833 575 833 575c-19.9 0-36 16.1-36 36l0 277L654 888 654 648c0-39.8-32.2-72-72-72L442 576c-39.8 0-72 32.2-72 72l0 240L227 888 227 611c0-19.9-16.1-36-36-36l0 0c-19.9 0-36 16.1-36 36l0 277c0 39.8 32.2 72 72 72l570 0c39.8 0 72-32.2 72-72L869 611C869 591.1 852.9 575 833 575zM442 648l140 0 0 240L442 888 442 648z"></path>
</svg>