<?xml version="1.0" encoding="utf-8"?>
<!-- Generator: Adobe Illustrator 21.0.0, SVG Export Plug-In . SVG Version: 6.00 Build 0)  -->
<svg version="1.1" id="图层_1" xmlns="http://www.w3.org/2000/svg" xmlns:xlink="http://www.w3.org/1999/xlink" x="0px" y="0px"
	 viewBox="0 0 1024 1024" style="enable-background:new 0 0 1024 1024;" xml:space="preserve">
<title>hourglass-fill</title>
<desc>Created with Sketch.</desc>
<path d="M742,318V184h86c4.4,0,8-3.6,8-8v-56c0-4.4-3.6-8-8-8H196c-4.4,0-8,3.6-8,8v56c0,4.4,3.6,8,8,8h86v134
	c0,81.5,42.4,153.2,106.4,194C324.4,552.8,282,624.5,282,706v134h-86c-4.4,0-8,3.6-8,8v56c0,4.4,3.6,8,8,8h632c4.4,0,8-3.6,8-8v-56
	c0-4.4-3.6-8-8-8h-86V706c0-81.5-42.4-153.2-106.4-194C699.6,471.2,742,399.5,742,318z"/>
</svg>
