<?xml version="1.0" encoding="utf-8"?>
<!-- Generator: Adobe Illustrator 21.0.0, SVG Export Plug-In . SVG Version: 6.00 Build 0)  -->
<svg version="1.1" id="图层_1" xmlns="http://www.w3.org/2000/svg" xmlns:xlink="http://www.w3.org/1999/xlink" x="0px" y="0px"
	 viewBox="0 0 1024 1024" style="enable-background:new 0 0 1024 1024;" xml:space="preserve">
<style type="text/css">
	.st0{fill:none;}
</style>
<title>HTML5</title>
<desc>Created with Sketch.</desc>
<g>
	<path class="st0" d="M209.9,155.4l56.7,641.2l245.2,69.6l244.1-69.6l57.8-641.2H209.9z M740.3,273.3l-4.8,47.2l-1.7,19.5H511H381.7
		l8.2,94.2H511V434h214.7l-3.3,24.3l-21.2,242.2l-1.7,16.2l-187.7,51.8v0.4h-1.7l-188.6-52l-11.3-144.7h91.1l6.5,73.2l102.4,27.7
		h0.8v-0.2l102.4-27.7l11.4-118.6H511.9v0.2H305.4l-22.8-253.5L281,249h230h231L740.3,273.3z"/>
	<path d="M145,96l66,746.6L511.8,928l299.6-85.4L878.7,96H145z M755.9,796.6l-244.1,69.6l-245.2-69.6l-56.7-641.2h603.8L755.9,796.6
		z"/>
	<polygon points="281,249 282.7,273.3 305.4,526.8 511.9,526.8 511.9,526.7 624.8,526.7 613.4,645.2 511,672.9 511,673.1 
		510.2,673.1 407.8,645.4 401.3,572.2 310.3,572.2 321.6,716.9 510.2,768.9 511.9,768.9 511.9,768.5 699.6,716.8 701.3,700.5 
		722.5,458.3 725.7,434 511,434 511,434.2 389.9,434.2 381.7,340 511,340 733.8,340 735.5,320.5 740.3,273.3 742,249 511,249 	"/>
</g>
</svg>
