<?xml version="1.0" encoding="utf-8"?>

<svg id="idcard" viewBox="0 0 1024 1024">
  <path d="M200 768h176c39.8 0 72-32.2 72-72v-88c0-55.2-27.9-103.8-70.4-132.6 23.7-23.2 38.4-55.6 38.4-91.4 0-70.7-57.3-128-128-128s-128 57.3-128 128c0 35.8 14.7 68.2 38.4 91.4C155.9 504.2 128 552.8 128 608v88c0 39.8 32.2 72 72 72z m88-440c30.9 0 56 25.1 56 56s-25.1 56-56 56-56-25.1-56-56 25.1-56 56-56z m-88 285c0-0.3 0-0.6 0.1-1-0.1-1.3-0.1-2.7-0.1-4 0-48.6 39.4-88 88-88s88 39.4 88 88c0 1.4 0 2.7-0.1 4 0.1 0.3 0.1 0.6 0.1 1v78c0 2.8-2.2 5-5 5H205c-2.8 0-5-2.2-5-5v-78z"></path>
  <path d="M952 128H72c-39.8 0-72 32.2-72 72v624c0 39.8 32.2 72 72 72h880c39.8 0 72-32.2 72-72V200c0-39.8-32.2-72-72-72z m0 696H72V200h880v624z"></path>
  <path d="M548 548h248c19.9 0 36-16.1 36-36s-16.1-36-36-36H548c-19.9 0-36 16.1-36 36s16.1 36 36 36zM548 712h184c19.9 0 36-16.1 36-36s-16.1-36-36-36H548c-19.9 0-36 16.1-36 36s16.1 36 36 36zM548 384h312c19.9 0 36-16.1 36-36s-16.1-36-36-36H548c-19.9 0-36 16.1-36 36s16.1 36 36 36z"></path>
</svg>