<?xml version="1.0" encoding="utf-8"?>
<!-- Generator: Adobe Illustrator 21.0.0, SVG Export Plug-In . SVG Version: 6.00 Build 0)  -->
<svg version="1.1" id="图层_1" xmlns="http://www.w3.org/2000/svg" xmlns:xlink="http://www.w3.org/1999/xlink" x="0px" y="0px"
	 viewBox="0 0 1024 1024" style="enable-background:new 0 0 1024 1024;" xml:space="preserve">
<style type="text/css">
	.st0{fill:none;}
</style>
<title>IE</title>
<desc>Created with Sketch.</desc>
<g>
	<path class="st0" d="M224.8,648.3c-109.5,228.6,17.3,258.4,150.4,185C305.4,792.1,251.4,725,224.8,648.3z"/>
	<path class="st0" d="M554.8,342.7c-80.6,0-153,59.6-156,142.3h311.9C707.7,402.3,634.9,342.7,554.8,342.7z"/>
	<path class="st0" d="M784.4,170.6c-36,0-76.7,17.6-108.8,33c69.4,27,129,85.9,168.4,149.4c10.7-28.3,21.9-71.8,21.9-101.8
		C865.9,203.2,831.6,170.6,784.4,170.6z"/>
	<path d="M852.6,367.6c16.3-36.9,32.1-90.7,32.1-131.8c0-109.1-119.5-147.6-314.5-57.9c-161.4-10.8-316.8,110.5-355.6,279.7
		c46.3-52.3,117.4-123.4,183-151.7C316.1,378.3,246.7,470,194,565.6c-31.1,56.9-66,148.8-66,217.5c0,147.9,139.3,129.8,270.4,63
		c47.1,23.1,99.8,23.4,152.5,23.4c145.7,0,276.4-81.4,325.2-219H694.9c-78.8,132.9-295.2,79.5-295.2-71.2h493.2
		C902.5,513.9,890.4,435.7,852.6,367.6z M224.8,648.3c26.6,76.7,80.6,143.8,150.4,185C242.1,906.7,115.3,876.9,224.8,648.3z
		 M398.8,485c3-82.7,75.4-142.3,156-142.3c80.1,0,153,59.6,156,142.3H398.8z M675.6,203.6c32.1-15.4,72.8-33,108.8-33
		c47.1,0,81.4,32.6,81.4,80.6c0,30-11.1,73.5-21.9,101.8C804.6,289.5,745,230.6,675.6,203.6z"/>
</g>
</svg>
