<?xml version="1.0" encoding="utf-8"?>
<svg id="ie" viewBox="0 0 1024 1024" version="1.1" xmlns="http://www.w3.org/2000/svg" xmlns:xlink="http://www.w3.org/1999/xlink">
  <path d="M878 347.9c16.2-44 23.5-83.8 21.9-118.3-1.8-37.3-14-67.7-36.5-90.4-44.4-44-158.9-36.1-285.3 19.5-8.7-0.6-17.6-0.9-27.2-0.9-43.1 0-85.4 7.2-125.7 21.5-39 13.8-75.2 33.9-107.7 59.6-65 51.4-111.8 123.7-131.8 203.6l-6.9 27.6 17.5-22.4c46.8-60.1 94.1-103.2 149.7-135.9-11.1 11.1-21.7 21.7-24.7 24.8-48.3 48.3-90.9 102.1-126.4 159.9-31.9 51.9-57.8 107-74.9 159.2-16.2 49.5-24.4 96.1-23.9 134.9 0.5 39.7 10.3 70.1 28.2 88.1 24.4 24.4 58 36.6 99.1 36.6 45 0 99.1-14.7 159.6-44.2 52 26.1 108.5 39.3 167.9 39.3 160.9 0 304-102.3 356.1-254.6l2.7-7.9L697.4 647.9l-1.7 3.1c-27.4 50.8-80.4 82.3-138.1 82.3-57.6 0-110.6-31.5-138.1-82.2-11.3-21.2-17.6-45-18.4-69l319.1 0.1 204.2 0 0.6-5.4c1.5-13.8 2.2-27.8 2.2-42.8C927.2 468.8 910.2 404.5 878 347.9zM201.2 673.7c28.9 72.5 80.1 134.6 145.8 177.1-35.9 15.4-67.8 24-95 25.8-29.7 2-52.3-4.5-67.1-19.3C153.8 826.1 159.8 759.6 201.2 673.7zM858.9 318.4c-19.7-28.1-43-53.3-69.6-75.1-26.1-21.5-54.8-39.2-85.5-52.9 69.9-27.4 122.6-27.9 149.2-1.2C877.1 213.7 879.1 258.2 858.9 318.4zM401.8 472.9c7.5-76.3 71.8-135.1 149.1-135.1S692.5 396.6 700 472.9L401.8 472.9z"></path>
</svg>