<?xml version="1.0" encoding="utf-8"?>
<!-- Generator: Adobe Illustrator 21.0.0, SVG Export Plug-In . SVG Version: 6.00 Build 0)  -->
<svg version="1.1" id="图层_1" xmlns="http://www.w3.org/2000/svg" xmlns:xlink="http://www.w3.org/1999/xlink" x="0px" y="0px"
	 viewBox="0 0 1024 1024" style="enable-background:new 0 0 1024 1024;" xml:space="preserve">
<style type="text/css">
	.st0{fill:none;}
</style>
<title>image-fill</title>
<desc>Created with Sketch.</desc>
<g>
	<path class="st0" d="M623.3,458.2c-0.3-0.3-0.6-0.7-1-1c-3.4-2.8-8.4-2.4-11.3,1L453,645.8l-99.4-118c-0.3-0.3-0.6-0.7-1-1
		c-3.4-2.8-8.4-2.4-11.3,1l-170.3,202c-1.2,1.4-1.9,3.3-1.9,5.2c0,4.4,3.6,8,8,8h669.6c1.9,0,3.7-0.7,5.2-1.9
		c3.4-2.9,3.8-7.9,0.9-11.3L623.3,458.2z"/>
	<circle class="st0" cx="338" cy="368" r="64"/>
	<path d="M928,160H96c-17.7,0-32,14.3-32,32v640c0,17.7,14.3,32,32,32h832c17.7,0,32-14.3,32-32V192C960,174.3,945.7,160,928,160z
		 M338,304c35.3,0,64,28.7,64,64c0,35.3-28.7,64-64,64c-35.3,0-64-28.7-64-64C274,332.7,302.7,304,338,304z M851.9,741.1
		c-1.4,1.2-3.3,1.9-5.2,1.9H177.2c-4.4,0-8-3.6-8-8c0-1.9,0.7-3.7,1.9-5.2l170.3-202c2.8-3.4,7.9-3.8,11.3-1c0.3,0.3,0.7,0.6,1,1
		l99.4,118l158.1-187.5c2.8-3.4,7.9-3.8,11.3-1c0.3,0.3,0.7,0.6,1,1l229.6,271.6C855.7,733.2,855.3,738.3,851.9,741.1z"/>
</g>
</svg>
