<?xml version="1.0" encoding="utf-8"?>
<svg id="inbox" viewBox="0 0 1024 1024" version="1.1" xmlns="http://www.w3.org/2000/svg" xmlns:xlink="http://www.w3.org/1999/xlink">
  <path d="M885.2 446.3l-0.2-0.8L772.8 160.4c-5-16.1-19.9-27.2-36.8-27.2L281.2 133.2c-17 0-32.1 11.3-36.9 27.6L139.4 443l-0.3 0.7-0.2 0.8c-1.3 4.9-1.7 9.9-1 14.8-0.1 1.6-0.2 3.2-0.2 4.8L137.7 830c0 33.5 27.3 60.8 60.8 60.8l627.2 0c33.5 0 60.8-27.3 60.9-60.8L886.6 464.1c0-1.3 0-2.6-0.1-3.7C886.9 455.5 886.5 450.8 885.2 446.3zM589.4 403.3l-0.3 15.7c-0.8 44.9-31.8 75.1-77.1 75.1-22.1 0-41.1-7.1-54.8-20.6S436 441.2 435.6 419l-0.3-15.7L229.5 403.3 309 210l399.2 0 81.7 193.3L589.4 403.3zM214.4 480.1l157.3 0c24.3 57.1 76 90.8 140.4 90.8 33.7 0 65-9.4 90.3-27.2 22.2-15.6 39.5-37.4 50.7-63.6l156.5 0L809.6 814 214.4 814 214.4 480.1z"></path>
</svg>