<?xml version="1.0" encoding="utf-8"?>

<svg id="indent-right" viewBox="0 0 1024 1024">
  <path d="M978.432 816.128H45.568c-25.088 0-45.568 17.92-45.568 39.936s20.48 39.936 45.568 39.936H977.92c25.088 0 45.568-17.92 45.568-39.936s-19.968-39.936-45.056-39.936zM988.16 644.096H483.84c-19.968 0-35.84 17.92-35.84 39.936s15.872 39.936 35.84 39.936H988.16c19.968 0 35.84-17.92 35.84-39.936s-15.872-39.936-35.84-39.936zM39.936 207.872h944.128c22.016 0 39.936-17.92 39.936-39.936s-17.92-39.936-39.936-39.936H39.936C17.92 128 0 145.92 0 167.936s17.92 39.936 39.936 39.936zM988.16 300.032H483.84c-19.968 0-35.84 17.92-35.84 39.936s15.872 39.936 35.84 39.936H988.16c19.968 0 35.84-17.92 35.84-39.936s-15.872-39.936-35.84-39.936zM988.16 472.064H483.84c-19.968 0-35.84 17.92-35.84 39.936s15.872 39.936 35.84 39.936H988.16c19.968 0 35.84-17.92 35.84-39.936s-15.872-39.936-35.84-39.936zM31.744 325.12v374.784c0 6.656 5.12 11.776 11.776 11.776 2.56 0 5.12-1.024 7.168-2.56l238.592-187.392c5.12-4.096 6.144-11.264 2.048-16.896-0.512-0.512-1.024-1.536-2.048-2.048L51.2 315.392c-5.12-4.096-12.8-3.072-16.896 2.048-1.536 2.048-2.56 4.608-2.56 7.68z"></path>
</svg>