<?xml version="1.0" encoding="utf-8"?>
<svg id="indent-left" viewBox="0 0 1024 1024" version="1.1" xmlns="http://www.w3.org/2000/svg" xmlns:xlink="http://www.w3.org/1999/xlink">
  <path d="M978.432 816.128H45.568c-25.088 0-45.568 17.92-45.568 39.936s20.48 39.936 45.568 39.936H977.92c25.088 0 45.568-17.92 45.568-39.936s-19.968-39.936-45.056-39.936zM253.952 313.344l-241.664 189.44c-0.512 0.512-1.536 1.024-2.048 2.048-4.096 5.12-3.072 12.8 2.048 16.896l241.664 189.44c2.048 1.536 4.608 2.56 7.168 2.56 6.656 0 11.776-5.12 11.776-11.776v-378.88c0-2.56-1.024-5.12-2.56-7.168-3.584-5.632-10.752-6.656-16.384-2.56zM39.936 207.872h944.128c22.016 0 39.936-17.92 39.936-39.936s-17.92-39.936-39.936-39.936H39.936C17.92 128 0 145.92 0 167.936s17.92 39.936 39.936 39.936zM988.16 300.032H483.84c-19.968 0-35.84 17.92-35.84 39.936s15.872 39.936 35.84 39.936H988.16c19.968 0 35.84-17.92 35.84-39.936s-15.872-39.936-35.84-39.936zM988.16 472.064H483.84c-19.968 0-35.84 17.92-35.84 39.936s15.872 39.936 35.84 39.936H988.16c19.968 0 35.84-17.92 35.84-39.936s-15.872-39.936-35.84-39.936zM988.16 644.096H483.84c-19.968 0-35.84 17.92-35.84 39.936s15.872 39.936 35.84 39.936H988.16c19.968 0 35.84-17.92 35.84-39.936s-15.872-39.936-35.84-39.936z"></path>
</svg>