<?xml version="1.0" encoding="utf-8"?>
<!-- Generator: Adobe Illustrator 21.0.0, SVG Export Plug-In . SVG Version: 6.00 Build 0)  -->
<svg version="1.1" id="图层_1" xmlns="http://www.w3.org/2000/svg" xmlns:xlink="http://www.w3.org/1999/xlink" x="0px" y="0px"
	 viewBox="0 0 1024 1024" style="enable-background:new 0 0 1024 1024;" xml:space="preserve">
<title>indent</title>
<desc>Created with Sketch.</desc>
<g>
	<path d="M408,442h480c4.4,0,8-3.6,8-8v-56c0-4.4-3.6-8-8-8H408c-4.4,0-8,3.6-8,8v56C400,438.4,403.6,442,408,442z"/>
	<path d="M400,646c0,4.4,3.6,8,8,8h480c4.4,0,8-3.6,8-8v-56c0-4.4-3.6-8-8-8H408c-4.4,0-8,3.6-8,8V646z"/>
	<path d="M904,160H120c-4.4,0-8,3.6-8,8v56c0,4.4,3.6,8,8,8h784c4.4,0,8-3.6,8-8v-56C912,163.6,908.4,160,904,160z"/>
	<path d="M904,792H120c-4.4,0-8,3.6-8,8v56c0,4.4,3.6,8,8,8h784c4.4,0,8-3.6,8-8v-56C912,795.6,908.4,792,904,792z"/>
	<path d="M142.4,642.1l156.3-123.1c4.5-3.5,4.5-10.3,0-13.9L142.4,381.9c-5.8-4.6-14.4-0.5-14.4,6.9v246.3
		C128,642.5,136.5,646.7,142.4,642.1z"/>
</g>
</svg>
