<?xml version="1.0" encoding="utf-8"?>

<svg id="info-cirlce" viewBox="0 0 1024 1024">
  <path d="M512 0C229.2 0 0 229.2 0 512s229.2 512 512 512 512-229.2 512-512S794.8 0 512 0zM509 184.5c19.9 0 36 16.1 36 36s-16.1 36-36 36-36-16.1-36-36S489.1 184.5 509 184.5zM666.2 741.6c0 19.9-16.1 36-36 36L545 777.6l-72 0-85.2 0c-19.9 0-36-16.1-36-36l0 0c0-19.9 16.1-36 36-36L473 705.6 473 391.5l-60 0c-19.9 0-36-16.1-36-36l0 0c0-19.9 16.1-36 36-36l60 0 36 0 0 0c19.9 0 36 16.1 36 36l0 350.1 85.2 0C650.1 705.6 666.2 721.7 666.2 741.6L666.2 741.6z"></path>
</svg>