<?xml version="1.0" encoding="utf-8"?>
<!-- Generator: Adobe Illustrator 21.0.0, SVG Export Plug-In . SVG Version: 6.00 Build 0)  -->
<svg version="1.1" id="图层_1" xmlns="http://www.w3.org/2000/svg" xmlns:xlink="http://www.w3.org/1999/xlink" x="0px" y="0px"
	 viewBox="0 0 1024 1024" style="enable-background:new 0 0 1024 1024;" xml:space="preserve">
<style type="text/css">
	.st0{fill:none;}
</style>
<title>instagram-fill</title>
<desc>Created with Sketch.</desc>
<g>
	<path class="st0" d="M512,306.9c-113.5,0-205.1,91.6-205.1,205.1S398.5,717.1,512,717.1S717.1,625.5,717.1,512
		S625.5,306.9,512,306.9z M512,645.3c-73.4,0-133.3-59.9-133.3-133.3S438.6,378.7,512,378.7c73.4,0,133.3,59.9,133.3,133.3
		S585.4,645.3,512,645.3z"/>
	<path class="st0" d="M725.5,250.7c-26.5,0-47.9,21.4-47.9,47.9c0,26.5,21.4,47.9,47.9,47.9c26.5,0,47.9-21.3,47.9-47.9h0
		C773.3,272,752,250.7,725.5,250.7z"/>
	<path d="M512,378.7c-73.4,0-133.3,59.9-133.3,133.3S438.6,645.3,512,645.3c73.4,0,133.3-59.9,133.3-133.3S585.4,378.7,512,378.7z"
		/>
	<path d="M911.8,512L911.8,512c0-55.2,0.5-109.9-2.6-165c-3.1-64-17.7-120.8-64.5-167.6c-46.9-46.9-103.6-61.4-167.6-64.5
		c-55.2-3.1-109.9-2.6-165-2.6c-55.2,0-109.9-0.5-165,2.6c-64,3.1-120.8,17.7-167.6,64.5c-46.9,46.9-61.4,103.6-64.5,167.6
		c-3.1,55.2-2.6,109.9-2.6,165s-0.5,109.9,2.6,165c3.1,64,17.7,120.8,64.5,167.6c46.9,46.9,103.6,61.4,167.6,64.5
		c55.2,3.1,109.9,2.6,165,2.6c55.2,0,109.9,0.5,165-2.6c64-3.1,120.8-17.7,167.6-64.5c46.9-46.9,61.4-103.6,64.5-167.6
		C912.4,621.9,911.8,567.2,911.8,512z M512,717.1c-113.5,0-205.1-91.6-205.1-205.1S398.5,306.9,512,306.9
		c113.5,0,205.1,91.6,205.1,205.1S625.5,717.1,512,717.1z M725.5,346.4c-26.5,0-47.9-21.4-47.9-47.9c0-26.5,21.4-47.9,47.9-47.9
		c26.5,0,47.9,21.4,47.9,47.9h0C773.3,325.1,752,346.4,725.5,346.4z"/>
</g>
</svg>
