<?xml version="1.0" encoding="utf-8"?>
<svg id="instagram" viewBox="0 0 1024 1024" version="1.1" xmlns="http://www.w3.org/2000/svg" xmlns:xlink="http://www.w3.org/1999/xlink">
  <path d="M661.246 512c0-82.219-67.066-149.285-149.285-149.285-82.218 0-149.284 67.066-149.284 149.285s67.066 149.285 149.284 149.285c82.219 0 149.285-67.066 149.285-149.285z m80.465 0c0 127.116-102.634 229.75-229.75 229.75S282.212 639.115 282.212 512s102.633-229.75 229.75-229.75c127.115 0 229.749 102.634 229.749 229.75z m62.998-239.08c0 29.745-23.923 53.631-53.63 53.631-29.708 0-53.631-23.923-53.631-53.63 0-29.708 23.923-53.631 53.63-53.631 29.708 0 53.63 23.923 53.63 53.63zM511.96 144.61c-65.312 0-205.266-5.262-264.159 18.064-20.415 8.173-35.567 18.063-51.317 33.813-15.75 15.75-25.677 30.902-33.813 51.316-23.325 58.893-18.063 198.848-18.063 264.16 0 65.312-5.262 205.266 18.063 264.159 8.174 20.415 18.064 35.567 33.813 51.317 15.75 15.75 30.902 25.677 51.317 33.813 58.893 23.325 198.847 18.063 264.16 18.063 65.311 0 205.266 5.262 264.159-18.063 20.414-8.174 35.567-18.064 51.316-33.813 15.75-15.75 25.677-30.902 33.813-51.317 23.326-58.893 18.064-198.847 18.064-264.16 0-65.311 5.262-205.266-18.064-264.159-8.173-20.414-18.063-35.567-33.813-51.316-15.75-15.75-30.902-25.677-51.316-33.813-58.893-23.326-198.848-18.064-264.16-18.064zM959.816 512c0 61.804 0.597 123.048-2.911 184.852-3.509 71.731-19.818 135.29-72.292 187.763-52.473 52.473-116.031 68.82-187.762 72.29-61.804 3.509-123.048 2.912-184.852 2.912s-123.048 0.597-184.852-2.911c-71.731-3.508-135.29-19.818-187.763-72.291-52.474-52.474-68.82-116.032-72.291-187.763-3.508-61.804-2.911-123.048-2.911-184.852s-0.597-123.048 2.91-184.852c3.509-71.731 19.818-135.29 72.292-187.763 52.474-52.473 116.032-68.82 187.763-72.29 61.804-3.509 123.048-2.912 184.852-2.912s123.048-0.597 184.852 2.911c71.73 3.508 135.289 19.818 187.762 72.291 52.474 52.474 68.82 116.032 72.292 187.763 3.508 61.804 2.91 123.048 2.91 184.852z"></path>
</svg>