<?xml version="1.0" encoding="utf-8"?>
<!-- Generator: Adobe Illustrator 21.0.0, SVG Export Plug-In . SVG Version: 6.00 Build 0)  -->
<svg version="1.1" id="图层_1" xmlns="http://www.w3.org/2000/svg" xmlns:xlink="http://www.w3.org/1999/xlink" x="0px" y="0px"
	 viewBox="0 0 1024 1024" style="enable-background:new 0 0 1024 1024;" xml:space="preserve">
<style type="text/css">
	.st0{fill:none;}
</style>
<title>interation</title>
<desc>Created with Sketch.</desc>
<g>
	<path class="st0" d="M184,840h656V184H184V840z M298,438.3c0-55.3,44.7-100.1,99.7-100.1h205.7v-53.4c0-5.7,6.5-8.8,10.9-5.3
		l109.1,85.7c3.5,2.7,3.5,8,0,10.7l-109.1,85.7c-4.4,3.5-10.9,0.3-10.9-5.3v-53.4H397.7c-19.6,0-35.5,16-35.5,35.6v78.9
		c0,3.7-3,6.8-6.8,6.8h-50.7c-3.7,0-6.8-3-6.8-6.8V438.3z M300.6,648.2l109.1-85.7c4.4-3.5,10.9-0.3,10.9,5.3v53.4h205.7
		c19.6,0,35.5-16,35.5-35.6v-78.9c0-3.7,3-6.8,6.8-6.8h50.7c3.7,0,6.8,3,6.8,6.8v78.9c0,55.3-44.7,100.1-99.7,100.1H420.6v53.4
		c0,5.7-6.5,8.8-10.9,5.3l-109.1-85.7C297.1,656.2,297.1,650.9,300.6,648.2z"/>
	<path d="M880,112H144c-17.7,0-32,14.3-32,32v736c0,17.7,14.3,32,32,32h736c17.7,0,32-14.3,32-32V144C912,126.3,897.7,112,880,112z
		 M840,840H184V184h656V840z"/>
	<path d="M304.8,524h50.7c3.7,0,6.8-3,6.8-6.8v-78.9c0-19.7,15.9-35.6,35.5-35.6h205.7v53.4c0,5.7,6.5,8.8,10.9,5.3l109.1-85.7
		c3.5-2.7,3.5-8,0-10.7l-109.1-85.7c-4.4-3.5-10.9-0.3-10.9,5.3v53.4H397.7c-55.1,0-99.7,44.8-99.7,100.1v78.9
		C298,521,301,524,304.8,524z"/>
	<path d="M300.6,658.9l109.1,85.7c4.4,3.5,10.9,0.3,10.9-5.3v-53.4h205.7c55.1,0,99.7-44.8,99.7-100.1v-78.9c0-3.7-3-6.8-6.8-6.8
		h-50.7c-3.7,0-6.8,3-6.8,6.8v78.9c0,19.7-15.9,35.6-35.5,35.6H420.6v-53.4c0-5.7-6.5-8.8-10.9-5.3l-109.1,85.7
		C297.1,650.9,297.1,656.2,300.6,658.9z"/>
</g>
</svg>
