<?xml version="1.0" encoding="utf-8"?>
<!-- Generator: Adobe Illustrator 21.0.0, SVG Export Plug-In . SVG Version: 6.00 Build 0)  -->
<svg version="1.1" id="图层_1" xmlns="http://www.w3.org/2000/svg" xmlns:xlink="http://www.w3.org/1999/xlink" x="0px" y="0px"
	 viewBox="0 0 1024 1024" style="enable-background:new 0 0 1024 1024;" xml:space="preserve">
<title>italic</title>
<desc>Created with Sketch.</desc>
<path d="M798,160H366c-4.4,0-8,3.6-8,8v64c0,4.4,3.6,8,8,8h181.2l-156,544H229c-4.4,0-8,3.6-8,8v64c0,4.4,3.6,8,8,8h432
	c4.4,0,8-3.6,8-8v-64c0-4.4-3.6-8-8-8H474.4l156-544H798c4.4,0,8-3.6,8-8v-64C806,163.6,802.4,160,798,160z"/>
</svg>
