<?xml version="1.0" encoding="utf-8"?>
<svg id="key" viewBox="0 0 1024 1024" version="1.1" xmlns="http://www.w3.org/2000/svg" xmlns:xlink="http://www.w3.org/1999/xlink">
  <path d="M876.1 468.8C772.2 364.9 608.8 357 495.8 444.9L126.6 75.6c-14.1-14.1-36.9-14.1-50.9 0-14.1 14.1-14.1 36.9 0 50.9L445 495.8c-87.9 113-80 276.4 23.9 380.3 112.5 112.5 294.8 112.5 407.3 0s112.4-294.8-0.1-407.3z m-50.9 356.4c-84.4 84.4-221.1 84.4-305.5 0s-84.4-221.1 0-305.5 221.1-84.4 305.5 0 84.3 221.1 0 305.5z"></path>
  <path d="M352.8 300.5l76.4-76.4c14.1-14.1 14.1-36.9 0-50.9-14.1-14.1-36.9-14.1-50.9 0l-76.4 76.4 50.9 50.9zM333 128c14.1-14.1 14.1-36.9 0-50.9-14-14.1-36.8-14.1-50.9 0l-76.4 76.4 50.9 50.9L333 128z"></path>
</svg>