<?xml version="1.0" encoding="utf-8"?>

<svg id="laptop" viewBox="0 0 1024 1024">
  <path d="M887.4 136.1 887.4 136.1C887.4 136.1 887.4 136.1 887.4 136.1l0 559.4c0 0 0 0 0 0L134.8 695.5c0 0 0 0 0 0L134.8 136.1c0 0 0 0 0 0L887.4 136.1M887.4 64.1 134.8 64.1c-39.8 0-72 32.2-72 72l0 559.4c0 39.8 32.2 72 72 72l752.6 0c39.8 0 72-32.2 72-72L959.4 136.1C959.4 96.3 927.1 64.1 887.4 64.1L887.4 64.1z"></path>
  <path d="M923.4 912.3 98.8 912.3c-19.9 0-36-16.1-36-36l0 0c0-19.9 16.1-36 36-36l824.6 0c19.9 0 36 16.1 36 36l0 0C959.4 896.2 943.3 912.3 923.4 912.3z"></path>
</svg>