<?xml version="1.0" encoding="utf-8"?>
<!-- Generator: Adobe Illustrator 21.0.0, SVG Export Plug-In . SVG Version: 6.00 Build 0)  -->
<svg version="1.1" id="图层_1" xmlns="http://www.w3.org/2000/svg" xmlns:xlink="http://www.w3.org/1999/xlink" x="0px" y="0px"
	 viewBox="0 0 1024 1024" style="enable-background:new 0 0 1024 1024;" xml:space="preserve">
<style type="text/css">
	.st0{fill:none;}
</style>
<title>left-square-fill</title>
<desc>Created with Sketch.</desc>
<g>
	<path class="st0" d="M611.3,327.5l-246,178c-4.4,3.2-4.4,9.7,0,12.9l246,178c5.3,3.8,12.7,0,12.7-6.5v-46.9
		c0-10.2-4.9-19.9-13.2-25.9L465.4,512l145.4-105.2c8.3-6,13.2-15.6,13.2-25.9V334C624,327.5,616.6,323.7,611.3,327.5z"/>
	<path d="M880,112H144c-17.7,0-32,14.3-32,32v736c0,17.7,14.3,32,32,32h736c17.7,0,32-14.3,32-32V144C912,126.3,897.7,112,880,112z
		 M624,380.9c0,10.2-4.9,19.9-13.2,25.9L465.4,512l145.4,105.2c8.3,6,13.2,15.6,13.2,25.9V690c0,6.5-7.4,10.3-12.7,6.5l-246-178
		c-4.4-3.2-4.4-9.7,0-12.9l246-178c5.3-3.8,12.7,0,12.7,6.5V380.9z"/>
</g>
</svg>
