<?xml version="1.0" encoding="utf-8"?>
<svg id="left-square" viewBox="0 0 1024 1024" version="1.1" xmlns="http://www.w3.org/2000/svg" xmlns:xlink="http://www.w3.org/1999/xlink">
  <path d="M888.5 63.5l-753 0c-39.8 0-72 32.2-72 72l0 753.1c0 39.8 32.2 72 72 72l753.1 0c39.8 0 72-32.2 72-72L960.6 135.5C960.5 95.7 928.3 63.5 888.5 63.5zM616.4 706.7c14.5 13.6 15.2 36.4 1.6 50.9-13.6 14.5-36.4 15.2-50.9 1.6l-235.8-221C324.1 531.5 320 522 320 512s4.1-19.5 11.4-26.3l235.8-221c14.5-13.6 37.3-12.9 50.9 1.6 13.6 14.5 12.9 37.3-1.6 50.9L408.7 512 616.4 706.7z"></path>
</svg>