<?xml version="1.0" encoding="utf-8"?>

<svg id="left-circle" viewBox="0 0 1024 1024">
  <path d="M512 0.999024C229.475902 0.999024 0.499512 229.975415 0.499512 512.499512s228.97639 511.500488 511.500488 511.500488 511.500488-228.97639 511.500488-511.500488S794.524098 0.999024 512 0.999024zM628.985756 756.96078c-13.586732 14.485854-36.364488 15.185171-50.850341 1.598439l-235.569951-220.78439C335.272585 530.981463 331.176585 521.490732 331.176585 511.500488s4.096-19.480976 11.288976-26.174439l235.569951-220.78439c14.485854-13.586732 37.26361-12.887415 50.850341 1.598439 13.586732 14.485854 12.887415 37.26361-1.598439 50.850341L419.790049 511.500488l207.597268 194.609951C641.873171 719.697171 642.572488 742.474927 628.985756 756.96078z"></path>
</svg>