<?xml version="1.0" encoding="utf-8"?>
<svg id="like-o" viewBox="0 0 1024 1024" version="1.1" xmlns="http://www.w3.org/2000/svg" xmlns:xlink="http://www.w3.org/1999/xlink">
  <path d="M958.4 475.1l-0.9-3c-0.5-1.6-1-3-1.2-4-12.3-48.4-43-68.4-66.6-76.7-16-5.4-32.7-8.1-49.5-8.1h-0.8c-29.2-0.2-58.6-0.2-87.9-0.2-21.5 0-43 0.1-64.1 0.1h-21.6c2.3-14 4.5-27.4 7.1-40.8 8.8-44.9 7.2-84.1-5.1-119.8-7.6-22.2-16.1-44.3-24.2-65.6-3-7.9-6-15.8-9-23.6-10.1-27-28.2-46.1-53.7-56.8-19.5-8.5-39.3-12.6-58.8-12.6-22.6 0-44.7 5.5-65.8 16.5-33.1 17.3-50.9 46.8-49.9 83.1 0.3 12 0.6 24.3 0.8 36.2 0.4 20.2 0.8 41.1 1.7 61.7 0.3 3.4-0.4 6.9-2.2 9.9-7.3 12.7-14.8 25.5-22 38.1-17.1 29.8-34.8 60.7-53.1 90-26.5 42.1-82.4 48.5-82.4 48.5H136c-39.8 0-72 32.2-72 72v368c0 39.8 32.2 72 72 72h247.3-0.1 1.1c52.8 0 106.2-0.2 159.2-0.2 33.8 0 67.5 0.2 100.7 0.2h93.9c21.2 0 46.3-1.4 72-9.8 53.6-17.5 88.2-61.2 92.4-116.8 1.4-15.3 0.5-30.8-2.6-45.9 16.9-26.4 24.5-54.3 22.7-83.1-0.6-8.2-2.1-16.4-4.4-24.3 16.1-24 23.8-49.7 23.1-76.6-0.5-10-2.2-19.9-4.9-29.6 9.2-13.6 15.9-28.6 19.7-44.6l3.9-5.1v-44l-1.6-5.1zM248 888H136V520h112v368z m640-383.2l-1.9 7.8c-1.8 7.6-5 14.7-9.3 21.1l-18.9 27.9 9.3 32.4c1.2 4.1 1.9 8.4 2.2 12.7 0.2 11.5-3.3 22.2-10.9 33.5l-18.8 28 9.5 32.3c0.9 2.9 1.4 5.9 1.6 8.9 0.7 13.2-3 26.1-11.6 39.4l-15.8 25 5.3 25.2H820h8.7l0.8 3.4c1.7 8 2.2 16.2 1.4 24.3l-0.1 0.6v0.6c-1 13-5.1 24.2-12.3 33.3-7.3 9.2-17.6 16.3-30.6 20.5-16.1 5.3-33.4 6.2-49.7 6.2h-93.9c-16.5 0-33.1-0.2-49.9-0.2-16.9 0-33.8-0.1-50.8-0.1-47.6 0-103.7 0.3-159.4 0.3h-63.9l0.8-387.7c30.4-14.8 54.9-36.1 71.5-62.4l0.1-0.2 0.1-0.2c18.7-30 36.5-61 53.7-91l0.7-1.1 0.1-0.1 0.1-0.1c4.5-7.9 9.3-16.2 13.9-24.2 2.6-4.5 5.2-8.9 7.7-13.3 9-15.3 13.1-32.7 11.9-50.3-0.8-18.9-1.2-38.4-1.5-57.2v-1.7c-0.3-13.7-0.5-25.3-0.8-36.8-0.2-6.1 1.4-8.7 1.9-9.6 2-3.4 6.2-6.1 9.4-7.7 10.7-5.6 21.3-8.3 32.4-8.3 9.9 0 20.4 2.3 31.1 6.7 6 2.5 10.5 6 14.1 15.7 3 7.9 6.1 16 9.1 24 9 23.5 16.4 43.1 23.4 63.3 8 23.4 8.9 50.4 2.5 82.5-2.7 13.8-5 27.2-7.6 43.1L581.1 455H687.3c10.5 0 21.1 0 31.8-0.1h32.3c25.8 0 56.3 0 87.3 0.3l0.5-0.1 0.5-0.1h0.4c8.8 0 17.5 1.5 25.9 4.2 7.9 2.9 15.8 8.3 20.4 26.4 0.5 2.1 1.6 4 1.6 5.6v13.6z"></path>
</svg>