<?xml version="1.0" encoding="utf-8"?>
<!-- Generator: Adobe Illustrator 21.0.0, SVG Export Plug-In . SVG Version: 6.00 Build 0)  -->
<svg version="1.1" id="图层_1" xmlns="http://www.w3.org/2000/svg" xmlns:xlink="http://www.w3.org/1999/xlink" x="0px" y="0px"
	 viewBox="0 0 1024 1024" style="enable-background:new 0 0 1024 1024;" xml:space="preserve">
<title>like-fill</title>
<desc>Created with Sketch.</desc>
<g>
	<path d="M885.9,533.7c16.8-22.2,26.1-49.4,26.1-77.7c0-44.9-25.1-87.4-65.5-111.1c-10.4-6.1-22.2-9.3-34.3-9.3H572.4l6-122.9
		c1.4-29.7-9.1-57.9-29.5-79.4c-20.5-21.5-48.1-33.4-77.9-33.4c-52,0-98,35-111.8,85.1L273.3,496l-0.3,0v428h472.3
		c9.2,0,18.2-1.8,26.5-5.4c47.6-20.3,78.3-66.8,78.3-118.4c0-12.6-1.8-25-5.4-37c16.8-22.2,26.1-49.4,26.1-77.7
		c0-12.6-1.8-25-5.4-37c16.8-22.2,26.1-49.4,26.1-77.7C891.3,558.2,889.5,545.7,885.9,533.7z"/>
	<path d="M112,528v364c0,17.7,14.3,32,32,32h65V496l-65,0C126.3,496,112,510.3,112,528z"/>
</g>
</svg>
