<?xml version="1.0" encoding="utf-8"?>

<svg id="line-chart" viewBox="0 0 1024 1024">
  <path d="M923 960 99 960c-19.9 0-36-16.1-36-36L63 99c0-19.9 16.1-36 36-36s36 16.1 36 36l0 789 788 0c19.9 0 36 16.1 36 36S942.9 960 923 960z"></path>
  <path d="M385 743c-12 0-23.4-6-30.1-16.3l-157-250c-10.9-16.6-6.3-38.9 10.4-49.8 16.6-10.9 38.9-6.3 49.8 10.4l112.4 181.9L416.1 442c2.6-10.2 9.7-18.8 19.2-23.4l182-88c16.6-8 36.6-2.2 46.3 13.5l91.5 148.3L888.8 88.7c6.3-18.9 26.6-29.1 45.5-22.9 18.9 6.3 29.1 26.6 22.9 45.5l-158 477c-4.4 13.3-16.1 22.8-30 24.4-13.9 1.6-27.5-5-34.8-16.9l-115-186.2-137.7 66.6L419.9 716c-3.6 13.8-14.9 24.2-29 26.5C388.9 742.8 386.9 743 385 743z"></path>
</svg>