<?xml version="1.0" encoding="utf-8"?>
<!-- Generator: Adobe Illustrator 21.0.0, SVG Export Plug-In . SVG Version: 6.00 Build 0)  -->
<svg version="1.1" id="图层_1" xmlns="http://www.w3.org/2000/svg" xmlns:xlink="http://www.w3.org/1999/xlink" x="0px" y="0px"
	 viewBox="0 0 1024 1024" style="enable-background:new 0 0 1024 1024;" xml:space="preserve">
<title>line chart</title>
<desc>Created with Sketch.</desc>
<g>
	<path d="M888,792H200V168c0-4.4-3.6-8-8-8h-56c-4.4,0-8,3.6-8,8v688c0,4.4,3.6,8,8,8h56h696c4.4,0,8-3.6,8-8v-56
		C896,795.6,892.4,792,888,792z"/>
	<path d="M305.8,637.7c3.1,3.1,8.1,3.1,11.3,0l138.3-137.6l127.6,128.4c3.1,3.1,8.2,3.1,11.3,0l275.4-275.3c3.1-3.1,3.1-8.2,0-11.3
		l-39.6-39.6c-3.1-3.1-8.2-3.1-11.3,0l-230,229.9L461.4,404c-3.1-3.1-8.2-3.1-11.3,0L266.3,586.7c-3.1,3.1-3.1,8.2,0,11.3
		L305.8,637.7z"/>
</g>
</svg>
