<?xml version="1.0" encoding="utf-8"?>
<svg id="link" viewBox="0 0 1024 1024" version="1.1" xmlns="http://www.w3.org/2000/svg" xmlns:xlink="http://www.w3.org/1999/xlink">
  <path d="M541.7 665.7 362.9 844.6c-24.7 24.7-57.6 38.4-92.6 38.4-35 0-67.9-13.6-92.6-38.4S139.2 787 139.2 752c0-35 13.6-67.9 38.4-92.6l178.9-178.9c14.1-14.1 14.1-36.9 0-50.9-14.1-14.1-36.9-14.1-50.9 0L126.7 608.4C88.3 646.8 67.2 697.8 67.2 752c0 54.2 21.1 105.2 59.5 143.5 39.6 39.6 91.6 59.4 143.5 59.4 52 0 104-19.8 143.5-59.4l178.9-178.9c14.1-14.1 14.1-36.9 0-50.9S555.8 651.7 541.7 665.7z"></path>
  <path d="M899.4 122.8c-79.2-79.2-207.9-79.2-287.1 0L433.4 301.7c-14.1 14.1-14.1 36.9 0 50.9 14.1 14.1 36.9 14.1 50.9 0l178.9-178.9c51.1-51.1 134.2-51.1 185.3 0 24.7 24.7 38.4 57.6 38.4 92.6s-13.6 67.9-38.4 92.6L669.6 537.8c-14.1 14.1-14.1 36.9 0 50.9 7 7 16.2 10.5 25.5 10.5s18.4-3.5 25.5-10.5l178.9-178.9C978.6 330.7 978.6 201.9 899.4 122.8z"></path>
  <path d="M486.5 588.5l102-102c14.1-14.1 14.1-36.9 0-50.9-14.1-14.1-36.9-14.1-50.9 0l-102 102c-14.1 14.1-14.1 36.9 0 50.9 7 7 16.2 10.5 25.5 10.5S479.4 595.5 486.5 588.5z"></path>
</svg>