<?xml version="1.0" encoding="utf-8"?>

<svg id="linkedin" viewBox="0 0 1024 1024">
  <path d="M136 64h752c39.765 0 72 32.235 72 72v752c0 39.765-32.235 72-72 72H136c-39.765 0-72-32.235-72-72V136c0-39.765 32.235-72 72-72z m691.493 763.5V592.956c0-115.128-24.845-203.688-159.417-203.688-64.654 0-108.004 35.448-125.737 69.06h-1.767v-58.42H413.087V827.5h132.799V615.972c0-55.775 10.59-109.796 79.749-109.796 68.145 0 69.053 63.777 69.053 113.386V827.5h132.805zM263.32 341.457c42.485 0 77.011-34.539 77.011-77.073 0-42.504-34.526-77.03-77.011-77.03-42.597 0-77.074 34.526-77.074 77.03 0 42.534 34.477 77.073 77.074 77.073zM196.843 827.5H329.74V399.908H196.843V827.5z"></path>
</svg>