<?xml version="1.0" encoding="utf-8"?>
<svg id="lock" viewBox="0 0 1024 1024" version="1.1" xmlns="http://www.w3.org/2000/svg" xmlns:xlink="http://www.w3.org/1999/xlink">
  <path d="M824.1 282.1c-17.3-42.7-41.8-80.9-72.7-113.4-30.9-32.8-67.1-58.7-107.6-76.9-41.9-18.7-86.2-28.2-131.8-28.2-45.6 0-90 9.5-131.9 28.3-40.5 18.1-76.6 44-107.6 76.8-31.2 32.9-55.7 71.1-72.7 113.4-17.7 43.8-26.7 90.4-26.7 138.6l0 470.2c0 38.4 29.7 69.6 66.3 69.6l544.9 0c36.6 0 66.3-31.2 66.1-69.6L850.4 475.9l0.2-19.1 0-36.1C850.8 372.7 841.8 326.1 824.1 282.1zM406.7 154.8l0.2 0 1.3-0.5c32.7-14.9 67.6-22.4 103.7-22.4 35.9 0 70.9 7.6 103.8 22.2 31.9 14.4 60.9 35.1 86 61.4 25.3 26.7 45 57.6 58.9 92 14.5 35.8 21.8 73.8 21.8 113.2l0 29.6L241.4 450.3l0 0 0-29.7c0-39 7.3-77 21.8-113.1 14-34.7 33.9-65.6 58.9-91.9C347 189.4 375.3 168.9 406.7 154.8zM782.7 518.4l0 372.4c0 0.6-0.1 1.1-0.2 1.4L241.6 892.2c-0.1-0.3-0.2-0.8-0.2-1.4L241.4 518.4 782.7 518.4z"></path>
  <path d="M480.4 672l0 89.5c0 17.5 14.2 31.7 31.7 31.7 17.5 0 31.7-14.2 31.7-31.7l0-89.7c16.8-10.8 26.9-29 26.9-49.2 0-32.4-26.3-58.7-58.7-58.7s-58.7 26.3-58.7 58.7C453.4 642.5 463.7 661.3 480.4 672z"></path>
</svg>