<?xml version="1.0" encoding="utf-8"?>
<svg id="login" viewBox="0 0 1024 1024" version="1.1" xmlns="http://www.w3.org/2000/svg" xmlns:xlink="http://www.w3.org/1999/xlink">
  <path d="M442.9 622.5c-14.1 14.1-14.1 36.8-0.1 50.8 7 7 16.3 10.6 25.5 10.6s18.5-3.5 25.5-10.5l135.8-135.8c14.1-14.1 14.1-37.1 0-51.2L493.8 350.7c-14.1-14.1-36.9-14.1-50.9 0-14.1 14.1-14.1 36.9 0 50.9l74.3 74.3-481.1 0.1c-19.9 0-36 16.1-36 36s16.2 36.1 36 36.1l481.1 0.1-74.3 74.3z"></path>
  <path d="M983.7 312.8C957.9 251.8 921 197 874 150S772.3 66 711.3 40.2C648.2 13.5 581.1 0 512 0c-81.3 0-159.1 18.5-231.2 55-68.7 34.9-129.7 85.7-176.3 147.2-12.1 15.8-9 38.4 6.8 50.4 15.8 12.1 38.4 9 50.4-6.8 40.2-52.8 92.6-96.6 151.7-126.5C375.3 87.9 442.1 72 512 72c59.4 0 117 11.6 171.2 34.5 52.4 22.1 99.5 53.9 139.9 94.3 40.4 40.4 72.1 87.5 94.3 139.9C940.4 395 952 452.6 952 512s-11.6 117-34.5 171.2c-22.1 52.4-53.9 99.5-94.3 139.9-40.4 40.4-87.5 72.1-139.9 94.3C629 940.5 571.4 952 512 952c-69.9 0-136.7-15.9-198.8-47.4-59-29.9-111.5-73.7-151.7-126.5-12-15.8-34.6-18.8-50.4-6.8-15.8 12-18.8 34.6-6.8 50.4 46.8 61.5 107.8 112.4 176.5 147.2 72.1 36.5 149.9 55 231.2 55 69.1 0 136.2-13.5 199.3-40.2C772.2 958 827 921 874 874s84-101.7 109.8-162.7c26.7-63.1 40.2-130.2 40.2-199.3s-13.5-136.2-40.3-199.2z"></path>
</svg>