<?xml version="1.0" encoding="utf-8"?>
<!-- Generator: Adobe Illustrator 21.0.0, SVG Export Plug-In . SVG Version: 6.00 Build 0)  -->
<svg version="1.1" id="图层_1" xmlns="http://www.w3.org/2000/svg" xmlns:xlink="http://www.w3.org/1999/xlink" x="0px" y="0px"
	 viewBox="0 0 1024 1024" style="enable-background:new 0 0 1024 1024;" xml:space="preserve">
<title>login</title>
<desc>Created with Sketch.</desc>
<g>
	<path d="M512.7,82C360.2,81.6,226,160.5,149.3,279.7c-3.4,5.3,0.4,12.3,6.7,12.3h70.3c4.8,0,9.3-2.1,12.3-5.8
		c7-8.5,14.5-16.7,22.4-24.5c32.6-32.5,70.5-58.1,112.7-75.9c43.6-18.4,90-27.8,137.9-27.8c47.9,0,94.3,9.3,137.9,27.8
		c42.2,17.8,80.1,43.4,112.7,75.9c32.6,32.5,58.1,70.4,76,112.5c18.5,43.6,27.8,89.9,27.8,137.8s-9.4,94.2-27.8,137.8
		c-17.8,42.1-43.4,80-76,112.5c-32.6,32.5-70.5,58.1-112.7,75.9c-43.6,18.4-90,27.8-137.9,27.8c-47.9,0-94.3-9.4-137.9-27.8
		c-42.2-17.8-80.1-43.4-112.7-75.9c-7.9-7.9-15.3-16.1-22.4-24.5c-3-3.7-7.6-5.8-12.3-5.8H156c-6.3,0-10.2,7-6.7,12.3
		C225.9,863.2,359.5,942,511.6,942c236.2,0,428-190.1,430.4-425.6C944.4,277.1,752.3,82.6,512.7,82z"/>
	<path d="M222,624v-76h314c4.4,0,8-3.6,8-8v-56c0-4.4-3.6-8-8-8H222v-76c0-6.7-7.8-10.5-13-6.3l-141.9,112c-4.1,3.2-4.1,9.4,0,12.6
		l141.9,112C214.2,634.4,222,630.7,222,624z"/>
</g>
</svg>
