<?xml version="1.0" encoding="utf-8"?>
<svg id="logout" viewBox="0 0 1024 1024" version="1.1" xmlns="http://www.w3.org/2000/svg" xmlns:xlink="http://www.w3.org/1999/xlink">
  <path d="M772 867c-75.8 55.6-165.7 85-260 85-59.4 0-117-11.6-171.2-34.5-52.4-22.1-99.5-53.9-139.9-94.3-40.4-40.4-72.1-87.5-94.3-139.9C83.6 629 72 571.4 72 512s11.6-117 34.5-171.2c22.1-52.4 53.8-99.5 94.3-139.9 40.5-40.4 87.5-72.1 139.9-94.3C395 83.6 452.6 72 512 72c94.3 0 184.2 29.4 260 85 16 11.8 38.5 8.3 50.3-7.7s8.3-38.5-7.7-50.3C726.4 34.2 621.7 0 512 0c-69.1 0-136.2 13.5-199.3 40.2C251.7 66 197 103 150 150S66 251.7 40.2 312.7C13.5 375.8 0 442.9 0 512s13.5 136.2 40.2 199.3C66 772.3 103 827 150 874s101.7 84 162.7 109.8c63.1 26.7 130.2 40.2 199.3 40.2 109.7 0 214.4-34.2 302.6-99 16-11.7 19.5-34.3 7.7-50.3-11.7-16-34.3-19.5-50.3-7.7z"></path>
  <path d="M1013.6 486.5L877.8 350.7c-14.1-14.1-36.9-14.1-50.9 0-14.1 14.1-14.1 36.9 0 50.9l74.3 74.3-481.1 0.1c-19.9 0-36 16.1-36 36s16.2 36.1 36 36.1l481.1 0.1-74.3 74.3c-14.1 14.1-14.1 36.8-0.1 50.8 7 7 16.3 10.6 25.5 10.6s18.5-3.5 25.5-10.5l135.8-135.8c14-14 14-37.1 0-51.1z"></path>
</svg>