<?xml version="1.0" encoding="utf-8"?>
<svg id="mail" viewBox="0 0 1024 1024" version="1.1" xmlns="http://www.w3.org/2000/svg" xmlns:xlink="http://www.w3.org/1999/xlink">
  <path d="M885.9 127.9 132.8 127.9c-39.8 0-72 32.2-72 72l0 625.9c0 39.8 32.2 72 72 72l753.1 0c39.8 0 72-32.2 72-72L957.9 199.9C957.9 160.2 925.6 127.9 885.9 127.9zM808.7 199.9 540.6 424l-1.6 1.3-1.4 1.5c-6.8 7.2-16 11.1-25.9 11.2-0.1 0-0.1 0-0.2 0-9.8 0-19-3.9-25.8-10.9l-1.4-1.4L210.5 199.9 808.7 199.9zM885.9 825.8 132.8 825.8c0 0 0 0 0 0L132.8 229.2l302.8 249.5c20.4 20.2 47.2 31.3 76 31.3 0.2 0 0.3 0 0.5 0 28.9-0.1 55.9-11.4 76.2-31.9l297.7-248.8L886 825.8C885.9 825.8 885.9 825.8 885.9 825.8z"></path>
</svg>