<?xml version="1.0" encoding="utf-8"?>

<svg id="medium" viewBox="0 0 1024 1024">
  <path d="M136 64h752c39.765 0 72 32.235 72 72v752c0 39.765-32.235 72-72 72H136c-39.765 0-72-32.235-72-72V136c0-39.765 32.235-72 72-72z m141.818 299.658v266.043a30.616 30.616 0 0 1-8.15 26.408l-63.227 76.695v10.113h179.286v-10.113l-63.228-76.695a31.74 31.74 0 0 1-8.711-26.408V399.617l157.367 343.3h18.265l135.167-343.3v273.629c0 7.304 0 8.709-4.777 13.485l-48.615 47.196v10.114h236.05v-10.114l-46.929-46.073a14.045 14.045 0 0 1-5.34-13.484V335.846a14.045 14.045 0 0 1 5.34-13.485l48.053-46.073v-10.114H642.01L523.423 561.997 388.537 266.174H214.028v10.114l56.203 67.705a23.314 23.314 0 0 1 7.587 19.665z"></path>
</svg>