<?xml version="1.0" encoding="utf-8"?>
<svg id="medium-workmark" viewBox="0 0 1024 1024" version="1.1" xmlns="http://www.w3.org/2000/svg" xmlns:xlink="http://www.w3.org/1999/xlink">
  <path d="M517.197 590.547c0 3.557 0 4.365 2.398 6.548l13.432 13.258v0.566h-59.563v-25.465c-5.995 16.783-21.849 27.882-39.495 27.648-30.621 0-52.847-24.253-52.847-68.877 0-41.794 23.985-69.684 57.644-69.684 14.92-0.95 28.804 7.74 34.618 21.665v-56.184a6.989 6.989 0 0 0-2.718-6.79l-12.792-12.45v-0.566l59.323-7.033v177.364z m-43.733-8.084v-83.832c-4.316-5.421-10.867-8.524-17.749-8.407-14.47 0-28.462 13.258-28.462 52.627 0 36.863 12.072 49.879 27.103 49.879 7.621-0.158 14.714-3.969 19.108-10.267z m83.228 28.456V497.742a7.647 7.647 0 0 0-2.398-6.79l-13.192-13.744v-0.565h59.563v114.793c0 3.557 0 4.366 2.398 6.548l13.112 12.45V611l-59.483-0.081z m-2.159-175.667c0-13.394 10.739-24.252 23.985-24.252 13.247 0 23.985 10.858 23.985 24.252 0 13.394-10.738 24.252-23.985 24.252-13.246 0-23.985-10.858-23.985-24.252z m206.831 155.053c0 3.557 0 4.607 2.399 6.79l13.431 13.258v0.566h-59.882v-29.022c-5.453 18.35-22.066 30.99-41.015 31.205-26.543 0-40.774-19.564-40.774-56.589 0-17.866 0-37.43 0.56-59.418a6.912 6.912 0 0 0-2.4-6.548l-13.19-13.339v-0.565h59.082v73.807c0 24.252 3.518 40.42 18.549 40.42 8.072-0.51 15.346-5.1 19.348-12.206v-80.841a7.647 7.647 0 0 0-2.399-6.79l-13.272-13.825v-0.565h59.563v113.662z m202.753 20.614c0-4.365 0.8-59.984 0.8-72.757 0-24.252-3.758-40.986-20.627-40.986-8.488 0.265-16.35 4.584-21.187 11.641a99.68 99.68 0 0 1 2.399 23.04c0 16.815-0.56 38.237-0.8 59.66a6.912 6.912 0 0 0 2.399 6.548l13.431 12.45v0.566H880.41c0-4.042 0.8-59.984 0.8-72.757 0-24.656-3.758-40.986-20.388-40.986-8.198 0.297-15.677 4.81-19.828 11.964v82.458c0 3.557 0 4.365 2.399 6.548l13.112 12.45v0.565h-59.483V498.146a7.647 7.647 0 0 0-2.399-6.79l-13.191-14.148v-0.565h59.562v28.779c5.523-19.001 23.123-31.766 42.694-30.962 19.827 0 33.259 11.156 38.935 32.336 6.305-19.534 24.453-32.641 44.772-32.336 26.544 0 41.574 19.806 41.574 57.235 0 17.866-0.56 38.238-0.8 59.66a6.499 6.499 0 0 0 2.72 6.549L1024 610.353v0.566h-59.883z m-748.252-17.623l17.669 17.057v0.566H143.91v-0.566l17.989-17.057a6.912 6.912 0 0 0 2.398-6.548V477.694c0-4.608 0-10.833 0.8-16.169l-60.442 151.577h-0.72l-62.6-139.45c-1.36-3.477-1.76-3.72-2.64-6.064v91.431a32.082 32.082 0 0 0 2.959 17.866l25.184 33.468v0.566H0v-0.566l25.184-33.549a32.163 32.163 0 0 0 2.958-17.785V457.97a19.714 19.714 0 0 0-4.157-13.824L6.156 420.782v-0.566h63.96l53.567 118.108 47.17-118.108h62.601v0.566l-17.589 19.806a6.989 6.989 0 0 0-2.718 6.79v139.37a6.499 6.499 0 0 0 2.718 6.548z m70.116-54.649v0.566c0 34.6 17.67 48.505 38.376 48.505 17.291 0.597 33.293-9.207 40.775-24.98h0.56c-7.196 34.195-28.143 50.364-59.483 50.364-33.82 0-65.72-20.615-65.72-68.392 0-50.202 31.98-70.25 67.319-70.25 28.462 0 58.763 13.581 58.763 57.235v6.952h-80.59z m0-6.952h39.416v-7.033c0-35.57-7.276-45.028-18.229-45.028-13.272 0-21.347 14.147-21.347 52.061h0.16z"></path>
</svg>