<?xml version="1.0" encoding="utf-8"?>
<!-- Generator: Adobe Illustrator 21.0.0, SVG Export Plug-In . SVG Version: 6.00 Build 0)  -->
<svg version="1.1" id="图层_1" xmlns="http://www.w3.org/2000/svg" xmlns:xlink="http://www.w3.org/1999/xlink" x="0px" y="0px"
	 viewBox="0 0 1024 1024" style="enable-background:new 0 0 1024 1024;" xml:space="preserve">
<style type="text/css">
	.st0{fill:none;}
</style>
<title>meh</title>
<desc>Created with Sketch.</desc>
<g>
	<path class="st0" d="M854.8,367.2c-18.7-44.3-45.6-84.1-79.8-118.3c-34.2-34.2-74-61-118.3-79.8C611,149.8,562.3,140,512,140
		c-50.3,0-99,9.8-144.8,29.2c-44.3,18.7-84.1,45.6-118.3,79.8c-34.2,34.2-61,74-79.8,118.3C149.8,413,140,461.7,140,512
		s9.8,99,29.2,144.8c18.7,44.3,45.6,84.1,79.8,118.3c34.2,34.2,74,61,118.3,79.8C413,874.2,461.7,884,512,884
		c50.3,0,99-9.8,144.8-29.2c44.3-18.7,84.1-45.6,118.3-79.8c34.2-34.2,61-74,79.8-118.3C874.2,611,884,562.3,884,512
		S874.2,413,854.8,367.2z M288,421c0-26.5,21.5-48,48-48s48,21.5,48,48s-21.5,48-48,48S288,447.5,288,421z M672,621c0,4.4-3.6,8-8,8
		H360c-4.4,0-8-3.6-8-8v-48c0-4.4,3.6-8,8-8h304c4.4,0,8,3.6,8,8V621z M688,469c-26.5,0-48-21.5-48-48s21.5-48,48-48s48,21.5,48,48
		S714.5,469,688,469z"/>
	<circle cx="336" cy="421" r="48"/>
	<circle cx="688" cy="421" r="48"/>
	<path d="M512,64C264.6,64,64,264.6,64,512s200.6,448,448,448s448-200.6,448-448S759.4,64,512,64z M775,775
		c-34.2,34.2-74,61-118.3,79.8C611,874.2,562.3,884,512,884c-50.3,0-99-9.8-144.8-29.2c-44.3-18.7-84.1-45.6-118.3-79.8
		c-34.2-34.2-61-74-79.8-118.3C149.8,611,140,562.3,140,512s9.8-99,29.2-144.8c18.7-44.3,45.6-84.1,79.8-118.3
		c34.2-34.2,74-61,118.3-79.8C413,149.8,461.7,140,512,140c50.3,0,99,9.8,144.8,29.2c44.3,18.7,84.1,45.6,118.3,79.8
		c34.2,34.2,61,74,79.8,118.3C874.2,413,884,461.7,884,512s-9.8,99-29.2,144.8C836.1,701.1,809.2,740.9,775,775z"/>
	<path d="M664,565H360c-4.4,0-8,3.6-8,8v48c0,4.4,3.6,8,8,8h304c4.4,0,8-3.6,8-8v-48C672,568.6,668.4,565,664,565z"/>
</g>
</svg>
