<?xml version="1.0" encoding="utf-8"?>

<svg id="menufold" viewBox="0 0 1024 1024">
  <path d="M96.8 200.8l828.1 0c19.9 0 36-16.1 36-36s-16.1-36-36-36L96.8 128.8c-19.9 0-36 16.1-36 36S76.9 200.8 96.8 200.8z"></path>
  <path d="M922.9 445.8 357.8 445.8c-19.9 0-36 16.1-36 36s16.1 36 36 36l565.1 0c19.9 0 36-16.1 36-36S942.7 445.8 922.9 445.8z"></path>
  <path d="M924.9 823.8 99.8 823.8c-19.9 0-36 16.1-36 36s16.1 36 36 36l825.1 0c19.9 0 36-16.1 36-36S944.7 823.8 924.9 823.8z"></path>
  <path d="M195.1 615c7 6.9 16.1 10.3 25.2 10.3 9.3 0 18.6-3.6 25.7-10.8 13.9-14.2 13.8-37-0.4-50.9l-95.4-93.8 93.7-88.3c14.5-13.6 15.2-36.4 1.5-50.9-13.6-14.5-36.4-15.1-50.9-1.5L73.6 443.1c-7.1 6.7-11.2 16-11.3 25.8-0.1 9.8 3.8 19.2 10.8 26.1L195.1 615z"></path>
</svg>