<?xml version="1.0" encoding="utf-8"?>
<!-- Generator: Adobe Illustrator 21.0.0, SVG Export Plug-In . SVG Version: 6.00 Build 0)  -->
<svg version="1.1" id="图层_1" xmlns="http://www.w3.org/2000/svg" xmlns:xlink="http://www.w3.org/1999/xlink" x="0px" y="0px"
	 viewBox="0 0 1024 1024" style="enable-background:new 0 0 1024 1024;" xml:space="preserve">
<title>menu</title>
<desc>Created with Sketch.</desc>
<g>
	<path d="M904,160H120c-4.4,0-8,3.6-8,8v64c0,4.4,3.6,8,8,8h784c4.4,0,8-3.6,8-8v-64C912,163.6,908.4,160,904,160z"/>
	<path d="M904,784H120c-4.4,0-8,3.6-8,8v64c0,4.4,3.6,8,8,8h784c4.4,0,8-3.6,8-8v-64C912,787.6,908.4,784,904,784z"/>
	<path d="M904,472H120c-4.4,0-8,3.6-8,8v64c0,4.4,3.6,8,8,8h784c4.4,0,8-3.6,8-8v-64C912,475.6,908.4,472,904,472z"/>
</g>
</svg>
