<?xml version="1.0" encoding="utf-8"?>

<svg id="message" viewBox="0 0 1024 1024">
  <path d="M292.021217 424.9585c-30.397032 0-54.994629 24.597598-54.994629 54.99463s24.697588 54.994629 54.994629 54.994629c30.397032 0 54.994629-24.597598 54.99463-54.994629s-24.597598-54.994629-54.99463-54.99463zM731.978253 424.9585c-30.397032 0-54.994629 24.597598-54.99463 54.99463s24.697588 54.994629 54.99463 54.994629 54.894639-24.597598 54.994629-54.994629c0-30.397032-24.697588-54.994629-54.994629-54.99463zM511.999735 424.9585c-30.397032 0-54.994629 24.597598-54.99463 54.99463s24.697588 54.994629 54.99463 54.994629 54.994629-24.597598 54.994629-54.994629-24.697588-54.994629-54.994629-54.99463z"></path>
  <path d="M983.353704 291.871497c-25.897471-57.094424-62.993848-108.389415-110.289229-152.385119-46.995411-43.795723-101.690069-78.192364-162.584123-102.19002C647.586494 12.59877 580.793017 0 511.999735 0c-68.793282 0-135.586759 12.59877-198.480617 37.296358-60.894053 23.997656-115.588712 58.394297-162.584123 102.19002-47.195391 43.995704-84.291768 95.190704-110.289229 152.385119C13.748392 351.265697 0.04973 414.359535 0.04973 479.353188c0 116.888585 45.095596 228.677668 127.187579 316.269115l23.097745 196.580802c1.399863 11.998828 8.69915 22.497803 19.498096 27.897276 5.099502 2.599746 10.698955 3.899619 16.198418 3.899619 6.099404 0 12.298799-1.599844 17.798262-4.699541l148.285519-84.291768c51.394981 15.798457 105.089737 23.797676 159.784396 23.797676 68.793282 0 135.586759-12.59877 198.480617-37.296358 60.894053-23.997656 115.588712-58.394297 162.584122-102.190021 47.195391-43.995704 84.291768-95.190704 110.28923-152.385118 26.997364-59.3942 40.596036-122.388048 40.596036-187.481692 0.09999-65.093643-13.598672-128.187482-40.496046-187.581681z m-65.593594 345.166292c-21.997852 48.395274-53.494776 91.991017-93.790841 129.487355-40.396055 37.596328-87.491456 67.193438-139.986329 87.891417-54.494678 21.497901-112.389025 32.296846-172.083195 32.296846-52.294893 0-103.589884-8.39918-152.185139-24.997559-9.799043-3.299678-20.497998-2.299775-29.397129 2.799727l-114.88878 65.293623-18.198223-154.684894c-0.899912-7.999219-4.499561-15.398496-10.099014-21.097939C112.938706 678.833708 72.042699 581.243238 72.042699 479.353188c0-54.694659 11.498877-107.689483 34.196661-157.684601 21.997852-48.395274 53.494776-91.991017 93.790841-129.487355 40.396055-37.596328 87.491456-67.193438 139.986329-87.891417C394.411218 82.891905 452.305564 71.992969 511.999735 71.992969s117.588517 10.898936 172.083195 32.296846c52.494874 20.697979 99.590274 50.195098 139.986329 87.891417 40.196075 37.496338 71.792989 80.992091 93.790841 129.487355 22.697783 49.995118 34.19666 102.989942 34.196661 157.684601-0.09999 54.694659-11.598867 107.689483-34.296651 157.684601z"></path>
</svg>