<?xml version="1.0" encoding="utf-8"?>
<!-- Generator: Adobe Illustrator 21.0.0, SVG Export Plug-In . SVG Version: 6.00 Build 0)  -->
<svg version="1.1" id="图层_1" xmlns="http://www.w3.org/2000/svg" xmlns:xlink="http://www.w3.org/1999/xlink" x="0px" y="0px"
	 viewBox="0 0 1024 1024" style="enable-background:new 0 0 1024 1024;" xml:space="preserve">
<style type="text/css">
	.st0{fill:none;}
</style>
<title>message-fill</title>
<desc>Created with Sketch.</desc>
<g>
	<path class="st0" d="M512,464c-26.4,0-47.9,21.5-47.9,48s21.5,48,47.9,48s47.9-21.5,47.9-48S538.4,464,512,464z"/>
	<path class="st0" d="M312.4,464c-26.4,0-47.9,21.5-47.9,48s21.5,48,47.9,48s47.9-21.5,47.9-48S338.9,464,312.4,464z"/>
	<path class="st0" d="M711.6,464c-26.4,0-47.9,21.5-47.9,48s21.5,48,47.9,48s47.9-21.5,47.9-48S738,464,711.6,464z"/>
	<path d="M924.3,338.4c-22.5-53.7-54.9-101.9-96.1-143.3c-41.2-41.3-89.3-73.8-143-96.3C630.3,75.7,572.1,64,512,64
		c-0.7,0-1.4,0-2,0c-60.5,0.3-119,12.3-174.1,35.9c-53.2,22.8-100.9,55.2-141.7,96.5c-40.8,41.3-72.8,89.3-95,142.8
		C76.3,394.6,64.7,453.5,65,514.1c0.3,69.4,16.9,138.3,47.9,199.9v152c0,25.4,20.6,46,45.9,46h151.8c61.5,31.1,130.2,47.7,199.5,48
		c0.7,0,1.4,0,2.1,0c59.8,0,117.7-11.6,172.3-34.3c53.4-22.3,101.4-54.3,142.5-95.2c41.2-40.9,73.6-88.7,96.3-142
		c23.5-55.2,35.5-113.9,35.8-174.5C959.3,453.1,947.5,394,924.3,338.4z M312.4,560c-26.4,0-47.9-21.5-47.9-48s21.5-48,47.9-48
		s47.9,21.5,47.9,48S338.9,560,312.4,560z M512,560c-26.4,0-47.9-21.5-47.9-48s21.5-48,47.9-48s47.9,21.5,47.9,48S538.4,560,512,560
		z M711.6,560c-26.4,0-47.9-21.5-47.9-48s21.5-48,47.9-48s47.9,21.5,47.9,48S738,560,711.6,560z"/>
</g>
</svg>
