<?xml version="1.0" encoding="utf-8"?>
<!-- Generator: Adobe Illustrator 21.0.0, SVG Export Plug-In . SVG Version: 6.00 Build 0)  -->
<svg version="1.1" id="图层_1" xmlns="http://www.w3.org/2000/svg" xmlns:xlink="http://www.w3.org/1999/xlink" x="0px" y="0px"
	 viewBox="0 0 1024 1024" style="enable-background:new 0 0 1024 1024;" xml:space="preserve">
<style type="text/css">
	.st0{fill:none;}
</style>
<title>message</title>
<desc>Created with Sketch.</desc>
<g>
	<path class="st0" d="M775.1,248.9c-34.3-34.3-74.4-61.3-119-80C610.5,149.7,562,140,512,140c-0.6,0-1.1,0-1.7,0
		c-99.6,0.4-193,39.5-262.8,109.9c-69.8,70.4-108,164.1-107.6,263.8c0.3,60.3,15.3,120.2,43.5,173.1l4.5,8.4V836h140.8l8.4,4.5
		c52.9,28.2,112.7,43.3,173.1,43.5c0.6,0,1.2,0,1.7,0c99,0,192-38.2,262-107.6c70.5-69.8,109.5-163.1,109.9-262.8
		c0.2-50.6-9.5-99.7-28.9-145.8C836.4,323.2,809.5,283.2,775.1,248.9z M312,560c-26.5,0-48-21.5-48-48s21.5-48,48-48s48,21.5,48,48
		S338.5,560,312,560z M512,560c-26.5,0-48-21.5-48-48s21.5-48,48-48c26.5,0,48,21.5,48,48S538.5,560,512,560z M712,560
		c-26.5,0-48-21.5-48-48s21.5-48,48-48s48,21.5,48,48S738.5,560,712,560z"/>
	<circle cx="512" cy="512" r="48"/>
	<circle cx="712" cy="512" r="48"/>
	<circle cx="312" cy="512" r="48"/>
	<path d="M925.2,338.4c-22.6-53.7-55-101.9-96.3-143.3c-41.3-41.3-89.5-73.8-143.3-96.3C630.6,75.7,572.2,64,512,64
		c-0.7,0-1.4,0-2,0c-60.6,0.3-119.3,12.3-174.5,35.9c-53.3,22.8-101.1,55.2-142,96.5c-40.9,41.3-73,89.3-95.2,142.8
		C75.3,394.6,63.7,453.5,64,514.1c0.3,69.4,16.9,138.3,48,199.9V866c0,25.4,20.6,46,46,46h152.1c61.6,31.1,130.5,47.7,199.9,48
		c0.7,0,1.4,0,2.1,0c59.9,0,118-11.6,172.7-34.3c53.5-22.3,101.6-54.3,142.8-95.2c41.3-40.9,73.8-88.7,96.5-142
		c23.6-55.2,35.6-113.9,35.9-174.5C960.3,453.1,948.5,394,925.2,338.4z M774.1,776.4C704,845.8,611,884,512,884c-0.6,0-1.2,0-1.7,0
		c-60.3-0.3-120.2-15.3-173.1-43.5l-8.4-4.5H188V695.2l-4.5-8.4C155.3,633.9,140.3,574,140,513.7c-0.4-99.7,37.7-193.3,107.6-263.8
		c69.8-70.5,163.1-109.5,262.8-109.9c0.6,0,1.1,0,1.7,0c50,0,98.5,9.7,144.2,28.9c44.6,18.7,84.6,45.6,119,80
		c34.3,34.3,61.3,74.4,80,119c19.4,46.2,29.1,95.2,28.9,145.8C883.6,613.3,844.5,706.6,774.1,776.4z"/>
</g>
</svg>
