<?xml version="1.0" encoding="utf-8"?>
<svg id="paper-clip" viewBox="0 0 1024 1024" version="1.1" xmlns="http://www.w3.org/2000/svg" xmlns:xlink="http://www.w3.org/1999/xlink">
  <path d="M884.7 267.2c-47.1-46.5-109.7-72.3-176.5-72.4l-0.7 0c-32.1 0-63.4 6-93.2 17.8-30.9 12.3-58.7 30.4-82.5 53.9L298.9 496.7c-26.9 26.6-41.6 62.1-41.5 100 0.1 37.8 15 73.3 42 100 27 26.7 62.8 41.4 101 41.5l0.3 0c38.1 0 73.8-14.6 100.6-41l204.4-202c6.8-6.7 10.5-15.6 10.5-25 0-9.5-3.7-18.4-10.5-25-6.7-6.7-15.7-10.3-25.2-10.3-9.5 0-18.5 3.7-25.2 10.3l-204.4 202c-13.3 13.2-31.2 20.4-50.3 20.4l-0.1 0c-19.3-0.1-37.4-7.5-50.8-20.8-13.5-13.4-21-31.2-21-50.2-0.1-18.9 7.2-36.6 20.6-49.8l232.9-230.3c33.2-32.9 77.8-51 125.4-51l0.5 0c47.8 0.1 92.7 18.5 126.4 51.7 33.6 33.3 52.2 77.6 52.3 124.8 0.1 47.2-18.2 91.4-51.5 124.3L588.2 810.8c-49.4 48.6-115.4 75.4-185.8 75.4l-0.7 0c-70.7-0.2-137.1-27.4-186.9-76.6-49.8-49.2-77.3-114.8-77.4-184.7-0.2-69.9 27-135.3 76.4-184.1l319-315.4c6.8-6.7 10.5-15.6 10.5-25 0-9.5-3.7-18.4-10.5-25C526 68.7 517 65 507.5 65c-9.5 0-18.5 3.7-25.2 10.3l-319 315.5c-31.8 31.4-56.4 68.3-73.2 109.5C74 540.1 65.9 582.1 66 625.1c0.1 43.1 8.4 85.1 24.8 124.8 16.9 41.2 41.6 78.1 73.6 109.7 31.8 31.5 69.2 56 110.9 72.8 40 16.1 82.5 24.3 126.2 24.5l0.9 0c43.4 0 85.5-8 125.3-23.9 41.6-16.5 78.9-40.8 110.7-72.3l247.1-244.4c23.7-23.5 42.1-50.9 54.5-81.6 12-29.7 18.1-60.9 18-93C957.7 375.7 931.7 313.7 884.7 267.2z"></path>
</svg>