<?xml version="1.0" encoding="utf-8"?>
<svg id="pause-circle" viewBox="0 0 1024 1024" version="1.1" xmlns="http://www.w3.org/2000/svg" xmlns:xlink="http://www.w3.org/1999/xlink">
  <path d="M512 0C229.2 0 0 229.2 0 512s229.2 512 512 512 512-229.2 512-512S794.8 0 512 0zM393 668c0 19.9-16.1 36-36 36l0 0c-19.9 0-36-16.1-36-36L321 356c0-19.9 16.1-36 36-36l0 0c19.9 0 36 16.1 36 36L393 668zM703 668c0 19.9-16.1 36-36 36l0 0c-19.9 0-36-16.1-36-36L631 356c0-19.9 16.1-36 36-36l0 0c19.9 0 36 16.1 36 36L703 668z"></path>
</svg>