<?xml version="1.0" encoding="utf-8"?>
<svg id="pay-circle-o" viewBox="0 0 1024 1024" version="1.1" xmlns="http://www.w3.org/2000/svg" xmlns:xlink="http://www.w3.org/1999/xlink">
  <path d="M512 0C229.3 0 0 229.3 0 512s229.3 512 512 512 512-229.3 512-512S794.7 0 512 0z m311.1 823.1c-40.4 40.4-87.5 72.2-139.9 94.3C629 940.4 571.4 952 512 952c-59.4 0-117-11.6-171.2-34.6-52.4-22.2-99.5-53.9-139.9-94.3s-72.2-87.5-94.3-139.9C83.6 629 72 571.4 72 512s11.6-117 34.6-171.2c22.2-52.4 53.9-99.5 94.3-139.9s87.5-72.2 139.9-94.3C395 83.6 452.6 72 512 72c59.4 0 117 11.6 171.2 34.6 52.4 22.2 99.5 53.9 139.9 94.3s72.2 87.5 94.3 139.9C940.4 395 952 452.6 952 512s-11.6 117-34.6 171.2c-22.1 52.4-53.8 99.5-94.3 139.9z"></path>
  <path d="M701.8 437h-167c0.7 0 1.4-0.3 2.1-1l118.2-117.8c14.1-14.1 14.2-36.7 0.1-50.7-14.1-14.1-36.8-14-50.9 0.1l-92.4 92.5-92.9-92.8c-14.1-14.1-37-13.9-51.1 0.2-14.1 14.1-14.2 37-0.1 51.1L486 436.7c0.7 0.7 1.4 1.7 2.1 1.7H321.6c-18.8 0-34.3 15.7-34.3 34.5v3.3c0 18.8 15.5 33.8 34.3 33.8H476v64H353.5c-18.8 0-33.5 16.3-33.5 35.1v4c0 18.8 14.7 32.9 33.5 32.9H476v149.2c0 19.9 16.1 36 36 36s36-16.1 36-36V646h121.8c18.8 0 35.2-14.1 35.2-32.9v-4c0-18.8-16.4-35.1-35.2-35.1H548v-64h153.8c18.8 0 35.2-14.2 35.2-33.1v-4c0-18.8-16.4-35.9-35.2-35.9z"></path>
</svg>