<?xml version="1.0" encoding="utf-8"?>
<svg id="pay-circle" viewBox="0 0 1024 1024" version="1.1" xmlns="http://www.w3.org/2000/svg" xmlns:xlink="http://www.w3.org/1999/xlink">
  <path d="M512 0C229.3 0 0 229.3 0 512s229.3 512 512 512 512-229.3 512-512S794.7 0 512 0z m225 476.9c0 18.9-16.4 33.1-35.2 33.1H548v64h121.8c18.8 0 35.2 16.3 35.2 35.1v4c0 18.8-16.4 32.9-35.2 32.9H548v149.2c0 19.9-16.1 36-36 36s-36-16.1-36-36V646H353.5c-18.8 0-33.5-14.1-33.5-32.9v-4c0-18.8 14.7-35.1 33.5-35.1H476v-64H321.5c-18.8 0-34.3-15-34.3-33.8v-3.3c0-18.8 15.5-34.5 34.3-34.5H488c-0.7 0-1.4-1-2.1-1.7L367.7 318.6c-14.1-14.1-14-37 0.1-51.1 14.1-14.1 37-14.3 51.1-0.2l92.8 92.8 92.4-92.5c14.1-14.1 36.8-14.2 50.9-0.1 14.1 14 14 36.6-0.1 50.7L536.9 436c-0.7 0.7-1.4 1-2.1 1h167c18.8 0 35.2 17.1 35.2 35.9v4z"></path>
</svg>