<?xml version="1.0" encoding="utf-8"?>

<svg id="phone" viewBox="0 0 1024 1024">
  <path d="M913.6 163.1C883.1 116 841 62 785.8 62c-16.1 0-40.3 4.9-63.8 28.4-22 21.9-53.2 55.7-76.9 92.3-29.7 45.8-39.2 83.6-29.1 115.5 6.5 20.9 26.6 42 61.7 77.4l0.4 0.4c14.8 15 31.6 32 38 41 6 8.5-1.5 31.5-19.6 60.1-23.6 37.4-63 80.6-98.4 117.9-30.2 28.7-65.6 61.3-98.8 85.4-41.6 30.1-62.8 34.6-71.8 34.6-4.5 0-6.5-1.3-7.5-2-8.8-6.3-25-22.2-41.4-38.4C342 638.6 322 619.4 301.2 613c-8.2-2.5-16.7-3.8-25.5-3.8-28.6 0-61.2 12.9-99.7 39.5-32.6 22.5-62.8 50.6-82.3 70.2-26.8 26.8-30 54.3-28.1 72.7 5.4 51.4 56.6 90.6 100.5 119.1C217.6 944.1 276.8 961 342 961c135.2 0 287.3-74.7 417.4-204.8 45.3-45.3 84.3-93.8 116.1-144.1 32-50.8 55.7-102.4 70.5-153.2C978.2 347.8 967 245.6 913.6 163.1zM877.8 439c-12.9 44.4-33.9 89.9-62.4 135.1-28.8 45.8-64.6 90.2-106.2 131.8-29.5 29.5-60.7 56.3-92.6 79.7-31.2 22.8-63.2 42.3-95 57.9-31.1 15.3-62.4 27-93 34.9-29.9 7.7-59 11.6-86.7 11.6-51.3 0-97.5-13.1-137.3-38.9-16.3-10.6-36.9-24.7-51.5-39.9-13.8-14.2-16.6-23.1-17-27-0.2-2-0.7-6.8 7.6-15 25.2-25.2 50.3-46.7 72.6-62 33.9-23.4 51.7-26.9 59.3-26.9 1.7 0 2.9 0.2 3.8 0.4 1.2 0.7 4.9 3 12 9.1 9.5 8.2 20.9 19.3 37.2 35.3 23.1 22.9 37.9 37 49.9 45.7l1.4 1c14 9.5 30.1 14.4 47.7 14.4 16.2 0 33.2-3.9 52-11.9 18.7-8 38.8-19.9 61.4-36.2 36.4-26.4 74.1-61.1 106.1-91.5l1-0.9 1.4-1.5c39.6-41.7 80-86.2 107.1-128.9 10.7-16.8 18.9-32.8 24.4-47.7 4.7-12.8 7.4-24.7 8.1-36.4 1.6-25.8-7.2-44.2-14.9-55.2-8.8-12.4-23-27.1-43.7-48l-2.2-2.3c-15.9-16-27.4-27.8-35.4-37.1-6-7-8.4-10.7-9.2-12.2-2-7.9 2.6-26.3 21.2-55 20-30.9 47.7-60.9 67.3-80.6l0.1-0.1c5.1-5.1 9.9-7.7 13.8-7.7 6.3 0 15.8 5.4 26 14.9 15.9 14.7 31 36.4 42.3 53.7 20.5 31.7 33.1 67.5 37.3 106.6C895.8 348.9 891.2 392.9 877.8 439z"></path>
</svg>