<?xml version="1.0" encoding="utf-8"?>
<!-- Generator: Adobe Illustrator 21.0.0, SVG Export Plug-In . SVG Version: 6.00 Build 0)  -->
<svg version="1.1" id="图层_1" xmlns="http://www.w3.org/2000/svg" xmlns:xlink="http://www.w3.org/1999/xlink" x="0px" y="0px"
	 viewBox="0 0 1024 1024" style="enable-background:new 0 0 1024 1024;" xml:space="preserve">
<style type="text/css">
	.st0{fill:none;}
</style>
<title>pic-left</title>
<desc>Created with Sketch.</desc>
<g>
	<rect x="152" y="436" class="st0" width="400" height="152"/>
	<path d="M952,792H72c-4.4,0-8,3.6-8,8v56c0,4.4,3.6,8,8,8h880c4.4,0,8-3.6,8-8v-56C960,795.6,956.4,792,952,792z"/>
	<path d="M952,160H72c-4.4,0-8,3.6-8,8v56c0,4.4,3.6,8,8,8h880c4.4,0,8-3.6,8-8v-56C960,163.6,956.4,160,952,160z"/>
	<path d="M608,660c8.8,0,16-7.2,16-16V380c0-8.8-7.2-16-16-16H96c-8.8,0-16,7.2-16,16v264c0,8.8,7.2,16,16,16H608z M152,436h400v152
		H152V436z"/>
	<path d="M704,646c0,4.4,3.6,8,8,8h224c4.4,0,8-3.6,8-8v-56c0-4.4-3.6-8-8-8H712c-4.4,0-8,3.6-8,8V646z"/>
	<path d="M712,442h224c4.4,0,8-3.6,8-8v-56c0-4.4-3.6-8-8-8H712c-4.4,0-8,3.6-8,8v56C704,438.4,707.6,442,712,442z"/>
</g>
</svg>
