<?xml version="1.0" encoding="utf-8"?>
<svg id="picture" viewBox="0 0 1024 1024" version="1.1" xmlns="http://www.w3.org/2000/svg" xmlns:xlink="http://www.w3.org/1999/xlink">
  <path d="M886 128.2 134 128.2c-39.6 0-72 32.4-72 72l0 625.5c0 39.6 32.4 72 72 72l752 0c39.6 0 72-32.4 72-72L958 200.2C958 160.6 925.6 128.2 886 128.2zM886 825.5c0 0-0.1 0.1-0.1 0.1l-751.7 0c0 0-0.1-0.1-0.1-0.1l0-212.8 185.6-189.8L537 692.8c12 13.6 32.2 16.2 47.2 6l160.5-108.5L886 656.8 886 825.5zM886 566.2l-118.1-48.7c-12.3-9.4-29.2-9.9-42-1.2L570.1 621.4 348 346.2c-6.6-7.5-16.1-11.9-26.1-12.2-10-0.3-19.7 3.7-26.7 10.8L134 509.7l0-309.4c0 0 0.1-0.1 0.1-0.1l751.7 0c0 0 0.1 0.1 0.1 0.1L886 566.2z"></path>
  <path d="M696 274c-55.7 0-101 45.3-101 101s45.3 101 101 101 101-45.3 101-101S751.7 274 696 274zM696 404c-16 0-29-13-29-29s13-29 29-29 29 13 29 29S712 404 696 404z"></path>
</svg>