<?xml version="1.0" encoding="utf-8"?>
<!-- Generator: Adobe Illustrator 21.0.0, SVG Export Plug-In . SVG Version: 6.00 Build 0)  -->
<svg version="1.1" id="图层_1" xmlns="http://www.w3.org/2000/svg" xmlns:xlink="http://www.w3.org/1999/xlink" x="0px" y="0px"
	 viewBox="0 0 1024 1024" style="enable-background:new 0 0 1024 1024;" xml:space="preserve">
<title>pie chart-circle-fill</title>
<desc>Created with Sketch.</desc>
<g>
	<path d="M863.1,518.5H505.5V160.9c0-4.4-3.6-8-8-8h-26c-53.9,0-106.3,10.6-155.5,31.4c-47.5,20.1-90.3,48.9-127,85.6
		c-36.7,36.7-65.5,79.4-85.6,127C82.6,446.2,72,498.5,72,552.5S82.6,658.7,103.4,708c20.1,47.5,48.9,90.3,85.6,127
		c36.7,36.7,79.4,65.5,127,85.6c49.3,20.9,101.7,31.5,155.6,31.5c53.9,0,106.3-10.6,155.5-31.4c47.5-20.1,90.3-48.9,127-85.6
		c36.7-36.7,65.5-79.4,85.6-127c20.9-49.3,31.5-101.7,31.5-155.6v-26C871.1,522.1,867.5,518.5,863.1,518.5z"/>
	<path d="M951,463l-2.6-28.2c-8.5-92-49.3-178.8-115.1-244.3C767.6,124.8,680.7,84.1,588.4,75.6L560.1,73c-4.7-0.4-8.7,3.2-8.7,7.9
		v383.7c0,4.4,3.6,8,8,8l383.6-1C947.7,471.5,951.4,467.6,951,463z"/>
</g>
</svg>
