<?xml version="1.0" encoding="utf-8"?>

<svg id="play-circle-o" viewBox="0 0 1024 1024">
  <path d="M512 2C229.8 2 1 230.8 1 513c0 282.2 228.8 511 511 511 282.2 0 511-228.8 511-511S794.2 2 512 2zM822.4 823.4c-40.3 40.3-87.3 72-139.6 94.1C628.8 940.4 571.3 952 512 952s-116.8-11.6-170.9-34.5c-52.3-22.1-99.2-53.8-139.6-94.1-40.3-40.3-72-87.3-94.1-139.6C84.6 629.8 73 572.3 73 513s11.6-116.8 34.5-170.9c22.1-52.3 53.8-99.2 94.1-139.6 40.3-40.3 87.3-72 139.6-94.1C395.2 85.6 452.7 74 512 74s116.8 11.6 170.9 34.5c52.3 22.1 99.2 53.8 139.6 94.1 40.3 40.3 72 87.3 94.1 139.6C939.4 396.2 951 453.7 951 513s-11.6 116.8-34.5 170.9C894.4 736.1 862.8 783.1 822.4 823.4z"></path>
  <path d="M711.6 499.3 420.7 251.8c-4.2-3.7-9.3-5.4-14.3-5.4-10.8 0-21 7.5-21 19l0 495.1c0 11.4 10.2 19 21 19 5 0 10.1-1.6 14.3-5.4l290.9-247.5C720.1 519.1 720.1 506.8 711.6 499.3z"></path>
</svg>