<?xml version="1.0" encoding="utf-8"?>
<svg id="plus-circle" viewBox="0 0 1024 1024" version="1.1" xmlns="http://www.w3.org/2000/svg" xmlns:xlink="http://www.w3.org/1999/xlink">
  <path d="M512 0C229.2 0 0 229.2 0 512s229.2 512 512 512 512-229.2 512-512S794.8 0 512 0zM768 512.5c0 19.9-16.1 36-36 36L548.5 548.5 548.5 731c0 19.9-16.1 36-36 36l0 0c-19.9 0-36-16.1-36-36L476.5 548.5 292 548.5c-19.9 0-36-16.1-36-36l0 0c0-19.9 16.1-36 36-36l184.5 0L476.5 293c0-19.9 16.1-36 36-36l0 0c19.9 0 36 16.1 36 36l0 183.5L732 476.5C751.9 476.5 768 492.6 768 512.5L768 512.5z"></path>
</svg>