<?xml version="1.0" encoding="utf-8"?>
<svg id="plus-circle-o" viewBox="0 0 1024 1024" version="1.1" xmlns="http://www.w3.org/2000/svg" xmlns:xlink="http://www.w3.org/1999/xlink">
  <path d="M512 0C229.2 0 0 229.2 0 512s229.2 512 512 512 512-229.2 512-512S794.8 0 512 0zM823.1 823.1c-40.4 40.4-87.5 72.2-139.9 94.3C629 940.4 571.4 952 512 952c-59.4 0-117-11.6-171.2-34.5-52.4-22.2-99.4-53.9-139.9-94.3-40.4-40.4-72.2-87.5-94.3-139.9C83.6 629 72 571.4 72 512c0-59.4 11.6-117 34.5-171.2 22.2-52.4 53.9-99.4 94.3-139.9 40.4-40.4 87.5-72.2 139.9-94.3C395 83.6 452.6 72 512 72c59.4 0 117 11.6 171.2 34.5 52.4 22.2 99.4 53.9 139.9 94.3 40.4 40.4 72.2 87.5 94.3 139.9C940.4 395 952 452.6 952 512c0 59.4-11.6 117-34.5 171.2C895.3 735.6 863.6 782.7 823.1 823.1z"></path>
  <path d="M732 476.5 548.5 476.5 548.5 293c0-19.9-16.1-36-36-36l0 0c-19.9 0-36 16.1-36 36l0 183.5L292 476.5c-19.9 0-36 16.1-36 36l0 0c0 19.9 16.1 36 36 36l184.5 0L476.5 731c0 19.9 16.1 36 36 36l0 0c19.9 0 36-16.1 36-36L548.5 548.5 732 548.5c19.9 0 36-16.1 36-36l0 0C768 492.6 751.9 476.5 732 476.5z"></path>
</svg>