<?xml version="1.0" encoding="utf-8"?>

<svg id="plussquare" viewBox="0 0 1024 1024">
  <path d="M888.5 63.5l-753 0c-39.8 0-72 32.2-72 72l0 753.1c0 39.8 32.2 72 72 72l753.1 0c39.8 0 72-32.2 72-72L960.6 135.5C960.5 95.7 928.3 63.5 888.5 63.5zM732 548.5 548.5 548.5 548.5 731c0 19.9-16.1 36-36 36-19.9 0-36-16.1-36-36L476.5 548.5 292 548.5c-19.9 0-36-16.1-36-36s16.1-36 36-36l184.5 0L476.5 293c0-19.9 16.1-36 36-36 19.9 0 36 16.1 36 36l0 183.5L732 476.5c19.9 0 36 16.1 36 36S751.9 548.5 732 548.5z"></path>
</svg>