<?xml version="1.0" encoding="utf-8"?>

<svg id="plus-square-o" viewBox="0 0 1024 1024">
  <path d="M888.5 135.5 888.5 135.5 888.5 135.5l0 753.1 0 0-753 0 0 0L135.5 135.5l0 0L888.5 135.5M888.5 63.5l-753 0c-39.8 0-72 32.2-72 72l0 753.1c0 39.8 32.2 72 72 72l753.1 0c39.8 0 72-32.2 72-72L960.6 135.5C960.5 95.7 928.3 63.5 888.5 63.5L888.5 63.5z"></path>
  <path d="M732 476.5 548.5 476.5 548.5 293c0-19.9-16.1-36-36-36l0 0c-19.9 0-36 16.1-36 36l0 183.5L292 476.5c-19.9 0-36 16.1-36 36l0 0c0 19.9 16.1 36 36 36l184.5 0L476.5 731c0 19.9 16.1 36 36 36l0 0c19.9 0 36-16.1 36-36L548.5 548.5 732 548.5c19.9 0 36-16.1 36-36l0 0C768 492.6 751.9 476.5 732 476.5z"></path>
</svg>