<?xml version="1.0" encoding="utf-8"?>
<!-- Generator: Adobe Illustrator 21.0.0, SVG Export Plug-In . SVG Version: 6.00 Build 0)  -->
<svg version="1.1" id="图层_1" xmlns="http://www.w3.org/2000/svg" xmlns:xlink="http://www.w3.org/1999/xlink" x="0px" y="0px"
	 viewBox="0 0 1024 1024" style="enable-background:new 0 0 1024 1024;" xml:space="preserve">
<style type="text/css">
	.st0{fill:none;}
</style>
<title>Pound-circle-fill</title>
<desc>Created with Sketch.</desc>
<g>
	<path class="st0" d="M650,674.2H470v-4.7c27.4-17.2,43.9-50.4,43.9-91.1c0-14.1-2.2-27.8-5.3-41h98.6c4.4,0,8-3.6,8-8v-30
		c0-4.4-3.6-8-8-8h-112c-7.2-22.6-13.4-45.8-13.4-70.5c0-43.6,34-70.2,87.3-70.2c21.4,0,42.5,4.1,60.4,10.5
		c5.2,1.8,10.6-2.1,10.6-7.6v-39.5c0-3.3-2.1-6.3-5.2-7.5c-18.9-7.2-43.8-12.7-70.3-12.7c-92.9,0-151.5,44.5-151.5,120.3
		c0,26.4,6.8,52,14.6,77.1H374c-4.4,0-8,3.6-8,8v30c0,4.4,3.6,8,8,8h67.2c3.4,14.8,5.9,29.5,5.9,44.2c0,45.2-28.8,83.3-72.8,94.2
		c-3.6,0.9-6.1,4.1-6.1,7.8V722c0,4.4,3.6,8,8,8H650c4.4,0,8-3.6,8-8v-39.8C658,677.8,654.4,674.2,650,674.2z"/>
	<path d="M512,64C264.6,64,64,264.6,64,512s200.6,448,448,448s448-200.6,448-448S759.4,64,512,64z M658,722c0,4.4-3.6,8-8,8H376.2
		c-4.4,0-8-3.6-8-8v-38.5c0-3.7,2.5-6.9,6.1-7.8c44-10.9,72.8-49,72.8-94.2c0-14.7-2.5-29.4-5.9-44.2H374c-4.4,0-8-3.6-8-8v-30
		c0-4.4,3.6-8,8-8h53.7c-7.8-25.1-14.6-50.7-14.6-77.1c0-75.8,58.6-120.3,151.5-120.3c26.5,0,51.4,5.5,70.3,12.7
		c3.1,1.2,5.2,4.2,5.2,7.5v39.5c0,5.5-5.4,9.4-10.6,7.6c-17.9-6.4-39-10.5-60.4-10.5c-53.3,0-87.3,26.6-87.3,70.2
		c0,24.7,6.2,47.9,13.4,70.5h112c4.4,0,8,3.6,8,8v30c0,4.4-3.6,8-8,8h-98.6c3.1,13.2,5.3,26.9,5.3,41c0,40.7-16.5,73.9-43.9,91.1
		v4.7h180c4.4,0,8,3.6,8,8V722z"/>
</g>
</svg>
