<?xml version="1.0" encoding="utf-8"?>

<svg id="poweroff" viewBox="0 0 1024 1024">
  <path d="M512 384c19.9 0 36-16.1 36-36V36c0-19.9-16.1-36-36-36s-36 16.1-36 36v312c0 19.9 16.1 36 36 36z"></path>
  <path d="M512 1024c-69.1 0-136.2-13.5-199.3-40.2C251.7 958 197 921 150 874c-47-47-84-101.7-109.8-162.7C13.5 648.2 0 581.1 0 512c0-81.3 18.5-159.1 55-231.2 34.8-68.7 85.7-129.7 147.2-176.5 15.8-12 38.4-9 50.4 6.8s9 38.4-6.8 50.4c-52.8 40.2-96.6 92.7-126.5 151.7C87.9 375.3 72 442.1 72 512c0 59.4 11.6 117 34.6 171.3 22.2 52.4 53.9 99.5 94.3 139.9 40.4 40.4 87.5 72.2 139.9 94.3C395 940.4 452.6 952 512 952c59.4 0 117-11.6 171.3-34.6 52.4-22.2 99.5-53.9 139.9-94.3 40.4-40.4 72.2-87.5 94.3-139.9C940.4 629 952 571.4 952 512c0-69.9-15.9-136.7-47.3-198.6-29.9-59.1-73.7-111.5-126.5-151.7-15.8-12-18.9-34.6-6.8-50.4 12-15.8 34.6-18.9 50.4-6.8C883.2 151.3 934.1 212.3 969 281c36.5 72.1 55 149.8 55 231.2 0 69.1-13.5 136.2-40.2 199.3C958 772.3 921 827 874 874s-101.8 83.9-162.7 109.7c-63.1 26.8-130.2 40.3-199.3 40.3z"></path>
</svg>