<?xml version="1.0" encoding="utf-8"?>

<svg id="profile" viewBox="0 0 1024 1024">
  <path d="M888 64H136c-39.8 0-72 32.2-72 72v752c0 39.8 32.2 72 72 72h752c39.8 0 72-32.2 72-72V136c0-39.8-32.2-72-72-72z m0 824H136V136h752v752z"></path>
  <path d="M420 740h312c19.9 0 36-16.1 36-36s-16.1-36-36-36H420c-19.9 0-36 16.1-36 36s16.1 36 36 36zM420 356h312c19.9 0 36-16.1 36-36s-16.1-36-36-36H420c-19.9 0-36 16.1-36 36s16.1 36 36 36zM420 548h312c19.9 0 36-16.1 36-36s-16.1-36-36-36H420c-19.9 0-36 16.1-36 36s16.1 36 36 36z"></path>
  <path d="M292 704m-36 0a36 36 0 1 0 72 0 36 36 0 1 0-72 0Z"></path>
  <path d="M292 320m-36 0a36 36 0 1 0 72 0 36 36 0 1 0-72 0Z"></path>
  <path d="M292 512m-36 0a36 36 0 1 0 72 0 36 36 0 1 0-72 0Z"></path>
</svg>