<?xml version="1.0" encoding="utf-8"?>
<!-- Generator: Adobe Illustrator 21.0.0, SVG Export Plug-In . SVG Version: 6.00 Build 0)  -->
<svg version="1.1" id="图层_1" xmlns="http://www.w3.org/2000/svg" xmlns:xlink="http://www.w3.org/1999/xlink" x="0px" y="0px"
	 viewBox="0 0 1024 1024" style="enable-background:new 0 0 1024 1024;" xml:space="preserve">
<style type="text/css">
	.st0{fill:none;}
</style>
<title>project-fill</title>
<desc>Created with Sketch.</desc>
<g>
	<path class="st0" d="M360,272h-80c-4.4,0-8,3.6-8,8v464c0,4.4,3.6,8,8,8h80c4.4,0,8-3.6,8-8V280C368,275.6,364.4,272,360,272z"/>
	<path class="st0" d="M552,272h-80c-4.4,0-8,3.6-8,8v184c0,4.4,3.6,8,8,8h80c4.4,0,8-3.6,8-8V280C560,275.6,556.4,272,552,272z"/>
	<path class="st0" d="M744,272h-80c-4.4,0-8,3.6-8,8v256c0,4.4,3.6,8,8,8h80c4.4,0,8-3.6,8-8V280C752,275.6,748.4,272,744,272z"/>
	<path d="M880,112H144c-17.7,0-32,14.3-32,32v736c0,17.7,14.3,32,32,32h736c17.7,0,32-14.3,32-32V144C912,126.3,897.7,112,880,112z
		 M368,744c0,4.4-3.6,8-8,8h-80c-4.4,0-8-3.6-8-8V280c0-4.4,3.6-8,8-8h80c4.4,0,8,3.6,8,8V744z M560,464c0,4.4-3.6,8-8,8h-80
		c-4.4,0-8-3.6-8-8V280c0-4.4,3.6-8,8-8h80c4.4,0,8,3.6,8,8V464z M752,536c0,4.4-3.6,8-8,8h-80c-4.4,0-8-3.6-8-8V280
		c0-4.4,3.6-8,8-8h80c4.4,0,8,3.6,8,8V536z"/>
</g>
</svg>
