<?xml version="1.0" encoding="utf-8"?>
<!-- Generator: Adobe Illustrator 21.0.0, SVG Export Plug-In . SVG Version: 6.00 Build 0)  -->
<svg version="1.1" id="图层_1" xmlns="http://www.w3.org/2000/svg" xmlns:xlink="http://www.w3.org/1999/xlink" x="0px" y="0px"
	 viewBox="0 0 1024 1024" style="enable-background:new 0 0 1024 1024;" xml:space="preserve">
<style type="text/css">
	.st0{fill:none;}
</style>
<title>project</title>
<desc>Created with Sketch.</desc>
<g>
	<path class="st0" d="M184,840h656V184H184V840z M656,280c0-4.4,3.6-8,8-8h80c4.4,0,8,3.6,8,8v256c0,4.4-3.6,8-8,8h-80
		c-4.4,0-8-3.6-8-8V280z M464,280c0-4.4,3.6-8,8-8h80c4.4,0,8,3.6,8,8v184c0,4.4-3.6,8-8,8h-80c-4.4,0-8-3.6-8-8V280z M272,280
		c0-4.4,3.6-8,8-8h80c4.4,0,8,3.6,8,8v464c0,4.4-3.6,8-8,8h-80c-4.4,0-8-3.6-8-8V280z"/>
	<path d="M280,752h80c4.4,0,8-3.6,8-8V280c0-4.4-3.6-8-8-8h-80c-4.4,0-8,3.6-8,8v464C272,748.4,275.6,752,280,752z"/>
	<path d="M472,472h80c4.4,0,8-3.6,8-8V280c0-4.4-3.6-8-8-8h-80c-4.4,0-8,3.6-8,8v184C464,468.4,467.6,472,472,472z"/>
	<path d="M664,544h80c4.4,0,8-3.6,8-8V280c0-4.4-3.6-8-8-8h-80c-4.4,0-8,3.6-8,8v256C656,540.4,659.6,544,664,544z"/>
	<path d="M880,112H144c-17.7,0-32,14.3-32,32v736c0,17.7,14.3,32,32,32h736c17.7,0,32-14.3,32-32V144C912,126.3,897.7,112,880,112z
		 M840,840H184V184h656V840z"/>
</g>
</svg>
