<?xml version="1.0" encoding="utf-8"?>
<!-- Generator: Adobe Illustrator 21.0.0, SVG Export Plug-In . SVG Version: 6.00 Build 0)  -->
<svg version="1.1" id="图层_1" xmlns="http://www.w3.org/2000/svg" xmlns:xlink="http://www.w3.org/1999/xlink" x="0px" y="0px"
	 viewBox="0 0 1024 1024" style="enable-background:new 0 0 1024 1024;" xml:space="preserve">
<style type="text/css">
	.st0{fill:none;}
</style>
<title>property safety-fill</title>
<desc>Created with Sketch.</desc>
<g>
	<path class="st0" d="M639.5,318h-45c-3.8,0-7.2,2.1-8.9,5.5l-73.2,144.3l-72.9-144.3c-1.7-3.4-5.2-5.5-8.9-5.5h-46
		c-1.7,0-3.3,0.4-4.8,1.2c-4.8,2.6-6.6,8.7-4,13.6l88,161.1h-45.2c-5.5,0-10,4.5-10,10v21.3c0,5.5,4.5,10,10,10h63.1v29.7h-63.1
		c-5.5,0-10,4.5-10,10v21.3c0,5.5,4.5,10,10,10h63.1V658c0,5.5,4.5,10,10,10h41.3c5.5,0,10-4.5,10-10v-51.8h63.4c5.5,0,10-4.5,10-10
		v-21.3c0-5.5-4.5-10-10-10h-63.4v-29.7h63.4c5.5,0,10-4.5,10-10v-21.3c0-5.5-4.5-10-10-10h-45.7l87.7-161.1
		c0.8-1.5,1.2-3.1,1.2-4.8C649.5,322.5,645.1,318,639.5,318z"/>
	<path d="M866.9,169.9L527.1,54.1C523,52.7,517.5,52,512,52s-11,0.7-15.1,2.1L157.1,169.9c-8.3,2.8-15.1,12.4-15.1,21.2v482.4
		c0,8.8,5.7,20.4,12.6,25.9l344.7,268.6c3.5,2.7,8,4.1,12.6,4.1c4.6,0,9.2-1.4,12.6-4.1l344.7-268.6c6.9-5.4,12.6-17,12.6-25.9
		V191.1C882,182.3,875.2,172.8,866.9,169.9z M648.3,332.8l-87.7,161.1h45.7c5.5,0,10,4.5,10,10v21.3c0,5.5-4.5,10-10,10h-63.4v29.7
		h63.4c5.5,0,10,4.5,10,10v21.3c0,5.5-4.5,10-10,10h-63.4V658c0,5.5-4.5,10-10,10h-41.3c-5.5,0-10-4.5-10-10v-51.8h-63.1
		c-5.5,0-10-4.5-10-10v-21.3c0-5.5,4.5-10,10-10h63.1v-29.7h-63.1c-5.5,0-10-4.5-10-10v-21.3c0-5.5,4.5-10,10-10h45.2l-88-161.1
		c-2.6-4.8-0.9-10.9,4-13.6c1.5-0.8,3.1-1.2,4.8-1.2h46c3.8,0,7.2,2.1,8.9,5.5l72.9,144.3l73.2-144.3c1.7-3.4,5.2-5.5,8.9-5.5h45
		c5.5,0,10,4.5,10,10C649.5,329.7,649.1,331.3,648.3,332.8z"/>
</g>
</svg>
