<?xml version="1.0" encoding="utf-8"?>
<!-- Generator: Adobe Illustrator 21.0.0, SVG Export Plug-In . SVG Version: 6.00 Build 0)  -->
<svg version="1.1" id="图层_1" xmlns="http://www.w3.org/2000/svg" xmlns:xlink="http://www.w3.org/1999/xlink" x="0px" y="0px"
	 viewBox="0 0 1024 1024" style="enable-background:new 0 0 1024 1024;" xml:space="preserve">
<style type="text/css">
	.st0{fill:none;}
</style>
<title>pushpin</title>
<desc>Created with Sketch.</desc>
<g>
	<path class="st0" d="M474.7,357.8l-24.5,24.5l-34.4-3.8c-9.6-1.1-19.3-1.6-28.9-1.6c-29,0-57.5,4.8-84.7,14.1
		c-14,4.8-27.4,10.8-40.3,17.9l353.2,353.2c9.4-17.1,16.9-35.2,22.2-54.2c9.2-32.5,11.9-66,8.2-99.7l-3.8-34.4l24.5-24.5
		l133.7-133.7L608.4,224.1L474.7,357.8z"/>
	<path d="M878.3,392.1L631.9,145.7c-6.5-6.5-15-9.7-23.5-9.7c-8.5,0-17,3.2-23.5,9.7L423.8,306.9c-12.2-1.4-24.5-2-36.8-2
		c-73.2,0-146.4,24.1-206.5,72.3c-15.4,12.3-16.7,35.4-2.7,49.4l181.7,181.7L144.1,823.5c-2.6,2.6-4.3,6.1-4.6,9.8l-3.4,37.2
		c-0.9,9.4,6.6,17.4,15.9,17.4c0.5,0,1,0,1.5-0.1l37.2-3.4c3.7-0.3,7.2-2,9.8-4.6l215.4-215.4l181.7,181.7c6.5,6.5,15,9.7,23.5,9.7
		c9.7,0,19.3-4.2,25.9-12.4c56.3-70.3,79.7-158.3,70.2-243.4l161.1-161.1C891.2,426.1,891.2,405.1,878.3,392.1z M666.2,549.3
		l-24.5,24.5l3.8,34.4c3.7,33.7,1,67.2-8.2,99.7c-5.4,19-12.8,37.1-22.2,54.2L262,408.8c12.9-7.1,26.3-13.1,40.3-17.9
		c27.2-9.4,55.7-14.1,84.7-14.1c9.6,0,19.3,0.5,28.9,1.6l34.4,3.8l24.5-24.5l133.7-133.7l191.5,191.5L666.2,549.3z"/>
</g>
</svg>
