<?xml version="1.0" encoding="utf-8"?>

<svg id="pushpin-o" viewBox="0 0 1024 1024">
  <path d="M303.3 167.6c0.9 6.7 1.3 13.6 1.1 20.5l-1.1 36.2 28.3 22.5 214.4 170 30.3 24 36.8-12c29-9.5 59.3-14.3 90-14.3 32.4 0 64.3 5.4 94.8 15.9 17.9 6.2 35.1 14.2 51.4 23.7L680 624.1l-42.9 43.1L624.4 680l0 0L454.9 850.2c-17.5-29.5-29.7-62.2-35.8-96.1-8.4-47-5-95.8 9.8-141.1l12-36.8-24-30.3-170-214.4-22.5-28.3-36.2 1.1c-1.2 0-2.5 0.1-3.7 0.1-5.7 0-11.4-0.4-17-1.2L303.3 167.6M317.9 65.1c-8.5 0-17.1 3.2-23.7 9.8L74.8 293.8c-15 15-12.6 40 5.2 51.6 31.7 20.6 68.1 30.9 104.5 30.9 2 0 4 0 6-0.1l170 214.4c-37.2 113.9-16.3 242.5 62.7 339.6 6.9 8.4 16.8 12.7 26.7 12.7 8.8 0 17.5-3.3 24.3-10.1l206-206.8 223.2 223.2c6.4 6.4 14.7 9.5 23 9.5 8.3 0 16.7-3.2 23-9.5 12.7-12.7 12.7-33.4 0-46.1L726.1 679.9l206-206.8c14.4-14.4 13-38.1-2.8-51-65.8-53.1-146-79.7-226.1-79.7-38 0-75.9 6-112.4 17.9l-214.4-170c1.2-38.3-9-76.8-30.6-110.1C339.3 70.3 328.7 65.1 317.9 65.1L317.9 65.1z"></path>
</svg>