<?xml version="1.0" encoding="utf-8"?>
<svg id="pushpin" viewBox="0 0 1024 1024" version="1.1" xmlns="http://www.w3.org/2000/svg" xmlns:xlink="http://www.w3.org/1999/xlink">
  <path d="M949.4 903.2 726.1 679.9l206-206.8c14.4-14.4 13-38.1-2.8-51-97-78.3-225.1-98.9-338.5-61.8l-214.4-170c1.2-38.3-9-76.8-30.6-110.1-11.5-17.8-36.6-20.2-51.6-5.3L74.8 293.8c-15 15-12.6 40 5.2 51.6 33.4 21.7 72.1 32 110.5 30.8l170 214.4c-37.2 113.9-16.3 242.5 62.7 339.6 12.9 15.8 36.6 17.1 51 2.6l206-206.8 223.2 223.2c6.4 6.4 14.7 9.5 23 9.5s16.7-3.2 23-9.5C962.2 936.6 962.2 915.9 949.4 903.2z"></path>
</svg>