<?xml version="1.0" encoding="utf-8"?>

<svg id="qrcode" viewBox="0 0 1024 1024">
  <path d="M876 404.2 812.8 404.2 812.8 506.6 722.4 506.6 722.4 404.2 568.8 404.2 568.8 301.8 517.6 301.8 517.6 262.6 568.8 262.6 568.8 211.4 620 211.4 620 148.2 568.8 148.2 568.8 97 403.2 97 403.2 160.2 505.6 160.2 505.6 199.4 454.4 199.4 454.4 313.8 505.6 313.8 505.6 404.2 454.4 404.2 454.4 455.5 364 455.5 364 404.3 300.8 404.3 300.8 455.5 261.6 455.5 261.6 404.3 147.2 404.3 147.2 455.5 96.1 455.5 96.1 518.7 159.3 518.7 159.3 467.5 249.6 467.5 249.6 518.7 300.8 518.7 300.8 621.1 364 621.1 364 518.7 466.4 518.7 466.4 467.4 659.2 467.4 659.2 506.6 505.6 506.6 505.6 569.8 556.8 569.8 556.8 672.3 671.2 672.3 671.2 609.1 620 609.1 620 569.8 824.8 569.8 824.8 518.7 864 518.7 864 569.9 927.2 569.9 927.2 506.7 876 506.7Z"></path>
  <path d="M466.4 609 403.2 609 403.2 774.6 454.4 774.6 454.4 813.8 403.2 813.8 403.2 877 505.6 877 505.6 928.2 568.8 928.2 568.8 877 620 877 620 813.8 556.8 813.8 556.8 865 517.6 865 517.6 774.6 620 774.6 620 711.4 466.4 711.4Z"></path>
  <path d="M96.1 557.9l63.2 0 0 63.2-63.2 0 0-63.2Z"></path>
  <path d="M153.2 365l153.6 0c31.5 0 57.2-25.7 57.2-57.2L364 154.2c0-31.5-25.7-57.2-57.2-57.2L153.2 97C121.7 97 96 122.7 96 154.2l0 153.6C96 339.3 121.7 365 153.2 365zM159.2 301.8 159.2 160.2l141.6 0 0 141.6L159.2 301.8z"></path>
  <path d="M198.4 199.4l63.2 0 0 63.2-63.2 0 0-63.2Z"></path>
  <path d="M870 97 716.4 97c-31.5 0-57.2 25.7-57.2 57.2l0 153.6c0 31.5 25.7 57.2 57.2 57.2L870 365c31.5 0 57.2-25.7 57.2-57.2L927.2 154.2C927.2 122.7 901.5 97 870 97zM864 160.2l0 141.6L722.4 301.8 722.4 160.2 864 160.2z"></path>
  <path d="M761.6 199.4l63.2 0 0 63.2-63.2 0 0-63.2Z"></path>
  <path d="M870 660.2 716.4 660.2c-31.5 0-57.2 25.7-57.2 57.2L659.2 871c0 31.5 25.7 57.2 57.2 57.2L870 928.2c31.5 0 57.2-25.7 57.2-57.2L927.2 717.4C927.2 685.9 901.5 660.2 870 660.2zM864 723.4 864 865 722.4 865 722.4 723.4 864 723.4z"></path>
  <path d="M761.6 762.6l63.2 0 0 63.2-63.2 0 0-63.2Z"></path>
  <path d="M306.8 660.2 153.2 660.2c-31.5 0-57.2 25.7-57.2 57.2L96 871c0 31.5 25.7 57.2 57.2 57.2l153.6 0c31.5 0 57.2-25.7 57.2-57.2L364 717.4C364 685.9 338.3 660.2 306.8 660.2zM300.8 723.4 300.8 865 159.2 865 159.2 723.4 300.8 723.4z"></path>
  <path d="M198.4 762.6l63.2 0 0 63.2-63.2 0 0-63.2Z"></path>
</svg>