<?xml version="1.0" encoding="utf-8"?>
<svg id="question-circle" viewBox="0 0 1024 1024" version="1.1" xmlns="http://www.w3.org/2000/svg" xmlns:xlink="http://www.w3.org/1999/xlink">
  <path d="M512 0C229.2 0 0 229.2 0 512s229.2 512 512 512 512-229.2 512-512S794.8 0 512 0zM505.5 812.6c-23.9 0-43.3-19.4-43.3-43.3s19.4-43.3 43.3-43.3c23.9 0 43.3 19.4 43.3 43.3S529.4 812.6 505.5 812.6zM691.3 391c-2.5 46.3-16.7 82.8-87.7 153.8-36 36-58.7 63-61 86.7-1.8 18.6-17.5 32.5-35.8 32.5-1.2 0-2.4-0.1-3.6-0.2-19.8-1.9-34.2-19.6-32.3-39.4 4.9-49.9 41.5-90.2 81.8-130.5 64.5-64.5 65.6-85 66.7-106.7 1.3-25.3-8-49.8-26.4-69.1-20.9-22-50.5-34.6-81.2-34.6-0.1 0-0.2 0-0.2 0-59.1 0.1-107.3 48.3-107.3 107.5 0 19.9-16.1 36-36 36s-36-16.1-36-36c0-47.9 18.6-92.9 52.4-126.8 33.8-33.9 78.8-52.6 126.7-52.7 50.5-0.1 99.3 20.7 133.8 57C677.4 302.2 693.7 345.7 691.3 391z"></path>
</svg>