<?xml version="1.0" encoding="utf-8"?>
<!-- Generator: Adobe Illustrator 21.0.0, SVG Export Plug-In . SVG Version: 6.00 Build 0)  -->
<svg version="1.1" id="图层_1" xmlns="http://www.w3.org/2000/svg" xmlns:xlink="http://www.w3.org/1999/xlink" x="0px" y="0px"
	 viewBox="0 0 1024 1024" style="enable-background:new 0 0 1024 1024;" xml:space="preserve">
<title>radius-upleft</title>
<desc>Created with Sketch.</desc>
<g>
	<path d="M656,200h56c4.4,0,8-3.6,8-8v-56c0-4.4-3.6-8-8-8h-56c-4.4,0-8,3.6-8,8v56C648,196.4,651.6,200,656,200z"/>
	<path d="M714,824h-56c-4.4,0-8,3.6-8,8v56c0,4.4,3.6,8,8,8h56c4.4,0,8-3.6,8-8v-56C722,827.6,718.4,824,714,824z"/>
	<path d="M192,650h-56c-4.4,0-8,3.6-8,8v56c0,4.4,3.6,8,8,8h56c4.4,0,8-3.6,8-8v-56C200,653.6,196.4,650,192,650z"/>
	<path d="M192,824h-56c-4.4,0-8,3.6-8,8v56c0,4.4,3.6,8,8,8h56c4.4,0,8-3.6,8-8v-56C200,827.6,196.4,824,192,824z"/>
	<path d="M888,128h-56c-4.4,0-8,3.6-8,8v56c0,4.4,3.6,8,8,8h56c4.4,0,8-3.6,8-8v-56C896,131.6,892.4,128,888,128z"/>
	<path d="M888,302h-56c-4.4,0-8,3.6-8,8v56c0,4.4,3.6,8,8,8h56c4.4,0,8-3.6,8-8v-56C896,305.6,892.4,302,888,302z"/>
	<path d="M888,476h-56c-4.4,0-8,3.6-8,8v56c0,4.4,3.6,8,8,8h56c4.4,0,8-3.6,8-8v-56C896,479.6,892.4,476,888,476z"/>
	<path d="M888,650h-56c-4.4,0-8,3.6-8,8v56c0,4.4,3.6,8,8,8h56c4.4,0,8-3.6,8-8v-56C896,653.6,892.4,650,888,650z"/>
	<path d="M888,824h-56c-4.4,0-8,3.6-8,8v56c0,4.4,3.6,8,8,8h56c4.4,0,8-3.6,8-8v-56C896,827.6,892.4,824,888,824z"/>
	<path d="M540,824h-56c-4.4,0-8,3.6-8,8v56c0,4.4,3.6,8,8,8h56c4.4,0,8-3.6,8-8v-56C548,827.6,544.4,824,540,824z"/>
	<path d="M366,824h-56c-4.4,0-8,3.6-8,8v56c0,4.4,3.6,8,8,8h56c4.4,0,8-3.6,8-8v-56C374,827.6,370.4,824,366,824z"/>
	<path d="M540,128H358c-127,0-230,103-230,230v182c0,4.4,3.6,8,8,8h56c4.4,0,8-3.6,8-8V358c0-87.3,70.7-158,158-158h182
		c4.4,0,8-3.6,8-8v-56C548,131.6,544.4,128,540,128z"/>
</g>
</svg>
