<?xml version="1.0" encoding="utf-8"?>
<!-- Generator: Adobe Illustrator 21.0.0, SVG Export Plug-In . SVG Version: 6.00 Build 0)  -->
<svg version="1.1" id="图层_1" xmlns="http://www.w3.org/2000/svg" xmlns:xlink="http://www.w3.org/1999/xlink" x="0px" y="0px"
	 viewBox="0 0 1024 1024" style="enable-background:new 0 0 1024 1024;" xml:space="preserve">
<style type="text/css">
	.st0{fill:none;}
</style>
<title>read</title>
<desc>Created with Sketch.</desc>
<g>
	<path class="st0" d="M480,298l-6.9-4.5l-48.8-31.3c-29.7-19.1-64.1-29.2-99.5-29.2H136v488h188.8c54.4,0,107.6,13.4,155.2,39V298z
		 M404,553.5c0,4.1-3.2,7.5-7.1,7.5H211.1c-3.9,0-7.1-3.4-7.1-7.5v-45c0-4.1,3.2-7.5,7.1-7.5h185.7c3.9,0,7.1,3.4,7.1,7.5V553.5z
		 M404,413.5c0,4.1-3.2,7.5-7.1,7.5H211.1c-3.9,0-7.1-3.4-7.1-7.5v-45c0-4.1,3.2-7.5,7.1-7.5h185.7c3.9,0,7.1,3.4,7.1,7.5V413.5z"/>
	<path class="st0" d="M599.7,262.2l-48.8,31.3L544,298v462c47.6-25.6,100.8-39,155.2-39H888V233H699.2
		C663.8,233,629.4,243.1,599.7,262.2z M820,553.5c0,4.1-3.2,7.5-7.1,7.5H627.1c-3.9,0-7.1-3.4-7.1-7.5v-45c0-4.1,3.2-7.5,7.1-7.5
		h185.7c3.9,0,7.1,3.4,7.1,7.5V553.5z M820,368.5v45c0,4.1-3.2,7.5-7.1,7.5H627.1c-3.9,0-7.1-3.4-7.1-7.5v-45c0-4.1,3.2-7.5,7.1-7.5
		h185.7C816.8,361,820,364.4,820,368.5z"/>
	<path d="M928,161H699.2c-49.1,0-97.1,14.1-138.4,40.7L512,233l-48.8-31.3C422,175.1,373.9,161,324.8,161H96c-17.7,0-32,14.3-32,32
		v568c0,17.7,14.3,32,32,32h228.8c49.1,0,97.1,14.1,138.4,40.7l44.4,28.6c1.3,0.8,2.8,1.3,4.3,1.3c1.5,0,3-0.4,4.3-1.3l44.4-28.6
		C602,807.1,650.1,793,699.2,793H928c17.7,0,32-14.3,32-32V193C960,175.3,945.7,161,928,161z M324.8,721H136V233h188.8
		c35.4,0,69.8,10.1,99.5,29.2l48.8,31.3l6.9,4.5v462C432.4,734.4,379.2,721,324.8,721z M888,721H699.2c-54.4,0-107.6,13.4-155.2,39
		V298l6.9-4.5l48.8-31.3c29.7-19.1,64.1-29.2,99.5-29.2H888V721z"/>
	<path d="M396.9,361H211.1c-3.9,0-7.1,3.4-7.1,7.5v45c0,4.1,3.2,7.5,7.1,7.5h185.7c3.9,0,7.1-3.4,7.1-7.5v-45
		C404,364.4,400.8,361,396.9,361z"/>
	<path d="M620,368.5v45c0,4.1,3.2,7.5,7.1,7.5h185.7c3.9,0,7.1-3.4,7.1-7.5v-45c0-4.1-3.2-7.5-7.1-7.5H627.1
		C623.2,361,620,364.4,620,368.5z"/>
	<path d="M396.9,501H211.1c-3.9,0-7.1,3.4-7.1,7.5v45c0,4.1,3.2,7.5,7.1,7.5h185.7c3.9,0,7.1-3.4,7.1-7.5v-45
		C404,504.4,400.8,501,396.9,501z"/>
	<path d="M812.9,501H627.1c-3.9,0-7.1,3.4-7.1,7.5v45c0,4.1,3.2,7.5,7.1,7.5h185.7c3.9,0,7.1-3.4,7.1-7.5v-45
		C820,504.4,816.8,501,812.9,501z"/>
</g>
</svg>
