<?xml version="1.0" encoding="utf-8"?>
<!-- Generator: Adobe Illustrator 21.0.0, SVG Export Plug-In . SVG Version: 6.00 Build 0)  -->
<svg version="1.1" id="图层_1" xmlns="http://www.w3.org/2000/svg" xmlns:xlink="http://www.w3.org/1999/xlink" x="0px" y="0px"
	 viewBox="0 0 1024 1024" style="enable-background:new 0 0 1024 1024;" xml:space="preserve">
<style type="text/css">
	.st0{fill:none;}
</style>
<title>reconciliation</title>
<desc>Created with Sketch.</desc>
<g>
	<circle class="st0" cx="676" cy="657" r="34"/>
	<rect x="176" y="616" class="st0" width="272" height="232"/>
	<polygon class="st0" points="676,232 668,232 604,232 604,176 540,176 540,232 476,232 468,232 468,280 676,280 	"/>
	<rect x="176" y="464" class="st0" width="272" height="88"/>
	<path class="st0" d="M740,344H404V240H304v160h176c17.7,0,32,14.3,32,32v360h328V240H740V344z M584,448c0-4.4,3.6-8,8-8h48
		c4.4,0,8,3.6,8,8v56c0,4.4-3.6,8-8,8h-48c-4.4,0-8-3.6-8-8V448z M676,749c-50.8,0-92-41.2-92-92c0-50.8,41.2-92,92-92
		s92,41.2,92,92C768,707.8,726.8,749,676,749z M768,408v96c0,4.4-3.6,8-8,8h-48c-4.4,0-8-3.6-8-8v-96c0-4.4,3.6-8,8-8h48
		C764.4,400,768,403.6,768,408z"/>
	<path d="M676,565c-50.8,0-92,41.2-92,92c0,50.8,41.2,92,92,92s92-41.2,92-92C768,606.2,726.8,565,676,565z M676,691
		c-18.8,0-34-15.2-34-34s15.2-34,34-34s34,15.2,34,34S694.8,691,676,691z"/>
	<path d="M880,168H740h-72c0-30.9-25.1-56-56-56h-80c-30.9,0-56,25.1-56,56h-72H264c-17.7,0-32,14.3-32,32v200h-88
		c-17.7,0-32,14.3-32,32v448c0,17.7,14.3,32,32,32h336c17.7,0,32-14.3,32-32v-16h368c17.7,0,32-14.3,32-32V200
		C912,182.3,897.7,168,880,168z M468,232h8h64v-56h64v56h64h8v48H468V232z M448,848H176V616h272V848z M448,552H176v-88h272V552z
		 M840,792H512V432c0-17.7-14.3-32-32-32H304V240h100v104h336V240h100V792z"/>
	<path d="M704,408v96c0,4.4,3.6,8,8,8h48c4.4,0,8-3.6,8-8v-96c0-4.4-3.6-8-8-8h-48C707.6,400,704,403.6,704,408z"/>
	<path d="M592,512h48c4.4,0,8-3.6,8-8v-56c0-4.4-3.6-8-8-8h-48c-4.4,0-8,3.6-8,8v56C584,508.4,587.6,512,592,512z"/>
</g>
</svg>
