<?xml version="1.0" encoding="utf-8"?>

<svg id="red-envelope" viewBox="0 0 1024 1024">
  <path d="M512.3 439.4L453 380.1c-14.1-14.1-36.9-14.1-50.9 0-14.1 14.1-14.1 36.9 0 50.9l67 67H354c-18.8 0-34 15.2-34 34v4c0 18.8 15.2 34 34 34h122v64h-90c-18.8 0-34 15.2-34 34v4c0 18.8 15.2 34 34 34h90v84c0 19.9 16.1 36 36 36s36-16.1 36-36v-84h90c18.8 0 34-15.2 34-34v-4c0-18.8-15.2-34-34-34h-90v-64h122c18.8 0 34-15.2 34-34v-4c0-18.8-15.2-34-34-34H555.6l67.6-67.6c14.1-14.1 14.1-36.9 0-50.9-14.1-14.1-36.9-14.1-50.9 0l-60 59.9z"></path>
  <path d="M896 126h-0.7c-4.9-35-34.9-62-71.3-62H200c-36.4 0-66.4 27-71.3 62h-0.7l0.6 0.3c-0.4 3.2-0.6 6.4-0.6 9.7v752c0 39.8 32.2 72 72 72h624c39.8 0 72-32.2 72-72V136c0-3.3-0.2-6.5-0.6-9.7l0.6-0.3z m-181 10l-157.8 78.5c-25 12.4-65.4 12.4-90.4-0.1L310 136m514 752H200V162.8l247.9 126.5c35.4 18.1 92.8 18.1 128.3 0L824 162.8V888z"></path>
</svg>