<?xml version="1.0" encoding="utf-8"?>
<!-- Generator: Adobe Illustrator 21.0.0, SVG Export Plug-In . SVG Version: 6.00 Build 0)  -->
<svg version="1.1" id="图层_1" xmlns="http://www.w3.org/2000/svg" xmlns:xlink="http://www.w3.org/1999/xlink" x="0px" y="0px"
	 viewBox="0 0 1024 1024" style="enable-background:new 0 0 1024 1024;" xml:space="preserve">
<style type="text/css">
	.st0{fill:none;}
</style>
<title>reddit</title>
<desc>Created with Sketch.</desc>
<g>
	<path class="st0" d="M226.6,432.1c-9-18.9-28.3-32.1-50.6-32.1c-30.9,0-56,25.1-56,56c0,23.5,14.6,43.7,35.2,52
		C173.1,479.9,197.4,454.3,226.6,432.1z"/>
	<path class="st0" d="M820,235.5c17.4,0,31.5-14.1,31.5-31.5s-14.1-31.5-31.5-31.5s-31.5,14.1-31.5,31.5S802.6,235.5,820,235.5z"/>
	<path class="st0" d="M848,400c-22.3,0-41.6,13.1-50.6,32.1c29.3,22.2,53.5,47.8,71.5,75.9c20.6-8.3,35.2-28.4,35.2-52
		C904,425.1,878.9,400,848,400z"/>
	<path class="st0" d="M512,410.5c-179.8,0-325.5,95.6-325.5,213.5S332.2,837.5,512,837.5S837.5,741.9,837.5,624
		S691.8,410.5,512,410.5z M288,568c0-30.9,25.1-56,56-56c30.9,0,56,25.1,56,56c0,30.9-25.1,56-56,56C313.1,624,288,598.9,288,568z
		 M667.9,739.9C627.7,771.6,566.5,792,512,792s-115.7-20.4-155.9-52.1c-14.4-11.4-16.9-32.3-5.5-46.7s32.3-16.9,46.7-5.5
		c23.1,18.2,68.9,37.8,114.7,37.8s91.6-19.6,114.7-37.8c14.4-11.3,35.3-8.9,46.7,5.5C684.8,707.6,682.3,728.6,667.9,739.9z M680,624
		c-30.9,0-56-25.1-56-56c0-30.9,25.1-56,56-56s56,25.1,56,56C736,598.9,710.9,624,680,624z"/>
	<circle cx="344" cy="568" r="56"/>
	<path d="M626.7,687.7c-23.1,18.2-68.9,37.8-114.7,37.8s-91.6-19.6-114.7-37.8c-14.4-11.3-35.3-8.9-46.7,5.5s-8.9,35.3,5.5,46.7
		C396.3,771.6,457.5,792,512,792s115.7-20.4,155.9-52.1c14.4-11.4,16.9-32.3,5.5-46.7C662.1,678.8,641.1,676.3,626.7,687.7z"/>
	<path d="M960,456c0-61.9-50.1-112-112-112c-42.1,0-78.7,23.2-97.9,57.6c-57.6-31.5-127.7-51.8-204.1-56.5L612.9,195l127.9,36.9
		c11.5,32.6,42.6,56.1,79.2,56.1c46.4,0,84-37.6,84-84s-37.6-84-84-84c-32,0-59.8,17.9-74,44.2l-142.5-41.2
		c-16-4.6-32.8,3.2-39.6,18.4l-90.8,203.9c-74.5,5.2-142.9,25.4-199.2,56.2C254.8,367.2,218.1,344,176,344c-61.9,0-112,50.1-112,112
		c0,45.8,27.5,85.1,66.8,102.5c-7.1,21-10.8,43-10.8,65.5c0,154.6,175.5,280,392,280s392-125.4,392-280c0-22.6-3.8-44.5-10.8-65.5
		C932.5,541.1,960,501.8,960,456z M820,172.5c17.4,0,31.5,14.1,31.5,31.5s-14.1,31.5-31.5,31.5s-31.5-14.1-31.5-31.5
		S802.6,172.5,820,172.5z M120,456c0-30.9,25.1-56,56-56c22.3,0,41.6,13.1,50.6,32.1c-29.3,22.2-53.5,47.8-71.5,75.9
		C134.6,499.7,120,479.5,120,456z M512,837.5c-179.8,0-325.5-95.6-325.5-213.5S332.2,410.5,512,410.5S837.5,506.1,837.5,624
		S691.8,837.5,512,837.5z M868.8,508c-17.9-28.1-42.2-53.7-71.5-75.9c9-18.9,28.3-32.1,50.6-32.1c30.9,0,56,25.1,56,56
		C904,479.5,889.4,499.7,868.8,508z"/>
	<circle cx="680" cy="568" r="56"/>
</g>
</svg>
