<?xml version="1.0" encoding="utf-8"?>
<!-- Generator: Adobe Illustrator 21.0.0, SVG Export Plug-In . SVG Version: 6.00 Build 0)  -->
<svg version="1.1" id="图层_1" xmlns="http://www.w3.org/2000/svg" xmlns:xlink="http://www.w3.org/1999/xlink" x="0px" y="0px"
	 viewBox="0 0 1024 1024" style="enable-background:new 0 0 1024 1024;" xml:space="preserve">
<style type="text/css">
	.st0{fill:none;}
</style>
<title>reddit-circle-fill</title>
<desc>Created with Sketch.</desc>
<g>
	<path class="st0" d="M728,404c-27.1,0-50.6,14.9-62.9,37c-37-20.2-82.1-33.3-131.2-36.3l43-96.5l82.2,23.7
		c7.4,21,27.4,36.1,50.9,36.1c29.8,0,54-24.2,54-54s-24.2-54-54-54c-20.6,0-38.4,11.5-47.6,28.4L570.8,262
		c-10.3-3-21.1,2.1-25.5,11.8L487,404.9c-47.9,3.4-91.8,16.3-128.1,36.1c-12.3-22.1-35.9-37-62.9-37c-39.8,0-72,32.2-72,72
		c0,29.4,17.7,54.7,43,65.9c-4.6,13.5-7,27.6-7,42.1c0,99.4,112.8,180,252,180s252-80.6,252-180c0-14.5-2.4-28.6-7-42.1
		c25.3-11.2,43-36.5,43-65.9C800,436.2,767.8,404,728,404z M282.6,509.4c-13.2-5.3-22.6-18.3-22.6-33.4c0-19.9,16.1-36,36-36
		c14.3,0,26.8,8.4,32.5,20.6C309.7,474.9,294.1,491.3,282.6,509.4z M368,548c0-19.9,16.1-36,36-36s36,16.1,36,36s-16.1,36-36,36
		S368,567.9,368,548z M612.2,658.5C586.4,678.9,547.1,692,512,692c-35.1,0-74.4-13.1-100.2-33.5c-9.3-7.3-10.9-20.8-3.6-30
		c7.3-9.3,20.8-10.9,30-3.6c14.9,11.7,44.3,24.3,73.7,24.3s58.9-12.6,73.7-24.3c9.3-7.3,22.7-5.7,30,3.6
		C623.1,637.8,621.5,651.2,612.2,658.5z M620,584c-19.9,0-36-16.1-36-36s16.1-36,36-36s36,16.1,36,36S639.9,584,620,584z
		 M741.4,509.4c-11.5-18.1-27.1-34.5-45.9-48.8c5.8-12.2,18.2-20.6,32.5-20.6c19.9,0,36,16.1,36,36
		C764,491.1,754.6,504.1,741.4,509.4z"/>
	<circle cx="620" cy="548" r="36"/>
	<path d="M728,440c-14.3,0-26.8,8.4-32.5,20.6c18.8,14.3,34.4,30.7,45.9,48.8c13.2-5.3,22.6-18.3,22.6-33.4
		C764,456.1,747.9,440,728,440z"/>
	<path d="M512,64C264.6,64,64,264.6,64,512s200.6,448,448,448s448-200.6,448-448S759.4,64,512,64z M757,541.9
		c4.6,13.5,7,27.6,7,42.1c0,99.4-112.8,180-252,180s-252-80.6-252-180c0-14.5,2.4-28.6,7-42.1c-25.3-11.2-43-36.4-43-65.9
		c0-39.8,32.2-72,72-72c27.1,0,50.6,14.9,62.9,37c36.2-19.8,80.2-32.8,128.1-36.1l58.4-131.1c4.3-9.8,15.2-14.8,25.5-11.8l91.6,26.5
		c9.1-16.9,27-28.4,47.6-28.4c29.8,0,54,24.2,54,54s-24.2,54-54,54c-23.5,0-43.5-15.1-50.9-36.1l-82.2-23.7l-43,96.5
		c49.1,3,94.2,16.1,131.2,36.3c12.3-22.1,35.8-37,62.9-37c39.8,0,72,32.2,72,72C800,505.4,782.3,530.7,757,541.9z"/>
	<path d="M585.7,624.9c-14.9,11.7-44.3,24.3-73.7,24.3s-58.9-12.6-73.7-24.3c-9.3-7.3-22.7-5.7-30,3.6c-7.3,9.3-5.7,22.7,3.6,30
		C437.6,678.9,476.9,692,512,692c35.1,0,74.4-13.1,100.2-33.5c9.3-7.3,10.9-20.8,3.6-30C608.5,619.2,595,617.6,585.7,624.9z"/>
	<path d="M296,440c-19.9,0-36,16.1-36,36c0,15.1,9.4,28.1,22.6,33.4c11.5-18.1,27.1-34.5,45.9-48.8C322.8,448.4,310.3,440,296,440z"
		/>
	<circle cx="404" cy="548" r="36"/>
</g>
</svg>
