<?xml version="1.0" encoding="utf-8"?>
<svg id="reload" viewBox="0 0 1024 1024" version="1.1" xmlns="http://www.w3.org/2000/svg" xmlns:xlink="http://www.w3.org/1999/xlink">
  <path d="M954.167615 504.138076c-3.299758-19.598565-21.798403-32.897591-41.396968-29.597832-19.598565 3.299758-32.897591 21.798403-29.597833 41.396968 3.199766 18.998609 4.799648 39.797085 4.799649 60.295583C887.972463 676.625442 848.875327 771.018529 777.880526 842.013329S612.49264 952.005273 512 952.005273c-100.392647 0-194.885726-39.097136-265.880526-110.091937-70.9948-70.9948-110.091937-165.487879-110.091937-265.880526s39.097136-194.885726 110.091937-265.880526S411.607353 200.060347 512 200.060347c4.199692 0 8.399385 0.099993 12.599077 0.199985L442.805068 282.054342c-14.098967 14.098967-14.098967 36.897298 0 50.896272 14.098967 14.098967 36.897298 14.098967 50.896272 0l135.790055-135.790054c14.098967-14.098967 14.098967-36.897298 0-50.896273L493.70134 10.574226c-14.098967-14.098967-36.897298-14.098967-50.896272 0-14.098967 14.098967-14.098967 36.897298 0 50.896272l66.595122 66.595122c-59.495642 0.299978-117.291409 12.199107-171.687425 35.197422-53.396089 22.598345-101.292581 54.895979-142.389571 95.99297-41.09699 41.09699-73.394624 88.993482-95.992969 142.389571C75.931939 456.941533 64.03281 515.537241 64.03281 576.03281s11.899128 119.091277 35.197422 174.387228c22.598345 53.396089 54.895979 101.292581 95.992969 142.389571 41.09699 41.09699 88.993482 73.394624 142.389572 95.992969 55.29595 23.398286 113.891658 35.197422 174.387227 35.197422s119.091277-11.799136 174.387227-35.197422c53.396089-22.498352 101.292581-54.795987 142.389572-95.892977 41.09699-41.09699 73.394624-88.993482 95.992969-142.289578 23.398286-55.195957 35.197422-113.891658 35.197422-174.387228 0-24.698191-1.999854-48.996411-5.799575-72.094719z"></path>
</svg>