<?xml version="1.0" encoding="utf-8"?>
<!-- Generator: Adobe Illustrator 21.0.0, SVG Export Plug-In . SVG Version: 6.00 Build 0)  -->
<svg version="1.1" id="图层_1" xmlns="http://www.w3.org/2000/svg" xmlns:xlink="http://www.w3.org/1999/xlink" x="0px" y="0px"
	 viewBox="0 0 1024 1024" style="enable-background:new 0 0 1024 1024;" xml:space="preserve">
<title>reload</title>
<desc>Created with Sketch.</desc>
<path d="M909.1,209.3l-56.4,44.1C775.8,155.1,656.2,92,521.9,92C290,92,102.3,279.5,102,511.5C101.7,743.7,289.8,932,521.9,932
	c181.3,0,335.8-115,394.6-276.1c1.5-4.2-0.7-8.9-4.9-10.3l-56.7-19.5c-4.1-1.4-8.6,0.7-10.1,4.8c-1.8,5-3.8,10-5.9,14.9
	c-17.3,41-42.1,77.8-73.7,109.4c-31.6,31.6-68.4,56.4-109.3,73.8c-42.3,17.9-87.4,27-133.8,27c-46.5,0-91.5-9.1-133.8-27
	c-40.9-17.3-77.7-42.1-109.3-73.8c-31.6-31.6-56.4-68.4-73.7-109.4c-17.9-42.4-27-87.4-27-133.9c0-46.5,9.1-91.5,27-133.9
	c17.3-41,42.1-77.8,73.7-109.4c31.6-31.6,68.4-56.4,109.3-73.8c42.3-17.9,87.4-27,133.8-27c46.5,0,91.5,9.1,133.8,27
	c40.9,17.3,77.7,42.1,109.3,73.8c9.9,9.9,19.2,20.4,27.8,31.4l-60.2,47c-5.3,4.1-3.5,12.5,3,14.1l175.6,43c5,1.2,9.9-2.6,9.9-7.7
	l0.8-180.9C922,208.9,914.3,205.2,909.1,209.3z"/>
</svg>
