<?xml version="1.0" encoding="utf-8"?>

<svg id="right-square-o" viewBox="0 0 1024 1024">
  <path d="M888.5 135.5 888.5 135.5 888.5 135.5l0 753.1 0 0-753 0 0 0L135.5 135.5l0 0L888.5 135.5M888.5 63.5l-753 0c-39.8 0-72 32.2-72 72l0 753.1c0 39.8 32.2 72 72 72l753.1 0c39.8 0 72-32.2 72-72L960.6 135.5C960.5 95.7 928.3 63.5 888.5 63.5L888.5 63.5z"></path>
  <path d="M704.9 512c0-10-4.1-19.5-11.4-26.3l-235.8-221c-14.5-13.6-37.3-12.9-50.9 1.6-13.6 14.5-12.9 37.3 1.6 50.9L616.2 512 408.5 706.8c-14.5 13.6-15.2 36.4-1.6 50.9 13.6 14.5 36.4 15.2 50.9 1.6l235.8-221C700.8 531.5 704.9 522 704.9 512z"></path>
</svg>