<?xml version="1.0" encoding="utf-8"?>

<svg id="right-circle-o" viewBox="0 0 1024 1024">
  <path d="M512 72.92878c59.342049 0 116.885854 11.588683 171.032976 34.466341 52.348878 22.178341 99.303024 53.847415 139.763512 94.208 40.360585 40.360585 72.129561 87.414634 94.208 139.763512C939.982049 395.613659 951.570732 453.157463 951.570732 512.499512s-11.588683 116.885854-34.466341 171.032976c-22.178341 52.348878-53.847415 99.303024-94.208 139.763512-40.360585 40.360585-87.414634 72.129561-139.763512 94.208C628.885854 940.481561 571.342049 952.070244 512 952.070244s-116.885854-11.588683-171.032976-34.466341c-52.348878-22.178341-99.303024-53.847415-139.763512-94.208-40.360585-40.360585-72.129561-87.414634-94.208-139.763512C84.017951 629.385366 72.429268 571.841561 72.429268 512.499512s11.588683-116.885854 34.466341-171.032976c22.178341-52.348878 53.847415-99.303024 94.208-139.763512 40.360585-40.360585 87.414634-72.129561 139.763512-94.208C395.114146 84.517463 452.657951 72.92878 512 72.92878M512 0.999024C229.475902 0.999024 0.499512 229.975415 0.499512 512.499512s228.97639 511.500488 511.500488 511.500488 511.500488-228.97639 511.500488-511.500488S794.524098 0.999024 512 0.999024L512 0.999024z"></path>
  <path d="M681.434537 485.326049l-235.569951-220.78439c-14.485854-13.586732-37.26361-12.887415-50.850341 1.598439-13.586732 14.485854-12.887415 37.26361 1.598439 50.850341L604.110049 511.500488 396.51278 706.110439c-14.485854 13.586732-15.185171 36.364488-1.598439 50.850341 13.586732 14.485854 36.364488 15.185171 50.850341 1.598439l235.569951-220.78439c7.292878-6.793366 11.388878-16.284098 11.388878-26.274341S688.627512 492.019512 681.434537 485.326049z"></path>
</svg>