<?xml version="1.0" encoding="utf-8"?>

<svg id="right-circle" viewBox="0 0 1024 1024">
  <path d="M512 0.999024C229.475902 0.999024 0.499512 229.975415 0.499512 512.499512s228.97639 511.500488 511.500488 511.500488 511.500488-228.97639 511.500488-511.500488S794.524098 0.999024 512 0.999024zM681.334634 537.674927l-235.569951 220.78439c-14.485854 13.586732-37.26361 12.887415-50.850341-1.598439-13.586732-14.485854-12.887415-37.26361 1.598439-50.850341L604.110049 511.500488 396.612683 316.890537c-14.485854-13.586732-15.185171-36.364488-1.598439-50.850341 13.586732-14.485854 36.364488-15.185171 50.850341-1.598439l235.569951 220.78439c7.192976 6.693463 11.288976 16.184195 11.288976 26.174439S688.627512 530.981463 681.334634 537.674927z"></path>
</svg>