<?xml version="1.0" encoding="utf-8"?>

<svg id="rocket" viewBox="0 0 1024 1024">
  <path d="M953.6 97.3l-5.1-21.5-21.5-5.2c-12.3-3-34.6-6.5-71.6-6.5-70 0-157.9 12.8-234.9 34.2-42.2 11.7-79.9 25.5-112 41-33.2 16-60.3 34.1-78.5 52.3-16.6 16.6-38.3 49.5-64.6 97.8-6.1 11.2-12.4 23.2-18.9 36-53.3 15.2-116.7 52.7-143.5 69.6-60.8 38.1-110.1 78-131.7 106.6-6.8 9-9 20.7-5.9 31.6 3.1 10.9 11.1 19.7 21.7 23.7 6.7 2.6 14 5.3 21.7 8.3 35 13.3 77.8 29.4 111 45.7l-0.1 0.2 192.6 192.8c16.3 33.3 32.6 76.4 46 111.7 2.9 7.7 5.7 15 8.3 21.7 4.1 10.6 12.8 18.6 23.7 21.7 3.3 0.9 6.6 1.4 9.9 1.4 7.7 0 15.4-2.5 21.7-7.3 28.6-21.6 68.5-70.9 106.6-131.7 16.8-26.9 54.3-90.1 69.7-143.5 13-6.6 25.3-13 36.7-19.2 48.6-26.4 81.5-48.2 97.9-64.8 47-47 88.6-147.9 111.4-269.9 9.9-53.2 15.5-107.3 15.7-152.3 0.3-38.3-3.2-61.6-6.3-74.4zM292.8 438.6c-17.1 38.1-32.7 74.7-45.6 105.5-25.4-12.2-54.4-23.8-81.7-34.4 19.3-15.8 44.9-34.4 75.8-53.7 20.2-12.7 40.2-24.1 58.9-33.6-2.5 5.3-5 10.7-7.4 16.2z m274.7 344.5c-19.3 30.8-37.9 56.4-53.7 75.8-10.5-27.2-22.2-56.2-34.3-81.6 30.9-12.9 67.6-28.6 106.1-45.9 5.2-2.4 10.4-4.7 15.5-7-9.6 18.6-21 38.5-33.6 58.7zM888 171.2c-0.2 40.9-5.3 90.4-14.5 139.5-10 53.4-24.2 103.7-41.2 145.7-15.8 39.1-33.7 69.9-50.4 86.5l-0.2 0.2c-4 4.1-21.8 19.9-81.2 52.2-38.8 21-87.4 44.7-144.6 70.5-47.2 21.2-91.8 40-125.8 54.1l-125.6-126c14-34.1 32.9-78.8 54-125.8 25.9-57.5 49.6-106.1 70.4-144.5 32.1-59 48.1-77.1 52.2-81.2 12.3-12.3 33.2-25.9 58.9-38.3 28.2-13.6 61.8-25.9 99.9-36.4C711 147.8 791.6 136 855.5 136c12.9 0 23.2 0.5 31.4 1.2 0.7 8.8 1.2 20 1.1 34zM185.2 751.8c-39.1 0-72.1 25.9-82.8 61.6L64.8 937.6c-0.5 1.6-0.8 3.3-0.8 5 0 9.6 7.7 17.4 17.3 17.4 1.8 0 3.4-0.3 5-0.8l124-37.7c35.5-10.8 61.4-43.9 61.4-83 0-47.9-38.7-86.7-86.5-86.7z"></path>
  <path d="M594.738592 429.257846a64 64 0 1 0 90.508088-90.511248 64 64 0 1 0-90.508088 90.511248Z"></path>
</svg>