<?xml version="1.0" encoding="utf-8"?>
<!-- Generator: Adobe Illustrator 21.0.0, SVG Export Plug-In . SVG Version: 6.00 Build 0)  -->
<svg version="1.1" id="图层_1" xmlns="http://www.w3.org/2000/svg" xmlns:xlink="http://www.w3.org/1999/xlink" x="0px" y="0px"
	 viewBox="0 0 1024 1024" style="enable-background:new 0 0 1024 1024;" xml:space="preserve">
<style type="text/css">
	.st0{fill:none;}
</style>
<title>rocket</title>
<desc>Created with Sketch.</desc>
<g>
	<path class="st0" d="M388,668h248V526.1V509v-25.9V318.8l-124-147l-124,147v164.3V509v17.1V668z M512,352c26.5,0,48,21.5,48,48
		c0,26.5-21.5,48-48,48c-26.5,0-48-21.5-48-48C464,373.5,485.5,352,512,352z"/>
	<path class="st0" d="M324,558.7c-24.8,16.2-46.1,37.6-62.3,62.7c-9.4,14.6-17,30.3-22.5,46.6H324V558.7z"/>
	<path class="st0" d="M700,668h84.8c-5.5-16.3-13.1-32-22.5-46.6c-16.3-25.2-37.5-46.5-62.3-62.7V668z"/>
	<path class="st0" d="M627.6,736H396.4c-8.7,4.5-14.6,13.3-14.6,23.8c0,10.1,5.4,19.4,14.1,24.4c4.2,2.4,9,3.7,13.8,3.7
		c1.1,0,2.2-0.1,3.3-0.2l19.5-2.5l2.8,19.5c5.4,37.9,38.4,66.5,76.7,66.5c38.3,0,71.3-28.6,76.7-66.5l2.8-19.4l19.5,2.4
		c5.9,0.7,11.9-0.5,17.1-3.4c8.7-5,14.2-14.3,14.2-24.4C642.2,749.3,636.4,740.5,627.6,736z"/>
	<path d="M864,736c0-111.6-65.4-208-160-252.9V317.3c0-15.1-5.3-29.7-15.1-41.2L536.5,95.4C530.1,87.8,521,84,512,84
		s-18.1,3.8-24.5,11.4L335.1,276.1c-9.7,11.5-15.1,26.1-15.1,41.2v165.8C225.4,528,160,624.4,160,736h156.5
		c-2.3,7.2-3.5,15-3.5,23.8c0,22.1,7.6,43.7,21.4,60.8c11.3,14,26.2,24.6,43.1,30.6c23.1,54,75.6,88.8,134.5,88.8
		c29.1,0,57.3-8.6,81.4-24.8c23.6-15.8,41.9-37.9,53-64c16.9-6,31.8-16.5,43.1-30.5c13.8-17.2,21.4-38.8,21.4-60.8
		c0-8.4-1.1-16.4-3.1-23.8H864z M762.3,621.4c9.4,14.6,17,30.3,22.5,46.6H700V558.7C724.8,574.9,746.1,596.2,762.3,621.4z
		 M388,483.1V318.8l124-147l124,147v164.3V509v17.1V668H388V526.1V509V483.1z M239.2,668c5.5-16.3,13.1-32,22.5-46.6
		c16.3-25.2,37.5-46.5,62.3-62.7V668H239.2z M628.1,784.2c-5.2,3-11.2,4.2-17.1,3.4l-19.5-2.4l-2.8,19.4
		c-5.4,37.9-38.4,66.5-76.7,66.5c-38.3,0-71.3-28.6-76.7-66.5l-2.8-19.5l-19.5,2.5c-1,0.1-2.1,0.2-3.3,0.2c-4.9,0-9.6-1.3-13.8-3.7
		c-8.7-5-14.1-14.3-14.1-24.4c0-10.6,5.9-19.4,14.6-23.8h231.3c8.8,4.5,14.6,13.3,14.6,23.8C642.2,769.9,636.8,779.3,628.1,784.2z"
		/>
	<circle cx="512" cy="400" r="48"/>
</g>
</svg>
