<?xml version="1.0" encoding="utf-8"?>
<!-- Generator: Adobe Illustrator 21.0.0, SVG Export Plug-In . SVG Version: 6.00 Build 0)  -->
<svg version="1.1" id="图层_1" xmlns="http://www.w3.org/2000/svg" xmlns:xlink="http://www.w3.org/1999/xlink" x="0px" y="0px"
	 viewBox="0 0 1024 1024" style="enable-background:new 0 0 1024 1024;" xml:space="preserve">
<style type="text/css">
	.st0{fill:none;}
</style>
<title>safety certificate-fill</title>
<desc>Created with Sketch.</desc>
<g>
	<path class="st0" d="M688,328h-55.2c-5.1,0-10,2.5-13,6.6L468.9,542.4l-64.7-89c-3-4.1-7.8-6.6-13-6.6H336
		c-6.5,0-10.3,7.4-6.5,12.7l126.4,174c6.4,8.8,19.6,8.8,26,0l212.6-292.7C698.3,335.4,694.5,328,688,328z"/>
	<path d="M866.9,169.9L527.1,54.1C523,52.7,517.5,52,512,52s-11,0.7-15.1,2.1L157.1,169.9c-8.3,2.8-15.1,12.4-15.1,21.2v482.4
		c0,8.8,5.7,20.4,12.6,25.9l344.7,268.6c3.5,2.7,8,4.1,12.6,4.1c4.6,0,9.2-1.4,12.6-4.1l344.7-268.6c6.9-5.4,12.6-17,12.6-25.9
		V191.1C882,182.3,875.2,172.8,866.9,169.9z M694.5,340.7L481.9,633.4c-6.4,8.8-19.6,8.8-26,0l-126.4-174c-3.8-5.3,0-12.7,6.5-12.7
		h55.2c5.1,0,10,2.5,13,6.6l64.7,89l150.9-207.8c3-4.1,7.8-6.6,13-6.6H688C694.5,328,698.3,335.4,694.5,340.7z"/>
</g>
</svg>
