<?xml version="1.0" encoding="utf-8"?>

<svg id="save" viewBox="0 0 1024 1024">
  <path d="M649.9 127.9 199.9 127.9c-39.8 0-72 32.2-72 72l0 623c0 39.8 32.2 72 72 72l623 0c39.8 0 72-32.2 72-72L894.9 372.8 649.9 127.9zM328.8 199.9l217 0 0 205.9c0 19.9-16.1 36-36 36l-145 0c-19.9 0-36-16.1-36-36L328.8 199.9zM822.9 822.9l-623 0 0-623 56.9 0 0 205.9c0 59.6 48.4 108 108 108l145 0c59.6 0 108-48.4 108-108L617.8 199.9l2.3 0 202.7 202.7L822.8 822.9z"></path>
  <path d="M468.8 369.8c19.9 0 36-16.1 36-36l0-43c0-19.9-16.1-36-36-36s-36 16.1-36 36l0 43C432.8 353.7 448.9 369.8 468.8 369.8z"></path>
</svg>