<?xml version="1.0" encoding="utf-8"?>
<svg id="scan" viewBox="0 0 1024 1024" version="1.1" xmlns="http://www.w3.org/2000/svg" xmlns:xlink="http://www.w3.org/1999/xlink">
  <path d="M768 696V328c0-39.8-32.2-72-72-72H328c-39.8 0-72 32.2-72 72v368c0 39.8 32.2 72 72 72h368c39.8 0 72-32.2 72-72z m-72 0H328V328h368v368zM100 324c19.9 0 36-16.1 36-36V136h152c19.9 0 36-16.1 36-36s-16.1-36-36-36H136c-39.7 0-72 32.3-72 72v152c0 19.9 16.1 36 36 36zM288 888H136V736c0-19.9-16.1-36-36-36s-36 16.1-36 36v152c0 39.7 32.3 72 72 72h152c19.9 0 36-16.1 36-36s-16.1-36-36-36zM888 64H736c-19.9 0-36 16.1-36 36s16.1 36 36 36h152v152c0 19.9 16.1 36 36 36s36-16.1 36-36V136c0-39.7-32.3-72-72-72zM924 700c-19.9 0-36 16.1-36 36v152H736c-19.9 0-36 16.1-36 36s16.1 36 36 36h152c39.7 0 72-32.3 72-72V736c0-19.9-16.1-36-36-36z"></path>
</svg>