<?xml version="1.0" encoding="utf-8"?>

<svg id="schedule" viewBox="0 0 1024 1024">
  <path d="M162.5 584h379c19 0 34.5-15.4 34.5-34.5v-3c0-19.1-15.4-34.5-34.5-34.5h-379c-19 0-34.5 15.4-34.5 34.5v3c0 19.1 15.4 34.5 34.5 34.5zM537.5 630.1c-14.1 14.1-14.1 36.9 0 50.9l84.9 84.9 0.9 0.9 0.9 0.9 3.5 3.5c13.1 13.1 34.3 13.1 47.4 0l224-224.2c13.1-13.1 13.1-34.3 0-47.4l-3.5-3.5c-13.1-13.1-34.3-13.1-47.4 0L651.3 693l-62.9-62.9c-14.1-14.1-36.9-14.1-50.9 0z"></path>
  <path d="M952 192h-84v-28c0-19.9-16.1-36-36-36s-36 16.1-36 36v28H548v-28c0-19.9-16.1-36-36-36s-36 16.1-36 36v28H228v-28c0-19.9-16.1-36-36-36s-36 16.1-36 36v28H72c-39.8 0-72 32.2-72 72v560c0 39.8 32.2 72 72 72h880c39.8 0 72-32.2 72-72V264c0-39.8-32.2-72-72-72z m0 632H72V448h880v376z m0-448H72V264h84v20c0 19.9 16.1 36 36 36s36-16.1 36-36v-20h248v20c0 19.9 16.1 36 36 36s36-16.1 36-36v-20h248v20c0 19.9 16.1 36 36 36s36-16.1 36-36v-20h84v112z"></path>
  <path d="M162.5 708h251c19 0 34.5-15.4 34.5-34.5v-3c0-19.1-15.4-34.5-34.5-34.5h-251c-19 0-34.5 15.4-34.5 34.5v3c0 19.1 15.4 34.5 34.5 34.5z"></path>
</svg>