<?xml version="1.0" encoding="utf-8"?>
<!-- Generator: Adobe Illustrator 21.0.0, SVG Export Plug-In . SVG Version: 6.00 Build 0)  -->
<svg version="1.1" id="图层_1" xmlns="http://www.w3.org/2000/svg" xmlns:xlink="http://www.w3.org/1999/xlink" x="0px" y="0px"
	 viewBox="0 0 1024 1024" style="enable-background:new 0 0 1024 1024;" xml:space="preserve">
<style type="text/css">
	.st0{fill:none;}
</style>
<title>scissor</title>
<desc>Created with Sketch.</desc>
<g>
	<path class="st0" d="M288,210c-44.1,0-80,35.9-80,80s35.9,80,80,80s80-35.9,80-80S332.1,210,288,210z"/>
	<path class="st0" d="M288,654c-44.1,0-80,35.9-80,80s35.9,80,80,80s80-35.9,80-80S332.1,654,288,654z"/>
	<path d="M567.1,512l318.5-319.3c5-5,1.5-13.7-5.6-13.7h-90.5c-2.1,0-4.2,0.8-5.6,2.3l-273.3,274l-90.2-90.5
		c12.5-22.1,19.7-47.6,19.7-74.8c0-83.9-68.1-152-152-152s-152,68.1-152,152s68.1,152,152,152c27.7,0,53.6-7.4,75.9-20.3L454,512
		l-90.1,90.3C341.6,589.4,315.7,582,288,582c-83.9,0-152,68.1-152,152s68.1,152,152,152s152-68.1,152-152c0-27.2-7.2-52.7-19.7-74.8
		l90.2-90.5l273.3,274c1.5,1.5,3.5,2.3,5.6,2.3H880c7.1,0,10.7-8.6,5.6-13.7L567.1,512z M288,370c-44.1,0-80-35.9-80-80
		s35.9-80,80-80s80,35.9,80,80S332.1,370,288,370z M288,814c-44.1,0-80-35.9-80-80s35.9-80,80-80s80,35.9,80,80S332.1,814,288,814z"
		/>
</g>
</svg>
