<?xml version="1.0" encoding="utf-8"?>
<!-- Generator: Adobe Illustrator 21.0.0, SVG Export Plug-In . SVG Version: 6.00 Build 0)  -->
<svg version="1.1" id="图层_1" xmlns="http://www.w3.org/2000/svg" xmlns:xlink="http://www.w3.org/1999/xlink" x="0px" y="0px"
	 viewBox="0 0 1024 1024" style="enable-background:new 0 0 1024 1024;" xml:space="preserve">
<style type="text/css">
	.st0{fill:none;}
</style>
<title>security scan</title>
<desc>Created with Sketch.</desc>
<g>
	<path class="st0" d="M214,226.7v427.6l298,232.2l298-232.2V226.7L512,125.1L214,226.7z M626.8,350.2c56.3,56.3,56.3,147.5,0,203.8
		c-48.5,48.5-123,55.2-178.6,20.1l-77.5,77.5c-3.1,3.1-8.2,3.1-11.3,0l-34-34c-3.1-3.1-3.1-8.2,0-11.3l77.5-77.5
		c-35.1-55.7-28.4-130.1,20.1-178.6C479.3,293.9,570.5,293.9,626.8,350.2z"/>
	
		<ellipse transform="matrix(0.7071 -0.7071 0.7071 0.7071 -165.9488 503.5717)" class="st0" cx="524.9" cy="452.1" rx="80.1" ry="80.1"/>
	<path d="M866.9,169.9L527.1,54.1C523,52.7,517.5,52,512,52s-11,0.7-15.1,2.1L157.1,169.9c-8.3,2.8-15.1,12.4-15.1,21.2v482.4
		c0,8.8,5.7,20.4,12.6,25.9l344.7,268.6c3.5,2.7,8,4.1,12.6,4.1c4.6,0,9.2-1.4,12.6-4.1l344.7-268.6c6.9-5.4,12.6-17,12.6-25.9
		V191.1C882,182.3,875.2,172.8,866.9,169.9z M810,654.3L512,886.5L214,654.3V226.7l298-101.6l298,101.6V654.3z"/>
	<path d="M402.9,528.8l-77.5,77.5c-3.1,3.1-3.1,8.2,0,11.3l34,34c3.1,3.1,8.2,3.1,11.3,0l77.5-77.5c55.7,35.1,130.1,28.4,178.6-20.1
		c56.3-56.3,56.3-147.5,0-203.8c-56.3-56.3-147.5-56.3-203.8,0C374.5,398.7,367.8,473.2,402.9,528.8z M468.3,395.5
		c31.3-31.3,82-31.3,113.2,0c31.3,31.3,31.3,82,0,113.2c-31.3,31.3-82,31.3-113.2,0S437,426.8,468.3,395.5z"/>
</g>
</svg>
