<?xml version="1.0" encoding="utf-8"?>

<svg id="setting" viewBox="0 0 1024 1024">
  <path d="M961.8 439.6l-3.8-24-73.3-24.5c-6.4-19.8-14.4-39.2-23.9-57.7l34.6-69.1-14.2-19.8c-28.8-39.3-63.2-73.7-102.3-102.1l-19.7-14.2-69.1 34.6c-18.6-9.5-37.9-17.5-57.7-23.9L608 65.8l-23.8-3.7c-26.5-4.2-49.4-6.2-72.2-6.2-22.2 0-45.2 2-72.3 6.3l-24 3.8-24.4 73.4c-20.2 6.6-39.6 14.6-57.7 23.8l-69-34.7-19.7 14.2c-39.2 28.4-73.6 62.7-102.2 102.1l-14.2 19.8 34.6 69.1c-9.4 18.5-17.4 37.8-23.8 57.6l-73.3 24.3-3.8 24C58 466.1 56 489.7 56 512c0 22.4 2 46 6.2 72.3l3.8 24 73.3 24.5c6.4 19.8 14.4 39.2 23.9 57.7l-34.4 68.9L143 779c14.8 20.6 30.1 38.7 46.7 55.4 15.5 15.6 33.6 30.9 55.3 46.8l19.7 14.2 69-34.6c18.6 9.5 37.9 17.6 57.7 23.9l24.4 73.4 24 3.8c26.3 4.2 49.9 6.2 72.2 6.2 22.3 0 45.9-2 72.3-6.2l24-3.8 24.4-73.4c19.6-6.4 38.9-14.4 57.6-23.8l69.1 34.6 19.7-14.2c21.5-15.5 39.6-30.8 55.3-46.8 16.3-16.3 31.5-34.5 46.7-55.4l14.2-19.8-34.6-69.1c9.5-18.5 17.5-37.8 23.9-57.7l73.3-24.5 3.8-24c4.2-26.3 6.2-49.9 6.2-72.2C968.2 489.7 966.2 466 961.8 439.6zM896.3 511.2l0 0.5c0 13.5-0.9 27.2-2.6 41.9l-35.4 11.8L827 576l-9.7 31.5c-5.5 18.2-12.8 35.9-21.7 52.7l-15.4 29.1 31.4 62.7c-9.2 11.6-18.3 21.9-27.8 31.4l-0.2 0.2c-9.3 9.4-19.6 18.5-31.2 27.6l-62.5-31.3-29 15.1c-17.1 8.9-35.1 16.3-53.4 22.1l-31.3 9.8-10.2 31-11.8 35.4c-14.6 1.8-28.4 2.6-41.9 2.6-13.4 0-27.2-0.9-41.9-2.6l-11.8-35.4-10.3-31.3-31.5-9.7c-18.6-5.7-36.3-13-52.7-21.7L334.9 780l-29.5 14.7-33.3 16.6c-11.6-9.2-21.9-18.3-31.4-27.8-9.7-9.7-18.8-20-27.8-31.4l31.2-62.5-15.2-29c-9.1-17.4-16.5-35.2-21.9-53l-9.7-31.5L130.7 554c-1.8-14.6-2.6-28.4-2.6-41.9s0.9-27.2 2.6-41.9l66.4-22.1 9.7-31.4c5.6-18.1 13-36 21.9-53.2l15.2-29-14.6-29.3-16.6-33.3c17.5-21.8 37.4-41.7 59.2-59.2l62.6 31.3 29.1-15.3c16.8-8.8 34.7-16.2 53.2-22l31.3-9.8 10.4-31.1 11.8-35.4c15.1-1.7 28.8-2.6 41.8-2.6 13.4 0 27.2 0.9 41.8 2.6l22.2 66.3 31.3 9.7c18.2 5.7 36.1 13.1 53.2 21.9l29 15.2 62.5-31.3c21.8 17.5 41.8 37.4 59.5 59.3L780.4 334l15 28.9c8.9 17.2 16.4 35.2 22.1 53.5l9.8 31.3 31.1 10.4 35.4 11.8C895.7 484.9 896.5 498.4 896.3 511.2z"></path>
  <path d="M512.2 337.7c-96.1 0-174.3 78.2-174.3 174.3 0 96.1 78.2 174.3 174.3 174.3 96.1 0 174.3-78.2 174.3-174.3C686.5 415.9 608.3 337.7 512.2 337.7zM584.5 584.3c-19.3 19.3-45 30-72.3 30-27.3 0-53-10.6-72.3-30-19.3-19.3-30-45-30-72.3 0-27.3 10.6-53 30-72.3 19.3-19.3 45-30 72.3-30s53 10.6 72.3 30 30 45 30 72.3S603.8 565 584.5 584.3z"></path>
</svg>