<?xml version="1.0" encoding="utf-8"?>
<!-- Generator: Adobe Illustrator 21.0.0, SVG Export Plug-In . SVG Version: 6.00 Build 0)  -->
<svg version="1.1" id="图层_1" xmlns="http://www.w3.org/2000/svg" xmlns:xlink="http://www.w3.org/1999/xlink" x="0px" y="0px"
	 viewBox="0 0 1024 1024" style="enable-background:new 0 0 1024 1024;" xml:space="preserve">
<style type="text/css">
	.st0{fill:none;}
</style>
<title>setting</title>
<desc>Created with Sketch.</desc>
<g>
	<path class="st0" d="M813.9,288.3l-92.8,32.9l-31.4-25.8c-23.9-19.6-50.5-35-79.3-45.8l-38.1-14.3l-17.9-97
		c-28.1-3.2-56.8-3.2-85,0l-17.9,97.2l-37.9,14.3c-28.5,10.8-55,26.2-78.7,45.7l-31.4,25.9l-93.4-33.2c-17,22.9-31.2,47.6-42.6,73.6
		l75.5,64.5l-6.5,40c-2.4,14.9-3.7,30.3-3.7,45.5c0,15.3,1.2,30.6,3.7,45.5l6.5,40L167.5,662c11.3,26.1,25.6,50.7,42.6,73.6
		l93.4-33.2l31.4,25.9c23.7,19.5,50.2,34.9,78.7,45.7l37.9,14.3l17.9,97.2c28.1,3.2,56.8,3.2,85,0l17.9-97l38.1-14.3
		c28.7-10.8,55.4-26.2,79.3-45.8l31.4-25.8l92.8,32.9c17-22.9,31.2-47.6,42.6-73.6l-74.7-63.9l6.6-40.1c2.5-15.1,3.8-30.6,3.8-46.1
		c0-15.5-1.3-31-3.8-46.1l-6.6-40.1l74.7-63.9C845.1,335.9,830.9,311.2,813.9,288.3z M512,678c-97.2,0-176-78.8-176-176
		s78.8-176,176-176s176,78.8,176,176S609.2,678,512,678z"/>
	<path class="st0" d="M512,390c-29.9,0-58,11.6-79.2,32.8C411.7,444,400,472.1,400,502c0,29.9,11.7,58,32.8,79.2
		C454,602.3,482.1,614,512,614c29.9,0,58-11.7,79.2-32.8C612.3,560,624,531.9,624,502c0-29.9-11.7-58-32.8-79.2
		C570,401.6,541.9,390,512,390z"/>
	<path d="M924.8,625.7l-65.5-56v0c3.1-19,4.7-38.4,4.7-57.8c0-19.4-1.6-38.8-4.7-57.8l65.5-56c10.1-8.6,13.8-22.6,9.3-35.2l-0.9-2.6
		c-18.1-50.5-44.9-96.9-79.7-137.9l-1.8-2.1c-8.6-10.1-22.5-13.9-35.1-9.5l-81.3,28.9c-30-24.6-63.5-44-99.7-57.6l-15.7-85
		c-2.4-13.1-12.7-23.3-25.8-25.7l-2.7-0.5c-52.1-9.4-106.9-9.4-159,0l-2.7,0.5c-13.1,2.4-23.4,12.6-25.8,25.7l-15.8,85.4
		c-35.9,13.6-69.2,32.9-99,57.4l-81.9-29.1c-12.5-4.4-26.5-0.7-35.1,9.5l-1.8,2.1c-34.8,41.1-61.6,87.5-79.7,137.9l-0.9,2.6
		c-4.5,12.5-0.8,26.5,9.3,35.2l66.3,56.6c-3.1,18.8-4.6,38-4.6,57.1c0,19.2,1.5,38.4,4.6,57.1l-66.3,56.6
		c-10.1,8.6-13.8,22.6-9.3,35.2l0.9,2.6c18.1,50.4,44.9,96.9,79.7,137.9l1.8,2.1c8.6,10.1,22.5,13.9,35.1,9.5l81.9-29.1
		c29.8,24.5,63.1,43.9,99,57.4l15.8,85.4c2.4,13.1,12.7,23.3,25.8,25.7l2.7,0.5c26.1,4.7,52.8,7.1,79.5,7.1
		c26.7,0,53.5-2.4,79.5-7.1l2.7-0.5c13.1-2.4,23.4-12.6,25.8-25.7l15.7-85c36.2-13.6,69.7-32.9,99.7-57.6l81.3,28.9
		c12.5,4.4,26.5,0.7,35.1-9.5l1.8-2.1c34.8-41.1,61.6-87.5,79.7-137.9l0.9-2.6C938.6,648.4,934.9,634.4,924.8,625.7z M788.3,465.9
		c2.5,15.1,3.8,30.6,3.8,46.1c0,15.5-1.3,31-3.8,46.1l-6.6,40.1l74.7,63.9c-11.3,26.1-25.6,50.7-42.6,73.6l-92.8-32.9l-31.4,25.8
		c-23.9,19.6-50.5,35-79.3,45.8l-38.1,14.3l-17.9,97c-28.1,3.2-56.8,3.2-85,0l-17.9-97.2L413.6,774c-28.5-10.8-55-26.2-78.7-45.7
		l-31.4-25.9l-93.4,33.2c-17-22.9-31.2-47.6-42.6-73.6l75.5-64.5l-6.5-40c-2.4-14.9-3.7-30.3-3.7-45.5c0-15.3,1.2-30.6,3.7-45.5
		l6.5-40l-75.5-64.5c11.3-26.1,25.6-50.7,42.6-73.6l93.4,33.2l31.4-25.9c23.7-19.5,50.2-34.9,78.7-45.7l37.9-14.3l17.9-97.2
		c28.1-3.2,56.8-3.2,85,0l17.9,97l38.1,14.3c28.7,10.8,55.4,26.2,79.3,45.8l31.4,25.8l92.8-32.9c17,22.9,31.2,47.6,42.6,73.6
		l-74.7,63.9L788.3,465.9z"/>
	<path d="M512,326c-97.2,0-176,78.8-176,176s78.8,176,176,176s176-78.8,176-176S609.2,326,512,326z M591.2,581.2
		C570,602.3,541.9,614,512,614c-29.9,0-58-11.7-79.2-32.8C411.7,560,400,531.9,400,502c0-29.9,11.7-58,32.8-79.2
		C454,401.6,482.1,390,512,390c29.9,0,58,11.6,79.2,32.8C612.3,444,624,472.1,624,502C624,531.9,612.3,560,591.2,581.2z"/>
</g>
</svg>
