<?xml version="1.0" encoding="utf-8"?>
<!-- Generator: Adobe Illustrator 21.0.0, SVG Export Plug-In . SVG Version: 6.00 Build 0)  -->
<svg version="1.1" id="图层_1" xmlns="http://www.w3.org/2000/svg" xmlns:xlink="http://www.w3.org/1999/xlink" x="0px" y="0px"
	 viewBox="0 0 1024 1024" style="enable-background:new 0 0 1024 1024;" xml:space="preserve">
<style type="text/css">
	.st0{fill:none;}
</style>
<title>shake</title>
<desc>Created with Sketch.</desc>
<g>
	<path class="st0" d="M143.9,621L403,880.1l477.1-477.1l-259-259.2L143.9,621z M372,714c-26.5,0-48-21.5-48-48s21.5-48,48-48
		c26.5,0,48,21.5,48,48S398.5,714,372,714z"/>
	<circle cx="372" cy="666" r="48"/>
	<path d="M940.7,356.4L667.6,83.2C655.2,70.9,638.7,64,621.1,64s-34.1,6.8-46.5,19.2L83.3,574.5c-25.7,25.7-25.7,67.4,0,93.1
		l273.2,273.2c12.3,12.3,28.9,19.2,46.5,19.2s34.1-6.8,46.5-19.2l491.3-491.3C966.4,423.8,966.4,382,940.7,356.4z M403,880.1
		L143.9,621l477.2-477.2l259,259.2L403,880.1z"/>
	<path d="M152.8,373.7c3.1,3.1,8.1,3.1,11.2,0L373.7,164c3.1-3.1,3.1-8.1,0-11.2l-38.4-38.4c-3.1-3.1-8.1-3.1-11.2,0L114.3,323.9
		c-3.1,3.1-3.1,8.1,0,11.2L152.8,373.7z"/>
	<path d="M871.4,650.3c-3.1-3.1-8.1-3.1-11.2,0L650.3,860.1c-3.1,3.1-3.1,8.1,0,11.2l38.4,38.4c3.1,3.1,8.1,3.1,11.2,0L909.7,700
		c3.1-3.1,3.1-8.1,0-11.2L871.4,650.3z"/>
</g>
</svg>
