<?xml version="1.0" encoding="utf-8"?>
<svg id="shake" viewBox="0 0 1024 1024" version="1.1" xmlns="http://www.w3.org/2000/svg" xmlns:xlink="http://www.w3.org/1999/xlink">
  <path d="M760.00349 0H264.00349c-39.8 0-72 32.2-72 72v880c0 39.8 32.2 72 72 72h464c39.8 0 104-32.2 104-72V72c0-39.8-32.2-72-72-72zM542.00349 960h-60c-19.9 0-34-14.3-34-32s14.1-32 34-32h60c19.9 0 34 14.3 34 32s-14.1 32-34 32z m218-129H264.00349V127h496v704zM79.90349 26.1l-43.8 9.6c-25.3 16.1-40 46-35.2 77.6l127.2 831.8L53.20349 92c-2.1-25.9 8.5-49.8 26.7-65.9zM130.00349 10.4c-26.5 13.9-43.9 42.4-41.9 74.3l54 839.7V68c0-26.1 12.8-49 32.2-63.4L130.00349 10.4zM988.00349 35.7l-43.8-9.6c18.2 16 28.8 40 26.5 65.9l-74.9 853.2L1023.00349 113.4c5-31.7-9.7-61.4-35-77.7zM936.00349 84.5c1.9-31.9-15.3-60.4-41.9-74.3l-44.4-5.7C869.10349 19 881.90349 41.9 881.90349 68v856.5l54.1-840z"></path>
</svg>