<?xml version="1.0" encoding="utf-8"?>
<svg id="shopping-cart" viewBox="0 0 1024 1024" version="1.1" xmlns="http://www.w3.org/2000/svg" xmlns:xlink="http://www.w3.org/1999/xlink">
  <path d="M922.9 701.9 327.4 701.9l29.9-60.9 496.8-0.9c16.8 0 31.2-12 34.2-28.6l68.8-385.1c1.8-10.1-0.9-20.5-7.5-28.4-6.5-7.8-16.2-12.4-26.6-12.5L291 183.4l-5.4-25.4c-3.4-16.2-18-28-34.6-28L96.5 130c-19.4 0-35.3 15.8-35.3 35.3 0 19.5 15.8 35.3 35.3 35.3l125.9 0L246 312.8l58.1 281.3-74.8 122.1c-7.9 10.7-9.1 24.8-3 36.8 6 11.9 18.1 19.4 31.5 19.4l62.8 0c-13.3 17.6-20.6 39.3-20.6 61.7 0 56.6 46 102.6 102.6 102.6s102.6-46 102.6-102.6c0-22.3-7.4-44-20.6-61.7l161.1 0c-13.3 17.6-20.6 39.3-20.6 61.7 0 56.6 46 102.6 102.6 102.6s102.6-46 102.6-102.6c0-22.3-7.4-44-20.6-61.7l113.3 0c19.4 0 35.3-15.8 35.3-35.3C958.2 717.7 942.4 701.9 922.9 701.9zM305.7 253l575.8 1.9-56.4 315.8-452.3 0.8L305.7 253zM402.6 865.7c-17.4 0-31.6-14.2-31.6-31.6 0-17.4 14.2-31.6 31.6-31.6s31.6 14.2 31.6 31.6C434.2 851.6 420 865.7 402.6 865.7zM727.7 865.7c-17.4 0-31.6-14.2-31.6-31.6 0-17.4 14.2-31.6 31.6-31.6s31.6 14.2 31.6 31.6C759.3 851.6 745.1 865.7 727.7 865.7z"></path>
</svg>