<?xml version="1.0" encoding="utf-8"?>

<svg id="shop" viewBox="0 0 1024 1024">
  <path d="M860 604c-19.9 0-36 16.1-36 36v248H200V640c0-19.9-16.1-36-36-36s-36 16.1-36 36v248c0 39.8 32.2 72 72 72h624c39.8 0 72-32.2 72-72V640c0-19.9-16.1-36-36-36zM888 64H136c-39.8 0-72 32.2-72 72v203.5C64 435.3 141.7 513 237.5 513c56 0 105.8-26.5 137.5-67.7 31.7 41.2 81.5 67.7 137.5 67.7 55.7 0 105.3-26.2 137-67 31.7 40.8 81.3 67 137 67 95.8 0 173.5-77.7 173.5-173.5V136c0-39.8-32.2-72-72-72zM339 237.5v102c0 56.1-45.4 101.5-101.5 101.5S136 395.6 136 339.5V136h203v101.5zM512.5 441C456.4 441 411 395.6 411 339.5V136h202v203.5c0 3.8 0.1 7.6 0.4 11.4-5.7 50.7-48.7 90.1-100.9 90.1zM888 339.5c0 56.1-45.4 101.5-101.5 101.5S685 395.6 685 339.5V136h203v203.5z"></path>
</svg>