<?xml version="1.0" encoding="utf-8"?>

<svg id="skin" viewBox="0 0 1024 1024">
  <path d="M888 64H628.7c-0.9 3.7-2 7.4-3.2 11-16.2 47.1-60.9 81-113.5 81s-97.3-33.9-113.5-81c-1.2-3.6-2.3-7.3-3.2-11H136c-39.8 0-72 32.2-72 72v368c0 39.8 32.2 72 72 72h56v312c0 39.8 32.2 72 72 72h496c39.8 0 72-32.2 72-72V576h56c39.8 0 72-32.2 72-72V136c0-39.8-32.2-72-72-72z m0 440H759c0.6 0 1 0.5 1 1v382c0 0.6-0.5 1-1 1H265c-0.6 0-1-0.5-1-1V505c0-0.6 0.5-1 1-1H136V136h210.3c33.3 56.8 95.1 95 165.7 95s132.4-38.2 165.7-95H888v368z"></path>
</svg>