<?xml version="1.0" encoding="utf-8"?>
<!-- Generator: Adobe Illustrator 21.0.0, SVG Export Plug-In . SVG Version: 6.00 Build 0)  -->
<svg version="1.1" id="图层_1" xmlns="http://www.w3.org/2000/svg" xmlns:xlink="http://www.w3.org/1999/xlink" x="0px" y="0px"
	 viewBox="0 0 1024 1024" style="enable-background:new 0 0 1024 1024;" xml:space="preserve">
<style type="text/css">
	.st0{fill:none;}
</style>
<title>skin</title>
<desc>Created with Sketch.</desc>
<g>
	<path class="st0" d="M512,318c-79.2,0-148.5-48.8-176.7-120H182v196h119v432h422V394h119V198H688.7C660.5,269.2,591.2,318,512,318z
		"/>
	<path d="M870,126H663.8c-17.4,0-32.9,11.9-37,29.3C614.3,208.1,567,246,512,246s-102.3-37.9-114.8-90.7
		c-4.1-17.4-19.5-29.3-37-29.3H154c-24.3,0-44,19.7-44,44v252c0,24.3,19.7,44,44,44h75v388c0,24.3,19.7,44,44,44h478
		c24.3,0,44-19.7,44-44V466h75c24.3,0,44-19.7,44-44V170C914,145.7,894.3,126,870,126z M842,394H723v432H301V394H182V198h153.3
		c28.2,71.2,97.5,120,176.7,120s148.5-48.8,176.7-120H842V394z"/>
</g>
</svg>
