<?xml version="1.0" encoding="utf-8"?>

<svg id="skype" viewBox="0 0 1024 1024">
  <path d="M922.599 576.862a415.126 415.126 0 0 0 5.103-64.885c0-229.592-186.114-415.699-415.718-415.699-22.031 0-43.736 1.815-64.872 5.12C408.826 77.71 363.637 64 315.21 64 176.473 64 64 176.456 64 315.205c0 48.416 13.718 93.565 37.397 131.928-3.277 21.19-5.08 42.763-5.08 64.852 0 229.61 186.11 415.66 415.659 415.66 22.05 0 43.761-1.7 64.895-5.035C615.197 946.253 660.348 960 708.765 960 847.54 960 960 847.515 960 708.77c0.01-48.434-13.699-93.574-37.401-131.908z m-213.24 124.18c-17.586 25.316-43.42 45.1-77.176 59.325-33.824 14.264-73.802 21.36-119.97 21.36-55.333 0-101.146-9.682-137.308-29.234-25.633-14-46.482-32.782-62.51-56.203-16.06-23.439-24.204-46.393-24.204-68.774 0-13.203 5.035-24.685 14.836-34.047 9.904-9.43 22.66-14.157 37.714-14.157 12.333 0 22.926 3.714 31.55 11.074 8.56 7.358 15.74 18.055 21.613 32.17 7.039 16.352 14.684 30.022 22.819 40.93 8.085 10.771 19.463 19.764 34.2 26.803 14.573 7.057 33.97 10.586 58.24 10.586 33.217 0 60.06-7.184 80.605-21.358 20.648-14.303 30.566-31.705 30.566-52.732 0-16.772-5.347-30.091-16.313-40.476-11.066-10.52-25.356-18.531-43.09-24.12-17.803-5.648-41.706-11.637-71.66-17.946-40.221-8.779-73.86-18.996-101.102-30.73-27.277-11.779-49-27.88-65.101-48.217-16.135-20.537-24.18-46.064-24.18-76.299 0-28.83 8.493-54.613 25.496-77.052 16.995-22.502 41.582-39.726 73.642-51.722 31.948-11.993 69.56-17.992 112.648-17.992 34.458 0 64.264 3.987 89.493 11.92 25.16 7.99 46.134 18.535 62.904 31.767 16.663 13.203 28.925 27.129 36.69 41.742 7.76 14.657 11.668 28.972 11.668 42.941 0 12.989-5.035 24.769-14.846 35.093-9.81 10.338-22.359 15.609-37.014 15.56-13.212 0-23.575-3.047-30.762-9.498-7-6.241-14.351-16.178-22.303-30.027-10.051-19.323-22.09-34.378-36.089-45.145-13.63-10.568-36.118-16.07-67.41-16.003-28.951 0-52.116 5.916-69.6 17.486-17.592 11.755-26.002 25.393-26.042 41.373 0.03 10.014 2.908 18.457 8.702 25.677 5.883 7.286 14.067 13.6 24.587 18.923 10.525 5.406 21.23 9.586 31.987 12.594 10.885 3.086 28.944 7.546 54.046 13.451 31.481 6.785 60.035 14.365 85.694 22.627 25.608 8.304 47.463 18.317 65.518 30.247 18.198 11.895 32.422 27.06 42.576 45.377 10.226 18.346 15.32 40.754 15.32 67.123 0.039 31.75-8.806 60.306-26.434 85.583z"></path>
</svg>