<?xml version="1.0" encoding="utf-8"?>
<!-- Generator: Adobe Illustrator 21.0.0, SVG Export Plug-In . SVG Version: 6.00 Build 0)  -->
<svg version="1.1" id="图层_1" xmlns="http://www.w3.org/2000/svg" xmlns:xlink="http://www.w3.org/1999/xlink" x="0px" y="0px"
	 viewBox="0 0 1024 1024" style="enable-background:new 0 0 1024 1024;" xml:space="preserve">
<style type="text/css">
	.st0{fill:none;}
</style>
<title>skype</title>
<desc>Created with Sketch.</desc>
<g>
	<path class="st0" d="M808.2,591.1l4.7-25.5c3.4-18.4,5.1-37.1,5.1-55.5c0-41.4-8.1-81.3-24-119c-15.4-36.5-37.4-69.1-65.6-97.2
		c-28.1-28.1-60.7-50.1-97.2-65.5c-37.7-15.9-77.6-24-119-24c-19.6,0-39.1,1.8-58,5.5l-24.8,4.8l-22.4-11.8
		c-22.2-11.7-46.8-17.9-71.4-17.9c-40.6,0-78.5,15.7-107.2,44.4C199.7,258.2,184,296,184,336.6c0,25.6,6.6,51,19.1,73.4l12.4,22.3
		l-4.4,25.1c-3.1,17.6-4.6,35.3-4.6,52.8c0,41.4,8.1,81.3,24,119c15.4,36.4,37.4,69,65.5,97.1c28.2,28.2,60.8,50.2,97.2,65.5
		c37.8,16,77.7,24.1,119.1,24.1c17.7,0,35.8-1.6,53.6-4.8l25.5-4.5l22.5,12.7c22.8,12.9,48.4,19.7,74.6,19.7
		c40.7,0,78.5-15.7,107.2-44.4c28.7-28.7,44.4-66.5,44.4-107.2c0-25.7-6.6-51.2-19.2-73.7L808.2,591.1z M513.7,741.5
		c-134.2,0-194.2-66-194.2-115.4c0-25.4,18.7-43.1,44.5-43.1c57.4,0,42.6,82.5,149.7,82.5c54.9,0,85.2-29.8,85.2-60.3
		c0-18.3-9-38.7-45.2-47.6l-119.4-29.8c-96.1-24.1-113.6-76.1-113.6-124.9c0-101.4,95.5-139.5,185.2-139.5
		c82.6,0,180,45.7,180,106.5c0,26.1-22.6,41.2-48.4,41.2c-49,0-40-67.8-138.7-67.8c-49,0-76.1,22.2-76.1,53.9
		c0,31.7,38.7,41.8,72.3,49.5l88.4,19.6c96.8,21.6,121.3,78.1,121.3,131.3C704.7,679.9,641.4,741.5,513.7,741.5z"/>
	<path d="M883.7,578.6c4.1-22.5,6.3-45.5,6.3-68.5c0-51-10-100.5-29.7-147c-19-45-46.3-85.4-81-120.1
		c-34.7-34.7-75.1-61.9-120.1-80.9c-46.6-19.7-96-29.7-147-29.7c-24,0-48.1,2.3-71.5,6.8c-32.3-17.1-68.5-26.2-105.1-26.2
		c-59.7,0-115.9,23.3-158.1,65.5c-42.2,42.2-65.5,98.4-65.5,158.1c0,38,9.8,75.4,28.1,108.4c-3.7,21.4-5.7,43.3-5.7,65.1
		c0,51,10,100.5,29.7,147c19,45,46.2,85.4,80.9,120.1c34.7,34.7,75.1,61.9,120.1,80.9c46.6,19.7,96,29.7,147,29.7
		c22.2,0,44.4-2,66.2-5.9c33.5,18.9,71.3,29,110,29c59.7,0,115.9-23.2,158.1-65.5c42.3-42.2,65.5-98.4,65.5-158.1
		C912,649.3,902.2,611.8,883.7,578.6z M795.6,794.6c-28.7,28.8-66.6,44.4-107.2,44.4c-26.1,0-51.8-6.8-74.6-19.7l-22.5-12.7
		l-25.5,4.5c-17.8,3.2-35.8,4.8-53.6,4.8c-41.4,0-81.3-8.1-119.1-24.1c-36.3-15.3-69-37.3-97.2-65.5c-28.1-28.1-50.1-60.7-65.5-97.1
		c-16-37.7-24-77.6-24-119c0-17.4,1.6-35.2,4.6-52.8l4.4-25.1l-12.4-22.3c-12.5-22.4-19.1-47.8-19.1-73.4
		c0-40.6,15.7-78.5,44.4-107.2C257.1,200.7,295,185,335.6,185c24.7,0,49.3,6.2,71.4,17.9l22.4,11.8l24.8-4.8
		c18.9-3.6,38.4-5.5,58-5.5c41.4,0,81.3,8.1,119,24c36.5,15.4,69.1,37.4,97.2,65.5c28.2,28.1,50.2,60.8,65.6,97.2
		c16,37.7,24,77.6,24,119c0,18.4-1.7,37-5.1,55.5l-4.7,25.5l12.6,22.6c12.6,22.5,19.2,48,19.2,73.7
		C840,728.1,824.3,765.9,795.6,794.6z"/>
	<path d="M583.4,466.2L495,446.6c-33.6-7.7-72.3-17.8-72.3-49.5c0-31.7,27.1-53.9,76.1-53.9c98.7,0,89.7,67.8,138.7,67.8
		c25.8,0,48.4-15.2,48.4-41.2c0-60.8-97.4-106.5-180-106.5c-89.7,0-185.2,38.1-185.2,139.5c0,48.8,17.4,100.8,113.6,124.9
		l119.4,29.8c36.1,8.9,45.2,29.2,45.2,47.6c0,30.5-30.3,60.3-85.2,60.3c-107.2,0-92.3-82.5-149.7-82.5c-25.8,0-44.5,17.8-44.5,43.1
		c0,49.4,60,115.4,194.2,115.4c127.7,0,191-61.5,191-144C704.7,544.3,680.2,487.8,583.4,466.2z"/>
</g>
</svg>
