<?xml version="1.0" encoding="utf-8"?>
<svg id="slack" viewBox="0 0 1024 1024" version="1.1" xmlns="http://www.w3.org/2000/svg" xmlns:xlink="http://www.w3.org/1999/xlink">
  <path d="M881.466 481.818c22.212 0 40.776 7.259 55.692 21.776 14.915 14.518 22.35 32.734 22.304 54.648 0 34.824-16.682 58.162-50.047 70.015l-92.521 31.77 30.152 89.93c2.524 7.535 3.786 15.965 3.786 25.291 0 21.18-7.527 39.487-22.58 54.924-15.053 15.436-33.158 23.154-54.315 23.154-16.843 0-32.171-4.847-45.985-14.54-13.814-9.694-23.406-22.627-28.775-38.798l-29.602-88.829-166.73 57.06 29.6 88.277c2.846 8.591 4.269 17.022 4.269 25.291 0 21.18-7.527 39.487-22.58 54.924-15.053 15.436-33.342 23.154-54.866 23.154-16.843 0-32.08-4.846-45.71-14.54-13.63-9.694-23.13-22.627-28.5-38.798l-29.601-87.726-82.264 28.53c-10.418 3.216-19.39 4.824-26.917 4.824-21.891 0-40.088-7.167-54.59-21.5-14.503-14.335-21.754-32.459-21.754-54.373 0-16.86 4.934-32.113 14.8-45.758 9.868-13.645 22.695-23.155 38.483-28.53l83.916-28.53-56.449-168.491-83.916 29.08c-9.317 2.85-17.922 4.273-25.816 4.273-21.524 0-39.629-7.259-54.315-21.776C71.95 502.032 64.607 484 64.607 462.453c0-16.86 4.933-32.113 14.8-45.758 9.867-13.644 22.695-23.154 38.482-28.53l84.467-28.53-28.5-85.589c-2.845-8.591-4.268-17.021-4.268-25.291 0-21.547 7.527-39.946 22.58-55.2 15.053-15.252 33.341-22.878 54.865-22.878 16.843 0 32.08 4.847 45.71 14.54 13.63 9.694 23.13 22.627 28.5 38.798l29.05 86.141 166.732-56.508-29.05-86.141c-2.846-8.591-4.268-17.022-4.268-25.291 0-21.18 7.618-39.487 22.855-54.924 15.236-15.436 33.433-23.154 54.59-23.154 16.843 0 32.171 4.939 45.985 14.816 13.814 9.878 23.406 22.718 28.776 38.522l28.5 86.692 87.151-29.632a83.466 83.466 0 0 1 23.13-3.239c21.525 0 39.905 7.098 55.142 21.294 15.236 14.196 22.855 31.884 22.855 53.063 0 16.171-5.37 30.804-16.109 43.897-10.739 13.094-24.002 22.328-39.79 27.703l-84.467 29.081 56.45 170.146 88.184-30.184c8.582-2.848 16.82-4.272 24.714-4.272l-0.207-0.207zM454.449 622.813l166.732-56.508-56.45-169.594-166.73 57.61 56.448 168.492z"></path>
</svg>