<?xml version="1.0" encoding="utf-8"?>
<!-- Generator: Adobe Illustrator 21.0.0, SVG Export Plug-In . SVG Version: 6.00 Build 0)  -->
<svg version="1.1" id="图层_1" xmlns="http://www.w3.org/2000/svg" xmlns:xlink="http://www.w3.org/1999/xlink" x="0px" y="0px"
	 viewBox="0 0 1024 1024" style="enable-background:new 0 0 1024 1024;" xml:space="preserve">
<style type="text/css">
	.st0{fill:none;}
</style>
<title>slack-square-fill</title>
<desc>Created with Sketch.</desc>
<g>
	<path class="st0" d="M715.3,502L665,518.3L632.1,417l50.4-16.4c23.6-7.7,36.6-33.1,28.9-56.7c-7.7-23.6-33.1-36.6-56.7-28.9
		l-50.3,16.3l-16.5-50.6c-7.7-23.6-33.1-36.6-56.7-28.9s-36.6,33.1-28.9,56.7l16.5,50.6L417.5,392L401,341.4
		c-7.7-23.6-33.1-36.6-56.7-28.9c-23.6,7.7-36.6,33.1-28.9,56.7l16.5,50.6l-51,16.6c-23.6,7.7-36.6,33.1-28.9,56.7
		c7.7,23.6,33.1,36.6,56.7,28.9l51-16.6l32.9,101.3l-51,16.6C318,631,305,656.4,312.7,680s33.1,36.6,56.7,28.9l51-16.6l16.5,50.6
		c7.7,23.6,33.1,36.6,56.7,28.9c23.6-7.7,36.6-33.1,28.9-56.7L506,664.5l101.2-32.9l16.5,50.6c7.7,23.6,33.1,36.6,56.7,28.9
		c23.6-7.7,36.6-33.1,28.9-56.7l-16.5-50.6l50.3-16.3c23.6-7.7,36.6-33,28.9-56.6C764.3,507.3,738.9,494.3,715.3,502z M478.2,579
		l-32.9-101.3l101.3-32.9l32.9,101.3L478.2,579z"/>
	<path d="M893.1,397.6c-85.8-286-209.5-352.5-495.5-266.7S45.1,340.4,130.9,626.4s209.5,352.5,495.5,266.7S978.9,683.6,893.1,397.6z
		 M743.1,587.5l-50.3,16.3l16.5,50.6c7.7,23.6-5.3,49-28.9,56.7c-23.6,7.7-49-5.3-56.7-28.9l-16.5-50.6L506,664.5l16.5,50.6
		c7.7,23.6-5.3,49-28.9,56.7c-23.6,7.7-49-5.3-56.7-28.9l-16.5-50.6l-51,16.6c-23.6,7.7-49-5.3-56.7-28.9s5.3-49,28.9-56.7l51-16.6
		l-32.9-101.3l-51,16.6c-23.6,7.7-49-5.3-56.7-28.9c-7.7-23.6,5.3-49,28.9-56.7l51-16.6l-16.5-50.6c-7.7-23.6,5.3-49,28.9-56.7
		c23.6-7.7,49,5.3,56.7,28.9l16.5,50.6l101.3-32.9l-16.5-50.6c-7.7-23.6,5.3-49,28.9-56.7s49,5.3,56.7,28.9l16.5,50.6l50.3-16.3
		c23.6-7.7,49,5.3,56.7,28.9c7.7,23.6-5.3,49-28.9,56.7L632.1,417L665,518.3l50.3-16.3c23.6-7.7,49,5.3,56.7,28.9
		C779.7,554.5,766.7,579.8,743.1,587.5z"/>
	<rect x="459.1" y="458.6" transform="matrix(0.9511 -0.309 0.309 0.9511 -133.095 183.3603)" width="106.5" height="106.5"/>
</g>
</svg>
