<?xml version="1.0" encoding="utf-8"?>
<svg id="slack-square" viewBox="0 0 1024 1024" version="1.1" xmlns="http://www.w3.org/2000/svg" xmlns:xlink="http://www.w3.org/1999/xlink">
  <path d="M432.766 474.397l119.97-39.84 38.498 115.046-119.97 39.84-38.498-115.046z m333.947 114.151c24.173-8.058 36.26-34.469 29.097-58.642-8.057-24.173-34.469-37.603-58.642-29.097l-58.194 19.249-38.498-115.046 58.194-19.697c24.173-7.61 37.155-34.47 29.097-58.642-8.057-24.173-34.469-38.498-59.09-29.097l-57.746 19.248-20.145-59.985c-8.057-24.173-34.021-37.602-58.642-29.097-24.173 8.058-37.155 34.47-29.097 58.642l20.144 59.985-119.97 39.841-20.144-59.985c-8.058-24.173-34.022-38.05-58.642-29.097-24.174 8.058-36.26 34.469-29.098 58.194l20.145 60.433-58.195 19.697c-24.173 8.058-36.26 34.469-29.097 58.642 6.267 17.906 23.725 31.336 42.527 31.783l16.115-2.686 58.194-19.249 38.498 115.046-58.194 19.697c-24.173 7.61-37.155 34.47-29.097 58.642 6.267 18.802 23.725 31.336 42.526 31.783l16.563-2.686 57.747-19.248 20.145 59.985a45.861 45.861 0 0 0 42.526 31.783l16.116-2.686c24.173-8.058 37.155-34.021 29.097-58.642l-20.144-59.985 119.97-39.841 20.144 59.985c5.372 18.801 23.726 30.888 42.527 31.335l16.115-2.238c24.174-8.058 36.26-34.469 29.098-58.194l-20.145-60.433 58.195-19.697z m155.782-199.652c92.216 307.536 20.145 440.936-287.391 533.6-307.536 92.215-440.936 20.144-533.6-287.392C9.29 327.568 81.36 194.168 388.897 101.504 696.432 9.29 829.832 81.36 922.496 388.897z"></path>
</svg>