<?xml version="1.0" encoding="utf-8"?>
<!-- Generator: Adobe Illustrator 21.0.0, SVG Export Plug-In . SVG Version: 6.00 Build 0)  -->
<svg version="1.1" id="图层_1" xmlns="http://www.w3.org/2000/svg" xmlns:xlink="http://www.w3.org/1999/xlink" x="0px" y="0px"
	 viewBox="0 0 1024 1024" style="enable-background:new 0 0 1024 1024;" xml:space="preserve">
<title>sliders-fill</title>
<desc>Created with Sketch.</desc>
<g>
	<path d="M904,296h-66v-96c0-4.4-3.6-8-8-8h-52c-4.4,0-8,3.6-8,8v96h-66c-4.4,0-8,3.6-8,8v416c0,4.4,3.6,8,8,8h66v96
		c0,4.4,3.6,8,8,8h52c4.4,0,8-3.6,8-8v-96h66c4.4,0,8-3.6,8-8V304C912,299.6,908.4,296,904,296z"/>
	<path d="M320,224h-66v-56c0-4.4-3.6-8-8-8h-52c-4.4,0-8,3.6-8,8v56h-66c-4.4,0-8,3.6-8,8v560c0,4.4,3.6,8,8,8h66v56
		c0,4.4,3.6,8,8,8h52c4.4,0,8-3.6,8-8v-56h66c4.4,0,8-3.6,8-8V232C328,227.6,324.4,224,320,224z"/>
	<path d="M612,404h-66V232c0-4.4-3.6-8-8-8h-52c-4.4,0-8,3.6-8,8v172h-66c-4.4,0-8,3.6-8,8v200c0,4.4,3.6,8,8,8h66v172
		c0,4.4,3.6,8,8,8h52c4.4,0,8-3.6,8-8V620h66c4.4,0,8-3.6,8-8V412C620,407.6,616.4,404,612,404z"/>
</g>
</svg>
