<?xml version="1.0" encoding="utf-8"?>

<svg id="smile-circle" viewBox="0 0 1024 1024">
  <path d="M512 0C229.2 0 0 229.2 0 512s229.2 512 512 512 512-229.2 512-512S794.8 0 512 0zM254.2 442.4c-33.1 0-60-26.9-60-60s26.9-60 60-60 60 26.9 60 60S287.3 442.4 254.2 442.4zM512 765.5c-90.6 0-164.3-73.7-164.3-164.3 0-19.9 16.1-36 36-36s36 16.1 36 36c0 50.9 41.4 92.3 92.3 92.3s92.3-41.4 92.3-92.3c0-19.9 16.1-36 36-36s36 16.1 36 36C676.3 691.8 602.6 765.5 512 765.5zM769.5 442.4c-33.1 0-60-26.9-60-60s26.9-60 60-60 60 26.9 60 60S802.6 442.4 769.5 442.4z"></path>
</svg>