<?xml version="1.0" encoding="utf-8"?>

<svg id="solution" viewBox="0 0 1024 1024">
  <path d="M958.8 916.8c-12.6-66.6-58.5-119.9-118.4-144.1 35.6-23.7 59.1-64.1 59.1-110 0-72.8-59.2-132-132-132s-132 59.2-132 132c0 45.8 23.5 86.3 59.1 110-59.9 24.2-105.8 77.6-118.4 144.1-3.7 19.5 9.1 38.4 28.7 42.1 19.5 3.7 38.4-9.1 42.1-28.7 11-57.8 61.7-99.7 120.6-99.7 58.9 0 109.7 41.9 120.6 99.7 3.3 17.3 18.4 29.3 35.3 29.3 2.2 0 4.5-0.2 6.7-0.6 19.5-3.8 32.3-22.6 28.6-42.1zM767.5 602.7c33.1 0 60 26.9 60 60s-26.9 60-60 60-60-26.9-60-60 26.9-60 60-60z"></path>
  <path d="M888.5 64h-753c-39.7 0-72 32.3-72 72v752c0 39.7 32.3 72 72 72h277c19.9 0 36-16.1 36-36s-16.1-36-36-36h-277V136h753v340c0 19.9 16.1 36 36 36s36-16.1 36-36V136c0-39.7-32.3-72-72-72z"></path>
  <path d="M228.5 328h312c19.9 0 36-16.1 36-36s-16.1-36-36-36h-312c-19.9 0-36 16.1-36 36s16.1 36 36 36zM412.5 448h-184c-19.9 0-36 16.1-36 36s16.1 36 36 36h184c19.9 0 36-16.1 36-36s-16.1-36-36-36zM412.5 640h-184c-19.9 0-36 16.1-36 36s16.1 36 36 36h184c19.9 0 36-16.1 36-36s-16.1-36-36-36z"></path>
</svg>