<?xml version="1.0" encoding="utf-8"?>
<!-- Generator: Adobe Illustrator 21.0.0, SVG Export Plug-In . SVG Version: 6.00 Build 0)  -->
<svg version="1.1" id="图层_1" xmlns="http://www.w3.org/2000/svg" xmlns:xlink="http://www.w3.org/1999/xlink" x="0px" y="0px"
	 viewBox="0 0 1024 1024" style="enable-background:new 0 0 1024 1024;" xml:space="preserve">
<title>sound-fill</title>
<desc>Created with Sketch.</desc>
<g>
	<path d="M892.1,737.8l-110.3-63.7c-2.5-1.4-5.2-2.1-7.9-2.1c-5.5,0-10.9,2.9-13.8,8l-19.9,34.5c-4.4,7.6-1.8,17.4,5.8,21.8
		l110.3,63.7c2.5,1.4,5.2,2.1,7.9,2.1c5.5,0,10.9-2.9,13.8-8l19.9-34.5C902.3,752,899.6,742.2,892.1,737.8z"/>
	<path d="M760,344c2.9,5.1,8.3,8,13.8,8c2.7,0,5.4-0.7,7.9-2.1l110.3-63.7c7.6-4.4,10.2-14.2,5.8-21.8L878,230
		c-2.9-5.1-8.3-8-13.8-8c-2.7,0-5.4,0.7-7.9,2.1l-110.3,63.7c-7.6,4.4-10.2,14.2-5.8,21.8L760,344z"/>
	<path d="M934,476H806c-8.8,0-16,7.2-16,16v40c0,8.8,7.2,16,16,16h128c8.8,0,16-7.2,16-16v-40C950,483.2,942.8,476,934,476z"/>
	<path d="M625.9,115c-5.9,0-11.9,1.6-17.4,5.3L254,352H90c-8.8,0-16,7.2-16,16V656c0,8.8,7.2,16,16,16h164l354.5,231.7
		c5.5,3.6,11.6,5.3,17.4,5.3c16.7,0,32.1-13.3,32.1-32.1V147.1C658,128.3,642.6,115,625.9,115z"/>
</g>
</svg>
