<?xml version="1.0" encoding="utf-8"?>

<svg id="star-o" viewBox="0 0 1024 1024">
  <path d="M512 136.1c5.3 0 10.7 2.8 13.4 8.5l104.5 222.7c2.1 4.5 6.3 7.6 11.1 8.3l234.9 35.9c11.9 1.8 16.7 16.3 8.3 24.9L713.4 611.5c-3.3 3.4-4.8 8.1-4 12.7l40.2 246.6c1.6 9.5-6 17.2-14.6 17.2-2.4 0-4.8-0.6-7.1-1.9L519.1 770.7c-2.2-1.2-4.7-1.8-7.1-1.8s-4.9 0.6-7.1 1.8L296.1 886.1c-2.3 1.3-4.8 1.9-7.1 1.9-8.5 0-16.1-7.6-14.6-17.2l40.2-246.6c0.8-4.6-0.7-9.3-4-12.7L139.7 436.4c-8.4-8.6-3.5-23.1 8.3-24.9L383 375.6c4.9-0.7 9-3.9 11.1-8.3l104.5-222.7C501.3 138.9 506.7 136.1 512 136.1M512 64.1c-15.9 0-31.4 4.3-44.9 12.5-14.7 8.9-26.3 21.8-33.6 37.4L341.9 309l-204.7 31.3c-32.3 4.9-58.8 27.2-69.2 58.2-10.4 31-2.6 64.7 20.2 88.1l150.7 154.5-35.6 218c-4.1 25.2 3 50.7 19.5 70.1 16.6 19.5 40.7 30.7 66.2 30.7 14.6 0 29.1-3.8 42-10.9L512 849l181 100.1c12.9 7.1 27.4 10.9 42 10.9 25.5 0 49.6-11.2 66.2-30.7 16.5-19.4 23.6-44.9 19.5-70.1l-35.6-218 150.7-154.5c22.8-23.4 30.5-57.1 20.2-88.1-10.4-31-36.9-53.3-69.2-58.2L682.1 309 590.5 114c-7.3-15.6-18.9-28.5-33.6-37.4C543.4 68.4 527.9 64.1 512 64.1L512 64.1z"></path>
</svg>