<?xml version="1.0" encoding="utf-8"?>
<!-- Generator: Adobe Illustrator 21.0.0, SVG Export Plug-In . SVG Version: 6.00 Build 0)  -->
<svg version="1.1" id="图层_1" xmlns="http://www.w3.org/2000/svg" xmlns:xlink="http://www.w3.org/1999/xlink" x="0px" y="0px"
	 viewBox="0 0 1024 1024" style="enable-background:new 0 0 1024 1024;" xml:space="preserve">
<title>stock</title>
<desc>Created with Sketch.</desc>
<g>
	<path d="M904,747H120c-4.4,0-8,3.6-8,8v56c0,4.4,3.6,8,8,8h784c4.4,0,8-3.6,8-8v-56C912,750.6,908.4,747,904,747z"/>
	<path d="M165.7,621.8l39.7,39.5c3.1,3.1,8.2,3.1,11.3,0l234.7-233.9l97.6,97.3c12.5,12.4,32.7,12.4,45.2,0l264.2-263.2
		c3.1-3.1,3.1-8.2,0-11.3c0,0,0,0,0,0l-39.7-39.6c-3.1-3.1-8.2-3.1-11.3,0l-235.7,235L474,348.3c-12.5-12.4-32.7-12.4-45.2,0
		L165.7,610.5C162.6,613.6,162.5,618.7,165.7,621.8C165.7,621.8,165.7,621.8,165.7,621.8z"/>
</g>
</svg>
