<?xml version="1.0" encoding="utf-8"?>
<svg id="swap-right" viewBox="0 0 1024 1024" version="1.1" xmlns="http://www.w3.org/2000/svg" xmlns:xlink="http://www.w3.org/1999/xlink">
  <path d="M830.1 575.6c0.3 0 0.6 0 0.9-0.1 0.4 0 0.7-0.1 1.1-0.1 0.2 0 0.5-0.1 0.7-0.1 0.4-0.1 0.8-0.1 1.1-0.2 0.2 0 0.4-0.1 0.6-0.1 0.4-0.1 0.8-0.2 1.1-0.3 0.2 0 0.4-0.1 0.6-0.1 0.4-0.1 0.7-0.2 1.1-0.3 0.2-0.1 0.4-0.1 0.6-0.2 0.3-0.1 0.7-0.2 1-0.3 0.2-0.1 0.5-0.2 0.7-0.2 0.3-0.1 0.6-0.2 0.9-0.3 0.3-0.1 0.5-0.2 0.8-0.3 0.3-0.1 0.5-0.2 0.8-0.3 0.3-0.1 0.6-0.3 0.9-0.4 0.2-0.1 0.4-0.2 0.7-0.3 0.3-0.2 0.6-0.3 0.9-0.5 0.2-0.1 0.4-0.2 0.6-0.3 0.3-0.2 0.7-0.4 1-0.6 0.2-0.1 0.3-0.2 0.5-0.3 0.3-0.2 0.7-0.4 1-0.6 0.2-0.1 0.3-0.2 0.5-0.3 0.3-0.2 0.6-0.4 0.9-0.7 0.2-0.1 0.4-0.3 0.5-0.4 0.3-0.2 0.6-0.4 0.8-0.7 0.2-0.2 0.5-0.4 0.7-0.6 0.2-0.2 0.4-0.4 0.6-0.5 0.9-0.8 1.7-1.6 2.5-2.5 0.2-0.2 0.4-0.4 0.5-0.6 0.2-0.2 0.4-0.5 0.6-0.7 0.2-0.3 0.4-0.6 0.7-0.8 0.1-0.2 0.3-0.4 0.4-0.5 0.2-0.3 0.4-0.6 0.7-0.9 0.1-0.2 0.2-0.3 0.3-0.5 0.2-0.3 0.4-0.7 0.6-1 0.1-0.2 0.2-0.3 0.3-0.5 0.2-0.3 0.4-0.7 0.6-1 0.1-0.2 0.2-0.4 0.3-0.6 0.2-0.3 0.3-0.6 0.5-0.9 0.1-0.2 0.2-0.4 0.3-0.6 0.1-0.3 0.3-0.6 0.4-0.9 0.1-0.3 0.2-0.5 0.3-0.8 0.1-0.3 0.2-0.5 0.3-0.8 0.1-0.3 0.2-0.6 0.3-0.9 0.1-0.2 0.2-0.5 0.2-0.7 0.1-0.3 0.2-0.7 0.3-1 0.1-0.2 0.1-0.4 0.2-0.6 0.1-0.4 0.2-0.7 0.3-1.1 0-0.2 0.1-0.4 0.1-0.6 0.1-0.4 0.2-0.8 0.2-1.1 0-0.2 0.1-0.4 0.1-0.6 0.1-0.4 0.1-0.8 0.2-1.1 0-0.2 0.1-0.5 0.1-0.7 0-0.4 0.1-0.7 0.1-1.1 0-0.3 0-0.6 0.1-0.9 0-0.3 0-0.6 0.1-0.8 0.1-1.2 0.1-2.4 0-3.6 0-0.3 0-0.6-0.1-0.8 0-0.3 0-0.6-0.1-0.9 0-0.4-0.1-0.7-0.1-1.1 0-0.2-0.1-0.5-0.1-0.7-0.1-0.4-0.1-0.8-0.2-1.1 0-0.2-0.1-0.4-0.1-0.6-0.1-0.4-0.2-0.8-0.2-1.1 0-0.2-0.1-0.4-0.1-0.6-0.1-0.4-0.2-0.7-0.3-1.1-0.1-0.2-0.1-0.4-0.2-0.6-0.1-0.3-0.2-0.7-0.3-1-0.1-0.2-0.2-0.5-0.2-0.7-0.1-0.3-0.2-0.6-0.3-0.9-0.1-0.3-0.2-0.5-0.3-0.8-0.1-0.3-0.2-0.5-0.3-0.8-0.1-0.3-0.3-0.6-0.4-0.9-0.1-0.2-0.2-0.4-0.3-0.6-0.2-0.3-0.3-0.6-0.5-0.9-0.1-0.2-0.2-0.4-0.3-0.6-0.2-0.3-0.4-0.7-0.6-1-0.1-0.2-0.2-0.3-0.3-0.5-0.2-0.3-0.4-0.7-0.6-1-0.1-0.2-0.2-0.3-0.3-0.5-0.2-0.3-0.4-0.6-0.7-0.9-0.1-0.2-0.3-0.4-0.4-0.5-0.2-0.3-0.4-0.6-0.7-0.8-0.2-0.2-0.4-0.5-0.6-0.7-0.2-0.2-0.4-0.4-0.6-0.6-0.4-0.4-0.8-0.9-1.2-1.3L675.5 336.8c-14.1-14.1-36.9-14.1-50.9 0l0 0c-14.1 14.1-14.1 36.9 0 50.9l116 116L196.5 503.7c-19.9 0-36 16.1-36 36l0 0c0 19.9 16.1 36 36 36l631 0c0 0 0 0 0 0 0.6 0 1.2 0 1.8 0C829.6 575.7 829.9 575.6 830.1 575.6z"></path>
</svg>