<?xml version="1.0" encoding="utf-8"?>

<svg id="switcher" viewBox="0 0 1024 1024">
  <path d="M572 604H196c-19.9 0-36 16.1-36 36s16.1 36 36 36h376c19.9 0 36-16.1 36-36s-16.1-36-36-36z"></path>
  <path d="M696 328v624H72V328h624m0-72H72c-39.8 0-72 32.2-72 72v624c0 39.8 32.2 72 72 72h624c39.8 0 72-32.2 72-72V328c0-39.8-32.2-72-72-72z"></path>
  <path d="M952 0H359.7c-19.9 0-36 16.1-36 36s16.1 36 36 36H952v596c0 19.9 16.1 36 36 36s36-16.1 36-36V72c0-39.8-32.2-72-72-72z"></path>
  <path d="M824 128H164c-19.9 0-36 16.1-36 36s16.1 36 36 36h660v660c0 19.9 16.1 36 36 36s36-16.1 36-36V200c0-39.8-32.2-72-72-72z"></path>
</svg>