<?xml version="1.0" encoding="utf-8"?>
<svg id="sync" viewBox="0 0 1024 1024" version="1.1" xmlns="http://www.w3.org/2000/svg" xmlns:xlink="http://www.w3.org/1999/xlink">
  <path d="M989.3 512.1c-19.8-1.5-37.1 13.4-38.6 33.2-8.3 110.4-57.6 212.9-138.8 288.6C730.2 910.1 623.7 952 512 952c-87 0-171.1-25.3-243.2-73.3C205.4 836.6 154.3 779.3 120 712h100c19.9 0 36-16.1 36-36s-16.1-36-36-36H36c-19.9 0-36 16.1-36 36v184c0 19.9 16.1 36 36 36s36-16.1 36-36v-86c39.1 65.7 92.6 121.9 156.9 164.7 84 55.8 181.8 85.3 283.1 85.3 130 0 254-48.8 349-137.4 94.6-88.1 151.9-207.4 161.5-335.9 1.5-19.8-13.3-37.1-33.2-38.6zM988 128c-19.9 0-36 16.1-36 36v86c-39.1-65.7-92.6-121.9-157-164.7C711.1 29.5 613.2 0 512 0 382 0 258 48.8 163 137.4 68.4 225.5 11.1 344.8 1.4 473.3c-1.5 19.8 13.4 37.1 33.2 38.6 0.9 0.1 1.8 0.1 2.7 0.1 18.7 0 34.4-14.4 35.9-33.3 8.3-110.4 57.6-212.9 138.8-288.6C293.8 113.9 400.3 72 512 72c87 0 171.1 25.3 243.2 73.3C818.6 187.4 869.7 244.7 904 312H804c-19.9 0-36 16.1-36 36s16.1 36 36 36h184c19.9 0 36-16.1 36-36V164c0-19.9-16.1-36-36-36z"></path>
</svg>