<?xml version="1.0" encoding="utf-8"?>
<!-- Generator: Adobe Illustrator 21.0.0, SVG Export Plug-In . SVG Version: 6.00 Build 0)  -->
<svg version="1.1" id="图层_1" xmlns="http://www.w3.org/2000/svg" xmlns:xlink="http://www.w3.org/1999/xlink" x="0px" y="0px"
	 viewBox="0 0 1024 1024" style="enable-background:new 0 0 1024 1024;" xml:space="preserve">
<style type="text/css">
	.st0{fill:none;}
</style>
<title>tag</title>
<desc>Created with Sketch.</desc>
<g>
	<path class="st0" d="M680,312c-17.7,0-32,14.3-32,32s14.3,32,32,32s32-14.3,32-32S697.7,312,680,312z"/>
	<path class="st0" d="M589,164.6L189.3,564.3l270.4,270.4L859.4,435L836,188L589,164.6z M680,432c-48.5,0-88-39.5-88-88
		s39.5-88,88-88s88,39.5,88,88S728.5,432,680,432z"/>
	<path d="M938,458.8l-29.6-312.6c-1.5-16.2-14.4-29-30.6-30.6L565.2,86H565c-0.1,0-0.1,0-0.2,0c-3.2,0-5.7,1-7.6,2.9L88.9,557.2
		c-3.9,3.9-3.9,10.2,0,14.1l363.8,363.8c1.9,1.9,4.4,2.9,7.1,2.9s5.2-1,7.1-2.9l468.3-468.3C937.2,464.7,938.2,461.8,938,458.8z
		 M459.7,834.7L189.3,564.3L589,164.6L836,188l23.4,247L459.7,834.7z"/>
	<path d="M680,256c-48.5,0-88,39.5-88,88s39.5,88,88,88s88-39.5,88-88S728.5,256,680,256z M680,376c-17.7,0-32-14.3-32-32
		s14.3-32,32-32s32,14.3,32,32S697.7,376,680,376z"/>
</g>
</svg>
