<?xml version="1.0" encoding="utf-8"?>
<svg id="tags-o" viewBox="0 0 1024 1024" version="1.1" xmlns="http://www.w3.org/2000/svg" xmlns:xlink="http://www.w3.org/1999/xlink">
  <path d="M280.1 278.7c-45.9 0-83.2 37.3-83.2 83.2 0 45.9 37.3 83.2 83.2 83.2 45.8 0 83.1-37.4 83.1-83.3C363.2 316 325.9 278.7 280.1 278.7zM280.1 381.9c-11 0-20-9-20-20s9-20 20-20 20 9 20 20S291.1 381.9 280.1 381.9z"></path>
  <path d="M909.5 544l-359-362.4c-8-8.1-18.7-12.6-30.2-12.6L158 169c-34.2 0-62 27.5-62 61.4L96 454c0 11.2 4.4 21.7 12.4 29.7L467 838c11.8 11.5 27.3 17.9 43.8 17.9s32-6.3 43.8-17.9l28.3-28 28.3 28c11.8 11.5 27.3 17.9 43.8 17.9s32-6.4 43.8-17.9L909 630.3C933 606.7 933.2 568 909.5 544zM764.8 630.3c11.7-11.4 18.1-26.7 18.2-43s-6.2-31.7-17.7-43.3L456.4 232.1l55.3 0L863 586.9 655 792.4l-27.2-26.8L764.8 630.3zM159.2 445 159.2 232.1l208.3 0 351.2 354.6L578.6 725.2l-36.3 36.1-31.5 31.1L159.2 445z"></path>
</svg>