<?xml version="1.0" encoding="utf-8"?>
<!-- Generator: Adobe Illustrator 21.0.0, SVG Export Plug-In . SVG Version: 6.00 Build 0)  -->
<svg version="1.1" id="图层_1" xmlns="http://www.w3.org/2000/svg" xmlns:xlink="http://www.w3.org/1999/xlink" x="0px" y="0px"
	 viewBox="0 0 1024 1024" style="enable-background:new 0 0 1024 1024;" xml:space="preserve">
<style type="text/css">
	.st0{fill:none;}
</style>
<title>tags-fill</title>
<desc>Created with Sketch.</desc>
<g>
	<ellipse transform="matrix(0.7071 -0.7071 0.7071 0.7071 -18.269 537.6625)" class="st0" cx="639.9" cy="290.9" rx="48" ry="48"/>
	<path d="M483.2,790.3C483.2,790.3,483.2,790.3,483.2,790.3l378.2-378.3c1.7-1.7,2.5-4,2.3-6.3l-25.5-301.4
		c-0.7-7.8-6.8-13.9-14.6-14.6L522.2,64.3c-2.3-0.2-4.7,0.6-6.3,2.3L137.7,444.8c-3.1,3.1-3.1,8.2,0,11.3l334.2,334.2
		C475,793.5,480.1,793.5,483.2,790.3z M605.9,256.9c18.7-18.7,49.1-18.7,67.9,0c18.7,18.7,18.7,49.1,0,67.9
		c-18.7,18.7-49.1,18.7-67.9,0C587.2,306.1,587.2,275.7,605.9,256.9z"/>
	<path d="M889.7,539.8l-39.6-39.5c-3.1-3.1-8.2-3.1-11.3,0l-362,361.3L239.2,624.6c-3.1-3.1-8.2-3.1-11.3,0l-39.6,39.5
		c-3.1,3.1-3.1,8.2,0,11.3l243.2,242.8l39.6,39.5c3.1,3.1,8.2,3.1,11.3,0l407.3-406.6C892.8,548,892.8,542.9,889.7,539.8z"/>
</g>
</svg>
