<?xml version="1.0" encoding="utf-8"?>
<svg id="tags" viewBox="0 0 1024 1024" version="1.1" xmlns="http://www.w3.org/2000/svg" xmlns:xlink="http://www.w3.org/1999/xlink">
  <path d="M909.5 544l-359-362.4c-8-8.1-18.7-12.6-30.2-12.6L158 169c-34.2 0-62 27.5-62 61.4L96 454c0 11.2 4.4 21.7 12.4 29.7L467 838c11.8 11.5 27.3 17.9 43.8 17.9s32-6.3 43.8-17.9l28.3-28 28.3 28c11.8 11.5 27.3 17.9 43.8 17.9s32-6.4 43.8-17.9L909 630.3C933 606.7 933.2 568 909.5 544z"></path>
  <path d="M280.1 439c-42.6 0-77.2-34.6-77.2-77.2s34.6-77.2 77.2-77.2 77.2 34.6 77.2 77.2C357.2 404.4 322.7 439 280.1 439L280.1 439z"></path>
  <path d="M868.8 589.6 658.6 797.3c-1 1-2.2 1.4-3.6 1.4-1.4 0-2.6-0.5-3.6-1.4l-32.1-31.7L760.6 626c21.7-21.4 21.8-56.1 0.4-77.8L442 226.1l72.2 0 354.6 358.1c0.3 0.3 1.1 1.2 1.1 2.7C870 588.3 869.4 589.1 868.8 589.6L868.8 589.6z"></path>
  <path d="M868.8 589.6"></path>
  <path d="M280.1 335.9c-14.3 0-26 11.7-26 26s11.7 26 26 26 26-11.7 26-26S294.4 335.9 280.1 335.9L280.1 335.9z"></path>
</svg>