<?xml version="1.0" encoding="utf-8"?>
<svg id="taobao" viewBox="0 0 1024 1024" version="1.1" xmlns="http://www.w3.org/2000/svg" xmlns:xlink="http://www.w3.org/1999/xlink">
  <path d="M136 64h752c39.765 0 72 32.235 72 72v752c0 39.765-32.235 72-72 72H136c-39.765 0-72-32.235-72-72V136c0-39.765 32.235-72 72-72z m130.015 187.262c-32.701 0-59.211 26.51-59.211 59.212 0 32.706 26.51 59.211 59.211 59.211 32.702 0 59.212-26.505 59.212-59.211 0-32.702-26.51-59.212-59.212-59.212z m-39.799 143.304l-39.139 60.081 72.06 44.912s48.236 24.61 25.306 70.592c-21.397 43.721-126.38 139.254-126.38 139.254l93.963 58.73c64.954-141.184 60.79-122.462 77.123-173.106 16.783-51.812 20.43-91.307-8.068-119.961-36.576-36.71-40.548-40.142-94.865-80.502z m609.797-15.762s-20.438-159.007-367.997-60.465c14.929-25.872 22.039-42.673 22.039-42.673l-86.859-24.424s-34.97 114.38-97.428 167.623c0 0 60.402 34.975 59.827 33.981 17.359-17.372 32.93-34.97 46.312-52.12 13.899-6.026 27.165-11.741 40.226-17.055-16.075 28.877-42.018 72.287-67.962 99.67l36.58 31.922s24.847-23.911 52.075-52.793h31.061v53.301H382.954v42.71h120.933v102.188c-1.471 0-3.071 0-4.61-0.125-13.261-0.642-34.079-2.821-42.21-15.695-9.931-15.651-2.625-44.435-2.05-62.016h-83.59l-2.947 1.547s-30.62 137.2 88.2 134.128c111.327 3.071 175-31.03 205.679-54.433l12.236 45.33 68.6-28.596-46.503-113.738-55.721 17.309 10.435 38.983c-14.282 10.711-30.682 18.722-48.491 24.495V558.48h118.183v-42.71H602.915v-53.3h118.629v-42.706H510.868c15.183-18.432 27.165-35.452 30.174-46.222l-36.638-9.967c157.571-56.457 245.263-46.744 244.492 45.834v243.833s9.29 83.733-86.537 77.702l-51.884-11.158-12.232 49.24s223.996 64.115 242.313-108.166c18.32-172.268-4.543-282.057-4.543-282.057z"></path>
</svg>