<?xml version="1.0" encoding="utf-8"?>
<!-- Generator: Adobe Illustrator 21.0.0, SVG Export Plug-In . SVG Version: 6.00 Build 0)  -->
<svg version="1.1" id="图层_1" xmlns="http://www.w3.org/2000/svg" xmlns:xlink="http://www.w3.org/1999/xlink" x="0px" y="0px"
	 viewBox="0 0 1024 1024" style="enable-background:new 0 0 1024 1024;" xml:space="preserve">
<title>taobao</title>
<desc>Created with Sketch.</desc>
<g>
	<ellipse cx="237.2" cy="273.7" rx="68.7" ry="68.7"/>
	<path d="M898.5,352.9c0,0-23.7-184.4-426.9-70.1c17.3-30,25.6-49.5,25.6-49.5L396.4,205c0,0-40.6,132.6-113,194.4
		c0,0,70.1,40.6,69.4,39.4c20.1-20.1,38.2-40.6,53.7-60.4c16.1-7,31.5-13.6,46.7-19.8c-18.6,33.5-48.7,83.8-78.8,115.6l42.4,37
		c0,0,28.8-27.7,60.4-61.2h36v61.8H372.9v49.5h140.3v118.5c-1.7,0-3.6,0-5.4-0.2c-15.4-0.7-39.5-3.3-49-18.2
		c-11.5-18.1-3-51.5-2.4-71.9h-97l-3.4,1.8c0,0-35.5,159.1,102.3,155.5c129.1,3.6,203-36,238.6-63.1l14.2,52.6l79.6-33.2
		l-53.9-131.9l-64.6,20.1l12.1,45.2c-16.6,12.4-35.6,21.7-56.2,28.4V561.3h137.1v-49.5H628.1V450h137.6v-49.5H521.3
		c17.6-21.4,31.5-41.1,35-53.6l-42.5-11.6c182.8-65.5,284.5-54.2,283.6,53.2v282.8c0,0,10.8,97.1-100.4,90.1l-60.2-12.9l-14.2,57.1
		c0,0,259.9,74.4,281.1-125.4C925,480.2,898.5,352.9,898.5,352.9z"/>
	<path d="M191.1,371.2l-45.4,69.7l83.6,52.1c0,0,56,28.5,29.4,81.9C233.8,625.5,112,736.3,112,736.3l109,68.1
		c75.4-163.7,70.5-142,89.5-200.7c19.5-60.1,23.7-105.9-9.4-139.1C258.7,422,254.1,418,191.1,371.2z"/>
</g>
</svg>
