<?xml version="1.0" encoding="utf-8"?>

<svg id="taobao-circle" viewBox="0 0 1024 1024">
  <path d="M512 0C229.2 0 0 229.2 0 512s229.2 512 512 512 512-229.2 512-512S794.8 0 512 0zM262 258c32.7 0 59.2 26.5 59.2 59.2s-26.5 59.2-59.2 59.2-59.2-26.5-59.2-59.2c-0.1-32.7 26.5-59.2 59.2-59.2z m63.1 343.8c-16.3 50.6-12.2 31.9-77.1 173.1l-94-58.7s105-95.5 126.4-139.3c22.9-46-25.3-70.6-25.3-70.6L183 461.4l39.1-60.1c54.3 40.4 58.3 43.8 94.9 80.5 28.5 28.7 24.9 68.2 8.1 120z m511.4 65.8c-18.3 172.3-242.3 108.2-242.3 108.2l12.2-49.2 51.9 11.2c95.8 6 86.5-77.7 86.5-77.7V416.2c0.8-92.6-86.9-102.3-244.5-45.8l36.6 10c-3 10.8-15 27.8-30.2 46.2h210.7v42.7H598.9v53.3H717v42.7H598.9v89.4c17.8-5.8 34.2-13.8 48.5-24.5l-10.4-39 55.7-17.3 46.5 113.7-68.6 28.6-12.2-45.3c-30.7 23.4-94.4 57.5-205.7 54.4-118.8 3.1-88.2-134.1-88.2-134.1l2.9-1.5H451c-0.6 17.6-7.9 46.4 2 62 8.1 12.9 28.9 15.1 42.2 15.7 1.5 0.1 3.1 0.1 4.6 0.1V565.2H378.9v-42.7h120.9v-53.3h-31.1c-27.2 28.9-52.1 52.8-52.1 52.8L380 490.1c25.9-27.4 51.9-70.8 68-99.7-13.1 5.3-26.3 11-40.2 17.1-13.4 17.1-29 34.7-46.3 52.1 0.6 1-59.8-34-59.8-34 62.5-53.2 97.4-167.6 97.4-167.6l86.9 24.4s-7.1 16.8-22 42.7c347.6-98.5 368 60.5 368 60.5s22.8 109.7 4.5 282z"></path>
</svg>