<?xml version="1.0" encoding="utf-8"?>

<svg id="team" viewBox="0 0 1024 1024">
  <path d="M839.1 487.4c-19.9-19.9-42.5-35.6-67.5-46.9 29-15.3 53.8-37.5 72.4-64.9 22.7-33.4 34.7-72.4 34.7-113 0-110.9-90.2-201.1-201.1-201.1-42 0-82.2 12.8-116.3 37-29.7 21.1-52.9 49.4-67.5 82.4-38-40.9-90.9-64.2-147.3-64.2-110.9 0-201.1 90.2-201.1 201.1 0 40.5 12 79.5 34.7 112.9 18.6 27.4 43.4 49.6 72.4 65-25 11.3-47.7 27-67.5 46.9-43.3 43.3-67.2 100.7-67.2 161.6l0 164.7c0 50 40.7 90.8 90.8 90.8l276 0c36.4 0 69.3-22 83.5-55.2l247.7 0c50 0 90.8-40.7 90.8-90.8L906.6 648.9C906.3 588 882.5 530.6 839.1 487.4zM585.7 170.7c24.5-24.6 57.1-38.1 91.9-38.1 34.8 0 67.4 13.5 91.9 38.1 24.6 24.5 38.1 57.1 38.1 91.9S794 330 769.5 354.5c-24.5 24.6-57.1 38.1-91.9 38.1-34.8 0-67.4-13.5-91.9-38.1-24.6-24.5-38.1-57.1-38.1-91.9S561.1 195.2 585.7 170.7zM216.4 317.8c0-34.8 13.5-67.4 38.1-91.9 24.5-24.6 57.1-38.1 91.9-38.1 34.8 0 67.4 13.5 91.9 38.1 24.6 24.6 38.1 57.2 38.1 91.9 0 34.8-13.5 67.4-38.1 91.9-24.5 24.6-57.1 38.1-91.9 38.1-34.7 0-67.4-13.5-92-38.1C229.9 385.2 216.4 352.5 216.4 317.8zM504 868.8c0 5.2-2 10.1-5.8 13.8-3.7 3.7-8.6 5.8-13.8 5.8l-276 0c-10.8 0-19.6-8.8-19.6-19.6L188.8 704.1c0-41.9 16.4-81.4 46.3-111.3 29.9-29.9 69.4-46.3 111.3-46.3 41.9 0 81.4 16.4 111.3 46.3 0.5 0.5 1 1 1.3 1.4l0.3 0.4c28.8 29.6 44.7 68.5 44.7 109.6L504 868.8zM486.4 523.5c-14.3-11.2-29.7-20.5-46-27.9 39.7-21.1 71.5-55 89.8-96.1 15.4 16.5 33.4 30.4 53.3 40.9-25 11.3-47.7 27.1-67.5 46.9C504.9 498.5 495 510.6 486.4 523.5zM835.2 813.7c0 10.8-8.8 19.6-19.6 19.6L575.2 833.3 575.2 704.1c0-45.3-13.2-88.8-38.2-126.2 7.6-14.9 17.4-28.4 29.3-40.2 29.8-29.9 69.4-46.4 111.3-46.4 41.9 0 81.4 16.4 111.3 46.3 29.9 29.9 46.3 69.4 46.3 111.3L835.2 813.7z"></path>
</svg>