<?xml version="1.0" encoding="utf-8"?>
<svg id="to-top" viewBox="0 0 1024 1024" version="1.1" xmlns="http://www.w3.org/2000/svg" xmlns:xlink="http://www.w3.org/1999/xlink">
  <path d="M920 822 104 822c-19.9 0-36 16.1-36 36s16.1 36 36 36l816 0c19.9 0 36-16.1 36-36S939.9 822 920 822z"></path>
  <path d="M365.6 320.5c9.2 0 18.4-3.5 25.5-10.5L476 225l0 449c0 19.9 16.1 36 36 36 19.9 0 36-16.1 36-36L548 225l84.9 84.9c7 7 16.2 10.5 25.5 10.5s18.4-3.5 25.5-10.5c14.1-14.1 14.1-36.9 0-50.9L537.5 112.7c-14.1-14.1-36.9-14.1-50.9 0L340.2 259c-14.1 14.1-14.1 36.9 0 50.9C347.2 317 356.4 320.5 365.6 320.5z"></path>
</svg>