<?xml version="1.0" encoding="utf-8"?>
<svg id="tool" viewBox="0 0 1024 1024" version="1.1" xmlns="http://www.w3.org/2000/svg" xmlns:xlink="http://www.w3.org/1999/xlink">
  <path d="M924.6 165.2L758.1 331.4l-67.8-67.7L856.3 98c-84.6-52.7-197.2-42.4-270.6 30.9-57.2 57.2-76.2 138.3-56.6 211.2L340.1 529c-73.1-19.5-154.2-0.7-211.5 56.6-73.4 73.3-83.7 185.9-31 270.3l165.9-165.7 67.8 67.7-166.5 166.2c84.8 54.8 199.2 45.1 273.5-29 57.2-57.2 76.2-138.3 56.6-211.2l189-188.7c73.1 19.5 154.2 0.7 211.5-56.6 74.3-74.4 84-188.6 29.2-273.4zM394.8 851.5c-31.4 31.3-72.7 46.6-113.8 45.9l95-94.9c24.1-24.1 24.1-62.9 0-87l-67.8-67.7c-24.1-24.1-63-24.1-87.1 0l-95 94.9c-0.7-41.1 14.6-82.3 46-113.7 49.7-49.6 124.1-59.1 183.4-28.5 14.1 7.3 27.3 16.8 39.1 28.6s21.3 25.1 28.7 39.1c30.7 59.2 21.1 133.7-28.5 183.3z m73.6-228.2c-8.5-13.3-18.5-26-30.2-37.6-11.6-11.6-24.3-21.7-37.6-30.1l155-154.8c8.5 13.3 18.5 26 30.2 37.6 11.6 11.6 24.3 21.7 37.6 30.1l-155 154.8zM851.9 395c-49.7 49.6-124.1 59.1-183.4 28.5-14.1-7.3-27.3-16.8-39.1-28.6s-21.3-25.1-28.7-39.1c-30.6-59.2-21.1-133.7 28.6-183.2 31.3-31.3 72.7-46.6 113.8-45.9l-95 94.9c-24.1 24.1-24.1 62.9 0 87l67.8 67.7c24.1 24.1 63 24.1 87.1 0l95-94.9c0.6 41-14.8 82.2-46.1 113.6z"></path>
</svg>