<?xml version="1.0" encoding="utf-8"?>
<!-- Generator: Adobe Illustrator 21.0.0, SVG Export Plug-In . SVG Version: 6.00 Build 0)  -->
<svg version="1.1" id="图层_1" xmlns="http://www.w3.org/2000/svg" xmlns:xlink="http://www.w3.org/1999/xlink" x="0px" y="0px"
	 viewBox="0 0 1024 1024" style="enable-background:new 0 0 1024 1024;" xml:space="preserve">
<title>totop</title>
<desc>Created with Sketch.</desc>
<g>
	<path d="M885,780H165c-4.4,0-8,3.6-8,8v60c0,4.4,3.6,8,8,8h720c4.4,0,8-3.6,8-8v-60C893,783.6,889.4,780,885,780z"/>
	<path d="M400,325.7h73.9V664c0,4.4,3.6,8,8,8h60c4.4,0,8-3.6,8-8V325.7H624c6.7,0,10.4-7.7,6.3-12.9L518.3,171
		c-3.2-4.1-9.4-4.1-12.6,0l-112,141.7C389.6,318,393.3,325.7,400,325.7z"/>
</g>
</svg>
