<?xml version="1.0" encoding="utf-8"?>

<svg id="trademark" viewBox="0 0 1024 1024">
  <path d="M666.6 499.3c31.3-28.7 46.8-67 46.8-114.9 0-25.2-4.8-48.2-14.4-69.1-9.5-20.8-22.7-37.7-39.2-50.9-16.6-13.2-36.3-22.5-59-28.1-22.7-5.5-64.2-8.3-124.6-8.3H363v577.9h64.9V542.3h22.7L645.4 806H727L531.4 542.3c58.9 0 103.9-14.3 135.2-43zM516.3 476H428V294.5h90.6c43.8 0 76.1 7.2 96.6 21.7 20.7 14.5 30.9 37.6 30.9 69.5s-10.6 55-31.7 69.5c-21 14.4-53.8 21.3-98.1 20.8z"></path>
  <path d="M512 0C229.2 0 0 229.2 0 512s229.2 512 512 512 512-229.2 512-512S794.8 0 512 0z m0 952C269 952 72 755 72 512S269 72 512 72s440 197 440 440-197 440-440 440z"></path>
</svg>