<?xml version="1.0" encoding="utf-8"?>
<!-- Generator: Adobe Illustrator 21.0.0, SVG Export Plug-In . SVG Version: 6.00 Build 0)  -->
<svg version="1.1" id="图层_1" xmlns="http://www.w3.org/2000/svg" xmlns:xlink="http://www.w3.org/1999/xlink" x="0px" y="0px"
	 viewBox="0 0 1024 1024" style="enable-background:new 0 0 1024 1024;" xml:space="preserve">
<style type="text/css">
	.st0{fill:none;}
</style>
<title>trademark</title>
<desc>Created with Sketch.</desc>
<g>
	<path class="st0" d="M512,140c-205.4,0-372,166.6-372,372s166.6,372,372,372s372-166.6,372-372S717.4,140,512,140z M676.7,724.2
		c-1.1,0.5-2.3,0.8-3.5,0.8h-62c-3.1,0-5.9-1.8-7.2-4.6l-74.6-159.2h-88.7V717c0,4.4-3.6,8-8,8H378c-4.4,0-8-3.6-8-8V307
		c0-4.4,3.6-8,8-8h155.6c98.8,0,144.2,59.9,144.2,131.1c0,70.2-43.6,106.4-78.4,119.2l80.8,164.2
		C682.3,717.4,680.6,722.2,676.7,724.2z"/>
	<path class="st0" d="M523.9,357h-83.4V505H522c53,0,82.8-25.6,82.8-72.4C604.8,382.3,571.9,357,523.9,357z"/>
	<path d="M512,64C264.6,64,64,264.6,64,512s200.6,448,448,448s448-200.6,448-448S759.4,64,512,64z M512,884
		c-205.4,0-372-166.6-372-372s166.6-372,372-372s372,166.6,372,372S717.4,884,512,884z"/>
	<path d="M599.5,549.3c34.8-12.8,78.4-49,78.4-119.2c0-71.2-45.5-131.1-144.2-131.1H378c-4.4,0-8,3.6-8,8v410c0,4.4,3.6,8,8,8h54.5
		c4.4,0,8-3.6,8-8V561.2h88.7l74.6,159.2c1.3,2.8,4.1,4.6,7.2,4.6h62c1.2,0,2.4-0.3,3.5-0.8c4-2,5.6-6.7,3.6-10.7L599.5,549.3z
		 M522,505h-81.5V357h83.4c48,0,80.9,25.3,80.9,75.5C604.8,479.4,575,505,522,505z"/>
</g>
</svg>
