<?xml version="1.0" encoding="utf-8"?>
<svg id="twitter" viewBox="0 0 1024 1024" version="1.1" xmlns="http://www.w3.org/2000/svg" xmlns:xlink="http://www.w3.org/1999/xlink">
  <path d="M1024.003 194.512c-37.677 16.71-78.166 28.002-120.663 33.08 43.377-26 76.686-67.172 92.373-116.228-40.59 24.073-85.553 41.557-133.406 50.981C823.982 121.515 769.383 96 708.96 96c-116.027 0-210.093 94.062-210.093 210.081 0 16.466 1.862 32.5 5.443 47.876-174.604-8.76-329.404-92.4-433.021-219.501-18.084 31.028-28.444 67.116-28.444 105.617 0 72.885 37.092 137.189 93.463 174.862-34.44-1.09-66.832-10.54-95.16-26.275-0.015 0.876-0.015 1.756-0.015 2.64 0 101.79 72.417 186.702 168.524 205.999-17.63 4.802-36.19 7.367-55.352 7.367a209.803 209.803 0 0 1-39.523-3.768c26.732 83.467 104.318 144.205 196.249 145.901-71.9 56.345-162.486 89.931-260.912 89.931-16.957 0-33.68-0.992-50.116-2.932 92.972 59.607 203.403 94.384 322.044 94.384 386.422 0 597.732-320.122 597.732-597.74 0-9.109-0.202-18.17-0.607-27.177 41.044-29.62 76.664-66.623 104.831-108.753"></path>
</svg>