<?xml version="1.0" encoding="utf-8"?>
<!-- Generator: Adobe Illustrator 21.0.0, SVG Export Plug-In . SVG Version: 6.00 Build 0)  -->
<svg version="1.1" id="图层_1" xmlns="http://www.w3.org/2000/svg" xmlns:xlink="http://www.w3.org/1999/xlink" x="0px" y="0px"
	 viewBox="0 0 1024 1024" style="enable-background:new 0 0 1024 1024;" xml:space="preserve">
<title>underline</title>
<desc>Created with Sketch.</desc>
<g>
	<path d="M824,804H200c-4.4,0-8,3.4-8,7.6v60.8c0,4.2,3.6,7.6,8,7.6h624c4.4,0,8-3.4,8-7.6v-60.8C832,807.4,828.4,804,824,804z"/>
	<path d="M512,728c69.4,0,134.6-27.1,183.8-76.2C745,602.7,772,537.4,772,468V156c0-6.6-5.4-12-12-12h-60c-6.6,0-12,5.4-12,12v312
		c0,97-79,176-176,176s-176-79-176-176V156c0-6.6-5.4-12-12-12h-60c-6.6,0-12,5.4-12,12v312c0,69.4,27.1,134.6,76.2,183.8
		C377.3,701,442.6,728,512,728z"/>
</g>
</svg>
