<?xml version="1.0" encoding="utf-8"?>
<!-- Generator: Adobe Illustrator 21.0.0, SVG Export Plug-In . SVG Version: 6.00 Build 0)  -->
<svg version="1.1" id="图层_1" xmlns="http://www.w3.org/2000/svg" xmlns:xlink="http://www.w3.org/1999/xlink" x="0px" y="0px"
	 viewBox="0 0 1024 1024" style="enable-background:new 0 0 1024 1024;" xml:space="preserve">
<title>unlike-fill</title>
<desc>Created with Sketch.</desc>
<g>
	<path d="M885.9,490.3c3.6-12,5.4-24.4,5.4-37c0-28.3-9.3-55.5-26.1-77.7c3.6-12,5.4-24.4,5.4-37c0-28.3-9.3-55.5-26.1-77.7
		c3.6-12,5.4-24.4,5.4-37c0-51.6-30.7-98.1-78.3-118.4c-8.3-3.6-17.2-5.4-26.5-5.4H273v428l0.3,0l85.8,310.8
		C372.9,889,418.9,924,470.9,924c29.7,0,57.4-11.8,77.9-33.4c20.5-21.5,31-49.7,29.5-79.4l-6-122.9h239.9c12.1,0,23.9-3.2,34.3-9.3
		C886.9,655.5,912,612.9,912,568C912,539.7,902.7,512.5,885.9,490.3z"/>
	<path d="M112,132v364c0,17.7,14.3,32,32,32l65,0V100h-65C126.3,100,112,114.3,112,132z"/>
</g>
</svg>
