<?xml version="1.0" encoding="utf-8"?>
<!-- Generator: Adobe Illustrator 21.0.0, SVG Export Plug-In . SVG Version: 6.00 Build 0)  -->
<svg version="1.1" id="图层_1" xmlns="http://www.w3.org/2000/svg" xmlns:xlink="http://www.w3.org/1999/xlink" x="0px" y="0px"
	 viewBox="0 0 1024 1024" style="enable-background:new 0 0 1024 1024;" xml:space="preserve">
<style type="text/css">
	.st0{fill:none;}
</style>
<title>unlock</title>
<desc>Created with Sketch.</desc>
<g>
	<path class="st0" d="M260,536h-28v304h560V536H332H260z M512,614c26.5,0,48,21.5,48,48c0,16.1-7.9,30.3-20,39v53c0,4.4-3.6,8-8,8
		h-40c-4.4,0-8-3.6-8-8v-53c-12.1-8.7-20-22.9-20-39C464,635.5,485.5,614,512,614z"/>
	<path d="M832,464H332V240c0-30.9,25.1-56,56-56h248c30.9,0,56,25.1,56,56v68c0,4.4,3.6,8,8,8h56c4.4,0,8-3.6,8-8v-68
		c0-70.7-57.3-128-128-128H388c-70.7,0-128,57.3-128,128v224h-68c-17.7,0-32,14.3-32,32v384c0,17.7,14.3,32,32,32h640
		c17.7,0,32-14.3,32-32V496C864,478.3,849.7,464,832,464z M792,840H232V536h28h72h460V840z"/>
	<path d="M484,701v53c0,4.4,3.6,8,8,8h40c4.4,0,8-3.6,8-8v-53c12.1-8.7,20-22.9,20-39c0-26.5-21.5-48-48-48c-26.5,0-48,21.5-48,48
		C464,678.1,471.9,692.3,484,701z"/>
</g>
</svg>
