<?xml version="1.0" encoding="utf-8"?>
<!-- Generator: Adobe Illustrator 21.0.0, SVG Export Plug-In . SVG Version: 6.00 Build 0)  -->
<svg version="1.1" id="图层_1" xmlns="http://www.w3.org/2000/svg" xmlns:xlink="http://www.w3.org/1999/xlink" x="0px" y="0px"
	 viewBox="0 0 1024 1024" style="enable-background:new 0 0 1024 1024;" xml:space="preserve">
<title>unordered list</title>
<desc>Created with Sketch.</desc>
<g>
	<path d="M912,192H328c-4.4,0-8,3.6-8,8v56c0,4.4,3.6,8,8,8h584c4.4,0,8-3.6,8-8v-56C920,195.6,916.4,192,912,192z"/>
	<path d="M912,476H328c-4.4,0-8,3.6-8,8v56c0,4.4,3.6,8,8,8h584c4.4,0,8-3.6,8-8v-56C920,479.6,916.4,476,912,476z"/>
	<path d="M912,760H328c-4.4,0-8,3.6-8,8v56c0,4.4,3.6,8,8,8h584c4.4,0,8-3.6,8-8v-56C920,763.6,916.4,760,912,760z"/>
	<circle cx="160" cy="228" r="56"/>
	<circle cx="160" cy="512" r="56"/>
	<circle cx="160" cy="796" r="56"/>
</g>
</svg>
