<?xml version="1.0" encoding="utf-8"?>

<svg id="up-circle" viewBox="0 0 1024 1024">
  <path d="M512 0.999024C229.475902 0.999024 0.499512 229.975415 0.499512 512.499512s228.97639 511.500488 511.500488 511.500488 511.500488-228.97639 511.500488-511.500488S794.524098 0.999024 512 0.999024zM757.36039 617.496976c-14.485854 13.586732-37.26361 12.887415-50.850341-1.598439L512 408.401171 317.390049 615.998439c-13.586732 14.485854-36.364488 15.185171-50.850341 1.598439-14.485854-13.586732-15.185171-36.364488-1.598439-50.850341l220.78439-235.569951c6.793366-7.292878 16.284098-11.388878 26.274341-11.388878s19.480976 4.096 26.174439 11.288976l220.78439 235.569951C772.545561 581.132488 771.846244 603.910244 757.36039 617.496976z"></path>
</svg>