<?xml version="1.0" encoding="utf-8"?>
<!-- Generator: Adobe Illustrator 21.0.0, SVG Export Plug-In . SVG Version: 6.00 Build 0)  -->
<svg version="1.1" id="图层_1" xmlns="http://www.w3.org/2000/svg" xmlns:xlink="http://www.w3.org/1999/xlink" x="0px" y="0px"
	 viewBox="0 0 1024 1024" style="enable-background:new 0 0 1024 1024;" xml:space="preserve">
<style type="text/css">
	.st0{fill:none;}
</style>
<title>up-square-o</title>
<desc>Created with Sketch.</desc>
<g>
	<path class="st0" d="M184,840h656V184H184V840z M327.5,611.3l178-246c3.2-4.4,9.7-4.4,12.9,0l178,246c3.8,5.3,0,12.7-6.5,12.7
		h-46.9c-10.2,0-19.9-4.9-25.9-13.2L512,465.4L406.8,610.8c-6,8.3-15.6,13.2-25.9,13.2H334C327.5,624,323.7,616.6,327.5,611.3z"/>
	<path d="M334,624h46.9c10.2,0,19.9-4.9,25.9-13.2L512,465.4l105.2,145.4c6,8.3,15.6,13.2,25.9,13.2H690c6.5,0,10.3-7.4,6.5-12.7
		l-178-246c-3.2-4.4-9.7-4.4-12.9,0l-178,246C323.7,616.6,327.5,624,334,624z"/>
	<path d="M880,112H144c-17.7,0-32,14.3-32,32v736c0,17.7,14.3,32,32,32h736c17.7,0,32-14.3,32-32V144C912,126.3,897.7,112,880,112z
		 M840,840H184V184h656V840z"/>
</g>
</svg>
