<?xml version="1.0" encoding="utf-8"?>
<svg id="up-square-o" viewBox="0 0 1024 1024" version="1.1" xmlns="http://www.w3.org/2000/svg" xmlns:xlink="http://www.w3.org/1999/xlink">
  <path d="M888.5 135.5 888.5 135.5C888.5 135.5 888.5 135.5 888.5 135.5l0 753.1c0 0 0 0 0 0L135.5 888.6c0 0 0 0 0 0L135.5 135.5c0 0 0 0 0 0L888.5 135.5M888.5 63.5 135.5 63.5c-39.8 0-72 32.2-72 72l0 753.1c0 39.8 32.2 72 72 72l753.1 0c39.8 0 72-32.2 72-72L960.6 135.5C960.5 95.7 928.3 63.5 888.5 63.5L888.5 63.5z"></path>
  <path d="M512 321.1c-10 0-19.5 4.1-26.3 11.4l-221 235.8c-13.6 14.5-12.9 37.3 1.6 50.9 14.5 13.6 37.3 12.9 50.9-1.6L512 409.8l194.7 207.7c13.6 14.5 36.4 15.2 50.9 1.6 14.5-13.6 15.2-36.4 1.6-50.9l-221-235.8C531.5 325.2 522 321.1 512 321.1z"></path>
</svg>