<?xml version="1.0" encoding="utf-8"?>
<!-- Generator: Adobe Illustrator 21.0.0, SVG Export Plug-In . SVG Version: 6.00 Build 0)  -->
<svg version="1.1" id="图层_1" xmlns="http://www.w3.org/2000/svg" xmlns:xlink="http://www.w3.org/1999/xlink" x="0px" y="0px"
	 viewBox="0 0 1024 1024" style="enable-background:new 0 0 1024 1024;" xml:space="preserve">
<title>upload</title>
<desc>Created with Sketch.</desc>
<g>
	<path d="M400,317.7h73.9V656c0,4.4,3.6,8,8,8h60c4.4,0,8-3.6,8-8V317.7H624c6.7,0,10.4-7.7,6.3-12.9L518.3,163
		c-3.2-4.1-9.4-4.1-12.6,0l-112,141.7C389.6,310,393.3,317.7,400,317.7z"/>
	<path d="M878,626h-60c-4.4,0-8,3.6-8,8v154H214V634c0-4.4-3.6-8-8-8h-60c-4.4,0-8,3.6-8,8v198c0,17.7,14.3,32,32,32h684
		c17.7,0,32-14.3,32-32V634C886,629.6,882.4,626,878,626z"/>
</g>
</svg>
