<?xml version="1.0" encoding="utf-8"?>
<svg id="upload" viewBox="0 0 1024 1024" version="1.1" xmlns="http://www.w3.org/2000/svg" xmlns:xlink="http://www.w3.org/1999/xlink">
  <path d="M487.5 74.1C494.2 67.4 503.1 64 512 64s17.7 3.4 24.5 10.1L692.3 230c13.5 13.5 13.5 35.4 0 48.9-6.5 6.5-15.2 10.1-24.4 10.1s-17.9-3.6-24.4-10.1L546.6 182l0 577.8c0 19.1-15.5 34.6-34.6 34.6s-34.6-15.5-34.6-34.6L477.4 182l-96.9 96.9c-13.5 13.5-35.4 13.5-48.8 0-13.5-13.5-13.5-35.4-0.1-48.9L487.5 74.1z"></path>
  <path d="M924.4 640.4c-19.1 0-34.6 15.5-34.6 34.6l0 195.4c0 11.3-9.2 20.6-20.6 20.6L152.7 891c-11.3 0-20.6-9.2-20.6-20.6L132.1 674.9c0-19.1-15.5-34.6-34.6-34.6S63 655.9 63 674.9l0 222.9c0 34.3 27.9 62.1 62.1 62.1l771.8 0c34.3 0 62.1-27.9 62.1-62.1L959 674.9C959 655.9 943.5 640.4 924.4 640.4z"></path>
</svg>