<?xml version="1.0" encoding="utf-8"?>
<!-- Generator: Adobe Illustrator 21.0.0, SVG Export Plug-In . SVG Version: 6.00 Build 0)  -->
<svg version="1.1" id="图层_1" xmlns="http://www.w3.org/2000/svg" xmlns:xlink="http://www.w3.org/1999/xlink" x="0px" y="0px"
	 viewBox="0 0 1024 1024" style="enable-background:new 0 0 1024 1024;" xml:space="preserve">
<style type="text/css">
	.st0{fill:none;}
</style>
<title>USB-fill</title>
<desc>Created with Sketch.</desc>
<g>
	<path class="st0" d="M336,432h352V184H336V432z M560,256c0-4.4,3.6-8,8-8h48c4.4,0,8,3.6,8,8v48c0,4.4-3.6,8-8,8h-48
		c-4.4,0-8-3.6-8-8V256z M400,256c0-4.4,3.6-8,8-8h48c4.4,0,8,3.6,8,8v48c0,4.4-3.6,8-8,8h-48c-4.4,0-8-3.6-8-8V256z"/>
	<path d="M408,312h48c4.4,0,8-3.6,8-8v-48c0-4.4-3.6-8-8-8h-48c-4.4,0-8,3.6-8,8v48C400,308.4,403.6,312,408,312z"/>
	<path d="M760,432V144c0-17.7-14.3-32-32-32H296c-17.7,0-32,14.3-32,32v288c-66.2,0-120,52.1-120,116v356c0,4.4,3.6,8,8,8h56h608h56
		c4.4,0,8-3.6,8-8V548C880,484.1,826.2,432,760,432z M688,432H336V184h352V432z"/>
	<path d="M568,312h48c4.4,0,8-3.6,8-8v-48c0-4.4-3.6-8-8-8h-48c-4.4,0-8,3.6-8,8v48C560,308.4,563.6,312,568,312z"/>
</g>
</svg>
