<?xml version="1.0" encoding="utf-8"?>
<svg id="usb" viewBox="0 0 1024 1024" version="1.1" xmlns="http://www.w3.org/2000/svg" xmlns:xlink="http://www.w3.org/1999/xlink">
  <path d="M768 192v192h56v138H548V192h60L512 64l-96 128h60v440H200V503.3c23.5-10.8 41.9-30.7 50.5-55.3 3.5-10 5.5-20.8 5.5-32 0-53-43-96-96-96s-96 43-96 96c0 41.8 26.7 77.4 64 90.5V632c0 39.8 32.2 72 72 72h276v71c-35.2 14.2-60 48.7-60 89 0 53 43 96 96 96s96-43 96-96c0-40.3-24.8-74.8-60-89V594h276c39.8 0 72-32.2 72-72V384h64V192H768zM160 440c-13.3 0-24-10.7-24-24s10.7-24 24-24 24 10.7 24 24-10.7 24-24 24z m728-128h-48v-48h48v48z"></path>
</svg>
