<?xml version="1.0" encoding="utf-8"?>
<svg id="usergroup-add" viewBox="0 0 1024 1024" version="1.1" xmlns="http://www.w3.org/2000/svg" xmlns:xlink="http://www.w3.org/1999/xlink">
  <path d="M420.5 425.7c-3.6-15.3-5.5-31.3-5.5-47.7 0-8.5 0.5-16.8 1.5-25-50.6-7.1-89.5-50.5-89.5-103 0-57.4 46.6-104 104-104 38.1 0 71.4 20.5 89.5 51 20.9-11.9 44.1-20.2 68.7-24.2C560.6 114.3 500.5 74 431 74c-97.2 0-176 78.8-176 176 0 93.7 73.2 170.3 165.5 175.7zM776.7 589.3C730.3 566.7 678.1 554 623 554c-194.4 0-352 157.6-352 352 0 19.9 16.1 36 36 36s36-16.1 36-36c0-154.6 125.4-280 280-280 19.3 0 38.2 2 56.4 5.7 28-21.3 61.2-36.2 97.3-42.4zM908.9 753.9h-87.8v-87.8c0-19.9-16.2-36.1-36.1-36.1-19.9 0-36.1 16.2-36.1 36.1v87.8h-87.8c-19.9 0-36.1 16.2-36.1 36.1 0 19.9 16.2 36.1 36.1 36.1h87.8v87.8c0 19.9 16.2 36.1 36.1 36.1 19.9 0 36.1-16.2 36.1-36.1v-87.8h87.8c19.9 0 36.1-16.2 36.1-36.1 0-19.9-16.2-36.1-36.1-36.1z"></path>
  <path d="M799 378c0-97.2-78.8-176-176-176s-176 78.8-176 176 78.8 176 176 176 176-78.8 176-176zM623 482c-57.4 0-104-46.6-104-104s46.6-104 104-104 104 46.6 104 104-46.6 104-104 104zM453.7 498.9c-15.4-21.5-26.8-46.2-33.1-72.8C231 431.7 79 587.1 79 778c0 19.9 16.1 36 36 36s36-16.1 36-36c0-154.6 125.4-280 280-280 7.7 0 15.2 0.3 22.7 0.9z"></path>
</svg>