<?xml version="1.0" encoding="utf-8"?>

<svg id="user-add" viewBox="0 0 1024 1024">
  <path d="M859.9 763.6h-87.8v-87.8c0-19.9-16.2-36.1-36.1-36.1-19.9 0-36.1 16.2-36.1 36.1v87.8h-87.8c-19.9 0-36.1 16.2-36.1 36.1 0 19.9 16.2 36.1 36.1 36.1h87.8v87.8c0 19.9 16.2 36.1 36.1 36.1 19.9 0 36.1-16.2 36.1-36.1v-87.8h87.8c19.9 0 36.1-16.2 36.1-36.1 0-20-16.2-36.1-36.1-36.1zM736 288.5C736 164.5 635.7 64 512 64S288 164.5 288 288.5 388.3 513 512 513s224-100.5 224-224.5zM512 440.8c-83.9 0-152-68.2-152-152.3s68.1-152.3 152-152.3 152 68.2 152 152.3-68.1 152.3-152 152.3z"></path>
  <path d="M722 575.6C661.6 536 589.5 513 512 513c-212.1 0-384 172.3-384 384.9h0.1c0 0.7-0.1 1.3-0.1 2 0 19.9 16.1 36.1 36 36.1s36-16.2 36-36.1c0-0.7 0-1.3-0.1-2h0.1c0-172.7 139.7-312.7 312-312.7 39.2 0 76.7 7.2 111.2 20.5 29.4-17.2 62.9-27.9 98.8-30.1z"></path>
</svg>