<?xml version="1.0" encoding="utf-8"?>
<svg id="user" viewBox="0 0 1024 1024" version="1.1" xmlns="http://www.w3.org/2000/svg" xmlns:xlink="http://www.w3.org/1999/xlink">
  <path d="M819.4 793c-16.8-39.7-40.9-75.4-71.5-106-30.6-30.6-66.3-54.7-106-71.5-13.5-5.7-27.4-10.5-41.4-14.4 39.6-13.4 75.9-35.8 106.3-66.2 52-52 80.7-121.2 80.7-194.7s-28.6-142.7-80.7-194.7c-52-52-121.2-80.7-194.7-80.7s-142.7 28.6-194.7 80.7c-52 52-80.7 121.2-80.7 194.7s28.6 142.7 80.7 194.7c30.4 30.4 66.7 52.8 106.3 66.2-14 3.9-27.9 8.6-41.4 14.4-39.7 16.8-75.4 40.9-106 71.5-30.6 30.6-54.7 66.3-71.5 106-17.4 41.2-26.2 84.8-26.2 129.9 0 19.9 16.1 36 36 36s36-16.1 36-36c0-69.9 27.2-135.6 76.6-185 49.4-49.4 115.1-76.6 185-76.6 69.9 0 135.6 27.2 185 76.6s76.6 115.1 76.6 185c0 19.9 16.1 36 36 36s36-16.1 36-36C845.6 877.8 836.8 834.2 819.4 793zM308.6 340.2c0-112.2 91.3-203.4 203.4-203.4S715.4 228 715.4 340.2 624.2 543.6 512 543.6 308.6 452.3 308.6 340.2z"></path>
</svg>