<?xml version="1.0" encoding="utf-8"?>
<!-- Generator: Adobe Illustrator 21.0.0, SVG Export Plug-In . SVG Version: 6.00 Build 0)  -->
<svg version="1.1" id="图层_1" xmlns="http://www.w3.org/2000/svg" xmlns:xlink="http://www.w3.org/1999/xlink" x="0px" y="0px"
	 viewBox="0 0 1024 1024" style="enable-background:new 0 0 1024 1024;" xml:space="preserve">
<title>vertical right</title>
<desc>Created with Sketch.</desc>
<g>
	<path d="M326,164h-64c-4.4,0-8,3.6-8,8v688c0,4.4,3.6,8,8,8h64c4.4,0,8-3.6,8-8V172C334,167.6,330.4,164,326,164z"/>
	<path d="M770,236.4V164c0-6.8-7.9-10.5-13.1-6.1L335,512l421.9,354.1c5.2,4.4,13.1,0.7,13.1-6.1v-72.4c0-9.4-4.2-18.4-11.4-24.5
		L459.4,512l299.2-251.1C765.8,254.8,770,245.8,770,236.4z"/>
</g>
</svg>
