<?xml version="1.0" encoding="utf-8"?>
<!-- Generator: Adobe Illustrator 21.0.0, SVG Export Plug-In . SVG Version: 6.00 Build 0)  -->
<svg version="1.1" id="图层_1" xmlns="http://www.w3.org/2000/svg" xmlns:xlink="http://www.w3.org/1999/xlink" x="0px" y="0px"
	 viewBox="0 0 1024 1024" style="enable-background:new 0 0 1024 1024;" xml:space="preserve">
<title>vertical-align-middle</title>
<desc>Created with Sketch.</desc>
<g>
	<path d="M859.9,474H164.1c-4.5,0-8.1,3.6-8.1,8v60c0,4.4,3.6,8,8.1,8h695.8c4.5,0,8.1-3.6,8.1-8v-60C868,477.6,864.4,474,859.9,474
		z"/>
	<path d="M506.3,399.3c2.9,3.7,8.5,3.7,11.3,0l100.8-127.5c3.7-4.7,0.4-11.7-5.7-11.7H550V104c0-4.4-3.6-8-8-8h-60c-4.4,0-8,3.6-8,8
		v156h-62.8c-6,0-9.4,7-5.7,11.7L506.3,399.3z"/>
	<path d="M517.7,624.7c-2.9-3.7-8.5-3.7-11.3,0L405.6,752.3c-3.7,4.7-0.4,11.7,5.7,11.7H474v156c0,4.4,3.6,8,8,8h60c4.4,0,8-3.6,8-8
		V764h62.8c6,0,9.4-7,5.7-11.7L517.7,624.7z"/>
</g>
</svg>
