<?xml version="1.0" encoding="utf-8"?>
<svg id="video-camera" viewBox="0 0 1024 1024" version="1.1" xmlns="http://www.w3.org/2000/svg" xmlns:xlink="http://www.w3.org/1999/xlink">
  <path d="M1010.3 322.7c-7.2-6.2-16.3-9.7-25.8-9.7-6.5 0-12.9 1.6-18.6 4.7l-125.6 67L840.3 197.3c0-39.3-31.9-71.3-71-71.3L71 126c-39.1 0-71 32-71 71.3l0 629.4C0 866 31.9 898 71 898l698.4 0c39.1 0 71-32 71-71.3L840.4 624.2l122.9 78.4c6.4 4.1 13.7 6.2 21.2 6.2 9 0 17.9-3.2 25-8.9 9.2-7.6 14.5-19 14.5-31.3L1024 353.4C1024 341.4 1019 330.2 1010.3 322.7zM945 418.8l0 178.1-103.2-65.8 0-57.3L945 418.8zM761.4 228.8 761.4 795c0 13-10.5 23.6-23.5 23.6L102.5 818.6C89.5 818.6 79 808 79 795L79 228.8c0-13 10.5-23.6 23.5-23.6l635.4 0C750.9 205.2 761.4 215.8 761.4 228.8z"></path>
</svg>