<?xml version="1.0" encoding="utf-8"?>
<!-- Generator: Adobe Illustrator 21.0.0, SVG Export Plug-In . SVG Version: 6.00 Build 0)  -->
<svg version="1.1" id="图层_1" xmlns="http://www.w3.org/2000/svg" xmlns:xlink="http://www.w3.org/1999/xlink" x="0px" y="0px"
	 viewBox="0 0 1024 1024" style="enable-background:new 0 0 1024 1024;" xml:space="preserve">
<style type="text/css">
	.st0{fill:none;}
</style>
<title>wechat-fill</title>
<desc>Created with Sketch.</desc>
<g>
	<path class="st0" d="M279.9,290.9c-23.8,0-43.2,19.3-43.2,43.1c0,23.8,19.3,43.1,43.2,43.1h0c23.8,0,43.2-19.3,43.2-43.1
		C323.1,310.2,303.7,290.9,279.9,290.9z"/>
	<path class="st0" d="M495.8,377.1c23.8,0,43.2-19.3,43.2-43.1c0-23.8-19.3-43.1-43.2-43.1c-23.8,0-43.2,19.3-43.2,43.1
		C452.6,357.8,472,377.1,495.8,377.1z"/>
	<path class="st0" d="M600.2,515.3c-19.9,0-36,16.1-36,35.9c0,19.8,16.1,35.9,36,35.9c19.9,0,36-16.1,36-35.9
		C636.2,531.4,620,515.3,600.2,515.3z"/>
	<path class="st0" d="M780.1,515.3c-19.9,0-36,16.1-36,35.9c0,19.8,16.1,35.9,36,35.9c19.9,0,36-16.1,36-35.9
		C816,531.4,799.9,515.3,780.1,515.3z"/>
	<path d="M690.1,377.4c5.9,0,11.8,0.2,17.6,0.5c-24.4-128.7-158.3-227.1-319.9-227.1C209,150.8,64,271.4,64,420.2
		c0,81.1,43.6,154.2,111.9,203.6c5.5,3.9,9.1,10.3,9.1,17.6c0,2.4-0.5,4.6-1.1,6.9c-5.5,20.3-14.2,52.8-14.6,54.3
		c-0.7,2.6-1.7,5.2-1.7,7.9c0,5.9,4.8,10.8,10.8,10.8c2.3,0,4.2-0.9,6.2-2l70.9-40.9c5.3-3.1,11-5,17.2-5c3.2,0,6.4,0.5,9.5,1.4
		c33.1,9.5,68.8,14.8,105.7,14.8c6,0,11.9-0.1,17.8-0.4c-7.1-21-10.9-43.1-10.9-66C394.8,487.4,527,377.4,690.1,377.4z M495.8,290.9
		c23.8,0,43.2,19.3,43.2,43.1c0,23.8-19.3,43.1-43.2,43.1c-23.8,0-43.2-19.3-43.2-43.1C452.6,310.2,472,290.9,495.8,290.9z
		 M279.9,377.1L279.9,377.1c-23.8,0-43.2-19.3-43.2-43.1c0-23.8,19.3-43.1,43.2-43.1s43.2,19.3,43.2,43.1
		C323.1,357.8,303.7,377.1,279.9,377.1z"/>
	<path d="M866.7,792.7c56.9-41.2,93.2-102,93.2-169.7c0-124-120.8-224.5-269.9-224.5c-149,0-269.9,100.5-269.9,224.5
		c0,124,120.8,224.5,269.9,224.5c30.8,0,60.6-4.4,88.1-12.3c2.6-0.8,5.2-1.2,7.9-1.2c5.2,0,9.9,1.6,14.3,4.1l59.1,34
		c1.7,1,3.3,1.7,5.2,1.7c2.4,0,4.7-0.9,6.4-2.6c1.7-1.7,2.6-4,2.6-6.4c0-2.2-0.9-4.4-1.4-6.6c-0.3-1.2-7.6-28.3-12.2-45.3
		c-0.5-1.9-0.9-3.8-0.9-5.7C859.2,801.3,862.2,796,866.7,792.7z M600.2,587.2c-19.9,0-36-16.1-36-35.9c0-19.8,16.1-35.9,36-35.9
		c19.9,0,36,16.1,36,35.9C636.2,571.1,620,587.2,600.2,587.2z M780.1,587.2c-19.9,0-36-16.1-36-35.9c0-19.8,16.1-35.9,36-35.9
		c19.9,0,36,16.1,36,35.9C816,571.1,799.9,587.2,780.1,587.2z"/>
</g>
</svg>
