<?xml version="1.0" encoding="utf-8"?>
<svg id="wechat" viewBox="0 0 1024 1024" version="1.1" xmlns="http://www.w3.org/2000/svg" xmlns:xlink="http://www.w3.org/1999/xlink">
  <path d="M917.426 833.958c65.005-47.126 106.552-116.817 106.552-194.271 0-141.95-138.068-257.006-308.437-257.006-170.326 0-308.416 115.057-308.416 257.006 0 141.95 138.09 257.027 308.416 257.027 35.206 0 69.204-5.026 100.699-14.103a31.085 31.085 0 0 1 9.056-1.358c5.938 0 11.283 1.803 16.394 4.751l67.486 38.981c1.909 1.103 3.733 1.91 5.96 1.91a10.282 10.282 0 0 0 10.286-10.287c0-2.545-1.018-5.069-1.655-7.508-0.381-1.42-8.695-32.45-13.891-51.813-0.594-2.205-1.082-4.305-1.082-6.574 0-6.914 3.394-13.022 8.632-16.755M612.743 598.563c-22.715 0-41.145-18.409-41.145-41.123 0-22.693 18.43-41.124 41.145-41.124 22.714 0 41.145 18.43 41.145 41.124 0 22.714-18.43 41.123-41.145 41.123m205.639 0c-22.715 0-41.124-18.409-41.124-41.123 0-22.693 18.41-41.124 41.124-41.124 22.693 0 41.102 18.43 41.102 41.124 0 22.714-18.409 41.123-41.102 41.123zM370.114 98.905c184.642 0 337.663 112.681 365.552 260.06-6.66-0.36-13.361-0.572-20.106-0.572-186.424 0-337.556 125.936-337.556 281.29 0 26.214 4.39 51.558 12.449 75.587-6.744 0.318-13.51 0.488-20.339 0.488-42.226 0-83.01-6.044-120.804-16.903a37.018 37.018 0 0 0-10.88-1.633c-7.105 0-13.574 2.163-19.66 5.684l-81.018 46.807c-2.27 1.273-4.454 2.27-7.126 2.27-6.83 0-12.343-5.515-12.343-12.323 0-3.054 1.209-6.108 1.993-9.035 0.467-1.739 10.435-38.96 16.67-62.183 0.721-2.63 1.294-5.154 1.294-7.869 0-8.292-4.093-15.63-10.35-20.106C49.864 583.925 0.002 500.257 0.002 407.342c0-170.326 165.703-308.437 370.112-308.437zM246.744 357.99c27.252 0 49.352-22.1 49.352-49.332 0-27.274-22.1-49.373-49.353-49.373s-49.352 22.099-49.352 49.373c0 27.232 22.1 49.332 49.352 49.332z m246.74 0c27.254 0 49.353-22.1 49.353-49.332 0-27.274-22.1-49.373-49.352-49.373-27.254 0-49.353 22.099-49.353 49.373 0 27.232 22.1 49.332 49.353 49.332z"></path>
</svg>