<?xml version="1.0" encoding="utf-8"?>
<!-- Generator: Adobe Illustrator 21.0.0, SVG Export Plug-In . SVG Version: 6.00 Build 0)  -->
<svg version="1.1" id="图层_1" xmlns="http://www.w3.org/2000/svg" xmlns:xlink="http://www.w3.org/1999/xlink" x="0px" y="0px"
	 viewBox="0 0 1024 1024" style="enable-background:new 0 0 1024 1024;" xml:space="preserve">
<style type="text/css">
	.st0{fill:none;}
</style>
<title>weibo-square-fill</title>
<desc>Created with Sketch.</desc>
<g>
	<path class="st0" d="M650.7,503.7c-7.8-2.3-13.1-3.9-9-14.1h0c8.8-22.2,9.7-41.4,0.2-55.1c-17.9-25.6-66.9-24.3-123.1-0.7
		c0,0-17.6,7.7-13.1-6.3c8.6-27.8,7.3-51.2-6.1-64.6c-30.5-30.6-111.6,1.2-181.1,70.8C266.2,485.8,236,541.1,236,588.9
		C236,680.4,353.1,736,467.6,736c150.1,0,250-87.4,250-156.8C717.6,537.3,682.3,513.5,650.7,503.7z M467.9,703.2
		c-91.4,9-170.3-32.3-176.2-92.5c-5.9-60.1,63.4-116.2,154.7-125.2c91.4-9.1,170.3,32.3,176.2,92.4
		C628.5,638.1,559.3,694.2,467.9,703.2z"/>
	<path class="st0" d="M686.6,468.2c9.6,3.1,19.8-2.2,22.9-11.7c7.6-23.5,2.8-50.2-14.9-69.8v0C677,367,651,359.6,626.9,364.7
		c-9.8,2.1-16.1,11.8-14,21.7c2.1,9.8,11.8,16.1,21.6,14v0c11.8-2.5,24.5,1.1,33.1,10.7c8.6,9.6,11,22.7,7.2,34.1h0
		C671.8,454.8,677.1,465,686.6,468.2z"/>
	<path class="st0" d="M477,531.8c-43.5-11.3-92.6,10.4-111.5,48.8c-19.2,39.2-0.6,82.6,43.3,96.8c45.5,14.7,99.1-7.8,117.8-50.1
		C545,586,522,543.5,477,531.8z M443.8,631.8c-8.8,14.1-27.8,20.3-42,13.8c-14-6.4-18.2-22.8-9.3-36.6c8.7-13.7,27-19.8,41.2-13.9
		C447.9,601.2,452.5,617.5,443.8,631.8z M472.9,594.4L472.9,594.4c-3.2,5.5-10.3,8.1-15.8,5.8c-5.4-2.2-7.2-8.4-4.1-13.8
		c3.2-5.4,10-8,15.4-5.8C474,582.6,476,588.8,472.9,594.4z"/>
	<path class="st0" d="M750.4,336.3c-36.2-40.3-89.7-55.6-139.1-45.1h0c-11.4,2.4-18.7,13.7-16.2,25.1c2.4,11.4,13.7,18.7,25.1,16.3
		c35.1-7.5,73.1,3.5,98.9,32.1c25.7,28.6,32.7,67.6,21.7,101.8l0,0c-3.6,11.1,2.5,23.1,13.6,26.7c11.1,3.6,23-2.5,26.6-13.6
		c0,0,0-0.1,0-0.1C796.4,431.4,786.6,376.5,750.4,336.3L750.4,336.3z"/>
	<path d="M433.6,595.1c-14.2-5.9-32.4,0.2-41.2,13.9c-8.8,13.8-4.7,30.2,9.3,36.6c14.3,6.5,33.2,0.3,42-13.8
		C452.5,617.5,447.9,601.2,433.6,595.1z"/>
	<path d="M880,112H144c-17.7,0-32,14.3-32,32v736c0,17.7,14.3,32,32,32h736c17.7,0,32-14.3,32-32V144C912,126.3,897.7,112,880,112z
		 M467.6,736C353.1,736,236,680.4,236,588.9c0-47.8,30.2-103.1,82.3-155.3c69.5-69.6,150.6-101.4,181.1-70.8
		c13.5,13.5,14.8,36.8,6.1,64.6c-4.5,14,13.1,6.3,13.1,6.3c56.2-23.6,105.2-25,123.1,0.7c9.6,13.7,8.6,32.8-0.2,55.1h0
		c-4.1,10.2,1.3,11.8,9,14.1c31.7,9.8,66.9,33.6,66.9,75.5C717.6,648.6,617.7,736,467.6,736z M674.9,445.2
		c3.7-11.5,1.4-24.5-7.2-34.1c-8.6-9.6-21.4-13.2-33.1-10.7v0c-9.8,2.1-19.5-4.2-21.6-14c-2.1-9.9,4.2-19.6,14-21.7
		c24.1-5.1,50.1,2.3,67.7,21.9v0c17.7,19.6,22.4,46.3,14.9,69.8c-3.1,9.6-13.3,14.8-22.9,11.7C677.1,465,671.8,454.8,674.9,445.2
		L674.9,445.2z M780.9,479.5C780.9,479.5,780.9,479.6,780.9,479.5c-3.6,11.2-15.5,17.3-26.6,13.7c-11.1-3.6-17.2-15.5-13.6-26.7l0,0
		c11-34.2,4-73.2-21.7-101.8c-25.8-28.6-63.8-39.5-98.9-32.1c-11.4,2.5-22.7-4.9-25.1-16.3c-2.5-11.4,4.8-22.7,16.2-25.1h0
		c49.4-10.5,102.8,4.8,139.1,45.1v0C786.6,376.5,796.4,431.4,780.9,479.5z"/>
	<path d="M446.4,485.6c-91.4,9-160.7,65.1-154.7,125.2c5.9,60.1,84.8,101.5,176.2,92.5c91.4-9.1,160.7-65.1,154.7-125.3
		C616.7,517.9,537.8,476.5,446.4,485.6z M526.6,627.3c-18.7,42.3-72.3,64.8-117.8,50.1c-43.9-14.2-62.5-57.7-43.3-96.8
		c18.9-38.4,68-60.1,111.5-48.8C522,543.5,545,586,526.6,627.3z"/>
	<path d="M468.5,580.6c-5.4-2.2-12.2,0.5-15.4,5.8c-3.1,5.4-1.4,11.5,4.1,13.8c5.5,2.3,12.6-0.3,15.8-5.8h0
		C476,588.8,474,582.6,468.5,580.6z"/>
</g>
</svg>
