<?xml version="1.0" encoding="utf-8"?>

<svg id="weib-o" viewBox="0 0 1024 1024">
  <path d="M751.98 470.104c16.334-41.112 18.027-76.574 0.311-101.869-33.207-47.437-124.08-44.886-228.25-1.275 0-0.054-32.706 14.314-24.345-11.642 16.022-51.507 13.615-94.64-11.322-119.554-56.505-56.55-206.783 2.141-335.67 130.968C56.203 463.247 0.161 565.542 0.161 654c0 169.194 216.966 272.05 429.232 272.05 278.239 0 463.334-161.669 463.334-290.017 0-77.546-65.313-121.551-124.004-139.761-14.405-4.306-24.292-7.26-16.744-26.168zM103.375 694.368C92.379 583.18 220.811 479.482 390.157 462.746c169.384-16.767 315.593 59.808 326.588 170.964 10.973 111.232-117.405 214.961-286.79 231.705-169.36 16.698-315.57-59.838-326.58-171.047z m343.514-146.049c-80.599-20.981-171.7 19.19-206.707 90.213-35.652 72.428-1.177 152.83 80.243 179.119 84.358 27.193 183.766-14.489 218.348-92.658 34.088-76.43-8.482-155.123-91.884-176.674z m-61.554 184.974c-16.38 26.13-51.462 37.581-77.896 25.522-26.038-11.846-33.715-42.22-17.328-67.705 16.182-25.37 50.08-36.692 76.316-25.69 26.525 11.308 35.007 41.462 18.908 67.873z m53.968-69.277c-5.923 10.145-19.022 15.005-29.273 10.783-10.1-4.146-13.259-15.476-7.526-25.439 5.908-9.902 18.499-14.731 28.56-10.752 10.229 3.75 13.897 15.217 8.24 25.408z m514.19-477.36c67.234 74.418 85.345 175.869 56.656 264.897-0.007 0.046-0.007 0.121-0.007 0.152-6.668 20.548-28.75 31.817-49.314 25.158-20.64-6.66-31.908-28.704-25.241-49.329l-0.008-0.023c20.435-63.262 7.48-135.448-40.238-188.353-47.795-52.905-118.218-73.134-183.304-59.321-21.163 4.533-41.985-8.991-46.48-30.132-4.55-21.133 8.96-41.97 30.108-46.48h0.03c91.497-19.448 190.617 8.937 257.798 83.43z m-103.198 93.12v-0.007c32.782 36.283 41.537 85.672 27.527 129.062-5.718 17.724-24.717 27.398-42.456 21.725-17.724-5.756-27.413-24.778-21.703-42.47h-0.023c6.888-21.21 2.575-45.388-13.425-63.142-16.008-17.693-39.631-24.406-61.418-19.79v-0.037c-18.171 3.964-36.085-7.715-39.988-25.864-3.91-18.24 7.7-36.176 25.925-40.057 44.582-9.477 92.863 4.313 125.561 40.58z"></path>
</svg>