<?xml version="1.0" encoding="utf-8"?>
<svg id="weibo-square" viewBox="0 0 1024 1024" version="1.1" xmlns="http://www.w3.org/2000/svg" xmlns:xlink="http://www.w3.org/1999/xlink">
  <path d="M437.5 481.8C329.1 492.5 247 558.9 254 630s100.6 120.1 208.9 109.4c108.3-10.7 190.5-77.1 183.4-148.2-7-71.1-100.5-120.1-208.8-109.4z m95 167.8c-22.1 50-85.7 76.7-139.7 59.3-52.1-16.8-74.1-68.3-51.3-114.6 22.4-45.4 80.7-71.1 132.2-57.7 53.4 13.7 80.6 64.1 58.8 113z"></path>
  <path d="M888 64H136c-39.8 0-72 32.2-72 72v752c0 39.8 32.2 72 72 72h752c39.8 0 72-32.2 72-72V136c0-39.8-32.2-72-72-72zM462.6 778.2c-135.8 0-274.6-65.8-274.6-174 0-56.6 35.8-122 97.6-183.8 82.4-82.4 178.6-120 214.7-83.8 16 15.9 17.5 43.5 7.2 76.5-5.3 16.6 15.6 7.4 15.6 7.4 66.6-27.9 124.8-29.5 146 0.8 11.3 16.2 10.2 38.9-0.2 65.2-4.8 12.1 1.5 14 10.7 16.7 37.5 11.7 79.3 39.8 79.3 89.4 0 82.2-118.4 185.6-296.3 185.6zM708.3 434c4.4-13.6 1.6-29-8.6-40.4-10.2-11.3-25.3-15.6-39.3-12.7-11.6 2.5-23.1-4.9-25.6-16.5-2.5-11.7 4.9-23.1 16.6-25.6 28.5-6.1 59.4 2.8 80.3 26 21 23.2 26.6 54.8 17.6 82.6-3.7 11.3-15.8 17.5-27.2 13.9-11.2-3.8-17.4-15.9-13.8-27.3zM834 474.6c0 0.1 0 0.1 0 0-4.3 13.2-18.4 20.5-31.5 16.2-13.2-4.3-20.4-18.4-16.1-31.6 13.1-40.5 4.8-86.7-25.7-120.5-30.6-33.8-75.6-46.8-117.3-38-13.5 2.9-26.9-5.8-29.7-19.3-2.9-13.5 5.7-26.9 19.3-29.7 58.5-12.4 121.9 5.7 164.9 53.4 42.9 47.7 54.5 112.6 36.1 169.5z"></path>
  <path d="M422.3 611.5c-16.8-7-38.5 0.2-48.8 16.4-10.5 16.3-5.6 35.7 11.1 43.3 16.9 7.7 39.3 0.4 49.8-16.3 10.3-16.9 4.8-36.2-12.1-43.4zM463.6 594.3c-6.4-2.5-14.5 0.5-18.3 6.9-3.7 6.4-1.6 13.6 4.8 16.3 6.6 2.7 14.9-0.4 18.7-6.9 3.7-6.5 1.4-13.9-5.2-16.3z"></path>
</svg>