<?xml version="1.0" encoding="utf-8"?>
<!-- Generator: Adobe Illustrator 21.0.0, SVG Export Plug-In . SVG Version: 6.00 Build 0)  -->
<svg version="1.1" id="图层_1" xmlns="http://www.w3.org/2000/svg" xmlns:xlink="http://www.w3.org/1999/xlink" x="0px" y="0px"
	 viewBox="0 0 1024 1024" style="enable-background:new 0 0 1024 1024;" xml:space="preserve">
<style type="text/css">
	.st0{fill:none;}
</style>
<title>weibo</title>
<desc>Created with Sketch.</desc>
<g>
	<path class="st0" d="M443.9,619.2c-8.5-3.4-19.1,0.7-24.1,9.1c-4.8,8.4-2.2,18,6.4,21.5c8.7,3.6,19.7-0.5,24.7-9.1h0
		C455.6,632.1,452.5,622.4,443.9,619.2z"/>
	<path class="st0" d="M409.3,470.7c-143,14.1-251.5,101.7-242.2,195.6c9.3,93.9,132.8,158.6,275.8,144.5
		C586,796.6,694.4,709,685.1,615.1C675.9,521.2,552.4,456.5,409.3,470.7z M534.8,692.2c-29.2,66-113.2,101.2-184.4,78.3
		c-68.8-22.2-97.9-90.1-67.8-151.3c29.6-60,106.5-93.9,174.6-76.2C527.7,561.2,563.6,627.6,534.8,692.2z"/>
	<path class="st0" d="M389.3,641.9c-22.2-9.3-50.8,0.3-64.4,21.7c-13.8,21.5-7.4,47.2,14.6,57.2c22.3,10.2,51.9,0.5,65.8-21.6
		C418.9,676.9,411.7,651.4,389.3,641.9z"/>
	<path d="M457.3,543c-68.1-17.7-145,16.2-174.6,76.2c-30.1,61.2-1,129.1,67.8,151.3c71.2,23,155.2-12.2,184.4-78.3
		C563.6,627.6,527.7,561.2,457.3,543z M405.3,699.2c-13.8,22.1-43.5,31.7-65.8,21.6c-22-10-28.5-35.7-14.6-57.2
		c13.7-21.4,42.3-31,64.4-21.7C411.7,651.4,418.9,676.9,405.3,699.2z M450.8,640.7L450.8,640.7c-5,8.6-16.1,12.7-24.7,9.1
		c-8.5-3.5-11.2-13.1-6.4-21.5c5-8.4,15.6-12.4,24.1-9.1C452.5,622.4,455.6,632.1,450.8,640.7z"/>
	<path d="M785.3,443.5c15,4.8,31-3.4,35.9-18.3c11.8-36.6,4.4-78.4-23.2-109v0c-27.6-30.6-68.4-42.3-106-34.3
		c-15.4,3.3-25.2,18.4-21.9,33.8c3.3,15.3,18.4,25.2,33.8,21.8v0c18.4-3.9,38.3,1.8,51.9,16.7c13.5,15,17.2,35.4,11.3,53.3h0
		C762.2,422.6,770.3,438.6,785.3,443.5z"/>
	<path d="M885.1,237.5L885.1,237.5c-56.7-62.9-140.4-86.9-217.7-70.5h0c-17.9,3.8-29.3,21.4-25.4,39.3c3.8,17.9,21.4,29.3,39.3,25.5
		c55-11.7,114.4,5.4,154.8,50.1c40.3,44.7,51.2,105.7,34,159.1l0,0c-5.6,17.4,3.9,36,21.3,41.7c17.4,5.6,36-3.9,41.6-21.2
		c0,0,0-0.1,0-0.1C957.1,386,941.9,300.3,885.1,237.5z"/>
	<path d="M729,499c-12.2-3.6-20.5-6.1-14.1-22.1h0c13.8-34.7,15.2-64.7,0.3-86c-28-40.1-104.8-37.9-192.8-1.1
		c0,0-27.6,12.1-20.6-9.8c13.5-43.5,11.5-79.9-9.6-101c-47.7-47.8-174.6,1.8-283.5,110.6C127.3,471.1,80,557.5,80,632.2
		C80,775.1,263.2,862,442.5,862c235,0,391.3-136.5,391.3-245C833.8,551.5,778.6,514.4,729,499z M443,810.8
		c-143,14.1-266.5-50.5-275.8-144.5c-9.3-93.9,99.2-181.5,242.2-195.6c143-14.2,266.5,50.5,275.8,144.4
		C694.4,709,586,796.6,443,810.8z"/>
</g>
</svg>
