<?xml version="1.0" encoding="utf-8"?>
<!-- Generator: Adobe Illustrator 21.0.0, SVG Export Plug-In . SVG Version: 6.00 Build 0)  -->
<svg version="1.1" id="图层_1" xmlns="http://www.w3.org/2000/svg" xmlns:xlink="http://www.w3.org/1999/xlink" x="0px" y="0px"
	 viewBox="0 0 1024 1024" style="enable-background:new 0 0 1024 1024;" xml:space="preserve">
<title>wifi</title>
<desc>Created with Sketch.</desc>
<g>
	<path d="M723,620.5C666.8,571.6,593.4,542,513,542s-153.8,29.6-210.1,78.6c-3.2,2.8-3.6,7.8-0.8,11.2l36,42.9
		c2.9,3.4,8,3.8,11.4,0.9C393.1,637.2,450.3,614,513,614s119.9,23.2,163.5,61.5c3.4,2.9,8.5,2.5,11.4-0.9l36-42.9
		C726.7,628.4,726.3,623.4,723,620.5z"/>
	<path d="M840.4,480.4C751.7,406.5,637.6,362,513,362s-238.7,44.5-327.5,118.4c-3.4,2.8-3.8,7.9-1,11.3l36,42.9
		c2.8,3.4,7.9,3.8,11.2,1C308,472.2,406.1,434,513,434s205,38.2,281.2,101.6c3.4,2.8,8.4,2.4,11.2-1l36-42.9
		C844.2,488.3,843.8,483.2,840.4,480.4z"/>
	<path d="M957.1,341.4C835.7,241.8,680.3,182,511,182c-168.2,0-322.6,59-443.7,157.4c-3.5,2.8-4,7.9-1.1,11.4l36,42.9
		c2.8,3.3,7.8,3.8,11.1,1.1C222,306.7,360.3,254,511,254c151.8,0,291,53.5,400,142.7c3.4,2.8,8.4,2.3,11.2-1.1l36-42.9
		C961.1,349.3,960.6,344.2,957.1,341.4z"/>
	<circle cx="512" cy="778" r="64"/>
</g>
</svg>
