<?xml version="1.0" encoding="utf-8"?>
<svg id="wifi" viewBox="0 0 1024 1024" version="1.1" xmlns="http://www.w3.org/2000/svg" xmlns:xlink="http://www.w3.org/1999/xlink">
  <path d="M963.6 319.5c-249.9-249.9-655.2-249.9-905.1 0-14.1 14.1-14.1 36.9 0 50.9 14.1 14.1 36.9 14.1 50.9 0 221.8-221.8 581.5-221.8 803.3 0 14.1 14.1 36.9 14.1 50.9 0 14-14 14-36.8 0-50.9z"></path>
  <path d="M194.2 474.3c-14.1 14.1-14.1 36.9 0 50.9 14.1 14.1 36.9 14.1 50.9 0 146.8-146.8 384.9-146.8 531.7 0 14.1 14.1 36.9 14.1 50.9 0 14.1-14.1 14.1-36.9 0-50.9-174.9-174.9-458.5-174.9-633.5 0z"></path>
  <path d="M692.6 638.5l0.2-0.2c-100-100-262.1-100-362 0-14.1 14.1-14.1 36.9 0 50.9 14.1 14.1 36.9 14.1 50.9 0 71.9-71.9 188.4-71.9 260.2 0l0.2-0.2c0.8 1 1.7 2 2.7 3 14.1 14.1 36.9 14.1 50.9 0 14.1-14.1 14.1-36.9 0-50.9-1.1-0.9-2.1-1.7-3.1-2.6z"></path>
  <path d="M512 842m-54 0a54 54 0 1 0 108 0 54 54 0 1 0-108 0Z"></path>
</svg>