<?xml version="1.0" encoding="utf-8"?>
<!-- Generator: Adobe Illustrator 21.0.0, SVG Export Plug-In . SVG Version: 6.00 Build 0)  -->
<svg version="1.1" id="图层_1" xmlns="http://www.w3.org/2000/svg" xmlns:xlink="http://www.w3.org/1999/xlink" x="0px" y="0px"
	 viewBox="0 0 1024 1024" style="enable-background:new 0 0 1024 1024;" xml:space="preserve">
<style type="text/css">
	.st0{fill:none;}
</style>
<title>woman</title>
<desc>Created with Sketch.</desc>
<g>
	<path class="st0" d="M400,412c-116.9,0-212,95.1-212,212c0,116.9,95.1,212,212,212c116.9,0,212-95.1,212-212
		C612,507.1,516.9,412,400,412z"/>
	<path d="M909.7,156.6l-42.2-42.2c-3.1-3.1-8.2-3.1-11.3,0l-92.2,92.2l-84.2-84.2c-3.1-3.1-8.2-3.1-11.3,0l-42.1,42.1
		c-3.1,3.1-3.1,8.1,0,11.3l84.2,84.2L575.1,395.3c-50-38.5-111-59.3-175.1-59.3c-76.9,0-149.3,30-203.6,84.4S112,547.1,112,624
		s30,149.3,84.4,203.6C250.7,882,323.1,912,400,912s149.3-30,203.6-84.4C658,773.3,688,700.9,688,624c0-64.2-20.9-125.1-59.3-175.1
		l135.4-135.4l84.2,84.2c3.1,3.1,8.2,3.1,11.3,0l42.1-42.1c3.1-3.1,3.1-8.1,0-11.3l-84.2-84.2l92.2-92.2
		C912.8,164.8,912.8,159.7,909.7,156.6z M400,836c-116.9,0-212-95.1-212-212c0-116.9,95.1-212,212-212c116.9,0,212,95.1,212,212
		C612,740.9,516.9,836,400,836z"/>
</g>
</svg>
