<?xml version="1.0" encoding="utf-8"?>

<svg id="youtube" viewBox="0 0 1024 1024">
  <path d="M1002.6 263.657c21.4 80.373 21.4 248.07 21.4 248.07s0 167.692-21.4 248.076c-11.775 44.34-46.47 79.261-90.53 91.118C832.215 872.455 512 872.455 512 872.455s-320.215 0-400.07-21.534c-44.055-11.857-78.755-46.778-90.53-91.118C0 679.419 0 511.727 0 511.727s0-167.697 21.4-248.07c11.775-44.346 46.475-79.266 90.53-91.118C191.785 151 512 151 512 151s320.215 0 400.07 21.539c44.06 11.852 78.755 46.772 90.53 91.118zM407.274 663.983l267.636-152.25-267.636-152.262v304.512z"></path>
</svg>