<?xml version="1.0" encoding="utf-8"?>
<!-- Generator: Adobe Illustrator 21.0.0, SVG Export Plug-In . SVG Version: 6.00 Build 0)  -->
<svg version="1.1" id="图层_1" xmlns="http://www.w3.org/2000/svg" xmlns:xlink="http://www.w3.org/1999/xlink" x="0px" y="0px"
	 viewBox="0 0 1024 1024" style="enable-background:new 0 0 1024 1024;" xml:space="preserve">
<style type="text/css">
	.st0{fill:none;}
</style>
<title>Youtube</title>
<desc>Created with Sketch.</desc>
<g>
	<path class="st0" d="M887.9,502.4c-0.1-7.8-0.3-16.4-0.5-25.7c-0.7-26.6-2.1-53.2-4.2-77.9c-2.7-32.2-6.5-58.6-11.2-76.3
		c-6.2-23.1-24.4-41.3-47.4-47.5c-21-5.6-73.9-10.1-145.8-12.8c-36.4-1.4-75.6-2.3-114.7-2.8c-13.7-0.2-26.4-0.3-37.8-0.3
		c-4,0-7.5,0-10.6,0c-1.1,0-2,0-2.8,0c-2.6,0-3.5,0-4.6,0c-3,0-6.6,0-10.6,0c-11.4,0.1-24.1,0.2-37.8,0.3
		c-39.1,0.5-78.2,1.4-114.7,2.8c-71.9,2.8-124.9,7.2-145.8,12.8c-23,6.2-41.2,24.4-47.4,47.5c-4.7,17.7-8.5,44-11.2,76.3
		c-2.1,24.7-3.4,51.3-4.2,77.9c-0.3,9.3-0.4,18-0.5,25.7c0,2.7-0.1,5.1-0.1,7.1c0,0.7,0,1.3,0,1.8c0,1.7,0,2.3,0,3
		c0,2.1,0,4.4,0.1,7.1c0.1,7.8,0.3,16.4,0.5,25.7c0.7,26.6,2.1,53.2,4.2,77.9c2.7,32.2,6.5,58.6,11.2,76.3
		c6.2,23.1,24.4,41.3,47.4,47.5c20.9,5.6,73.9,10.1,145.8,12.8c36.4,1.4,75.6,2.3,114.7,2.8c13.7,0.2,26.4,0.3,37.8,0.3
		c4,0,7.5,0,10.6,0c1.1,0,2,0,2.8,0c2.6,0,3.5,0,4.6,0c3,0,6.6,0,10.6,0c11.4-0.1,24.1-0.2,37.8-0.3c39.1-0.5,78.2-1.4,114.7-2.8
		c71.9-2.8,124.9-7.2,145.8-12.8c23-6.2,41.2-24.4,47.4-47.5c4.7-17.7,8.5-44,11.2-76.3c2.1-24.7,3.4-51.3,4.2-77.9
		c0.3-9.3,0.4-18,0.5-25.7c0-2.7,0.1-5.1,0.1-7.1c0-0.7,0-1.3,0-1.8c0-1.7,0-2.3,0-3C888,507.5,888,505.1,887.9,502.4z M423,646V378
		l232,133L423,646z"/>
	<path d="M960,509.2c0-2.2,0-4.7-0.1-7.6c-0.1-8.1-0.3-17.2-0.5-26.9c-0.8-27.9-2.2-55.7-4.4-81.9c-3-36.1-7.4-66.2-13.4-88.8
		c-12.8-47.9-50.4-85.6-98.3-98.5c-28.3-7.6-83.7-12.3-161.7-15.2c-37.1-1.4-76.8-2.3-116.5-2.8c-13.9-0.2-26.8-0.3-38.4-0.4
		c-4.1,0-7.7,0-10.8,0c-1.1,0-2,0-4.9,0c-0.8,0-1.8,0-2.9,0c-3.1,0-6.7,0-10.8,0c-11.6,0.1-24.5,0.2-38.4,0.4
		c-39.7,0.5-79.4,1.4-116.5,2.8c-78,3-133.5,7.7-161.7,15.2C132.9,218.3,95.2,256,82.4,304c-6.1,22.6-10.4,52.7-13.4,88.8
		c-2.2,26.2-3.6,54-4.4,81.9c-0.3,9.7-0.4,18.8-0.5,26.9c0,2.9-0.1,5.4-0.1,7.6c0,1.3,0,2.3,0,2.8s0,1.5,0,2.8c0,2.2,0,4.7,0.1,7.6
		c0.1,8.1,0.3,17.2,0.5,26.9c0.8,27.9,2.2,55.7,4.4,81.9c3,36.1,7.4,66.2,13.4,88.8c12.8,47.9,50.4,85.7,98.3,98.5
		c28.2,7.6,83.7,12.3,161.7,15.2c37.1,1.4,76.8,2.3,116.5,2.8c13.9,0.2,26.8,0.3,38.4,0.4c4.1,0,7.7,0,10.8,0c1.1,0,2,0,4.9,0
		c0.8,0,1.8,0,2.9,0c3.1,0,6.7,0,10.8,0c11.6-0.1,24.5-0.2,38.4-0.4c39.7-0.5,79.4-1.4,116.5-2.8c78-3,133.5-7.7,161.7-15.2
		c47.9-12.8,85.5-50.5,98.3-98.5c6.1-22.6,10.4-52.7,13.4-88.8c2.2-26.2,3.6-54,4.4-81.9c0.3-9.7,0.4-18.8,0.5-26.9
		c0-2.9,0.1-5.4,0.1-7.6c0-1.3,0-2.3,0-2.8S960,510.5,960,509.2z M888,514.4c0,2.1,0,4.4-0.1,7.1c-0.1,7.8-0.3,16.4-0.5,25.7
		c-0.7,26.6-2.1,53.2-4.2,77.9c-2.7,32.2-6.5,58.6-11.2,76.3c-6.2,23.1-24.4,41.4-47.4,47.5c-21,5.6-73.9,10.1-145.8,12.8
		c-36.4,1.4-75.6,2.3-114.7,2.8c-13.7,0.2-26.4,0.3-37.8,0.3c-4,0-7.5,0-10.6,0c-1.1,0-2,0-4.6,0c-0.8,0-1.7,0-2.8,0
		c-3,0-6.6,0-10.6,0c-11.4-0.1-24.1-0.2-37.8-0.3c-39.1-0.5-78.2-1.4-114.7-2.8c-71.9-2.8-124.9-7.2-145.8-12.8
		c-23-6.2-41.2-24.4-47.4-47.5c-4.7-17.7-8.5-44.1-11.2-76.3c-2.1-24.7-3.4-51.3-4.2-77.9c-0.3-9.3-0.4-18-0.5-25.7
		c0-2.7-0.1-5.1-0.1-7.1c0-0.7,0-1.3,0-3c0-0.5,0-1.1,0-1.8c0-2.1,0-4.4,0.1-7.1c0.1-7.8,0.3-16.4,0.5-25.7
		c0.7-26.6,2.1-53.2,4.2-77.9c2.7-32.2,6.5-58.6,11.2-76.3c6.2-23.1,24.4-41.4,47.4-47.5c21-5.6,73.9-10.1,145.8-12.8
		c36.4-1.4,75.6-2.3,114.7-2.8c13.7-0.2,26.4-0.3,37.8-0.3c4,0,7.5,0,10.6,0c1.1,0,2,0,4.6,0c0.8,0,1.7,0,2.8,0c3,0,6.6,0,10.6,0
		c11.4,0.1,24.1,0.2,37.8,0.3c39.1,0.5,78.2,1.4,114.7,2.8c71.9,2.8,124.9,7.2,145.8,12.8c23,6.2,41.2,24.4,47.4,47.5
		c4.7,17.7,8.5,44.1,11.2,76.3c2.1,24.7,3.4,51.3,4.2,77.9c0.3,9.3,0.4,18,0.5,25.7c0,2.7,0.1,5.1,0.1,7.1c0,0.7,0,1.3,0,3
		C888,513.1,888,513.7,888,514.4z"/>
	<polygon points="423,646 655,511 423,378 	"/>
</g>
</svg>
