<?xml version="1.0" encoding="utf-8"?>
<svg id="yuque" viewBox="0 0 1024 1024" version="1.1" xmlns="http://www.w3.org/2000/svg" xmlns:xlink="http://www.w3.org/1999/xlink">
  <path d="M877.4 357.3c-10.6-43.1 10.6-111.7 78.7-136.1l-72.8-4S855.8 118.8 729.4 110c-126.4-8.8-209.1-3.3-209.1-3.3s93.8 60.8 56.2 169.2c-27.4 57.5-70.5 104.6-116.7 158.3-1.4 1.5-2.7 2.8-3.8 4.1C303.5 613.6 64 892.4 64 892.4c263.7 70.5 440.4-6.8 544.9-99.6 22-0.2 38.5-0.3 49.6-0.3 145.6 0 268.7-128.6 263.7-271.6-3.5-98.4-34.2-120.6-44.8-163.6z"></path>
</svg>