<?xml version="1.0" encoding="utf-8"?>

<svg id="zhihu" viewBox="0 0 1024 1024">
  <path d="M353.22 564.177h192.528c0-45.995-21.32-72.934-21.32-72.934h-167.12c3.97-83.298 7.527-190.191 8.821-229.914h158.946s-0.882-68.305-18.526-68.305H227.092s16.821-89.331 39.23-128.785c0 0-83.429-4.57-111.895 108.416-28.466 112.986-71.136 181.29-75.635 193.775-4.529 12.484 24.555 5.913 36.847 0 12.292-5.914 67.93-26.283 84.105-105.1h86.368c1.177 49.966 4.588 203.063 3.53 229.913H111.756c-25.231 18.398-33.612 72.934-33.612 72.934h203.292c-8.499 57.016-23.379 130.517-44.2 169.464-32.965 61.794-50.433 118.272-169.414 215.458 0 0-19.409 14.455 40.729 9.199 60.167-5.257 117.07-21.027 156.534-101.159a1047.263 1047.263 0 0 0 58.256-148.138l-0.059 0.209 167.533 195.895s21.996-52.565 5.822-110.357l-124.186-141.27-42.052 31.6-0.03 0.149c11.675-41.575 20.056-82.671 22.673-118.422l0.206-2.628h-0.03zM585.86 178.57v677.913h70.165l28.76 81.626 121.629-81.626h153.3V178.57H585.86z m301.63 605.009h-79.694l-99.367 66.662-23.496-66.662h-24.79V254.22H887.46v529.357h0.03z"></path>
</svg>