<?xml version="1.0" encoding="utf-8"?>
<!-- Generator: Adobe Illustrator 21.0.0, SVG Export Plug-In . SVG Version: 6.00 Build 0)  -->
<svg version="1.1" id="图层_1" xmlns="http://www.w3.org/2000/svg" xmlns:xlink="http://www.w3.org/1999/xlink" x="0px" y="0px"
	 viewBox="0 0 1024 1024" style="enable-background:new 0 0 1024 1024;" xml:space="preserve">
<title>alibabacloud</title>
<desc>Created with Sketch.</desc>
<g>
	<path d="M959.2,383.9c-0.3-82.1-66.9-148.6-149.1-148.6H575.9l21.6,85.2l201,43.7c18.3,4.2,32.1,20.3,32.9,39.7
		c0.1,0.5,0.1,216.1,0,216.6c-0.8,19.4-14.6,35.5-32.9,39.7l-201,43.7l-21.6,85.3h234.2c82.1,0,148.8-66.5,149.1-148.6L959.2,383.9z
		"/>
	<path d="M225.5,660.4c-18.3-4.2-32.1-20.3-32.9-39.7c-0.1-0.6-0.1-216.1,0-216.6c0.8-19.4,14.6-35.5,32.9-39.7l201-43.7l21.6-85.2
		H213.8c-82.1,0-148.8,66.4-149.1,148.6v256.9c0.3,82.1,67,148.6,149.1,148.6H448l-21.6-85.3L225.5,660.4z"/>
	<rect x="426.4" y="501.6" width="171" height="21.3"/>
</g>
</svg>
