<?xml version="1.0" encoding="utf-8"?>
<!-- Generator: Adobe Illustrator 21.0.0, SVG Export Plug-In . SVG Version: 6.00 Build 0)  -->
<svg version="1.1" id="图层_1" xmlns="http://www.w3.org/2000/svg" xmlns:xlink="http://www.w3.org/1999/xlink" x="0px" y="0px"
	 viewBox="0 0 1024 1024" style="enable-background:new 0 0 1024 1024;" xml:space="preserve">
<style type="text/css">
	.st0{fill:none;}
</style>
<title>alipay-square-fill</title>
<desc>Created with Sketch.</desc>
<g>
	<path class="st0" d="M647.3,568.8c28.5-49.4,51.3-105.6,66.2-166.8H557.1v-56.2h191.7v-31.3H557.1v-93.6h-78.2
		c-13.7,0-13.7,13.5-13.7,13.5v80.1H271.3v31.3h193.8V402h-160v31.3h310.4c-11.4,39-26.6,75.6-44.7,108.9
		c-100.7-33.1-208.2-60-275.7-43.4c-43.2,10.6-71,29.5-87.3,49.4c-75,90.9-21.2,229,137.2,229c93.6,0,183.8-52,253.7-137.8
		c104.3,50,310.7,135.7,310.7,135.7V652.9c0,0-25.9-2.1-140.2-40.2C737.4,602.1,694.8,585.9,647.3,568.8z M330.1,724.3
		c-123.5,0-160-96.9-99-150c20.4-17.9,57.6-26.7,77.4-28.6c73.4-7.2,141.2,20.7,221.4,59.6C473.6,678.6,401.9,724.3,330.1,724.3z"/>
	<path d="M308.6,545.7c-19.8,2-57.1,10.7-77.4,28.6c-61,53-24.5,150,99,150c71.8,0,143.5-45.7,199.8-119
		C449.8,566.4,381.9,538.5,308.6,545.7z"/>
	<path d="M880,112H144c-17.7,0-32,14.3-32,32v736c0,17.7,14.3,32,32,32h736c17.7,0,32-14.3,32-32V144C912,126.3,897.7,112,880,112z
		 M909.4,775.2c0,0-206.4-85.8-310.7-135.7c-69.9,85.7-160.1,137.8-253.7,137.8c-158.4,0-212.1-138.1-137.2-229
		c16.3-19.8,44.2-38.7,87.3-49.4c67.5-16.5,175,10.3,275.7,43.4c18.1-33.3,33.4-69.9,44.7-108.9H305.1V402h160v-56.2H271.3v-31.3
		h193.8v-80.1c0,0,0-13.5,13.7-13.5h78.2v93.6h191.7v31.3H557.1V402h156.4c-15,61.1-37.7,117.4-66.2,166.8
		c47.5,17.1,90.1,33.3,121.8,43.9c114.3,38.2,140.2,40.2,140.2,40.2V775.2z"/>
</g>
</svg>
