<?xml version="1.0" encoding="utf-8"?>
<!-- Generator: Adobe Illustrator 21.0.0, SVG Export Plug-In . SVG Version: 6.00 Build 0)  -->
<svg version="1.1" id="图层_1" xmlns="http://www.w3.org/2000/svg" xmlns:xlink="http://www.w3.org/1999/xlink" x="0px" y="0px"
	 viewBox="0 0 1024 1024" style="enable-background:new 0 0 1024 1024;" xml:space="preserve">
<title>alipay-circle-fill</title>
<desc>Created with Sketch.</desc>
<g>
	<path d="M308.6,545.7c-19.8,2-57.1,10.7-77.4,28.6c-61,53-24.5,150,99,150c71.8,0,143.5-45.7,199.8-119
		C449.8,566.4,381.9,538.5,308.6,545.7z"/>
	<path d="M769.1,612.7c100.1,33.4,154.7,43,166.7,44.8C951.5,611.9,960,563,960,512c0-247.4-200.6-448-448-448S64,264.6,64,512
		s200.6,448,448,448c155.9,0,293.2-79.7,373.5-200.5c-75.6-29.8-213.6-85-286.8-120.1c-69.9,85.7-160.1,137.8-253.7,137.8
		c-158.4,0-212.1-138.1-137.2-229c16.3-19.8,44.2-38.7,87.3-49.4c67.5-16.5,175,10.3,275.7,43.4c18.1-33.3,33.4-69.9,44.7-108.9
		H305.1V402h160v-56.2H271.3v-31.3h193.8v-80.1c0,0,0-13.5,13.7-13.5h78.2v93.6h191.7v31.3H557.1V402h156.4
		c-15,61.1-37.7,117.4-66.2,166.8C694.8,585.9,737.4,602.1,769.1,612.7z"/>
</g>
</svg>
