<?xml version="1.0" encoding="utf-8"?>
<!-- Generator: Adobe Illustrator 21.0.0, SVG Export Plug-In . SVG Version: 6.00 Build 0)  -->
<svg version="1.1" id="图层_1" xmlns="http://www.w3.org/2000/svg" xmlns:xlink="http://www.w3.org/1999/xlink" x="0px" y="0px"
	 viewBox="0 0 1024 1024" style="enable-background:new 0 0 1024 1024;" xml:space="preserve">
<style type="text/css">
	.st0{fill:none;}
</style>
<title>aliwangwang</title>
<desc>Created with Sketch.</desc>
<g>
	<path class="st0" d="M801.8,404.2L801.8,404.2c-15.3-36.5-37.5-69.4-65.9-97.9c-28.2-28.2-61.1-50.5-97.8-66
		c-37.8-16-78-24.2-119.7-24.2c-34.1,0-67.4,5.4-98.9,16.2l-19.9,6.8l-19-8.9c-32.4-15.1-71.1-26.1-114.9-32.6
		c-23.8-3.5-44.8-5-59.7-5.6l51.2,128.9l9.5,23.9L253.6,367c-28,47.3-42.8,101.6-42.8,157c0,41.7,8.1,82,24.1,119.9v0.1
		c15.3,36.5,37.4,69.4,65.8,97.8c28.2,28.2,61.1,50.5,97.8,66c37.9,16,78.1,24.2,119.7,24.2c41.6,0,81.9-8.2,119.9-24.2h0.1
		c36.4-15.3,69.2-37.5,97.7-65.9c28.2-28.2,50.4-61.2,65.9-98c16-37.8,24.1-78.2,24.2-119.8C826,482.3,817.8,441.9,801.8,404.2
		L801.8,404.2z M543,456.4c0,20.4-16.6,37.1-37.1,37.1c-20.4,0-37.1-16.7-37.1-37.1v-55.1c0-20.4,16.6-37.1,37.1-37.1
		c20.4,0,37.1,16.6,37.1,37.1V456.4z M718.2,456.4c0,20.4-16.6,37.1-37.1,37.1c-20.5,0-37.1-16.7-37.1-37.1v-55.1
		c0-20.4,16.7-37.1,37.1-37.1c20.4,0,37.1,16.6,37.1,37.1V456.4z"/>
	<path d="M868.2,377.4c-18.9-45.1-46.3-85.6-81.2-120.6c-34.7-34.8-75.4-62.1-120.5-81.2c-46.7-19.8-96.3-29.8-147.5-29.8
		c-41.9,0-82.9,6.7-121.9,20C306,123.3,200.8,120,170.6,120c-2.2,0-7.4,0-9.4,0.2c-11.9,0.4-22.8,6.5-29.2,16.4
		c-6.5,9.9-7.7,22.4-3.4,33.5l64.3,161.6c-34.6,58.3-52.8,125.1-52.8,193.2c0,51.4,10,101,29.8,147.6c18.9,45,46.2,85.6,81.2,120.5
		c34.7,34.8,75.4,62.1,120.5,81.2C418.3,894,467.9,904,519,904c51.3,0,100.9-10.1,147.7-29.8c44.9-18.9,85.5-46.3,120.4-81.2
		c34.7-34.8,62.1-75.4,81.2-120.6c19.8-46.7,29.8-96.5,29.8-147.6C897.9,473.6,888,424,868.2,377.4z M801.8,643.9
		c-15.5,36.8-37.7,69.7-65.9,98c-28.4,28.5-61.3,50.7-97.7,65.9h-0.1c-38,16-78.3,24.2-119.9,24.2c-41.6,0-81.8-8.2-119.7-24.2
		c-36.7-15.5-69.6-37.8-97.8-66c-28.4-28.5-50.6-61.4-65.8-97.8v-0.1c-16-37.8-24.1-78.2-24.1-119.9c0-55.4,14.8-109.7,42.8-157
		l13.2-22.1l-9.5-23.9L206,192c14.9,0.6,35.9,2.1,59.7,5.6c43.8,6.5,82.5,17.5,114.9,32.6l19,8.9l19.9-6.8
		c31.5-10.8,64.8-16.2,98.9-16.2c41.6,0,81.9,8.2,119.7,24.2c36.7,15.5,69.6,37.8,97.8,66c28.4,28.5,50.6,61.4,65.8,97.8l0.1,0.1
		l0.1,0.1c16,37.6,24.1,78,24.2,119.8C826,565.8,817.8,606.1,801.8,643.9z"/>
	<path d="M681.1,364.2c-20.4,0-37.1,16.7-37.1,37.1v55.1c0,20.4,16.6,37.1,37.1,37.1c20.5,0,37.1-16.7,37.1-37.1v-55.1
		C718.2,380.8,701.5,364.2,681.1,364.2z"/>
	<path d="M505.9,364.2c-20.5,0-37.1,16.7-37.1,37.1v55.1c0,20.4,16.7,37.1,37.1,37.1c20.5,0,37.1-16.7,37.1-37.1v-55.1
		C543,380.8,526.3,364.2,505.9,364.2z"/>
</g>
</svg>
