<?xml version="1.0" encoding="utf-8"?>
<!-- Generator: Adobe Illustrator 21.0.0, SVG Export Plug-In . SVG Version: 6.00 Build 0)  -->
<svg version="1.1" id="图层_1" xmlns="http://www.w3.org/2000/svg" xmlns:xlink="http://www.w3.org/1999/xlink" x="0px" y="0px"
	 viewBox="0 0 1024 1024" style="enable-background:new 0 0 1024 1024;" xml:space="preserve">
<style type="text/css">
	.st0{fill:none;}
</style>
<title>amazon</title>
<desc>Created with Sketch.</desc>
<g>
	<path class="st0" d="M473.1,448c-16.7,7-30,17.5-40,31.7c-10,14.1-15,31.1-15,51.1c0,25.6,10.7,45.4,32.2,59.3
		c20.2,13.1,41.5,16.4,63.9,9.8c25.7-7.4,43.2-25.7,52.4-54.8c4.3-13.4,6.5-28.4,6.5-45v-72.2c-18.1,0.6-35.1,2.4-51,5.4
		C506.1,436.1,489.8,441,473.1,448z"/>
	<path d="M825,768.9c-3.3-0.9-7.3-0.4-11.9,1.3c-61.6,28.2-121.5,48.3-179.7,60.2c-125.7,25.6-248.2,12.2-367.4-40.1
		c-33.1-14.6-79.1-39.2-138-74c-1.6-1.2-3.3-1.9-5.3-2c-2-0.1-3.7,0.1-5.3,0.9c-1.6,0.8-2.8,1.8-3.7,3.1c-0.9,1.3-1.1,3.1-0.4,5.4
		c0.6,2.2,2.1,4.7,4.6,7.4c10.4,12.2,23.3,25.2,38.6,39c15.3,13.8,35.6,29.4,60.9,46.8c25.3,17.4,51.8,32.9,79.3,46.4
		c27.6,13.5,59.6,24.9,96.1,34.1s73,13.8,109.4,13.8c36.2,0,71.4-3.7,105.5-10.9c34.2-7.3,63-15.9,86.5-25.9c23.4-9.9,45-21,64.8-33
		c19.8-12,34.4-22.2,43.9-30.3c9.5-8.2,16.3-14.6,20.2-19.4c4.6-5.7,6.9-10.6,6.9-14.9C830.1,772.3,828.3,769.7,825,768.9z"/>
	<path d="M527.4,348.1c-15.2,1.3-33.5,4.1-55,8.3c-21.5,4.1-41.4,9.3-59.8,15.4c-18.4,6.1-37.2,14.6-56.3,25.4
		c-19.2,10.8-35.5,23.2-49,37c-13.5,13.8-24.5,31.1-33.1,52c-8.6,20.8-12.9,43.7-12.9,68.7c0,27.1,4.7,51.2,14.3,72.5
		c9.5,21.3,22.2,38,38.2,50.4c15.9,12.4,34,22.1,54,29.2c20,7.1,41.2,10.3,63.2,9.4c22-0.9,43.5-4.3,64.4-10.3
		c20.8-5.9,40.4-15.4,58.6-28.3c18.2-12.9,33.1-28.2,44.8-45.7c4.3,6.6,8.1,11.5,11.5,14.7l8.7,8.9c5.8,5.9,14.7,14.6,26.7,26.1
		c11.9,11.5,24.1,22.7,36.3,33.7l104.4-99.9l-6-4.9c-4.3-3.3-9.4-8-15.2-14.3c-5.8-6.2-11.6-13.1-17.2-20.5
		c-5.7-7.4-10.6-16.1-14.7-25.9c-4.1-9.8-6.2-19.3-6.2-28.5V258.7c0-10.1-1.9-21-5.7-32.8c-3.9-11.7-10.7-24.5-20.7-38.3
		c-10-13.8-22.4-26.2-37.2-37c-14.9-10.8-34.7-20-59.6-27.4c-24.8-7.4-52.6-11.1-83.2-11.1c-31.3,0-60.4,3.7-87.6,10.9
		c-27.1,7.3-50.3,17-69.7,29.2c-19.3,12.2-35.9,26.3-49.7,42.4c-13.8,16.1-24.1,32.9-30.8,50.4c-6.7,17.5-10.1,35.2-10.1,53.1
		L408,310c5.5-16.4,12.9-30.6,22-42.8c9.2-12.2,17.9-21,25.8-26.5c8-5.5,16.6-9.9,25.7-13.2c9.2-3.3,15.4-5,18.6-5.4
		c3.2-0.3,5.7-0.4,7.6-0.4c26.7,0,45.2,7.9,55.6,23.6c6.5,9.5,9.7,23.9,9.7,43.3v56.6C557.8,345.8,542.6,346.8,527.4,348.1z
		 M573.1,500c0,16.6-2.2,31.7-6.5,45c-9.2,29.1-26.7,47.4-52.4,54.8c-22.4,6.6-43.7,3.3-63.9-9.8c-21.5-14-32.2-33.8-32.2-59.3
		c0-19.9,5-36.9,15-51.1c10-14.1,23.3-24.7,40-31.7c16.7-7,33-12,49-14.9c15.9-3,33-4.8,51-5.4V500z"/>
	<path d="M908.3,718.9c-4.3-5.4-15.9-8.9-34.9-10.7c-19-1.8-35.5-1.7-49.7,0.4c-15.3,1.8-31.1,6.2-47.3,13.4
		c-16.3,7.1-23.4,13.1-21.6,17.8l0.7,1.3l0.9,0.7l1.4,0.2h4.6c0.8,0,1.8-0.1,3.2-0.2c1.4-0.1,2.7-0.3,3.9-0.4
		c1.2-0.1,2.9-0.3,5.1-0.4c2.1-0.1,4.1-0.4,6-0.7c0.3,0,3.7-0.3,10.3-0.9c6.6-0.6,11.4-1,14.3-1.3c2.9-0.3,7.8-0.6,14.5-0.9
		c6.7-0.3,12.1-0.3,16.1,0c4,0.3,8.5,0.7,13.6,1.1c5.1,0.4,9.2,1.3,12.4,2.7c3.2,1.3,5.6,3,7.1,5.1c5.2,6.6,4.2,21.2-3,43.9
		c-7.2,22.7-14,40.8-20.4,54.2c-2.8,5.7-2.8,9.2,0,10.7c2.8,1.5,6.7,0.1,11.9-4c15.6-12.2,28.6-30.6,39.1-55.3
		c6.1-14.6,10.5-29.8,13.1-45.7C912,734,911.6,723.7,908.3,718.9z"/>
</g>
</svg>
