<?xml version="1.0" encoding="utf-8"?>
<!-- Generator: Adobe Illustrator 21.0.0, SVG Export Plug-In . SVG Version: 6.00 Build 0)  -->
<svg version="1.1" id="图层_1" xmlns="http://www.w3.org/2000/svg" xmlns:xlink="http://www.w3.org/1999/xlink" x="0px" y="0px"
	 viewBox="0 0 1024 1024" style="enable-background:new 0 0 1024 1024;" xml:space="preserve">
<style type="text/css">
	.st0{fill:none;}
</style>
<title>amazon-circle-fill</title>
<desc>Created with Sketch.</desc>
<g>
	<path class="st0" d="M522.7,398.1c-10.6,0.9-23.3,2.9-38.2,5.7c-14.9,2.9-28.8,6.4-41.5,10.7c-12.8,4.2-25.9,10.1-39.2,17.7
		c-13.3,7.5-24.6,16.1-34,25.7c-9.4,9.6-17,21.6-23,36.1c-6,14.5-8.9,30.4-8.9,47.7c0,18.8,3.3,35.6,9.9,50.4
		c6.6,14.8,15.4,26.4,26.5,35c11.1,8.6,23.6,15.3,37.6,20.3c13.9,5,28.6,7.1,43.9,6.5c15.3-0.6,30.2-3,44.7-7.1
		c14.5-4.1,28.1-10.7,40.7-19.7c12.7-9,23-19.6,31.1-31.8c3,4.6,5.6,8,8,10.2l6.1,6.2c4.1,4.1,10.2,10.2,18.5,18.1
		c8.3,8,16.7,15.7,25.2,23.4l72.5-69.4l-4.1-3.4c-3-2.3-6.5-5.6-10.6-9.9c-4.1-4.3-8-9.1-12-14.3c-3.9-5.2-7.3-11.2-10.2-18
		c-2.9-6.8-4.3-13.4-4.3-19.8V336c0-7-1.3-14.6-4-22.8c-2.7-8.2-7.5-17-14.4-26.7c-6.9-9.6-15.5-18.2-25.9-25.7
		c-10.3-7.5-24.1-13.9-41.4-19.1c-17.2-5.2-36.5-7.7-57.8-7.7c-21.7,0-42,2.5-60.9,7.6c-18.9,5.1-35,11.8-48.4,20.3
		c-13.4,8.5-24.9,18.3-34.5,29.4c-9.6,11.2-16.7,22.8-21.4,35c-4.7,12.2-7,24.5-7,36.9l94,8.4c3.8-11.4,8.9-21.3,15.3-29.8
		c6.4-8.5,12.4-14.6,18-18.4c5.5-3.8,11.6-6.9,17.9-9.1c6.4-2.3,10.7-3.5,12.9-3.7c2.2-0.2,4-0.3,5.3-0.3c18.5,0,31.4,5.5,38.7,16.4
		c4.5,6.6,6.7,16.6,6.7,30.1v39.4C543.9,396.5,533.3,397.2,522.7,398.1z M554.5,503.6c0,11.6-1.5,22-4.5,31.3
		c-6.4,20.2-18.5,32.9-36.4,38.1c-15.6,4.6-30.4,2.3-44.4-6.8c-14.9-9.7-22.4-23.5-22.4-41.2c0-13.9,3.5-25.7,10.4-35.5
		c6.9-9.8,16.2-17.1,27.8-22c11.6-4.9,22.9-8.3,34-10.4c11.1-2.1,22.9-3.3,35.5-3.7V503.6z"/>
	<path class="st0" d="M729.5,690.5c-2.3-0.6-5.1-0.3-8.3,0.9c-42.8,19.6-84.5,33.6-124.9,41.8C509,751,423.9,741.7,341,705.4
		c-23-10.1-55-27.3-95.9-51.4c-1.1-0.8-2.3-1.3-3.7-1.4s-2.6,0.1-3.7,0.6c-1.1,0.5-1.9,1.2-2.6,2.2c-0.6,0.9-0.7,2.2-0.3,3.7
		c0.4,1.5,1.5,3.3,3.2,5.1c7.2,8.5,16.2,17.5,26.8,27.1c10.6,9.6,24.8,20.5,42.4,32.5c17.6,12.1,36,22.9,55.1,32.2
		c19.2,9.4,41.4,17.3,66.8,23.7c25.4,6.4,50.7,9.6,76.1,9.6c25.1,0,49.6-2.5,73.3-7.6c23.8-5.1,43.8-11.1,60.1-18
		c16.3-6.9,31.3-14.6,45-22.9c13.7-8.4,23.9-15.4,30.5-21.1c6.6-5.7,11.3-10.2,14.1-13.5c3.2-3.9,4.8-7.4,4.8-10.4
		C733.1,692.9,731.9,691.1,729.5,690.5z"/>
	<path class="st0" d="M763.1,648.4c-13.2-1.2-24.7-1.1-34.5,0.3c-10.6,1.2-21.6,4.3-32.9,9.3c-11.3,5-16.3,9.1-15,12.4l0.5,0.9
		l0.6,0.5l1,0.2h3.2c0.5,0,1.3-0.1,2.2-0.2c1-0.1,1.9-0.2,2.7-0.3c0.9-0.1,2-0.2,3.5-0.3c1.5-0.1,2.9-0.2,4.1-0.5
		c0.2,0,2.6-0.2,7.2-0.6c4.6-0.4,7.9-0.7,9.9-0.9c2-0.2,5.4-0.4,10.1-0.6c4.7-0.2,8.4-0.2,11.2,0c2.8,0.2,5.9,0.5,9.4,0.8
		s6.4,0.9,8.6,1.9c2.2,0.9,3.9,2.1,5,3.6c3.6,4.6,2.9,14.7-2.1,30.5c-5,15.8-9.7,28.4-14.2,37.7c-1.9,3.9-1.9,6.4,0,7.4
		c1.9,1,4.7,0.1,8.3-2.8c10.9-8.5,19.9-21.3,27.1-38.4c4.2-10.1,7.3-20.7,9.1-31.8c1.8-11.1,1.5-18.2-0.8-21.5
		C784.4,652.1,776.3,649.6,763.1,648.4z"/>
	<path d="M485,467.5c-11.6,4.9-20.9,12.2-27.8,22c-6.9,9.8-10.4,21.6-10.4,35.5c0,17.8,7.5,31.5,22.4,41.2
		c14.1,9.1,28.9,11.4,44.4,6.8c17.9-5.2,30-17.9,36.4-38.1c3-9.3,4.5-19.7,4.5-31.3v-50.2c-12.6,0.4-24.4,1.6-35.5,3.7
		C507.9,459.2,496.6,462.7,485,467.5z"/>
	<path d="M512,64C264.6,64,64,264.6,64,512s200.6,448,448,448s448-200.6,448-448S759.4,64,512,64z M547.8,326.7
		c-7.2-10.9-20.1-16.4-38.7-16.4c-1.3,0-3,0.1-5.3,0.3c-2.2,0.2-6.6,1.5-12.9,3.7c-6.3,2.3-12.4,5.3-17.9,9.1
		c-5.5,3.8-11.5,10-18,18.4c-6.4,8.5-11.5,18.4-15.3,29.8l-94-8.4c0-12.4,2.4-24.7,7-36.9c4.7-12.2,11.8-23.9,21.4-35
		c9.6-11.2,21.1-21,34.5-29.4c13.4-8.5,29.6-15.2,48.4-20.3c18.9-5.1,39.1-7.6,60.9-7.6c21.3,0,40.6,2.6,57.8,7.7
		c17.2,5.2,31.1,11.5,41.4,19.1c10.3,7.5,18.9,16.1,25.9,25.7c6.9,9.6,11.7,18.5,14.4,26.7c2.7,8.2,4,15.7,4,22.8v182.5
		c0,6.4,1.4,13,4.3,19.8c2.9,6.8,6.3,12.8,10.2,18c3.9,5.2,7.9,9.9,12,14.3c4.1,4.3,7.6,7.7,10.6,9.9l4.1,3.4l-72.5,69.4
		c-8.5-7.7-16.9-15.4-25.2-23.4c-8.3-8-14.5-14-18.5-18.1l-6.1-6.2c-2.4-2.3-5-5.7-8-10.2c-8.1,12.2-18.5,22.8-31.1,31.8
		c-12.7,9-26.3,15.6-40.7,19.7c-14.5,4.1-29.4,6.5-44.7,7.1c-15.3,0.6-30-1.5-43.9-6.5c-13.9-5-26.5-11.7-37.6-20.3
		c-11.1-8.6-19.9-20.2-26.5-35c-6.6-14.8-9.9-31.5-9.9-50.4c0-17.4,3-33.3,8.9-47.7c6-14.5,13.6-26.5,23-36.1
		c9.4-9.6,20.7-18.2,34-25.7c13.3-7.5,26.4-13.4,39.2-17.7c12.8-4.2,26.6-7.8,41.5-10.7c14.9-2.9,27.6-4.8,38.2-5.7
		c10.6-0.9,21.2-1.6,31.8-2v-39.4C554.5,343.3,552.2,333.3,547.8,326.7z M728.3,706.3c-2.8,3.3-7.5,7.8-14.1,13.5
		c-6.6,5.7-16.8,12.7-30.5,21.1c-13.7,8.4-28.8,16-45,22.9c-16.3,6.9-36.3,12.9-60.1,18c-23.7,5.1-48.2,7.6-73.3,7.6
		c-25.4,0-50.7-3.2-76.1-9.6c-25.4-6.4-47.6-14.3-66.8-23.7c-19.1-9.4-37.6-20.2-55.1-32.2c-17.6-12.1-31.7-22.9-42.4-32.5
		c-10.6-9.6-19.6-18.7-26.8-27.1c-1.7-1.9-2.8-3.6-3.2-5.1c-0.4-1.5-0.3-2.8,0.3-3.7c0.6-0.9,1.5-1.6,2.6-2.2
		c1.1-0.5,2.3-0.7,3.7-0.6s2.6,0.6,3.7,1.4c40.9,24.2,72.9,41.3,95.9,51.4c82.9,36.4,168,45.7,255.3,27.9
		c40.5-8.3,82.1-22.2,124.9-41.8c3.2-1.2,6-1.5,8.3-0.9c2.3,0.6,3.5,2.4,3.5,5.4C733.1,698.9,731.5,702.4,728.3,706.3z M788.2,677.3
		c-1.8,11.1-4.9,21.6-9.1,31.8c-7.2,17.1-16.3,30-27.1,38.4c-3.6,2.9-6.4,3.8-8.3,2.8c-1.9-1-1.9-3.5,0-7.4
		c4.5-9.3,9.2-21.8,14.2-37.7c5-15.8,5.7-26,2.1-30.5c-1.1-1.5-2.7-2.6-5-3.6c-2.2-0.9-5.1-1.5-8.6-1.9s-6.7-0.6-9.4-0.8
		c-2.8-0.2-6.5-0.2-11.2,0c-4.7,0.2-8,0.4-10.1,0.6c-2,0.2-5.3,0.5-9.9,0.9c-4.6,0.4-7,0.6-7.2,0.6c-1.3,0.2-2.7,0.4-4.1,0.5
		c-1.5,0.1-2.7,0.2-3.5,0.3c-0.9,0.1-1.8,0.2-2.7,0.3c-1,0.1-1.7,0.2-2.2,0.2h-3.2l-1-0.2l-0.6-0.5l-0.5-0.9
		c-1.3-3.3,3.7-7.4,15-12.4c11.3-5,22.3-8.1,32.9-9.3c9.8-1.5,21.3-1.5,34.5-0.3c13.2,1.2,21.3,3.7,24.3,7.4
		C789.8,659.1,790,666.3,788.2,677.3z"/>
</g>
</svg>
