<?xml version="1.0" encoding="utf-8"?>
<!-- Generator: Adobe Illustrator 21.0.0, SVG Export Plug-In . SVG Version: 6.00 Build 0)  -->
<svg version="1.1" id="图层_1" xmlns="http://www.w3.org/2000/svg" xmlns:xlink="http://www.w3.org/1999/xlink" x="0px" y="0px"
	 viewBox="0 0 1024 1024" style="enable-background:new 0 0 1024 1024;" xml:space="preserve">
<title>ant design</title>
<desc>Created with Sketch.</desc>
<g>
	<path d="M716.3,313.8c19-18.9,19-49.7,0-68.6l-69.9-69.9l0.1,0.1c-18.5-18.5-50.3-50.3-95.3-95.2c-21.2-20.7-55.5-20.5-76.5,0.5
		L80.9,474.2c-21.2,21.1-21.2,55.3,0,76.4l393.7,393.4c21.2,21.1,55.4,21.1,76.5,0l165.1-165c19-18.9,19-49.7,0-68.6
		c-19-18.9-49.7-18.9-68.7,0L522.5,835.6c-5.2,5.2-13.3,5.2-18.5,0L189.5,521.4c-5.2-5.2-5.2-13.3,0-18.5l314.4-314.2
		c0.4-0.4,0.9-0.7,1.3-1.1c5.2-4.1,12.4-3.7,17.2,1.1l125.2,125.1C666.6,332.8,697.4,332.8,716.3,313.8z"/>
	<ellipse cx="514.9" cy="514.4" rx="106.3" ry="106.2"/>
	<path d="M944.8,475.8L821.9,353.5c-19-18.9-49.8-18.9-68.7,0.1c-19,18.9-19,49.7,0,68.6l83,82.9c5.2,5.2,5.2,13.3,0,18.5
		l-81.8,81.7c-19,18.9-19,49.7,0,68.6c19,18.9,49.7,18.9,68.7,0l121.8-121.7C966,531.1,966,497,944.8,475.8z"/>
</g>
</svg>
