<?xml version="1.0" encoding="utf-8"?>
<!-- Generator: Adobe Illustrator 21.0.0, SVG Export Plug-In . SVG Version: 6.00 Build 0)  -->
<svg version="1.1" id="图层_1" xmlns="http://www.w3.org/2000/svg" xmlns:xlink="http://www.w3.org/1999/xlink" x="0px" y="0px"
	 viewBox="0 0 1024 1024" style="enable-background:new 0 0 1024 1024;" xml:space="preserve">
<title>attachment</title>
<desc>Created with Sketch.</desc>
<path d="M779.3,196.6c-94.2-94.2-247.6-94.2-341.7,0l-261,260.8c-1.7,1.7-2.6,4-2.6,6.4s0.9,4.7,2.6,6.4l36.9,36.9
	c3.5,3.5,9.2,3.5,12.7,0l261-260.8c32.4-32.4,75.5-50.2,121.3-50.2s88.9,17.8,121.2,50.2c32.4,32.4,50.2,75.5,50.2,121.2
	c0,45.8-17.8,88.8-50.2,121.2l-266,265.9l-43.1,43.1c-40.3,40.3-105.8,40.3-146.1,0c-19.5-19.5-30.2-45.4-30.2-73
	c0-27.6,10.7-53.5,30.2-73l263.9-263.8c6.7-6.6,15.5-10.3,24.9-10.3c0,0,0,0,0.1,0c9.4,0,18.1,3.7,24.7,10.3
	c6.7,6.7,10.3,15.5,10.3,24.9c0,9.3-3.7,18.1-10.3,24.7L372.4,653c-1.7,1.7-2.6,4-2.6,6.4s0.9,4.7,2.6,6.4l36.9,36.9
	c3.5,3.5,9.2,3.5,12.7,0l215.6-215.6c19.9-19.9,30.8-46.3,30.8-74.4s-11-54.6-30.8-74.4c-41.1-41.1-107.9-41-149,0L463,364
	L224.8,602.1C192,634.9,174,678.4,174,724.8c0,46.3,18.1,89.8,50.8,122.5c33.9,33.8,78.3,50.7,122.7,50.7
	c44.4,0,88.8-16.9,122.6-50.7l309.2-309C824.8,492.7,850,432,850,367.5C850.1,302.9,824.9,242.2,779.3,196.6z"/>
</svg>
