<?xml version="1.0" encoding="utf-8"?>
<!-- Generator: Adobe Illustrator 21.0.0, SVG Export Plug-In . SVG Version: 6.00 Build 0)  -->
<svg version="1.1" id="图层_1" xmlns="http://www.w3.org/2000/svg" xmlns:xlink="http://www.w3.org/1999/xlink" x="0px" y="0px"
	 viewBox="0 0 1024 1024" style="enable-background:new 0 0 1024 1024;" xml:space="preserve">
<style type="text/css">
	.st0{fill:none;}
</style>
<title>audit</title>
<desc>Created with Sketch.</desc>
<g>
	<path class="st0" d="M746,620c0-27.6-22.4-50-50-50s-50,22.4-50,50s22.4,50,50,50S746,647.6,746,620z"/>
	<rect x="566" y="826" class="st0" width="260" height="60"/>
	<path d="M296,250c-4.4,0-8,3.6-8,8v48c0,4.4,3.6,8,8,8h384c4.4,0,8-3.6,8-8v-48c0-4.4-3.6-8-8-8H296z"/>
	<path d="M480,394H296c-4.4,0-8,3.6-8,8v48c0,4.4,3.6,8,8,8h184c4.4,0,8-3.6,8-8v-48C488,397.6,484.4,394,480,394z"/>
	<path d="M432,852H208V148h560v320c0,4.4,3.6,8,8,8h56c4.4,0,8-3.6,8-8V108c0-17.7-14.3-32-32-32H168c-17.7,0-32,14.3-32,32v784
		c0,17.7,14.3,32,32,32h264c4.4,0,8-3.6,8-8v-56C440,855.6,436.4,852,432,852z"/>
	<path d="M872,764H728v-36.6c46.3-13.8,80-56.6,80-107.4c0-61.9-50.1-112-112-112s-112,50.1-112,112c0,50.7,33.7,93.6,80,107.4V764
		H520c-8.8,0-16,7.2-16,16v152c0,8.8,7.2,16,16,16h352c8.8,0,16-7.2,16-16V780C888,771.2,880.8,764,872,764z M646,620
		c0-27.6,22.4-50,50-50s50,22.4,50,50s-22.4,50-50,50S646,647.6,646,620z M826,886H566v-60h260V886z"/>
</g>
</svg>
