<?xml version="1.0" encoding="utf-8"?>
<!-- Generator: Adobe Illustrator 21.0.0, SVG Export Plug-In . SVG Version: 6.00 Build 0)  -->
<svg version="1.1" id="图层_1" xmlns="http://www.w3.org/2000/svg" xmlns:xlink="http://www.w3.org/1999/xlink" x="0px" y="0px"
	 viewBox="0 0 1024 1024" style="enable-background:new 0 0 1024 1024;" xml:space="preserve">
<title>box plot-fill</title>
<desc>Created with Sketch.</desc>
<g>
	<path d="M952,224h-52c-4.4,0-8,3.6-8,8v248h-92V304c0-4.4-3.6-8-8-8H448v432h344c4.4,0,8-3.6,8-8V548h92v244c0,4.4,3.6,8,8,8h52
		c4.4,0,8-3.6,8-8V232C960,227.6,956.4,224,952,224z"/>
	<path d="M224,304v176h-92V232c0-4.4-3.6-8-8-8H72c-4.4,0-8,3.6-8,8v560c0,4.4,3.6,8,8,8h52c4.4,0,8-3.6,8-8V548h92v172
		c0,4.4,3.6,8,8,8h152V296H232C227.6,296,224,299.6,224,304z"/>
</g>
</svg>
