<?xml version="1.0" encoding="utf-8"?>
<!-- Generator: Adobe Illustrator 21.0.0, SVG Export Plug-In . SVG Version: 6.00 Build 0)  -->
<svg version="1.1" id="图层_1" xmlns="http://www.w3.org/2000/svg" xmlns:xlink="http://www.w3.org/1999/xlink" x="0px" y="0px"
	 viewBox="0 0 1024 1024" style="enable-background:new 0 0 1024 1024;" xml:space="preserve">
<style type="text/css">
	.st0{fill:none;}
</style>
<title>calculator</title>
<desc>Created with Sketch.</desc>
<g>
	<path class="st0" d="M180,844h664V180H180V844z M440.2,765h-50.8c-2.2,0-4.5-1.1-5.9-2.9L348,718.6l-35.5,43.5
		c-1.5,1.9-3.6,2.9-5.9,2.9h-50.8c-6.6,0-10.2-7.9-5.8-13.1l62.7-76.8l-61.2-74.9c-4.3-5.2-0.7-13.1,5.9-13.1h50.9
		c2.2,0,4.5,1.1,5.9,2.9l34,41.6l34-41.6c1.5-1.9,3.6-2.9,5.9-2.9h50.8c6.6,0,10.2,7.9,5.9,13.1L383.5,675l62.7,76.8
		C450.4,757.1,446.8,765,440.2,765z M576,335c0-2.2,1.4-4,3.2-4h193.5c1.9,0,3.3,1.8,3.3,4v48c0,2.2-1.4,4-3.2,4H579.2
		c-1.8,0-3.2-1.8-3.2-4V335z M576,600c0-2.2,1.4-4,3.2-4h193.5c1.9,0,3.3,1.8,3.3,4v48c0,2.2-1.4,4-3.2,4H579.2
		c-1.8,0-3.2-1.8-3.2-4V600z M576,704c0-2.2,1.4-4,3.2-4h193.5c1.9,0,3.3,1.8,3.3,4v48c0,2.2-1.4,4-3.2,4H579.2
		c-1.8,0-3.2-1.8-3.2-4V704z M248,335c0-2.2,1.4-4,3.2-4H320v-68.8c0-1.8,1.8-3.2,4-3.2h48c2.2,0,4,1.4,4,3.2V331h68.7
		c1.9,0,3.3,1.8,3.3,4v48c0,2.2-1.4,4-3.2,4H376v68.7c0,1.9-1.8,3.3-4,3.3h-48c-2.2,0-4-1.4-4-3.2V387h-68.8c-1.8,0-3.2-1.8-3.2-4
		V335z"/>
	<path d="M251.2,387H320v68.8c0,1.8,1.8,3.2,4,3.2h48c2.2,0,4-1.4,4-3.3V387h68.8c1.8,0,3.2-1.8,3.2-4v-48c0-2.2-1.4-4-3.3-4H376
		v-68.8c0-1.8-1.8-3.2-4-3.2h-48c-2.2,0-4,1.4-4,3.2V331h-68.8c-1.8,0-3.2,1.8-3.2,4v48C248,385.2,249.4,387,251.2,387z"/>
	<path d="M579.2,387h193.6c1.8,0,3.2-1.8,3.2-4v-48c0-2.2-1.4-4-3.3-4H579.2c-1.8,0-3.2,1.8-3.2,4v48C576,385.2,577.4,387,579.2,387
		z"/>
	<path d="M579.2,652h193.6c1.8,0,3.2-1.8,3.2-4v-48c0-2.2-1.4-4-3.3-4H579.2c-1.8,0-3.2,1.8-3.2,4v48C576,650.2,577.4,652,579.2,652
		z"/>
	<path d="M579.2,756h193.6c1.8,0,3.2-1.8,3.2-4v-48c0-2.2-1.4-4-3.3-4H579.2c-1.8,0-3.2,1.8-3.2,4v48C576,754.2,577.4,756,579.2,756
		z"/>
	<path d="M383.5,675l61.2-74.9c4.3-5.2,0.7-13.1-5.9-13.1H388c-2.3,0-4.5,1-5.9,2.9l-34,41.6l-34-41.6c-1.5-1.8-3.7-2.9-5.9-2.9
		h-50.9c-6.6,0-10.2,7.9-5.9,13.1l61.2,74.9l-62.7,76.8c-4.4,5.2-0.8,13.1,5.8,13.1h50.8c2.3,0,4.5-1,5.9-2.9l35.5-43.5l35.5,43.5
		c1.5,1.8,3.7,2.9,5.9,2.9h50.8c6.6,0,10.2-7.9,5.9-13.1L383.5,675z"/>
	<path d="M880,112H144c-17.7,0-32,14.3-32,32v736c0,17.7,14.3,32,32,32h736c17.7,0,32-14.3,32-32V144C912,126.3,897.7,112,880,112z
		 M844,844H180V180h664V844z"/>
</g>
</svg>
