<?xml version="1.0" encoding="utf-8"?>
<!-- Generator: Adobe Illustrator 21.0.0, SVG Export Plug-In . SVG Version: 6.00 Build 0)  -->
<svg version="1.1" id="图层_1" xmlns="http://www.w3.org/2000/svg" xmlns:xlink="http://www.w3.org/1999/xlink" x="0px" y="0px"
	 viewBox="0 0 1024 1024" style="enable-background:new 0 0 1024 1024;" xml:space="preserve">
<style type="text/css">
	.st0{fill:none;}
</style>
<title>carry out-fill</title>
<desc>Created with Sketch.</desc>
<g>
	<path class="st0" d="M688,420h-55.2c-5.1,0-10,2.5-13,6.6L468.9,634.4l-64.7-89c-3-4.1-7.8-6.6-13-6.6H336
		c-6.5,0-10.3,7.4-6.5,12.7l126.4,174c6.4,8.8,19.6,8.8,26,0l212.6-292.7C698.3,427.4,694.5,420,688,420z"/>
	<path d="M880,184H712v-64c0-4.4-3.6-8-8-8h-56c-4.4,0-8,3.6-8,8v64H384v-64c0-4.4-3.6-8-8-8h-56c-4.4,0-8,3.6-8,8v64H144
		c-17.7,0-32,14.3-32,32v664c0,17.7,14.3,32,32,32h736c17.7,0,32-14.3,32-32V216C912,198.3,897.7,184,880,184z M694.5,432.7
		L481.9,725.4c-6.4,8.8-19.6,8.8-26,0l-126.4-174c-3.8-5.3,0-12.7,6.5-12.7h55.2c5.1,0,10,2.5,13,6.6l64.7,89l150.9-207.8
		c3-4.1,7.8-6.6,13-6.6H688C694.5,420,698.3,427.4,694.5,432.7z"/>
</g>
</svg>
