<?xml version="1.0" encoding="utf-8"?>
<!-- Generator: Adobe Illustrator 21.0.0, SVG Export Plug-In . SVG Version: 6.00 Build 0)  -->
<svg version="1.1" id="图层_1" xmlns="http://www.w3.org/2000/svg" xmlns:xlink="http://www.w3.org/1999/xlink" x="0px" y="0px"
	 viewBox="0 0 1024 1024" style="enable-background:new 0 0 1024 1024;" xml:space="preserve">
<style type="text/css">
	.st0{fill:none;}
</style>
<title>check-circle-fill</title>
<desc>Created with Sketch.</desc>
<g>
	<path class="st0" d="M699,353h-46.9c-10.3,0-19.9,5-25.9,13.3L469,584.3l-71.2-98.8c-6-8.4-15.7-13.3-25.9-13.3H325
		c-6.5,0-10.3,7.4-6.5,12.7l124.7,172.8c12.7,17.7,39,17.7,51.7,0l210.6-292C709.3,360.4,705.5,353,699,353z"/>
	<path d="M512,64C264.6,64,64,264.6,64,512s200.6,448,448,448s448-200.6,448-448S759.4,64,512,64z M705.5,365.7l-210.6,292
		c-12.7,17.7-39,17.7-51.7,0L318.5,484.9c-3.8-5.3,0-12.7,6.5-12.7h46.9c10.2,0,19.9,4.9,25.9,13.3l71.2,98.8l157.2-218
		c6-8.3,15.6-13.3,25.9-13.3H699C705.5,353,709.3,360.4,705.5,365.7z"/>
</g>
</svg>
