<?xml version="1.0" encoding="utf-8"?>
<!-- Generator: Adobe Illustrator 21.0.0, SVG Export Plug-In . SVG Version: 6.00 Build 0)  -->
<svg version="1.1" id="图层_1" xmlns="http://www.w3.org/2000/svg" xmlns:xlink="http://www.w3.org/1999/xlink" x="0px" y="0px"
	 viewBox="0 0 1024 1024" style="enable-background:new 0 0 1024 1024;" xml:space="preserve">
<title>close</title>
<desc>Created with Sketch.</desc>
<path d="M563.8,512l262.5-312.9c4.4-5.2,0.7-13.1-6.1-13.1h-79.8c-4.7,0-9.2,2.1-12.3,5.7L511.6,449.8L295.1,191.7
	c-3-3.6-7.5-5.7-12.3-5.7H203c-6.8,0-10.5,7.9-6.1,13.1L459.4,512L196.9,824.9c-4.4,5.2-0.7,13.1,6.1,13.1h79.8
	c4.7,0,9.2-2.1,12.3-5.7l216.5-258.1l216.5,258.1c3,3.6,7.5,5.7,12.3,5.7h79.8c6.8,0,10.5-7.9,6.1-13.1L563.8,512z"/>
</svg>
