<?xml version="1.0" encoding="utf-8"?>
<!-- Generator: Adobe Illustrator 21.0.0, SVG Export Plug-In . SVG Version: 6.00 Build 0)  -->
<svg version="1.1" id="图层_1" xmlns="http://www.w3.org/2000/svg" xmlns:xlink="http://www.w3.org/1999/xlink" x="0px" y="0px"
	 viewBox="0 0 1024 1024" style="enable-background:new 0 0 1024 1024;" xml:space="preserve">
<style type="text/css">
	.st0{fill:none;}
</style>
<title>close-square-fill</title>
<desc>Created with Sketch.</desc>
<g>
	<path class="st0" d="M670,353h-58.9c-4.7,0-9.2,2.1-12.3,5.7L512,462.2l-86.8-103.5c-3-3.6-7.5-5.7-12.3-5.7H354
		c-6.8,0-10.5,7.9-6.1,13.1L470.2,512L347.9,657.9c-4.4,5.2-0.7,13.1,6.1,13.1h58.9c4.7,0,9.2-2.1,12.3-5.7L512,561.8l86.8,103.5
		c3,3.6,7.5,5.7,12.3,5.7H670c6.8,0,10.5-7.9,6.1-13.1L553.8,512l122.4-145.9C680.5,360.9,676.8,353,670,353z"/>
	<path d="M880,112H144c-17.7,0-32,14.3-32,32v736c0,17.7,14.3,32,32,32h736c17.7,0,32-14.3,32-32V144C912,126.3,897.7,112,880,112z
		 M676.1,657.9c4.4,5.2,0.7,13.1-6.1,13.1h-58.9c-4.7,0-9.2-2.1-12.3-5.7L512,561.8l-86.8,103.5c-3,3.6-7.5,5.7-12.3,5.7H354
		c-6.8,0-10.5-7.9-6.1-13.1L470.2,512L347.9,366.1c-4.4-5.2-0.7-13.1,6.1-13.1h58.9c4.7,0,9.2,2.1,12.3,5.7L512,462.2l86.8-103.5
		c3-3.6,7.5-5.7,12.3-5.7H670c6.8,0,10.5,7.9,6.1,13.1L553.8,512L676.1,657.9z"/>
</g>
</svg>
