<?xml version="1.0" encoding="utf-8"?>
<!-- Generator: Adobe Illustrator 21.0.0, SVG Export Plug-In . SVG Version: 6.00 Build 0)  -->
<svg version="1.1" id="图层_1" xmlns="http://www.w3.org/2000/svg" xmlns:xlink="http://www.w3.org/1999/xlink" x="0px" y="0px"
	 viewBox="0 0 1024 1024" style="enable-background:new 0 0 1024 1024;" xml:space="preserve">
<style type="text/css">
	.st0{fill:none;}
</style>
<title>cloud</title>
<desc>Created with Sketch.</desc>
<g>
	<path class="st0" d="M791.9,492.1l-37.8-10l-13.8-36.5c-8.6-22.8-20.6-44.1-35.7-63.4c-14.9-19.2-32.6-36-52.4-49.9
		c-41.1-28.9-89.5-44.2-140-44.2c-50.5,0-98.9,15.3-140,44.2c-19.9,14-37.5,30.8-52.4,49.9c-15.1,19.3-27.1,40.6-35.7,63.4
		l-13.9,36.6l-37.9,9.9c-26,6.8-49.4,22.3-66.1,43.7C149,557.7,140,584,140,612c0,33.1,12.9,64.3,36.3,87.7
		c23.4,23.4,54.5,36.3,87.6,36.3h496.2c33.1,0,64.2-12.9,87.6-36.3c23.4-23.4,36.3-54.6,36.3-87.7
		C884,555.8,846.2,506.5,791.9,492.1z"/>
	<path d="M811.4,418.7C765.6,297.9,648.9,212,512.2,212c-136.7,0-253.4,85.8-299.2,206.6C127.3,441.1,64,519.1,64,612
		c0,110.5,89.5,200,199.9,200h496.2C870.5,812,960,722.5,960,612C960,519.3,896.9,441.3,811.4,418.7z M847.7,699.7
		c-23.4,23.4-54.5,36.3-87.6,36.3H263.9c-33.1,0-64.2-12.9-87.6-36.3C152.9,676.3,140,645.1,140,612c0-28,9.1-54.3,26.2-76.3
		c16.7-21.3,40.2-36.8,66.1-43.7l37.9-9.9l13.9-36.6c8.6-22.8,20.6-44.1,35.7-63.4c14.9-19.2,32.6-35.9,52.4-49.9
		c41.1-28.9,89.5-44.2,140-44.2c50.5,0,98.9,15.3,140,44.2c19.9,14,37.5,30.8,52.4,49.9c15.1,19.3,27.1,40.7,35.7,63.4l13.8,36.5
		l37.8,10C846.2,506.5,884,555.8,884,612C884,645.1,871.1,676.3,847.7,699.7z"/>
</g>
</svg>
