<?xml version="1.0" encoding="utf-8"?>
<!-- Generator: Adobe Illustrator 21.0.0, SVG Export Plug-In . SVG Version: 6.00 Build 0)  -->
<svg version="1.1" id="图层_1" xmlns="http://www.w3.org/2000/svg" xmlns:xlink="http://www.w3.org/1999/xlink" x="0px" y="0px"
	 viewBox="0 0 1024 1024" style="enable-background:new 0 0 1024 1024;" xml:space="preserve">
<style type="text/css">
	.st0{fill:none;}
</style>
<title>codepen</title>
<desc>Created with Sketch.</desc>
<g>
	<polygon class="st0" points="328.6,552.9 208.3,633.2 477.6,812.6 477.6,652.4 328.6,552.9 	"/>
	<polygon class="st0" points="180.7,454.1 180.7,569 266.8,511.6 	"/>
	<polygon class="st0" points="477.6,370.7 477.6,370.7 477.6,210.5 208.3,389.9 328.6,470.2 	"/>
	<polygon class="st0" points="815.7,389.9 546.4,210.5 546.4,370.7 695.4,470.2 	"/>
	<polygon class="st0" points="843.3,569 843.3,454.1 757.2,511.6 	"/>
	<polygon class="st0" points="512,430.3 390.4,511.6 512,592.8 633.6,511.6 	"/>
	<polygon class="st0" points="546.4,652.4 546.4,652.4 546.4,812.6 815.7,633.2 695.4,552.9 	"/>
	<path d="M911.7,385.3c-0.1-0.5-0.2-1-0.3-1.5v0c-0.2-1-0.3-1.9-0.6-2.9c-0.2-0.6-0.4-1.1-0.5-1.7c-0.3-0.8-0.5-1.7-0.9-2.5
		c-0.2-0.6-0.5-1.1-0.8-1.7c-0.4-0.8-0.8-1.5-1.2-2.3c-0.3-0.5-0.6-1.1-1-1.6c-0.8-1.2-1.7-2.4-2.6-3.6c-0.5-0.6-1.1-1.3-1.7-1.9
		c-0.4-0.5-0.9-0.9-1.4-1.3c-0.6-0.6-1.3-1.1-1.9-1.6c-0.5-0.4-1-0.8-1.6-1.2c-0.2-0.1-0.4-0.3-0.6-0.4L531.1,117.8
		c-11.5-7.7-26.6-7.7-38.1,0L127.3,361.3c-0.2,0.1-0.4,0.3-0.6,0.4c-0.5,0.4-1,0.8-1.6,1.2c-0.7,0.5-1.3,1.1-1.9,1.6
		c-0.5,0.4-0.9,0.9-1.4,1.3c-0.6,0.6-1.2,1.2-1.7,1.9c-1,1.1-1.8,2.3-2.6,3.6c-0.3,0.5-0.7,1-1,1.6c-0.4,0.7-0.8,1.5-1.2,2.3
		c-0.3,0.5-0.5,1.1-0.8,1.7c-0.3,0.8-0.6,1.7-0.9,2.5c-0.2,0.6-0.4,1.1-0.5,1.7c-0.2,0.9-0.4,1.9-0.6,2.9c-0.1,0.5-0.2,1-0.3,1.5
		c-0.2,1.5-0.3,3-0.3,4.5v243.5c0,1.5,0.1,3,0.3,4.5c0.1,0.5,0.2,1,0.3,1.5c0.2,1,0.4,1.9,0.6,2.9c0.2,0.6,0.3,1.1,0.5,1.7
		c0.3,0.9,0.6,1.7,0.9,2.5c0.2,0.6,0.5,1.1,0.8,1.7c0.4,0.8,0.7,1.5,1.2,2.3c0.3,0.5,0.6,1.1,1,1.6c0.5,0.7,0.9,1.4,1.5,2.1
		c0.4,0.5,0.8,1,1.2,1.5c0.5,0.6,1.1,1.3,1.7,1.9c0.4,0.5,0.9,0.9,1.4,1.3c0.6,0.6,1.3,1.1,1.9,1.6c0.5,0.4,1,0.8,1.6,1.2
		c0.2,0.1,0.4,0.3,0.6,0.4l365.6,243.5c5.6,3.8,12.3,5.8,19.1,5.8c6.6,0,13.3-1.9,19.1-5.8l365.6-243.5c0.2-0.1,0.4-0.3,0.6-0.4
		c0.5-0.4,1-0.8,1.6-1.2c0.7-0.5,1.3-1.1,1.9-1.6c0.5-0.4,0.9-0.9,1.4-1.3c0.6-0.6,1.2-1.2,1.7-1.9c0.4-0.5,0.8-1,1.2-1.5
		c0.5-0.7,1-1.4,1.5-2.1c0.3-0.5,0.7-1,1-1.6c0.4-0.8,0.8-1.5,1.2-2.3c0.3-0.5,0.5-1.1,0.8-1.7c0.3-0.8,0.6-1.7,0.9-2.5
		c0.2-0.5,0.4-1.1,0.5-1.7c0.3-0.9,0.4-1.9,0.6-2.9c0.1-0.5,0.2-1,0.3-1.5c0.2-1.5,0.3-3,0.3-4.5V389.8
		C912,388.3,911.9,386.8,911.7,385.3z M546.4,210.5l269.4,179.4l-120.3,80.4l-149-99.6V210.5z M477.6,210.5v160.2v0l-149,99.6
		l-120.3-80.4L477.6,210.5z M180.7,454.1l86,57.5l-86,57.5V454.1z M477.6,812.6L208.3,633.2l120.3-80.4v0l149,99.6V812.6z
		 M512,592.8l-121.6-81.2L512,430.3l121.6,81.2L512,592.8z M546.4,812.6V652.4v0l149-99.6l120.3,80.4L546.4,812.6z M843.3,569
		l-86-57.5l86-57.5V569z"/>
</g>
</svg>
