<?xml version="1.0" encoding="utf-8"?>
<!-- Generator: Adobe Illustrator 21.0.0, SVG Export Plug-In . SVG Version: 6.00 Build 0)  -->
<svg version="1.1" id="图层_1" xmlns="http://www.w3.org/2000/svg" xmlns:xlink="http://www.w3.org/1999/xlink" x="0px" y="0px"
	 viewBox="0 0 1024 1024" style="enable-background:new 0 0 1024 1024;" xml:space="preserve">
<style type="text/css">
	.st0{fill:none;}
</style>
<title>compass-fill</title>
<desc>Created with Sketch.</desc>
<g>
	<path class="st0" d="M697.1,322l-225.5,98.7l132.1,132.1l98.7-225.5c0.4-1.1,0.4-2.2,0-3.2C701.5,322,699.1,321.1,697.1,322z"/>
	<path class="st0" d="M322,697.1c-0.4,1-0.4,2.2,0,3.2c0.9,2.1,3.3,3,5.3,2.1l225.5-98.7L420.7,471.6L322,697.1z"/>
	<path d="M512,64C264.6,64,64,264.6,64,512s200.6,448,448,448s448-200.6,448-448S759.4,64,512,64z M327.3,702.4
		c-2,0.9-4.4,0-5.3-2.1c-0.4-1-0.4-2.2,0-3.2l98.7-225.5l132.1,132.1L327.3,702.4z M702.4,327.3l-98.7,225.5L471.6,420.7L697.1,322
		c2-0.9,4.4,0,5.3,2.1C702.8,325.1,702.8,326.2,702.4,327.3z"/>
</g>
</svg>
