<?xml version="1.0" encoding="utf-8"?>
<!-- Generator: Adobe Illustrator 21.0.0, SVG Export Plug-In . SVG Version: 6.00 Build 0)  -->
<svg version="1.1" id="图层_1" xmlns="http://www.w3.org/2000/svg" xmlns:xlink="http://www.w3.org/1999/xlink" x="0px" y="0px"
	 viewBox="0 0 1024 1024" style="enable-background:new 0 0 1024 1024;" xml:space="preserve">
<style type="text/css">
	.st0{fill:none;}
	.st1{fill:#080808;}
</style>
<title>compass</title>
<desc>Created with Sketch.</desc>
<g>
	<polygon class="st0" points="576.8,534.4 644.4,380 490,447.5 	"/>
	<polygon class="st0" points="380,644.4 534.4,576.8 447.5,490 	"/>
	<path class="st0" d="M512,140c-205.4,0-372,166.6-372,372s166.6,372,372,372s372-166.6,372-372S717.4,140,512,140z M728,338.5
		l-118.5,271L338.5,728c-4.1,1.8-8.5,2.7-12.8,2.7c-3.9,0-7.9-0.7-11.7-2.2c-8-3.1-14.2-9.1-17.7-17c-3.6-8.2-3.6-17.5,0-25.7
		l118.5-271l271-118.6c7.8-3.4,16.5-3.6,24.5-0.5c8,3.1,14.2,9.1,17.7,17C731.6,321,731.6,330.3,728,338.5z"/>
	<path d="M512,64C264.6,64,64,264.6,64,512s200.6,448,448,448s448-200.6,448-448S759.4,64,512,64z M512,884
		c-205.4,0-372-166.6-372-372s166.6-372,372-372s372,166.6,372,372S717.4,884,512,884z"/>
	<path d="M710.4,295.9c-8-3.1-16.7-2.9-24.5,0.5l-271,118.6l-118.5,271c-3.6,8.2-3.6,17.5,0,25.7c3.4,7.8,9.7,13.9,17.7,17
		c3.8,1.5,7.7,2.2,11.7,2.2c4.4,0,8.7-0.9,12.8-2.7l271-118.6l118.5-271c3.6-8.2,3.6-17.5,0-25.7C724.6,305,718.3,299,710.4,295.9z
		 M576.8,534.4l26.2,26.2L560.6,603l-26.2-26.2L380,644.4L447.5,490L422,464.4l42.4-42.4l25.5,25.5L644.4,380L576.8,534.4z"/>
	<polygon class="st1" points="464.4,422 422,464.4 447.5,490 534.4,576.8 560.6,603 603,560.6 576.8,534.4 490,447.5 	"/>
</g>
</svg>
