<?xml version="1.0" encoding="utf-8"?>
<!-- Generator: Adobe Illustrator 21.0.0, SVG Export Plug-In . SVG Version: 6.00 Build 0)  -->
<svg version="1.1" id="图层_1" xmlns="http://www.w3.org/2000/svg" xmlns:xlink="http://www.w3.org/1999/xlink" x="0px" y="0px"
	 viewBox="0 0 1024 1024" style="enable-background:new 0 0 1024 1024;" xml:space="preserve">
<style type="text/css">
	.st0{fill:none;}
</style>
<title>container-fill</title>
<desc>Created with Sketch.</desc>
<g>
	<path class="st0" d="M704,437H320c-4.4,0-8,3.6-8,8v48c0,4.4,3.6,8,8,8h384c4.4,0,8-3.6,8-8v-48C712,440.6,708.4,437,704,437z"/>
	<path class="st0" d="M704,277H320c-4.4,0-8,3.6-8,8v48c0,4.4,3.6,8,8,8h384c4.4,0,8-3.6,8-8v-48C712,280.6,708.4,277,704,277z"/>
	<path d="M832,64H192c-17.7,0-32,14.3-32,32v529c0-0.6,0.4-1,1-1h71h148.3l5.2,24.7C397.6,708.5,450.8,752,512,752
		s114.4-43.5,126.4-103.3l5.2-24.7H792h71c0.6,0,1,0.4,1,1V96C864,78.3,849.7,64,832,64z M712,493c0,4.4-3.6,8-8,8H320
		c-4.4,0-8-3.6-8-8v-48c0-4.4,3.6-8,8-8h384c4.4,0,8,3.6,8,8V493z M712,333c0,4.4-3.6,8-8,8H320c-4.4,0-8-3.6-8-8v-48
		c0-4.4,3.6-8,8-8h384c4.4,0,8,3.6,8,8V333z"/>
	<path d="M863,687h-71h-97.9c-11.6,32.8-32,62.3-59.1,84.7c-34.5,28.6-78.2,44.3-123,44.3s-88.5-15.8-123-44.3
		c-27.1-22.4-47.5-51.9-59.1-84.7H232h-71c-0.6,0-1-0.4-1-1v242c0,17.7,14.3,32,32,32h640c17.7,0,32-14.3,32-32V686
		C864,686.6,863.6,687,863,687z"/>
</g>
</svg>
