<?xml version="1.0" encoding="utf-8"?>
<!-- Generator: Adobe Illustrator 21.0.0, SVG Export Plug-In . SVG Version: 6.00 Build 0)  -->
<svg version="1.1" id="图层_1" xmlns="http://www.w3.org/2000/svg" xmlns:xlink="http://www.w3.org/1999/xlink" x="0px" y="0px"
	 viewBox="0 0 1024 1024" style="enable-background:new 0 0 1024 1024;" xml:space="preserve">
<style type="text/css">
	.st0{fill:none;}
</style>
<title>container</title>
<desc>Created with Sketch.</desc>
<g>
	<path class="st0" d="M232,624h148.4l5.2,24.7C397.6,708.5,450.8,752,512,752s114.4-43.5,126.5-103.3l5.2-24.7H792v63h-97.9
		c-11.6,32.8-32,62.3-59.1,84.7c-34.5,28.5-78.2,44.3-123,44.3c-44.8,0-88.5-15.7-123-44.3c-27.1-22.4-47.5-51.9-59.1-84.7H232v201
		h560V136H232V624z M312,285c0-4.4,3.6-8,8-8h384c4.4,0,8,3.6,8,8v48c0,4.4-3.6,8-8,8H320c-4.4,0-8-3.6-8-8V285z M312,445
		c0-4.4,3.6-8,8-8h384c4.4,0,8,3.6,8,8v48c0,4.4-3.6,8-8,8H320c-4.4,0-8-3.6-8-8V445z"/>
	<path d="M832,64H192c-17.7,0-32,14.3-32,32v832c0,17.7,14.3,32,32,32h640c17.7,0,32-14.3,32-32V96C864,78.3,849.7,64,832,64z
		 M792,888H232V687h97.9c11.6,32.8,32,62.3,59.1,84.7c34.5,28.5,78.2,44.3,123,44.3c44.8,0,88.5-15.7,123-44.3
		c27.1-22.4,47.5-51.9,59.1-84.7H792v-63H643.6l-5.2,24.7C626.4,708.5,573.2,752,512,752s-114.4-43.5-126.5-103.3l-5.2-24.7H232V136
		h560V888z"/>
	<path d="M320,341h384c4.4,0,8-3.6,8-8v-48c0-4.4-3.6-8-8-8H320c-4.4,0-8,3.6-8,8v48C312,337.4,315.6,341,320,341z"/>
	<path d="M320,501h384c4.4,0,8-3.6,8-8v-48c0-4.4-3.6-8-8-8H320c-4.4,0-8,3.6-8,8v48C312,497.4,315.6,501,320,501z"/>
</g>
</svg>
