<?xml version="1.0" encoding="utf-8"?>
<!-- Generator: Adobe Illustrator 21.0.0, SVG Export Plug-In . SVG Version: 6.00 Build 0)  -->
<svg version="1.1" id="图层_1" xmlns="http://www.w3.org/2000/svg" xmlns:xlink="http://www.w3.org/1999/xlink" x="0px" y="0px"
	 viewBox="0 0 1024 1024" style="enable-background:new 0 0 1024 1024;" xml:space="preserve">
<style type="text/css">
	.st0{fill:none;}
</style>
<title>dashboard-fill</title>
<desc>Created with Sketch.</desc>
<g>
	<path class="st0" d="M262,530h-80c-4.4,0-8,3.6-8,8v44c0,4.4,3.6,8,8,8h80c4.4,0,8-3.6,8-8v-44C270,533.6,266.4,530,262,530z"/>
	<path class="st0" d="M304.1,309.6c-3.1-3.1-8.2-3.1-11.3,0l-31.1,31.1c-3.1,3.1-3.1,8.2,0,11.3l56.6,56.6c3.1,3.1,8.2,3.1,11.3,0
		l31.1-31.1c3.1-3.1,3.1-8.2,0-11.3L304.1,309.6z"/>
	<path class="st0" d="M490,320h44c4.4,0,8-3.6,8-8v-80c0-4.4-3.6-8-8-8h-44c-4.4,0-8,3.6-8,8v80C482,316.4,485.6,320,490,320z"/>
	<path class="st0" d="M762.7,340.8l-31.1-31.1c-3.1-3.1-8.2-3.1-11.3,0l-56.6,56.6c-3.1,3.1-3.1,8.2,0,11.3l31.1,31.1
		c3.1,3.1,8.2,3.1,11.3,0l56.6-56.6C765.8,349,765.8,343.9,762.7,340.8z"/>
	<path class="st0" d="M623.5,421.5c-3.1-3.1-8.2-3.1-11.3,0L527.7,506c-18.7-5-39.4-0.2-54.1,14.5c-21.9,21.9-21.9,57.3,0,79.2
		c21.9,21.9,57.3,21.9,79.2,0c14.7-14.7,19.5-35.4,14.5-54.1l84.5-84.5c3.1-3.2,3.1-8.2,0-11.3L623.5,421.5z"/>
	<path class="st0" d="M838,530h-80c-4.4,0-8,3.6-8,8v44c0,4.4,3.6,8,8,8h80c4.4,0,8-3.6,8-8v-44C846,533.6,842.4,530,838,530z"/>
	<path d="M924.8,385.6c-22.6-53.4-54.9-101.3-96-142.4c-41.1-41.1-89-73.4-142.4-96C631.1,123.8,572.5,112,512,112
		s-119.1,11.8-174.4,35.2c-53.4,22.6-101.3,54.9-142.4,96c-41.1,41.1-73.4,89-96,142.4C75.8,440.9,64,499.5,64,560
		c0,132.7,58.3,257.7,159.9,343.1l1.7,1.4c5.8,4.8,13.1,7.5,20.6,7.5h531.7c7.5,0,14.8-2.7,20.6-7.5l1.7-1.4
		C901.7,817.7,960,692.7,960,560C960,499.5,948.1,440.9,924.8,385.6z M482,232c0-4.4,3.6-8,8-8h44c4.4,0,8,3.6,8,8v80
		c0,4.4-3.6,8-8,8h-44c-4.4,0-8-3.6-8-8V232z M270,582c0,4.4-3.6,8-8,8h-80c-4.4,0-8-3.6-8-8v-44c0-4.4,3.6-8,8-8h80
		c4.4,0,8,3.6,8,8V582z M360.7,377.5l-31.1,31.1c-3.1,3.1-8.2,3.1-11.3,0L261.7,352c-3.1-3.1-3.1-8.2,0-11.3l31.1-31.1
		c3.1-3.1,8.2-3.1,11.3,0l56.6,56.6C363.8,369.3,363.8,374.4,360.7,377.5z M651.8,461.1l-84.5,84.5c5,18.7,0.2,39.4-14.5,54.1
		c-21.9,21.9-57.3,21.9-79.2,0c-21.9-21.9-21.9-57.3,0-79.2c14.7-14.7,35.4-19.5,54.1-14.5l84.5-84.5c3.1-3.1,8.2-3.1,11.3,0
		l28.3,28.3C654.9,452.9,654.9,457.9,651.8,461.1z M694.8,408.7l-31.1-31.1c-3.1-3.1-3.1-8.2,0-11.3l56.6-56.6
		c3.1-3.1,8.2-3.1,11.3,0l31.1,31.1c3.1,3.1,3.1,8.2,0,11.3l-56.6,56.6C703,411.8,697.9,411.8,694.8,408.7z M846,582
		c0,4.4-3.6,8-8,8h-80c-4.4,0-8-3.6-8-8v-44c0-4.4,3.6-8,8-8h80c4.4,0,8,3.6,8,8V582z"/>
</g>
</svg>
