<?xml version="1.0" encoding="utf-8"?>
<!-- Generator: Adobe Illustrator 21.0.0, SVG Export Plug-In . SVG Version: 6.00 Build 0)  -->
<svg version="1.1" id="图层_1" xmlns="http://www.w3.org/2000/svg" xmlns:xlink="http://www.w3.org/1999/xlink" x="0px" y="0px"
	 viewBox="0 0 1024 1024" style="enable-background:new 0 0 1024 1024;" xml:space="preserve">
<style type="text/css">
	.st0{fill:none;}
</style>
<title>delete-fill</title>
<desc>Created with Sketch.</desc>
<g>
	<rect x="360" y="184" class="st0" width="304" height="72"/>
	<path d="M864,256h-33h-95v-80c0-35.3-28.7-64-64-64H352c-35.3,0-64,28.7-64,64v80h-95h-33c-17.7,0-32,14.3-32,32v32
		c0,4.4,3.6,8,8,8h60.4l24.7,523c1.6,34.1,29.8,61,63.9,61H739c34.2,0,62.3-26.8,63.9-61l24.7-523H888c4.4,0,8-3.6,8-8v-32
		C896,270.3,881.7,256,864,256z M664,256H360v-72h304V256z"/>
</g>
</svg>
