<?xml version="1.0" encoding="utf-8"?>
<!-- Generator: Adobe Illustrator 21.0.0, SVG Export Plug-In . SVG Version: 6.00 Build 0)  -->
<svg version="1.1" id="图层_1" xmlns="http://www.w3.org/2000/svg" xmlns:xlink="http://www.w3.org/1999/xlink" x="0px" y="0px"
	 viewBox="0 0 1024 1024" style="enable-background:new 0 0 1024 1024;" xml:space="preserve">
<style type="text/css">
	.st0{fill:none;}
</style>
<title>diff</title>
<desc>Created with Sketch.</desc>
<g>
	<path class="st0" d="M232,264v624h432V413.8L514.2,264H232z M568,753c0,3.8-3.4,7-7.5,7h-225c-4.1,0-7.5-3.2-7.5-7v-42
		c0-3.8,3.4-7,7.5-7h225c4.1,0,7.5,3.2,7.5,7V753z M568,491v42c0,3.8-3.4,7-7.5,7H476v84.9c0,3.9-3.1,7.1-7,7.1h-42
		c-3.8,0-7-3.2-7-7.1V540h-84.5c-4.1,0-7.5-3.2-7.5-7v-42c0-3.9,3.4-7,7.5-7H420v-84.9c0-3.9,3.2-7.1,7-7.1h42c3.9,0,7,3.2,7,7.1
		V484h84.5C564.6,484,568,487.1,568,491z"/>
	<path d="M476,399.1c0-3.9-3.1-7.1-7-7.1h-42c-3.8,0-7,3.2-7,7.1V484h-84.5c-4.1,0-7.5,3.1-7.5,7v42c0,3.8,3.4,7,7.5,7H420v84.9
		c0,3.9,3.2,7.1,7,7.1h42c3.9,0,7-3.2,7-7.1V540h84.5c4.1,0,7.5-3.2,7.5-7v-42c0-3.9-3.4-7-7.5-7H476V399.1z"/>
	<path d="M560.5,704h-225c-4.1,0-7.5,3.2-7.5,7v42c0,3.8,3.4,7,7.5,7h225c4.1,0,7.5-3.2,7.5-7v-42C568,707.2,564.6,704,560.5,704z"
		/>
	<path d="M553.4,201.4c-6-6-14.1-9.4-22.6-9.4H192c-17.7,0-32,14.3-32,32v704c0,17.7,14.3,32,32,32h512c17.7,0,32-14.3,32-32V397.3
		c0-8.5-3.4-16.6-9.4-22.6L553.4,201.4z M664,888H232V264h282.2L664,413.8V888z"/>
	<path d="M854.2,306.6L611.3,72.9c-6-5.7-13.9-8.9-22.2-8.9H296c-4.4,0-8,3.6-8,8v56c0,4.4,3.6,8,8,8h64h213l219,210.6V760v64
		c0,4.4,3.6,8,8,8h56c4.4,0,8-3.6,8-8V329.6C864,320.9,860.5,312.6,854.2,306.6z"/>
</g>
</svg>
