<?xml version="1.0" encoding="utf-8"?>
<!-- Generator: Adobe Illustrator 21.0.0, SVG Export Plug-In . SVG Version: 6.00 Build 0)  -->
<svg version="1.1" id="图层_1" xmlns="http://www.w3.org/2000/svg" xmlns:xlink="http://www.w3.org/1999/xlink" x="0px" y="0px"
	 viewBox="0 0 1024 1024" style="enable-background:new 0 0 1024 1024;" xml:space="preserve">
<style type="text/css">
	.st0{fill:none;}
</style>
<title>dingtalk-square-fill</title>
<desc>Created with Sketch.</desc>
<g>
	<path class="st0" d="M554.8,342.3C450,304.2,296.7,234.5,296.7,234.5c-10.9-2.8-12.4,7.7-12.4,7.7c-3.5,42.3,23.3,111.1,37.1,126.5
		c13.8,15.4,221.2,78.7,221.2,78.7s-159.4-32.1-197.9-43.2c-38.5-11.1-26.3,12.3-26.3,12.3c7.9,42.7,45,91.3,74.3,95.8
		c29.3,4.6,152.6,2.7,152.6,2.7s-24.6,2.8-64.6,8.2c-29.6,4-67.2,8.7-77,12.3c-22.9,8.7,16.6,43.4,16.6,43.4
		c58.7,53.2,89.9,35,89.9,35c23.1-7.4,42.5-12.8,59-16.8L548.7,682h58.6l-32.3,128l142.2-188.2h-74.5l15.5-26.8
		c0.2,0.3,0.3,0.5,0.3,0.5s52.9-84.6,73.1-127.7l0.4-0.7H732c3.5-7.5,6-13.6,7-17.8C750.7,399.9,659.6,380.5,554.8,342.3z"/>
	<path d="M880,112H144c-17.7,0-32,14.3-32,32v736c0,17.7,14.3,32,32,32h736c17.7,0,32-14.3,32-32V144C912,126.3,897.7,112,880,112z
		 M739,449.3c-1,4.2-3.5,10.4-7,17.8h0.1l-0.4,0.7c-20.3,43.1-73.1,127.7-73.1,127.7s-0.1-0.2-0.3-0.5l-15.5,26.8h74.5L575.1,810
		l32.3-128h-58.6l20.4-84.7c-16.5,3.9-35.9,9.4-59,16.8c0,0-31.2,18.2-89.9-35c0,0-39.6-34.7-16.6-43.4c9.8-3.7,47.4-8.4,77-12.3
		c40-5.4,64.6-8.2,64.6-8.2s-123.3,1.8-152.6-2.7c-29.3-4.6-66.4-53.1-74.3-95.8c0,0-12.2-23.4,26.3-12.3
		c38.5,11.1,197.9,43.2,197.9,43.2s-207.4-63.3-221.2-78.7c-13.8-15.4-40.6-84.2-37.1-126.5c0,0,1.5-10.5,12.4-7.7
		c0,0,153.3,69.7,258.1,107.9C659.6,380.5,750.7,399.9,739,449.3z"/>
</g>
</svg>
