<?xml version="1.0" encoding="utf-8"?>
<!-- Generator: Adobe Illustrator 21.0.0, SVG Export Plug-In . SVG Version: 6.00 Build 0)  -->
<svg version="1.1" id="图层_1" xmlns="http://www.w3.org/2000/svg" xmlns:xlink="http://www.w3.org/1999/xlink" x="0px" y="0px"
	 viewBox="0 0 1024 1024" style="enable-background:new 0 0 1024 1024;" xml:space="preserve">
<title>disconnect</title>
<desc>Created with Sketch.</desc>
<g>
	<path d="M832.6,191.4c-84.6-84.6-221.5-84.6-306,0l-96.9,96.9l51,51l96.9-96.9c53.8-53.8,144.6-59.5,204,0
		c59.5,59.5,53.8,150.2,0,204l-96.9,96.9l51.1,51.1l96.9-96.9C917.1,412.9,917.1,276,832.6,191.4z"/>
	<path d="M446.5,781.6c-53.8,53.8-144.6,59.5-204,0c-59.5-59.5-53.8-150.2,0-204l96.9-96.9l-51.1-51.1l-96.9,96.9
		c-84.6,84.6-84.6,221.5,0,306s221.5,84.6,306,0l96.9-96.9l-51-51L446.5,781.6z"/>
	<path d="M260.3,209.4c-3.1-3.1-8.2-3.1-11.3,0L209.4,249c-3.1,3.1-3.1,8.2,0,11.3l554.4,554.4c3.1,3.1,8.2,3.1,11.3,0l39.6-39.6
		c3.1-3.1,3.1-8.2,0-11.3L260.3,209.4z"/>
</g>
</svg>
