<?xml version="1.0" encoding="utf-8"?>
<!-- Generator: Adobe Illustrator 21.0.0, SVG Export Plug-In . SVG Version: 6.00 Build 0)  -->
<svg version="1.1" id="图层_1" xmlns="http://www.w3.org/2000/svg" xmlns:xlink="http://www.w3.org/1999/xlink" x="0px" y="0px"
	 viewBox="0 0 1024 1024" style="enable-background:new 0 0 1024 1024;" xml:space="preserve">
<style type="text/css">
	.st0{fill:none;}
</style>
<title>Dollar</title>
<desc>Created with Sketch.</desc>
<g>
	<path class="st0" d="M543.1,545.5c-2.8-0.6-5.6-1.3-8.8-2.2V677c42.6-3.8,72-27.2,72-66.4C606.3,579.9,590.4,559.9,543.1,545.5z"/>
	<path class="st0" d="M426.6,410.3c0,25.4,15.7,45.1,49.5,57.3c4.7,1.9,9.4,3.4,15,5v-124C454.2,353.3,426.6,374,426.6,410.3z"/>
	<path class="st0" d="M512,140c-205.4,0-372,166.6-372,372s166.6,372,372,372s372-166.6,372-372S717.4,140,512,140z M534.3,729.2
		l0.2,31.7c0,4.4-3.6,8.1-8,8.1h-28.4c-4.4,0-8-3.6-8-8v-31.4C401.3,723,359.5,672.4,355,617.4c-0.4-4.7,3.3-8.7,8-8.7h46.2
		c3.9,0,7.3,2.8,7.9,6.6c5.1,31.7,29.8,55.4,74.1,61.3V533.9l-24.7-6.3c-52.3-12.5-102.1-45.1-102.1-112.7
		c0-72.9,55.4-112.1,126.2-119v-33c0-4.4,3.6-8,8-8h28.1c4.4,0,8,3.6,8,8v32.7c68.5,6.9,119.9,46.9,125.9,109.2
		c0.5,4.7-3.2,8.8-8,8.8h-44.9c-4,0-7.4-3-7.9-6.9c-4-29.2-27.4-53-65.5-58.2v134.3l25.4,5.9c64.8,16,108.9,47,108.9,116.4
		C668.6,680.4,612.6,722.4,534.3,729.2z"/>
	<path d="M512,64C264.6,64,64,264.6,64,512s200.6,448,448,448s448-200.6,448-448S759.4,64,512,64z M512,884
		c-205.4,0-372-166.6-372-372s166.6-372,372-372s372,166.6,372,372S717.4,884,512,884z"/>
	<path d="M559.7,488.8l-25.4-5.9V348.6c38,5.2,61.5,29,65.5,58.2c0.5,4,3.9,6.9,7.9,6.9h44.9c4.7,0,8.4-4.1,8-8.8
		c-6.1-62.3-57.4-102.3-125.9-109.2V263c0-4.4-3.6-8-8-8h-28.1c-4.4,0-8,3.6-8,8v33c-70.8,6.9-126.2,46-126.2,119
		c0,67.6,49.8,100.2,102.1,112.7l24.7,6.3v142.7c-44.2-5.9-69-29.5-74.1-61.3c-0.6-3.8-4-6.6-7.9-6.6H363c-4.7,0-8.4,4-8,8.7
		c4.5,55,46.2,105.6,135.2,112.1V761c0,4.4,3.6,8,8,8h28.4c4.4,0,8-3.6,8-8.1l-0.2-31.7c78.3-6.9,134.3-48.8,134.3-124
		C668.6,535.8,624.5,504.8,559.7,488.8z M491.1,472.6c-5.6-1.6-10.3-3.1-15-5c-33.8-12.2-49.5-31.9-49.5-57.3
		c0-36.3,27.5-57,64.5-61.7V472.6z M534.3,677V543.3c3.1,0.9,5.9,1.6,8.8,2.2c47.3,14.4,63.2,34.4,63.2,65.1
		C606.3,649.7,576.9,673.2,534.3,677z"/>
</g>
</svg>
