<?xml version="1.0" encoding="utf-8"?>
<!-- Generator: Adobe Illustrator 21.0.0, SVG Export Plug-In . SVG Version: 6.00 Build 0)  -->
<svg version="1.1" id="图层_1" xmlns="http://www.w3.org/2000/svg" xmlns:xlink="http://www.w3.org/1999/xlink" x="0px" y="0px"
	 viewBox="0 0 1024 1024" style="enable-background:new 0 0 1024 1024;" xml:space="preserve">
<title>drag</title>
<desc>Created with Sketch.</desc>
<path d="M909.3,506.3L781.7,405.6c-4.7-3.7-11.7-0.4-11.7,5.7V476H548V254h64.8c6,0,9.4-7,5.7-11.7L517.7,114.7
	c-2.9-3.7-8.5-3.7-11.3,0L405.6,242.3c-3.7,4.7-0.4,11.7,5.7,11.7H476v222H254v-64.8c0-6-7-9.4-11.7-5.7L114.7,506.3
	c-3.7,2.9-3.7,8.5,0,11.3l127.5,100.8c4.7,3.7,11.7,0.4,11.7-5.7V548h222v222h-64.8c-6,0-9.4,7-5.7,11.7l100.8,127.5
	c2.9,3.7,8.5,3.7,11.3,0l100.8-127.5c3.7-4.7,0.4-11.7-5.7-11.7H548V548h222v64.8c0,6,7,9.4,11.7,5.7l127.5-100.8
	C912.9,514.8,912.9,509.2,909.3,506.3z"/>
</svg>
