<?xml version="1.0" encoding="utf-8"?>
<!-- Generator: Adobe Illustrator 21.0.0, SVG Export Plug-In . SVG Version: 6.00 Build 0)  -->
<svg version="1.1" id="图层_1" xmlns="http://www.w3.org/2000/svg" xmlns:xlink="http://www.w3.org/1999/xlink" x="0px" y="0px"
	 viewBox="0 0 1024 1024" style="enable-background:new 0 0 1024 1024;" xml:space="preserve">
<style type="text/css">
	.st0{fill:none;}
</style>
<title>dribbble-circle-fill</title>
<desc>Created with Sketch.</desc>
<g>
	<path class="st0" d="M512,224c-158.8,0-288,129.2-288,288s129.2,288,288,288c158.8,0,288-129.2,288-288S670.8,224,512,224z
		 M512,266.4c62.5,0,119.6,23.5,163.1,62c-4.4,6.3-41.5,56.1-128.9,88.9c-40.3-74.1-85-134.9-91.8-144
		C473.2,268.7,492.6,266.4,512,266.4z M407.4,289.8c6.5,8.9,50.5,69.8,91.2,142.3c-115.1,30.6-216.4,30.1-227.4,30
		C287.1,385.7,338.6,322.2,407.4,289.8z M266,512.4c0-2.5,0.1-5,0.1-7.5c10.8,0.2,130,1.7,252.8-35c7,13.8,13.8,27.8,19.9,41.7
		c-3.3,0.9-6.5,1.9-9.7,2.9c-126.9,41-194.4,152.8-200,162.3C290,633.2,266,575.6,266,512.4z M512,758.3
		c-56.9,0-109.3-19.4-151-51.9c4.4-9,54.2-105.3,193-153.6l1.6-0.5c34.5,89.7,48.8,165,52.5,186.6
		C578.6,751.4,546.1,758.4,512,758.3z M649.4,716.3c-2.5-15-15.6-87-47.8-175.4c77.1-12.3,144.8,7.9,153.2,10.5
		C743.9,619.9,704.6,679,649.4,716.3z M586.7,502.1c-1.7-4.2-3.5-8.5-5.3-12.7c-5.1-12-10.6-23.9-16.3-35.6
		c91-37.1,132.2-90,137.4-97c34.3,41.9,55,95.2,55.5,153.3C749.9,508.3,668.5,491.8,586.7,502.1z"/>
	<path d="M675.1,328.3c-43.4-38.5-100.6-62-163.1-62c-19.4,0-38.8,2.3-57.7,6.9c6.8,9.1,51.5,69.9,91.8,144
		C633.6,384.4,670.6,334.6,675.1,328.3z"/>
	<path d="M554,552.8c-138.7,48.3-188.6,144.6-193,153.6c41.7,32.5,94.1,51.9,151,51.9c34.1,0,66.6-6.9,96.1-19.5
		c-3.7-21.6-17.9-96.8-52.5-186.6L554,552.8z"/>
	<path d="M601.7,540.9c32.2,88.4,45.3,160.4,47.8,175.4c55.2-37.3,94.5-96.4,105.4-164.9C746.5,548.8,678.8,528.6,601.7,540.9z"/>
	<path d="M512,64C264.6,64,64,264.6,64,512s200.6,448,448,448s448-200.6,448-448S759.4,64,512,64z M512,800
		c-158.8,0-288-129.2-288-288s129.2-288,288-288c158.8,0,288,129.2,288,288S670.8,800,512,800z"/>
	<path d="M565.1,453.8c5.7,11.7,11.2,23.6,16.3,35.6c1.8,4.2,3.6,8.4,5.3,12.7c81.8-10.3,163.2,6.2,171.3,7.9
		c-0.5-58.1-21.3-111.4-55.5-153.3C697.2,363.8,656,416.7,565.1,453.8z"/>
	<path d="M498.6,432c-40.8-72.5-84.7-133.4-91.2-142.3c-68.8,32.5-120.3,95.9-136.2,172.2C282.2,462.1,383.6,462.6,498.6,432z"/>
	<path d="M529.2,514.5c3.2-1,6.4-2,9.7-2.9c-6.2-14-12.9-28-19.9-41.7c-122.8,36.8-242.1,35.2-252.8,35c-0.1,2.5-0.1,5-0.1,7.5
		c0,63.2,23.9,120.9,63.2,164.5C334.8,667.3,402.3,555.5,529.2,514.5z"/>
</g>
</svg>
