<?xml version="1.0" encoding="utf-8"?>
<!-- Generator: Adobe Illustrator 21.0.0, SVG Export Plug-In . SVG Version: 6.00 Build 0)  -->
<svg version="1.1" id="图层_1" xmlns="http://www.w3.org/2000/svg" xmlns:xlink="http://www.w3.org/1999/xlink" x="0px" y="0px"
	 viewBox="0 0 1024 1024" style="enable-background:new 0 0 1024 1024;" xml:space="preserve">
<style type="text/css">
	.st0{fill:none;}
</style>
<title>dropbox</title>
<desc>Created with Sketch.</desc>
<g>
	<polygon class="st0" points="512.5,248.5 246.8,412.7 512.5,577 777.7,412.7 	"/>
	<polygon points="64,556.9 328.2,730.4 512.5,577 246.8,412.7 	"/>
	<polygon points="960,266.6 960,266.6 960,266.6 	"/>
	<polygon points="960,266.6 696.8,95 512.5,248.5 777.7,412.7 512.5,577 696.8,730.4 960,558.8 777.7,412.7 	"/>
	<polygon points="513,609.8 328.2,763.3 248.8,711.8 248.8,769.6 513,928 776.7,769.6 776.7,711.8 697.8,763.3 	"/>
	<polygon points="328.2,95 64,265.1 246.8,412.7 512.5,248.5 	"/>
	<polygon points="64,556.9 64,556.9 64,556.9 	"/>
</g>
</svg>
