<?xml version="1.0" encoding="utf-8"?>
<!-- Generator: Adobe Illustrator 21.0.0, SVG Export Plug-In . SVG Version: 6.00 Build 0)  -->
<svg version="1.1" id="图层_1" xmlns="http://www.w3.org/2000/svg" xmlns:xlink="http://www.w3.org/1999/xlink" x="0px" y="0px"
	 viewBox="0 0 1024 1024" style="enable-background:new 0 0 1024 1024;" xml:space="preserve">
<title>edit-fill</title>
<desc>Created with Sketch.</desc>
<g>
	<path d="M880,836H144c-17.7,0-32,14.3-32,32v36c0,4.4,3.6,8,8,8h784c4.4,0,8-3.6,8-8v-36C912,850.3,897.7,836,880,836z"/>
	<path d="M257.7,752c2,0,4-0.2,6-0.5L431.9,722c2-0.4,3.9-1.3,5.3-2.8l423.9-423.9c3.9-3.9,3.9-10.2,0-14.1L694.9,114.9
		c-1.9-1.9-4.4-2.9-7.1-2.9s-5.2,1-7.1,2.9L256.8,538.8c-1.5,1.5-2.4,3.3-2.8,5.3l-29.5,168.2c-1.9,11.1,1.5,21.9,9.4,29.8
		C240.5,748.5,248.8,752,257.7,752z"/>
</g>
</svg>
