<?xml version="1.0" encoding="utf-8"?>
<!-- Generator: Adobe Illustrator 21.0.0, SVG Export Plug-In . SVG Version: 6.00 Build 0)  -->
<svg version="1.1" id="图层_1" xmlns="http://www.w3.org/2000/svg" xmlns:xlink="http://www.w3.org/1999/xlink" x="0px" y="0px"
	 viewBox="0 0 1024 1024" style="enable-background:new 0 0 1024 1024;" xml:space="preserve">
<style type="text/css">
	.st0{fill:none;}
</style>
<title>experiment</title>
<desc>Created with Sketch.</desc>
<g>
	<path class="st0" d="M490,652L490,652c46-38.5,104-60,165.3-60c21.8,0,43.3,2.7,63.9,8l-90.9-235.3V180H395.7v184.7L276.9,672.2
		c27.8,15.4,59.2,23.7,91.8,23.7C413.7,695.9,456.2,680.2,490,652z M552,432c22.1,0,40,17.9,40,40c0,22.1-17.9,40-40,40
		c-22.1,0-40-17.9-40-40C512,449.9,529.9,432,552,432z"/>
	<path class="st0" d="M655.3,660.1c-45,0-87.4,15.7-121.3,43.9l0,0c-46,38.5-104.1,60-165.3,60c-41.1,0-80.9-9.7-116.6-27.8
		L210.5,844h603l-60.6-156.9C723.7,669.5,690.2,660.1,655.3,660.1z"/>
	<circle cx="552" cy="472" r="40"/>
	<path d="M879,824.9L696.3,352V178H768v-68H256v68h71.7v174L145,824.9c-2.8,7.4-4.3,15.2-4.3,23.1c0,35.3,28.7,64,64,64h614.6
		c7.9,0,15.7-1.5,23.1-4.3C875.4,895,891.8,857.9,879,824.9z M395.7,364.7V180h232.6v184.7L719.2,600c-20.7-5.3-42.1-8-63.9-8
		c-61.2,0-119.2,21.5-165.3,60l0,0c-33.9,28.2-76.3,43.9-121.3,43.9c-32.7,0-64.1-8.3-91.8-23.7L395.7,364.7z M210.5,844l41.7-107.8
		c35.7,18.1,75.4,27.8,116.6,27.8c61.2,0,119.2-21.5,165.3-60l0,0c33.9-28.2,76.3-43.9,121.3-43.9c35,0,68.4,9.5,97.6,27.1
		L813.5,844H210.5z"/>
</g>
</svg>
