<?xml version="1.0" encoding="utf-8"?>
<!-- Generator: Adobe Illustrator 21.0.0, SVG Export Plug-In . SVG Version: 6.00 Build 0)  -->
<svg version="1.1" id="图层_1" xmlns="http://www.w3.org/2000/svg" xmlns:xlink="http://www.w3.org/1999/xlink" x="0px" y="0px"
	 viewBox="0 0 1024 1024" style="enable-background:new 0 0 1024 1024;" xml:space="preserve">
<style type="text/css">
	.st0{fill:none;}
</style>
<title>file-pdf</title>
<desc>Created with Sketch.</desc>
<g>
	<path class="st0" d="M421.6,726.3c-10.3,9.4-23.4,22.4-30.1,34.7C397.2,756.6,407.7,746.4,421.6,726.3z"/>
	<path class="st0" d="M546.7,657.5c-15-11.9-28.4-27.7-39.1-46.2c-7.7,20-18.7,47.3-32.1,71.5c4-1.6,8-3.3,12.3-5
		C505.3,670.5,525.1,662.4,546.7,657.5z"/>
	<polygon class="st0" points="602,326 790.2,326 602,137.8 	"/>
	<path class="st0" d="M509.8,540.2c4-13.6,4.7-40.5-0.5-49.4c-0.7-1.2-1.5-1.9-2.2-2C504.1,492.1,504.9,520.3,509.8,540.2z"/>
	<path class="st0" d="M534,352V136H232v752h560V394H576C552.8,394,534,375.2,534,352z M678.9,650.4L678.9,650.4
		c9.1,9.1,11.8,26.1,6.2,39.6c-3.2,7.6-11.7,20.5-33.3,20.5c-21.8,0-53.9-9.7-82.1-24.8c-25.5,4.3-53.7,13.9-80.9,23.1
		c-5.8,2-11.8,4-17.6,5.9c-38,65.2-66.5,79.4-84.1,79.4c-4.2,0-7.8-0.8-10.8-2c-6.9-2.6-12.7-8-16.5-15c-3.3-6.3-4.6-13.3-3.5-18.8
		c6-29.8,45.6-53.5,75.2-68.7c15.9-28,37.6-75.1,51.2-107.5c-10.8-41.8-16.6-74.6-10.1-98.6c3.6-13.1,17.6-22.1,33.4-21.4
		c13.4,0.6,29.1,8.8,32.9,30.2c5.6,27-1.6,56.8-7.4,80.7l-0.3,1.4c11.7,30.4,27.8,50.8,52.3,65.8C633.6,634,665.7,637.4,678.9,650.4
		z"/>
	<path class="st0" d="M618,669.4c35.3,13.9,43.6,9.1,44.3,8.6l0.2-0.3l0.2,0c0.6-0.4,0.5-0.7,0.4-0.9
		C663.1,676.7,658.7,667.5,618,669.4z"/>
	<path d="M531.3,574.4l0.3-1.4c5.8-23.9,13.1-53.7,7.4-80.7c-3.8-21.3-19.5-29.6-32.9-30.2c-15.8-0.7-29.9,8.3-33.4,21.4
		c-6.6,24-0.7,56.8,10.1,98.6c-13.6,32.4-35.3,79.5-51.2,107.5c-29.6,15.3-69.3,38.9-75.2,68.7c-1.2,5.5,0.2,12.5,3.5,18.8
		c3.7,7,9.6,12.4,16.5,15c3,1.1,6.6,2,10.8,2c17.6,0,46.1-14.2,84.1-79.4c5.8-1.9,11.8-3.9,17.6-5.9c27.2-9.2,55.4-18.8,80.9-23.1
		c28.2,15.1,60.3,24.8,82.1,24.8c21.6,0,30.1-12.8,33.3-20.5c5.6-13.5,2.9-30.5-6.2-39.6l0,0c-13.2-13-45.3-16.4-95.3-10.2
		C559.1,625.2,543,604.8,531.3,574.4z M421.6,726.3c-13.9,20.2-24.4,30.3-30.1,34.7C398.2,748.7,411.3,735.7,421.6,726.3z
		 M509.2,490.8c5.2,8.9,4.5,35.8,0.5,49.4c-4.9-19.9-5.6-48.1-2.7-51.4C507.8,488.9,508.5,489.5,509.2,490.8z M507.6,611.3
		c10.7,18.5,24.2,34.4,39.1,46.2c-21.6,4.9-41.3,13-58.9,20.2c-4.2,1.7-8.3,3.4-12.3,5C488.8,658.6,499.9,631.3,507.6,611.3z
		 M663.2,676.8c0.1,0.2,0.2,0.5-0.4,0.9l-0.2,0l-0.2,0.3c-0.8,0.5-9,5.3-44.3-8.6C658.7,667.5,663.1,676.7,663.2,676.8z"/>
	<path d="M854.6,288.6L639.4,73.4c-6-6-14.1-9.4-22.6-9.4H192c-17.7,0-32,14.3-32,32v832c0,17.7,14.3,32,32,32h640
		c17.7,0,32-14.3,32-32V311.3C864,302.8,860.6,294.6,854.6,288.6z M790.2,326H602V137.8L790.2,326z M792,888H232V136h302v216
		c0,23.2,18.8,42,42,42h216V888z"/>
</g>
</svg>
