<?xml version="1.0" encoding="utf-8"?>
<!-- Generator: Adobe Illustrator 21.0.0, SVG Export Plug-In . SVG Version: 6.00 Build 0)  -->
<svg version="1.1" id="图层_1" xmlns="http://www.w3.org/2000/svg" xmlns:xlink="http://www.w3.org/1999/xlink" x="0px" y="0px"
	 viewBox="0 0 1024 1024" style="enable-background:new 0 0 1024 1024;" xml:space="preserve">
<style type="text/css">
	.st0{fill:none;}
</style>
<title>file-ppt</title>
<desc>Created with Sketch.</desc>
<g>
	<path class="st0" d="M464.5,516.2v108.5h38.9c44.7,0,71.2-10.9,71.2-54.3c0-34.4-20.1-54.1-53.9-54.1H464.5z"/>
	<polygon class="st0" points="602,326 790.2,326 602,137.8 	"/>
	<path class="st0" d="M534,352V136H232v752h560V394H576C552.8,394,534,375.2,534,352z M624,570.3c0,55.2-36.8,94.1-96.2,94.1h-63.3
		V760c0,4.4-3.6,8-8,8H424c-4.4,0-8-3.6-8-8V484c0-4.4,3.6-8,8-8h104C587.7,476,624,515.8,624,570.3z"/>
	<path d="M424,476c-4.4,0-8,3.6-8,8v276c0,4.4,3.6,8,8,8h32.5c4.4,0,8-3.6,8-8v-95.5h63.3c59.4,0,96.2-38.9,96.2-94.1
		c0-54.5-36.3-94.3-96-94.3H424z M574.6,570.3c0,43.4-26.5,54.3-71.2,54.3h-38.9V516.2h56.2C554.5,516.2,574.6,535.9,574.6,570.3z"
		/>
	<path d="M854.6,288.6L639.4,73.4c-6-6-14.1-9.4-22.6-9.4H192c-17.7,0-32,14.3-32,32v832c0,17.7,14.3,32,32,32h640
		c17.7,0,32-14.3,32-32V311.3C864,302.8,860.6,294.6,854.6,288.6z M790.2,326H602V137.8L790.2,326z M792,888H232V136h302v216
		c0,23.2,18.8,42,42,42h216V888z"/>
</g>
</svg>
