<?xml version="1.0" encoding="utf-8"?>
<!-- Generator: Adobe Illustrator 21.0.0, SVG Export Plug-In . SVG Version: 6.00 Build 0)  -->
<svg version="1.1" id="图层_1" xmlns="http://www.w3.org/2000/svg" xmlns:xlink="http://www.w3.org/1999/xlink" x="0px" y="0px"
	 viewBox="0 0 1024 1024" style="enable-background:new 0 0 1024 1024;" xml:space="preserve">
<style type="text/css">
	.st0{fill:none;}
</style>
<title>file-unknown</title>
<desc>Created with Sketch.</desc>
<g>
	<path class="st0" d="M534,352V136H232v752h560V394H576C552.8,394,534,375.2,534,352z M512,776c-17.7,0-32-14.3-32-32s14.3-32,32-32
		c17.7,0,32,14.3,32,32S529.7,776,512,776z M622,547.6c0.7,44.9-29.7,84.6-74.3,98.9c-5.8,1.8-9.7,7.3-9.7,13.3V672
		c0,5.5-4.5,10-10,10h-32c-5.5,0-10-4.5-10-10l0-32c0.2-19.8,15.4-37.3,34.7-40.1C549,596.2,570,574.3,570,549
		c0-28.1-25.8-51.5-58-51.5c-32.2,0-58,23.4-58,51.6c0,5.2-4.4,9.4-9.8,9.4h-32.4c-5.4,0-9.8-4.1-9.8-9.5
		c0-57.5,50.1-103.7,111.5-103C572.8,446.8,621.2,492.1,622,547.6z"/>
	<polygon class="st0" points="602,326 790.2,326 602,137.8 	"/>
	<path d="M854.6,288.7L639.4,73.4c-6-6-14.2-9.4-22.7-9.4H192c-17.7,0-32,14.3-32,32v832c0,17.7,14.3,32,32,32h640
		c17.7,0,32-14.3,32-32V311.3C864,302.8,860.6,294.7,854.6,288.7z M790.2,326H602V137.8L790.2,326z M792,888H232V136h302v216
		c0,23.2,18.8,42,42,42h216V888z"/>
	<path d="M402,549c0,5.4,4.4,9.5,9.8,9.5h32.4c5.4,0,9.8-4.2,9.8-9.4c0-28.2,25.8-51.6,58-51.6c32.2,0,58,23.4,58,51.5
		c0,25.3-21,47.2-49.3,50.9c-19.3,2.8-34.5,20.3-34.7,40.1l0,32c0,5.5,4.5,10,10,10h32c5.5,0,10-4.5,10-10v-12.2
		c0-6,4-11.5,9.7-13.3c44.6-14.4,75-54,74.3-98.9c-0.8-55.5-49.2-100.8-108.5-101.6C452.1,445.3,402,491.6,402,549z"/>
	<circle cx="512" cy="744" r="32"/>
</g>
</svg>
