<?xml version="1.0" encoding="UTF-8"?>
<svg width="1024px" height="1024px" viewBox="0 0 1024 1024" version="1.1" xmlns="http://www.w3.org/2000/svg" xmlns:xlink="http://www.w3.org/1999/xlink">
    <!-- Generator: Sketch 50.2 (55047) - http://www.bohemiancoding.com/sketch -->
    <title>file-word-fill</title>
    <desc>Created with Sketch.</desc>
    <defs></defs>
    <g id="file-word-fill" stroke="none" stroke-width="1" fill="none" fill-rule="evenodd">
        <path d="M854.6,288.7 C860.6,294.7 864,302.8 864,311.3 L864,928 C864,945.7 849.7,960 832,960 L192,960 C174.3,960 160,945.7 160,928 L160,96 C160,78.3 174.3,64 192,64 L616.7,64 C625.2,64 633.4,67.4 639.4,73.4 L854.6,288.7 Z M790.2,326 L602,137.8 L602,326 L790.2,326 Z M512,566.095304 L564.813522,763.107165 C566.21971,768.352708 570.97352,772 576.404274,772 L608.18406,772 C613.608986,772 618.359218,768.360381 619.770742,763.122307 L694.145517,487.122307 C694.419865,486.104217 694.558835,485.054408 694.558835,484 C694.558835,477.372583 689.186252,472 682.558835,472 L646.98268,472 C641.391459,472 636.541148,475.861439 635.287975,481.310413 L589.49726,680.414932 L539.738661,481.093517 C538.404603,475.74959 533.603894,472 528.095966,472 L495.904034,472 C490.396106,472 485.595397,475.74959 484.261339,481.093517 L434.601106,680.020903 L388.50535,481.288594 C387.243903,475.850127 382.398531,472 376.815685,472 L341.433785,472 C340.38212,472 339.335018,472.138247 338.31939,472.411189 C331.919066,474.131222 328.124941,480.714071 329.844974,487.114395 L404.017643,763.114395 C405.42638,768.356373 410.178483,772 415.606454,772 L447.595726,772 C453.02648,772 457.78029,768.352708 459.186478,763.107165 L512,566.095304 Z" id="Combined-Shape" fill="#000000" fill-rule="nonzero"></path>
    </g>
</svg>