<?xml version="1.0" encoding="utf-8"?>
<!-- Generator: Adobe Illustrator 21.0.0, SVG Export Plug-In . SVG Version: 6.00 Build 0)  -->
<svg version="1.1" id="图层_1" xmlns="http://www.w3.org/2000/svg" xmlns:xlink="http://www.w3.org/1999/xlink" x="0px" y="0px"
	 viewBox="0 0 1024 1024" style="enable-background:new 0 0 1024 1024;" xml:space="preserve">
<title>fullscreen</title>
<desc>Created with Sketch.</desc>
<g>
	<path d="M290,236.4l43.9-43.9c4.7-4.7,1.9-12.8-4.7-13.6l-160.2-18.9c-5.1-0.6-9.5,3.7-8.9,8.9L179,329.1c0.8,6.6,8.9,9.4,13.6,4.7
		l43.7-43.7L370,423.7c3.1,3.1,8.2,3.1,11.3,0l42.4-42.3c3.1-3.1,3.1-8.2,0-11.3L290,236.4z"/>
	<path d="M642.7,423.7c3.1,3.1,8.2,3.1,11.3,0l133.7-133.6l43.7,43.7c4.7,4.7,12.8,1.9,13.6-4.7l18.9-160.1c0.6-5.1-3.7-9.5-8.9-8.9
		L694.8,179c-6.6,0.8-9.4,8.9-4.7,13.6l43.9,43.9L600.3,370c-3.1,3.1-3.1,8.2,0,11.3L642.7,423.7z"/>
	<path d="M845,694.9c-0.8-6.6-8.9-9.4-13.6-4.7l-43.7,43.7L654,600.3c-3.1-3.1-8.2-3.1-11.3,0l-42.4,42.3c-3.1,3.1-3.1,8.2,0,11.3
		L734,787.6l-43.9,43.9c-4.7,4.7-1.9,12.8,4.7,13.6l160.2,18.9c5.1,0.6,9.5-3.7,8.9-8.9L845,694.9z"/>
	<path d="M381.3,600.3c-3.1-3.1-8.2-3.1-11.3,0L236.3,733.9l-43.7-43.7c-4.7-4.7-12.8-1.9-13.6,4.7l-18.9,160.1
		c-0.6,5.1,3.7,9.5,8.9,8.9L329.2,845c6.6-0.8,9.4-8.9,4.7-13.6L290,787.6L423.7,654c3.1-3.1,3.1-8.2,0-11.3L381.3,600.3z"/>
</g>
</svg>
