<?xml version="1.0" encoding="utf-8"?>
<!-- Generator: Adobe Illustrator 21.0.0, SVG Export Plug-In . SVG Version: 6.00 Build 0)  -->
<svg version="1.1" id="图层_1" xmlns="http://www.w3.org/2000/svg" xmlns:xlink="http://www.w3.org/1999/xlink" x="0px" y="0px"
	 viewBox="0 0 1024 1024" style="enable-background:new 0 0 1024 1024;" xml:space="preserve">
<style type="text/css">
	.st0{fill:none;}
</style>
<title>fund</title>
<desc>Created with Sketch.</desc>
<g>
	<path class="st0" d="M134,796h752V236H134V796z M190.3,665.6l214.9-215c0,0,0,0,0,0c3.1-3.1,8.2-3.1,11.3,0L531,565l254.5-254.6
		c3.1-3.1,8.2-3.1,11.3,0l36.8,36.8c3.1,3.1,3.1,8.2,0,11.3l-297,297.2c0,0,0,0,0,0c-3.1,3.1-8.2,3.1-11.3,0L410.9,541.1
		L238.4,713.7c-3.1,3.1-8.2,3.1-11.3,0l-36.8-36.8C187.2,673.8,187.2,668.7,190.3,665.6z"/>
	<path d="M926,164H94c-17.7,0-32,14.3-32,32v640c0,17.7,14.3,32,32,32h832c17.7,0,32-14.3,32-32V196C958,178.3,943.7,164,926,164z
		 M886,796H134V236h752V796z"/>
	<path d="M227.1,713.7c3.1,3.1,8.2,3.1,11.3,0l172.5-172.5l114.4,114.5c3.1,3.1,8.2,3.1,11.3,0c0,0,0,0,0,0l297-297.2
		c3.1-3.1,3.1-8.2,0-11.3l-36.8-36.8c-3.1-3.1-8.2-3.1-11.3,0L531,565L416.6,450.5c-3.1-3.1-8.2-3.1-11.3,0c0,0,0,0,0,0l-214.9,215
		c-3.1,3.1-3.1,8.2,0,11.3L227.1,713.7z"/>
</g>
</svg>
