<?xml version="1.0" encoding="utf-8"?>
<!-- Generator: Adobe Illustrator 21.0.0, SVG Export Plug-In . SVG Version: 6.00 Build 0)  -->
<svg version="1.1" id="图层_1" xmlns="http://www.w3.org/2000/svg" xmlns:xlink="http://www.w3.org/1999/xlink" x="0px" y="0px"
	 viewBox="0 0 1024 1024" style="enable-background:new 0 0 1024 1024;" xml:space="preserve">
<style type="text/css">
	.st0{fill:none;}
</style>
<title>gateway</title>
<desc>Created with Sketch.</desc>
<g>
	<rect x="144" y="240" class="st0" width="88" height="88"/>
	<rect x="792" y="240" class="st0" width="88" height="88"/>
	<rect x="144" y="696" class="st0" width="88" height="88"/>
	<path class="st0" d="M728,376v-56H296v56c0,8.8-7.2,16-16,16h-56v240h56c8.8,0,16,7.2,16,16v56h432v-56c0-8.8,7.2-16,16-16h56V392
		h-56C735.2,392,728,384.8,728,376z"/>
	<rect x="792" y="696" class="st0" width="88" height="88"/>
	<path d="M928,392c8.8,0,16-7.2,16-16V192c0-8.8-7.2-16-16-16H744c-8.8,0-16,7.2-16,16v56H296v-56c0-8.8-7.2-16-16-16H96
		c-8.8,0-16,7.2-16,16v184c0,8.8,7.2,16,16,16h56v240H96c-8.8,0-16,7.2-16,16v184c0,8.8,7.2,16,16,16h184c8.8,0,16-7.2,16-16v-56
		h432v56c0,8.8,7.2,16,16,16h184c8.8,0,16-7.2,16-16V648c0-8.8-7.2-16-16-16h-56V392H928z M792,240h88v88h-88V240z M144,328v-88h88
		v88H144z M232,784h-88v-88h88V784z M880,696v88h-88v-88H880z M800,632h-56c-8.8,0-16,7.2-16,16v56H296v-56c0-8.8-7.2-16-16-16h-56
		V392h56c8.8,0,16-7.2,16-16v-56h432v56c0,8.8,7.2,16,16,16h56V632z"/>
</g>
</svg>
