<?xml version="1.0" encoding="utf-8"?>
<!-- Generator: Adobe Illustrator 21.0.0, SVG Export Plug-In . SVG Version: 6.00 Build 0)  -->
<svg version="1.1" id="图层_1" xmlns="http://www.w3.org/2000/svg" xmlns:xlink="http://www.w3.org/1999/xlink" x="0px" y="0px"
	 viewBox="0 0 1024 1024" style="enable-background:new 0 0 1024 1024;" xml:space="preserve">
<style type="text/css">
	.st0{fill:none;}
</style>
<title>highlight</title>
<desc>Created with Sketch.</desc>
<g>
	<polygon class="st0" points="229.6,796.2 389.8,796.2 444.2,742.2 364.1,663.3 	"/>
	<polygon class="st0" points="373.2,565.2 544.6,734.1 613.2,666.5 441.8,497.6 	"/>
	<polygon class="st0" points="450.3,399.1 713.1,658 860.4,513 597.6,254 	"/>
	<path d="M957.6,507.4C957.6,507.4,957.6,507.4,957.6,507.4L603.2,158.2c-3.1-3.1-8.1-3.1-11.2,0L353.3,393.4
		c-3.1,3.1-3.2,8.2-0.1,11.3c0,0,0.1,0.1,0.1,0.1l40,39.4L276.1,559.5c-3.1,3.1-3.2,8.2-0.1,11.3c0,0,0.1,0.1,0.1,0.1l39.5,38.9
		l-189.1,187H72.1c-4.4,0-8.1,3.6-8.1,8V860c0,4.4,3.6,8,8,8h344.9c2.1,0,4.1-0.8,5.6-2.3l76.1-75.6l40.4,39.8
		c3.1,3.1,8.1,3.1,11.2,0l117.1-115.6l40.1,39.5c3.1,3.1,8.1,3.1,11.2,0l238.7-235.2C960.7,515.6,960.7,510.6,957.6,507.4z
		 M389.8,796.2H229.6l134.4-133l80.1,78.9L389.8,796.2z M544.6,734.1L373.2,565.2l68.6-67.6l171.4,168.9L544.6,734.1z M713.1,658
		L450.3,399.1L597.6,254l262.8,259L713.1,658z"/>
</g>
</svg>
