<?xml version="1.0" encoding="utf-8"?>
<!-- Generator: Adobe Illustrator 21.0.0, SVG Export Plug-In . SVG Version: 6.00 Build 0)  -->
<svg version="1.1" id="图层_1" xmlns="http://www.w3.org/2000/svg" xmlns:xlink="http://www.w3.org/1999/xlink" x="0px" y="0px"
	 viewBox="0 0 1024 1024" style="enable-background:new 0 0 1024 1024;" xml:space="preserve">
<title>home-fill</title>
<desc>Created with Sketch.</desc>
<path d="M946.5,505L534.6,93.4l0,0c-12.5-12.5-32.7-12.5-45.2,0L77.5,505c-12,12-18.8,28.3-18.8,45.3c0,35.3,28.7,64,64,64h43.4V908
	c0,17.7,14.3,32,32,32H448V716h112v224h265.9c17.7,0,32-14.3,32-32V614.3h43.4c17,0,33.3-6.7,45.3-18.8
	C971.5,570.5,971.5,530,946.5,505z"/>
</svg>
