<?xml version="1.0" encoding="utf-8"?>
<!-- Generator: Adobe Illustrator 21.0.0, SVG Export Plug-In . SVG Version: 6.00 Build 0)  -->
<svg version="1.1" id="图层_1" xmlns="http://www.w3.org/2000/svg" xmlns:xlink="http://www.w3.org/1999/xlink" x="0px" y="0px"
	 viewBox="0 0 1024 1024" style="enable-background:new 0 0 1024 1024;" xml:space="preserve">
<style type="text/css">
	.st0{fill:none;}
</style>
<title>hourglass</title>
<desc>Created with Sketch.</desc>
<g>
	<path class="st0" d="M512,548c-42.2,0-81.9,16.4-111.7,46.3C370.4,624.1,354,663.8,354,706v134h316V706
		c0-42.2-16.4-81.9-46.3-111.7C593.9,564.4,554.2,548,512,548z"/>
	<path class="st0" d="M354,318c0,42.2,16.4,81.9,46.3,111.7C430.1,459.6,469.8,476,512,476s81.9-16.4,111.7-46.3
		C653.6,399.9,670,360.2,670,318V184H354V318z"/>
	<path d="M742,318V184h86c4.4,0,8-3.6,8-8v-56c0-4.4-3.6-8-8-8h-86H282h-86c-4.4,0-8,3.6-8,8v56c0,4.4,3.6,8,8,8h86v134
		c0,81.5,42.4,153.2,106.4,194C324.4,552.8,282,624.5,282,706v134h-86c-4.4,0-8,3.6-8,8v56c0,4.4,3.6,8,8,8h86h460h86
		c4.4,0,8-3.6,8-8v-56c0-4.4-3.6-8-8-8h-86V706c0-81.5-42.4-153.2-106.4-194C699.6,471.2,742,399.5,742,318z M670,706v134H354V706
		c0-42.2,16.4-81.9,46.3-111.7C430.1,564.4,469.8,548,512,548s81.9,16.4,111.7,46.3C653.6,624.1,670,663.8,670,706z M670,318
		c0,42.2-16.4,81.9-46.3,111.7C593.9,459.6,554.2,476,512,476s-81.9-16.4-111.7-46.3C370.4,399.9,354,360.2,354,318V184h316V318z"/>
</g>
</svg>
