<?xml version="1.0" encoding="utf-8"?>
<!-- Generator: Adobe Illustrator 21.0.0, SVG Export Plug-In . SVG Version: 6.00 Build 0)  -->
<svg version="1.1" id="图层_1" xmlns="http://www.w3.org/2000/svg" xmlns:xlink="http://www.w3.org/1999/xlink" x="0px" y="0px"
	 viewBox="0 0 1024 1024" style="enable-background:new 0 0 1024 1024;" xml:space="preserve">
<style type="text/css">
	.st0{fill:none;}
</style>
<title>HTML5-fill</title>
<desc>Created with Sketch.</desc>
<g>
	<polygon class="st0" points="281.6,248.8 283.3,273.1 306,526.6 510.9,526.6 510.9,526.7 624.7,526.7 613.3,645.2 511.2,672.8 
		510.8,672.8 408.4,645.2 401.9,572 310.8,572 322.2,716.7 510.8,768.7 510.9,768.7 510.9,768.8 511.2,768.7 512.5,768.7 
		512.5,768.3 699.5,716.8 701.2,700.5 722.4,458.3 725.6,434 512.5,434 390.5,434 382.3,339.8 512.4,339.8 733.7,339.8 735.4,320.2 
		740.2,273.1 741.9,248.8 512.4,248.8 	"/>
	<path d="M145.2,96l66,746.6L512,928l299.6-85.4L878.9,96H145.2z M740.2,273.1l-4.8,47.2l-1.7,19.5H512.4H382.3l8.2,94.2h122h213.1
		l-3.3,24.3l-21.2,242.2l-1.7,16.2l-187,51.6v0.3h-1.2l-0.3,0.1v-0.1h-0.1l-188.6-52L310.8,572h91.1l6.5,73.2l102.4,27.7h0.4
		l102-27.6l11.4-118.6H510.9v-0.1H306l-22.8-253.5l-1.7-24.3h230.8h229.5L740.2,273.1z"/>
</g>
</svg>
