<?xml version="1.0" encoding="utf-8"?>
<!-- Generator: Adobe Illustrator 21.0.0, SVG Export Plug-In . SVG Version: 6.00 Build 0)  -->
<svg version="1.1" id="图层_1" xmlns="http://www.w3.org/2000/svg" xmlns:xlink="http://www.w3.org/1999/xlink" x="0px" y="0px"
	 viewBox="0 0 1024 1024" style="enable-background:new 0 0 1024 1024;" xml:space="preserve">
<style type="text/css">
	.st0{fill:none;}
</style>
<title>id card-fill</title>
<desc>Created with Sketch.</desc>
<g>
	<path class="st0" d="M610.3,476h123.4c1.3,0,2.3-3.6,2.3-8v-48c0-4.4-1-8-2.3-8H610.3c-1.3,0-2.3,3.6-2.3,8v48
		C608,472.4,609,476,610.3,476z"/>
	<path class="st0" d="M455.2,538.5c18.1-20,29.1-46.4,29.1-75.5c0-61.9-49.9-112-111.4-112s-111.4,50.1-111.4,112
		c0,29.1,11,55.6,29.1,75.5c-42.6,26.4-71.8,72.8-74.6,126.1c-0.2,4.6,3.4,8.4,8,8.4h43.9c4.2,0,7.6-3.3,7.9-7.5
		c3.8-50.5,46-90.5,97.2-90.5s93.4,40,97.2,90.5c0.3,4.2,3.7,7.5,7.9,7.5H522c4.6,0,8.2-3.8,7.8-8.4
		C527,611.3,497.9,565,455.2,538.5z M373,515c-28.5,0-51.7-23.3-51.7-52s23.2-52,51.7-52s51.7,23.3,51.7,52S401.5,515,373,515z"/>
	<path class="st0" d="M807.9,564c0-4.4-3.2-8-7.1-8H615.1c-3.9,0-7.1,3.6-7.1,8v48c0,4.4,3.2,8,7.1,8h185.8c3.9,0,7.1-3.6,7.1-8
		h-0.1V564z"/>
	<path d="M373,411c-28.5,0-51.7,23.3-51.7,52s23.2,52,51.7,52s51.7-23.3,51.7-52S401.5,411,373,411z"/>
	<path d="M928,160H96c-17.7,0-32,14.3-32,32v640c0,17.7,14.3,32,32,32h832c17.7,0,32-14.3,32-32V192C960,174.3,945.7,160,928,160z
		 M608,420c0-4.4,1-8,2.3-8h123.4c1.3,0,2.3,3.6,2.3,8v48c0,4.4-1,8-2.3,8H610.3c-1.3,0-2.3-3.6-2.3-8V420z M522,673h-43.9
		c-4.2,0-7.6-3.3-7.9-7.5c-3.8-50.5-46-90.5-97.2-90.5s-93.4,40-97.2,90.5c-0.3,4.2-3.7,7.5-7.9,7.5H224c-4.6,0-8.2-3.8-8-8.4
		c2.8-53.3,32-99.7,74.6-126.1c-18.1-19.9-29.1-46.4-29.1-75.5c0-61.9,49.9-112,111.4-112s111.4,50.1,111.4,112
		c0,29.1-11,55.5-29.1,75.5c42.7,26.5,71.8,72.8,74.6,126.1C530.2,669.2,526.6,673,522,673z M800.9,620H615.1c-3.9,0-7.1-3.6-7.1-8
		v-48c0-4.4,3.2-8,7.1-8h185.7c3.9,0,7.1,3.6,7.1,8v48h0.1C808,616.4,804.8,620,800.9,620z"/>
</g>
</svg>
