<?xml version="1.0" encoding="utf-8"?>
<!-- Generator: Adobe Illustrator 21.0.0, SVG Export Plug-In . SVG Version: 6.00 Build 0)  -->
<svg version="1.1" id="图层_1" xmlns="http://www.w3.org/2000/svg" xmlns:xlink="http://www.w3.org/1999/xlink" x="0px" y="0px"
	 viewBox="0 0 1024 1024" style="enable-background:new 0 0 1024 1024;" xml:space="preserve">
<style type="text/css">
	.st0{fill:none;}
</style>
<title>id card</title>
<desc>Created with Sketch.</desc>
<g>
	<path class="st0" d="M373,515c28.5,0,51.7-23.3,51.7-52c0-28.7-23.2-52-51.7-52s-51.7,23.3-51.7,52C321.3,491.7,344.5,515,373,515z
		"/>
	<path class="st0" d="M136,792h752V232H136V792z M608,420c0-4.4,1-8,2.3-8h123.4c1.3,0,2.3,3.6,2.3,8v48c0,4.4-1,8-2.3,8H610.3
		c-1.3,0-2.3-3.6-2.3-8V420z M608,564c0-4.4,3.2-8,7.1-8h185.7c3.9,0,7.1,3.6,7.1,8v48c0,4.4-3.2,8-7.1,8H615.1
		c-3.9,0-7.1-3.6-7.1-8V564z M216,664.6c2.8-53.3,32-99.7,74.6-126.1c-18.1-19.9-29.1-46.4-29.1-75.5c0-61.9,49.9-112,111.4-112
		s111.4,50.1,111.4,112c0,29.1-11,55.5-29.1,75.5c42.7,26.5,71.8,72.8,74.6,126.1c0.2,4.6-3.4,8.4-8,8.4h-43.9
		c-4.2,0-7.6-3.3-7.9-7.5c-3.8-50.5-46-90.5-97.2-90.5s-93.4,40-97.2,90.5c-0.3,4.2-3.7,7.5-7.9,7.5H224
		C219.4,673,215.8,669.2,216,664.6z"/>
	<path d="M928,160H96c-17.7,0-32,14.3-32,32v640c0,17.7,14.3,32,32,32h832c17.7,0,32-14.3,32-32V192C960,174.3,945.7,160,928,160z
		 M888,792H136V232h752V792z"/>
	<path d="M610.3,476h123.4c1.3,0,2.3-3.6,2.3-8v-48c0-4.4-1-8-2.3-8H610.3c-1.3,0-2.3,3.6-2.3,8v48C608,472.4,609,476,610.3,476z"/>
	<path d="M615.1,620h185.7c3.9,0,7.1-3.6,7.1-8v-48c0-4.4-3.2-8-7.1-8H615.1c-3.9,0-7.1,3.6-7.1,8v48C608,616.4,611.2,620,615.1,620
		z"/>
	<path d="M224,673h43.9c4.2,0,7.6-3.3,7.9-7.5c3.8-50.5,46-90.5,97.2-90.5s93.4,40,97.2,90.5c0.3,4.2,3.7,7.5,7.9,7.5H522
		c4.6,0,8.2-3.8,8-8.4c-2.8-53.3-32-99.7-74.6-126.1c18.1-19.9,29.1-46.4,29.1-75.5c0-61.9-49.9-112-111.4-112
		s-111.4,50.1-111.4,112c0,29.1,11,55.5,29.1,75.5c-42.7,26.5-71.8,72.8-74.6,126.1C215.8,669.2,219.4,673,224,673z M373,411
		c28.5,0,51.7,23.3,51.7,52c0,28.7-23.2,52-51.7,52s-51.7-23.3-51.7-52C321.3,434.3,344.5,411,373,411z"/>
</g>
</svg>
