<?xml version="1.0" encoding="utf-8"?>
<!-- Generator: Adobe Illustrator 21.0.0, SVG Export Plug-In . SVG Version: 6.00 Build 0)  -->
<svg version="1.1" id="图层_1" xmlns="http://www.w3.org/2000/svg" xmlns:xlink="http://www.w3.org/1999/xlink" x="0px" y="0px"
	 viewBox="0 0 1024 1024" style="enable-background:new 0 0 1024 1024;" xml:space="preserve">
<style type="text/css">
	.st0{fill:none;}
</style>
<title>insurance-fill</title>
<desc>Created with Sketch.</desc>
<g>
	<path class="st0" d="M441.7,306.9l-38.6-18.3c-3.4-1.6-7.3,0.2-8.4,3.7c-17.5,58.5-45.2,110.2-82.2,153.6c-1.4,1.5-1.8,3.6-1.2,5.6
		l13.2,43.5c1.4,4.5,7,5.8,10.2,2.4c7.7-8.1,15.4-16.8,23.1-26V656c0,4.4,3.6,8,8,8h37.3c4.4,0,8-3.6,8-8h0.2V393.1
		c13.8-25.1,25.1-51.7,33.6-79C445.8,311.3,444.4,308.2,441.7,306.9z"/>
	<path class="st0" d="M706.6,598.3c-30.5-22.6-54.2-47.8-72.3-76.9h59c4.4,0,8-3.6,8-8v-35.6c0-4.4-3.6-8-8-8h-98.8v-18.6h66.7
		c4.4,0,8-3.6,8-8V316c0-4.4-3.6-8-8-8H476.5c-4.4,0-8,3.6-8,8v127.4c0,4.4,3.6,8,8,8h65.9V470h-94.9c-4.4,0-8,3.6-8,8v35.6
		c0,4.4,3.6,8,8,8h55.1c-19.1,30.8-42.4,55.7-71,76c-2.6,1.8-3.3,5.4-1.6,8.1l22.8,36.5c1.9,3.1,6.1,3.8,8.9,1.4
		c31.6-26.8,58.6-62.9,80.6-107.6v120c0,4.4,3.6,8,8,8h36.2c4.4,0,8-3.6,8-8V535.9c21.3,41.7,47.5,77.6,78.1,106.9
		c2.6,2.5,6.7,2.2,8.9-0.7l26.3-35.3C709.8,604.2,709.2,600.4,706.6,598.3z M519.9,400.4v-41.6h97.9v41.6H519.9z"/>
	<rect x="519.9" y="358.8" width="97.9" height="41.6"/>
	<path d="M866.9,169.9L527.1,54.1C523,52.7,517.5,52,512,52s-11,0.7-15.1,2.1L157.1,169.9c-8.3,2.8-15.1,12.4-15.1,21.2v482.4
		c0,8.8,5.7,20.4,12.6,25.9L499.3,968c3.5,2.7,8,4.1,12.6,4.1c4.6,0,9.2-1.4,12.6-4.1l344.7-268.6c6.9-5.4,12.6-17,12.6-25.9V191.1
		C882,182.3,875.2,172.8,866.9,169.9z M411.3,656h-0.2c0,4.4-3.6,8-8,8h-37.3c-4.4,0-8-3.6-8-8V471.4c-7.7,9.2-15.4,17.9-23.1,26
		c-3.2,3.4-8.8,2.1-10.2-2.4l-13.2-43.5c-0.6-2-0.2-4.1,1.2-5.6c37-43.4,64.7-95.1,82.2-153.6c1.1-3.5,5-5.3,8.4-3.7l38.6,18.3
		c2.7,1.3,4.1,4.4,3.2,7.2c-8.5,27.3-19.8,53.9-33.6,79V656z M707.8,606.8l-26.3,35.3c-2.2,2.9-6.3,3.2-8.9,0.7
		c-30.6-29.3-56.8-65.2-78.1-106.9V656c0,4.4-3.6,8-8,8h-36.2c-4.4,0-8-3.6-8-8V536c-22,44.7-49,80.8-80.6,107.6
		c-2.8,2.4-7,1.7-8.9-1.4L430,605.7c-1.7-2.7-1-6.3,1.6-8.1c28.6-20.3,51.9-45.2,71-76h-55.1c-4.4,0-8-3.6-8-8V478c0-4.4,3.6-8,8-8
		h94.9v-18.6h-65.9c-4.4,0-8-3.6-8-8V316c0-4.4,3.6-8,8-8h184.7c4.4,0,8,3.6,8,8v127.2c0,4.4-3.6,8-8,8h-66.7v18.6h98.8
		c4.4,0,8,3.6,8,8v35.6c0,4.4-3.6,8-8,8h-59c18.1,29.1,41.8,54.3,72.3,76.9C709.2,600.4,709.8,604.2,707.8,606.8z"/>
</g>
</svg>
