<?xml version="1.0" encoding="utf-8"?>
<!-- Generator: Adobe Illustrator 21.0.0, SVG Export Plug-In . SVG Version: 6.00 Build 0)  -->
<svg version="1.1" id="图层_1" xmlns="http://www.w3.org/2000/svg" xmlns:xlink="http://www.w3.org/1999/xlink" x="0px" y="0px"
	 viewBox="0 0 1024 1024" style="enable-background:new 0 0 1024 1024;" xml:space="preserve">
<style type="text/css">
	.st0{fill:none;}
</style>
<title>layout</title>
<desc>Created with Sketch.</desc>
<g>
	<rect x="384" y="384" class="st0" width="456" height="456"/>
	<polygon class="st0" points="320,384 320,320 320,184 184,184 184,840 320,840 	"/>
	<rect x="384" y="184" class="st0" width="456" height="136"/>
	<path d="M880,112H144c-17.7,0-32,14.3-32,32v736c0,17.7,14.3,32,32,32h736c17.7,0,32-14.3,32-32V384v-64V144
		C912,126.3,897.7,112,880,112z M184,184h136v136v64v456H184V184z M840,840H384V384h456V840z M384,320V184h456v136H384z"/>
</g>
</svg>
