<?xml version="1.0" encoding="utf-8"?>
<!-- Generator: Adobe Illustrator 21.0.0, SVG Export Plug-In . SVG Version: 6.00 Build 0)  -->
<svg version="1.1" id="图层_1" xmlns="http://www.w3.org/2000/svg" xmlns:xlink="http://www.w3.org/1999/xlink" x="0px" y="0px"
	 viewBox="0 0 1024 1024" style="enable-background:new 0 0 1024 1024;" xml:space="preserve">
<title>line-height</title>
<desc>Created with Sketch.</desc>
<g>
	<path d="M648,160h-56H160h-56c-4.4,0-8,3.6-8,8v56v72c0,4.4,3.6,8,8,8h56c4.4,0,8-3.6,8-8v-64h168v560h-92c-4.4,0-8,3.6-8,8v56
		c0,4.4,3.6,8,8,8h264c4.4,0,8-3.6,8-8v-56c0-4.4-3.6-8-8-8h-92V232h168v64c0,4.4,3.6,8,8,8h56c4.4,0,8-3.6,8-8v-72v-56
		C656,163.6,652.4,160,648,160z"/>
	<path d="M920.8,706H856V318h64.8c6,0,9.4-7,5.7-11.7L825.7,178.7c-2.9-3.7-8.5-3.7-11.3,0L713.6,306.3c-3.7,4.7-0.4,11.7,5.7,11.7
		H784v388h-64.8c-6,0-9.4,7-5.7,11.7l100.8,127.5c2.9,3.7,8.5,3.7,11.3,0l100.8-127.5C930.2,713,926.8,706,920.8,706z"/>
</g>
</svg>
