<?xml version="1.0" encoding="utf-8"?>
<!-- Generator: Adobe Illustrator 21.0.0, SVG Export Plug-In . SVG Version: 6.00 Build 0)  -->
<svg version="1.1" id="图层_1" xmlns="http://www.w3.org/2000/svg" xmlns:xlink="http://www.w3.org/1999/xlink" x="0px" y="0px"
	 viewBox="0 0 1024 1024" style="enable-background:new 0 0 1024 1024;" xml:space="preserve">
<style type="text/css">
	.st0{fill:none;}
</style>
<title>linkedin</title>
<desc>Created with Sketch.</desc>
<g>
	<path class="st0" d="M176,847.7c0,0.1,223.9,0.2,671.7,0.3c0.1,0,0.2-223.9,0.3-671.7c0-0.1-223.9-0.2-671.7-0.3
		C176.2,176,176.1,399.9,176,847.7z M349.3,793.7H230.6V411.9h118.7V793.7z M423.7,411.9h113.8v52.2h1.6
		c15.8-30,54.5-61.7,112.3-61.7c120.2,0,142.3,79.1,142.3,181.9v209.4H675.1V608c0-44.3-0.8-101.2-61.7-101.2
		c-61.7,0-71.2,48.2-71.2,98v188.9H423.7V411.9z M290,222.1c37.9,0,68.8,30.8,68.8,68.8c0,38-30.8,68.8-68.8,68.8
		c-38,0-68.8-30.8-68.8-68.8C221.1,253,251.9,222.1,290,222.1z"/>
	<path d="M847.7,112H176.3c-35.5,0-64.3,28.8-64.3,64.3v671.4c0,35.5,28.8,64.3,64.3,64.3h671.4c35.5,0,64.3-28.8,64.3-64.3V176.3
		C912,140.8,883.2,112,847.7,112z M847.7,848c-447.8-0.1-671.7-0.2-671.7-0.3c0.1-447.8,0.2-671.7,0.3-671.7
		c447.8,0.1,671.7,0.2,671.7,0.3C847.9,624.1,847.8,848,847.7,848z"/>
	<rect x="230.6" y="411.9" width="118.7" height="381.8"/>
	<path d="M290,359.7c37.9,0,68.8-30.8,68.8-68.8c0-37.9-30.8-68.8-68.8-68.8c-38,0-68.8,30.8-68.8,68.8
		C221.1,328.9,251.9,359.7,290,359.7z"/>
	<path d="M542.3,604.8c0-49.8,9.5-98,71.2-98c60.8,0,61.7,56.9,61.7,101.2v185.7h118.6V584.3c0-102.8-22.2-181.9-142.3-181.9
		c-57.7,0-96.4,31.7-112.3,61.7h-1.6v-52.2H423.7v381.8h118.6V604.8z"/>
</g>
</svg>
