<?xml version="1.0" encoding="utf-8"?>
<!-- Generator: Adobe Illustrator 21.0.0, SVG Export Plug-In . SVG Version: 6.00 Build 0)  -->
<svg version="1.1" id="图层_1" xmlns="http://www.w3.org/2000/svg" xmlns:xlink="http://www.w3.org/1999/xlink" x="0px" y="0px"
	 viewBox="0 0 1024 1024" style="enable-background:new 0 0 1024 1024;" xml:space="preserve">
<style type="text/css">
	.st0{fill:none;}
</style>
<title>mail-fill</title>
<desc>Created with Sketch.</desc>
<g>
	<path class="st0" d="M842.8,256H194c-4,0-7.2,3.2-7.2,7.2c0,2.2,1,4.3,2.8,5.7l315.6,245.6c7.8,6.1,18.7,6.1,26.5,0l315.6-245.6
		c3.1-2.4,3.7-7,1.3-10.1C847.1,257,845,256,842.8,256z"/>
	<path d="M928,160H96c-17.7,0-32,14.3-32,32v640c0,17.7,14.3,32,32,32h832c17.7,0,32-14.3,32-32V192C960,174.3,945.7,160,928,160z
		 M847.2,268.9L531.7,514.4c-7.8,6.1-18.7,6.1-26.5,0L189.6,268.9c-1.8-1.4-2.8-3.5-2.8-5.7c0-4,3.2-7.2,7.2-7.2h648.8
		c2.2,0,4.3,1,5.7,2.8C850.9,261.9,850.4,266.4,847.2,268.9z"/>
</g>
</svg>
