<?xml version="1.0" encoding="utf-8"?>
<!-- Generator: Adobe Illustrator 21.0.0, SVG Export Plug-In . SVG Version: 6.00 Build 0)  -->
<svg version="1.1" id="图层_1" xmlns="http://www.w3.org/2000/svg" xmlns:xlink="http://www.w3.org/1999/xlink" x="0px" y="0px"
	 viewBox="0 0 1024 1024" style="enable-background:new 0 0 1024 1024;" xml:space="preserve">
<style type="text/css">
	.st0{fill:none;}
</style>
<title>man</title>
<desc>Created with Sketch.</desc>
<g>
	<path class="st0" d="M408,404c-116.9,0-212,95.1-212,212c0,116.9,95.1,212,212,212c116.9,0,212-95.1,212-212
		C620,499.1,524.9,404,408,404z"/>
	<path d="M874,120H622c-3.3,0-6,2.7-6,6v56c0,3.3,2.7,6,6,6h160.4L583.1,387.3c-50-38.5-111-59.3-175.1-59.3
		c-76.9,0-149.3,30-203.6,84.4S120,539.1,120,616s30,149.3,84.4,203.6C258.7,874,331.1,904,408,904s149.3-30,203.6-84.4
		C666,765.3,696,692.9,696,616c0-64.1-20.8-124.9-59.2-174.9L836,241.9V402c0,3.3,2.7,6,6,6h56c3.3,0,6-2.7,6-6V150
		C904,133.5,890.5,120,874,120z M408,828c-116.9,0-212-95.1-212-212c0-116.9,95.1-212,212-212c116.9,0,212,95.1,212,212
		C620,732.9,524.9,828,408,828z"/>
</g>
</svg>
