<?xml version="1.0" encoding="utf-8"?>
<!-- Generator: Adobe Illustrator 21.0.0, SVG Export Plug-In . SVG Version: 6.00 Build 0)  -->
<svg version="1.1" id="图层_1" xmlns="http://www.w3.org/2000/svg" xmlns:xlink="http://www.w3.org/1999/xlink" x="0px" y="0px"
	 viewBox="0 0 1024 1024" style="enable-background:new 0 0 1024 1024;" xml:space="preserve">
<style type="text/css">
	.st0{fill:none;}
</style>
<title>medium-square-fill</title>
<desc>Created with Sketch.</desc>
<g>
	<path class="st0" d="M525.6,560.5L411,309H262.5v8.7l47.8,57.6c4.8,4.2,7.1,10.4,6.5,16.7v226c1.4,8.2-1.2,16.5-7,22.4L256,705.5
		v8.7h152.7v-8.7L355,640.4c-5.8-5.9-8.7-14.3-7.5-22.4V422.5l133.9,291.6h15.5l115-291.6v232.7c0,6.1,0,7.3-4.1,11.4l-41.3,40.1
		v8.3h200.7v-8.7l-40-39.1c-3.6-2.5-5.3-7-4.6-11.4V368.1c-0.7-4.2,1-8.7,4.6-11.4l40.8-39.1v-8.5H626.5L525.6,560.5z"/>
	<path d="M880,112H144c-17.7,0-32,14.3-32,32v736c0,17.7,14.3,32,32,32h736c17.7,0,32-14.3,32-32V144C912,126.3,897.7,112,880,112z
		 M768,317.7l-40.8,39.1c-3.6,2.7-5.3,7.1-4.6,11.4v287.7c-0.7,4.4,1,8.8,4.6,11.4l40,39.1v8.7H566.4v-8.3l41.3-40.1
		c4.1-4.1,4.1-5.3,4.1-11.4V422.5l-115,291.6h-15.5L347.5,422.5V618c-1.2,8.2,1.7,16.5,7.5,22.4l53.8,65.1v8.7H256v-8.7l53.8-65.1
		c5.8-5.9,8.3-14.3,7-22.4v-226c0.7-6.3-1.7-12.4-6.5-16.7l-47.8-57.6V309H411l114.6,251.5l100.9-251.3H768V317.7z"/>
</g>
</svg>
