<?xml version="1.0" encoding="utf-8"?>
<!-- Generator: Adobe Illustrator 21.0.0, SVG Export Plug-In . SVG Version: 6.00 Build 0)  -->
<svg version="1.1" id="图层_1" xmlns="http://www.w3.org/2000/svg" xmlns:xlink="http://www.w3.org/1999/xlink" x="0px" y="0px"
	 viewBox="0 0 1024 1024" style="enable-background:new 0 0 1024 1024;" xml:space="preserve">
<title>ordered list</title>
<desc>Created with Sketch.</desc>
<g>
	<path d="M920,760H336c-4.4,0-8,3.6-8,8v56c0,4.4,3.6,8,8,8h584c4.4,0,8-3.6,8-8v-56C928,763.6,924.4,760,920,760z"/>
	<path d="M920,192H336c-4.4,0-8,3.6-8,8v56c0,4.4,3.6,8,8,8h584c4.4,0,8-3.6,8-8v-56C928,195.6,924.4,192,920,192z"/>
	<path d="M920,476H336c-4.4,0-8,3.6-8,8v56c0,4.4,3.6,8,8,8h584c4.4,0,8-3.6,8-8v-56C928,479.6,924.4,476,920,476z"/>
	<path d="M216,712h-43.6H100c-2.2,0-4,1.8-4,4v34c0,2.2,1.8,4,4,4h72.4v20.5h-35.7c-2.2,0-4,1.8-4,4v34c0,2.2,1.8,4,4,4h35.7V838
		H100c-2.2,0-4,1.8-4,4v34c0,2.2,1.8,4,4,4h72.4H216c2.2,0,4-1.8,4-4V716C220,713.8,218.2,712,216,712z"/>
	<path d="M100,188h38v120c0,2.2,1.8,4,4,4h40c2.2,0,4-1.8,4-4V152c0-4.4-3.6-8-8-8h-78c-2.2,0-4,1.8-4,4v36
		C96,186.2,97.8,188,100,188z"/>
	<path d="M216,428H100c-2.2,0-4,1.8-4,4v36c0,2.2,1.8,4,4,4h68.4l-70.3,77.7c-1.3,1.5-2.1,3.4-2.1,5.4V592c0,2.2,1.8,4,4,4H216
		c2.2,0,4-1.8,4-4v-36c0-2.2-1.8-4-4-4h-68.4l70.3-77.7c1.3-1.5,2.1-3.4,2.1-5.4V432C220,429.8,218.2,428,216,428z"/>
</g>
</svg>
