<?xml version="1.0" encoding="utf-8"?>
<!-- Generator: Adobe Illustrator 21.0.0, SVG Export Plug-In . SVG Version: 6.00 Build 0)  -->
<svg version="1.1" id="图层_1" xmlns="http://www.w3.org/2000/svg" xmlns:xlink="http://www.w3.org/1999/xlink" x="0px" y="0px"
	 viewBox="0 0 1024 1024" style="enable-background:new 0 0 1024 1024;" xml:space="preserve">
<title>phone-fill</title>
<desc>Created with Sketch.</desc>
<path d="M885.6,230.2L779.1,123.8c-15.3-15.3-35.8-23.8-57.3-23.8c-21.7,0-42.1,8.5-57.4,23.8L549.8,238.4
	c-15.3,15.3-23.8,35.8-23.8,57.3c0,21.7,8.5,42.1,23.8,57.4l83.8,83.8c-19.7,43.4-46.8,82.4-80.5,116.1
	c-33.6,33.8-72.7,60.9-116.1,80.8l-83.8-83.8c-15.3-15.3-35.8-23.8-57.3-23.8c-21.7,0-42.1,8.5-57.4,23.8L123.8,664.5
	c-15.3,15.3-23.8,35.8-23.8,57.4c0,21.7,8.5,42.1,23.8,57.4l106.3,106.3c24.4,24.5,58.1,38.4,92.7,38.4c7.3,0,14.3-0.6,21.2-1.8
	c134.8-22.2,268.5-93.9,376.4-201.7C828.2,612.8,899.8,479.2,922.3,344C929.1,302.7,915.4,260.2,885.6,230.2z"/>
</svg>
