<?xml version="1.0" encoding="utf-8"?>
<!-- Generator: Adobe Illustrator 21.0.0, SVG Export Plug-In . SVG Version: 6.00 Build 0)  -->
<svg version="1.1" id="图层_1" xmlns="http://www.w3.org/2000/svg" xmlns:xlink="http://www.w3.org/1999/xlink" x="0px" y="0px"
	 viewBox="0 0 1024 1024" style="enable-background:new 0 0 1024 1024;" xml:space="preserve">
<style type="text/css">
	.st0{fill:none;}
</style>
<title>phone</title>
<desc>Created with Sketch.</desc>
<g>
	<path class="st0" d="M721.8,184.9L610.9,295.8l120.8,120.7l-8,21.6c-48.8,132.8-153,236.9-285.7,285.8l-21.6,8l-0.9-0.9
		L295.8,611.1L184.9,721.9l104.5,104.5c10.7,10.7,26,15.7,40.8,13.2c117.9-19.5,235.4-82.9,330.9-178.4s158.9-213.1,178.4-331
		c2.5-14.8-2.5-30.1-13.2-40.8L721.8,184.9z"/>
	<path d="M877.1,238.7L770.6,132.3c-13-13-30.4-20.3-48.8-20.3s-35.8,7.2-48.8,20.3L558.3,246.8c-13,13-20.3,30.5-20.3,48.9
		c0,18.5,7.2,35.8,20.3,48.9l89.6,89.7c-20.6,47.8-49.6,90.6-86.4,127.3c-36.7,36.9-79.6,66-127.2,86.6l-89.6-89.7
		c-13-13-30.4-20.3-48.8-20.3c-18.5,0-35.8,7.2-48.8,20.3L132.3,673c-13,13-20.3,30.5-20.3,48.9c0,18.5,7.2,35.8,20.3,48.9
		l106.4,106.4c22.2,22.2,52.8,34.9,84.2,34.9c6.5,0,12.8-0.5,19.2-1.6c132.4-21.8,263.8-92.3,369.9-198.3
		C818,606,888.4,474.6,910.4,342.1C916.7,304.5,904.1,265.8,877.1,238.7z M839.5,330.2c-19.5,117.9-82.9,235.5-178.4,331
		s-213,158.9-330.9,178.4c-14.8,2.5-30-2.5-40.8-13.2L184.9,721.9l110.8-110.9L415.5,731l0.9,0.9l21.6-8
		c132.7-48.9,236.9-153.1,285.7-285.8l8-21.6L610.9,295.8l110.8-110.9l104.5,104.5C837,300.2,842,315.4,839.5,330.2z"/>
</g>
</svg>
