<?xml version="1.0" encoding="utf-8"?>
<!-- Generator: Adobe Illustrator 21.0.0, SVG Export Plug-In . SVG Version: 6.00 Build 0)  -->
<svg version="1.1" id="图层_1" xmlns="http://www.w3.org/2000/svg" xmlns:xlink="http://www.w3.org/1999/xlink" x="0px" y="0px"
	 viewBox="0 0 1024 1024" style="enable-background:new 0 0 1024 1024;" xml:space="preserve">
<style type="text/css">
	.st0{fill:none;}
</style>
<title>play-circle-fill</title>
<desc>Created with Sketch.</desc>
<g>
	<path class="st0" d="M656.1,506L437.7,347.2c-3.6-2.6-8.6-1.8-11.2,1.8c-1,1.4-1.5,3-1.5,4.7v317.6c0,4.4,3.6,8,8,8
		c1.7,0,3.3-0.5,4.7-1.5l218.4-158.9c3.6-2.6,4.4-7.6,1.8-11.1C657.4,507.1,656.8,506.5,656.1,506z"/>
	<path d="M512,64C264.6,64,64,264.6,64,512s200.6,448,448,448s448-200.6,448-448S759.4,64,512,64z M656.1,518.9L437.7,677.8
		c-1.4,1-3,1.5-4.7,1.5c-4.4,0-8-3.6-8-8V353.7c0-1.7,0.5-3.3,1.5-4.7c2.6-3.6,7.6-4.4,11.2-1.8L656.1,506c0.7,0.5,1.3,1.1,1.8,1.8
		C660.5,511.3,659.7,516.3,656.1,518.9z"/>
</g>
</svg>
