<?xml version="1.0" encoding="utf-8"?>
<!-- Generator: Adobe Illustrator 21.0.0, SVG Export Plug-In . SVG Version: 6.00 Build 0)  -->
<svg version="1.1" id="图层_1" xmlns="http://www.w3.org/2000/svg" xmlns:xlink="http://www.w3.org/1999/xlink" x="0px" y="0px"
	 viewBox="0 0 1024 1024" style="enable-background:new 0 0 1024 1024;" xml:space="preserve">
<title>poweroff</title>
<desc>Created with Sketch.</desc>
<g>
	<path d="M705.6,124.9c-5.3-2.7-11.6,1.2-11.6,7.2v64.2c0,5.5,2.9,10.6,7.5,13.6c22.4,14.1,43.2,30.7,62.2,49.8
		c32.7,32.8,58.4,70.9,76.3,113.3c18.5,43.9,27.9,90.5,27.9,138.7c0,48.1-9.4,94.8-27.9,138.7c-17.9,42.4-43.6,80.5-76.3,113.3
		c-32.7,32.8-70.8,58.5-113.2,76.4c-43.8,18.6-90.5,28-138.5,28s-94.7-9.4-138.5-28c-42.4-17.9-80.5-43.6-113.2-76.4
		c-32.7-32.8-58.4-70.9-76.3-113.3c-18.5-43.9-27.9-90.5-27.9-138.7c0-48.1,9.4-94.8,27.9-138.7c17.9-42.4,43.6-80.5,76.3-113.3
		c19-19,39.8-35.6,62.2-49.8c4.7-2.9,7.5-8.1,7.5-13.6V132c0-6-6.3-9.8-11.6-7.2C178.5,195.2,82,339.3,80,506.3
		C77.2,745.1,272.5,943.5,511.2,944c239,0.5,432.8-193.3,432.8-432.4C944,342.4,847,195.9,705.6,124.9z"/>
	<path d="M480,560h64c4.4,0,8-3.6,8-8V88c0-4.4-3.6-8-8-8h-64c-4.4,0-8,3.6-8,8v464C472,556.4,475.6,560,480,560z"/>
</g>
</svg>
