<?xml version="1.0" encoding="utf-8"?>
<!-- Generator: Adobe Illustrator 21.0.0, SVG Export Plug-In . SVG Version: 6.00 Build 0)  -->
<svg version="1.1" id="图层_1" xmlns="http://www.w3.org/2000/svg" xmlns:xlink="http://www.w3.org/1999/xlink" x="0px" y="0px"
	 viewBox="0 0 1024 1024" style="enable-background:new 0 0 1024 1024;" xml:space="preserve">
<style type="text/css">
	.st0{fill:none;}
</style>
<title>QQ-circle-fill</title>
<desc>Created with Sketch.</desc>
<g>
	<path class="st0" d="M672.9,471c2.9-118.8-46.6-215-160.4-215c-115.1,0-163.5,98.1-160.4,215c-18.2,45.3-29.9,72.8-40.2,105.8
		c-21.8,70.1-14.7,99.1-9.4,99.7c11.5,1.4,44.9-52.7,44.9-52.7c0,31.3,16.2,72.3,51.1,101.8c-16.9,5.2-54.9,19.2-45.8,34.4
		c7.3,12.3,125.6,7.9,159.8,4c34.2,3.8,152.5,8.3,159.8-4c9-15.3-29-29.2-45.9-34.4c35-29.5,51.1-70.4,51.1-101.8
		c0,0,33.4,54.1,44.9,52.7c5.4-0.7,12.4-29.6-9.4-99.7C702.9,543.8,691.1,516.2,672.9,471z"/>
	<path d="M512,64C264.6,64,64,264.6,64,512s200.6,448,448,448s448-200.6,448-448S759.4,64,512,64z M722.5,676.4
		c-11.5,1.4-44.9-52.7-44.9-52.7c0,31.3-16.2,72.2-51.1,101.8c16.9,5.2,54.9,19.2,45.9,34.4c-7.3,12.3-125.6,7.9-159.8,4
		c-34.2,3.8-152.5,8.3-159.8-4c-9.1-15.2,28.9-29.2,45.8-34.4c-35-29.5-51.1-70.4-51.1-101.8c0,0-33.4,54.1-44.9,52.7
		c-5.4-0.7-12.4-29.6,9.4-99.7c10.3-33,22-60.5,40.2-105.8c-3.1-116.9,45.3-215,160.4-215c113.9,0,163.3,96.1,160.4,215
		c18.1,45.2,29.9,72.8,40.2,105.8C734.9,646.8,727.8,675.8,722.5,676.4z"/>
</g>
</svg>
