<?xml version="1.0" encoding="utf-8"?>
<!-- Generator: Adobe Illustrator 21.0.0, SVG Export Plug-In . SVG Version: 6.00 Build 0)  -->
<svg version="1.1" id="图层_1" xmlns="http://www.w3.org/2000/svg" xmlns:xlink="http://www.w3.org/1999/xlink" x="0px" y="0px"
	 viewBox="0 0 1024 1024" style="enable-background:new 0 0 1024 1024;" xml:space="preserve">
<style type="text/css">
	.st0{fill:none;}
</style>
<title>question-circle-fill</title>
<desc>Created with Sketch.</desc>
<g>
	<path class="st0" d="M623.6,316.7C593.6,290.5,554,276,512,276s-81.6,14.4-111.6,40.7C369.2,344,352,380.7,352,420v7.6
		c0,4.4,3.6,8,8,8h48c4.4,0,8-3.6,8-8V420c0-44.1,43.1-80,96-80c52.9,0,96,35.9,96,80c0,31.1-22,59.6-56,72.7
		c-21.2,8.1-39.2,22.3-52.1,40.9c-13.2,19-19.9,41.8-19.9,64.9V620c0,4.4,3.6,8,8,8h48c4.4,0,8-3.6,8-8v-22.7
		c0-19.7,12.4-37.7,30.9-44.8c59-22.7,97.1-74.7,97.1-132.5C672,380.7,654.8,344,623.6,316.7z"/>
	<path class="st0" d="M512,692c-22.1,0-40,17.9-40,40s17.9,40,40,40c22.1,0,40-17.9,40-40S534.1,692,512,692z"/>
	<path d="M512,64C264.6,64,64,264.6,64,512s200.6,448,448,448s448-200.6,448-448S759.4,64,512,64z M512,772c-22.1,0-40-17.9-40-40
		s17.9-40,40-40c22.1,0,40,17.9,40,40S534.1,772,512,772z M574.9,552.5c-18.5,7.1-30.9,25.1-30.9,44.8V620c0,4.4-3.6,8-8,8h-48
		c-4.4,0-8-3.6-8-8v-21.5c0-23.1,6.7-45.9,19.9-64.9c12.9-18.6,30.9-32.8,52.1-40.9c34-13.1,56-41.6,56-72.7c0-44.1-43.1-80-96-80
		c-52.9,0-96,35.9-96,80v7.6c0,4.4-3.6,8-8,8h-48c-4.4,0-8-3.6-8-8V420c0-39.3,17.2-76,48.4-103.3C430.4,290.4,470,276,512,276
		s81.6,14.5,111.6,40.7C654.8,344,672,380.7,672,420C672,477.8,633.9,529.8,574.9,552.5z"/>
</g>
</svg>
