<?xml version="1.0" encoding="utf-8"?>
<!-- Generator: Adobe Illustrator 21.0.0, SVG Export Plug-In . SVG Version: 6.00 Build 0)  -->
<svg version="1.1" id="图层_1" xmlns="http://www.w3.org/2000/svg" xmlns:xlink="http://www.w3.org/1999/xlink" x="0px" y="0px"
	 viewBox="0 0 1024 1024" style="enable-background:new 0 0 1024 1024;" xml:space="preserve">
<style type="text/css">
	.st0{fill:none;}
</style>
<title>radar chart</title>
<desc>Created with Sketch.</desc>
<g>
	<polygon class="st0" points="484,373.3 349.7,470.4 484,514.1 	"/>
	<polygon class="st0" points="512,599.2 418.1,728.1 605.9,728.1 	"/>
	<polygon class="st0" points="540.1,373.3 540.1,514.1 674.3,470.4 	"/>
	<polygon class="st0" points="740.1,449 838.6,417 540.1,199.9 540.1,304.3 	"/>
	<polygon class="st0" points="466,567.2 321.7,520.3 376.9,689.5 	"/>
	<polygon class="st0" points="377.3,784 327.1,853 696.9,853 646.6,784 	"/>
	<polygon class="st0" points="702.3,520.3 558,567.2 647.1,689.5 	"/>
	<polygon class="st0" points="687.8,745.3 741.6,819.2 854.7,470.8 768.2,498.9 	"/>
	<polygon class="st0" points="484,304.3 484,199.9 185.4,417 283.9,449 	"/>
	<polygon class="st0" points="255.8,498.9 169.3,470.8 282.4,819.2 336.2,745.3 	"/>
	<path d="M926.8,397.1l-396-288c-11.2-8.2-26.4-8.2-37.6,0l-396,288c-11.2,8.1-15.9,22.6-11.6,35.8l151.3,466
		c4.3,13.2,16.6,22.1,30.4,22.1h489.5c13.9,0,26.1-8.9,30.4-22.1l151.3-466C942.7,419.7,938,405.3,926.8,397.1z M838.6,417l-98.5,32
		L540.1,304.3V199.9L838.6,417z M466,567.2l-89.1,122.3l-55.2-169.2L466,567.2z M349.7,470.4L484,373.3v140.8L349.7,470.4z
		 M512,599.2l93.9,128.9H418.1L512,599.2z M540.1,373.3l134.2,97.1l-134.2,43.6V373.3z M558,567.2l144.3-46.9l-55.2,169.2L558,567.2
		z M484,199.9v104.4L283.9,449l-98.5-32L484,199.9z M169.3,470.8l86.5,28.1l80.4,246.4l-53.8,73.9L169.3,470.8z M327.1,853l50.3-69
		h269.3l50.3,69H327.1z M741.6,819.2l-53.8-73.9l80.4-246.4l86.5-28.1L741.6,819.2z"/>
</g>
</svg>
