<?xml version="1.0" encoding="utf-8"?>
<!-- Generator: Adobe Illustrator 21.0.0, SVG Export Plug-In . SVG Version: 6.00 Build 0)  -->
<svg version="1.1" id="图层_1" xmlns="http://www.w3.org/2000/svg" xmlns:xlink="http://www.w3.org/1999/xlink" x="0px" y="0px"
	 viewBox="0 0 1024 1024" style="enable-background:new 0 0 1024 1024;" xml:space="preserve">
<title>radius-bottomright</title>
<desc>Created with Sketch.</desc>
<g>
	<path d="M368,824h-56c-4.4,0-8,3.6-8,8v56c0,4.4,3.6,8,8,8h56c4.4,0,8-3.6,8-8v-56C376,827.6,372.4,824,368,824z"/>
	<path d="M310,200h56c4.4,0,8-3.6,8-8v-56c0-4.4-3.6-8-8-8h-56c-4.4,0-8,3.6-8,8v56C302,196.4,305.6,200,310,200z"/>
	<path d="M888,302h-56c-4.4,0-8,3.6-8,8v56c0,4.4,3.6,8,8,8h56c4.4,0,8-3.6,8-8v-56C896,305.6,892.4,302,888,302z"/>
	<path d="M888,128h-56c-4.4,0-8,3.6-8,8v56c0,4.4,3.6,8,8,8h56c4.4,0,8-3.6,8-8v-56C896,131.6,892.4,128,888,128z"/>
	<path d="M192,824h-56c-4.4,0-8,3.6-8,8v56c0,4.4,3.6,8,8,8h56c4.4,0,8-3.6,8-8v-56C200,827.6,196.4,824,192,824z"/>
	<path d="M192,650h-56c-4.4,0-8,3.6-8,8v56c0,4.4,3.6,8,8,8h56c4.4,0,8-3.6,8-8v-56C200,653.6,196.4,650,192,650z"/>
	<path d="M192,476h-56c-4.4,0-8,3.6-8,8v56c0,4.4,3.6,8,8,8h56c4.4,0,8-3.6,8-8v-56C200,479.6,196.4,476,192,476z"/>
	<path d="M192,302h-56c-4.4,0-8,3.6-8,8v56c0,4.4,3.6,8,8,8h56c4.4,0,8-3.6,8-8v-56C200,305.6,196.4,302,192,302z"/>
	<path d="M192,128h-56c-4.4,0-8,3.6-8,8v56c0,4.4,3.6,8,8,8h56c4.4,0,8-3.6,8-8v-56C200,131.6,196.4,128,192,128z"/>
	<path d="M484,200h56c4.4,0,8-3.6,8-8v-56c0-4.4-3.6-8-8-8h-56c-4.4,0-8,3.6-8,8v56C476,196.4,479.6,200,484,200z"/>
	<path d="M658,200h56c4.4,0,8-3.6,8-8v-56c0-4.4-3.6-8-8-8h-56c-4.4,0-8,3.6-8,8v56C650,196.4,653.6,200,658,200z"/>
	<path d="M888,476h-56c-4.4,0-8,3.6-8,8v182c0,87.3-70.7,158-158,158H484c-4.4,0-8,3.6-8,8v56c0,4.4,3.6,8,8,8h182
		c127,0,230-103,230-230V484C896,479.6,892.4,476,888,476z"/>
</g>
</svg>
