<?xml version="1.0" encoding="utf-8"?>
<!-- Generator: Adobe Illustrator 21.0.0, SVG Export Plug-In . SVG Version: 6.00 Build 0)  -->
<svg version="1.1" id="图层_1" xmlns="http://www.w3.org/2000/svg" xmlns:xlink="http://www.w3.org/1999/xlink" x="0px" y="0px"
	 viewBox="0 0 1024 1024" style="enable-background:new 0 0 1024 1024;" xml:space="preserve">
<style type="text/css">
	.st0{fill:none;}
	.st1{fill:#191919;}
</style>
<title>radius-setting</title>
<desc>Created with Sketch.</desc>
<g>
	<path class="st0" d="M869.6,836h-43.2c-1.3,0-2.4,1.1-2.4,2.4v43.2c0,1.3,1.1,2.4,2.4,2.4h43.2c1.3,0,2.4-1.1,2.4-2.4v-43.2
		C872,837.1,870.9,836,869.6,836z"/>
	<path class="st0" d="M185.6,152h-43.2c-1.3,0-2.4,1.1-2.4,2.4v43.2c0,1.3,1.1,2.4,2.4,2.4h43.2c1.3,0,2.4-1.1,2.4-2.4v-43.2
		C188,153.1,186.9,152,185.6,152z"/>
	<path d="M396,140h-56c-4.4,0-8,3.6-8,8v56c0,4.4,3.6,8,8,8h56c4.4,0,8-3.6,8-8v-56C404,143.6,400.4,140,396,140z"/>
	<path d="M352,824h-56c-4.4,0-8,3.6-8,8v56c0,4.4,3.6,8,8,8h56c4.4,0,8-3.6,8-8v-56C360,827.6,356.4,824,352,824z"/>
	<path d="M876,620h-56c-4.4,0-8,3.6-8,8v56c0,4.4,3.6,8,8,8h56c4.4,0,8-3.6,8-8v-56C884,623.6,880.4,620,876,620z"/>
	<path d="M192,344h-56c-4.4,0-8,3.6-8,8v56c0,4.4,3.6,8,8,8h56c4.4,0,8-3.6,8-8v-56C200,347.6,196.4,344,192,344z"/>
	<path d="M192,504h-56c-4.4,0-8,3.6-8,8v56c0,4.4,3.6,8,8,8h56c4.4,0,8-3.6,8-8v-56C200,507.6,196.4,504,192,504z"/>
	<path d="M192,664h-56c-4.4,0-8,3.6-8,8v56c0,4.4,3.6,8,8,8h56c4.4,0,8-3.6,8-8v-56C200,667.6,196.4,664,192,664z"/>
	<path d="M192,824h-56c-4.4,0-8,3.6-8,8v56c0,4.4,3.6,8,8,8h56c4.4,0,8-3.6,8-8v-56C200,827.6,196.4,824,192,824z"/>
	<path d="M512,824h-56c-4.4,0-8,3.6-8,8v56c0,4.4,3.6,8,8,8h56c4.4,0,8-3.6,8-8v-56C520,827.6,516.4,824,512,824z"/>
	<path d="M672,824h-56c-4.4,0-8,3.6-8,8v56c0,4.4,3.6,8,8,8h56c4.4,0,8-3.6,8-8v-56C680,827.6,676.4,824,672,824z"/>
	<path d="M812,540c0,4.4,3.6,8,8,8h56c4.4,0,8-3.6,8-8V370c0-127-103-230-230-230H484c-4.4,0-8,3.6-8,8v56c0,4.4,3.6,8,8,8h170
		c87.3,0,158,70.7,158,158V540z"/>
	<path class="st1" d="M236,96H92c-4.4,0-8,3.6-8,8v144c0,4.4,3.6,8,8,8h144c4.4,0,8-3.6,8-8V104C244,99.6,240.4,96,236,96z
		 M188,197.6c0,1.3-1.1,2.4-2.4,2.4h-43.2c-1.3,0-2.4-1.1-2.4-2.4v-43.2c0-1.3,1.1-2.4,2.4-2.4h43.2c1.3,0,2.4,1.1,2.4,2.4V197.6z"
		/>
	<path class="st1" d="M920,780H776c-4.4,0-8,3.6-8,8v144c0,4.4,3.6,8,8,8h144c4.4,0,8-3.6,8-8V788C928,783.6,924.4,780,920,780z
		 M872,881.6c0,1.3-1.1,2.4-2.4,2.4h-43.2c-1.3,0-2.4-1.1-2.4-2.4v-43.2c0-1.3,1.1-2.4,2.4-2.4h43.2c1.3,0,2.4,1.1,2.4,2.4V881.6z"
		/>
</g>
</svg>
