<?xml version="1.0" encoding="utf-8"?>
<!-- Generator: Adobe Illustrator 21.0.0, SVG Export Plug-In . SVG Version: 6.00 Build 0)  -->
<svg version="1.1" id="图层_1" xmlns="http://www.w3.org/2000/svg" xmlns:xlink="http://www.w3.org/1999/xlink" x="0px" y="0px"
	 viewBox="0 0 1024 1024" style="enable-background:new 0 0 1024 1024;" xml:space="preserve">
<style type="text/css">
	.st0{fill:none;}
</style>
<title>read-fill</title>
<desc>Created with Sketch.</desc>
<g>
	<path class="st0" d="M396.9,501H211.1c-3.9,0-7.1,3.4-7.1,7.5v45c0,4.1,3.2,7.5,7.1,7.5h185.7c3.9,0,7.1-3.4,7.1-7.5v-45
		C404,504.4,400.8,501,396.9,501z"/>
	<path class="st0" d="M396.9,361H211.1c-3.9,0-7.1,3.4-7.1,7.5v45c0,4.1,3.2,7.5,7.1,7.5h185.7c3.9,0,7.1-3.4,7.1-7.5v-45
		C404,364.4,400.8,361,396.9,361z"/>
	<path class="st0" d="M812.9,501H627.1c-3.9,0-7.1,3.4-7.1,7.5v45c0,4.1,3.2,7.5,7.1,7.5h185.7c3.9,0,7.1-3.4,7.1-7.5v-45
		C820,504.4,816.8,501,812.9,501z"/>
	<path class="st0" d="M812.9,361H627.1c-3.9,0-7.1,3.4-7.1,7.5v45c0,4.1,3.2,7.5,7.1,7.5h185.7c3.9,0,7.1-3.4,7.1-7.5v-45
		C820,364.4,816.8,361,812.9,361z"/>
	<path d="M928,161H699.2c-49.1,0-97.1,14.1-138.4,40.7L512,233l-48.8-31.3C422,175.1,373.9,161,324.8,161H96c-17.7,0-32,14.3-32,32
		v568c0,17.7,14.3,32,32,32h228.8c49.1,0,97.1,14.1,138.4,40.7l44.4,28.6c1.3,0.8,2.8,1.3,4.3,1.3c1.5,0,3-0.4,4.3-1.3l44.4-28.6
		C602,807.1,650.1,793,699.2,793H928c17.7,0,32-14.3,32-32V193C960,175.3,945.7,161,928,161z M404,553.5c0,4.1-3.2,7.5-7.1,7.5
		H211.1c-3.9,0-7.1-3.4-7.1-7.5v-45c0-4.1,3.2-7.5,7.1-7.5h185.7c3.9,0,7.1,3.4,7.1,7.5V553.5z M404,413.5c0,4.1-3.2,7.5-7.1,7.5
		H211.1c-3.9,0-7.1-3.4-7.1-7.5v-45c0-4.1,3.2-7.5,7.1-7.5h185.7c3.9,0,7.1,3.4,7.1,7.5V413.5z M820,553.5c0,4.1-3.2,7.5-7.1,7.5
		H627.1c-3.9,0-7.1-3.4-7.1-7.5v-45c0-4.1,3.2-7.5,7.1-7.5h185.7c3.9,0,7.1,3.4,7.1,7.5V553.5z M820,413.5c0,4.1-3.2,7.5-7.1,7.5
		H627.1c-3.9,0-7.1-3.4-7.1-7.5v-45c0-4.1,3.2-7.5,7.1-7.5h185.7c3.9,0,7.1,3.4,7.1,7.5V413.5z"/>
</g>
</svg>
