<?xml version="1.0" encoding="utf-8"?>
<!-- Generator: Adobe Illustrator 21.0.0, SVG Export Plug-In . SVG Version: 6.00 Build 0)  -->
<svg version="1.1" id="图层_1" xmlns="http://www.w3.org/2000/svg" xmlns:xlink="http://www.w3.org/1999/xlink" x="0px" y="0px"
	 viewBox="0 0 1024 1024" style="enable-background:new 0 0 1024 1024;" xml:space="preserve">
<style type="text/css">
	.st0{fill:none;}
</style>
<title>right-square-fill</title>
<desc>Created with Sketch.</desc>
<g>
	<path class="st0" d="M658.7,505.5l-246-178c-5.3-3.8-12.7,0-12.7,6.5v46.9c0,10.2,4.9,19.9,13.2,25.9L558.6,512L413.2,617.2
		c-8.3,6-13.2,15.6-13.2,25.9V690c0,6.5,7.4,10.3,12.7,6.5l246-178C663.1,515.3,663.1,508.7,658.7,505.5z"/>
	<path d="M880,112H144c-17.7,0-32,14.3-32,32v736c0,17.7,14.3,32,32,32h736c17.7,0,32-14.3,32-32V144C912,126.3,897.7,112,880,112z
		 M658.7,518.5l-246,178c-5.3,3.8-12.7,0-12.7-6.5v-46.9c0-10.2,4.9-19.9,13.2-25.9L558.6,512L413.2,406.8
		c-8.3-6-13.2-15.6-13.2-25.9V334c0-6.5,7.4-10.3,12.7-6.5l246,178C663.1,508.7,663.1,515.3,658.7,518.5z"/>
</g>
</svg>
