<?xml version="1.0" encoding="utf-8"?>
<!-- Generator: Adobe Illustrator 21.0.0, SVG Export Plug-In . SVG Version: 6.00 Build 0)  -->
<svg version="1.1" id="图层_1" xmlns="http://www.w3.org/2000/svg" xmlns:xlink="http://www.w3.org/1999/xlink" x="0px" y="0px"
	 viewBox="0 0 1024 1024" style="enable-background:new 0 0 1024 1024;" xml:space="preserve">
<style type="text/css">
	.st0{fill:none;}
</style>
<title>right-circle-fill</title>
<desc>Created with Sketch.</desc>
<g>
	<path class="st0" d="M666.7,505.5l-246-178c-5.3-3.8-12.7,0-12.7,6.5v46.9c0,10.3,4.9,19.9,13.2,25.9L566.6,512L421.2,617.2
		c-8.3,6-13.2,15.7-13.2,25.9V690c0,6.5,7.4,10.3,12.7,6.5l246-178C671.1,515.3,671.1,508.7,666.7,505.5z"/>
	<path d="M512,64C264.6,64,64,264.6,64,512s200.6,448,448,448s448-200.6,448-448S759.4,64,512,64z M666.7,518.5l-246,178
		c-5.3,3.8-12.7,0-12.7-6.5v-46.9c0-10.2,4.9-19.9,13.2-25.9L566.6,512L421.2,406.8c-8.3-6-13.2-15.6-13.2-25.9V334
		c0-6.5,7.4-10.3,12.7-6.5l246,178C671.1,508.7,671.1,515.3,666.7,518.5z"/>
</g>
</svg>
