<?xml version="1.0" encoding="utf-8"?>
<!-- Generator: Adobe Illustrator 21.0.0, SVG Export Plug-In . SVG Version: 6.00 Build 0)  -->
<svg version="1.1" id="图层_1" xmlns="http://www.w3.org/2000/svg" xmlns:xlink="http://www.w3.org/1999/xlink" x="0px" y="0px"
	 viewBox="0 0 1024 1024" style="enable-background:new 0 0 1024 1024;" xml:space="preserve">
<title>rise</title>
<desc>Created with Sketch.</desc>
<path d="M917,211.1l-199.2,24c-6.6,0.8-9.4,8.9-4.7,13.6l59.3,59.3L546.4,534L444.6,432.3c-6.3-6.3-16.4-6.2-22.6,0L100.3,754.1
	c-3.1,3.1-3.1,8.2,0,11.3l45,45.2c3.1,3.1,8.2,3.1,11.3,0L433.3,534L535,635.7c6.3,6.2,16.4,6.2,22.6,0L829,364.5l59.3,59.3
	c4.7,4.7,12.8,1.9,13.6-4.7l24-199.2C926.6,214.8,922.2,210.4,917,211.1z"/>
</svg>
