<?xml version="1.0" encoding="utf-8"?>
<!-- Generator: Adobe Illustrator 21.0.0, SVG Export Plug-In . SVG Version: 6.00 Build 0)  -->
<svg version="1.1" id="图层_1" xmlns="http://www.w3.org/2000/svg" xmlns:xlink="http://www.w3.org/1999/xlink" x="0px" y="0px"
	 viewBox="0 0 1024 1024" style="enable-background:new 0 0 1024 1024;" xml:space="preserve">
<style type="text/css">
	.st0{fill:none;}
</style>
<title>rocket-fill</title>
<desc>Created with Sketch.</desc>
<g>
	<circle class="st0" cx="512" cy="400" r="48"/>
	<path class="st0" d="M627.7,735.9H396.4c-8.7,4.4-14.6,13.2-14.6,23.8c0,10.1,5.4,19.4,14.1,24.4c4.2,2.4,8.9,3.7,13.8,3.7
		c1.2,0,2.3-0.1,3.3-0.2l19.5-2.5l2.8,19.5c5.4,37.9,38.4,66.5,76.7,66.5s71.3-28.6,76.7-66.5l2.8-19.4l19.5,2.4
		c5.9,0.8,11.9-0.4,17.1-3.4c8.7-4.9,14.1-14.3,14.2-24.5C642.3,749.2,636.5,740.4,627.7,735.9z"/>
	<path d="M864,736c0-111.6-65.4-208-160-252.9V317.3c0-15.1-5.3-29.7-15.1-41.2L536.5,95.4C530.1,87.8,521,84,512,84
		s-18.1,3.8-24.5,11.4L335.1,276.1c-9.7,11.5-15.1,26.1-15.1,41.2v165.8C225.4,528,160,624.4,160,736h156.5
		c-2.3,7.2-3.5,15-3.5,23.8c0,22.1,7.6,43.7,21.4,60.8c11.3,14,26.2,24.6,43.1,30.6c23.1,54,75.6,88.8,134.5,88.8
		c29.1,0,57.3-8.6,81.4-24.8c23.6-15.8,41.9-37.9,53-64c16.9-6,31.8-16.5,43.1-30.5c13.8-17.2,21.4-38.8,21.4-60.8
		c0-8.4-1.1-16.4-3.1-23.8L864,736L864,736z M512,352c26.5,0,48,21.5,48,48c0,26.5-21.5,48-48,48c-26.5,0-48-21.5-48-48
		C464,373.5,485.5,352,512,352z M628.1,784.2c-5.2,3-11.2,4.2-17.1,3.4l-19.5-2.4l-2.8,19.4c-5.4,37.9-38.4,66.5-76.7,66.5
		s-71.3-28.6-76.7-66.5l-2.8-19.5l-19.5,2.5c-1,0.1-2.1,0.2-3.3,0.2c-4.9,0-9.6-1.3-13.8-3.7c-8.7-5-14.1-14.3-14.1-24.4
		c0-10.6,5.9-19.4,14.6-23.8h231.3c8.8,4.5,14.6,13.3,14.6,23.8C642.2,769.9,636.8,779.3,628.1,784.2z"/>
</g>
</svg>
