<?xml version="1.0" encoding="utf-8"?>
<!-- Generator: Adobe Illustrator 21.0.0, SVG Export Plug-In . SVG Version: 6.00 Build 0)  -->
<svg version="1.1" id="图层_1" xmlns="http://www.w3.org/2000/svg" xmlns:xlink="http://www.w3.org/1999/xlink" x="0px" y="0px"
	 viewBox="0 0 1024 1024" style="enable-background:new 0 0 1024 1024;" xml:space="preserve">
<style type="text/css">
	.st0{fill:none;}
</style>
<title>safety certificate</title>
<desc>Created with Sketch.</desc>
<g>
	<path class="st0" d="M214,226.7v427.6l298,232.2l298-232.2V226.7L512,125.1L214,226.7z M632.8,328H688c6.5,0,10.3,7.4,6.5,12.7
		L481.9,633.4c-6.4,8.8-19.6,8.8-26,0l-126.4-174c-3.8-5.3,0-12.7,6.5-12.7h55.2c5.1,0,10,2.5,13,6.6l64.7,89l150.9-207.8
		C622.8,330.5,627.6,328,632.8,328z"/>
	<path d="M866.9,169.9L527.1,54.1C523,52.7,517.5,52,512,52s-11,0.7-15.1,2.1L157.1,169.9c-8.3,2.8-15.1,12.4-15.1,21.2v482.4
		c0,8.8,5.7,20.4,12.6,25.9l344.7,268.6c3.5,2.7,8,4.1,12.6,4.1c4.6,0,9.2-1.4,12.6-4.1l344.7-268.6c6.9-5.4,12.6-17,12.6-25.9
		V191.1C882,182.3,875.2,172.8,866.9,169.9z M810,654.3L512,886.5L214,654.3V226.7l298-101.6l298,101.6V654.3z"/>
	<path d="M404.2,453.3c-3-4.1-7.8-6.6-13-6.6H336c-6.5,0-10.3,7.4-6.5,12.7l126.4,174c6.4,8.8,19.6,8.8,26,0l212.6-292.7
		c3.8-5.3,0-12.7-6.5-12.7h-55.2c-5.1,0-10,2.5-13,6.6L468.9,542.4L404.2,453.3z"/>
</g>
</svg>
