<?xml version="1.0" encoding="utf-8"?>
<!-- Generator: Adobe Illustrator 21.0.0, SVG Export Plug-In . SVG Version: 6.00 Build 0)  -->
<svg version="1.1" id="图层_1" xmlns="http://www.w3.org/2000/svg" xmlns:xlink="http://www.w3.org/1999/xlink" x="0px" y="0px"
	 viewBox="0 0 1024 1024" style="enable-background:new 0 0 1024 1024;" xml:space="preserve">
<title>select</title>
<desc>Created with Sketch.</desc>
<g>
	<path d="M880,112H144c-17.7,0-32,14.3-32,32v736c0,17.7,14.3,32,32,32h360c4.4,0,8-3.6,8-8v-56c0-4.4-3.6-8-8-8H184V184h656v320
		c0,4.4,3.6,8,8,8h56c4.4,0,8-3.6,8-8V144C912,126.3,897.7,112,880,112z"/>
	<path d="M653.3,599.4l52.2-52.2c4.7-4.7,1.9-12.8-4.7-13.6l-179.4-21c-5.1-0.6-9.5,3.7-8.9,8.9l21,179.4c0.8,6.6,8.9,9.4,13.6,4.7
		l52.4-52.4l256.2,256.2c3.1,3.1,8.2,3.1,11.3,0l42.4-42.4c3.1-3.1,3.1-8.2,0-11.3L653.3,599.4z"/>
</g>
</svg>
