<?xml version="1.0" encoding="utf-8"?>
<!-- Generator: Adobe Illustrator 21.0.0, SVG Export Plug-In . SVG Version: 6.00 Build 0)  -->
<svg version="1.1" id="图层_1" xmlns="http://www.w3.org/2000/svg" xmlns:xlink="http://www.w3.org/1999/xlink" x="0px" y="0px"
	 viewBox="0 0 1024 1024" style="enable-background:new 0 0 1024 1024;" xml:space="preserve">
<style type="text/css">
	.st0{fill:none;}
</style>
<title>sever</title>
<desc>Created with Sketch.</desc>
<g>
	<path class="st0" d="M792,136H232v208h560V136z M504,264c0,4.4-3.6,8-8,8H312c-4.4,0-8-3.6-8-8v-48c0-4.4,3.6-8,8-8h184
		c4.4,0,8,3.6,8,8V264z"/>
	<path class="st0" d="M232,616h560V408H232V616z M304,488c0-4.4,3.6-8,8-8h184c4.4,0,8,3.6,8,8v48c0,4.4-3.6,8-8,8H312
		c-4.4,0-8-3.6-8-8V488z"/>
	<path class="st0" d="M232,888h560V680H232V888z M680,748c22.1,0,40,17.9,40,40s-17.9,40-40,40s-40-17.9-40-40S657.9,748,680,748z"
		/>
	<path d="M832,64H192c-17.7,0-32,14.3-32,32v832c0,17.7,14.3,32,32,32h640c17.7,0,32-14.3,32-32V96C864,78.3,849.7,64,832,64z
		 M232,136h560v208H232V136z M792,616H232V408h560V616z M792,888H232V680h560V888z"/>
	<path d="M496,208H312c-4.4,0-8,3.6-8,8v48c0,4.4,3.6,8,8,8h184c4.4,0,8-3.6,8-8v-48C504,211.6,500.4,208,496,208z"/>
	<path d="M312,544h184c4.4,0,8-3.6,8-8v-48c0-4.4-3.6-8-8-8H312c-4.4,0-8,3.6-8,8v48C304,540.4,307.6,544,312,544z"/>
	<circle cx="680" cy="788" r="40"/>
</g>
</svg>
