<?xml version="1.0" encoding="utf-8"?>
<!-- Generator: Adobe Illustrator 21.0.0, SVG Export Plug-In . SVG Version: 6.00 Build 0)  -->
<svg version="1.1" id="图层_1" xmlns="http://www.w3.org/2000/svg" xmlns:xlink="http://www.w3.org/1999/xlink" x="0px" y="0px"
	 viewBox="0 0 1024 1024" style="enable-background:new 0 0 1024 1024;" xml:space="preserve">
<style type="text/css">
	.st0{fill:none;}
</style>
<title>shop</title>
<desc>Created with Sketch.</desc>
<g>
	<rect x="448" y="736" class="st0" width="128" height="104.1"/>
	<rect x="214" y="184" class="st0" width="596" height="88"/>
	<path class="st0" d="M730.7,616c-24.4,0-48-4.7-70.4-14.1c-13.8-5.8-26.8-13.2-38.7-22.1c-0.2-0.1-0.4-0.1-0.6,0
		c-11.9,8.9-24.8,16.3-38.7,22.1c-22.3,9.4-46,14.1-70.4,14.1c-24.4,0-48-4.7-70.4-14.1c-13.8-5.8-26.8-13.2-38.7-22.1
		c-0.2-0.1-0.4-0.1-0.6,0c-11.9,8.9-24.8,16.3-38.7,22.1c-22.3,9.4-46,14.1-70.4,14.1s-48-4.7-70.4-14.1c-3-1.3-6-2.6-9-4v242.2h170
		V704c0-17.7,14.3-32,32-32h192c17.7,0,32,14.3,32,32v136.1h170V597.9c-2.9,1.4-5.9,2.8-9,4C778.7,611.3,755,616,730.7,616z"/>
	<path class="st0" d="M839.5,344h-655c-0.3,0-0.5,0.2-0.5,0.5v91.2c0,59.8,49,108.3,109.3,108.3c40.7,0,76.2-22,95-54.7
		c3-5.1,8.4-8.3,14.3-8.3c5.9,0,11.4,3.2,14.3,8.3c18.8,32.7,54.3,54.7,95,54.7c40.8,0,76.4-22.1,95.2-54.9c2.9-5,8.1-8.1,13.9-8.1
		h0.6c5.7,0,11,3.1,13.9,8.1c18.8,32.8,54.4,54.9,95.2,54.9C791,544,840,495.5,840,435.7v-91.2C840,344.2,839.8,344,839.5,344z"/>
	<path d="M882,272.1V144c0-17.7-14.3-32-32-32H174c-17.7,0-32,14.3-32,32v128.1c-16.7,1-30,14.9-30,31.9v131.7
		c0,24.4,4.8,48.1,14.4,70.4c4.3,10.2,9.6,19.8,15.6,28.9v345c0,17.6,14.3,32,32,32h676c17.7,0,32-14.3,32-32v-345
		c6.1-9.1,11.3-18.8,15.6-28.9c9.5-22.3,14.4-46,14.4-70.4V304C912,287,898.7,273.1,882,272.1z M214,184h596v88H214V184z M576,840.1
		H448V736h128V840.1z M810,840.1H640V704c0-17.7-14.3-32-32-32H416c-17.7,0-32,14.3-32,32v136.1H214V597.9c2.9,1.4,5.9,2.8,9,4
		c22.3,9.4,46,14.1,70.4,14.1s48-4.7,70.4-14.1c13.8-5.8,26.8-13.2,38.7-22.1c0.2-0.1,0.4-0.1,0.6,0c11.9,8.9,24.8,16.3,38.7,22.1
		c22.3,9.4,46,14.1,70.4,14.1c24.4,0,48-4.7,70.4-14.1c13.8-5.8,26.8-13.2,38.7-22.1c0.2-0.1,0.4-0.1,0.6,0
		c11.9,8.9,24.8,16.3,38.7,22.1c22.3,9.4,46,14.1,70.4,14.1c24.4,0,48-4.7,70.4-14.1c3-1.3,6-2.6,9-4V840.1z M840,435.7
		c0,59.8-49,108.3-109.3,108.3c-40.8,0-76.4-22.1-95.2-54.9c-2.9-5-8.1-8.1-13.9-8.1H621c-5.7,0-11,3.1-13.9,8.1
		C588.4,521.9,552.8,544,512,544c-40.7,0-76.2-22-95-54.7c-3-5.1-8.4-8.3-14.3-8.3c-5.9,0-11.4,3.2-14.3,8.3
		C369.5,522,334,544,293.3,544C233,544,184,495.5,184,435.7v-91.2c0-0.3,0.2-0.5,0.5-0.5h655c0.3,0,0.5,0.2,0.5,0.5V435.7z"/>
</g>
</svg>
