<?xml version="1.0" encoding="utf-8"?>
<!-- Generator: Adobe Illustrator 21.0.0, SVG Export Plug-In . SVG Version: 6.00 Build 0)  -->
<svg version="1.1" id="图层_1" xmlns="http://www.w3.org/2000/svg" xmlns:xlink="http://www.w3.org/1999/xlink" x="0px" y="0px"
	 viewBox="0 0 1024 1024" style="enable-background:new 0 0 1024 1024;" xml:space="preserve">
<style type="text/css">
	.st0{fill:none;}
</style>
<title>sketch</title>
<desc>Created with Sketch.</desc>
<g>
	<polygon class="st0" points="378.8,206.4 344.3,340.3 476.9,206.4 	"/>
	<polygon class="st0" points="325.4,213.4 188.1,384.9 281.3,384.9 	"/>
	<polygon class="st0" points="653.4,384.9 512,242 370.6,384.9 	"/>
	<polygon class="st0" points="645.2,206.4 547.1,206.4 679.7,340.3 	"/>
	<polygon class="st0" points="194.6,434.9 414.9,682.6 289,434.9 	"/>
	<polygon class="st0" points="345.1,434.9 512,763.4 678.9,434.9 	"/>
	<polygon class="st0" points="742.7,384.9 835.9,384.9 698.6,213.4 	"/>
	<polygon class="st0" points="609.1,682.6 829.4,434.9 735,434.9 	"/>
	<path d="M925.6,405.1L925.6,405.1l-203-253.7c-1.2-1.5-3.1-2.4-5-2.4H306.4c-1.9,0-3.8,0.9-5,2.4l-203,253.7
		c-1.9,2.4-1.9,5.9,0.2,8.3l408.6,459.5c1.2,1.4,3,2.1,4.8,2.1c1.8,0,3.5-0.8,4.8-2.1l408.6-459.5
		C927.5,411,927.5,407.5,925.6,405.1z M645.2,206.4l34.4,133.9L547.1,206.4H645.2z M653.4,384.9H370.6L512,242L653.4,384.9z
		 M378.8,206.4h98.1L344.3,340.3L378.8,206.4z M325.4,213.4l-44.1,171.5h-93.1L325.4,213.4z M194.6,434.9H289l125.8,247.7
		L194.6,434.9z M512,763.4L345.1,434.9h333.7L512,763.4z M609.1,682.6L735,434.9h94.4L609.1,682.6z M742.7,384.9l-44.1-171.5
		l137.2,171.5H742.7z"/>
</g>
</svg>
