<?xml version="1.0" encoding="utf-8"?>
<!-- Generator: Adobe Illustrator 21.0.0, SVG Export Plug-In . SVG Version: 6.00 Build 0)  -->
<svg version="1.1" id="图层_1" xmlns="http://www.w3.org/2000/svg" xmlns:xlink="http://www.w3.org/1999/xlink" x="0px" y="0px"
	 viewBox="0 0 1024 1024" style="enable-background:new 0 0 1024 1024;" xml:space="preserve">
<style type="text/css">
	.st0{fill:none;}
</style>
<title>slack</title>
<desc>Created with Sketch.</desc>
<g>
	
		<rect x="427.8" y="427.1" transform="matrix(0.951 -0.3093 0.3093 0.951 -133.1841 183.6549)" class="st0" width="169.5" height="169.4"/>
	<path d="M925.5,541.9c-12.2-37.6-52.6-58.1-90.1-45.9l-80,26L703,360.9l80-26c37.6-12.2,58.1-52.6,45.9-90.1
		c-12.2-37.6-52.6-58.1-90.1-45.9l-80,26l-26.2-80.6c-12.2-37.6-52.6-58.1-90.1-45.9c-37.5,12.2-58.1,52.6-45.9,90.1l26.2,80.6
		l-161.1,52.4l-26.2-80.6c-12.2-37.6-52.6-58.1-90.1-45.9s-58.1,52.6-45.9,90.1l26.2,80.6l-81.1,26.4
		c-37.6,12.2-58.1,52.6-45.9,90.1c12.2,37.6,52.6,58.1,90.1,45.9l81.1-26.4l52.4,161.1L241,689.1c-37.6,12.2-58.1,52.6-45.9,90.1
		c12.2,37.6,52.6,58.1,90.1,45.9l81.1-26.4l26.2,80.6c12.2,37.6,52.6,58.1,90.1,45.9c37.6-12.2,58.1-52.6,45.9-90.1l-26.2-80.6
		l161.1-52.4l26.2,80.6c12.2,37.6,52.6,58.1,90.1,45.9c37.6-12.2,58.1-52.6,45.9-90.1l-26-80.5l80-26
		C917.1,619.9,937.7,579.5,925.5,541.9z M458.2,618.6l-52.4-161.1L567,405.1l52.4,161.1L458.2,618.6z"/>
</g>
</svg>
