<?xml version="1.0" encoding="utf-8"?>
<!-- Generator: Adobe Illustrator 21.0.0, SVG Export Plug-In . SVG Version: 6.00 Build 0)  -->
<svg version="1.1" id="图层_1" xmlns="http://www.w3.org/2000/svg" xmlns:xlink="http://www.w3.org/1999/xlink" x="0px" y="0px"
	 viewBox="0 0 1024 1024" style="enable-background:new 0 0 1024 1024;" xml:space="preserve">
<title>sync</title>
<desc>Created with Sketch.</desc>
<g>
	<path d="M168,504.2c1-43.7,10-86.1,26.9-126c17.3-41,42.1-77.7,73.7-109.4S337,212.3,378,195c42.4-17.9,87.4-27,133.9-27
		c46.5,0,91.5,9.1,133.8,27c40.9,17.3,77.7,42.1,109.3,73.8c9.9,9.9,19.2,20.4,27.8,31.4l-60.2,47c-5.3,4.1-3.5,12.5,3,14.1
		l175.7,43c5,1.2,9.9-2.6,9.9-7.7l0.8-180.9c0-6.7-7.7-10.5-12.9-6.3l-56.4,44.1C765.8,155.1,646.2,92,511.8,92
		C282.7,92,96.3,275.6,92,503.8c-0.1,4.5,3.5,8.2,8,8.2h60C164.4,512,167.9,508.5,168,504.2z"/>
	<path d="M924,512h-60c-4.4,0-7.9,3.5-8,7.8c-1,43.7-10,86.1-26.9,126c-17.3,41-42.1,77.8-73.7,109.4S687,811.7,646,829
		c-42.4,17.9-87.4,27-133.9,27c-46.5,0-91.5-9.1-133.9-27c-40.9-17.3-77.7-42.1-109.3-73.8c-9.9-9.9-19.2-20.4-27.8-31.4l60.2-47
		c5.3-4.1,3.5-12.5-3-14.1l-175.7-43c-5-1.2-9.9,2.6-9.9,7.7L112,808.4c0,6.7,7.7,10.5,12.9,6.3l56.4-44.1
		C258.2,868.9,377.8,932,512.2,932c229.2,0,415.5-183.7,419.8-411.8C932.1,515.7,928.5,512,924,512z"/>
</g>
</svg>
