<?xml version="1.0" encoding="utf-8"?>
<!-- Generator: Adobe Illustrator 21.0.0, SVG Export Plug-In . SVG Version: 6.00 Build 0)  -->
<svg version="1.1" id="图层_1" xmlns="http://www.w3.org/2000/svg" xmlns:xlink="http://www.w3.org/1999/xlink" x="0px" y="0px"
	 viewBox="0 0 1024 1024" style="enable-background:new 0 0 1024 1024;" xml:space="preserve">
<style type="text/css">
	.st0{fill:none;}
</style>
<title>table</title>
<desc>Created with Sketch.</desc>
<g>
	<rect x="412" y="432" class="st0" width="200" height="160"/>
	<rect x="412" y="232" class="st0" width="200" height="136"/>
	<rect x="136" y="432" class="st0" width="212" height="160"/>
	<rect x="676" y="232" class="st0" width="212" height="136"/>
	<rect x="676" y="432" class="st0" width="212" height="160"/>
	<rect x="412" y="656" class="st0" width="200" height="136"/>
	<rect x="676" y="656" class="st0" width="212" height="136"/>
	<rect x="136" y="232" class="st0" width="212" height="136"/>
	<rect x="136" y="656" class="st0" width="212" height="136"/>
	<path d="M928,160H96c-17.7,0-32,14.3-32,32v640c0,17.7,14.3,32,32,32h832c17.7,0,32-14.3,32-32V192C960,174.3,945.7,160,928,160z
		 M888,368H676V232h212V368z M888,592H676V432h212V592z M412,432h200v160H412V432z M612,368H412V232h200V368z M136,432h212v160H136
		V432z M136,232h212v136H136V232z M136,656h212v136H136V656z M412,656h200v136H412V656z M888,792H676V656h212V792z"/>
</g>
</svg>
