<?xml version="1.0" encoding="utf-8"?>
<!-- Generator: Adobe Illustrator 21.0.0, SVG Export Plug-In . SVG Version: 6.00 Build 0)  -->
<svg version="1.1" id="图层_1" xmlns="http://www.w3.org/2000/svg" xmlns:xlink="http://www.w3.org/1999/xlink" x="0px" y="0px"
	 viewBox="0 0 1024 1024" style="enable-background:new 0 0 1024 1024;" xml:space="preserve">
<style type="text/css">
	.st0{fill:none;}
</style>
<title>tag-fill</title>
<desc>Created with Sketch.</desc>
<g>
	<path class="st0" d="M699,259c-35.3,0-64,28.7-64,64s28.7,64,64,64s64-28.7,64-64S734.3,259,699,259z"/>
	<path d="M938,458.8l-29.6-312.6c-1.5-16.2-14.4-29-30.6-30.6L565.2,86H565c-0.1,0-0.1,0-0.2,0c-3.2,0-5.7,1-7.6,2.9L88.9,557.2
		c-3.9,3.9-3.9,10.2,0,14.1l363.8,363.8c1.9,1.9,4.4,2.9,7.1,2.9s5.2-1,7.1-2.9l468.3-468.3C937.2,464.7,938.2,461.8,938,458.8z
		 M699,387c-35.3,0-64-28.7-64-64s28.7-64,64-64s64,28.7,64,64S734.3,387,699,387z"/>
</g>
</svg>
