<?xml version="1.0" encoding="utf-8"?>
<!-- Generator: Adobe Illustrator 21.0.0, SVG Export Plug-In . SVG Version: 6.00 Build 0)  -->
<svg version="1.1" id="图层_1" xmlns="http://www.w3.org/2000/svg" xmlns:xlink="http://www.w3.org/1999/xlink" x="0px" y="0px"
	 viewBox="0 0 1024 1024" style="enable-background:new 0 0 1024 1024;" xml:space="preserve">
<style type="text/css">
	.st0{fill:none;}
</style>
<title>taobao-square-fill</title>
<desc>Created with Sketch.</desc>
<g>
	<path class="st0" d="M280.9,410.6l-32.7,50.2l60.2,37.5c0,0,40.3,20.6,21.1,58.9C311.7,593.7,224,673.5,224,673.5l78.5,49
		c54.3-117.9,50.8-102.2,64.4-144.5c14-43.3,17.1-76.2-6.7-100.1C329.6,447.2,326.3,444.3,280.9,410.6z"/>
	<ellipse class="st0" cx="315.7" cy="340.9" rx="49.5" ry="49.4"/>
	<path class="st0" d="M482.9,347c12.5-21.6,18.4-35.6,18.4-35.6L428.7,291c0,0-29.2,95.5-81.4,139.9c0,0,50.5,29.2,50,28.4
		c14.5-14.5,27.5-29.2,38.7-43.5c11.6-5,22.7-9.8,33.6-14.2c-13.4,24.1-35.1,60.3-56.8,83.2l30.6,26.7c0,0,20.8-20,43.5-44.1h25.9
		v44.5h-101v35.7h101v85.3c-1.2,0-2.6,0-3.9-0.1c-11.1-0.5-28.5-2.4-35.3-13.1c-8.3-13.1-2.2-37.1-1.7-51.8h-69.8l-2.5,1.3
		c0,0-25.6,114.5,73.7,112c93,2.6,146.2-25.9,171.8-45.4l10.2,37.8l57.3-23.9l-38.8-94.9l-46.5,14.4l8.7,32.5
		c-11.9,8.9-25.6,15.6-40.5,20.5v-74.6h98.7v-35.7h-98.7v-44.5h99.1v-35.6h-176c12.7-15.4,22.7-29.6,25.2-38.6l-30.6-8.3
		c131.6-47.1,204.9-39,204.2,38.3v203.6c0,0,7.8,69.9-72.3,64.9l-43.3-9.3l-10.2,41.1c0,0,187.1,53.5,202.4-90.3
		c15.3-143.8-3.8-235.5-3.8-235.5S773.2,264.8,482.9,347z"/>
	<path d="M880,112H144c-17.7,0-32,14.3-32,32v736c0,17.7,14.3,32,32,32h736c17.7,0,32-14.3,32-32V144C912,126.3,897.7,112,880,112z
		 M315.7,291.5c27.3,0,49.5,22.1,49.5,49.4s-22.1,49.4-49.5,49.4s-49.5-22.1-49.5-49.4S288.3,291.5,315.7,291.5z M366.9,578
		c-13.6,42.3-10.2,26.7-64.4,144.5l-78.5-49c0,0,87.7-79.8,105.6-116.2c19.2-38.4-21.1-58.9-21.1-58.9l-60.2-37.5l32.7-50.2
		c45.4,33.7,48.7,36.6,79.2,67.2C384,501.8,380.9,534.7,366.9,578z M794.1,633c-15.3,143.8-202.4,90.3-202.4,90.3l10.2-41.1
		l43.3,9.3c80,5,72.3-64.9,72.3-64.9V423c0.6-77.3-72.6-85.4-204.2-38.3l30.6,8.3c-2.5,9-12.5,23.2-25.2,38.6h176v35.6h-99.1v44.5
		h98.7v35.7h-98.7v74.6c14.9-4.8,28.6-11.5,40.5-20.5l-8.7-32.5l46.5-14.4l38.8,94.9l-57.3,23.9l-10.2-37.8
		c-25.6,19.5-78.8,48-171.8,45.4c-99.2,2.6-73.7-112-73.7-112l2.5-1.3H472c-0.5,14.7-6.6,38.7,1.7,51.8
		c6.8,10.8,24.2,12.6,35.3,13.1c1.3,0.1,2.6,0.1,3.9,0.1v-85.3h-101v-35.7h101v-44.5h-25.9c-22.7,24.1-43.5,44.1-43.5,44.1
		l-30.6-26.7c21.7-22.9,43.3-59.1,56.8-83.2c-10.9,4.4-22,9.2-33.6,14.2c-11.2,14.3-24.2,29-38.7,43.5c0.5,0.8-50-28.4-50-28.4
		c52.2-44.4,81.4-139.9,81.4-139.9l72.5,20.4c0,0-5.9,14-18.4,35.6c290.3-82.3,307.4,50.5,307.4,50.5S809.4,489.1,794.1,633z"/>
</g>
</svg>
