<?xml version="1.0" encoding="utf-8"?>
<!-- Generator: Adobe Illustrator 21.0.0, SVG Export Plug-In . SVG Version: 6.00 Build 0)  -->
<svg version="1.1" id="图层_1" xmlns="http://www.w3.org/2000/svg" xmlns:xlink="http://www.w3.org/1999/xlink" x="0px" y="0px"
	 viewBox="0 0 1024 1024" style="enable-background:new 0 0 1024 1024;" xml:space="preserve">
<style type="text/css">
	.st0{fill:none;}
</style>
<title>team</title>
<desc>Created with Sketch.</desc>
<g>
	<path class="st0" d="M701.6,392.6c-24.2-23.7-57.1-36.9-91-36.6c-34.3,0.3-66.4,14.1-90.4,38.7c-22.9,23.5-36,55.2-36.3,88
		c-0.3,34.7,13,67.3,37.5,91.8c24.2,24.2,56.3,37.5,90.5,37.5c34.2,0,66.4-13.3,90.5-37.5c24.2-24.2,37.5-56.3,37.5-90.5
		C740,449.4,726.4,416.9,701.6,392.6z"/>
	<path d="M824.2,699.9c-25.4-25.4-54.7-45.7-86.4-60.4c45.3-36.7,74.2-92.7,74.2-155.5c0-110.8-92.4-201.7-203.2-200
		c-109.1,1.7-197,90.6-197,200c0,62.8,29,118.8,74.2,155.5c-31.7,14.7-60.9,34.9-86.4,60.4C345,754.6,314,826.8,312,903.8
		c-0.1,4.5,3.5,8.2,8,8.2h56c4.3,0,7.9-3.4,8-7.7c1.9-58,25.4-112.3,66.7-153.5C493.8,707.7,551.1,684,612,684
		c60.9,0,118.2,23.7,161.3,66.8C814.5,792,838,846.3,840,904.3c0.1,4.3,3.7,7.7,8,7.7h56c4.5,0,8.1-3.7,8-8.2
		C910,826.8,879,754.6,824.2,699.9z M612,612c-34.2,0-66.4-13.3-90.5-37.5C497,550,483.6,517.4,484,482.7
		c0.3-32.8,13.4-64.5,36.3-88c24-24.6,56.1-38.3,90.4-38.7c33.9-0.3,66.8,12.9,91,36.6c24.8,24.3,38.4,56.8,38.4,91.4
		c0,34.2-13.3,66.3-37.5,90.5C678.4,598.7,646.2,612,612,612z"/>
	<path d="M361.5,510.4c-0.9-8.7-1.4-17.5-1.4-26.4c0-15.9,1.5-31.4,4.3-46.5c0.7-3.6-1.2-7.3-4.5-8.8c-13.6-6.1-26.1-14.5-36.9-25.1
		c-25.8-25.2-39.7-59.3-38.7-95.4c0.9-32.1,13.8-62.6,36.3-85.6c24.7-25.3,57.9-39.1,93.2-38.7c31.9,0.3,62.7,12.6,86,34.4
		c7.9,7.4,14.7,15.6,20.4,24.4c2,3.1,5.9,4.4,9.3,3.2c17.6-6.1,36.2-10.4,55.3-12.4c5.6-0.6,8.8-6.6,6.3-11.6
		c-32.5-64.3-98.9-108.7-175.7-109.9c-110.9-1.7-203.3,89.2-203.3,199.9c0,62.8,28.9,118.8,74.2,155.5c-31.8,14.7-61.1,35-86.5,60.4
		c-54.8,54.7-85.8,126.9-87.8,204c-0.1,4.5,3.5,8.2,8,8.2h56.1c4.3,0,7.9-3.4,8-7.7c1.9-58,25.4-112.3,66.7-153.5
		c29.4-29.4,65.4-49.8,104.7-59.7C359.4,518.1,362,514.4,361.5,510.4z"/>
</g>
</svg>
