<?xml version="1.0" encoding="utf-8"?>
<!-- Generator: Adobe Illustrator 21.0.0, SVG Export Plug-In . SVG Version: 6.00 Build 0)  -->
<svg version="1.1" id="图层_1" xmlns="http://www.w3.org/2000/svg" xmlns:xlink="http://www.w3.org/1999/xlink" x="0px" y="0px"
	 viewBox="0 0 1024 1024" style="enable-background:new 0 0 1024 1024;" xml:space="preserve">
<style type="text/css">
	.st0{fill:none;}
</style>
<title>time-circle-o</title>
<desc>Created with Sketch.</desc>
<g>
	<path class="st0" d="M512,140c-205.4,0-372,166.6-372,372s166.6,372,372,372s372-166.6,372-372S717.4,140,512,140z M688.5,649.7
		C688.5,649.7,688.4,649.8,688.5,649.7l-28.6,39c-2.6,3.6-7.6,4.3-11.2,1.7L483.3,569.8c-2.1-1.5-3.3-3.9-3.3-6.5V288
		c0-4.4,3.6-8,8-8h48.1c4.4,0,8,3.6,8,8v247.5l142.6,103.1C690.3,641.1,691.1,646.1,688.5,649.7z"/>
	<path d="M512,64C264.6,64,64,264.6,64,512s200.6,448,448,448s448-200.6,448-448S759.4,64,512,64z M512,884
		c-205.4,0-372-166.6-372-372s166.6-372,372-372s372,166.6,372,372S717.4,884,512,884z"/>
	<path d="M686.7,638.6L544.1,535.5V288c0-4.4-3.6-8-8-8H488c-4.4,0-8,3.6-8,8v275.4c0,2.6,1.2,5,3.3,6.5l165.4,120.6
		c3.6,2.6,8.6,1.8,11.2-1.7l28.6-39c0,0,0,0,0,0C691.1,646.1,690.3,641.1,686.7,638.6z"/>
</g>
</svg>
