<?xml version="1.0" encoding="utf-8"?>
<!-- Generator: Adobe Illustrator 21.0.0, SVG Export Plug-In . SVG Version: 6.00 Build 0)  -->
<svg version="1.1" id="图层_1" xmlns="http://www.w3.org/2000/svg" xmlns:xlink="http://www.w3.org/1999/xlink" x="0px" y="0px"
	 viewBox="0 0 1024 1024" style="enable-background:new 0 0 1024 1024;" xml:space="preserve">
<title>transaction</title>
<desc>Created with Sketch.</desc>
<g>
	<path d="M668.6,320c0-4.4-3.6-8-8-8h-54.5c-3,0-5.8,1.7-7.1,4.4l-84.7,168.8H511l-84.7-168.8c-1.4-2.7-4.1-4.4-7.1-4.4h-55.7
		c-1.3,0-2.6,0.3-3.8,1c-3.9,2.1-5.3,7-3.2,10.8l103.9,191.6h-57c-4.4,0-8,3.6-8,8v27.1c0,4.4,3.6,8,8,8h76v39h-76c-4.4,0-8,3.6-8,8
		v27.1c0,4.4,3.6,8,8,8h76V704c0,4.4,3.6,8,8,8h49.9c4.4,0,8-3.6,8-8v-63.5h76.3c4.4,0,8-3.6,8-8v-27.1c0-4.4-3.6-8-8-8h-76.3v-39
		h76.3c4.4,0,8-3.6,8-8v-27.1c0-4.4-3.6-8-8-8H564l103.7-191.6C668.2,322.6,668.6,321.3,668.6,320z"/>
	<path d="M157.9,504.2c1-45.1,10.3-88.7,27.7-129.9c17.8-42.1,43.3-80,75.8-112.5c32.5-32.5,70.3-58.1,112.4-75.9
		c43.6-18.4,89.9-27.8,137.6-27.8c47.8,0,94.1,9.3,137.6,27.8c42.1,17.8,79.9,43.4,112.4,75.9c10,10,19.3,20.5,27.9,31.4l-50,39.1
		c-5.3,4.1-3.5,12.5,3,14.1l156.8,38.3c5,1.2,9.9-2.6,9.9-7.7l0.8-161.5c0-6.7-7.7-10.5-12.9-6.3l-47.8,37.4
		C770.7,146.3,648.6,82,511.5,82C277,82,86.3,270.1,82,503.8c-0.1,4.5,3.5,8.2,8,8.2h60C154.3,512,157.8,508.5,157.9,504.2z"/>
	<path d="M934,512h-60c-4.3,0-7.9,3.5-8,7.8c-1,45.1-10.3,88.7-27.7,129.9c-17.8,42.1-43.3,80-75.8,112.5
		c-32.5,32.5-70.3,58.1-112.4,75.9c-43.6,18.4-89.9,27.8-137.6,27.8s-94.1-9.3-137.6-27.8c-42.1-17.8-79.9-43.4-112.4-75.9
		c-10-10-19.3-20.5-27.9-31.4l49.9-39.1c5.3-4.1,3.5-12.5-3-14.1l-156.8-38.3c-5-1.2-9.9,2.6-9.9,7.7L114,808.7
		c0,6.7,7.7,10.5,12.9,6.3l47.8-37.4C253.3,877.7,375.4,942,512.5,942C747,942,937.7,753.9,942,520.2C942.1,515.7,938.5,512,934,512
		z"/>
</g>
</svg>
