<?xml version="1.0" encoding="utf-8"?>
<!-- Generator: Adobe Illustrator 21.0.0, SVG Export Plug-In . SVG Version: 6.00 Build 0)  -->
<svg version="1.1" id="图层_1" xmlns="http://www.w3.org/2000/svg" xmlns:xlink="http://www.w3.org/1999/xlink" x="0px" y="0px"
	 viewBox="0 0 1024 1024" style="enable-background:new 0 0 1024 1024;" xml:space="preserve">
<style type="text/css">
	.st0{fill:none;}
</style>
<title>twitter-circle-fill</title>
<desc>Created with Sketch.</desc>
<g>
	<path class="st0" d="M767.8,300.3c-21.3,12.7-45.4,22-70.5,26.7c-20.3-21.7-49.1-35-81.1-35c-67.8,0-124.2,61.1-108.4,136.5
		c-92.1-4.7-174.3-48.8-229-116.1c-9.7,16.4-15.1,35.4-15.1,56c-0.1,37.2,18.5,71.9,49.5,92.4c-18.1-0.7-35.4-5.8-50.1-14.1v1.4
		c0,54,38.1,98.7,88.9,109c-17.6,4.6-33,4.6-50.1,2c14.1,44,55,76,103.8,77c-38.1,29.8-85.9,47.4-137.9,47.4
		c-9.1,0-17.8-0.3-26.8-1.4c49.1,31.5,107.6,49.8,170.6,49.8c204.3,0,316.1-169.1,316.1-315.9c0-4.7,0-9.6-0.3-14.4
		c21.7-15.7,40.6-35.4,55.7-57.6c-20,8.6-41.7,14.9-64,17.3C742,347.7,759.5,326,767.8,300.3z"/>
	<path d="M512,64C264.6,64,64,264.6,64,512s200.6,448,448,448s448-200.6,448-448S759.4,64,512,64z M727.3,401.7
		c0.3,4.7,0.3,9.6,0.3,14.4c0,146.8-111.8,315.9-316.1,315.9c-63,0-121.4-18.3-170.6-49.8c9,1,17.6,1.4,26.8,1.4
		c52,0,99.8-17.6,137.9-47.4c-48.8-1-89.8-33-103.8-77c17.1,2.5,32.5,2.5,50.1-2c-50.8-10.3-88.9-55-88.9-109v-1.4
		c14.7,8.3,32,13.4,50.1,14.1c-30.9-20.6-49.5-55.3-49.5-92.4c0-20.7,5.4-39.6,15.1-56c54.7,67.4,136.9,111.4,229,116.1
		C492,353.1,548.4,292,616.2,292c32,0,60.8,13.4,81.1,35c25.1-4.7,49.1-14.1,70.5-26.7c-8.3,25.7-25.7,47.4-48.8,61.1
		c22.4-2.4,44-8.6,64-17.3C767.9,366.3,749,386,727.3,401.7z"/>
</g>
</svg>
