<?xml version="1.0" encoding="utf-8"?>
<!-- Generator: Adobe Illustrator 21.0.0, SVG Export Plug-In . SVG Version: 6.00 Build 0)  -->
<svg version="1.1" id="图层_1" xmlns="http://www.w3.org/2000/svg" xmlns:xlink="http://www.w3.org/1999/xlink" x="0px" y="0px"
	 viewBox="0 0 1024 1024" style="enable-background:new 0 0 1024 1024;" xml:space="preserve">
<title>undo</title>
<desc>Created with Sketch.</desc>
<path d="M511.4,124C290.5,124.3,112,303,112,523.9c0,128,60.2,242,153.8,315.2l-37.5,48c-4.1,5.3-0.3,13,6.3,12.9l167-0.8
	c5.2,0,9-4.9,7.7-9.9L369.8,727c-1.6-6.5-10-8.3-14.1-3l-40.7,52.1c-10.2-8-20-16.7-29.3-26c-29.4-29.4-52.5-63.6-68.6-101.7
	C200.4,609,192,567.1,192,523.9s8.4-85.1,25.1-124.5c16.1-38.1,39.2-72.3,68.6-101.7c29.4-29.4,63.6-52.5,101.7-68.6
	C426.9,212.4,468.8,204,512,204s85.1,8.4,124.5,25.1c38.1,16.1,72.3,39.2,101.7,68.6c29.4,29.4,52.5,63.6,68.6,101.7
	c16.7,39.4,25.1,81.3,25.1,124.5s-8.4,85.1-25.1,124.5c-16.1,38.1-39.2,72.3-68.6,101.7c-7.5,7.5-15.3,14.5-23.4,21.2
	c-3.4,2.8-3.9,7.7-1.2,11.1l39.4,50.5c2.8,3.5,7.9,4.1,11.4,1.3C854.5,760.8,912,649.1,912,523.9C912,302.8,732.6,123.7,511.4,124z"
	/>
</svg>
