<?xml version="1.0" encoding="utf-8"?>
<!-- Generator: Adobe Illustrator 21.0.0, SVG Export Plug-In . SVG Version: 6.00 Build 0)  -->
<svg version="1.1" id="图层_1" xmlns="http://www.w3.org/2000/svg" xmlns:xlink="http://www.w3.org/1999/xlink" x="0px" y="0px"
	 viewBox="0 0 1024 1024" style="enable-background:new 0 0 1024 1024;" xml:space="preserve">
<style type="text/css">
	.st0{fill:none;}
</style>
<title>unlike</title>
<desc>Created with Sketch.</desc>
<g>
	<rect x="184" y="172" class="st0" width="81" height="284"/>
	<path class="st0" d="M820.4,525l-21.9-19l13.9-25.4c4.6-8.4,6.9-17.6,6.9-27.3c0-16.5-7.2-32.2-19.6-43l-21.9-19l13.9-25.4
		c4.6-8.4,6.9-17.6,6.9-27.3c0-16.5-7.2-32.2-19.6-43l-21.9-19l13.9-25.4c4.6-8.4,6.9-17.6,6.9-27.3c0-22.4-13.2-42.6-33.6-51.8H329
		v287.2l99.5,360.5c5.2,18.9,22.5,32.2,42.2,32.3c7.6,0,15.1-2.2,21.1-6.7c9.9-7.4,15.2-18.6,14.6-30.5l-9.6-198.4h314.4
		C829,605.5,840,587.1,840,568C840,551.5,832.8,535.9,820.4,525z"/>
	<path d="M885.9,490.3c3.6-12,5.4-24.4,5.4-37c0-28.3-9.3-55.5-26.1-77.7c3.6-12,5.4-24.4,5.4-37c0-28.3-9.3-55.5-26.1-77.7
		c3.6-12,5.4-24.4,5.4-37c0-51.6-30.7-98.1-78.3-118.4c-8.3-3.6-17.2-5.4-26.5-5.4H144c-17.7,0-32,14.3-32,32v364
		c0,17.7,14.3,32,32,32h129.3l85.8,310.8C372.9,889,418.9,924,470.9,924c29.7,0,57.4-11.8,77.9-33.4c20.5-21.5,31-49.7,29.5-79.4
		l-6-122.9h239.9c12.1,0,23.9-3.2,34.3-9.3C886.9,655.5,912,612.9,912,568C912,539.7,902.7,512.5,885.9,490.3z M184,456V172h81v284
		H184z M811.2,616.4H496.8l9.6,198.4c0.6,11.9-4.7,23.1-14.6,30.5c-6.1,4.5-13.6,6.8-21.1,6.7c-19.6-0.1-36.9-13.4-42.2-32.3
		L329,459.2V172h415.4c20.4,9.2,33.6,29.4,33.6,51.8c0,9.7-2.3,18.9-6.9,27.3l-13.9,25.4l21.9,19c12.5,10.8,19.6,26.5,19.6,43
		c0,9.7-2.3,18.9-6.9,27.3l-13.9,25.4l21.9,19c12.5,10.8,19.6,26.5,19.6,43c0,9.7-2.3,18.9-6.9,27.3L798.5,506l21.9,19
		c12.5,10.8,19.6,26.5,19.6,43C840,587.1,829,605.5,811.2,616.4z"/>
</g>
</svg>
