<?xml version="1.0" encoding="utf-8"?>
<!-- Generator: Adobe Illustrator 21.0.0, SVG Export Plug-In . SVG Version: 6.00 Build 0)  -->
<svg version="1.1" id="图层_1" xmlns="http://www.w3.org/2000/svg" xmlns:xlink="http://www.w3.org/1999/xlink" x="0px" y="0px"
	 viewBox="0 0 1024 1024" style="enable-background:new 0 0 1024 1024;" xml:space="preserve">
<style type="text/css">
	.st0{fill:none;}
</style>
<title>video-fill</title>
<desc>Created with Sketch.</desc>
<g>
	<polygon class="st0" points="784,565.1 888,625 888,399 784,458.9 	"/>
	<path class="st0" d="M320,296H208c-4.4,0-8,3.6-8,8v48c0,4.4,3.6,8,8,8h112c4.4,0,8-3.6,8-8v-48C328,299.6,324.4,296,320,296z"/>
	<path d="M912,302.3L784,376V224c0-35.3-28.7-64-64-64H128c-35.3,0-64,28.7-64,64v576c0,35.3,28.7,64,64,64h592
		c35.3,0,64-28.7,64-64V648l128,73.7c21.3,12.3,48-3.1,48-27.6V330C960,305.4,933.3,290,912,302.3z M328,352c0,4.4-3.6,8-8,8H208
		c-4.4,0-8-3.6-8-8v-48c0-4.4,3.6-8,8-8h112c4.4,0,8,3.6,8,8V352z M888,625l-104-59.8V458.9L888,399V625z"/>
</g>
</svg>
