<?xml version="1.0" encoding="utf-8"?>
<!-- Generator: Adobe Illustrator 21.0.0, SVG Export Plug-In . SVG Version: 6.00 Build 0)  -->
<svg version="1.1" id="图层_1" xmlns="http://www.w3.org/2000/svg" xmlns:xlink="http://www.w3.org/1999/xlink" x="0px" y="0px"
	 viewBox="0 0 1024 1024" style="enable-background:new 0 0 1024 1024;" xml:space="preserve">
<style type="text/css">
	.st0{fill:none;}
</style>
<title>wallet</title>
<desc>Created with Sketch.</desc>
<g>
	<path class="st0" d="M528,576h312V448H528V576z M620,472c22.1,0,40,17.9,40,40c0,22.1-17.9,40-40,40s-40-17.9-40-40
		C580,489.9,597.9,472,620,472z"/>
	<path class="st0" d="M464,608V416c0-17.7,14.3-32,32-32h344V184H184v656h656V640H496C478.3,640,464,625.7,464,608z"/>
	<path d="M880,112H144c-17.7,0-32,14.3-32,32v736c0,17.7,14.3,32,32,32h736c17.7,0,32-14.3,32-32V608V416V144
		C912,126.3,897.7,112,880,112z M840,576H528V448h312V576z M840,840H184V184h656v200H496c-17.7,0-32,14.3-32,32v192
		c0,17.7,14.3,32,32,32h344V840z"/>
	<circle cx="620" cy="512" r="40"/>
</g>
</svg>
