<?xml version="1.0" encoding="utf-8"?>
<!-- Generator: Adobe Illustrator 21.0.0, SVG Export Plug-In . SVG Version: 6.00 Build 0)  -->
<svg version="1.1" id="图层_1" xmlns="http://www.w3.org/2000/svg" xmlns:xlink="http://www.w3.org/1999/xlink" x="0px" y="0px"
	 viewBox="0 0 1024 1024" style="enable-background:new 0 0 1024 1024;" xml:space="preserve">
<style type="text/css">
	.st0{fill:none;}
</style>
<title>wrench</title>
<desc>Created with Sketch.</desc>
<g>
	<path class="st0" d="M706.7,488.6c-12.5,12.5-32.8,12.5-45.3,0L537,364.1c-12.5-12.5-12.5-32.8,0-45.3l132.8-132.8
		c-51.9-3.8-104.9,14.3-144,53.5c-58.1,58.1-69.3,145.3-33.6,214.6L439.4,507c0,0,0-0.1-0.1-0.1L209.3,737l79.2,79.2l274.1-274.1
		l0.1,0.1l8.8-8.8c69.3,35.7,156.5,24.5,214.6-33.6c39.2-39.2,57.3-92.1,53.5-144L706.7,488.6z"/>
	<path d="M876.6,239.5c-0.5-0.9-1.2-1.8-2-2.5c-5-5-13.1-5-18.1,0L684.2,409.3l-67.9-67.9L788.7,169c0.8-0.8,1.4-1.6,2-2.5
		c3.6-6.1,1.6-13.9-4.5-17.5c-98.2-58-226.8-44.7-311.3,39.7c-67,67-89.2,162-66.5,247.4l-293,293c-3,3-2.8,7.9,0.3,11l169.7,169.7
		c3.1,3.1,8.1,3.3,11,0.3l292.9-292.9c85.5,22.8,180.5,0.7,247.6-66.4C921.3,466.3,934.6,337.7,876.6,239.5z M786,499.8
		c-58.1,58.1-145.3,69.3-214.6,33.6l-8.8,8.8l-0.1-0.1L288.5,816.2L209.3,737l230.1-230.1c0,0,0,0.1,0.1,0.1l52.8-52.8
		c-35.7-69.3-24.5-156.5,33.6-214.6c39.2-39.2,92.1-57.3,144-53.5L537,318.9c-12.5,12.5-12.5,32.8,0,45.3l124.5,124.5
		c12.5,12.5,32.8,12.5,45.3,0l132.8-132.8C843.3,407.7,825.2,460.7,786,499.8z"/>
</g>
</svg>
