<?xml version="1.0" encoding="utf-8"?>
<!-- Generator: Adobe Illustrator 21.0.0, SVG Export Plug-In . SVG Version: 6.00 Build 0)  -->
<svg version="1.1" id="图层_1" xmlns="http://www.w3.org/2000/svg" xmlns:xlink="http://www.w3.org/1999/xlink" x="0px" y="0px"
	 viewBox="0 0 1024 1024" style="enable-background:new 0 0 1024 1024;" xml:space="preserve">
<style type="text/css">
	.st0{fill:none;}
</style>
<title>YUAN-circle-fill</title>
<desc>Created with Sketch.</desc>
<g>
	<path class="st0" d="M671.4,298.9h-59.5c-3,0-5.7,1.7-7.1,4.4l-90.6,180h-3.4l-90.6-180c-1.3-2.7-4.1-4.4-7.1-4.4h-60.7
		c-1.3,0-2.6,0.4-3.8,1c-3.9,2.2-5.3,7-3.2,10.9l111.5,204.8h-61.4c-4.4,0-8,3.6-8,8v29.9c0,4.4,3.6,8,8,8h81.7V603h-81.7
		c-4.4,0-8,3.6-8,8v29.9c0,4.4,3.6,8,8,8h81.7V717c0,4.4,3.6,8,8,8h54.3c4.4,0,8-3.6,8-8v-68.1h82c4.4,0,8-3.6,8-8V611
		c0-4.4-3.6-8-8-8h-82v-41.5h82c4.4,0,8-3.6,8-8v-29.9c0-4.4-3.6-8-8-8h-62l111.1-204.8c0.6-1.2,1-2.5,0.8-3.9
		C679.4,302.5,675.8,298.9,671.4,298.9z"/>
	<path d="M512,64C264.6,64,64,264.6,64,512s200.6,448,448,448s448-200.6,448-448S759.4,64,512,64z M678.6,310.8L567.5,515.6h62
		c4.4,0,8,3.6,8,8v29.9c0,4.4-3.6,8-8,8h-82V603h82c4.4,0,8,3.6,8,8v29.9c0,4.4-3.6,8-8,8h-82V717c0,4.4-3.6,8-8,8h-54.3
		c-4.4,0-8-3.6-8-8v-68.1h-81.7c-4.4,0-8-3.6-8-8V611c0-4.4,3.6-8,8-8h81.7v-41.5h-81.7c-4.4,0-8-3.6-8-8v-29.9c0-4.4,3.6-8,8-8
		h61.4L345.4,310.8c-2.1-3.9-0.7-8.7,3.2-10.9c1.2-0.6,2.5-1,3.8-1h60.7c3,0,5.8,1.7,7.1,4.4l90.6,180h3.4l90.6-180
		c1.4-2.7,4.1-4.4,7.1-4.4h59.5c4.4,0,8,3.6,8,8C679.6,308.3,679.2,309.6,678.6,310.8z"/>
</g>
</svg>
