<?xml version="1.0" encoding="utf-8"?>
<!-- Generator: Adobe Illustrator 21.0.0, SVG Export Plug-In . SVG Version: 6.00 Build 0)  -->
<svg version="1.1" id="图层_1" xmlns="http://www.w3.org/2000/svg" xmlns:xlink="http://www.w3.org/1999/xlink" x="0px" y="0px"
	 viewBox="0 0 1024 1024" style="enable-background:new 0 0 1024 1024;" xml:space="preserve">
<title>yuque-fill</title>
<desc>Created with Sketch.</desc>
<path d="M854.6,370.6c-9.9-39.4,9.9-102.2,73.4-124.4l-67.9-3.6c0,0-25.7-90-143.6-98c-117.9-8.1-195-3-195-3s87.4,55.6,52.4,154.7
	c-25.6,52.5-65.8,95.6-108.8,144.7c-1.3,1.3-2.5,2.6-3.5,3.7C319.4,605,96,860,96,860c245.9,64.4,410.7-6.3,508.2-91.1
	c20.5-0.2,35.9-0.3,46.3-0.3c135.8,0,250.6-117.6,245.9-248.4C893.2,430.3,864.5,410,854.6,370.6z"/>
</svg>
