<?xml version="1.0" encoding="utf-8"?>
<!-- Generator: Adobe Illustrator 21.0.0, SVG Export Plug-In . SVG Version: 6.00 Build 0)  -->
<svg version="1.1" id="图层_1" xmlns="http://www.w3.org/2000/svg" xmlns:xlink="http://www.w3.org/1999/xlink" x="0px" y="0px"
	 viewBox="0 0 1024 1024" style="enable-background:new 0 0 1024 1024;" xml:space="preserve">
<style type="text/css">
	.st0{fill:none;}
</style>
<title>zhihu-circle-fill</title>
<desc>Created with Sketch.</desc>
<g>
	<path class="st0" d="M554.2,708.8h40.1l16.4,46.6l69.5-46.6h87.6V321.5H554.2V708.8z M596.7,364.7h129.9v302.5h0v0H681l-56.8,38.1
		l-13.4-38.1h-14.2V364.7z"/>
	<path class="st0" d="M423.6,500.1c2.3-47.6,4.3-108.7,5-131.4h90.8c0,0-0.5-39-10.6-39H349.2c0,0,9.6-51,22.4-73.6
		c0,0-47.7-2.6-63.9,62c-16.3,64.6-40.6,103.6-43.2,110.7c-2.6,7.1,14,3.4,21.1,0c7-3.4,38.8-15,48.1-60.1h49.4
		c0.7,28.6,2.6,116,2,131.4H283.3c-14.4,10.5-19.2,41.7-19.2,41.7h116.2c-4.9,32.6-13.4,74.6-25.3,96.8
		c-18.8,35.3-28.8,67.6-96.8,123.1c0,0-11.1,8.3,23.3,5.3c34.4-3,66.9-12,89.4-57.8c13.2-27.3,24.4-55.6,33.3-84.7l0,0.1l95.7,111.9
		c0,0,12.6-30,3.3-63.1l-71-80.7l-24,18.1c0,0,0,0.1,0,0.1l0-0.1l0,0c6.7-23.7,11.4-47.2,12.9-67.6l0.1-1.5h110
		c0-26.3-12.2-41.7-12.2-41.7H423.6z"/>
	<path d="M512,64C264.6,64,64,264.6,64,512s200.6,448,448,448s448-200.6,448-448S759.4,64,512,64z M421.3,541.8l-0.1,1.5
		c-1.5,20.4-6.3,43.9-12.9,67.6l24-18.1l71,80.7c9.2,33-3.3,63.1-3.3,63.1l-95.7-111.9l0-0.1c-8.9,29-20.1,57.3-33.3,84.7
		C348.4,755,315.8,764,281.5,767c-34.4,3-23.3-5.3-23.3-5.3c68-55.5,78-87.8,96.8-123.1c11.9-22.3,20.4-64.3,25.3-96.8H264.1
		c0,0,4.8-31.2,19.2-41.7h101.6c0.6-15.3-1.3-102.8-2-131.4h-49.4c-9.2,45-41,56.7-48.1,60.1c-7,3.4-23.6,7.1-21.1,0
		c2.6-7.1,27-46.2,43.2-110.7c16.3-64.6,63.9-62,63.9-62c-12.8,22.5-22.4,73.6-22.4,73.6h159.7c10.1,0,10.6,39,10.6,39h-90.8
		c-0.7,22.7-2.8,83.8-5,131.4h95.5c0,0,12.2,15.4,12.2,41.7H421.3z M767.8,708.8h-87.6l-69.5,46.6l-16.4-46.6h-40.1V321.5h213.6
		V708.8z"/>
	<path d="M408.2,611C408.2,611,408.2,610.9,408.2,611L408.2,611L408.2,611z"/>
	<polygon points="624.2,705.3 681,667.2 726.6,667.2 726.6,667.2 726.5,667.2 726.5,364.7 596.7,364.7 596.7,667.2 610.8,667.2 	"/>
</g>
</svg>
