<svg
  xmlns="http://www.w3.org/2000/svg"
  viewBox="0 0 1024 1024"
  width="1em"
  height="1em"
>
  <path
    d="M4541.76,133.12c-.16-.17-.33-.34-.5-.5s-.33-.34-.5-.5-.33-.34-.5-.5-.33-.34-.5-.5-.33-.34-.5-.5A26.46,26.46,0,0,1,4546.17,148.08c0,16.57-16.82,30.05-37.5,30.05-11.58,0-21.94-4.23-28.83-10.86l.5.5.5.5.5.5.5.5.5.5.5.5.5.5C4513.21,192.72,4523.8,197.17,4535.66,197.17c20.68,0,37.5-13.48,37.5-30C4554.26,156.81,4551.22,150.12,4541.76,133.12Z"
  />
  <g>
    <path
      d="M4736,227.2c0,329.28-339.52,594.24-759.68,594.24S1216,556.48,1216,227.2C1216,101.76,1638.4,0,2002.56,0S2789.12,90.24,3429.28,217.6C3984,90.24,4736,101.76,4736,227.2Z"
      fill="#fbf0df"
    />
    <path
      d="M4736,227.2c0,329.28-339.52,594.24-759.68,594.24S1216,556.48,1216,227.2C1216,101.76,1638.4,0,2002.56,0S2789.12,90.24,3429.28,217.6C3984,90.24,4736,101.76,4736,227.2Z"
      fill="#f6dece"
    />
    <path
      d="M1553.92,288.32c5.44-3.52,11.52-8.48,19.84-8.48a9.29,9.29,0,0,0-2.72-3.52c-2.42,0-5,1.25-8.25,3.13-1.13.66-2.3,1.39-3.54,2.15-2.33,1.44-5,3.07-8,4.7C1280.33,447.13,1216,497.6,1216,556.48c0,.4,0,.8,0,1.19,5.94-101.44,198.05-121.7,313.65-172C1529.42,326.56,1540.43,314.4,1553.92,288.32Z"
      fill="#fffefc"
    />
    <path
      d="M1620.16,80.48A263.36,263.36,0,0,1,1637,270.4c-.28.25-.06.73.3.59,3.37-1.31,7.92-5.23,6-13.14C1626.75,81.6,1626.16,81.72,1620.16,80.48Zm2.27,0A263.36,263.36,0,0,1,1652,270.4c-.12.35.31.65.55.36C1669.26,218.56,1681.17,169,1675.45,63c-.29-.26-.74.14-.53.4Zm2.76-.17A263.36,263.36,0,0,1,1684,270.4a.33.33,0,0,0,.65.11c.92-3.49.4-9.44-7.17-12.53C1677.08,61.9,1676.82,62.44,1677.15,62.68ZM1541.69,170.24a271.32,271.32,0,0,0,167.06-147.36c.18-.36.75-.22.66.18-1.73,8-7.52,9.67-11.12,9.45C1541.32,170.88,1541.33,170.35,1541.69,170.24Z"
      fill="#ccbea7"
      fill-rule="evenodd"
    />
    <path
      d="M2002.56,909.92c-719.36,0-1316.16-267.84-1316.16-598.72,0-164.8,181.28-330.24,522.24-439.68,91.2-31.2,239.68-59.52,416.32-82.24,64.32-8.32,132-15.68,201.6-21.76C1873.28-216.64,1966,28,1966,329.2,1966,642.08,2765.92,909.92,2002.56,909.92ZM2002.56,57.12c-262.4,0-475.52,102.4-522.24,229.6-5.6,24-8.64,48-9.76,71.2,154.24-18.72,323.52-29.92,507.52-34.24C2005.36,321.6,2005.36,186.56,2005.36,57.12Z"
      fill="#fffefc"
    />
  </g>
  <g>
    <path
      d="M4780.8,452.8a8.93,8.93,0,0,1-2.92,4.71,6.81,6.81,0,0,1-4,1.88A6.84,6.84,0,0,1,4772,457.51a8.93,8.93,0,0,1-2.88-4.73.72.72,0,0,1,.8-.81H4780A.72.72,0,0,1,4780.8,452.8Z"
      fill="#b71422"
    />
    <path
      d="M4772,457.89a6.91,6.91,0,0,0,4.12,1.9,6.91,6.91,0,0,0,4.11-1.9,10.63,10.63,0,0,0,1-1.07,6.83,6.83,0,0,0-4.9-2.31,6.15,6.15,0,0,0-5,2.78C4768.64,457.6,4768.84,457.8,4772,457.89Z"
      fill="#ff6164"
    />
    <path
      d="M4772.16,457.08a5.36,5.36,0,0,1,4.19-2.08,6,6,0,0,1,4,1.69c.23-.25.45-.51.66-.77a7,7,0,0,0-4.71-1.93,6.36,6.36,0,0,0-4.89,2.36A9.53,9.53,0,0,0,4772.16,457.08Z"
    />
  </g>
  <g>
    <ellipse cx="3420.48" cy="2627.52" rx="374.4" ry="220.16" fill="#febbd0" />
    <ellipse cx="1475.2" cy="2627.52" rx="374.4" ry="220.16" fill="#febbd0" />
    <path
      d="M1518.08,2526.88a5.51,5.51,0,1,0-5.5-5.51A5.51,5.51,0,0,0,1518.08,2526.88Zm248.32,0a5.51,5.51,0,1,0-5.5-5.51A5.51,5.51,0,0,0,1766.4,2526.88Z"
      fill-rule="evenodd"
    />
    <path
      d="M1472,2422.72a2.07,2.07,0,1,0-2.06-2.07A2.07,2.07,0,0,0,1472,2422.72Zm248.32,0a2.07,2.07,0,1,0-2.06-2.07A2.07,2.07,0,0,0,1720.32,2422.72Z"
      fill="#fff"
      fill-rule="evenodd"
    />
  </g>
</svg>
