<svg viewBox="0 0 1024 1024" xmlns="http://www.w3.org/2000/svg" fill="none">
  <defs>
    <clipPath>
      <rect fill="#fff" height="1024" width="1024" />
    </clipPath>
  </defs>
  <g>
    <g stroke="null">
      <path
        stroke="null"
        fill="#000"
        d="m914.98916,325.54236c-2.07393,-2.20355 -4.27747,-4.40709 -6.48102,-6.48102c-2.20355,-2.07393 -4.27747,-4.40709 -6.48102,-6.48102c-2.20355,-2.07393 -4.27747,-4.40709 -6.48102,-6.48102c-2.20355,-2.07393 -4.27747,-4.40709 -6.48102,-6.48102c-2.20355,-2.07393 -4.27747,-4.40709 -6.48102,-6.48102c-2.20355,-2.07393 -4.27747,-4.40709 -6.48102,-6.48102c-2.20355,-2.07393 -4.27747,-4.40709 -6.48102,-6.48102c64.29431,63.18735 101.12724,149.14512 102.52974,239.27926c0,214.781 -218.02151,389.5093 -486.0765,389.5093c-150.10042,0 -284.38716,-54.82943 -373.69535,-140.76775l6.48102,6.48102l6.48076,6.48102l6.48102,6.48102l6.48102,6.48102l6.48102,6.48102l6.48102,6.48102l6.48102,6.48102c89.17883,89.5677 226.44684,147.24877 380.17663,147.24877c268.05499,0 486.0765,-174.7283 486.0765,-388.8612c0,-91.512 -39.4046,-178.22805 -109.01076,-246.40838z"
      />
      <path
        stroke="null"
        fill="#FBF0DF"
        d="m939.74796,519.45189c0,197.15263 -203.11517,356.97458 -453.6714,356.97458c-250.55623,0 -453.6714,-159.82195 -453.6714,-356.97458c0,-122.23204 77.77224,-230.20583 197.28225,-294.23831c119.51001,-64.03248 193.91212,-129.6204 256.38915,-129.6204c62.47703,0 115.88064,53.53322 256.38915,129.6204c119.51001,64.03248 197.28225,172.00627 197.28225,294.23831z"
      />
      <path
        stroke="null"
        fill="#F6DECE"
        d="m939.74666,519.45059c-0.06351,-25.32653 -3.5516,-50.52862 -10.36963,-74.92059c-35.38637,431.63593 -561.90443,452.37519 -768.90821,323.27328c93.05448,72.12598 207.88649,110.43399 325.60644,108.62189c250.16737,0 453.6714,-160.08119 453.6714,-356.97458z"
      />
      <path
        stroke="null"
        fill="#FFFEFC"
        d="m311.47788,201.49305c57.94032,-34.73827 134.93484,-99.93733 210.63315,-100.06695c-11.6451,-3.76418 -23.79571,-5.73104 -36.03447,-5.83292c-31.36814,0 -64.8102,16.20255 -106.93683,40.57119c-14.64711,8.55495 -29.81269,18.01724 -45.88562,27.86839c-30.20155,18.66534 -64.8102,39.79346 -103.69632,60.92159c-123.39862,66.75451 -197.15263,176.80222 -197.15263,294.49755c0,5.18482 0,10.36963 0,15.42483c78.54996,-277.51728 221.26202,-298.6454 279.07272,-333.38367z"
      />
      <path
        stroke="null"
        fill="#CCBEA7"
        d="m448.74588,128.38766c0.18147,30.60623 -6.24511,60.89126 -18.83903,88.78686c-12.59392,27.89561 -31.06094,52.74384 -54.13726,72.84926c-3.62937,3.24051 -0.77772,9.46229 3.88861,7.6476c43.68207,-16.98027 102.65936,-67.79147 77.77224,-170.32069c-1.03696,-5.83292 -8.68457,-4.27747 -8.68457,1.03696zm29.42383,0c15.86035,25.87781 25.93575,54.8792 29.5379,85.01621c3.60215,30.13674 0.64551,60.69605 -8.66901,89.58195c-1.55544,4.53671 4.01823,8.42533 7.12912,4.66633c28.38687,-36.29371 53.14436,-108.36265 -20.9985,-186.13438c-3.75899,-3.37013 -9.59191,1.81469 -6.9995,6.3514l0,0.51848zm35.77523,-2.20355c24.83656,17.58366 45.61471,40.289 60.93066,66.58418c15.31724,26.29609 24.81712,55.57086 27.85931,85.84889c-0.13092,1.0914 0.16203,2.19188 0.8205,3.072c0.65718,0.88012 1.62933,1.47378 2.71295,1.65655c1.08233,0.18406 2.19577,-0.05703 3.107,-0.67143c0.90994,-0.6157 1.54896,-1.55674 1.78487,-2.63129c11.92508,-45.23752 5.18482,-122.36114 -92.93783,-162.41384c-5.18482,-2.07393 -8.55495,4.92558 -4.27747,8.03646l0,0.51848zm-239.27926,134.8047c29.54308,-8.82585 56.89687,-23.77497 80.28039,-43.87521c23.38222,-20.10024 42.26921,-44.89882 55.43216,-72.78263c2.33317,-4.66633 9.72153,-2.85165 8.55495,2.33317c-22.42433,103.6958 -97.47454,125.34241 -144.13788,122.49076c-4.92558,0.12962 -4.79595,-6.74026 -0.12962,-8.16609z"
        clip-rule="evenodd"
        fill-rule="evenodd"
      />
      <path
        stroke="null"
        fill="#000"
        d="m486.07656,908.96119c-268.05499,0 -486.0765,-174.7283 -486.0765,-389.5093c0,-129.6204 80.10541,-250.55623 214.26252,-323.01404c38.88612,-20.73926 72.19856,-41.60815 101.88163,-59.88462c16.33217,-10.11039 31.757,-19.57268 46.66334,-28.38687c45.49676,-26.96104 84.38288,-44.97828 123.269,-44.97828c38.88612,0 72.84666,15.55445 115.36216,40.70081c12.96204,7.38836 25.92408,15.42483 39.79346,24.23901c32.27548,19.96154 68.69881,42.51549 116.65836,68.30995c134.15711,72.4578 214.26252,193.26402 214.26252,323.01404c0,214.781 -218.02151,389.5093 -486.0765,389.5093zm0,-813.36801c-31.36814,0 -64.8102,16.20255 -106.93683,40.57119c-14.64711,8.55495 -29.81269,18.01724 -45.88562,27.86839c-30.20155,18.66534 -64.8102,39.79346 -103.69632,60.92159c-123.39862,66.75451 -197.15263,176.80222 -197.15263,294.49755c0,196.89339 203.50403,357.1042 453.6714,357.1042c250.16737,0 453.6714,-160.21081 453.6714,-357.1042c0,-117.69532 -73.75401,-227.74304 -197.28225,-294.23831c-48.99651,-25.92408 -87.23453,-50.29271 -118.2138,-69.47653c-14.12862,-8.68457 -27.09066,-16.72103 -38.88612,-23.85015c-39.27498,-23.33167 -67.92109,-36.29371 -99.28923,-36.29371z"
      />
      <path
        stroke="null"
        fill="#B71422"
        d="m577.46024,614.07219c-5.82255,23.84886 -19.07753,45.22845 -37.84916,61.05121c-14.09233,13.66069 -32.3364,22.23508 -51.84816,24.36864c-20.09764,-1.79524 -38.98204,-10.39167 -53.53322,-24.36864c-18.57979,-15.89665 -31.64812,-37.26846 -37.33068,-61.05121c-0.18795,-1.41286 -0.05055,-2.84906 0.40182,-4.1997c0.45238,-1.35064 1.20806,-2.57945 2.20873,-3.59308c1.00067,-1.01363 2.2204,-1.78358 3.56586,-2.2528c1.34416,-0.46923 2.77906,-0.62477 4.19322,-0.45367l159.95157,0c1.40379,-0.15036 2.82313,0.02074 4.15174,0.50033c1.32861,0.4783 2.53019,1.25213 3.5166,2.26317c0.98641,1.01104 1.72914,2.23206 2.17503,3.57234c0.44589,1.33898 0.5807,2.76351 0.39664,4.16341z"
      />
      <path
        stroke="null"
        fill="#FF6164"
        d="m434.2297,676.15258c14.52137,13.98604 33.33707,22.66283 53.4036,24.62788c20.01987,-1.99356 38.78502,-10.66906 53.27398,-24.62788c4.63393,-4.32025 8.96455,-8.95418 12.96204,-13.86938c-7.98591,-9.05917 -17.73855,-16.38791 -28.66166,-21.53773c-10.92311,-5.14982 -22.78338,-8.00924 -34.85233,-8.40459c-12.91408,0.3059 -25.56114,3.74473 -36.85108,10.02225c-11.28864,6.27752 -20.88444,15.20447 -27.95912,26.01222c2.98127,2.72203 5.57368,5.31444 8.68457,7.77722z"
      />
      <path
        stroke="null"
        fill="#000"
        d="m436.30492,665.91257c6.42528,-8.30737 14.65099,-15.04893 24.05884,-19.71786c9.40655,-4.67022 19.75026,-7.14727 30.25211,-7.24319c19.41065,0.57163 37.90619,8.38644 51.84816,21.90585c2.98127,-3.24051 5.83292,-6.61064 8.55495,-9.98077c-16.49031,-15.70481 -38.28338,-24.63436 -61.05121,-25.01674c-12.16876,0.10499 -24.16254,2.9022 -35.12065,8.19071c-10.9594,5.28981 -20.61224,12.93871 -28.26373,22.3997c3.06423,3.32995 6.30992,6.4888 9.72153,9.46229z"
      />
      <path
        stroke="null"
        fill="#000"
        d="m487.24444,707.26666c-21.59994,-1.89246 -41.92701,-11.0281 -57.68108,-25.92408c-20.06524,-16.9699 -34.18738,-39.90364 -40.31194,-65.4583c-0.43941,-2.27484 -0.36553,-4.61967 0.21776,-6.8621c0.58329,-2.24243 1.66044,-4.32673 3.15237,-6.09994c1.7758,-2.14522 4.01953,-3.85621 6.5575,-5.00205c2.53797,-1.14584 5.30536,-1.69543 8.08961,-1.60859l159.95157,0c2.77906,-0.05833 5.53609,0.50422 8.07017,1.64877c2.53538,1.14325 4.7817,2.83869 6.57694,4.96187c1.47638,1.77969 2.53538,3.86787 3.09534,6.1116c0.56126,2.24373 0.61051,4.58467 0.14517,6.85044c-6.12456,25.55466 -20.248,48.4884 -40.31194,65.4583c-15.72166,14.87005 -35.99818,24.00311 -57.55146,25.92408zm-79.97579,-95.9191c-2.07393,0 -2.59241,0.90734 -2.72203,1.16658c5.47905,22.1612 17.87336,42.0009 35.38637,56.64411c12.8052,12.61595 29.45494,20.59927 47.31145,22.68357c17.80855,-2.06096 34.44014,-9.94318 47.31145,-22.42433c17.45728,-14.66784 29.80362,-34.50365 35.25675,-56.64411c-0.28387,-0.41479 -0.67532,-0.74272 -1.13288,-0.94882c-0.45756,-0.2061 -0.96308,-0.28128 -1.45953,-0.21776l-159.95157,-0.25924z"
      />
      <path
        stroke="null"
        fill="#FEBBD0"
        d="m683.3601,622.11383c41.87905,0 75.82793,-19.96284 75.82793,-44.58942c0,-24.62528 -33.94888,-44.58942 -75.82793,-44.58942c-41.87776,0 -75.82793,19.96413 -75.82793,44.58942c0,24.62658 33.95018,44.58942 75.82793,44.58942z"
      />
      <path
        stroke="null"
        fill="#FEBBD0"
        d="m290.99915,622.11383c41.87905,0 75.82793,-19.96284 75.82793,-44.58942c0,-24.62528 -33.94888,-44.58942 -75.82793,-44.58942c-41.87905,0 -75.82793,19.96413 -75.82793,44.58942c0,24.62658 33.94888,44.58942 75.82793,44.58942z"
      />
      <path
        stroke="null"
        fill="#000"
        d="m326.64606,559.6381c14.13122,0.02463 27.95264,-4.14137 39.71439,-11.97433c11.76176,-7.83166 20.93629,-18.97772 26.3622,-32.02531c5.42591,-13.04889 6.85822,-27.41212 4.11674,-41.27502c-2.74018,-13.8629 -9.53228,-26.60199 -19.51565,-36.60221c-9.98336,-10.00151 -22.70949,-16.81695 -36.56721,-19.58305c-13.85772,-2.7661 -28.22484,-1.35972 -41.2828,4.04156c-13.05796,5.40258 -24.21957,14.55637 -32.07327,26.30387c-7.8537,11.74879 -12.04562,25.56244 -12.04562,39.69365c0,18.91939 7.50632,37.06625 20.87277,50.45604c13.36646,13.38979 31.49905,20.92981 50.41845,20.9648zm321.06973,0c14.14677,0.1024 28.00578,-3.99879 39.81939,-11.78379c11.8136,-7.785 21.04776,-18.90384 26.5333,-31.94495c5.48554,-13.04111 6.97358,-27.41731 4.27747,-41.30613c-2.6974,-13.88753 -9.4584,-26.66162 -19.42621,-36.70202c-9.96651,-10.0404 -22.69135,-16.89472 -36.56073,-19.69323c-13.86809,-2.79721 -28.25465,-1.41416 -41.33465,3.97675c-13.08129,5.38962 -24.26623,14.54341 -32.13808,26.29998c-7.87055,11.75527 -12.07284,25.58447 -12.07284,39.73254c-0.035,18.86236 7.40781,36.97033 20.69779,50.35623c13.28868,13.38719 31.34221,20.96091 50.20457,21.06461z"
        clip-rule="evenodd"
        fill-rule="evenodd"
      />
      <path
        stroke="null"
        fill="#fff"
        d="m304.61059,492.75008c5.31184,0.02592 10.51221,-1.52693 14.94134,-4.45894c4.43043,-2.93331 7.8887,-7.11357 9.93929,-12.01451c2.05059,-4.90095 2.60148,-10.29964 1.58007,-15.51297c-1.02011,-5.21333 -3.56586,-10.00669 -7.31318,-13.77217c-3.74733,-3.76547 -8.52773,-6.33325 -13.73587,-7.37929c-5.20815,-1.04604 -10.60943,-0.52237 -15.51945,1.50489c-4.91132,2.02726 -9.10972,5.46609 -12.06377,9.88096c-2.95405,4.41487 -4.53023,9.60746 -4.53023,14.9206c0,7.09283 2.80887,13.8979 7.81222,18.92717c5.00464,5.02798 11.79546,7.86925 18.88958,7.90425zm321.06973,0c5.31184,0.02592 10.51221,-1.52693 14.94134,-4.45894c4.42913,-2.93331 7.8887,-7.11357 9.93929,-12.01451c2.05059,-4.90095 2.60148,-10.29964 1.58007,-15.51297c-1.02011,-5.21333 -3.56586,-10.00669 -7.31318,-13.77217c-3.74733,-3.76547 -8.52773,-6.33325 -13.73587,-7.37929c-5.20815,-1.04604 -10.60943,-0.52237 -15.51945,1.50489c-4.91132,2.02726 -9.10972,5.46609 -12.06377,9.88096c-2.95405,4.41487 -4.53023,9.60746 -4.53023,14.9206c-0.0013,7.04876 2.77258,13.81494 7.72019,18.83644c4.94891,5.0202 11.67361,7.89259 18.72237,7.99499l0.25924,0z"
        clip-rule="evenodd"
        fill-rule="evenodd"
      />
    </g>
  </g>
</svg>
