<svg xmlns="http://www.w3.org/2000/svg" viewBox="0 0 1024 1024"><path fill="#D9D9D9" d="M534 352V136H232v752h560V394H576a42 42 0 0 1-42-42zM445.79 700.83A9.3 9.3 0 0 1 430.79 693.52L430.79 436.45C430.79 428.74 439.73 424.48 445.8 429.24L609.29 557.83A9.27 9.27 0 0 1 609.29 572.33L445.79 700.83Z"/><path d="M854.6 288.6L639.4 73.4c-6-6-14.1-9.4-22.6-9.4H192c-17.7 0-32 14.3-32 32v832c0 17.7 14.3 32 32 32h640c17.7 0 32-14.3 32-32V311.3c0-8.5-3.4-16.7-9.4-22.7zM602 137.8L790.2 326H602V137.8zM792 888H232V136h302v216a42 42 0 0 0 42 42h216v494z"/><path d="M445.79 700.83l163.5-128.5a9.27 9.27 0 000-14.5L445.8 429.24c-6.07-4.76-15.01-.5-15.01 7.21v257.07a9.3 9.3 0 0015 7.3z"/></svg>
