<?xml version="1.0" standalone="no"?>
<svg xmlns="http://www.w3.org/2000/svg"  viewBox="0 0 1024 1024" >
  <path fill="#D9D9D9" d="M888 678 V602 A12 12 0 0 0 882 592 L592 402 V158 A64 64 0 0 0 432 158 V402 L142 592 A12 12 0 0 0 136 602 V678 A10 10 0 0 0 148 688 L436 586 V802 A10 10 0 0 0 442 812 L368 862 A8 8 0 0 0 364 870 V904 A8 8 0 0 0 374 912 L512 868 L650 912 A8 8 0 0 0 660 904 V870 A8 8 0 0 0 656 862 L582 812 A10 10 0 0 0 588 802 V586 L876 688 A10 10 0 0 0 888 678 Z" />
  <path fill="#D9D9D9" d="M888 678 V602 A12 12 0 0 0 882 592 L592 402 V158 A64 64 0 0 0 432 158 V402 L142 592 A12 12 0 0 0 136 602 V678 A10 10 0 0 0 148 688 L436 586 V802 A10 10 0 0 0 442 812 L368 862 A8 8 0 0 0 364 870 V904 A8 8 0 0 0 374 912 L512 868 L650 912 A8 8 0 0 0 660 904 V870 A8 8 0 0 0 656 862 L582 812 A10 10 0 0 0 588 802 V586 L876 688 A10 10 0 0 0 888 678 Z" />
</svg>