<?xml version="1.0" encoding="UTF-8"?>
<svg version="1.1" xmlns="http://www.w3.org/2000/svg" width="512" height="512">
<path d="M0 0 C0.71678925 0.07926224 1.43357849 0.15852448 2.17208862 0.2401886 C4.5244999 0.50287416 6.87553461 0.77600583 9.2265625 1.05078125 C10.42774719 1.18891235 10.42774719 1.18891235 11.65319824 1.32983398 C16.59576074 1.89831865 21.53628272 2.48247459 26.47570801 3.07757568 C28.73707291 3.34951344 30.9988591 3.61766648 33.26074219 3.88525391 C37.21060807 4.35554706 41.15624528 4.8561585 45.1015625 5.36328125 C46.27638184 5.50467529 47.45120117 5.64606934 48.66162109 5.79174805 C58.90377839 7.16492688 66.3313477 10.12635167 72.8515625 18.36328125 C78.33195511 26.04229745 77.40220748 35.37242226 76.8515625 44.36328125 C76.5215625 46.01328125 76.1915625 47.66328125 75.8515625 49.36328125 C85.4215625 50.02328125 94.9915625 50.68328125 104.8515625 51.36328125 C105.5115625 49.71328125 106.1715625 48.06328125 106.8515625 46.36328125 C108.47941787 42.84294554 110.22592877 39.38639192 111.9765625 35.92578125 C112.42515625 34.99701172 112.87375 34.06824219 113.3359375 33.11132812 C116.45086014 26.99894502 119.72140353 22.65586222 125.8515625 19.36328125 C134.19668055 16.85971109 142.00702608 18.61839799 150.06640625 21.234375 C151.98833365 21.81513584 153.91088019 22.39385099 155.83398438 22.97070312 C158.82084843 23.88094571 161.80088083 24.80459883 164.7722168 25.7644043 C176.00690372 29.85362423 176.00690372 29.85362423 187.50439453 29.21923828 C190.23265861 27.45571984 192.45293082 25.53915719 194.8515625 23.36328125 C198.96845343 21.22165293 203.1886248 20.82335223 207.74609375 20.3984375 C208.51812134 20.32050461 209.29014893 20.24257172 210.08557129 20.16227722 C212.61105949 19.90931611 215.13744369 19.66716716 217.6640625 19.42578125 C219.42151397 19.25339666 221.1789192 19.08054015 222.9362793 18.90722656 C226.5131105 18.55580524 230.09036371 18.20917176 233.66796875 17.86572266 C238.41863602 17.40819151 243.16642483 16.92528361 247.9140625 16.4375 C255.55332397 15.6578009 263.19715076 14.97930994 270.8515625 14.36328125 C271.79306152 14.27965332 272.73456055 14.19602539 273.70458984 14.10986328 C284.77950017 13.19696852 292.80615773 15.24798685 302.33642578 20.89404297 C305.36198196 22.66144707 308.42963664 24.3422165 311.50390625 26.0234375 C316.18969693 28.59033667 320.86785693 31.16985881 325.53125 33.77734375 C326.60616699 34.37562988 327.68108398 34.97391602 328.78857422 35.59033203 C330.75046385 36.72593242 332.6837384 37.9134395 334.57470703 39.16357422 C340.34146436 42.97130558 344.11993807 44.16222355 350.9765625 43.23828125 C351.74226563 43.16351563 352.50796875 43.08875 353.296875 43.01171875 C355.15175956 42.82623029 357.00242182 42.59925048 358.8515625 42.36328125 C358.80515625 41.38488281 358.75875 40.40648437 358.7109375 39.3984375 C358.43509032 29.37927381 359.09988848 22.16129649 366.1015625 14.55078125 C374.05131136 6.58135479 384.55055538 6.07644573 395.1015625 4.80078125 C396.75139707 4.59254811 398.40113605 4.38355624 400.05078125 4.17382812 C403.38100409 3.75407366 406.71230058 3.34507795 410.04492188 2.94482422 C413.80535435 2.49305709 417.5621883 2.01799091 421.31829834 1.53175354 C424.49399485 1.12517274 427.67279388 0.74498043 430.8515625 0.36328125 C432.57487793 0.13983032 432.57487793 0.13983032 434.33300781 -0.08813477 C435.92000488 -0.26687134 435.92000488 -0.26687134 437.5390625 -0.44921875 C438.45042969 -0.55878906 439.36179687 -0.66835937 440.30078125 -0.78125 C443.56673962 -0.5961957 445.24295191 0.43015415 447.8515625 2.36328125 C450.20546381 5.89413321 450.51601884 8.89941379 451.00320435 13.0015564 C451.10291845 13.78715647 451.20263256 14.57275655 451.3053683 15.38216269 C451.63848319 18.02259472 451.96007607 20.6643025 452.28173828 23.30615234 C452.51781698 25.1968912 452.75457872 27.08754488 452.99197388 28.9781189 C453.63572978 34.12236368 454.26929131 39.26781726 454.90064859 44.41359663 C455.56314008 49.80266438 456.23346874 55.19075814 456.90255737 60.57901001 C458.02625874 69.6390444 459.14319335 78.69989462 460.25634766 87.76123047 C461.54076115 98.2158304 462.83657851 108.66896926 464.1384393 119.12140977 C465.25685814 128.10346864 466.3690481 137.08628306 467.47611225 146.06974852 C468.13681047 151.43106977 468.79959932 156.79210919 469.46799088 162.15247726 C470.0973604 167.20274548 470.71885884 172.25392377 471.33451462 177.3058815 C471.56075287 179.15197797 471.78963428 180.99775291 472.02146912 182.84315491 C475.04590489 206.95215653 475.04590489 206.95215653 473.8515625 212.36328125 C470.25469692 215.88980431 467.61102798 216.93580283 462.64453125 217.5234375 C461.42967041 217.67586914 460.21480957 217.82830078 458.96313477 217.98535156 C457.66819092 218.13069336 456.37324707 218.27603516 455.0390625 218.42578125 C453.68984751 218.5880676 452.34080822 218.75182093 450.99194336 218.91699219 C448.25751761 219.2499979 445.52226137 219.57437316 442.78613281 219.89306641 C439.20575013 220.32095279 435.63449093 220.78883694 432.0625 221.28125 C399.41069395 225.74821436 399.41069395 225.74821436 389.515625 218.69921875 C382.54096841 213.033721 379.2594738 207.46613008 378.2578125 198.578125 C378.11760692 197.17364691 377.98059893 195.76882951 377.8515625 194.36328125 C373.26750322 194.44408713 368.68478106 194.55694046 364.1015625 194.67578125 C362.79960937 194.69833984 361.49765625 194.72089844 360.15625 194.74414062 C358.90585937 194.77958984 357.65546875 194.81503906 356.3671875 194.8515625 C355.21508789 194.87774658 354.06298828 194.90393066 352.87597656 194.9309082 C349.63290572 195.39454063 348.23019415 196.17095874 345.8515625 198.36328125 C347.13418077 202.21113605 348.91409198 203.20847452 352.1015625 205.67578125 C363.25759961 214.58612258 363.25759961 214.58612258 364.125 221.5625 C364.39632297 228.20991267 363.21484556 232.30940662 358.8515625 237.36328125 C352.83856941 243.40008818 348.63706447 246.64785275 339.9140625 246.67578125 C338.70878906 246.69253906 337.50351562 246.70929688 336.26171875 246.7265625 C332.61662572 246.33825362 330.8948022 245.2844917 327.8515625 243.36328125 C324.03712772 244.63475951 323.05831229 246.33573868 320.6015625 249.48828125 C309.62892004 263.15969661 309.62892004 263.15969661 301.8515625 265.36328125 C294.61163136 266.14448963 288.55043515 265.14207287 281.8515625 262.36328125 C281.2946875 263.06453125 280.7378125 263.76578125 280.1640625 264.48828125 C264.93976264 283.41578918 264.93976264 283.41578918 255.54296875 284.671875 C248.92996991 285.0123258 243.76885745 283.18343884 237.8515625 280.36328125 C237.61050781 280.92144531 237.36945313 281.47960937 237.12109375 282.0546875 C234.53932409 286.74953633 230.48107448 290.46092134 226.8515625 294.36328125 C226.0059375 295.31203125 225.1603125 296.26078125 224.2890625 297.23828125 C218.78935216 302.03290053 214.65318128 303.58824398 207.2890625 303.30078125 C201.85186374 303.10079233 199.61384368 303.67238225 195.5859375 307.171875 C191.54138027 309.95023076 186.37161812 309.7576065 181.6796875 309.0234375 C175.85280896 307.29570026 172.25513272 303.25653003 168.8515625 298.36328125 C167.75649758 295.0780865 167.75195642 292.6266471 167.7890625 289.17578125 C167.79808594 288.08910156 167.80710938 287.00242187 167.81640625 285.8828125 C167.83380859 284.63564453 167.83380859 284.63564453 167.8515625 283.36328125 C167.0678125 283.85828125 166.2840625 284.35328125 165.4765625 284.86328125 C160.14128096 287.07098395 155.18184373 287.33630255 149.60546875 285.70703125 C144.51002324 283.47235571 141.48178842 280.22863478 138.8515625 275.36328125 C137.80179286 272.21397232 137.75024655 269.97513669 137.7890625 266.67578125 C137.79808594 265.68191406 137.80710938 264.68804687 137.81640625 263.6640625 C137.82800781 262.90480469 137.83960938 262.14554687 137.8515625 261.36328125 C137.2946875 261.59144531 136.7378125 261.81960938 136.1640625 262.0546875 C129.88803268 264.41880008 125.41813656 265.11965589 118.97265625 262.640625 C114.30591423 260.31229367 111.28789782 256.95406185 108.8515625 252.36328125 C107.38368193 247.67523768 107.29603905 243.02985159 108.8515625 238.36328125 C107.8821875 238.85828125 106.9128125 239.35328125 105.9140625 239.86328125 C100.8355505 242.00321876 95.95879785 242.3506792 90.67578125 240.671875 C85.35502665 238.27703442 81.48805877 234.99645957 79.03515625 229.55078125 C77.17438944 223.74612503 78.13861541 219.14447769 79.8515625 213.36328125 C81.8315625 210.39328125 83.8115625 207.42328125 85.8515625 204.36328125 C76.2815625 204.03328125 66.7115625 203.70328125 56.8515625 203.36328125 C55.5315625 206.33328125 54.2115625 209.30328125 52.8515625 212.36328125 C48.37922338 217.79397875 42.82153051 222.05382234 35.8515625 223.36328125 C23.54830431 224.22737548 11.34980774 222.46002897 -0.83056641 220.90966797 C-4.16829345 220.48575944 -7.50770258 220.07782812 -10.84765625 219.671875 C-12.98969928 219.40587999 -15.13163081 219.13898517 -17.2734375 218.87109375 C-18.26206787 218.75017365 -19.25069824 218.62925354 -20.26928711 218.50466919 C-33.12489463 216.84993615 -33.12489463 216.84993615 -36.81634903 214.13790131 C-42.1704352 207.0051403 -37.07638278 188.76271511 -36.00878906 180.15820312 C-35.77820619 178.25316772 -35.54826401 176.34805468 -35.31890869 174.44287109 C-34.69824956 169.3061467 -34.06747967 164.17071471 -33.43386555 159.03557396 C-33.03811542 155.82434641 -32.644583 152.61285498 -32.25182343 149.40126038 C-30.8807278 138.19032741 -29.5013562 126.98044831 -28.11425781 115.77148438 C-26.82232835 105.32975169 -25.54878985 94.88588522 -24.2836535 84.44087553 C-23.19481986 75.45824472 -22.09319321 66.47724308 -20.9815824 57.49740267 C-20.31862119 52.14004307 -19.66088125 46.78216806 -19.01605988 41.42259216 C-18.41023342 36.39079202 -17.78853086 31.36120774 -17.15450287 26.33288574 C-16.92459399 24.48770144 -16.70037787 22.6417976 -16.48226929 20.79518127 C-16.1837388 18.27527725 -15.86479678 15.75877541 -15.54058838 13.24206543 C-15.41799129 12.14494712 -15.41799129 12.14494712 -15.29291749 11.02566481 C-14.66846142 6.40379782 -13.47883175 3.64545222 -10.1484375 0.36328125 C-6.41368916 -0.88163486 -3.91615357 -0.44121257 0 0 Z " fill="#F19F5C" transform="translate(38.1484375,101.63671875)"/>
<path d="M0 0 C0.71678925 0.07926224 1.43357849 0.15852448 2.17208862 0.2401886 C4.5244999 0.50287416 6.87553461 0.77600583 9.2265625 1.05078125 C10.42774719 1.18891235 10.42774719 1.18891235 11.65319824 1.32983398 C16.59576074 1.89831865 21.53628272 2.48247459 26.47570801 3.07757568 C28.73707291 3.34951344 30.9988591 3.61766648 33.26074219 3.88525391 C37.21060807 4.35554706 41.15624528 4.8561585 45.1015625 5.36328125 C46.27638184 5.50467529 47.45120117 5.64606934 48.66162109 5.79174805 C58.90377839 7.16492688 66.3313477 10.12635167 72.8515625 18.36328125 C78.33195511 26.04229745 77.40220748 35.37242226 76.8515625 44.36328125 C76.5215625 46.01328125 76.1915625 47.66328125 75.8515625 49.36328125 C85.4215625 50.02328125 94.9915625 50.68328125 104.8515625 51.36328125 C105.5115625 49.71328125 106.1715625 48.06328125 106.8515625 46.36328125 C108.47941787 42.84294554 110.22592877 39.38639192 111.9765625 35.92578125 C112.42515625 34.99701172 112.87375 34.06824219 113.3359375 33.11132812 C116.45086014 26.99894502 119.72140353 22.65586222 125.8515625 19.36328125 C134.19460307 16.85802311 142.30505777 18.64015896 150.453125 20.98828125 C151.4156015 21.25463379 152.378078 21.52098633 153.36972046 21.79541016 C156.40883133 22.63938616 159.44260541 23.50098348 162.4765625 24.36328125 C164.55045268 24.9425838 166.624669 25.52072014 168.69921875 26.09765625 C173.75384699 27.50607713 178.80422802 28.92895468 183.8515625 30.36328125 C183.8515625 34.46040948 183.5602191 35.33741576 181.53515625 38.65234375 C181.02621826 39.49756592 180.51728027 40.34278809 179.99291992 41.21362305 C179.43064697 42.12926025 178.86837402 43.04489746 178.2890625 43.98828125 C177.08450689 45.98611731 175.88144104 47.98485217 174.6796875 49.984375 C174.04869141 51.03093262 173.41769531 52.07749023 172.76757812 53.15576172 C169.62530322 58.41610928 166.58557696 63.73459941 163.5390625 69.05078125 C158.62851209 77.59589217 153.66072057 86.10373739 148.62588501 94.57595825 C147.61116774 96.28460731 146.59890673 97.99471429 145.58666992 99.70483398 C142.55046193 104.83292794 139.49988506 109.95013097 136.3984375 115.0390625 C135.38262199 116.73035434 134.36698418 118.42175293 133.3515625 120.11328125 C132.8884668 120.85698975 132.42537109 121.60069824 131.94824219 122.36694336 C129.27428023 126.8608876 128.21838738 129.98788828 128.8515625 135.36328125 C131.50802316 141.00826015 135.2297636 143.22216644 140.8515625 145.36328125 C151.61948787 148.44165276 165.01565878 147.50711773 175.09375 142.90625 C187.93854076 135.71971693 196.13369701 123.8752772 204.64648438 112.20898438 C205.27748047 111.35369141 205.90847656 110.49839844 206.55859375 109.6171875 C207.1203833 108.84705322 207.68217285 108.07691895 208.26098633 107.28344727 C209.8515625 105.36328125 209.8515625 105.36328125 212.8515625 103.36328125 C213.22925781 103.78738281 213.60695312 104.21148437 213.99609375 104.6484375 C222.86833268 114.10246259 237.51671762 123.73039807 250.93725586 124.47973633 C257.1081023 124.83605988 260.12933276 126.43502185 264.5390625 130.67578125 C265.75213083 131.77786498 266.96568625 132.87941277 268.1796875 133.98046875 C268.78876953 134.54475586 269.39785156 135.10904297 270.02539062 135.69042969 C272.88021486 138.30557082 275.83611962 140.79777087 278.7890625 143.30078125 C284.29576098 148.01209347 289.77301115 152.75701197 295.24584961 157.50756836 C299.43473821 161.14147935 303.63778763 164.75826844 307.8515625 168.36328125 C313.32887079 173.04928541 318.79015371 177.75333176 324.21972656 182.49462891 C327.37750155 185.24673474 330.55900951 187.95734154 333.8046875 190.60546875 C334.76084961 191.3953418 334.76084961 191.3953418 335.73632812 192.20117188 C336.93952979 193.19271084 338.15125672 194.17403665 339.37304688 195.14257812 C344.3230313 199.24901491 346.4620416 203.30275993 347.2890625 209.80078125 C346.24031695 218.34056647 341.27983413 223.94020267 334.8515625 229.36328125 C331.6015625 231.48828125 331.6015625 231.48828125 328.8515625 232.36328125 C320.45639668 229.23949862 313.15215947 220.83977469 306.62890625 214.89453125 C304.22385584 212.82248782 303.12594459 212.38663292 299.9140625 212.11328125 C296.92747083 212.12945162 296.92747083 212.12945162 294.9765625 213.48828125 C293.25884055 216.35115116 293.33574794 218.07496344 293.8515625 221.36328125 C296.78519359 225.47036477 300.27715669 228.80089025 303.8515625 232.36328125 C301.82222931 234.7905406 299.77599037 237.20297586 297.7265625 239.61328125 C296.87191406 240.63615234 296.87191406 240.63615234 296 241.6796875 C292.58206623 245.68022361 289.39005936 248.68708553 284.8515625 251.36328125 C281.08888824 249.78084815 278.55478017 247.39774362 275.6015625 244.61328125 C268.04803534 236.96269209 268.04803534 236.96269209 258.5390625 232.80078125 C255.89813615 233.2112516 255.89813615 233.2112516 253.9765625 234.42578125 C252.11720037 237.62801603 252.30599165 239.72614228 252.8515625 243.36328125 C254.596632 245.96824007 256.61470126 248.17302129 258.8515625 250.36328125 C241.95896867 271.7286186 241.95896867 271.7286186 232.8515625 273.36328125 C228.69323481 273.75098639 224.88212678 273.46901127 220.8515625 272.36328125 C220.75359375 271.71101563 220.655625 271.05875 220.5546875 270.38671875 C219.32967364 263.22672393 217.73097569 258.64281669 211.8515625 253.98828125 C206.92918646 251.44185728 201.22906238 251.5500626 195.8515625 252.36328125 C194.15353403 253.30904924 192.47952883 254.30144162 190.8515625 255.36328125 C190.1915625 255.36328125 189.5315625 255.36328125 188.8515625 255.36328125 C188.89796875 254.58984375 188.944375 253.81640625 188.9921875 253.01953125 C189.22550418 246.28667859 189.14555788 240.81284725 184.8515625 235.36328125 C179.03663068 230.73507021 174.0926072 229.67899008 166.8515625 230.36328125 C162.0560344 232.14985054 158.64520768 235.0212605 154.8515625 238.36328125 C154.88636719 237.41066406 154.92117187 236.45804688 154.95703125 235.4765625 C154.98410156 234.22230469 155.01117188 232.96804688 155.0390625 231.67578125 C155.07386719 230.43441406 155.10867187 229.19304687 155.14453125 227.9140625 C154.8335385 224.14483034 153.95633452 222.42928774 151.8515625 219.36328125 C151.8515625 218.70328125 151.8515625 218.04328125 151.8515625 217.36328125 C145.05706901 213.84021055 139.54448337 212.43423926 131.8515625 213.36328125 C128.44610023 214.96617077 128.44610023 214.96617077 125.8515625 217.36328125 C124.9028125 218.10578125 123.9540625 218.84828125 122.9765625 219.61328125 C122.2753125 220.19078125 121.5740625 220.76828125 120.8515625 221.36328125 C120.89796875 220.66203125 120.944375 219.96078125 120.9921875 219.23828125 C121.23945423 212.73869867 120.92087652 207.63970065 116.8515625 202.36328125 C111.77062461 198.31926946 107.62377029 197.00571141 101.26171875 197.078125 C96.03932022 197.69601008 92.05447698 200.35173953 88.1015625 203.67578125 C87.3590625 204.23265625 86.6165625 204.78953125 85.8515625 205.36328125 C84.5068573 205.07927981 83.17470837 204.73499873 81.8515625 204.36328125 C79.90102486 204.21759722 77.94691185 204.11668658 75.9921875 204.046875 C74.87714844 204.00498047 73.76210937 203.96308594 72.61328125 203.91992188 C71.45441406 203.88060547 70.29554687 203.84128906 69.1015625 203.80078125 C67.92722656 203.75759766 66.75289063 203.71441406 65.54296875 203.66992188 C62.64594799 203.56393331 59.74884315 203.46186487 56.8515625 203.36328125 C56.49239746 204.26167725 56.49239746 204.26167725 56.12597656 205.17822266 C52.83766985 213.03928115 48.11542868 218.67721714 40.2265625 222.36328125 C27.36233345 225.97867521 12.10795174 222.55652822 -0.83056641 220.90966797 C-4.16829345 220.48575944 -7.50770258 220.07782812 -10.84765625 219.671875 C-12.98969928 219.40587999 -15.13163081 219.13898517 -17.2734375 218.87109375 C-18.26206787 218.75017365 -19.25069824 218.62925354 -20.26928711 218.50466919 C-33.12489463 216.84993615 -33.12489463 216.84993615 -36.81634903 214.13790131 C-42.1704352 207.0051403 -37.07638278 188.76271511 -36.00878906 180.15820312 C-35.77820619 178.25316772 -35.54826401 176.34805468 -35.31890869 174.44287109 C-34.69824956 169.3061467 -34.06747967 164.17071471 -33.43386555 159.03557396 C-33.03811542 155.82434641 -32.644583 152.61285498 -32.25182343 149.40126038 C-30.8807278 138.19032741 -29.5013562 126.98044831 -28.11425781 115.77148438 C-26.82232835 105.32975169 -25.54878985 94.88588522 -24.2836535 84.44087553 C-23.19481986 75.45824472 -22.09319321 66.47724308 -20.9815824 57.49740267 C-20.31862119 52.14004307 -19.66088125 46.78216806 -19.01605988 41.42259216 C-18.41023342 36.39079202 -17.78853086 31.36120774 -17.15450287 26.33288574 C-16.92459399 24.48770144 -16.70037787 22.6417976 -16.48226929 20.79518127 C-16.1837388 18.27527725 -15.86479678 15.75877541 -15.54058838 13.24206543 C-15.41799129 12.14494712 -15.41799129 12.14494712 -15.29291749 11.02566481 C-14.66846142 6.40379782 -13.47883175 3.64545222 -10.1484375 0.36328125 C-6.41368916 -0.88163486 -3.91615357 -0.44121257 0 0 Z " fill="#F8C194" transform="translate(38.1484375,101.63671875)"/>
<path d="M0 0 C3.92258838 3.89970527 4.79765107 7.55862021 5.39215088 12.87878418 C5.49357383 13.66609311 5.59499679 14.45340203 5.69949317 15.26456881 C6.03459431 17.89796491 6.34584664 20.5336238 6.65722656 23.16992188 C6.89285979 25.06104824 7.12993636 26.95199523 7.36834717 28.84277344 C8.01144625 33.97775483 8.63370667 39.11506867 9.25187397 44.25310326 C9.90282286 49.63758202 10.57142262 55.01987038 11.23773193 60.40246582 C12.35504001 69.44989332 13.45949479 78.49881646 14.55566406 87.54882812 C15.82034523 97.98932525 17.10198067 108.42762594 18.393574 118.86482573 C19.77092382 129.99621599 21.13617129 141.12906616 22.49771404 152.26239967 C22.88937833 155.45857651 23.28322986 158.65447747 23.6775589 161.85032654 C24.29904685 166.89238839 24.91234132 171.93538493 25.51953888 176.97918701 C25.74259657 178.82205066 25.96825597 180.66460173 26.19682312 182.50679016 C29.18419127 206.62189785 29.18419127 206.62189785 28 212 C24.40333488 215.52670325 21.75939855 216.57252949 16.79296875 217.16015625 C14.97067749 217.38880371 14.97067749 217.38880371 13.11157227 217.62207031 C11.81662842 217.76741211 10.52168457 217.91275391 9.1875 218.0625 C7.83828501 218.22478635 6.48924572 218.38853968 5.14038086 218.55371094 C2.40595511 218.88671665 -0.32930113 219.21109191 -3.06542969 219.52978516 C-6.64581237 219.95767154 -10.21707157 220.42555569 -13.7890625 220.91796875 C-46.44086855 225.38493311 -46.44086855 225.38493311 -56.3359375 218.3359375 C-64.11662002 212.01570672 -67.10248565 204.99943301 -68.24642944 195.13290405 C-68.34299835 194.17381134 -68.43956726 193.21471863 -68.5390625 192.2265625 C-68.65585358 191.1916568 -68.77264465 190.1567511 -68.89297485 189.09048462 C-69.14298728 186.87186423 -69.38720627 184.65258454 -69.62609863 182.43273926 C-70.12749457 177.82948913 -70.67676398 173.23243903 -71.22535706 168.63461304 C-71.65423026 165.03734955 -72.07727789 161.43944285 -72.4987793 157.84130859 C-74.96152419 136.84338697 -77.47437338 115.85756275 -80.28759766 94.90356445 C-81.87310025 83.08383199 -83.33493726 71.2515693 -84.74487305 59.40966797 C-84.89609619 58.1413916 -85.04731934 56.87311523 -85.203125 55.56640625 C-85.33364258 54.46240479 -85.46416016 53.35840332 -85.59863281 52.22094727 C-85.88578171 49.91659486 -86.20109001 47.61568206 -86.53491211 45.31762695 C-87.84800499 35.95089774 -88.55958901 26.08518401 -83 18 C-74.4386853 7.14121857 -63.44696405 5.98774523 -50.5625 4.4375 C-48.90407547 4.22815712 -47.24579131 4.01769932 -45.58764648 3.80615234 C-42.27946085 3.38665383 -38.97036922 2.97593424 -35.66015625 2.57275391 C-31.50959732 2.06615532 -27.36408881 1.52812086 -23.21875 0.98046875 C-21.00012117 0.69437125 -18.78138006 0.40914241 -16.5625 0.125 C-15.06601929 -0.07331421 -15.06601929 -0.07331421 -13.53930664 -0.27563477 C-4.17663331 -1.42370909 -4.17663331 -1.42370909 0 0 Z " fill="#5C9CED" transform="translate(484,102)"/>
<path d="M0 0 C0.71678925 0.07926224 1.43357849 0.15852448 2.17208862 0.2401886 C4.5244999 0.50287416 6.87553461 0.77600583 9.2265625 1.05078125 C10.42774719 1.18891235 10.42774719 1.18891235 11.65319824 1.32983398 C16.59576074 1.89831865 21.53628272 2.48247459 26.47570801 3.07757568 C28.73707291 3.34951344 30.9988591 3.61766648 33.26074219 3.88525391 C37.21060807 4.35554706 41.15624528 4.8561585 45.1015625 5.36328125 C46.27638184 5.50467529 47.45120117 5.64606934 48.66162109 5.79174805 C58.90377839 7.16492688 66.3313477 10.12635167 72.8515625 18.36328125 C81.03135851 29.82464733 76.6761664 46.75257853 74.62695312 59.60766602 C72.89328388 70.59874177 71.60183713 81.62086038 70.3515625 92.67578125 C68.96073832 104.92206018 67.53274565 117.1528976 65.8515625 129.36328125 C63.7718725 144.49809192 62.03427328 159.66934741 60.29829407 174.84674072 C59.91172232 178.21940071 59.52203932 181.59169106 59.13021851 184.96374512 C58.94567062 186.55290634 58.76208415 188.14217954 58.57949829 189.73156738 C58.32495785 191.93495406 58.06388716 194.13746557 57.80078125 196.33984375 C57.65471436 197.58072754 57.50864746 198.82161133 57.3581543 200.10009766 C56.06349631 208.43956686 52.7145816 213.39728515 46.1875 218.69921875 C33.27098478 227.90061588 13.80830331 222.77295496 -0.83056641 220.90966797 C-4.16829345 220.48575944 -7.50770258 220.07782812 -10.84765625 219.671875 C-12.98969928 219.40587999 -15.13163081 219.13898517 -17.2734375 218.87109375 C-18.26206787 218.75017365 -19.25069824 218.62925354 -20.26928711 218.50466919 C-33.12489463 216.84993615 -33.12489463 216.84993615 -36.81634903 214.13790131 C-42.1704352 207.0051403 -37.07638278 188.76271511 -36.00878906 180.15820312 C-35.77820619 178.25316772 -35.54826401 176.34805468 -35.31890869 174.44287109 C-34.69824956 169.3061467 -34.06747967 164.17071471 -33.43386555 159.03557396 C-33.03811542 155.82434641 -32.644583 152.61285498 -32.25182343 149.40126038 C-30.8807278 138.19032741 -29.5013562 126.98044831 -28.11425781 115.77148438 C-26.82232835 105.32975169 -25.54878985 94.88588522 -24.2836535 84.44087553 C-23.19481986 75.45824472 -22.09319321 66.47724308 -20.9815824 57.49740267 C-20.31862119 52.14004307 -19.66088125 46.78216806 -19.01605988 41.42259216 C-18.41023342 36.39079202 -17.78853086 31.36120774 -17.15450287 26.33288574 C-16.92459399 24.48770144 -16.70037787 22.6417976 -16.48226929 20.79518127 C-16.1837388 18.27527725 -15.86479678 15.75877541 -15.54058838 13.24206543 C-15.41799129 12.14494712 -15.41799129 12.14494712 -15.29291749 11.02566481 C-14.66846142 6.40379782 -13.47883175 3.64545222 -10.1484375 0.36328125 C-6.41368916 -0.88163486 -3.91615357 -0.44121257 0 0 Z " fill="#EC5575" transform="translate(38.1484375,101.63671875)"/>
<path d="M0 0 C17.85267547 12.84225156 17.85267547 12.84225156 20 20 C20.91970292 26.25820837 20.32620454 30.92020986 16.62890625 36.11328125 C12.03384831 41.43561454 6.9601181 46.6365565 -0.27734375 47.30078125 C-2.08912109 47.30658203 -2.08912109 47.30658203 -3.9375 47.3125 C-5.14277344 47.32925781 -6.34804688 47.34601563 -7.58984375 47.36328125 C-11.23493678 46.97497237 -12.9567603 45.92121045 -16 44 C-19.81443478 45.27147826 -20.79325021 46.97245743 -23.25 50.125 C-34.22264246 63.79641536 -34.22264246 63.79641536 -42 66 C-49.23993114 66.78120838 -55.30112735 65.77879162 -62 63 C-62.556875 63.70125 -63.11375 64.4025 -63.6875 65.125 C-78.91179986 84.05250793 -78.91179986 84.05250793 -88.30859375 85.30859375 C-94.92159259 85.64904455 -100.08270505 83.82015759 -106 81 C-106.24105469 81.55816406 -106.48210937 82.11632812 -106.73046875 82.69140625 C-109.31223841 87.38625508 -113.37048802 91.09764009 -117 95 C-117.845625 95.94875 -118.69125 96.8975 -119.5625 97.875 C-125.25765621 102.84000798 -130.27068779 104.45414933 -137.80078125 104.3359375 C-140 104 -140 104 -143 102 C-142.63237549 101.52691406 -142.26475098 101.05382812 -141.88598633 100.56640625 C-140.19095459 98.38057427 -138.50171463 96.19033009 -136.8125 94 C-136.23435547 93.25621094 -135.65621094 92.51242187 -135.06054688 91.74609375 C-130.47990927 85.79385279 -126.29644309 79.76270011 -123 73 C-122.23816406 73.04640625 -121.47632813 73.0928125 -120.69140625 73.140625 C-112.2221955 73.43667731 -106.26497597 72.6082707 -99.69140625 67.046875 C-94.59060192 62.12670623 -90.19288605 56.70286431 -86 51 C-86.433125 50.57589844 -86.86625 50.15179688 -87.3125 49.71484375 C-90.32930743 46.53741925 -91.87601259 44.73152573 -92.625 40.3125 C-92 37 -92 37 -90.375 34.5625 C-87.28139932 32.5272364 -85.66117072 32.60419776 -82 33 C-79.359375 34.65234375 -79.359375 34.65234375 -76.75 36.9375 C-75.81027344 37.74960937 -74.87054688 38.56171875 -73.90234375 39.3984375 C-72.94457031 40.25695312 -71.98679687 41.11546875 -71 42 C-70.03191406 42.85851562 -69.06382812 43.71703125 -68.06640625 44.6015625 C-65.69657273 46.71928607 -63.34172892 48.85129863 -61 51 C-55.66877666 49.71641152 -52.80725329 47.22968317 -49.3125 43.1875 C-48.84005859 42.66607422 -48.36761719 42.14464844 -47.88085938 41.60742188 C-45.19332013 38.58818074 -42.95445587 35.53632316 -41 32 C-41.63808594 31.44570313 -42.27617187 30.89140625 -42.93359375 30.3203125 C-43.75988281 29.59585937 -44.58617187 28.87140625 -45.4375 28.125 C-46.26121094 27.40570313 -47.08492188 26.68640625 -47.93359375 25.9453125 C-50.49352453 23.53539657 -50.93208333 22.62483337 -51.3125 19.125 C-51 16 -51 16 -49.375 13.625 C-46.29800379 11.5196868 -44.67966696 11.63020717 -41 12 C-38.578125 13.43359375 -38.578125 13.43359375 -36.25 15.4375 C-34.96996094 16.52417969 -34.96996094 16.52417969 -33.6640625 17.6328125 C-30.16574696 20.74128642 -26.67033159 23.85059064 -23.2265625 27.01953125 C-21.20341936 28.81906384 -19.27578453 30.53159961 -17 32 C-10.60797503 31.12836023 -5.57129423 26.18280547 -1.63671875 21.3125 C1.67179594 16.50011499 2.2888047 12.77609408 2 7 C1.4641037 4.60011655 0.76490828 2.3425316 0 0 Z " fill="#E59F6A" transform="translate(382,301)"/>
<path d="M0 0 C0.4125 0.37511719 0.825 0.75023437 1.25 1.13671875 C11.00616824 9.78225176 17.94254208 12.63504412 31 12 C37.56334184 11.40373936 44.09352456 10.49456432 50.625 9.625 C53.20156456 9.28839764 55.77840231 8.95399829 58.35540771 8.62078857 C60.0554432 8.40038131 61.75519576 8.17778032 63.45465088 7.95294189 C67.65641035 7.40274169 71.85493976 6.90122135 76.07324219 6.49511719 C77.29157242 6.37467545 77.29157242 6.37467545 78.53451538 6.25180054 C80.05847292 6.10458098 81.58340552 5.96698165 83.10928345 5.84121704 C87.6618197 5.39759897 91.04077917 4.28002124 95 2 C96.17797261 9.01524761 97.17099469 16.01011585 97.4375 23.125 C97.49744141 24.67574219 97.49744141 24.67574219 97.55859375 26.2578125 C96.78327403 30.0639275 95.18881079 30.87512668 92 33 C89.05932617 33.77368164 89.05932617 33.77368164 85.79296875 34.16015625 C84.57810791 34.31258789 83.36324707 34.46501953 82.11157227 34.62207031 C80.16915649 34.84008301 80.16915649 34.84008301 78.1875 35.0625 C76.83828501 35.22478635 75.48924572 35.38853968 74.14038086 35.55371094 C71.40595511 35.88671665 68.67069887 36.21109191 65.93457031 36.52978516 C62.35418763 36.95767154 58.78292843 37.42555569 55.2109375 37.91796875 C22.55913145 42.38493311 22.55913145 42.38493311 12.6640625 35.3359375 C3.40150191 27.81198052 1.66133861 19.88638901 0.296875 8.453125 C0.05221426 5.60733425 -0.06532602 2.85256939 0 0 Z " fill="#3580D3" transform="translate(415,285)"/>
<path d="M0 0 C0.75071777 0.4626123 1.50143555 0.92522461 2.27490234 1.40185547 C7.08632945 3.79379401 12.32581982 4.01607975 17.6015625 4.5703125 C18.71558441 4.69687225 19.82960632 4.82343201 20.97738647 4.9538269 C24.52548607 5.35495372 28.07505725 5.74055919 31.625 6.125 C35.18168177 6.51959942 38.73798126 6.91739485 42.29403687 7.31759644 C44.50390667 7.565281 46.71420602 7.80916904 48.92495728 8.04885864 C49.92634735 8.15922455 50.92773743 8.26959045 51.95947266 8.38330078 C52.8385025 8.47862091 53.71753235 8.57394104 54.62319946 8.67214966 C56.81194809 8.97406056 58.86047773 9.46286725 61 10 C70.61892229 10.74318384 78.86593434 10.91277857 87 5 C88.80384435 3.41467361 90.37622166 1.77600756 92 0 C92.66 0 93.32 0 94 0 C94.32644088 9.79322629 94.02759983 19.91032654 88 28 C82.52912756 33.82343978 77.25087451 37.62070739 69.16430664 38.20483398 C57.76742059 38.34399111 46.61094697 36.98380927 35.31787109 35.54638672 C31.98014405 35.12247819 28.64073492 34.71454687 25.30078125 34.30859375 C23.15873822 34.04259874 21.01680669 33.77570392 18.875 33.5078125 C17.39205444 33.32643234 17.39205444 33.32643234 15.87915039 33.14138794 C3.31739659 31.52447882 3.31739659 31.52447882 -0.91796875 28.73828125 C-5.37451574 21.57884656 -1.30850773 7.79263085 0 0 Z " fill="#CC3A60" transform="translate(2,287)"/>
<path d="M0 0 C0.50244141 2.31323242 0.50244141 2.31323242 0.8515625 5.35546875 C0.98046875 6.45310547 1.109375 7.55074219 1.2421875 8.68164062 C1.36851562 9.83857422 1.49484375 10.99550781 1.625 12.1875 C1.82609375 13.89389648 1.82609375 13.89389648 2.03125 15.63476562 C2.62138776 20.79244919 3.07253688 25.80297459 3 31 C2.17798096 31.0093457 1.35596191 31.01869141 0.5090332 31.02832031 C-3.22374962 31.08207871 -6.95528681 31.16571831 -10.6875 31.25 C-11.98107422 31.26417969 -13.27464844 31.27835937 -14.60742188 31.29296875 C-16.47817383 31.34130859 -16.47817383 31.34130859 -18.38671875 31.390625 C-19.53358154 31.41157227 -20.68044434 31.43251953 -21.86206055 31.45410156 C-25.57567621 32.10014876 -27.28579765 33.44807183 -30 36 C-32.7860677 34.70977448 -35.00548039 33.30620729 -37.3125 31.28515625 C-37.91320312 30.76373047 -38.51390625 30.24230469 -39.1328125 29.70507812 C-39.74898438 29.16302734 -40.36515625 28.62097656 -41 28.0625 C-46.35642448 23.35446759 -46.35642448 23.35446759 -52 19 C-49.69388885 12.08166654 -40.08169573 6.65753261 -34 3 C-30.18185658 1.58828947 -27.05812094 1.15664641 -23 1 C-21.24245322 0.82247703 -19.48601506 0.6338218 -17.73046875 0.4375 C-13.95629916 0.02635996 -10.1825868 -0.37895435 -6.40234375 -0.73046875 C-5.60304443 -0.80676514 -4.80374512 -0.88306152 -3.98022461 -0.96166992 C-2 -1 -2 -1 0 0 Z " fill="#D37D42" transform="translate(413,265)"/>
<path d="M0 0 C4.84063945 2.33067825 7.56352878 5.22076799 10 10 C10.65293024 15.22344192 9.845108 18.58517724 7 23 C2.07675067 27.44293232 -0.95185622 28.36182654 -7.45703125 28.27734375 C-11.23091373 27.86575288 -13.24007187 26.55798217 -16 24 C-19.29799116 19.27287934 -19.90379228 14.60351216 -19 9 C-14.80809386 0.61618773 -8.90977866 -1.27282552 0 0 Z " fill="#EBEAEF" transform="translate(52,263)"/>
<path d="M0 0 C4.04457622 2.02228811 6.61677114 4.18411789 9 8 C9.87570205 13.22265547 9.61426036 17.7259785 7.3125 22.5 C3.26154219 26.87941385 0.51474969 28.1935156 -5.4375 28.5 C-9.18276761 28.39904939 -11.60535952 28.1098855 -14.5625 25.75 C-18.91576779 20.83862095 -19.49430092 17.17032413 -19.390625 10.69921875 C-18.77567582 6.44991993 -17.14824467 4.8553847 -14 2 C-9.53353622 -0.97764252 -5.23751281 -0.61441495 0 0 Z " fill="#E8ECF1" transform="translate(469,263)"/>
</svg>
