<?xml version="1.0" encoding="UTF-8"?>
<svg version="1.1" xmlns="http://www.w3.org/2000/svg" width="512" height="512">
<path d="M0 0 C1.18008636 0.14351395 2.36017273 0.28702789 3.57601929 0.43489075 C6.05215515 0.73942836 8.52779181 1.04805053 11.00292969 1.3605957 C14.76816101 1.83137152 18.5360278 2.274421 22.3046875 2.71679688 C24.72417022 3.01783311 27.14344924 3.32051212 29.5625 3.625 C30.67630035 3.75231003 31.79010071 3.87962006 32.93765259 4.01078796 C43.07937503 5.34595425 51.29634362 8.40828057 57.7421875 16.6328125 C63.20193817 24.44328916 62.39508214 31.35424963 62.1484375 40.64453125 C69.7384375 40.97453125 77.3284375 41.30453125 85.1484375 41.64453125 C86.7778125 38.34453125 88.4071875 35.04453125 90.0859375 31.64453125 C94.00190064 24.01387106 97.55017773 17.15245402 105.1484375 12.64453125 C105.756875 12.27585937 106.3653125 11.9071875 106.9921875 11.52734375 C116.20268151 7.11723433 127.27965554 9.33184998 136.7109375 11.83203125 C137.4726123 12.02796875 138.23428711 12.22390625 139.01904297 12.42578125 C143.87140149 13.83282495 147.02374317 15.46795962 150.1484375 19.64453125 C150.4609375 22.45703125 150.4609375 22.45703125 150.1484375 24.64453125 C154.18163361 25.88137806 157.91447776 26.73328256 162.1484375 26.64453125 C164.69494673 24.98644148 166.28232249 23.14616987 168.2265625 20.8203125 C175.86876475 12.16846971 188.05683576 11.43780707 198.8359375 10.51953125 C200.27525635 10.3954187 200.27525635 10.3954187 201.74365234 10.26879883 C222.2776315 8.59181698 222.2776315 8.59181698 226.515625 10.9765625 C228.1484375 12.64453125 228.1484375 12.64453125 228.1484375 15.64453125 C233.0984375 15.31453125 238.0484375 14.98453125 243.1484375 14.64453125 C243.4784375 12.66453125 243.8084375 10.68453125 244.1484375 8.64453125 C249.99465088 4.74705566 257.08060169 5.40113094 263.8984375 5.33203125 C265.30609375 5.28852539 265.30609375 5.28852539 266.7421875 5.24414062 C278.14646333 5.14175417 286.81047442 10.32845142 296.5859375 15.70703125 C297.63072266 16.27123779 298.67550781 16.83544434 299.75195312 17.41674805 C304.72264364 20.12056439 309.60816217 22.88472324 314.37109375 25.94140625 C324.69680052 32.50646489 331.76107773 35.33604658 344.1484375 33.64453125 C344.0865625 31.82115234 344.0865625 31.82115234 344.0234375 29.9609375 C344.03487977 23.46315639 346.70748122 18.37145731 351.015625 13.55859375 C358.67545055 6.49486357 366.35893111 5.04912385 376.44140625 3.8203125 C377.62382401 3.66918503 378.80624176 3.51805756 380.02449036 3.36235046 C382.52098702 3.04572598 385.01813654 2.73421238 387.51586914 2.42749023 C391.30733102 1.96055427 395.09601594 1.4747303 398.88476562 0.98632812 C401.32016998 0.67985493 403.75571298 0.37448102 406.19140625 0.0703125 C407.31056931 -0.07339279 408.42973236 -0.21709808 409.58280945 -0.36515808 C429.25533855 -2.74676834 429.25533855 -2.74676834 432.9259491 -0.04911804 C434.96982148 2.78248593 435.08916683 5.20683213 435.1484375 8.64453125 C433.3984375 11.58203125 433.3984375 11.58203125 431.1484375 13.64453125 C430.1584375 13.64453125 429.1684375 13.64453125 428.1484375 13.64453125 C428.26799773 14.17185915 428.38755796 14.69918705 428.51074123 15.24249458 C430.29278082 23.56541862 431.27045655 31.97239878 432.28735352 40.41357422 C432.4925843 42.09330785 432.69816019 43.77299934 432.90405273 45.45265198 C433.34439712 49.05086009 433.78236216 52.64934674 434.21844673 56.24807358 C434.90800129 61.93809794 435.60314733 67.62743081 436.29905701 73.31668091 C437.64881301 84.35767499 438.99281648 95.39936565 440.33630371 106.44112396 C442.04941144 120.51791969 443.76547073 134.59435441 445.48599762 148.67024529 C446.17727152 154.32717437 446.86590809 159.98441647 447.55247319 165.6419189 C447.97926772 169.15493072 448.40810887 172.66769053 448.83748627 176.1803875 C449.03630295 177.81051545 449.23424856 179.4407499 449.43126488 181.07109642 C449.70000209 183.29401401 449.97181942 185.51653408 450.24440002 187.73898315 C450.39574182 188.9833206 450.54708361 190.22765804 450.70301151 191.50970268 C451.17555576 195.14059054 451.17555576 195.14059054 452.1484375 198.64453125 C454.57226827 199.81406541 454.57226827 199.81406541 457.1484375 200.64453125 C459.70921515 203.2053089 459.46295114 205.07335728 459.609375 208.57421875 C458.91277624 211.70300978 457.7217753 212.74689693 455.1484375 214.64453125 C452.36576616 215.33555097 449.85424199 215.7660806 447.0234375 216.08203125 C446.15541504 216.1905542 445.28739258 216.29907715 444.39306641 216.41088867 C442.29156657 216.67076273 440.18907059 216.92263796 438.0859375 217.16894531 C434.2392199 217.63356621 430.39925645 218.13583644 426.55856323 218.64726257 C422.82555203 219.14130048 419.09053663 219.61892808 415.3550415 220.09378052 C413.4804883 220.33425652 411.60656393 220.57969089 409.7333374 220.83029175 C384.89506897 224.13033646 384.89506897 224.13033646 375 217.1875 C368.40594875 211.69245729 366.3110817 208.29510804 364.1484375 199.64453125 C357.8784375 199.97453125 351.6084375 200.30453125 345.1484375 200.64453125 C346.4065625 201.84078125 347.6646875 203.03703125 348.9609375 204.26953125 C354.61338461 209.93196502 356.690364 214.97218157 357.4609375 222.83203125 C356.59351707 233.41456045 350.86161309 240.65988649 343.1484375 247.64453125 C337.63067594 251.31685659 332.40957406 252.78469535 325.8359375 252.76953125 C324.17111328 252.77339844 324.17111328 252.77339844 322.47265625 252.77734375 C319.1484375 252.64453125 319.1484375 252.64453125 316.16015625 251.6875 C313.20137477 251.33525482 313.20137477 251.33525482 311.49584961 252.90429688 C309.65986382 254.81374301 307.95763147 256.78747205 306.2734375 258.83203125 C300.76403495 265.42474329 295.72134675 269.81580369 287.1484375 271.64453125 C285.37951021 271.73663466 283.60725387 271.77454205 281.8359375 271.76953125 C280.93230469 271.77210938 280.02867187 271.7746875 279.09765625 271.77734375 C276.1484375 271.64453125 276.1484375 271.64453125 272.7265625 270.6875 C269.27355294 270.29035349 269.27355294 270.29035349 267.40942383 271.90429688 C265.56775859 273.80718595 263.88004589 275.77615533 262.2109375 277.83203125 C256.22198647 285.05539801 250.37715789 289.92753622 240.74609375 290.8828125 C236.59128654 291.00444784 233.84154007 290.99815501 230.0859375 289.08203125 C227.61271279 285.97055501 227.37436123 283.56054259 227.1484375 279.64453125 C222.7972381 280.09673442 220.99093122 282.65795521 218.2109375 285.83203125 C217.76637207 286.33162354 217.32180664 286.83121582 216.86376953 287.34594727 C214.64574646 289.852941 212.53974715 292.41196932 210.5234375 295.08203125 C206.98531256 298.89948184 202.73649139 301.3364296 197.5234375 301.95703125 C194.68277755 302.77932755 194.23354718 303.59853264 192.4609375 305.89453125 C187.97096237 311.40753869 182.76768409 314.17620649 175.70703125 315.08984375 C167.10546015 315.36821175 160.32208582 314.52161184 153.89453125 308.55078125 C149.23222995 303.54652225 146.1484375 299.69011274 146.1484375 292.64453125 C144.8696875 292.72703125 143.5909375 292.80953125 142.2734375 292.89453125 C134.48335769 292.84561395 128.35976482 290.1601376 122.7109375 284.83203125 C118.38195354 280.13573956 116.1484375 276.17877444 116.1484375 269.64453125 C115.519375 269.67933594 114.8903125 269.71414063 114.2421875 269.75 C106.54299932 269.99349842 101.32571384 268.82501501 94.9609375 264.45703125 C90.07267501 259.56876876 86.67780057 254.70270549 86.1484375 247.64453125 C85.0346875 247.72703125 83.9209375 247.80953125 82.7734375 247.89453125 C75.12913113 247.86747176 68.1703772 244.50655319 62.6171875 239.359375 C58.02796533 234.00121401 56.00434026 227.73133356 55.9609375 220.76953125 C55.94675781 219.74085938 55.93257813 218.7121875 55.91796875 217.65234375 C56.15262381 214.58989637 56.85659178 212.41204264 58.1484375 209.64453125 C47.05707588 207.64958405 47.05707588 207.64958405 36.64453125 210.18359375 C34.98984108 212.24692204 34.98984108 212.24692204 33.59765625 214.5 C31.07484244 218.23322044 27.35740175 220.22530018 23.1484375 221.64453125 C15.20347623 223.06674791 7.68375858 222.30709501 -0.26953125 221.31640625 C-1.52615067 221.16673401 -2.78277008 221.01706177 -4.07746887 220.862854 C-6.71969604 220.54523377 -9.36095854 220.2233521 -12.00170898 219.89404297 C-15.36880089 219.47477552 -18.73786658 219.07493115 -22.10798168 218.68079758 C-25.35060007 218.29889656 -28.59120528 217.90068736 -31.83203125 217.50390625 C-33.63380074 217.29275177 -33.63380074 217.29275177 -35.4719696 217.07733154 C-41.41158947 216.32384298 -46.56960028 215.54376977 -51.8515625 212.64453125 C-53.44207549 209.46350527 -53.24896628 206.10762135 -52.8515625 202.64453125 C-50.9775474 199.73980784 -49.1020636 199.38999741 -45.8515625 198.64453125 C-42.90838785 180.41876704 -40.76123315 162.09231532 -38.5417304 143.76807356 C-37.99478311 139.25911736 -37.44406425 134.75062209 -36.89358521 130.24209595 C-35.2636964 116.88747712 -33.63931905 103.53218874 -32.01660156 90.17669678 C-30.74863816 79.74134549 -29.47904638 69.30619828 -28.20429909 58.87167323 C-27.54991995 53.51366022 -26.89901445 48.15524013 -26.25072074 42.79648757 C-25.84875484 39.4801432 -25.44372312 36.1641787 -25.03781891 32.84831429 C-24.84986857 31.30769202 -24.66320605 29.76691204 -24.47790146 28.22596931 C-24.22564312 26.12973635 -23.96886077 24.03410666 -23.71090698 21.93856812 C-23.56823835 20.76437002 -23.42556973 19.59017193 -23.2785778 18.38039207 C-22.8515625 15.64453125 -22.8515625 15.64453125 -21.8515625 13.64453125 C-22.4496875 13.56203125 -23.0478125 13.47953125 -23.6640625 13.39453125 C-26.62217024 12.38032288 -27.45328097 11.4410943 -28.8515625 8.64453125 C-28.73329965 5.27404011 -28.63443135 2.73565827 -26.63339233 -0.05329895 C-20.52692347 -4.51593572 -7.10319177 -0.87965612 0 0 Z " fill="#020101" transform="translate(52.8515625,99.35546875)"/>
<path d="M0 0 C1.18008636 0.14351395 2.36017273 0.28702789 3.57601929 0.43489075 C6.05215515 0.73942836 8.52779181 1.04805053 11.00292969 1.3605957 C14.76816101 1.83137152 18.5360278 2.274421 22.3046875 2.71679688 C24.72417022 3.01783311 27.14344924 3.32051212 29.5625 3.625 C30.67630035 3.75231003 31.79010071 3.87962006 32.93765259 4.01078796 C43.07937503 5.34595425 51.29634362 8.40828057 57.7421875 16.6328125 C63.20193817 24.44328916 62.39508214 31.35424963 62.1484375 40.64453125 C69.7384375 40.97453125 77.3284375 41.30453125 85.1484375 41.64453125 C86.7778125 38.34453125 88.4071875 35.04453125 90.0859375 31.64453125 C94.00190064 24.01387106 97.55017773 17.15245402 105.1484375 12.64453125 C105.756875 12.27585937 106.3653125 11.9071875 106.9921875 11.52734375 C116.20268151 7.11723433 127.27965554 9.33184998 136.7109375 11.83203125 C137.4726123 12.02796875 138.23428711 12.22390625 139.01904297 12.42578125 C143.88335045 13.8362898 146.95412639 15.51406559 150.1484375 19.64453125 C150.1484375 23.16666979 150.03986768 25.50782591 147.828125 28.328125 C145.35217217 30.26858105 142.93109687 30.10029957 139.8828125 30.015625 C135.47622202 29.41758772 131.38109669 27.92376913 127.1640625 26.55078125 C122.0673261 25.01911953 118.77120806 24.99887165 113.83984375 26.9609375 C108.52939405 30.0999474 106.5201804 35.70728836 103.9609375 41.08203125 C102.9515681 43.14565942 101.93739221 45.20694493 100.91796875 47.265625 C100.48073486 48.17755615 100.04350098 49.0894873 99.59301758 50.02905273 C98.02074431 52.87572563 96.34575943 55.24621688 94.1484375 57.64453125 C91.1796875 58.16796875 91.1796875 58.16796875 87.6484375 58.01953125 C86.33746094 57.97570312 85.02648437 57.931875 83.67578125 57.88671875 C82.16659496 57.80734145 80.65748487 57.72650728 79.1484375 57.64453125 C77.33729288 57.56261517 75.52609189 57.48193806 73.71484375 57.40234375 C68.8574386 57.18022724 64.00306435 56.92053034 59.1484375 56.64453125 C59.10650269 57.85822388 59.10650269 57.85822388 59.0637207 59.09643555 C58.39798181 72.95574186 56.44149367 86.65108629 54.60988998 100.39518356 C53.77864786 106.65135848 52.96463041 112.90981638 52.1484375 119.16796875 C52.05950415 119.84862585 51.97057079 120.52928295 51.87894249 121.23056602 C50.42889076 132.33668573 49.06937096 143.44977854 47.8359375 154.58203125 C47.72280716 155.60203217 47.72280716 155.60203217 47.60739136 156.64263916 C47.5338443 157.30600281 47.46029724 157.96936646 47.38452148 158.65283203 C46.12442482 170.00449669 44.68379959 181.32705158 43.1484375 192.64453125 C47.70947858 192.92884196 52.27178904 193.16598773 56.8359375 193.39453125 C58.77629883 193.51634766 58.77629883 193.51634766 60.75585938 193.640625 C62.00302734 193.69863281 63.25019531 193.75664062 64.53515625 193.81640625 C66.25545044 193.91066895 66.25545044 193.91066895 68.01049805 194.00683594 C71.86165116 193.56218401 73.32418742 192.21537363 76.1484375 189.64453125 C83.07321815 186.74686234 90.80209807 186.31268442 98.00390625 188.51953125 C105.18418048 191.82180563 109.79028943 196.53956057 113.1484375 203.64453125 C114.18742188 203.598125 115.22640625 203.55171875 116.296875 203.50390625 C125.5268017 203.21135004 133.91126967 203.04365484 141.23828125 209.48046875 C144.72465079 213.20211477 147.00940403 216.58216026 148.1484375 221.64453125 C148.8084375 221.31453125 149.4684375 220.98453125 150.1484375 220.64453125 C158.90148214 219.8308352 166.18656632 219.88441164 173.1484375 225.64453125 C176.80970604 229.20018628 180.21798529 232.86036709 182.1484375 237.64453125 C182.1484375 238.96453125 182.1484375 240.28453125 182.1484375 241.64453125 C183.4478125 241.58265625 184.7471875 241.52078125 186.0859375 241.45703125 C194.91630754 241.52612648 200.85284149 244.36039297 207.1953125 250.4921875 C212.97784404 256.86453726 213.8829471 262.6146514 213.58203125 271.1953125 C212.40238143 280.57937367 206.28539004 287.35838678 200.56640625 294.52734375 C198.53301613 297.14874168 196.75697184 299.76088221 195.0234375 302.58203125 C191.20205468 308.47107446 185.83026393 312.48878871 179.1484375 314.64453125 C171.02108063 315.48867701 162.97579188 315.57175821 156.1484375 310.64453125 C151.71676873 306.52776442 147.9927979 302.49272931 146.1484375 296.64453125 C146.1484375 295.32453125 146.1484375 294.00453125 146.1484375 292.64453125 C144.8696875 292.72703125 143.5909375 292.80953125 142.2734375 292.89453125 C134.48335769 292.84561395 128.35976482 290.1601376 122.7109375 284.83203125 C118.38195354 280.13573956 116.1484375 276.17877444 116.1484375 269.64453125 C115.519375 269.67933594 114.8903125 269.71414063 114.2421875 269.75 C106.54299932 269.99349842 101.32571384 268.82501501 94.9609375 264.45703125 C90.07267501 259.56876876 86.67780057 254.70270549 86.1484375 247.64453125 C85.0346875 247.72703125 83.9209375 247.80953125 82.7734375 247.89453125 C75.12913113 247.86747176 68.1703772 244.50655319 62.6171875 239.359375 C58.02796533 234.00121401 56.00434026 227.73133356 55.9609375 220.76953125 C55.94675781 219.74085938 55.93257813 218.7121875 55.91796875 217.65234375 C56.15262381 214.58989637 56.85659178 212.41204264 58.1484375 209.64453125 C47.05707588 207.64958405 47.05707588 207.64958405 36.64453125 210.18359375 C34.98984108 212.24692204 34.98984108 212.24692204 33.59765625 214.5 C31.07484244 218.23322044 27.35740175 220.22530018 23.1484375 221.64453125 C15.20347623 223.06674791 7.68375858 222.30709501 -0.26953125 221.31640625 C-1.52615067 221.16673401 -2.78277008 221.01706177 -4.07746887 220.862854 C-6.71969604 220.54523377 -9.36095854 220.2233521 -12.00170898 219.89404297 C-15.36880089 219.47477552 -18.73786658 219.07493115 -22.10798168 218.68079758 C-25.35060007 218.29889656 -28.59120528 217.90068736 -31.83203125 217.50390625 C-33.63380074 217.29275177 -33.63380074 217.29275177 -35.4719696 217.07733154 C-41.41158947 216.32384298 -46.56960028 215.54376977 -51.8515625 212.64453125 C-53.44207549 209.46350527 -53.24896628 206.10762135 -52.8515625 202.64453125 C-50.9775474 199.73980784 -49.1020636 199.38999741 -45.8515625 198.64453125 C-42.90838785 180.41876704 -40.76123315 162.09231532 -38.5417304 143.76807356 C-37.99478311 139.25911736 -37.44406425 134.75062209 -36.89358521 130.24209595 C-35.2636964 116.88747712 -33.63931905 103.53218874 -32.01660156 90.17669678 C-30.74863816 79.74134549 -29.47904638 69.30619828 -28.20429909 58.87167323 C-27.54991995 53.51366022 -26.89901445 48.15524013 -26.25072074 42.79648757 C-25.84875484 39.4801432 -25.44372312 36.1641787 -25.03781891 32.84831429 C-24.84986857 31.30769202 -24.66320605 29.76691204 -24.47790146 28.22596931 C-24.22564312 26.12973635 -23.96886077 24.03410666 -23.71090698 21.93856812 C-23.56823835 20.76437002 -23.42556973 19.59017193 -23.2785778 18.38039207 C-22.8515625 15.64453125 -22.8515625 15.64453125 -21.8515625 13.64453125 C-22.4496875 13.56203125 -23.0478125 13.47953125 -23.6640625 13.39453125 C-26.62217024 12.38032288 -27.45328097 11.4410943 -28.8515625 8.64453125 C-28.73329965 5.27404011 -28.63443135 2.73565827 -26.63339233 -0.05329895 C-20.52692347 -4.51593572 -7.10319177 -0.87965612 0 0 Z " fill="#020101" transform="translate(52.8515625,99.35546875)"/>
<path d="M0 0 C5.54565239 1.78892012 9.82310743 2.7486313 15.625 2 C17.74855567 0.17728073 17.74855567 0.17728073 18.625 -2 C23.33903788 -1.52060632 27.29079301 -1.03165952 31.625 1 C30.200794 4.80962064 28.44591117 8.24403968 26.421875 11.76953125 C25.77855225 12.89311035 25.13522949 14.01668945 24.47241211 15.17431641 C23.77340128 16.38711721 23.07426061 17.59984319 22.375 18.8125 C21.6502852 20.07459978 20.92575976 21.33680831 20.20141602 22.59912109 C15.12632321 31.43393968 10.00408055 40.24115072 4.85986328 49.03588867 C-0.18235396 57.65703239 -5.19984331 66.29249276 -10.15869141 74.96191406 C-12.73598975 79.46448098 -15.30861647 83.95274618 -18.09765625 88.328125 C-22.61073574 95.47722097 -25.22616659 101.43990751 -23.375 110 C-20.63317999 117.45626164 -15.20346906 120.74064089 -8.3046875 123.96875 C5.31013928 129.09209945 21.14348768 126.56155416 34.06640625 120.9375 C48.18375423 113.86655005 58.06911052 99.83383422 66.625 87 C70.00029245 88.24445565 72.7682666 89.65760149 75.6875 91.75 C84.07656887 97.38855449 91.7569573 100.9821248 101.6875 102.75 C110.73002049 104.44219496 115.30860233 108.32885925 121.625 115 C123.43427719 116.52893008 125.26792809 118.02949158 127.125 119.5 C131.88095419 123.33719031 136.38004801 127.39385101 140.875 131.53125 C143.56237634 133.94378104 146.31465444 136.2325621 149.125 138.5 C152.90960334 141.55348679 156.54707537 144.70668301 160.125 148 C164.5948512 152.11378909 169.21544893 155.97087297 173.94140625 159.78515625 C177.43335948 162.66716132 180.76051156 165.71174991 184.10546875 168.76171875 C186.65704917 171.02847158 189.27671532 173.17540087 191.9375 175.3125 C193.8390362 176.86805468 195.73441013 178.43115959 197.625 180 C198.2034668 180.47904785 198.78193359 180.9580957 199.37792969 181.45166016 C201.20978132 182.98731202 203.01293591 184.55170337 204.8125 186.125 C205.67838745 186.84296753 205.67838745 186.84296753 206.56176758 187.57543945 C209.50532799 190.20043853 210.574217 191.65572113 211.15625 195.6015625 C210.23305189 201.50731509 206.78301202 205.28465712 202.1875 208.9375 C197.50672543 210.87830897 194.10993982 211.5168004 189.2578125 209.828125 C185.50580169 208.12248492 182.83837647 205.74832912 179.875 202.875 C178.83952777 201.88951722 177.80171566 200.90648787 176.76171875 199.92578125 C176.24270996 199.4354541 175.72370117 198.94512695 175.18896484 198.43994141 C171.18204874 194.75077638 166.88058741 191.39505788 162.625 188 C161.76003906 187.26523437 160.89507812 186.53046875 160.00390625 185.7734375 C157.69311467 183.7542382 157.69311467 183.7542382 154.5 183.5625 C151.69158661 183.81508192 151.69158661 183.81508192 149.75 185.0625 C147.86595186 188.30724958 148.01091227 190.31547364 148.625 194 C152.54582266 199.61596382 158.8783851 203.75549759 164.171875 207.984375 C164.98140625 208.64953125 165.7909375 209.3146875 166.625 210 C167.24890625 210.50015625 167.8728125 211.0003125 168.515625 211.515625 C169.625 213 169.625 213 169.609375 214.8359375 C168.19747034 217.93988664 166.16726325 220.1089359 163.875 222.625 C163.01390625 223.58664062 162.1528125 224.54828125 161.265625 225.5390625 C157.48976136 229.05798868 155.00339433 229.97702676 149.875 230.0625 C142.42961577 228.84948796 137.05991492 222.41364775 131.6875 217.5625 C130.00078816 216.04079258 128.31327877 214.51996877 126.625 213 C125.76390625 212.21238281 124.9028125 211.42476562 124.015625 210.61328125 C119.76607166 206.67640504 119.76607166 206.67640504 114.51171875 204.65625 C111.43299056 205.01320399 109.81085781 205.81414219 107.625 208 C107.42353598 211.693507 107.45146811 214.47940432 108.625 218 C109.94753638 218.687837 111.28338705 219.35015623 112.625 220 C114.32746522 221.43781918 115.99187466 222.92138212 117.625 224.4375 C120.53116522 227.12658885 123.41015916 229.68561226 126.625 232 C124.99973743 235.88770195 122.45741175 238.60395872 119.625 241.6875 C118.738125 242.66074219 117.85125 243.63398438 116.9375 244.63671875 C113.76956237 247.87422258 112.24454005 248.06462557 107.875 248.25 C102.50338399 248.69957248 100.49334943 250.41470053 96.625 254 C95.635 253.67 94.645 253.34 93.625 253 C91.89407429 254.8734012 90.16523837 256.74866282 88.4375 258.625 C87.95474609 259.14707031 87.47199219 259.66914063 86.97460938 260.20703125 C84.56418092 262.82776554 82.2342086 265.46741887 80.01171875 268.25 C76.34375981 272.47625711 72.22990945 274.78292421 66.625 275.25 C65.965 275.1675 65.305 275.085 64.625 275 C67.51447611 269.90436983 71.04206938 265.34330733 74.59765625 260.703125 C81.04201013 252.09894679 82.70293745 244.70503398 81.625 234 C79.92665193 227.33478495 75.23060228 222.7470072 69.625 219 C63.86588203 216.21234183 57.94416229 215.50152082 51.625 215 C51.274375 213.845 50.92375 212.69 50.5625 211.5 C47.95040033 204.6157747 42.92891609 198.71700792 36.19921875 195.5703125 C33.2817535 194.92395449 30.62609223 195.06531071 27.65722656 195.24511719 C24.16229294 195.45554099 21.11836241 195.48467141 17.625 195 C14.56227849 192.10651979 13.27848119 188.81803839 11.625 185 C7.99832684 181.27788807 3.74184917 178.95232348 -1.375 178 C-3.36637233 178.06845972 -5.35800227 178.13979784 -7.34716797 178.25585938 C-16.47435786 178.76097036 -16.47435786 178.76097036 -19.56640625 176.1484375 C-21.01655663 173.82365335 -22.19547086 171.47017335 -23.375 169 C-28.92857495 163.5888244 -34.21757434 161.81816574 -41.8125 161.625 C-47.36902741 161.75927742 -51.40938642 162.51719321 -56.375 165 C-56.82818604 165.52754883 -57.28137207 166.05509766 -57.74829102 166.59863281 C-60.09952455 168.62415892 -61.72295016 168.27167714 -64.77734375 168.109375 C-65.83244141 168.05910156 -66.88753906 168.00882813 -67.97460938 167.95703125 C-69.07611328 167.88871094 -70.17761719 167.82039062 -71.3125 167.75 C-72.41013672 167.69714844 -73.50777344 167.64429688 -74.63867188 167.58984375 C-83.43463738 167.12831048 -83.43463738 167.12831048 -87.375 166 C-87.69028925 158.05471098 -86.61972402 150.3850013 -85.5241394 142.54003906 C-84.93630604 138.32294353 -84.36980707 134.10300362 -83.8046875 129.8828125 C-83.68610886 128.99829407 -83.56753021 128.11377563 -83.44535828 127.20245361 C-82.10999816 117.14940083 -80.95984009 107.07592183 -79.8125 97 C-78.12048147 82.18048477 -76.29757083 67.39073117 -74.26953125 52.61328125 C-73.23727081 45.08392033 -72.30483774 37.5425571 -71.375 30 C-69.82389526 30.0628418 -69.82389526 30.0628418 -68.24145508 30.12695312 C-64.3935517 30.27208974 -60.54588791 30.36370609 -56.69604492 30.43945312 C-55.0322193 30.47961164 -53.36867478 30.53415464 -51.70581055 30.60351562 C-42.58116765 31.36772218 -42.58116765 31.36772218 -34.32177734 28.52636719 C-32.95831396 26.39712299 -32.18092651 24.39390933 -31.375 22 C-30.56189366 20.39066154 -29.72778785 18.7917927 -28.875 17.203125 C-27.61220485 14.71305082 -26.35970318 12.21897614 -25.125 9.71484375 C-19.2666576 -1.7638459 -11.90045543 -3.93437954 0 0 Z " fill="#F7C194" transform="translate(183.375,126)"/>
<path d="M0 0 C0.886875 0.144375 1.77375 0.28875 2.6875 0.4375 C3.15800781 1.4378125 3.62851562 2.438125 4.11328125 3.46875 C6.30983555 6.64715389 6.30983555 6.64715389 9.12524414 6.81811523 C12.28386556 6.77415409 15.41115344 6.59293672 18.5625 6.375 C28.74786407 6.0483051 35.1565843 6.52624389 43.80078125 12.22607422 C46.01035517 13.64479909 48.27474455 14.93382312 50.5625 16.22265625 C51.43745117 16.71580322 52.31240234 17.2089502 53.21386719 17.71704102 C54.11266602 18.22291748 55.01146484 18.72879395 55.9375 19.25 C61.15040109 22.19425473 66.31126422 25.15078488 71.296875 28.46875 C82.90634676 35.95687209 92.12156831 36.50687941 105.6875 34.4375 C105.83445312 35.63632813 105.98140625 36.83515625 106.1328125 38.0703125 C107.40863613 48.40005051 108.71963684 58.72431639 110.08203125 69.04296875 C112.66006111 88.588319 115.17886186 108.13024676 117.3503418 127.7253418 C118.34981214 136.71068374 119.4651356 145.67075116 120.82495117 154.609375 C121.60636747 159.94126269 121.79509993 165.04674335 121.6875 170.4375 C120.7996582 170.45731934 119.91181641 170.47713867 118.99707031 170.49755859 C115.69438666 170.57578232 112.39214936 170.66247885 109.08984375 170.75488281 C107.66219602 170.79310024 106.23445437 170.82796572 104.80664062 170.859375 C102.75096132 170.90518401 100.69592446 170.9631498 98.640625 171.0234375 C97.40473633 171.0548584 96.16884766 171.0862793 94.89550781 171.11865234 C91.92071983 171.41432001 90.19400816 171.87777331 87.6875 173.4375 C82.03957977 168.91479405 76.51107894 164.33857268 71.1875 159.4375 C66.7176488 155.32371091 62.09705107 151.46662703 57.37109375 147.65234375 C53.88199084 144.77269113 50.55753079 141.73056124 47.21484375 138.68359375 C44.61787607 136.37562402 41.95345987 134.18194137 39.25 132 C34.28043077 127.98611716 29.57827094 123.75345347 24.90234375 119.40625 C22.85070879 117.41078212 22.85070879 117.41078212 20.6875 116.4375 C20.6875 115.7775 20.6875 115.1175 20.6875 114.4375 C21.47511719 114.18097656 22.26273438 113.92445313 23.07421875 113.66015625 C39.27062593 107.96745456 55.63529788 96.30371811 64.6875 81.4375 C65.49361894 78.58183681 65.36834804 77.40847327 64.6875 74.4375 C60.89214786 71.90726524 59.18604325 71.7962082 54.6875 72.4375 C52.22907862 74.25321656 50.42225268 76.51444964 48.5 78.875 C40.01673139 88.60826632 30.9095719 95.81243024 18.6875 100.4375 C17.77097656 100.80230469 16.85445312 101.16710937 15.91015625 101.54296875 C5.39313517 104.46223884 -6.62776898 103.27231112 -16.3125 98.4375 C-17.21097656 98.025 -18.10945313 97.6125 -19.03515625 97.1875 C-25.71998185 93.87799422 -30.76610159 89.62909331 -36.09765625 84.51171875 C-38.70029557 82.07432637 -39.64198047 81.51058115 -43.1796875 81.125 C-47.12045622 81.51809414 -47.92467658 82.44182032 -50.4375 85.4375 C-51.20191406 86.34371094 -51.96632813 87.24992187 -52.75390625 88.18359375 C-56.2527008 92.57329145 -59.58627083 97.08967762 -62.93115234 101.59692383 C-74.45899457 117.09587715 -74.45899457 117.09587715 -83.3125 121.4375 C-83.9415625 121.75589844 -84.570625 122.07429688 -85.21875 122.40234375 C-93.25272746 125.75498434 -104.03908336 125.93073787 -112.375 123.5703125 C-117.37535714 121.37464286 -117.37535714 121.37464286 -119.3125 119.4375 C-120.37436988 113.08650679 -116.97257827 108.83937588 -113.75 103.6875 C-112.54790046 101.71189724 -111.34744614 99.73529268 -110.1484375 97.7578125 C-109.20242676 96.20755371 -109.20242676 96.20755371 -108.23730469 94.62597656 C-105.03373324 89.31919789 -101.95803916 83.93989388 -98.875 78.5625 C-97.60989396 76.36428458 -96.34426798 74.16636832 -95.078125 71.96875 C-94.45357422 70.88464844 -93.82902344 69.80054688 -93.18554688 68.68359375 C-88.48365578 60.53495662 -83.74637474 52.4074104 -78.98242188 44.29492188 C-77.31318153 41.43866617 -75.66354333 38.57172357 -74.015625 35.703125 C-72.96930294 33.90592797 -71.92245324 32.10903799 -70.875 30.3125 C-70.41520752 29.50119629 -69.95541504 28.68989258 -69.48168945 27.85400391 C-64.96517252 20.17731081 -60.10788865 15.26101464 -51.32373047 12.98388672 C-44.1824533 11.68810447 -36.89609879 11.32617483 -29.66137695 10.85620117 C-27.52404107 10.71307918 -25.38937525 10.54732877 -23.25390625 10.37890625 C-21.99263916 10.29326416 -20.73137207 10.20762207 -19.43188477 10.11938477 C-16.24753253 9.72062787 -16.24753253 9.72062787 -14.42163086 7.51928711 C-13.33378518 5.4774513 -12.71817963 3.70930591 -12.3125 1.4375 C-10.10967506 1.16337067 -7.90765439 0.90894433 -5.69921875 0.68359375 C-3.79595297 0.48734867 -1.89688339 0.25053177 0 0 Z " fill="#F09E5B" transform="translate(293.3125,113.5625)"/>
<path d="M0 0 C37.58011561 3.8065752 37.58011561 3.8065752 50.5 5.5625 C51.30268311 5.66473877 52.10536621 5.76697754 52.93237305 5.87231445 C58.82668784 6.71805706 63.2817914 8.14614336 67.375 12.5625 C70.72762033 19.65458146 68.90338332 28.1724024 67.875 35.75 C67.74593262 36.74475342 67.61686523 37.73950684 67.48388672 38.7644043 C67.09030381 41.78751683 66.69056426 44.80975417 66.28833008 47.83172607 C65.22551525 55.8242106 64.17479385 63.81829673 63.125 71.8125 C62.99552979 72.7964978 62.86605957 73.78049561 62.73266602 74.79431152 C60.70277087 90.24825348 58.83467977 105.71556223 57.06655884 121.20144653 C55.36991766 136.04726865 53.5282345 150.86454901 51.44775391 165.66210938 C51.12063852 168.10067075 50.82186715 170.5340167 50.54833984 172.97851562 C50.46919846 173.65078186 50.39005707 174.3230481 50.30851746 175.01568604 C50.08678957 176.90832233 49.87642576 178.80227991 49.66674805 180.69628906 C48.71064628 185.43373657 46.99967367 188.09785547 43.4375 191.3125 C34.180569 195.85681158 21.18121926 191.98936549 11.3125 190.625 C9.65437905 190.40043406 7.99617621 190.17647192 6.33789062 189.953125 C3.1045092 189.51672947 -0.12837293 189.07690666 -3.36083984 188.63378906 C-9.90479594 187.73758173 -16.4524789 186.86970659 -23 186 C-22.33547021 175.90616313 -21.21357285 165.89363019 -19.97460938 155.85864258 C-19.76895123 154.17529166 -19.5635394 152.49191064 -19.35835266 150.8085022 C-18.80533545 146.27794949 -18.24863751 141.74785649 -17.69102669 137.21786714 C-17.22509962 133.42991172 -16.7610004 129.64173324 -16.29688978 125.8535549 C-15.20302096 116.92539897 -14.10615059 107.9976154 -13.00732422 99.07006836 C-11.87344533 89.85733473 -10.74444858 80.64401204 -9.61784315 71.43038636 C-8.6489613 63.50795838 -7.67721201 55.58588582 -6.70311022 47.66409796 C-6.12188121 42.93713319 -5.54172525 38.21004305 -4.96427917 33.48261452 C-4.42258692 29.04901275 -3.877321 24.6158652 -3.32924461 20.18304825 C-3.12840682 18.55374158 -2.92884616 16.92427692 -2.73063087 15.29464912 C-2.46076401 13.0776119 -2.18636574 10.86118251 -1.9107666 8.64485168 C-1.75812599 7.40256711 -1.60548538 6.16028254 -1.4482193 4.88035297 C-1 2 -1 2 0 0 Z " fill="#EB5474" transform="translate(31,113)"/>
<path d="M0 0 C1.99951414 8.83566722 3.06280275 17.77272337 4.15478516 26.75317383 C4.36165746 28.43128296 4.56885534 30.10935198 4.77635193 31.78738403 C5.33551774 36.31754776 5.88993387 40.84828085 6.44329882 45.37915635 C7.02414256 50.1296652 7.60884077 54.87969985 8.19296265 59.62980652 C9.1723346 67.59915061 10.14861715 75.56886856 11.12304688 83.53881836 C12.24936062 92.75072855 13.3805565 101.96202931 14.51435435 111.17302114 C15.60638813 120.04563007 16.69500583 128.91865492 17.7820549 137.79187584 C18.2442604 141.56422162 18.70765837 145.33641809 19.17201614 149.10849953 C19.71816139 153.54624734 20.26131446 157.9843514 20.80215645 162.42274857 C21.00106299 164.05108116 21.20099698 165.67928862 21.40203285 167.3073597 C21.6762275 169.52930759 21.94669315 171.75167881 22.21621704 173.97419739 C22.44461242 175.83932086 22.44461242 175.83932086 22.67762184 177.7421236 C22.95319641 180.52701413 23.0664264 183.20540333 23 186 C21.71077637 186.17088135 21.71077637 186.17088135 20.39550781 186.34521484 C13.93203336 187.20421932 7.46978691 188.07043594 1.01037598 188.95953369 C-2.24670886 189.40655695 -5.50464098 189.84721416 -8.76269531 190.28710938 C-10.42840971 190.51339017 -12.09377504 190.74225484 -13.75878906 190.97363281 C-39.62247178 194.56159974 -39.62247178 194.56159974 -45.0625 190.625 C-47.49169092 188.03194601 -48.45515262 186.09162856 -49.07080078 182.60522461 C-49.22768372 181.71906464 -49.38456665 180.83290466 -49.54620361 179.91989136 C-50.38532197 174.52069801 -51.11450941 169.11150641 -51.8046875 163.69140625 C-51.96867035 162.42364853 -52.1326532 161.15589081 -52.30160522 159.84971619 C-52.7403245 156.45451424 -53.17430292 153.05872307 -53.60700989 149.66275024 C-53.87635508 147.55188022 -54.14711924 145.44119686 -54.41833496 143.33056641 C-56.63883328 126.04518315 -58.78256527 108.75450695 -60.70043945 91.43261719 C-61.70821239 82.37563156 -62.84283871 73.34303724 -64.0625 64.3125 C-64.2275 63.09079102 -64.3925 61.86908203 -64.5625 60.61035156 C-64.88461102 58.23123956 -65.20703262 55.85216959 -65.52978516 53.47314453 C-66.28423459 47.90056009 -67.02733226 42.32679689 -67.75 36.75 C-67.87769775 35.80423096 -68.00539551 34.85846191 -68.13696289 33.8840332 C-70.1323412 18.30662096 -70.1323412 18.30662096 -67.3125 12.5625 C-62.81967154 7.58396036 -58.36118412 6.44646626 -51.8671875 5.68359375 C-51.07587433 5.58160172 -50.28456116 5.47960968 -49.4692688 5.37452698 C-46.93907813 5.05135394 -44.40720869 4.7444124 -41.875 4.4375 C-40.22773534 4.22822833 -38.58059824 4.01795009 -36.93359375 3.80664062 C-28.44751693 2.72928822 -19.95138422 1.75323924 -11.4453125 0.84765625 C-10.64116913 0.76164658 -9.83702576 0.6756369 -9.0085144 0.58702087 C-5.99072965 0.27266405 -3.03640381 0 0 0 Z " fill="#5B9BED" transform="translate(481,113)"/>
<path d="M0 0 C4.5537643 3.47409552 8.71988866 7.86934936 10.04296875 13.55859375 C11.03816918 21.16574224 9.68009468 27.36509912 5.04296875 33.55859375 C-1.20598433 38.95392452 -6.83111581 41.00989503 -15.0390625 40.890625 C-20.85177392 40.22920536 -25.08088364 37.81392066 -28.8125 33.328125 C-33.31753938 26.76853085 -34.77252642 21.5008076 -33.95703125 13.55859375 C-31.83992788 6.00714223 -26.11040129 1.07247562 -19.58203125 -2.87890625 C-12.23359513 -4.45357113 -6.44293921 -4.02541158 0 0 Z " fill="#020304" transform="translate(475.95703125,254.44140625)"/>
<path d="M0 0 C6.20839331 2.99314362 9.89699697 7.83213501 12.29296875 14.23046875 C13.49376789 21.5253235 12.39422611 27.72245548 8.15625 33.8828125 C4.62552246 38.43823068 0.90621459 41.08367659 -4.70703125 42.23046875 C-11.93762321 42.90591455 -16.8142545 42.59112355 -22.70703125 38.23046875 C-28.19721471 33.48894667 -31.03697624 28.62336091 -31.70703125 21.30859375 C-31.70703125 15.03704608 -29.60110364 10.12587405 -25.70703125 5.23046875 C-18.20407867 -1.52218857 -9.81784714 -2.79093202 0 0 Z " fill="#020101" transform="translate(56.70703125,252.76953125)"/>
<path d="M0 0 C2.92810762 1.81651121 5.43591638 3.87183276 7 7 C8.17771282 15.09677562 4.68334614 19.62095956 0 26 C-0.43376953 26.59780273 -0.86753906 27.19560547 -1.31445312 27.81152344 C-2.71164819 29.72259545 -4.1315618 31.61408555 -5.5625 33.5 C-6.00891846 34.0995752 -6.45533691 34.69915039 -6.9152832 35.31689453 C-10.51106996 39.92196742 -14.08010918 42.51335153 -20 43.5 C-24.29207923 42.78465346 -25.93089488 41.06910512 -29 38 C-30.41117223 33.7664833 -31.06843752 30.16221347 -29.01171875 26 C-27.43493824 23.58375043 -25.74790892 21.29606971 -24 19 C-23.18339634 17.90379286 -22.36700251 16.8074294 -21.55078125 15.7109375 C-20.68140475 14.55599701 -19.810312 13.40234641 -18.9375 12.25 C-18.5264502 11.70714355 -18.11540039 11.16428711 -17.69189453 10.60498047 C-8.71300365 -1.02505925 -8.71300365 -1.02505925 0 0 Z " fill="#EE9C5A" transform="translate(244,356)"/>
<path d="M0 0 C6.27 0.33 12.54 0.66 19 1 C19.66 2.32 20.32 3.64 21 5 C22.78228936 6.14209817 22.78228936 6.14209817 25 7 C25.845625 7.53625 26.69125 8.0725 27.5625 8.625 C33.45261655 10.98104662 40.02910573 11.12078724 45.9375 8.625 C47.5756174 7.75579485 49.20841156 6.87213177 50.7890625 5.90234375 C53.76698475 4.68697266 56.23356599 4.84490075 59.4375 4.9375 C63.48364804 5.04533477 67.05747453 4.95062764 71 4 C70.55740899 11.00514732 69.84955825 15.42844744 64.4375 20.3125 C55.180569 24.85681158 42.18121926 20.98936549 32.3125 19.625 C30.65437905 19.40043406 28.99617621 19.17647192 27.33789062 18.953125 C24.1045092 18.51672947 20.87162707 18.07690666 17.63916016 17.63378906 C11.09521159 16.73758276 4.54766251 15.86859882 -2 15 C-1.125 2.25 -1.125 2.25 0 0 Z " fill="#C8395E" transform="translate(10,284)"/>
<path d="M0 0 C3.11141288 1.6437653 5.28893717 3.03036886 7.375 5.875 C8.4723127 9.60586318 8.85031341 12.34624084 7.0078125 15.9296875 C5.42928517 18.36436525 3.74064532 20.67799291 2 23 C1.61424805 23.5264209 1.22849609 24.0528418 0.83105469 24.59521484 C-0.43518921 26.32177564 -1.71482889 28.03748889 -3 29.75 C-3.4026709 30.29277588 -3.8053418 30.83555176 -4.22021484 31.39477539 C-7.38120317 35.52257222 -11.00280668 40.06337709 -16.125 41.6640625 C-20.01570428 41.58300616 -21.94228631 41.03252954 -25.4375 39.0625 C-28.25203529 35.69878709 -29.23167248 33.83425902 -29.41015625 29.5078125 C-27.78048736 19.54355129 -16.39657142 7.70088082 -8.87890625 1.15234375 C-5.82989433 -0.71763238 -3.48935562 -0.42112913 0 0 Z " fill="#EE9C5A" transform="translate(213,335)"/>
<path d="M0 0 C0.33951619 1.56116819 0.67132544 3.12401338 1 4.6875 C1.185625 5.55761719 1.37125 6.42773438 1.5625 7.32421875 C1.99035038 9.94098224 2.0310028 12.35507362 2 15 C1.14051758 15.1139209 0.28103516 15.2278418 -0.60449219 15.34521484 C-7.06796664 16.20421932 -13.53021309 17.07043594 -19.98962402 17.95953369 C-23.24670886 18.40655695 -26.50464098 18.84721416 -29.76269531 19.28710938 C-31.42840971 19.51339017 -33.09377504 19.74225484 -34.75878906 19.97363281 C-60.30275451 23.51724662 -60.30275451 23.51724662 -66.0625 19.75 C-70.34440219 15.50907295 -70.5443017 9.74737861 -71 4 C-69.9275 4.33 -68.855 4.66 -67.75 5 C-64.03959419 5.96220115 -60.7606277 6.01926897 -56.9375 5.875 C-53.07447866 5.78808202 -50.64554878 5.79446646 -47.4375 8 C-42.57060788 10.83164633 -38.50507361 10.88232002 -33 10 C-28.43456196 8.38227476 -24.36071175 6.53256148 -21.11328125 2.875 C-18.28220803 0.36314206 -16.36477968 0.40691383 -12.625 0.25 C-11.52414062 0.19328125 -10.42328125 0.1365625 -9.2890625 0.078125 C-6.19102894 0.0045375 -3.09875942 -0.01872362 0 0 Z " fill="#347DCF" transform="translate(502,284)"/>
<path d="M0 0 C0.33 0 0.66 0 1 0 C1.34058393 2.47835631 1.67256479 4.9573995 2 7.4375 C2.09539062 8.12521484 2.19078125 8.81292969 2.2890625 9.52148438 C2.9658061 14.71790843 3.08260534 19.75972349 3 25 C1.6682373 25.029729 1.6682373 25.029729 0.30957031 25.06005859 C-2.99311334 25.13828232 -6.29535064 25.22497885 -9.59765625 25.31738281 C-11.02530398 25.35560024 -12.45304563 25.39046572 -13.88085938 25.421875 C-15.93653868 25.46768401 -17.99157554 25.5256498 -20.046875 25.5859375 C-21.28276367 25.6173584 -22.51865234 25.6487793 -23.79199219 25.68115234 C-26.76678017 25.97682001 -28.49349184 26.44027331 -31 28 C-32.7755291 26.58922306 -34.54525031 25.17113464 -36.3125 23.75 C-37.29863281 22.96109375 -38.28476562 22.1721875 -39.30078125 21.359375 C-41.6018547 19.34801702 -43.30605396 17.5206842 -45 15 C-36.31801976 4.85198362 -27.63030829 3.39734135 -14.70703125 2.3046875 C-9.79506219 1.99289501 -4.92053237 1.92846578 0 2 C0 1.34 0 0.68 0 0 Z " fill="#D07B41" transform="translate(412,259)"/>
<path d="M0 0 C4.69165109 2.97519337 8.84703191 6.31393365 13 10 C11.37473743 13.88770195 8.83241175 16.60395872 6 19.6875 C5.113125 20.66074219 4.22625 21.63398438 3.3125 22.63671875 C0.14456237 25.87422258 -1.38045995 26.06462557 -5.75 26.25 C-11.12161601 26.69957248 -13.13165057 28.41470053 -17 32 C-17.99 31.67 -18.98 31.34 -20 31 C-21.73092571 32.8734012 -23.45976163 34.74866282 -25.1875 36.625 C-25.91163086 37.40810547 -25.91163086 37.40810547 -26.65039062 38.20703125 C-29.06081908 40.82776554 -31.3907914 43.46741887 -33.61328125 46.25 C-37.28124019 50.47625711 -41.39509055 52.78292421 -47 53.25 C-47.66 53.1675 -48.32 53.085 -49 53 C-46.11052389 47.90436983 -42.58293062 43.34330733 -39.02734375 38.703125 C-34.63603179 32.84006543 -31.7746603 27.54949686 -31.3125 20.0625 C-31.24675781 19.10472656 -31.18101562 18.14695312 -31.11328125 17.16015625 C-31.07589844 16.44730469 -31.03851563 15.73445313 -31 15 C-30.67 15 -30.34 15 -30 15 C-30 17.64 -30 20.28 -30 23 C-18.5989623 20.17841522 -13.33013722 15.86328408 -6.11328125 6.62109375 C-4.19664251 4.24389486 -2.20125544 2.11181391 0 0 Z " fill="#E29D69" transform="translate(297,348)"/>
<path d="M0 0 C3.8615565 2.99467647 5.74807729 5.23654103 6.4375 10.0625 C5.82507249 15.57434763 3.31736594 18.67269602 0 23 C-0.66128906 23.88816406 -1.32257813 24.77632813 -2.00390625 25.69140625 C-5.34194147 30.0428867 -8.02107492 33.49463035 -13 36 C-16.88117651 36.39603842 -19.85296582 36.4127262 -23 34 C-26.12741752 29.48261913 -27.89038177 26.6152544 -27 21 C-25.01935075 17.52568403 -22.62929097 14.41109689 -20.1875 11.25 C-19.22360352 9.95642578 -19.22360352 9.95642578 -18.24023438 8.63671875 C-12.87247885 1.5279192 -9.21125668 -1.48379095 0 0 Z " fill="#ED9C5A" transform="translate(181,318)"/>
<path d="M0 0 C3.58552881 1.63687185 4.79315055 2.68972583 7 6 C8.13711422 10.47389202 7.60841416 13.89513168 5.38671875 17.9296875 C2.06906296 22.64063376 -0.74902739 26.40806623 -6 29 C-10.37577501 29.55691682 -12.46511022 29.28725562 -16.375 27.1875 C-19.77904605 24.35079496 -19.91218898 22.727577 -20.4375 18.375 C-20.35698409 12.12926594 -16.46550289 7.84990926 -12.546875 3.3203125 C-8.46829833 -0.64621536 -5.35836309 -0.68042706 0 0 Z " fill="#EE9C5A" transform="translate(145,302)"/>
<path d="M0 0 C9.80952381 7.14285714 9.80952381 7.14285714 12 10 C11.73092245 14.19389833 8.96958067 16.63989814 6.25 19.625 C5.38890625 20.58664062 4.5278125 21.54828125 3.640625 22.5390625 C-0.2115318 26.12909028 -2.63313955 27.02204614 -7.875 26.9375 C-12.54317609 26.22751124 -15.38442505 23.93765465 -19 21 C-18.30261719 20.4740625 -17.60523438 19.948125 -16.88671875 19.40625 C-13.58107406 16.65080057 -10.71680629 13.66637595 -7.8125 10.5 C-7.27947266 9.93152344 -6.74644531 9.36304688 -6.19726562 8.77734375 C-3.6475268 6.01272128 -1.41586594 3.544008 0 0 Z " fill="#E09B68" transform="translate(341,329)"/>
<path d="M0 0 C3.99782522 2.17024798 7.15431649 4.4225693 10 8 C10.75810209 11.65267369 10.64777142 13.83529841 8.8203125 17.12109375 C5.13785152 22.32042337 1.88476645 25.25209759 -4.375 26.875 C-8.75323153 27.0259735 -11.19130019 26.12408259 -15 24 C-16.703125 21.88671875 -16.703125 21.88671875 -18 20 C-17.34773438 19.6596875 -16.69546875 19.319375 -16.0234375 18.96875 C-8.52967651 14.81291794 -3.78872947 10.55312956 -0.625 2.5 C-0.315625 1.2625 -0.315625 1.2625 0 0 Z " fill="#E09B68" transform="translate(384,310)"/>
<path d="M0 0 C1.875 1.1875 1.875 1.1875 3 3 C3.54068562 6.63031776 3.46379841 8.32214079 1.375 11.375 C-1.71186432 13.48706506 -3.3282913 13.61195145 -7 13 C-9.4375 11.4375 -9.4375 11.4375 -11 9 C-11 5.18846501 -10.80074051 2.94902579 -8.3125 0 C-5.12832007 -1.37694267 -3.29075199 -0.980224 0 0 Z " fill="#DEE1E5" transform="translate(51,267)"/>
<path d="M0 0 C4.30169173 1.40272556 4.30169173 1.40272556 5.875 3.9375 C6.41568562 7.56781776 6.33879841 9.25964079 4.25 12.3125 C1.16313568 14.42456506 -0.4532913 14.54945145 -4.125 13.9375 C-7.21384321 11.82408096 -7.99608765 10.62503254 -8.6875 6.9375 C-8.125 3.9375 -8.125 3.9375 -6 1.5 C-3.125 -0.0625 -3.125 -0.0625 0 0 Z " fill="#DEE1E5" transform="translate(465.125,266.0625)"/>
</svg>
