<svg viewBox="0 0 1024 1024" xmlns="http://www.w3.org/2000/svg">
  <g>
    <path
      stroke="null"
      fill="#cb3837"
      d="m0,301.625l1024,0l0,360.6075l-512,0l0,60.1425l-227.59226,0l0,-60.1425l-284.40774,0l0,-360.6075zm56.89806,300.5475l113.79613,0l0,-180.345l56.89806,0l0,180.345l56.89806,0l0,-240.405l-227.59226,0l0,240.405zm284.40774,-240.405l0,300.465l113.79613,0l0,-60.06l113.79613,0l0,-240.405l-227.59226,0zm113.79613,60.1425l56.89806,0l0,120.12l-56.89806,0l0,-120.12zm170.69419,-60.1425l0,240.405l113.79613,0l0,-180.345l56.89806,0l0,180.345l56.89806,0l0,-180.345l56.89806,0l0,180.345l56.89806,0l0,-240.405l-341.38839,0z"
    />
  </g>
</svg>
