<svg viewBox="0 0 1024 1024" xmlns="http://www.w3.org/2000/svg">
  <g>
    <path
      stroke="null"
      d="m512.57137,0c283.00272,0 512.57137,229.56864 512.57137,512.57137s-229.56864,512.57137 -512.57137,512.57137s-512.57137,-229.56864 -512.57137,-512.57137s229.56864,-512.57137 512.57137,-512.57137z"
      fill="#2C8EBB"
    />
    <path
      stroke="null"
      d="m874.09851,673.25601c-3.69534,-29.15213 -28.33095,-49.27121 -59.94664,-48.86062c-47.21824,0.61589 -86.84051,25.0462 -113.11849,41.26464c-10.26484,6.3642 -19.09259,11.08602 -26.68857,14.57607c1.64237,-23.81442 0.2053,-55.01952 -12.11251,-89.30407c-14.98666,-41.05934 -35.10574,-66.31084 -49.47651,-80.88691c16.62903,-24.22501 39.41697,-59.53605 50.0924,-114.14497c9.23835,-46.60235 6.3642,-119.0721 -14.78136,-159.72085c-4.31123,-8.21187 -11.49662,-14.16547 -20.52967,-16.62903c-3.69534,-1.02648 -10.67543,-3.07945 -24.43031,0.82119c-20.73497,-42.90701 -27.92035,-47.42354 -33.46336,-51.11888c-11.49662,-7.39068 -25.0462,-9.03306 -37.7746,-4.31123c-17.03963,6.1589 -31.61569,22.58264 -45.37057,51.73477c-2.05297,4.31123 -3.90064,8.41717 -5.54301,12.5231c-26.07268,1.84767 -67.13203,11.29132 -101.82717,48.86062c-4.31123,4.72182 -12.7284,8.21187 -21.55616,11.49662l0.2053,0c-18.06611,6.3642 -26.27798,21.14556 -36.33752,47.83414c-13.96018,37.364 0.41059,74.11211 14.57607,97.92653c-19.29789,17.24492 -44.95998,44.75468 -58.50956,76.98627c-16.83433,39.82756 -18.682,78.83394 -18.06611,99.9795c-14.37077,15.19196 -36.54282,43.7282 -39.00638,75.75449c-3.28475,44.75468 12.93369,75.1386 20.11908,86.22462c2.05297,3.28475 4.31123,5.9536 6.77479,8.62246c-0.82119,5.54301 -1.02648,11.49662 0.2053,17.65552c2.66886,14.37077 11.70191,26.07268 25.45679,33.46336c27.09917,14.37077 64.87376,20.52967 94.0259,5.9536c10.47013,11.08602 29.56273,21.76145 64.25787,21.76145l2.05297,0c8.82776,0 120.91977,-5.9536 153.56194,-13.96018c14.57607,-3.49004 24.63561,-9.64895 31.2051,-15.19196c20.94027,-6.56949 78.83394,-26.27798 133.44287,-61.58902c38.59578,-25.0462 51.94007,-30.38391 80.68161,-37.364c27.92035,-6.77479 45.37057,-32.23158 41.88053,-60.35723zm-48.86062,30.17862c-32.84747,7.80128 -49.47651,14.98666 -90.12526,41.46994c-63.43669,41.05934 -132.82698,60.15194 -132.82698,60.15194s-5.74831,8.62246 -22.37734,12.5231c-28.74154,6.98009 -136.93291,12.93369 -146.78715,13.13899c-26.48328,0.2053 -42.70172,-6.77479 -47.21824,-17.65552c-13.75488,-32.84747 19.70848,-47.21824 19.70848,-47.21824s-7.39068,-4.51653 -11.70191,-8.62246c-3.90064,-3.90064 -8.00657,-11.70191 -9.23835,-8.82776c-5.13242,12.5231 -7.80128,43.11231 -21.55616,56.86719c-18.8873,19.09259 -54.60893,12.7284 -75.75449,1.64237c-23.19853,-12.3178 1.64237,-41.26464 1.64237,-41.26464s-12.5231,7.39068 -22.58264,-7.80128c-9.03306,-13.96018 -17.45022,-37.7746 -15.19196,-67.13203c2.46356,-33.46336 39.82756,-65.90025 39.82756,-65.90025s-6.56949,-49.47651 14.98666,-100.1848c19.50319,-46.19176 72.05915,-83.35047 72.05915,-83.35047s-44.13879,-48.86062 -27.71506,-92.79412c10.67543,-28.74154 14.98666,-28.53624 18.4767,-29.76802c12.3178,-4.72182 24.22501,-9.85424 33.05277,-19.50319c44.13879,-47.62884 100.39009,-38.59578 100.39009,-38.59578s26.68857,-81.0922 51.32418,-65.28436c7.59598,4.92712 34.90044,65.69495 34.90044,65.69495s29.15213,-17.03963 32.43688,-10.67543c17.65552,34.28455 19.70848,99.7742 11.90721,139.60177c-13.13899,65.69495 -45.98646,101.00598 -59.12545,123.17803c-3.07945,5.13242 35.31104,21.35086 59.53605,88.48289c22.37734,61.38372 2.46356,112.91319 5.9536,118.6615c0.61589,1.02648 0.82119,1.43708 0.82119,1.43708s25.66209,2.05297 77.19157,-29.76802c27.50976,-17.03963 60.15194,-36.13222 97.31064,-36.54282c35.92693,-0.61589 37.7746,41.46994 10.67543,48.03943z"
      fill="#fff"
    />
  </g>
</svg>
