<svg xmlns="http://www.w3.org/2000/svg" viewBox="0 0 16 16" fill="currentColor" fill-rule="evenodd"><g transform="translate(-1168 -2716) translate(1168 2716)"><path d="M1.844 7c1.443-.309 1.246-2.032 1.202-2.409-.07-.58-.754-1.596-1.681-1.515C.197 3.18.026 4.866.026 4.866-.13 5.646.405 7.31 1.844 7m1.324 3.347c.16.604.686.631.686.631h.756V9.134H3.8a.89.89 0 0 0-.578.512c-.043.122-.136.431-.055.7m2.641-8.299C5.81.917 5.167 0 4.37 0c-.796 0-1.441.917-1.441 2.048 0 1.133.645 2.05 1.44 2.05.799 0 1.441-.917 1.441-2.05m3.877.142C9.824 1.332 9.138.333 8.384.162 7.628-.012 6.685 1.197 6.6 1.986c-.103.964.137 1.926 1.2 2.063 1.066.139 1.75-.998 1.886-1.859m.724 6.766S8.762 7.682 7.8 6.306c-1.303-2.03-3.156-1.204-3.775-.172-.617 1.032-1.578 1.686-1.714 1.858-.139.17-1.99 1.169-1.58 2.993.411 1.823 1.856 1.789 1.856 1.789s1.064.105 2.298-.171c1.235-.274 2.298.069 2.298.069s2.884.964 3.673-.894c.787-1.859-.446-2.822-.446-2.822M3.6 11.721c-.81-.161-1.132-.713-1.174-.807-.04-.096-.27-.54-.147-1.295.35-1.131 1.347-1.213 1.347-1.213h.998V7.18l.85.013.001 4.528zm3.21-.013c-.838-.214-.876-.809-.876-.809V8.515l.875-.014v2.142c.054.228.339.27.339.27h.888V8.516h.932v3.193zm5.06-6.214c0-.412-.343-1.652-1.612-1.652-1.273 0-1.442 1.17-1.442 1.998 0 .79.067 1.892 1.646 1.856 1.581-.034 1.407-1.788 1.407-2.202" transform="translate(2.063 1.547)"/></g></svg>