<?xml version="1.0" standalone="no"?>
<svg xmlns="http://www.w3.org/2000/svg" viewBox="0 0 1024 1024" fill="currentColor" fillRule="evenodd"><path d="M799.855 166.312c.023.007.043.018.084.059l57.69 57.69c.041.041.052.06.059.084a.118.118 0 0 1 0 .069c-.007.023-.018.042-.059.083L569.926 512l287.703 287.703c.041.04.052.06.059.083a.118.118 0 0 1 0 .07c-.007.022-.018.042-.059.083l-57.69 57.69c-.041.041-.06.052-.084.059a.118.118 0 0 1-.069 0c-.023-.007-.042-.018-.083-.059L512 569.926 224.297 857.629c-.04.041-.06.052-.083.059a.118.118 0 0 1-.07 0c-.022-.007-.042-.018-.083-.059l-57.69-57.69c-.041-.041-.052-.06-.059-.084a.118.118 0 0 1 0-.069c.007-.023.018-.042.059-.083L454.073 512 166.371 224.297c-.041-.04-.052-.06-.059-.083a.118.118 0 0 1 0-.07c.007-.022.018-.042.059-.083l57.69-57.69c.041-.041.06-.052.084-.059a.118.118 0 0 1 .069 0c.023.007.042.018.083.059L512 454.073l287.703-287.702c.04-.041.06-.052.083-.059a.118.118 0 0 1 .07 0Z"/></svg>
