<?xml version="1.0" standalone="no"?>
<svg xmlns="http://www.w3.org/2000/svg" viewBox="0 0 1024 1024" fill="currentColor" fillRule="evenodd">
  <path d="M880 112H144c-17.7 0-32 14.3-32 32v736c0 17.7 14.3 32 32 32h360c4.4 0 8-3.6 8-8v-56c0-4.4-3.6-8-8-8H184V184h656v320c0 4.4 3.6 8 8 8h56c4.4 0 8-3.6 8-8V144c0-17.7-14.3-32-32-32ZM770.87 824.869l-52.2 52.2c-4.7 4.7-1.9 12.8 4.7 13.6l179.4 21c5.1.6 9.5-3.7 8.9-8.9l-21-179.4c-.8-6.6-8.9-9.4-13.6-4.7l-52.4 52.4-256.2-256.2c-3.1-3.1-8.2-3.1-11.3 0l-42.4 42.4c-3.1 3.1-3.1 8.2 0 11.3l256.1 256.3Z" transform="matrix(1 0 0 -1 0 1024)"/>
</svg>
