<?xml version="1.0" encoding="UTF-8"?>
<svg version="1.1" xmlns="http://www.w3.org/2000/svg" width="512" height="512">
<path d="M0 0 C4.45926512 1.50983843 8.71380109 3.39177886 12.9453125 5.44921875 C13.6062793 5.76930908 14.26724609 6.08939941 14.94824219 6.41918945 C19.03075314 8.53796773 21.61095684 10.56832768 24.0703125 14.44921875 C24.35646167 17.21055828 24.45621133 19.53067487 24.3203125 22.26171875 C24.30226562 22.95458984 24.28421875 23.64746094 24.265625 24.36132812 C24.21882314 26.05789539 24.14708874 27.75374351 24.0703125 29.44921875 C34.96322573 29.50404469 45.85525795 29.51544497 56.74825001 29.4725647 C61.8073278 29.45398935 66.86551928 29.44994645 71.92456055 29.47998047 C76.813954 29.50845826 81.70187318 29.49763191 86.59119225 29.4604187 C88.44933466 29.45301565 90.30758847 29.45938618 92.16562843 29.48025513 C103.96103525 29.6017635 111.05342281 28.79964038 120.0703125 20.44921875 C136.63360537 9.87024475 155.48522049 7.1205808 174.64135742 10.83911133 C190.09350988 14.25048374 204.71034244 21.52293749 219.15039062 27.7878418 C231.99549517 33.33851061 245.01431479 38.41753199 258.0703125 43.44921875 C258.18246094 42.56169922 258.18246094 42.56169922 258.296875 41.65625 C258.99425739 37.4651186 259.63867212 34.95791229 262.43359375 31.6640625 C267.15864781 28.33501476 272.80949992 26.76067938 278.2578125 25.01171875 C279.44963135 24.62411377 280.6414502 24.23650879 281.86938477 23.8371582 C316.15817964 12.97817639 352.3745062 8.52973222 388.2578125 8.07421875 C389.44632812 8.04811523 390.63484375 8.02201172 391.859375 7.99511719 C398.19009474 7.98230937 402.32874857 8.04341323 407.0703125 12.44921875 C408.63181759 15.57222893 408.22201534 18.89595152 408.22421265 22.32478333 C408.2285949 23.14784192 408.23297715 23.97090052 408.2374922 24.81890029 C408.25090762 27.59256664 408.25706518 30.3662012 408.26318359 33.13989258 C408.27108233 35.12219894 408.27935114 37.10450386 408.28796387 39.08680725 C408.31420797 45.60994081 408.32949277 52.13308088 408.34375 58.65625 C408.34910849 60.89918205 408.35448599 63.14211405 408.35988235 65.38504601 C408.38151358 74.71236139 408.40025179 84.03967503 408.41150475 93.36700916 C408.42775355 106.74864466 408.46095131 120.12999022 408.51790559 133.51151639 C408.55655979 142.91283103 408.57613202 152.31406796 408.58142531 161.71546 C408.58508464 167.33447914 408.59716793 172.95318922 408.62952805 178.57212257 C408.65952941 183.85728371 408.6659488 189.14194748 408.65414429 194.42717552 C408.65392289 196.36822739 408.66228198 198.30930181 408.67979813 200.25027466 C408.70239696 202.89835416 408.69423875 205.54461595 408.67831421 208.19270325 C408.6921963 208.96274636 408.70607838 209.73278947 408.72038114 210.52616721 C408.6608671 214.53639406 408.22944475 216.25443955 405.65731239 219.40275097 C401.62221685 222.59474686 399.45696367 222.58960704 394.32910156 222.64208984 C393.2897345 222.65435608 393.2897345 222.65435608 392.22937012 222.66687012 C389.93156803 222.69172272 387.63382781 222.70824127 385.3359375 222.72265625 C384.55091606 222.72797993 383.76589462 222.7333036 382.95708466 222.7387886 C378.80050126 222.76552194 374.6439479 222.78489462 370.48730469 222.79931641 C366.19864227 222.81594856 361.91075067 222.8607128 357.6223793 222.91168785 C354.32117862 222.94538638 351.02016014 222.9568967 347.71880341 222.96254349 C346.13836539 222.96925079 344.55793915 222.98445951 342.97766876 223.0084343 C340.76084642 223.04014245 338.54609219 223.04011545 336.32910156 223.03271484 C334.43952728 223.04484512 334.43952728 223.04484512 332.51177979 223.05722046 C327.93306764 222.24830247 326.33127257 220.71863633 323.0703125 217.44921875 C321.828125 214.7734375 321.828125 214.7734375 321.1953125 212.13671875 C320.97101563 211.25371094 320.74671875 210.37070312 320.515625 209.4609375 C320.36867188 208.79707031 320.22171875 208.13320313 320.0703125 207.44921875 C316.78234878 207.44921875 314.67854614 209.57545839 312.0078125 211.38671875 C310.92371094 212.11761719 309.83960938 212.84851563 308.72265625 213.6015625 C306.25785881 215.2029967 306.25785881 215.2029967 305.0703125 216.44921875 C304.93611582 218.59338354 304.83869441 220.73988166 304.7578125 222.88671875 C303.92815238 234.75446572 300.01987794 242.48794888 291.0703125 250.44921875 C285.50234597 254.4834939 280.59616893 256.55926382 273.7578125 257.26171875 C269.51362671 257.76273513 269.51362671 257.76273513 266.26171875 260.31640625 C265.29224705 261.87701923 264.36269934 263.46307526 263.47265625 265.0703125 C258.66724533 273.22210986 249.86309747 277.12232858 241.234375 280.078125 C238.59349753 280.53098305 236.00727559 280.48430179 233.33422852 280.48461914 C226.78993393 280.41479222 226.78993393 280.41479222 221.00390625 283.01171875 C219.59559744 285.00247791 219.59559744 285.00247791 218.41015625 287.1875 C213.95243426 294.71234266 205.67012402 299.97261139 197.359375 302.1640625 C191.80408524 303.2794947 186.95150269 303.4571567 181.3203125 302.82421875 C176.17100908 302.28153767 173.12409237 302.65772422 168.75390625 305.44140625 C160.9723321 310.09951792 146.94962742 308.40607825 138.5 306.61328125 C122.05176812 302.42496143 109.11996817 293.40339133 96.00830078 282.97851562 C93.31606678 280.85403165 90.57306752 278.80724422 87.8203125 276.76171875 C77.96660711 269.39157671 68.25695669 261.84000691 58.59375 254.22265625 C56.29186942 252.40832236 53.98470621 250.60113284 51.671875 248.80078125 C42.99629336 242.0383085 34.47939947 235.09641402 26.0234375 228.06152344 C24.34495877 226.67593925 22.64694344 225.31408193 20.9453125 223.95703125 C12.95757378 217.47761553 5.71290061 210.27568387 -1.5546875 203.01171875 C-2.09441193 202.47299133 -2.63413635 201.93426392 -3.19021606 201.37921143 C-4.74502448 199.8240774 -6.29536964 198.2646571 -7.84375 196.703125 C-8.7507666 195.78861572 -9.6577832 194.87410645 -10.59228516 193.93188477 C-12.55191087 191.85047325 -14.28181082 189.7794566 -15.9296875 187.44921875 C-16.29320313 188.47982422 -16.29320313 188.47982422 -16.6640625 189.53125 C-16.99921875 190.43230469 -17.334375 191.33335937 -17.6796875 192.26171875 C-18.00453125 193.15503906 -18.329375 194.04835938 -18.6640625 194.96875 C-20.62416507 198.81030905 -22.906055 200.10800792 -26.9296875 201.44921875 C-29.12625496 201.55391145 -31.32587673 201.59788103 -33.52490234 201.61035156 C-34.19030533 201.61531647 -34.85570831 201.62028137 -35.54127502 201.62539673 C-37.7410689 201.63999352 -39.94079067 201.64681602 -42.140625 201.65234375 C-43.67135622 201.65809706 -45.20208742 201.66385477 -46.7328186 201.6696167 C-49.94232519 201.68011949 -53.15180678 201.68596694 -56.36132812 201.68945312 C-60.46937007 201.69493769 -64.57708054 201.71896769 -68.68501854 201.74742508 C-71.84720824 201.76606891 -75.00931836 201.77125797 -78.17155838 201.772789 C-79.68579547 201.77581191 -81.20003128 201.78382828 -82.71421432 201.79697418 C-84.83495916 201.81407256 -86.95489737 201.81214579 -89.07568359 201.80566406 C-90.28130951 201.80930969 -91.48693542 201.81295532 -92.72909546 201.81671143 C-96.27767297 201.40926298 -98.07528317 200.55322711 -100.9296875 198.44921875 C-101.73008532 197.90257159 -101.73008532 197.90257159 -102.54665279 197.34488106 C-104.7471511 194.32875884 -104.34528093 191.04738204 -104.31736755 187.45339966 C-104.32275309 186.62948664 -104.32813863 185.80557361 -104.33368737 184.95669353 C-104.34803582 182.18598517 -104.34084633 179.41574995 -104.33374023 176.64501953 C-104.33944026 174.66256321 -104.34640308 172.68011018 -104.35453796 170.69766235 C-104.37252646 165.30506721 -104.37129016 159.91263428 -104.36559558 154.5200181 C-104.36251153 150.02188274 -104.36858752 145.52377889 -104.37463433 141.025648 C-104.38869702 130.41502138 -104.38710414 119.80447524 -104.37573242 109.19384766 C-104.36425276 98.24033022 -104.37832045 87.28705766 -104.4051289 76.33357251 C-104.42726869 66.93646648 -104.43392705 57.53943742 -104.42805248 48.14230716 C-104.42467719 42.52672839 -104.42713579 36.91130656 -104.44430351 31.29574966 C-104.45974282 26.01469671 -104.45585052 20.73400704 -104.43699837 15.4529686 C-104.43330395 13.51354798 -104.43644568 11.57410063 -104.44688416 9.63470459 C-104.46003772 6.98904971 -104.44859697 4.34460739 -104.43089294 1.69900513 C-104.44049795 0.92964414 -104.45010296 0.16028315 -104.45999902 -0.63239181 C-104.39214612 -5.55321411 -103.4547498 -8.10449177 -99.9296875 -11.55078125 C-78.08180744 -22.47472128 -21.60916563 -6.69019973 0 0 Z M-81.9296875 10.44921875 C-81.9296875 66.21921875 -81.9296875 121.98921875 -81.9296875 179.44921875 C-67.4096875 179.44921875 -52.8896875 179.44921875 -37.9296875 179.44921875 C-35.48397162 173.81978789 -35.48397162 173.81978789 -33.51025391 168.11767578 C-33.27166153 167.33348267 -33.03306915 166.54928955 -32.7872467 165.74133301 C-32.53776779 164.90501343 -32.28828888 164.06869385 -32.03125 163.20703125 C-31.75997787 162.30706421 -31.48870575 161.40709717 -31.20921326 160.4798584 C-30.31825461 157.51310041 -29.43539103 154.54403641 -28.5546875 151.57421875 C-28.24933075 150.54689636 -27.943974 149.51957397 -27.62936401 148.46112061 C-6.82849575 87.53329342 -6.82849575 87.53329342 1.0703125 24.44921875 C-17.66888642 17.18236768 -37.64890659 14.56405087 -57.4921875 12.13671875 C-58.19833191 12.04945526 -58.90447632 11.96219177 -59.63201904 11.87228394 C-61.66925338 11.62363995 -63.70731919 11.38408866 -65.74609375 11.1484375 C-66.91599854 11.01268311 -68.08590332 10.87692871 -69.29125977 10.73706055 C-73.4920364 10.40473044 -77.71578579 10.44921875 -81.9296875 10.44921875 Z M286.0703125 46.44921875 C286.67114128 49.96340471 287.59779005 52.96560292 289.046875 56.21875 C289.46235596 57.16830566 289.87783691 58.11786133 290.3059082 59.09619141 C290.76441162 60.14081543 291.22291504 61.18543945 291.6953125 62.26171875 C308.46838283 101.26197123 322.03894404 141.74945672 335.25268555 182.06933594 C335.488302 182.78482101 335.72391846 183.50030609 335.9666748 184.23747253 C336.59697566 186.15239588 337.22380099 188.06846225 337.8503418 189.98461914 C339.09955057 193.53225207 340.58872436 196.99217976 342.0703125 200.44921875 C356.5903125 200.44921875 371.1103125 200.44921875 386.0703125 200.44921875 C386.0703125 144.34921875 386.0703125 88.24921875 386.0703125 30.44921875 C352.82758338 30.44921875 317.45425155 35.42046316 286.0703125 46.44921875 Z M92.5703125 75.01171875 C84.03727218 86.69608425 76.24649116 98.55941076 77.0703125 113.44921875 C84.62983199 117.72531058 92.04670273 119.04983204 100.5546875 116.7890625 C107.38349598 114.06931292 112.72787622 109.43974319 117.23046875 103.69140625 C122.41591871 97.19877274 126.6170491 94.33601635 134.67797852 92.81274414 C140.89913158 91.6363198 146.33440643 89.43895231 152.04711914 86.73339844 C157.09028866 84.46666622 161.54987906 83.70397047 167.0703125 84.44921875 C169.41796875 85.48046875 169.41796875 85.48046875 171.1328125 86.94921875 C172.11507812 87.77486328 172.11507812 87.77486328 173.1171875 88.6171875 C175.78197224 91.11675559 178.34232345 93.70650821 180.890625 96.32421875 C184.10822328 99.46108875 187.59222854 102.22723466 191.09375 105.0390625 C194.23607853 107.58344137 197.31067732 110.19619184 200.3828125 112.82421875 C205.43211167 117.12909407 210.60030145 121.25271603 215.83911133 125.32373047 C220.38735992 128.87336789 224.79207959 132.5670895 229.17138672 136.32202148 C233.09379899 139.66802831 237.11764998 142.85761511 241.1953125 146.01171875 C246.57013561 150.1794653 251.6309024 154.5537437 256.62109375 159.1796875 C258.76145794 161.16302337 260.92968158 163.09882064 263.1328125 165.01171875 C285.63146479 184.62357859 285.63146479 184.62357859 293.0703125 195.44921875 C297.86852909 193.82807373 301.7375984 191.15645116 305.8828125 188.32421875 C306.57568359 187.85628906 307.26855469 187.38835937 307.98242188 186.90625 C309.68122355 185.75809438 311.37616114 184.60422508 313.0703125 183.44921875 C306.64667112 163.45865192 299.70659827 143.67327567 292.5078125 123.94921875 C291.91944107 122.33146545 291.91944107 122.33146545 291.31918335 120.68103027 C289.39005033 115.38297153 287.43519598 110.09758304 285.42919922 104.828125 C283.76681161 100.43594256 282.28770008 96.02126953 280.88720703 91.5390625 C277.3947735 79.3987343 277.3947735 79.3987343 269.06591797 70.57617188 C265.30631563 68.91058061 261.44299055 67.91812993 257.43719482 67.02978516 C253.54991019 66.07628322 249.92582806 64.52897633 246.23046875 63.01171875 C244.73869292 62.42563729 243.24592067 61.84208614 241.75219727 61.26098633 C240.21231499 60.65728658 238.67252212 60.05335873 237.1328125 59.44921875 C236.32947479 59.13439545 235.52613708 58.81957214 234.69845581 58.49520874 C225.52301193 54.89218203 216.39383745 51.20782242 207.3515625 47.28125 C206.57026474 46.94237762 205.78896698 46.60350525 204.98399353 46.25436401 C201.28282316 44.64474252 197.58920291 43.02009554 193.90454102 41.37304688 C182.53310158 36.34181284 170.58473211 31.61347436 157.9453125 31.88671875 C156.8169397 31.90206665 156.8169397 31.90206665 155.66577148 31.91772461 C131.51763201 32.8246608 106.70683085 56.72087538 92.5703125 75.01171875 Z M20.0703125 51.44921875 C16.89772527 64.13464878 16.89772527 64.13464878 13.76371765 76.82923889 C12.65139656 81.36240247 11.5310403 85.89356836 10.41003418 90.42459106 C9.80299104 92.88017542 9.1974678 95.33613596 8.59338379 97.79244995 C5.49089805 110.38521136 2.34828834 122.9329966 -1.50390625 135.3203125 C-1.91335228 136.6508667 -1.91335228 136.6508667 -2.33106995 138.00830078 C-3.58947563 142.07912708 -4.88687947 146.12966327 -6.25610352 150.16455078 C-8.772193 156.96527263 -8.772193 156.96527263 -7.97045898 163.85913086 C-6.42047466 165.71809344 -4.89443871 167.04747798 -2.9296875 168.44921875 C-2.31222656 169.08730469 -1.69476563 169.72539062 -1.05859375 170.3828125 C-0.54167969 170.87910156 -0.02476563 171.37539063 0.5078125 171.88671875 C2.86638451 174.19703791 5.07400404 176.56954308 7.21484375 179.08203125 C17.45361471 190.85099811 28.7292131 201.90820073 41.0703125 211.44921875 C42.99108199 213.00267397 44.90265464 214.56705879 46.81420898 216.13183594 C54.26332051 222.22616393 61.79765052 228.20543514 69.38330078 234.12841797 C71.03177358 235.41904573 72.67497607 236.71605622 74.31640625 238.015625 C83.91266975 245.60678425 93.62579628 253.04272348 103.38769531 260.41943359 C105.15265776 261.75488115 106.91510426 263.0936615 108.67480469 264.43603516 C129.62936513 280.69349655 129.62936513 280.69349655 155.0703125 285.44921875 C149.06400546 278.11049004 142.26184637 271.57542451 135.52270508 264.92211914 C129.47876005 258.94831304 123.55819529 252.94708174 118.0703125 246.44921875 C116.99136719 245.23105469 116.99136719 245.23105469 115.890625 243.98828125 C115.33117187 243.35664063 114.77171875 242.725 114.1953125 242.07421875 C113.62039062 241.42710937 113.04546875 240.78 112.453125 240.11328125 C109.90116534 237.04227894 109.71797716 234.46250533 109.8046875 230.48828125 C110.25573982 227.02579135 111.37321808 225.62005085 114.0703125 223.44921875 C118.1525824 222.22301454 121.52580717 221.72878664 125.45703125 223.5625 C128.78743466 225.96696166 131.57832451 228.705494 134.4453125 231.63671875 C135.25355469 232.44592773 135.25355469 232.44592773 136.078125 233.27148438 C138.89201873 236.11552696 141.58458111 239.02094091 144.18359375 242.0625 C148.92059744 247.52751604 154.04562535 252.61056075 159.1574707 257.72167969 C160.87417341 259.44056866 162.58269912 261.16731255 164.29101562 262.89453125 C174.65114593 274.45094974 174.65114593 274.45094974 187.8203125 281.13671875 C195.10161947 279.59644228 198.66506377 276.15104778 203.0703125 270.44921875 C201.69818237 267.36735225 200.13652351 265.2742908 197.74145508 262.90917969 C197.06347366 262.23457703 196.38549225 261.55997437 195.68696594 260.8649292 C194.58701546 259.78516815 194.58701546 259.78516815 193.46484375 258.68359375 C192.70741379 257.93136536 191.94998383 257.17913696 191.16960144 256.40411377 C188.74536944 253.9976865 186.31458267 251.59802637 183.8828125 249.19921875 C181.46972158 246.81388671 179.05815129 244.42706823 176.64958191 242.03717041 C175.15200686 240.551695 173.65176805 239.06889837 172.14839172 237.58929443 C168.13317837 233.61188044 164.31126065 229.54066717 160.64653015 225.23712158 C159.05036708 223.42659467 157.36399138 221.75484496 155.6328125 220.07421875 C152.56401393 216.49532497 152.32096404 213.30725095 152.6015625 208.69140625 C153.25063979 205.58665321 154.46848218 204.20928044 157.0703125 202.44921875 C160.3745263 200.79711185 163.52591996 200.68664566 167.0703125 201.44921875 C172.69496466 205.29583736 177.30751092 210.69170833 181.8828125 215.69921875 C188.86510077 223.21761001 196.02525973 230.5502491 203.26376343 237.82092285 C204.45770498 239.0209756 205.6498184 240.22285026 206.83999634 241.42663574 C217.08613753 253.15754591 217.08613753 253.15754591 230.5703125 259.07421875 C236.75664404 258.6147848 241.42464383 256.25945428 245.5703125 251.69921875 C246.3128125 250.58546875 246.3128125 250.58546875 247.0703125 249.44921875 C245.74104337 246.41825769 244.42384443 244.66801907 241.85546875 242.6015625 C235.72192785 237.40653226 230.1314531 231.65929107 224.46118164 225.97045898 C222.5123438 224.01626251 220.55821978 222.06746728 218.60351562 220.11914062 C213.10311913 214.62137792 207.65383787 209.14487639 202.61645508 203.21362305 C199.65217002 199.83088373 196.40568266 196.72114286 193.1953125 193.57421875 C191.8623006 192.26664601 190.53145634 190.9568586 189.203125 189.64453125 C188.62449707 189.07750488 188.04586914 188.51047852 187.44970703 187.92626953 C184.36975184 184.62826442 184.7462769 181.17305272 184.77734375 176.8671875 C185.0703125 174.44921875 185.0703125 174.44921875 186.9453125 171.88671875 C190.26578912 169.64051398 192.79765734 168.92223384 196.87573242 168.98022461 C199.60272418 169.56299813 200.76813233 170.56783175 202.80859375 172.453125 C203.50114258 173.08943848 204.19369141 173.72575195 204.90722656 174.38134766 C208.52632923 177.84114445 212.10202564 181.3367602 215.6328125 184.88671875 C216.34888672 185.59892578 217.06496094 186.31113281 217.80273438 187.04492188 C221.07185196 190.31998872 224.25784863 193.61591869 227.26171875 197.13671875 C232.10996608 202.7567025 237.39377228 207.95869441 242.63964844 213.20385742 C244.43976043 215.00615992 246.2317015 216.81632834 248.0234375 218.62695312 C257.9223065 229.88900848 257.9223065 229.88900848 270.6953125 235.76171875 C275.05432722 234.06654636 278.24346879 232.23418035 281.0703125 228.44921875 C282.7584033 223.98607137 282.61368861 219.92848638 280.6953125 215.57421875 C272.32172495 201.22352493 258.60998883 188.74650809 245.68359375 178.55859375 C242.85061964 176.27188819 240.18280046 173.85593841 237.5078125 171.38671875 C233.32807888 167.54492104 229.03859725 163.93543183 224.578125 160.42578125 C222.00852253 158.40051824 219.47414403 156.33762523 216.9453125 154.26171875 C212.33107976 150.47752505 207.70329527 146.71042995 203.0703125 142.94921875 C201.02248958 141.28564675 198.97482285 139.62188279 196.92724609 137.95800781 C195.30464882 136.63962086 193.68165473 135.3217223 192.05859375 134.00390625 C187.17463268 130.02543869 182.32553249 126.00749864 177.5078125 121.94921875 C176.96165283 121.49111816 176.41549316 121.03301758 175.8527832 120.56103516 C171.4837296 116.86922739 167.34834976 112.96507768 163.2890625 108.93359375 C161.18421425 107.20626991 161.18421425 107.20626991 158.6875 107.56640625 C155.65903032 108.58794975 152.67158096 109.65774774 149.6953125 110.82421875 C148.07496094 111.45457031 148.07496094 111.45457031 146.421875 112.09765625 C145.31585938 112.54367188 144.20984375 112.9896875 143.0703125 113.44921875 C141.89597656 113.87976563 140.72164062 114.3103125 139.51171875 114.75390625 C135.65634288 116.6531493 133.2057694 119.06027375 130.3828125 122.19921875 C124.91707305 127.94300929 119.29372812 132.04645272 112.0703125 135.44921875 C111.32007813 135.80757813 110.56984375 136.1659375 109.796875 136.53515625 C98.48856599 140.86008847 82.92191156 139.8155784 71.7734375 135.69921875 C63.45462862 131.85237072 59.26197705 127.09273949 56.0703125 118.44921875 C52.11760336 103.65066137 58.94903263 87.98964921 66.00048828 75.26220703 C70.83686099 67.0661998 76.78111904 59.56593766 83.0703125 52.44921875 C83.0703125 52.11921875 83.0703125 51.78921875 83.0703125 51.44921875 C62.2803125 51.44921875 41.4903125 51.44921875 20.0703125 51.44921875 Z " fill="#000000" transform="translate(103.9296875,108.55078125)"/>
</svg>
