<svg xmlns="http://www.w3.org/2000/svg" viewBox="0 0 1024 1024" fill="currentColor" fillRule="evenodd"><g><path d="M353 16H192.545v425.615c0 105.313-36.166 134.718-99.104 134.718-29.494 0-56.055-5.05-76.718-12.144L0 688.784C29.484 698.924 74.73 705 110.126 705 254.631 705 353 637.16 353 442.658zM702.49 0C547.26 0 449 88.126 449 204.609c0 100.313 75.67 163.12 185.696 203.629 79.577 28.358 111.03 53.695 111.03 95.218 0 45.579-36.358 74.96-105.13 74.96-63.868 0-121.849-21.311-161.146-42.573v-.042L449 662.427C486.361 683.735 556.12 705 631.741 705 813.52 705 898 607.753 898 493.293c0-97.243-54.036-160.035-170.937-204.627-86.47-34.432-122.813-53.669-122.813-97.227 0-34.45 31.446-65.834 96.3-65.834 63.834 0 107.728 21.445 133.307 34.632L872.193 32.05C832.103 14.461 778.109 0 702.49 0" transform="translate(63 160)"/></g></svg>
