<svg xmlns="http://www.w3.org/2000/svg" width="24" height="24" viewBox="0 0 24 24"><path d="M12 2c5.514 0 10 4.486 10 10s-4.486 10-10 10-10-4.486-10-10 4.486-10 10-10zm0-2c-6.627 0-12 5.373-12 12s5.373 12 12 12 12-5.373 12-12-5.373-12-12-12zm-3.086 8.267c-.3.672-.181 1.876-.133 2.718-.324.179-.74-.136-.975-.136-.245 0-.538.161-.583.401-.033.173.044.425.6.645.215.085.727.185.845.464.166.392-.855 2.202-2.459 2.466-.126.02-.216.132-.209.259.028.488 1.121.678 1.605.754.05.067.09.35.153.566.028.097.102.212.291.212.246 0 .656-.19 1.369-.072.699.117 1.356 1.107 2.617 1.107 1.173 0 1.872-.996 2.545-1.107.389-.065.724-.044 1.098.029.257.05.488.079.562-.174.064-.219.104-.496.152-.561.48-.075 1.578-.265 1.606-.753.007-.127-.083-.239-.208-.259-1.577-.26-2.629-2.064-2.459-2.466.118-.278.626-.378.845-.464.407-.161.611-.358.606-.586-.006-.292-.357-.467-.616-.467-.264 0-.642.312-.949.143.048-.849.166-2.048-.133-2.719-.567-1.272-1.83-1.916-3.092-1.916-1.252-.001-2.506.633-3.078 1.916z"/></svg>