<svg xmlns="http://www.w3.org/2000/svg" viewBox="0 0 1024 1024" fill="currentColor" fillRule="evenodd"><path d="M608 192c17.673 0 32 14.327 32 32v160h174.815a32 32 0 0 1 26.676 14.327l113.186 170.846A32 32 0 0 1 960 586.846V672c0 17.673-14.327 32-32 32h-96c0 70.692-57.308 128-128 128-70.692 0-128-57.308-128-128H384c0 70.692-57.308 128-128 128-70.692 0-128-57.308-128-128H96c-17.673 0-32-14.327-32-32V224c0-17.673 14.327-32 32-32zM256 640c-35.346 0-64 28.654-64 64 0 35.346 28.654 64 64 64l1.058-.009C291.916 767.426 320 738.993 320 704c0-35.346-28.654-64-64-64m448 0c-35.346 0-64 28.654-64 64 0 35.346 28.654 64 64 64l1.058-.009C739.916 767.426 768 738.993 768 704c0-35.346-28.654-64-64-64M576 256H128v384h17.124c22.131-38.259 63.498-64 110.876-64 47.378 0 88.745 25.741 110.876 64H576zm221.629 192H640v145.124C658.829 582.234 680.687 576 704 576c47.378 0 88.745 25.741 110.876 64H896v-43.516zM500 448c6.627 0 12 5.373 12 12v40c0 6.627-5.373 12-12 12H332c-6.627 0-12-5.373-12-12v-40c0-6.627 5.373-12 12-12zM308 320c6.627 0 12 5.373 12 12v40c0 6.627-5.373 12-12 12H204c-6.627 0-12-5.373-12-12v-40c0-6.627 5.373-12 12-12z"/></svg>
