<?xml version="1.0" standalone="no"?><!DOCTYPE svg PUBLIC "-//W3C//DTD SVG 1.1//EN" "http://www.w3.org/Graphics/SVG/1.1/DTD/svg11.dtd"><svg class="icon" width="64px" height="64.00px" viewBox="0 0 1024 1024" version="1.1" xmlns="http://www.w3.org/2000/svg"><path fill="#333333" d="M270.1 741.7c0 23.4 19.1 42.5 42.6 42.5h48.7v120.4c0 30.5 24.5 55.4 54.6 55.4 30.2 0 54.6-24.8 54.6-55.4V784.1h85v120.4c0 30.5 24.5 55.4 54.6 55.4 30.2 0 54.6-24.8 54.6-55.4V784.1h48.7c23.5 0 42.6-19.1 42.6-42.5V346.4h-486v395.3zM627.2 141.6l44.9-65c2.6-3.8 2-8.9-1.5-11.4-3.5-2.4-8.5-1.2-11.1 2.6l-46.6 67.6c-30.7-12.1-64.9-18.8-100.8-18.8-35.9 0-70.1 6.7-100.8 18.8l-46.6-67.5c-2.6-3.8-7.6-5.1-11.1-2.6-3.5 2.4-4.1 7.4-1.5 11.4l44.9 65c-71.4 33.2-121.4 96.1-127.8 169.6h486c-6.6-73.6-56.7-136.5-128-169.7zM409.5 244.1c-14.8 0-26.9-12-26.9-26.9 0-14.8 12-26.9 26.9-26.9 14.8 0 26.9 12 26.9 26.9-0.1 14.9-12.1 26.9-26.9 26.9z m208.4 0c-14.8 0-26.9-12-26.9-26.9 0-14.8 12-26.9 26.9-26.9 14.8 0 26.9 12 26.9 26.9-0.1 14.9-12.1 26.9-26.9 26.9zM841.3 344.8c-30.2 0-54.6 24.8-54.6 55.4v216.4c0 30.5 24.5 55.4 54.6 55.4 30.2 0 54.6-24.8 54.6-55.4V400.1c0.1-30.6-24.3-55.3-54.6-55.3zM182.7 344.8c-30.2 0-54.6 24.8-54.6 55.4v216.4c0 30.5 24.5 55.4 54.6 55.4 30.2 0 54.6-24.8 54.6-55.4V400.1c0-30.6-24.5-55.3-54.6-55.3z" /></svg>