<?xml version="1.0" standalone="no"?><!DOCTYPE svg PUBLIC "-//W3C//DTD SVG 1.1//EN" "http://www.w3.org/Graphics/SVG/1.1/DTD/svg11.dtd"><svg class="icon" width="64px" height="64.00px" viewBox="0 0 1024 1024" version="1.1" xmlns="http://www.w3.org/2000/svg"><path fill="#333333" d="M832 64H192c-17.7 0-32 14.3-32 32v224h704V96c0-17.7-14.3-32-32-32zM456 216c0 4.4-3.6 8-8 8H264c-4.4 0-8-3.6-8-8v-48c0-4.4 3.6-8 8-8h184c4.4 0 8 3.6 8 8v48zM160 928c0 17.7 14.3 32 32 32h640c17.7 0 32-14.3 32-32V704H160v224z m576-136c22.1 0 40 17.9 40 40s-17.9 40-40 40-40-17.9-40-40 17.9-40 40-40zM160 640h704V384H160v256z m96-152c0-4.4 3.6-8 8-8h184c4.4 0 8 3.6 8 8v48c0 4.4-3.6 8-8 8H264c-4.4 0-8-3.6-8-8v-48z" /></svg>