<?xml version="1.0" standalone="no"?><!DOCTYPE svg PUBLIC "-//W3C//DTD SVG 1.1//EN" "http://www.w3.org/Graphics/SVG/1.1/DTD/svg11.dtd"><svg class="icon" width="64px" height="64.00px" viewBox="0 0 1024 1024" version="1.1" xmlns="http://www.w3.org/2000/svg"><path fill="#333333" d="M732 120c0-4.4-3.6-8-8-8H300c-4.4 0-8 3.6-8 8v148h440V120zM852 332H172c-44.2 0-80 35.8-80 80v328c0 17.7 14.3 32 32 32h168v132c0 4.4 3.6 8 8 8h424c4.4 0 8-3.6 8-8V772h168c17.7 0 32-14.3 32-32V412c0-44.2-35.8-80-80-80zM664 844H360V568h304v276z m164-360c0 4.4-3.6 8-8 8h-40c-4.4 0-8-3.6-8-8v-40c0-4.4 3.6-8 8-8h40c4.4 0 8 3.6 8 8v40z" /></svg>