<?xml version="1.0" standalone="no"?><!DOCTYPE svg PUBLIC "-//W3C//DTD SVG 1.1//EN" "http://www.w3.org/Graphics/SVG/1.1/DTD/svg11.dtd"><svg class="icon" width="64px" height="64.00px" viewBox="0 0 1024 1024" version="1.1" xmlns="http://www.w3.org/2000/svg"><path fill="#333333" d="M445.262 477.673l101.292-32.909 32.909 101.293-101.292 32.908zM512 64C264.6 64 64 264.6 64 512s200.6 448 448 448 448-200.6 448-448S759.4 64 512 64z m231.1 523.5l-50.3 16.3 16.5 50.6c7.7 23.6-5.3 49-28.9 56.7-23.6 7.7-49-5.3-56.7-28.9l-16.5-50.6L506 664.5l16.5 50.6c7.7 23.6-5.3 49-28.9 56.7-23.6 7.7-49-5.3-56.7-28.9l-16.5-50.6-51 16.6c-23.6 7.7-49-5.3-56.7-28.9s5.3-49 28.9-56.7l51-16.6-32.9-101.3-51 16.6c-23.6 7.7-49-5.3-56.7-28.9-7.7-23.6 5.3-49 28.9-56.7l51-16.6-16.5-50.6c-7.7-23.6 5.3-49 28.9-56.7 23.6-7.7 49 5.3 56.7 28.9l16.5 50.6 101.3-32.9-16.5-50.6c-7.7-23.6 5.3-49 28.9-56.7s49 5.3 56.7 28.9l16.5 50.6 50.3-16.3c23.6-7.7 49 5.3 56.7 28.9 7.7 23.6-5.3 49-28.9 56.7L632.1 417 665 518.3l50.3-16.3c23.6-7.7 49 5.3 56.7 28.9 7.6 23.5-5.3 48.9-28.9 56.6z" /></svg>