<?xml version="1.0" standalone="no"?><!DOCTYPE svg PUBLIC "-//W3C//DTD SVG 1.1//EN" "http://www.w3.org/Graphics/SVG/1.1/DTD/svg11.dtd"><svg class="icon" width="64px" height="64.00px" viewBox="0 0 1024 1024" version="1.1" xmlns="http://www.w3.org/2000/svg"><path fill="#333333" d="M955.7 856l-416-720c-6.2-10.7-16.9-16-27.7-16s-21.6 5.3-27.7 16l-416 720C56 877.4 71.4 904 96 904h832c24.6 0 40-26.6 27.7-48zM480 416c0-4.4 3.6-8 8-8h48c4.4 0 8 3.6 8 8v184c0 4.4-3.6 8-8 8h-48c-4.4 0-8-3.6-8-8V416z m32 352c-26.5 0-48-21.5-48-48s21.5-48 48-48 48 21.5 48 48-21.5 48-48 48z" /></svg>