<?xml version="1.0" standalone="no"?><!DOCTYPE svg PUBLIC "-//W3C//DTD SVG 1.1//EN" "http://www.w3.org/Graphics/SVG/1.1/DTD/svg11.dtd"><svg class="icon" width="64px" height="64.00px" viewBox="0 0 1024 1024" version="1.1" xmlns="http://www.w3.org/2000/svg"><path d="M144 546h200v200H144zM412 278h200v200H412z" fill="#D9D9D9" /><path d="M916 210H376c-17.7 0-32 14.3-32 32v236H108c-17.7 0-32 14.3-32 32v272c0 17.7 14.3 32 32 32h540c17.7 0 32-14.3 32-32V546h236c17.7 0 32-14.3 32-32V242c0-17.7-14.3-32-32-32zM344 746H144V546h200v200z m268 0H412V546h200v200z m0-268H412V278h200v200z m268 0H680V278h200v200z"  /></svg>