<?xml version="1.0" standalone="no"?><!DOCTYPE svg PUBLIC "-//W3C//DTD SVG 1.1//EN" "http://www.w3.org/Graphics/SVG/1.1/DTD/svg11.dtd"><svg class="icon" width="64px" height="64.00px" viewBox="0 0 1024 1024" version="1.1" xmlns="http://www.w3.org/2000/svg"><path d="M512 64C264.6 64 64 264.6 64 512s200.6 448 448 448 448-200.6 448-448S759.4 64 512 64z m0 820c-205.4 0-372-166.6-372-372s166.6-372 372-372 372 166.6 372 372-166.6 372-372 372z" fill="#333333" /><path d="M512 140c-205.4 0-372 166.6-372 372s166.6 372 372 372 372-166.6 372-372-166.6-372-372-372z m193.4 225.7l-210.6 292c-12.7 17.7-39 17.7-51.7 0L318.5 484.9c-3.8-5.3 0-12.7 6.5-12.7h46.9c10.3 0 19.9 5 25.9 13.3l71.2 98.8 157.2-218c6-8.4 15.7-13.3 25.9-13.3H699c6.5 0 10.3 7.4 6.4 12.7z" fill="#E6E6E6" /><path d="M699 353h-46.9c-10.2 0-19.9 4.9-25.9 13.3L469 584.3l-71.2-98.8c-6-8.3-15.6-13.3-25.9-13.3H325c-6.5 0-10.3 7.4-6.5 12.7l124.6 172.8c12.7 17.7 39 17.7 51.7 0l210.6-292c3.9-5.3 0.1-12.7-6.4-12.7z" fill="#333333" /></svg>