<?xml version="1.0" standalone="no"?><!DOCTYPE svg PUBLIC "-//W3C//DTD SVG 1.1//EN" "http://www.w3.org/Graphics/SVG/1.1/DTD/svg11.dtd"><svg class="icon" width="64px" height="64.00px" viewBox="0 0 1024 1024" version="1.1" xmlns="http://www.w3.org/2000/svg"><path d="M273 100.1v428h0.3l-0.3-428zM820.4 525l-21.9-19 14-25.5c4.6-8.4 6.9-17.6 6.9-27.3 0-16.5-7.1-32.2-19.6-43l-21.9-19 13.9-25.4c4.6-8.4 6.9-17.6 6.9-27.3 0-16.5-7.1-32.2-19.6-43l-21.9-19 13.9-25.4c4.6-8.4 6.9-17.6 6.9-27.3 0-22.4-13.2-42.6-33.6-51.8H345v345.2c18.6 67.2 46.4 168 83.5 302.5 5.3 18.9 22.6 32.2 42.2 32.3 7.5 0.1 15-2.2 21.1-6.7 9.9-7.4 15.2-18.6 14.6-30.5l-9.6-198.4h314.4C829 605.5 840 587.1 840 568c0-16.5-7.1-32.2-19.6-43z" fill="#D9D9D9" /><path d="M112 132v364c0 17.7 14.3 32 32 32h65V100h-65c-17.7 0-32 14.3-32 32zM885.9 490.3c3.6-12 5.4-24.4 5.4-37 0-28.3-9.3-55.5-26.1-77.7 3.6-12 5.4-24.4 5.4-37 0-28.3-9.3-55.5-26.1-77.7 3.6-12 5.4-24.4 5.4-37 0-51.6-30.7-98.1-78.3-118.4-8.3-3.6-17.2-5.4-26.5-5.4H273l0.3 428 85.8 310.8C372.9 889 418.9 924 470.9 924c29.7 0 57.4-11.8 77.9-33.4 20.5-21.5 31-49.7 29.5-79.4l-6-122.9h239.9c12.1 0 23.9-3.2 34.3-9.3 40.4-23.5 65.5-66.1 65.5-111 0-28.3-9.3-55.5-26.1-77.7z m-74.7 126.1H496.8l9.6 198.4c0.6 11.9-4.7 23.1-14.6 30.5-6.1 4.5-13.6 6.8-21.1 6.7-19.6-0.1-36.9-13.4-42.2-32.3-37.1-134.4-64.9-235.2-83.5-302.5V172h399.4c20.4 9.2 33.6 29.4 33.6 51.8 0 9.7-2.3 18.9-6.9 27.3l-13.9 25.4 21.9 19c12.5 10.8 19.6 26.5 19.6 43 0 9.7-2.3 18.9-6.9 27.3l-13.9 25.4 21.9 19c12.5 10.8 19.6 26.5 19.6 43 0 9.7-2.3 18.9-6.9 27.3l-14 25.5 21.9 19c12.5 10.8 19.6 26.5 19.6 43 0 19.1-11 37.5-28.8 48.4z"  /></svg>