<?xml version="1.0" standalone="no"?><!DOCTYPE svg PUBLIC "-//W3C//DTD SVG 1.1//EN" "http://www.w3.org/Graphics/SVG/1.1/DTD/svg11.dtd"><svg class="icon" width="64px" height="64.00px" viewBox="0 0 1024 1024" version="1.1" xmlns="http://www.w3.org/2000/svg"><path d="M551.9 513c19.6 0 35.9-14.2 39.3-32.8-3.8 18.2-19.9 31.8-39.2 31.8-21.9 0-39.7-17.6-40-39.4v0.5c0 22 17.9 39.9 39.9 39.9zM752 687.8l-0.3-0.3c-29-17.5-62.3-26.8-97-26.8-44.9 0-87.2 15.7-121 43.8-45.9 38.4-103.8 59.9-164.9 59.9-41.2 0-81-9.8-116.7-28L210.5 844h603l-59.9-155.2-1.6-1z" fill="#D9D9D9" /><path d="M879 824.9L696.3 352V178H768v-68H256v68h71.7v174L145 824.9c-2.8 7.4-4.3 15.2-4.3 23.1 0 35.3 28.7 64 64 64h614.6c7.9 0 15.7-1.5 23.1-4.3 33-12.7 49.4-49.8 36.6-82.8zM395.7 364.7V180h232.6v184.7L719.2 600c-20.7-5.3-42.1-8-63.9-8-61.2 0-119.2 21.5-165.3 60-33.9 28.2-76.3 43.9-121.3 43.9-32.7 0-64.1-8.3-91.8-23.7l118.8-307.5zM210.5 844l41.6-107.6 0.1-0.2c35.7 18.1 75.4 27.8 116.6 27.8 61.2 0 119.2-21.5 165.3-60 33.9-28.2 76.3-43.9 121.3-43.9 35 0 68.4 9.5 97.6 27.1l0.6 1.6L813.5 844h-603z"  /><path d="M552 512c19.3 0 35.4-13.6 39.2-31.8 0.6-2.7 0.8-5.4 0.8-8.2 0-22.1-17.9-40-40-40s-40 17.9-40 40v0.6c0.3 21.8 18.1 39.4 40 39.4z"  /></svg>