<?xml version="1.0" standalone="no"?><!DOCTYPE svg PUBLIC "-//W3C//DTD SVG 1.1//EN" "http://www.w3.org/Graphics/SVG/1.1/DTD/svg11.dtd"><svg class="icon" width="64px" height="64.00px" viewBox="0 0 1024 1024" version="1.1" xmlns="http://www.w3.org/2000/svg"><path d="M184 232h368v336H184z" fill="#D9D9D9" /><path d="M624 632c0 4.4-3.6 8-8 8H504v73h336V377H624v255z" fill="#D9D9D9" /><path d="M880 305H624V192c0-17.7-14.3-32-32-32H184v-40c0-4.4-3.6-8-8-8h-56c-4.4 0-8 3.6-8 8v784c0 4.4 3.6 8 8 8h56c4.4 0 8-3.6 8-8V640h248v113c0 17.7 14.3 32 32 32h416c17.7 0 32-14.3 32-32V337c0-17.7-14.3-32-32-32zM184 568V232h368v336H184z m656 145H504v-73h112c4.4 0 8-3.6 8-8V377h216v336z"  /></svg>