<?xml version="1.0" standalone="no"?><!DOCTYPE svg PUBLIC "-//W3C//DTD SVG 1.1//EN" "http://www.w3.org/Graphics/SVG/1.1/DTD/svg11.dtd"><svg class="icon" width="64px" height="64.00px" viewBox="0 0 1024 1024" version="1.1" xmlns="http://www.w3.org/2000/svg"><path d="M512 64C264.6 64 64 264.6 64 512s200.6 448 448 448 448-200.6 448-448S759.4 64 512 64z m0 820c-205.4 0-372-166.6-372-372s166.6-372 372-372 372 166.6 372 372-166.6 372-372 372z" fill="#333333" /><path d="M512 140c-205.4 0-372 166.6-372 372s166.6 372 372 372 372-166.6 372-372-166.6-372-372-372zM288 421c0-26.5 21.5-48 48-48s48 21.5 48 48-21.5 48-48 48-48-21.5-48-48z m376 272h-48.1c-4.2 0-7.8-3.2-8.1-7.4C604 636.1 562.5 597 512 597s-92.1 39.1-95.8 88.6c-0.3 4.2-3.9 7.4-8.1 7.4H360c-4.6 0-8.2-3.8-8-8.4 4.4-84.3 74.5-151.6 160-151.6s155.6 67.3 160 151.6c0.2 4.6-3.4 8.4-8 8.4z m24-224c-26.5 0-48-21.5-48-48s21.5-48 48-48 48 21.5 48 48-21.5 48-48 48z" fill="#E6E6E6" /><path d="M336 421m-48 0a48 48 0 1 0 96 0 48 48 0 1 0-96 0Z" fill="#333333" /><path d="M512 533c-85.5 0-155.6 67.3-160 151.6-0.2 4.6 3.4 8.4 8 8.4h48.1c4.2 0 7.8-3.2 8.1-7.4 3.7-49.5 45.3-88.6 95.8-88.6s92 39.1 95.8 88.6c0.3 4.2 3.9 7.4 8.1 7.4H664c4.6 0 8.2-3.8 8-8.4-4.4-84.3-74.5-151.6-160-151.6z" fill="#333333" /><path d="M688 421m-48 0a48 48 0 1 0 96 0 48 48 0 1 0-96 0Z" fill="#333333" /></svg>