<?xml version="1.0" standalone="no"?><!DOCTYPE svg PUBLIC "-//W3C//DTD SVG 1.1//EN" "http://www.w3.org/Graphics/SVG/1.1/DTD/svg11.dtd"><svg class="icon" width="64px" height="64.00px" viewBox="0 0 1024 1024" version="1.1" xmlns="http://www.w3.org/2000/svg"><path d="M928 160H96c-17.7 0-32 14.3-32 32v640c0 17.7 14.3 32 32 32h832c17.7 0 32-14.3 32-32V192c0-17.7-14.3-32-32-32z m-40 632H136V232h752v560z" fill="#333333" /><path d="M136 792h752V232H136v560z m56.4-130.5l214.9-215c3.1-3.1 8.2-3.1 11.3 0L533 561l254.5-254.6c3.1-3.1 8.2-3.1 11.3 0l36.8 36.8c3.1 3.1 3.1 8.2 0 11.3l-297 297.2c-3.1 3.1-8.2 3.1-11.3 0L412.9 537.2 240.4 709.7c-3.1 3.1-8.2 3.1-11.3 0l-36.7-36.9c-3.1-3.1-3.1-8.2 0-11.3z" fill="#E6E6E6" /><path d="M229.1 709.7c3.1 3.1 8.2 3.1 11.3 0l172.5-172.5 114.4 114.5c3.1 3.1 8.2 3.1 11.3 0l297-297.2c3.1-3.1 3.1-8.2 0-11.3l-36.8-36.8c-3.1-3.1-8.2-3.1-11.3 0L533 561 418.6 446.5c-3.1-3.1-8.2-3.1-11.3 0l-214.9 215c-3.1 3.1-3.1 8.2 0 11.3l36.7 36.9z" fill="#333333" /></svg>