<?xml version="1.0" standalone="no"?><!DOCTYPE svg PUBLIC "-//W3C//DTD SVG 1.1//EN" "http://www.w3.org/Graphics/SVG/1.1/DTD/svg11.dtd"><svg class="icon" width="64px" height="64.00px" viewBox="0 0 1024 1024" version="1.1" xmlns="http://www.w3.org/2000/svg"><path d="M229.6 796.3h160.2l54.3-54.1-80.1-78.9zM450.3 399.2l262.8 258.9 147.3-145-262.8-259zM373.2 565.3l171.4 168.9 68.6-67.6-171.4-168.9z" fill="#D9D9D9" /><path d="M957.6 507.5L603.2 158.3c-3.1-3.1-8.1-3.1-11.2 0L353.3 393.5c-3.1 3.1-3.2 8.2-0.1 11.3l0.1 0.1 40 39.4-117.2 115.3c-3.1 3.1-3.2 8.2-0.1 11.3l0.1 0.1 39.5 38.9-189.1 187H72.1c-4.4 0-8.1 3.6-8.1 8v55.2c0 4.4 3.6 8 8 8h344.9c2.1 0 4.1-0.8 5.6-2.3l76.1-75.6L539 830c3.1 3.1 8.1 3.1 11.2 0l117.1-115.6 40.1 39.5c3.1 3.1 8.1 3.1 11.2 0l238.7-235.2c3.4-3 3.4-8 0.3-11.2zM389.8 796.3H229.6l134.4-133 80.1 78.9-54.3 54.1z m154.8-62.1L373.2 565.3l68.6-67.6 171.4 168.9-68.6 67.6z m168.5-76.1L450.3 399.2l147.3-145.1 262.8 259-147.3 145z"  /></svg>