<?xml version="1.0" standalone="no"?><!DOCTYPE svg PUBLIC "-//W3C//DTD SVG 1.1//EN" "http://www.w3.org/Graphics/SVG/1.1/DTD/svg11.dtd"><svg class="icon" width="64px" height="64.00px" viewBox="0 0 1024 1024" version="1.1" xmlns="http://www.w3.org/2000/svg"><path d="M384 185h456v136H384zM184 185h136v656H184zM880 112H144c-17.7 0-32 14.3-32 32v1c0-17.7 14.3-32 32-32h736c17.7 0 32 14.3 32 32v-1c0-17.7-14.3-32-32-32zM384 385h456v456H384z" fill="#D9D9D9" /><path d="M880 113H144c-17.7 0-32 14.3-32 32v736c0 17.7 14.3 32 32 32h736c17.7 0 32-14.3 32-32V145c0-17.7-14.3-32-32-32zM320 841H184V185h136v656z m520 0H384V385h456v456z m0-520H384V185h456v136z"  /></svg>