<?xml version="1.0" standalone="no"?><!DOCTYPE svg PUBLIC "-//W3C//DTD SVG 1.1//EN" "http://www.w3.org/Graphics/SVG/1.1/DTD/svg11.dtd"><svg class="icon" width="64px" height="64.00px" viewBox="0 0 1024 1024" version="1.1" xmlns="http://www.w3.org/2000/svg"><path d="M477.5 536.3L135.9 270.7l-27.5-21.4 27.6 21.5V792h752V270.8L546.2 536.3c-20.2 15.7-48.5 15.7-68.7 0z" fill="#D9D9D9" /><path d="M876.3 198.8l39.3 50.5-27.6 21.5 27.7-21.5-39.3-50.5z" fill="#D9D9D9" /><path d="M928 160H96c-17.7 0-32 14.3-32 32v640c0 17.7 14.3 32 32 32h832c17.7 0 32-14.3 32-32V192c0-17.7-14.3-32-32-32z m-94.5 72.1L512 482 190.5 232.1h643z m54.5 38.7V792H136V270.8l-27.6-21.5 27.5 21.4 341.6 265.6c20.2 15.7 48.5 15.7 68.7 0L888 270.8l27.6-21.5-39.3-50.5h0.1l39.3 50.5-27.7 21.5z"  /></svg>