<?xml version="1.0" standalone="no"?><!DOCTYPE svg PUBLIC "-//W3C//DTD SVG 1.1//EN" "http://www.w3.org/Graphics/SVG/1.1/DTD/svg11.dtd"><svg class="icon" width="64px" height="64.00px" viewBox="0 0 1024 1024" version="1.1" xmlns="http://www.w3.org/2000/svg"><path d="M928 160H96c-17.7 0-32 14.3-32 32v640c0 17.7 14.3 32 32 32h832c17.7 0 32-14.3 32-32V192c0-17.7-14.3-32-32-32z m-40 632H136v-39.9l138.5-164.3 150.1 178L658.1 489 888 761.6V792z m0-129.8L664.2 396.8c-3.2-3.8-9-3.8-12.2 0L424.6 666.4l-144-170.7c-3.2-3.8-9-3.8-12.2 0L136 652.7V232h752v430.2z" fill="#333333" /><path d="M424.6 765.8l-150.1-178L136 752.1V792h752v-30.4L658.1 489z" fill="#E6E6E6" /><path d="M136 652.7l132.4-157c3.2-3.8 9-3.8 12.2 0l144 170.7L652 396.8c3.2-3.8 9-3.8 12.2 0L888 662.2V232H136v420.7zM304 280c48.6 0 88 39.4 88 88s-39.4 88-88 88-88-39.4-88-88 39.4-88 88-88z" fill="#E6E6E6" /><path d="M304 368m-28 0a28 28 0 1 0 56 0 28 28 0 1 0-56 0Z" fill="#E6E6E6" /><path d="M304 456c48.6 0 88-39.4 88-88s-39.4-88-88-88-88 39.4-88 88 39.4 88 88 88z m0-116c15.5 0 28 12.5 28 28s-12.5 28-28 28-28-12.5-28-28 12.5-28 28-28z" fill="#333333" /></svg>