<?xml version="1.0" standalone="no"?><!DOCTYPE svg PUBLIC "-//W3C//DTD SVG 1.1//EN" "http://www.w3.org/Graphics/SVG/1.1/DTD/svg11.dtd"><svg class="icon" width="64px" height="64.00px" viewBox="0 0 1024 1024" version="1.1" xmlns="http://www.w3.org/2000/svg"><path d="M512 64C264.6 64 64 264.6 64 512s200.6 448 448 448 448-200.6 448-448S759.4 64 512 64z m0 820c-205.4 0-372-166.6-372-372s166.6-372 372-372 372 166.6 372 372-166.6 372-372 372z" fill="#333333" /><path d="M512 140c-205.4 0-372 166.6-372 372s166.6 372 372 372 372-166.6 372-372-166.6-372-372-372z m164.1 378.2L457.7 677.1c-1.4 1-3 1.5-4.7 1.5-4.4 0-8-3.6-8-8V353c0-1.7 0.5-3.3 1.5-4.7 2.6-3.6 7.6-4.4 11.2-1.8l218.4 158.8c0.7 0.5 1.3 1.1 1.8 1.8 2.6 3.5 1.8 8.5-1.8 11.1z" fill="#E6E6E6" /><path d="M676.1 505.3L457.7 346.5c-3.6-2.6-8.6-1.8-11.2 1.8-1 1.4-1.5 3-1.5 4.7v317.6c0 4.4 3.6 8 8 8 1.7 0 3.3-0.5 4.7-1.5l218.4-158.9c3.6-2.6 4.4-7.6 1.8-11.1-0.5-0.7-1.1-1.3-1.8-1.8z" fill="#333333" /></svg>