<?xml version="1.0" standalone="no"?><!DOCTYPE svg PUBLIC "-//W3C//DTD SVG 1.1//EN" "http://www.w3.org/Graphics/SVG/1.1/DTD/svg11.dtd"><svg class="icon" width="64px" height="64.00px" viewBox="0 0 1024 1024" version="1.1" xmlns="http://www.w3.org/2000/svg"><path d="M360 180h304v152H360zM852 400H172c-6.6 0-12 5.4-12 12v292h132V500h440v204h132V412c0-6.6-5.4-12-12-12z m-24 84c0 4.4-3.6 8-8 8h-40c-4.4 0-8-3.6-8-8v-40c0-4.4 3.6-8 8-8h40c4.4 0 8 3.6 8 8v40z" fill="#D9D9D9" /><path d="M852 332H732V120c0-4.4-3.6-8-8-8H300c-4.4 0-8 3.6-8 8v212H172c-44.2 0-80 35.8-80 80v328c0 17.7 14.3 32 32 32h168v132c0 4.4 3.6 8 8 8h424c4.4 0 8-3.6 8-8V772h168c17.7 0 32-14.3 32-32V412c0-44.2-35.8-80-80-80zM360 180h304v152H360V180z m304 664H360V568h304v276z m200-140H732V500H292v204H160V412c0-6.6 5.4-12 12-12h680c6.6 0 12 5.4 12 12v292z"  /><path d="M820 436h-40c-4.4 0-8 3.6-8 8v40c0 4.4 3.6 8 8 8h40c4.4 0 8-3.6 8-8v-40c0-4.4-3.6-8-8-8z"  /></svg>