<?xml version="1.0" standalone="no"?><!DOCTYPE svg PUBLIC "-//W3C//DTD SVG 1.1//EN" "http://www.w3.org/Graphics/SVG/1.1/DTD/svg11.dtd"><svg class="icon" width="64px" height="64.00px" viewBox="0 0 1024 1024" version="1.1" xmlns="http://www.w3.org/2000/svg"><path d="M880 112H144c-17.7 0-32 14.3-32 32v736c0 17.7 14.3 32 32 32h736c17.7 0 32-14.3 32-32V144c0-17.7-14.3-32-32-32z m-40 728H184V184h656v656z" fill="#333333" /><path d="M184 840h656V184H184v656z m300-496c0-4.4 3.6-8 8-8h184c4.4 0 8 3.6 8 8v48c0 4.4-3.6 8-8 8H492c-4.4 0-8-3.6-8-8v-48z m0 144c0-4.4 3.6-8 8-8h184c4.4 0 8 3.6 8 8v48c0 4.4-3.6 8-8 8H492c-4.4 0-8-3.6-8-8v-48z m0 144c0-4.4 3.6-8 8-8h184c4.4 0 8 3.6 8 8v48c0 4.4-3.6 8-8 8H492c-4.4 0-8-3.6-8-8v-48zM380 328c22.1 0 40 17.9 40 40s-17.9 40-40 40-40-17.9-40-40 17.9-40 40-40z m0 144c22.1 0 40 17.9 40 40s-17.9 40-40 40-40-17.9-40-40 17.9-40 40-40z m0 144c22.1 0 40 17.9 40 40s-17.9 40-40 40-40-17.9-40-40 17.9-40 40-40z" fill="#E6E6E6" /><path d="M380 656m-40 0a40 40 0 1 0 80 0 40 40 0 1 0-80 0Z" fill="#333333" /><path d="M380 512m-40 0a40 40 0 1 0 80 0 40 40 0 1 0-80 0Z" fill="#333333" /><path d="M380 368m-40 0a40 40 0 1 0 80 0 40 40 0 1 0-80 0Z" fill="#333333" /><path d="M492 688h184c4.4 0 8-3.6 8-8v-48c0-4.4-3.6-8-8-8H492c-4.4 0-8 3.6-8 8v48c0 4.4 3.6 8 8 8zM492 544h184c4.4 0 8-3.6 8-8v-48c0-4.4-3.6-8-8-8H492c-4.4 0-8 3.6-8 8v48c0 4.4 3.6 8 8 8zM492 400h184c4.4 0 8-3.6 8-8v-48c0-4.4-3.6-8-8-8H492c-4.4 0-8 3.6-8 8v48c0 4.4 3.6 8 8 8z" fill="#333333" /></svg>