<?xml version="1.0" standalone="no"?><!DOCTYPE svg PUBLIC "-//W3C//DTD SVG 1.1//EN" "http://www.w3.org/Graphics/SVG/1.1/DTD/svg11.dtd"><svg class="icon" width="64px" height="64.00px" viewBox="0 0 1024 1024" version="1.1" xmlns="http://www.w3.org/2000/svg"><path d="M261.7 621.4c-9.4 14.6-17 30.3-22.5 46.6H324V558.7c-24.8 16.2-46 37.5-62.3 62.7zM700 558.7V668h84.8c-5.5-16.3-13.1-32-22.5-46.6-16.2-25.2-37.5-46.5-62.3-62.7zM636 318.8l-124-147-124 147V668h248V318.8zM512 448c-26.5 0-48-21.5-48-48s21.5-48 48-48 48 21.5 48 48-21.5 48-48 48z" fill="#D9D9D9" /><path d="M864 736c0-111.6-65.4-208-160-252.9V317.3c0-15.1-5.3-29.7-15.1-41.2L536.5 95.4C530.1 87.8 521 84 512 84s-18.1 3.8-24.5 11.4L335.1 276.1c-9.7 11.5-15.1 26.1-15.1 41.2v165.8C225.4 528 160 624.4 160 736h156.5c-2.3 7.2-3.5 15-3.5 23.8 0 22.1 7.6 43.7 21.4 60.8 11.3 14 26.2 24.6 43.1 30.6 23.1 54 75.6 88.8 134.5 88.8 29.1 0 57.3-8.6 81.4-24.8 23.6-15.8 41.9-37.9 53-64 16.9-6 31.8-16.5 43.1-30.5 13.8-17.2 21.4-38.8 21.4-60.8 0-8.4-1.1-16.4-3.1-23.8L864 736z m-540-68h-84.8c5.5-16.3 13.1-32 22.5-46.6 16.3-25.2 37.5-46.5 62.3-62.7V668z m64-184.9V318.8l124-147 124 147V668H388V483.1z m240.1 301.1c-5.2 3-11.2 4.2-17.1 3.4l-19.5-2.4-2.8 19.4c-5.4 37.9-38.4 66.5-76.7 66.5s-71.3-28.6-76.7-66.5l-2.8-19.5-19.5 2.5c-1 0.1-2.1 0.2-3.3 0.2-4.9 0-9.6-1.3-13.8-3.7-8.7-5-14.1-14.3-14.1-24.4 0-10.6 5.9-19.4 14.6-23.8h231.3c8.8 4.5 14.6 13.3 14.6 23.8-0.1 10.2-5.5 19.6-14.2 24.5zM700 668V558.7c24.8 16.2 46.1 37.5 62.3 62.7 9.4 14.6 17 30.3 22.5 46.6H700z"  /><path d="M512 400m-48 0a48 48 0 1 0 96 0 48 48 0 1 0-96 0Z"  /></svg>