<?xml version="1.0" standalone="no"?><!DOCTYPE svg PUBLIC "-//W3C//DTD SVG 1.1//EN" "http://www.w3.org/Graphics/SVG/1.1/DTD/svg11.dtd"><svg class="icon" width="64px" height="64.00px" viewBox="0 0 1024 1024" version="1.1" xmlns="http://www.w3.org/2000/svg"><path d="M704 320c0 17.7-14.3 32-32 32H352c-17.7 0-32-14.3-32-32V184H184v656h656V341.8l-136-136V320zM512 730c-79.5 0-144-64.5-144-144s64.5-144 144-144 144 64.5 144 144-64.5 144-144 144z" fill="#D9D9D9" /><path d="M512 442c-79.5 0-144 64.5-144 144s64.5 144 144 144 144-64.5 144-144-64.5-144-144-144z m0 224c-44.2 0-80-35.8-80-80s35.8-80 80-80 80 35.8 80 80-35.8 80-80 80z"  /><path d="M893.3 293.3L730.7 130.7c-0.7-0.7-1.4-1.3-2.1-2-0.1-0.1-0.3-0.2-0.4-0.3-0.7-0.7-1.5-1.3-2.2-1.9-6.5-5.3-14-9.3-22-11.7V112H144c-17.7 0-32 14.3-32 32v736c0 17.7 14.3 32 32 32h736c17.7 0 32-14.3 32-32V338.5c0-17-6.7-33.2-18.7-45.2zM384 184h256v104H384V184z m456 656H184V184h136v136c0 17.7 14.3 32 32 32h320c17.7 0 32-14.3 32-32V205.8l136 136V840z"  /></svg>