<?xml version="1.0" standalone="no"?><!DOCTYPE svg PUBLIC "-//W3C//DTD SVG 1.1//EN" "http://www.w3.org/Graphics/SVG/1.1/DTD/svg11.dtd"><svg class="icon" width="64px" height="64.00px" viewBox="0 0 1024 1024" version="1.1" xmlns="http://www.w3.org/2000/svg"><path d="M859.3 569.7l0.2 0.1c3.1-18.9 4.6-38.2 4.6-57.3 0-17.1-1.3-34.3-3.7-51.1 2.4 16.7 3.6 33.6 3.6 50.5 0 19.4-1.6 38.8-4.7 57.8zM99 398.1c-0.5-0.4-0.9-0.8-1.4-1.3 0.7 0.7 1.4 1.4 2.2 2.1l65.5 55.9v-0.1L99 398.1zM635.6 182.1h0.1l-15.5-83.8c-0.2-1-0.4-1.9-0.7-2.8 0.1 0.5 0.3 1.1 0.4 1.6l15.7 85zM689.6 728.6l31.4-25.8 92.8 32.9c17-22.9 31.3-47.5 42.6-73.6l-74.7-63.9 6.6-40.1c2.5-15.1 3.8-30.6 3.8-46.1s-1.3-31-3.8-46.1l-6.5-39.9 74.7-63.9c-11.4-26-25.6-50.7-42.6-73.6l-92.8 32.9-31.4-25.8c-23.9-19.6-50.6-35-79.3-45.8l-38.1-14.3-17.9-97c-28.2-3.2-56.9-3.2-85 0l-17.9 97.2-37.9 14.3c-28.5 10.8-55 26.2-78.7 45.7l-31.4 25.9-93.4-33.2c-17 22.9-31.3 47.5-42.6 73.6l75.5 64.5-6.5 40c-2.5 14.9-3.7 30.2-3.7 45.5 0 15.2 1.3 30.6 3.7 45.5l6.5 40-75.5 64.5c11.4 26 25.6 50.7 42.6 73.6l93.4-33.2 31.4 25.9c23.7 19.5 50.2 34.9 78.7 45.7l37.8 14.5 17.9 97.2c28.2 3.2 56.9 3.2 85 0l17.9-97 38.1-14.3c28.8-10.8 55.4-26.2 79.3-45.8z m-177.1-50.3c-30.5 0-59.2-7.8-84.3-21.5C373.3 627 336 568.9 336 502c0-97.2 78.8-176 176-176 66.9 0 125 37.3 154.8 92.2 13.7 25 21.5 53.7 21.5 84.3 0 97.1-78.7 175.8-175.8 175.8zM207.2 812.8c-5.5 1.9-11.2 2.3-16.6 1.2 5.7 1.2 11.7 1 17.5-1l81.4-29c-0.1-0.1-0.3-0.2-0.4-0.3l-81.9 29.1zM924.8 398.1l-65.5 56c0 0.2 0.1 0.5 0.1 0.7l65.4-55.9c7.1-6.1 11.1-14.9 11.2-24-0.3 8.8-4.3 17.3-11.2 23.2z" fill="#D9D9D9" /><path d="M935.8 646.6c0.5 4.7 0 9.5-1.7 14.1l-0.9 2.6c-18.1 50.4-44.9 96.8-79.7 137.9l-1.8 2.1c-8.6 10.2-22.6 13.9-35.1 9.5l-81.3-28.9c-30 24.7-63.5 44-99.7 57.6l-15.7 85c-2.4 13.1-12.7 23.3-25.8 25.7l-2.7 0.5c-25.9 4.7-52.6 7.1-79.2 7.1h0.3c26.7 0 53.4-2.4 79.4-7.1l2.7-0.5c13.1-2.4 23.4-12.6 25.8-25.7l15.7-84.9c36.2-13.6 69.6-32.9 99.6-57.5l81.2 28.9c12.5 4.4 26.5 0.7 35.1-9.5l1.8-2.1c34.8-41.1 61.5-87.4 79.6-137.7l0.9-2.6c1.6-4.7 2.1-9.7 1.5-14.5z" fill="#D9D9D9" /><path d="M688 502c0-30.3-7.7-58.9-21.2-83.8C637 363.3 578.9 326 512 326c-97.2 0-176 78.8-176 176 0 66.9 37.3 125 92.2 154.8 24.9 13.5 53.4 21.2 83.8 21.2 97.2 0 176-78.8 176-176z m-288 0c0-29.9 11.7-58 32.8-79.2C454 401.6 482.1 390 512 390c29.9 0 58 11.6 79.2 32.8C612.3 444 624 472.1 624 502c0 29.9-11.7 58-32.8 79.2C570 602.3 541.9 614 512 614c-29.9 0-58-11.7-79.2-32.8C411.7 560 400 531.9 400 502z"  /><path d="M594.1 952.2c13.1-2.4 23.4-12.6 25.8-25.7l15.7-85c36.2-13.6 69.7-32.9 99.7-57.6l81.3 28.9c12.5 4.4 26.5 0.7 35.1-9.5l1.8-2.1c34.8-41.1 61.6-87.5 79.7-137.9l0.9-2.6c1.7-4.6 2.2-9.4 1.7-14.1-0.9-7.9-4.7-15.4-11-20.9l-65.3-55.9-0.2-0.1c3.1-19 4.7-38.4 4.7-57.8 0-16.9-1.2-33.9-3.6-50.5-0.3-2.2-0.7-4.4-1-6.6 0-0.2-0.1-0.5-0.1-0.7l65.5-56c6.9-5.9 10.9-14.4 11.2-23.2 0.1-4-0.5-8.1-1.9-12l-0.9-2.6c-18.1-50.5-44.9-96.9-79.7-137.9l-1.8-2.1c-8.6-10.1-22.5-13.9-35.1-9.5l-81.3 28.9c-30-24.6-63.4-44-99.6-57.6h-0.1l-15.7-85c-0.1-0.5-0.2-1.1-0.4-1.6-2.9-12.3-12.9-21.8-25.4-24.1l-2.7-0.5c-52.1-9.4-106.9-9.4-159 0l-2.7 0.5c-13.1 2.4-23.4 12.6-25.8 25.7l-15.8 85.4c-35.9 13.6-69.2 32.9-99 57.4l-81.9-29.1c-12.5-4.4-26.5-0.7-35.1 9.5l-1.8 2.1c-34.8 41.1-61.6 87.5-79.7 137.9l-0.9 2.6c-4.3 11.9-1.1 25.2 7.9 33.9 0.5 0.4 0.9 0.9 1.4 1.3l66.3 56.6v0.1c-3.1 18.8-4.6 37.9-4.6 57 0 19.2 1.5 38.4 4.6 57.1L99 625.5c-10.1 8.6-13.8 22.6-9.3 35.2l0.9 2.6c18.1 50.4 44.9 96.9 79.7 137.9l1.8 2.1c4.9 5.7 11.4 9.4 18.5 10.7 5.4 1 11.1 0.7 16.6-1.2l81.9-29.1c0.1 0.1 0.3 0.2 0.4 0.3 29.7 24.3 62.8 43.6 98.6 57.1l15.8 85.4c2.4 13.1 12.7 23.3 25.8 25.7l2.7 0.5c26.1 4.7 52.8 7.1 79.5 7.1h0.3c26.6 0 53.3-2.4 79.2-7.1l2.7-0.5z m-39.8-66.5c-28.1 3.2-56.8 3.2-85 0l-17.9-97.2-37.8-14.5c-28.5-10.8-55-26.2-78.7-45.7l-31.4-25.9-93.4 33.2c-17-22.9-31.2-47.6-42.6-73.6l75.5-64.5-6.5-40c-2.4-14.9-3.7-30.3-3.7-45.5 0-15.3 1.2-30.6 3.7-45.5l6.5-40-75.5-64.5c11.3-26.1 25.6-50.7 42.6-73.6l93.4 33.2 31.4-25.9c23.7-19.5 50.2-34.9 78.7-45.7l37.9-14.3 17.9-97.2c28.1-3.2 56.8-3.2 85 0l17.9 97 38.1 14.3c28.7 10.8 55.4 26.2 79.3 45.8l31.4 25.8 92.8-32.9c17 22.9 31.2 47.6 42.6 73.6L781.8 426l6.5 39.9c2.5 15.1 3.8 30.6 3.8 46.1s-1.3 31-3.8 46.1l-6.6 40.1 74.7 63.9c-11.3 26.1-25.6 50.7-42.6 73.6L721 702.8l-31.4 25.8c-23.9 19.6-50.5 35-79.3 45.8l-38.1 14.3-17.9 97z"  /></svg>