<?xml version="1.0" standalone="no"?><!DOCTYPE svg PUBLIC "-//W3C//DTD SVG 1.1//EN" "http://www.w3.org/Graphics/SVG/1.1/DTD/svg11.dtd"><svg class="icon" width="64px" height="64.00px" viewBox="0 0 1024 1024" version="1.1" xmlns="http://www.w3.org/2000/svg"><path d="M800 64H224c-35.3 0-64 28.7-64 64v768c0 35.3 28.7 64 64 64h576c35.3 0 64-28.7 64-64V128c0-35.3-28.7-64-64-64z m-8 824H232V136h560v752z" fill="#333333" /><path d="M232 888h560V136H232v752z m280-144c22.1 0 40 17.9 40 40s-17.9 40-40 40-40-17.9-40-40 17.9-40 40-40z" fill="#E6E6E6" /><path d="M512 784m-40 0a40 40 0 1 0 80 0 40 40 0 1 0-80 0Z" fill="#333333" /></svg>