<?xml version="1.0" standalone="no"?><!DOCTYPE svg PUBLIC "-//W3C//DTD SVG 1.1//EN" "http://www.w3.org/Graphics/SVG/1.1/DTD/svg11.dtd"><svg class="icon" width="64px" height="64.00px" viewBox="0 0 1024 1024" version="1.1" xmlns="http://www.w3.org/2000/svg"><path fill="#333333" d="M296 250c-4.4 0-8 3.6-8 8v48c0 4.4 3.6 8 8 8h384c4.4 0 8-3.6 8-8v-48c0-4.4-3.6-8-8-8H296zM480 394H296c-4.4 0-8 3.6-8 8v48c0 4.4 3.6 8 8 8h184c4.4 0 8-3.6 8-8v-48c0-4.4-3.6-8-8-8zM432 852H208V148h560v320c0 4.4 3.6 8 8 8h56c4.4 0 8-3.6 8-8V108c0-17.7-14.3-32-32-32H168c-17.7 0-32 14.3-32 32v784c0 17.7 14.3 32 32 32h264c4.4 0 8-3.6 8-8v-56c0-4.4-3.6-8-8-8zM872 764H728v-36.6c46.3-13.8 80-56.6 80-107.4 0-61.9-50.1-112-112-112s-112 50.1-112 112c0 50.7 33.7 93.6 80 107.4V764H520c-8.8 0-16 7.2-16 16v152c0 8.8 7.2 16 16 16h352c8.8 0 16-7.2 16-16V780c0-8.8-7.2-16-16-16zM646 620c0-27.6 22.4-50 50-50s50 22.4 50 50-22.4 50-50 50-50-22.4-50-50z m180 266H566v-60h260v60z" /></svg>