<?xml version="1.0" standalone="no"?><!DOCTYPE svg PUBLIC "-//W3C//DTD SVG 1.1//EN" "http://www.w3.org/Graphics/SVG/1.1/DTD/svg11.dtd"><svg class="icon" width="64px" height="64.00px" viewBox="0 0 1024 1024" version="1.1" xmlns="http://www.w3.org/2000/svg"><path fill="#333333" d="M120 160H72c-4.4 0-8 3.6-8 8v688c0 4.4 3.6 8 8 8h48c4.4 0 8-3.6 8-8V168c0-4.4-3.6-8-8-8zM953 160h-48c-4.4 0-8 3.6-8 8v688c0 4.4 3.6 8 8 8h48c4.4 0 8-3.6 8-8V168c0-4.4-3.6-8-8-8zM200 736h112c4.4 0 8-3.6 8-8V168c0-4.4-3.6-8-8-8H200c-4.4 0-8 3.6-8 8v560c0 4.4 3.6 8 8 8zM521 736h48c4.4 0 8-3.6 8-8V168c0-4.4-3.6-8-8-8h-48c-4.4 0-8 3.6-8 8v560c0 4.4 3.6 8 8 8zM647 736h178c4.4 0 8-3.6 8-8V168c0-4.4-3.6-8-8-8H647c-4.4 0-8 3.6-8 8v560c0 4.4 3.6 8 8 8zM392 736h48c4.4 0 8-3.6 8-8V168c0-4.4-3.6-8-8-8h-48c-4.4 0-8 3.6-8 8v560c0 4.4 3.6 8 8 8zM313 800H201c-4.4 0-8 3.6-8 8v48c0 4.4 3.6 8 8 8h112c4.4 0 8-3.6 8-8v-48c0-4.4-3.6-8-8-8zM570 800h-48c-4.4 0-8 3.6-8 8v48c0 4.4 3.6 8 8 8h48c4.4 0 8-3.6 8-8v-48c0-4.4-3.6-8-8-8zM826 800H648c-4.4 0-8 3.6-8 8v48c0 4.4 3.6 8 8 8h178c4.4 0 8-3.6 8-8v-48c0-4.4-3.6-8-8-8zM441 800h-48c-4.4 0-8 3.6-8 8v48c0 4.4 3.6 8 8 8h48c4.4 0 8-3.6 8-8v-48c0-4.4-3.6-8-8-8z" /></svg>