<?xml version="1.0" standalone="no"?><!DOCTYPE svg PUBLIC "-//W3C//DTD SVG 1.1//EN" "http://www.w3.org/Graphics/SVG/1.1/DTD/svg11.dtd"><svg class="icon" width="64px" height="64.00px" viewBox="0 0 1024 1024" version="1.1" xmlns="http://www.w3.org/2000/svg"><path fill="#333333" d="M740 161c-61.8 0-112 50.2-112 112 0 50.1 33.1 92.6 78.5 106.9v95.9L320 602.4V318.1c44.2-15 76-56.9 76-106.1 0-61.8-50.2-112-112-112s-112 50.2-112 112c0 49.2 31.8 91 76 106.1V706c-44.2 15-76 56.9-76 106.1 0 61.8 50.2 112 112 112s112-50.2 112-112c0-49.2-31.8-91-76-106.1v-27.8l423.5-138.7c20.9-6.8 34.9-26.2 34.9-48.2V378.2c42.9-15.8 73.6-57 73.6-105.2 0-61.8-50.2-112-112-112z m-504 51c0-26.5 21.5-48 48-48s48 21.5 48 48-21.5 48-48 48-48-21.5-48-48z m96 600c0 26.5-21.5 48-48 48s-48-21.5-48-48 21.5-48 48-48 48 21.5 48 48z m408-491c-26.5 0-48-21.5-48-48s21.5-48 48-48 48 21.5 48 48-21.5 48-48 48z" /></svg>