<?xml version="1.0" standalone="no"?><!DOCTYPE svg PUBLIC "-//W3C//DTD SVG 1.1//EN" "http://www.w3.org/Graphics/SVG/1.1/DTD/svg11.dtd"><svg class="icon" width="64px" height="64.00px" viewBox="0 0 1024 1024" version="1.1" xmlns="http://www.w3.org/2000/svg"><path fill="#333333" d="M632 888H392c-4.4 0-8 3.6-8 8v32c0 17.7 14.3 32 32 32h192c17.7 0 32-14.3 32-32v-32c0-4.4-3.6-8-8-8zM512 64c-181.1 0-328 146.9-328 328 0 121.4 66 227.4 164 284.1V792c0 17.7 14.3 32 32 32h264c17.7 0 32-14.3 32-32V676.1c98-56.7 164-162.7 164-284.1 0-181.1-146.9-328-328-328z m127.9 549.8L604 634.6V752H420V634.6l-35.9-20.8C305.4 568.3 256 484.5 256 392c0-141.4 114.6-256 256-256s256 114.6 256 256c0 92.5-49.4 176.3-128.1 221.8z" /></svg>