<?xml version="1.0" standalone="no"?><!DOCTYPE svg PUBLIC "-//W3C//DTD SVG 1.1//EN" "http://www.w3.org/Graphics/SVG/1.1/DTD/svg11.dtd"><svg class="icon" width="64px" height="64.00px" viewBox="0 0 1024 1024" version="1.1" xmlns="http://www.w3.org/2000/svg"><path fill="#333333" d="M880 184H712v-64c0-4.4-3.6-8-8-8h-56c-4.4 0-8 3.6-8 8v64H384v-64c0-4.4-3.6-8-8-8h-56c-4.4 0-8 3.6-8 8v64H144c-17.7 0-32 14.3-32 32v664c0 17.7 14.3 32 32 32h736c17.7 0 32-14.3 32-32V216c0-17.7-14.3-32-32-32z m-40 656H184V256h128v48c0 4.4 3.6 8 8 8h56c4.4 0 8-3.6 8-8v-48h256v48c0 4.4 3.6 8 8 8h56c4.4 0 8-3.6 8-8v-48h128v584zM688 420h-55.2c-5.1 0-10 2.5-13 6.6L468.9 634.4l-64.7-89c-3-4.1-7.8-6.6-13-6.6H336c-6.5 0-10.3 7.4-6.5 12.7l126.4 174c6.4 8.8 19.6 8.8 26 0l212.6-292.7c3.8-5.4 0-12.8-6.5-12.8z" /></svg>