<?xml version="1.0" standalone="no"?><!DOCTYPE svg PUBLIC "-//W3C//DTD SVG 1.1//EN" "http://www.w3.org/Graphics/SVG/1.1/DTD/svg11.dtd"><svg class="icon" width="64px" height="64.00px" viewBox="0 0 1024 1024" version="1.1" xmlns="http://www.w3.org/2000/svg"><path fill="#333333" d="M516 673c0 4.4 3.4 8 7.5 8h185c4.1 0 7.5-3.6 7.5-8v-48c0-4.4-3.4-8-7.5-8h-185c-4.1 0-7.5 3.6-7.5 8v48zM321.1 679.1l192-161c3.8-3.2 3.8-9.1 0-12.3l-192-160.9c-5.2-4.4-13.1-0.7-13.1 6.1v62.7c0 2.4 1 4.6 2.9 6.1L420.7 512l-109.8 92.2c-1.8 1.5-2.9 3.8-2.9 6.1V673c0 6.8 7.9 10.5 13.1 6.1zM880 112H144c-17.7 0-32 14.3-32 32v736c0 17.7 14.3 32 32 32h736c17.7 0 32-14.3 32-32V144c0-17.7-14.3-32-32-32z m-40 728H184V184h656v656z" /></svg>