<?xml version="1.0" standalone="no"?><!DOCTYPE svg PUBLIC "-//W3C//DTD SVG 1.1//EN" "http://www.w3.org/Graphics/SVG/1.1/DTD/svg11.dtd"><svg class="icon" width="64px" height="64.00px" viewBox="0 0 1024 1024" version="1.1" xmlns="http://www.w3.org/2000/svg"><path fill="#333333" d="M880 112H144c-17.7 0-32 14.3-32 32v736c0 17.7 14.3 32 32 32h736c17.7 0 32-14.3 32-32V144c0-17.7-14.3-32-32-32z m-40 728H184V184h656v656zM340 683v77c0 4.4 3.6 8 8 8h48c4.4 0 8-3.6 8-8v-77c-10.1 3.3-20.8 5-32 5s-21.9-1.8-32-5zM404 485V264c0-4.4-3.6-8-8-8h-48c-4.4 0-8 3.6-8 8v221c10.1-3.3 20.8-5 32-5s21.9 1.8 32 5zM340 683c10.1 3.3 20.8 5 32 5s21.9-1.8 32-5c41.8-13.5 72-52.7 72-99s-30.2-85.5-72-99c-10.1-3.3-20.8-5-32-5s-21.9 1.8-32 5c-41.8 13.5-72 52.7-72 99s30.2 85.5 72 99z m0.1-115.7c0.3-0.6 0.7-1.2 1-1.8v-0.1l1.2-1.8c0.1-0.2 0.2-0.3 0.3-0.5 0.3-0.5 0.7-0.9 1-1.4 0.1-0.1 0.2-0.3 0.3-0.4 0.5-0.6 0.9-1.1 1.4-1.6l0.3-0.3 1.2-1.2 0.4-0.4c0.5-0.5 1-0.9 1.6-1.4 0.6-0.5 1.1-0.9 1.7-1.3 0.2-0.1 0.3-0.2 0.5-0.3 0.5-0.3 0.9-0.7 1.4-1 0.1-0.1 0.3-0.2 0.4-0.3 0.6-0.4 1.2-0.7 1.9-1.1 0.1-0.1 0.3-0.1 0.4-0.2 0.5-0.3 1-0.5 1.6-0.8l0.6-0.3c0.7-0.3 1.3-0.6 2-0.8 0.7-0.3 1.4-0.5 2.1-0.7 0.2-0.1 0.4-0.1 0.6-0.2 0.6-0.2 1.1-0.3 1.7-0.4 0.2 0 0.3-0.1 0.5-0.1 0.7-0.2 1.5-0.3 2.2-0.4 0.2 0 0.3 0 0.5-0.1 0.6-0.1 1.2-0.1 1.8-0.2h0.6c0.8 0 1.5-0.1 2.3-0.1s1.5 0 2.3 0.1h0.6c0.6 0 1.2 0.1 1.8 0.2 0.2 0 0.3 0 0.5 0.1 0.7 0.1 1.5 0.2 2.2 0.4 0.2 0 0.3 0.1 0.5 0.1 0.6 0.1 1.2 0.3 1.7 0.4 0.2 0.1 0.4 0.1 0.6 0.2 0.7 0.2 1.4 0.4 2.1 0.7 0.7 0.2 1.3 0.5 2 0.8l0.6 0.3c0.5 0.2 1.1 0.5 1.6 0.8 0.1 0.1 0.3 0.1 0.4 0.2 0.6 0.3 1.3 0.7 1.9 1.1 0.1 0.1 0.3 0.2 0.4 0.3 0.5 0.3 1 0.6 1.4 1 0.2 0.1 0.3 0.2 0.5 0.3 0.6 0.4 1.2 0.9 1.7 1.3s1.1 0.9 1.6 1.4l0.4 0.4 1.2 1.2 0.3 0.3c0.5 0.5 1 1.1 1.4 1.6 0.1 0.1 0.2 0.3 0.3 0.4 0.4 0.4 0.7 0.9 1 1.4 0.1 0.2 0.2 0.3 0.3 0.5l1.2 1.8s0 0.1 0.1 0.1c0.4 0.6 0.7 1.2 1 1.8 2.6 5 4.1 10.7 4.1 16.7s-1.5 11.7-4.1 16.7c-0.3 0.6-0.7 1.2-1 1.8 0 0 0 0.1-0.1 0.1l-1.2 1.8c-0.1 0.2-0.2 0.3-0.3 0.5-0.3 0.5-0.7 0.9-1 1.4-0.1 0.1-0.2 0.3-0.3 0.4-0.5 0.6-0.9 1.1-1.4 1.6l-0.3 0.3-1.2 1.2-0.4 0.4c-0.5 0.5-1 0.9-1.6 1.4-0.6 0.5-1.1 0.9-1.7 1.3-0.2 0.1-0.3 0.2-0.5 0.3-0.5 0.3-0.9 0.7-1.4 1-0.1 0.1-0.3 0.2-0.4 0.3-0.6 0.4-1.2 0.7-1.9 1.1-0.1 0.1-0.3 0.1-0.4 0.2-0.5 0.3-1 0.5-1.6 0.8l-0.6 0.3c-0.7 0.3-1.3 0.6-2 0.8-0.7 0.3-1.4 0.5-2.1 0.7-0.2 0.1-0.4 0.1-0.6 0.2-0.6 0.2-1.1 0.3-1.7 0.4-0.2 0-0.3 0.1-0.5 0.1-0.7 0.2-1.5 0.3-2.2 0.4-0.2 0-0.3 0-0.5 0.1-0.6 0.1-1.2 0.1-1.8 0.2h-0.6c-0.8 0-1.5 0.1-2.3 0.1s-1.5 0-2.3-0.1h-0.6c-0.6 0-1.2-0.1-1.8-0.2-0.2 0-0.3 0-0.5-0.1-0.7-0.1-1.5-0.2-2.2-0.4-0.2 0-0.3-0.1-0.5-0.1-0.6-0.1-1.2-0.3-1.7-0.4-0.2-0.1-0.4-0.1-0.6-0.2-0.7-0.2-1.4-0.4-2.1-0.7-0.7-0.2-1.3-0.5-2-0.8l-0.6-0.3c-0.5-0.2-1.1-0.5-1.6-0.8-0.1-0.1-0.3-0.1-0.4-0.2-0.6-0.3-1.3-0.7-1.9-1.1-0.1-0.1-0.3-0.2-0.4-0.3-0.5-0.3-1-0.6-1.4-1-0.2-0.1-0.3-0.2-0.5-0.3-0.6-0.4-1.2-0.9-1.7-1.3s-1.1-0.9-1.6-1.4l-0.4-0.4-1.2-1.2-0.3-0.3c-0.5-0.5-1-1.1-1.4-1.6-0.1-0.1-0.2-0.3-0.3-0.4-0.4-0.4-0.7-0.9-1-1.4-0.1-0.2-0.2-0.3-0.3-0.5l-1.2-1.8v-0.1c-0.4-0.6-0.7-1.2-1-1.8-2.6-5-4.1-10.7-4.1-16.7s1.5-11.7 4.1-16.7zM620 539v221c0 4.4 3.6 8 8 8h48c4.4 0 8-3.6 8-8V539c-10.1 3.3-20.8 5-32 5s-21.9-1.8-32-5zM684 341v-77c0-4.4-3.6-8-8-8h-48c-4.4 0-8 3.6-8 8v77c10.1-3.3 20.8-5 32-5s21.9 1.8 32 5zM620 539c10.1 3.3 20.8 5 32 5s21.9-1.8 32-5c41.8-13.5 72-52.7 72-99s-30.2-85.5-72-99c-10.1-3.3-20.8-5-32-5s-21.9 1.8-32 5c-41.8 13.5-72 52.7-72 99s30.2 85.5 72 99z m0.1-115.7c0.3-0.6 0.7-1.2 1-1.8v-0.1l1.2-1.8c0.1-0.2 0.2-0.3 0.3-0.5 0.3-0.5 0.7-0.9 1-1.4 0.1-0.1 0.2-0.3 0.3-0.4 0.5-0.6 0.9-1.1 1.4-1.6l0.3-0.3 1.2-1.2 0.4-0.4c0.5-0.5 1-0.9 1.6-1.4 0.6-0.5 1.1-0.9 1.7-1.3 0.2-0.1 0.3-0.2 0.5-0.3 0.5-0.3 0.9-0.7 1.4-1 0.1-0.1 0.3-0.2 0.4-0.3 0.6-0.4 1.2-0.7 1.9-1.1 0.1-0.1 0.3-0.1 0.4-0.2 0.5-0.3 1-0.5 1.6-0.8l0.6-0.3c0.7-0.3 1.3-0.6 2-0.8 0.7-0.3 1.4-0.5 2.1-0.7 0.2-0.1 0.4-0.1 0.6-0.2 0.6-0.2 1.1-0.3 1.7-0.4 0.2 0 0.3-0.1 0.5-0.1 0.7-0.2 1.5-0.3 2.2-0.4 0.2 0 0.3 0 0.5-0.1 0.6-0.1 1.2-0.1 1.8-0.2h0.6c0.8 0 1.5-0.1 2.3-0.1s1.5 0 2.3 0.1h0.6c0.6 0 1.2 0.1 1.8 0.2 0.2 0 0.3 0 0.5 0.1 0.7 0.1 1.5 0.2 2.2 0.4 0.2 0 0.3 0.1 0.5 0.1 0.6 0.1 1.2 0.3 1.7 0.4 0.2 0.1 0.4 0.1 0.6 0.2 0.7 0.2 1.4 0.4 2.1 0.7 0.7 0.2 1.3 0.5 2 0.8l0.6 0.3c0.5 0.2 1.1 0.5 1.6 0.8 0.1 0.1 0.3 0.1 0.4 0.2 0.6 0.3 1.3 0.7 1.9 1.1 0.1 0.1 0.3 0.2 0.4 0.3 0.5 0.3 1 0.6 1.4 1 0.2 0.1 0.3 0.2 0.5 0.3 0.6 0.4 1.2 0.9 1.7 1.3s1.1 0.9 1.6 1.4l0.4 0.4 1.2 1.2 0.3 0.3c0.5 0.5 1 1.1 1.4 1.6 0.1 0.1 0.2 0.3 0.3 0.4 0.4 0.4 0.7 0.9 1 1.4 0.1 0.2 0.2 0.3 0.3 0.5l1.2 1.8v0.1c0.4 0.6 0.7 1.2 1 1.8 2.6 5 4.1 10.7 4.1 16.7s-1.5 11.7-4.1 16.7c-0.3 0.6-0.7 1.2-1 1.8v0.1l-1.2 1.8c-0.1 0.2-0.2 0.3-0.3 0.5-0.3 0.5-0.7 0.9-1 1.4-0.1 0.1-0.2 0.3-0.3 0.4-0.5 0.6-0.9 1.1-1.4 1.6l-0.3 0.3-1.2 1.2-0.4 0.4c-0.5 0.5-1 0.9-1.6 1.4-0.6 0.5-1.1 0.9-1.7 1.3-0.2 0.1-0.3 0.2-0.5 0.3-0.5 0.3-0.9 0.7-1.4 1-0.1 0.1-0.3 0.2-0.4 0.3-0.6 0.4-1.2 0.7-1.9 1.1-0.1 0.1-0.3 0.1-0.4 0.2-0.5 0.3-1 0.5-1.6 0.8l-0.6 0.3c-0.7 0.3-1.3 0.6-2 0.8-0.7 0.3-1.4 0.5-2.1 0.7-0.2 0.1-0.4 0.1-0.6 0.2-0.6 0.2-1.1 0.3-1.7 0.4-0.2 0-0.3 0.1-0.5 0.1-0.7 0.2-1.5 0.3-2.2 0.4-0.2 0-0.3 0-0.5 0.1-0.6 0.1-1.2 0.1-1.8 0.2h-0.6c-0.8 0-1.5 0.1-2.3 0.1s-1.5 0-2.3-0.1h-0.6c-0.6 0-1.2-0.1-1.8-0.2-0.2 0-0.3 0-0.5-0.1-0.7-0.1-1.5-0.2-2.2-0.4-0.2 0-0.3-0.1-0.5-0.1-0.6-0.1-1.2-0.3-1.7-0.4-0.2-0.1-0.4-0.1-0.6-0.2-0.7-0.2-1.4-0.4-2.1-0.7-0.7-0.2-1.3-0.5-2-0.8l-0.6-0.3c-0.5-0.2-1.1-0.5-1.6-0.8-0.1-0.1-0.3-0.1-0.4-0.2-0.6-0.3-1.3-0.7-1.9-1.1-0.1-0.1-0.3-0.2-0.4-0.3-0.5-0.3-1-0.6-1.4-1-0.2-0.1-0.3-0.2-0.5-0.3-0.6-0.4-1.2-0.9-1.7-1.3s-1.1-0.9-1.6-1.4l-0.4-0.4-1.2-1.2-0.3-0.3c-0.5-0.5-1-1.1-1.4-1.6-0.1-0.1-0.2-0.3-0.3-0.4-0.4-0.4-0.7-0.9-1-1.4-0.1-0.2-0.2-0.3-0.3-0.5l-1.2-1.8v-0.1c-0.4-0.6-0.7-1.2-1-1.8-2.6-5-4.1-10.7-4.1-16.7s1.5-11.7 4.1-16.7z" /></svg>