<?xml version="1.0" standalone="no"?><!DOCTYPE svg PUBLIC "-//W3C//DTD SVG 1.1//EN" "http://www.w3.org/Graphics/SVG/1.1/DTD/svg11.dtd"><svg class="icon" width="64px" height="64.00px" viewBox="0 0 1024 1024" version="1.1" xmlns="http://www.w3.org/2000/svg"><path fill="#333333" d="M928 160H96c-17.7 0-32 14.3-32 32v640c0 17.7 14.3 32 32 32h832c17.7 0 32-14.3 32-32V192c0-17.7-14.3-32-32-32z m-792 72h752v120H136V232z m752 560H136V440h752v352zM651 728h165c4.4 0 8-3.6 8-8v-72c0-4.4-3.6-8-8-8H651c-4.4 0-8 3.6-8 8v72c0 4.4 3.6 8 8 8z" /></svg>