<?xml version="1.0" standalone="no"?><!DOCTYPE svg PUBLIC "-//W3C//DTD SVG 1.1//EN" "http://www.w3.org/Graphics/SVG/1.1/DTD/svg11.dtd"><svg class="icon" width="64px" height="64.00px" viewBox="0 0 1024 1024" version="1.1" xmlns="http://www.w3.org/2000/svg"><path fill="#333333" d="M888 792H200V168c0-4.4-3.6-8-8-8h-56c-4.4 0-8 3.6-8 8v688c0 4.4 3.6 8 8 8h752c4.4 0 8-3.6 8-8v-56c0-4.4-3.6-8-8-8zM352 604m-64 0a64 64 0 1 0 128 0 64 64 0 1 0-128 0ZM454 380m-48 0a48 48 0 1 0 96 0 48 48 0 1 0-96 0ZM660 608m-96 0a96 96 0 1 0 192 0 96 96 0 1 0-192 0ZM768 294m-56 0a56 56 0 1 0 112 0 56 56 0 1 0-112 0Z" /></svg>