<?xml version="1.0" encoding="utf-8"?>
<svg id="fast-backward" viewBox="0 0 1024 1024" version="1.1" xmlns="http://www.w3.org/2000/svg" xmlns:xlink="http://www.w3.org/1999/xlink">
  <path d="M517.6 273.5L230.2 499.3c-4.1 3.2-6.2 8-6.2 12.7 0 4.7 2.1 9.5 6.2 12.7l287.4 225.8c10.7 8.4 26.4 0.8 26.4-12.7V286.2c0-13.5-15.7-21.1-26.4-12.7zM837.6 273.5L550.2 499.3c-4.1 3.2-6.2 8-6.2 12.7 0 4.7 2.1 9.5 6.2 12.7l287.4 225.8c10.7 8.4 26.4 0.8 26.4-12.7V286.2c0-13.5-15.7-21.1-26.4-12.7zM217.6 248h-51.2c-3.5 0-6.4 2.7-6.4 6v516c0 3.3 2.9 6 6.4 6h51.2c3.5 0 6.4-2.7 6.4-6V254c0-3.3-2.9-6-6.4-6z" />
</svg>
