<?xml version="1.0" standalone="no"?><!DOCTYPE svg PUBLIC "-//W3C//DTD SVG 1.1//EN" "http://www.w3.org/Graphics/SVG/1.1/DTD/svg11.dtd"><svg class="icon" width="64px" height="64.00px" viewBox="0 0 1024 1024" version="1.1" xmlns="http://www.w3.org/2000/svg"><path fill="#333333" d="M342 472h342c0.4 0 0.9 0 1.3-0.1 4.4-0.7 7.3-4.8 6.6-9.2l-40.2-248c-0.6-3.9-4-6.7-7.9-6.7H382.2c-3.9 0-7.3 2.8-7.9 6.7l-40.2 248c-0.1 0.4-0.1 0.9-0.1 1.3 0 4.4 3.6 8 8 8z m91.2-196h159.5l20.7 128h-201l20.8-128zM435.7 558.7c-0.6-3.9-4-6.7-7.9-6.7H166.2c-3.9 0-7.3 2.8-7.9 6.7l-40.2 248c-0.1 0.4-0.1 0.9-0.1 1.3 0 4.4 3.6 8 8 8h342c0.4 0 0.9 0 1.3-0.1 4.4-0.7 7.3-4.8 6.6-9.2l-40.2-248zM196.5 748l20.7-128h159.5l20.7 128H196.5zM905.9 806.7l-40.2-248c-0.6-3.9-4-6.7-7.9-6.7H596.2c-3.9 0-7.3 2.8-7.9 6.7l-40.2 248c-0.1 0.4-0.1 0.9-0.1 1.3 0 4.4 3.6 8 8 8h342c0.4 0 0.9 0 1.3-0.1 4.3-0.7 7.3-4.8 6.6-9.2zM626.5 748l20.7-128h159.5l20.7 128H626.5z" /></svg>