<?xml version="1.0" standalone="no"?><!DOCTYPE svg PUBLIC "-//W3C//DTD SVG 1.1//EN" "http://www.w3.org/Graphics/SVG/1.1/DTD/svg11.dtd"><svg class="icon" width="64px" height="64.00px" viewBox="0 0 1024 1024" version="1.1" xmlns="http://www.w3.org/2000/svg"><path fill="#333333" d="M880 112H144c-17.7 0-32 14.3-32 32v736c0 17.7 14.3 32 32 32h736c17.7 0 32-14.3 32-32V144c0-17.7-14.3-32-32-32z m-40 728H184V184h656v656zM304.8 524h50.7c3.7 0 6.8-3 6.8-6.8v-78.9c0-19.7 15.9-35.6 35.5-35.6h205.7v53.4c0 5.7 6.5 8.8 10.9 5.3l109.1-85.7c3.5-2.7 3.5-8 0-10.7l-109.1-85.7c-4.4-3.5-10.9-0.3-10.9 5.3V338H397.7c-55.1 0-99.7 44.8-99.7 100.1V517c0 4 3 7 6.8 7zM300.6 658.9l109.1 85.7c4.4 3.5 10.9 0.3 10.9-5.3v-53.4h205.7c55.1 0 99.7-44.8 99.7-100.1v-78.9c0-3.7-3-6.8-6.8-6.8h-50.7c-3.7 0-6.8 3-6.8 6.8v78.9c0 19.7-15.9 35.6-35.5 35.6H420.6V568c0-5.7-6.5-8.8-10.9-5.3l-109.1 85.7c-3.5 2.5-3.5 7.8 0 10.5z" /></svg>