<?xml version="1.0" standalone="no"?><!DOCTYPE svg PUBLIC "-//W3C//DTD SVG 1.1//EN" "http://www.w3.org/Graphics/SVG/1.1/DTD/svg11.dtd"><svg class="icon" width="64px" height="64.00px" viewBox="0 0 1024 1024" version="1.1" xmlns="http://www.w3.org/2000/svg"><path fill="#333333" d="M839.2 278.1c-4.3-13.2-16.6-22.1-30.4-22.1H736V144c0-17.7-14.3-32-32-32H320c-17.7 0-32 14.3-32 32v112h-72.8c-13.9 0-26.1 8.9-30.4 22.1L112 502v378c0 17.7 14.3 32 32 32h736c17.7 0 32-14.3 32-32V502l-72.8-223.9zM360 184h304v72H360v-72z m480 656H184V513.4L244.3 328h535.4L840 513.4V840zM652 572H544V464c0-4.4-3.6-8-8-8h-48c-4.4 0-8 3.6-8 8v108H372c-4.4 0-8 3.6-8 8v48c0 4.4 3.6 8 8 8h108v108c0 4.4 3.6 8 8 8h48c4.4 0 8-3.6 8-8V636h108c4.4 0 8-3.6 8-8v-48c0-4.4-3.6-8-8-8z" /></svg>