<?xml version="1.0" encoding="utf-8"?>
<svg id="retweet" viewBox="0 0 1024 1024" version="1.1" xmlns="http://www.w3.org/2000/svg" xmlns:xlink="http://www.w3.org/1999/xlink">
  <path d="M365.6 317.3l349 0L595.5 436.5c-14.1 14.1-14.1 36.9 0 50.9 7 7 16.2 10.5 25.5 10.5s18.4-3.5 25.5-10.5L825 308.9c6.8-6.8 10.5-15.9 10.5-25.5s-3.8-18.7-10.5-25.5L641.2 74.2c-14.1-14.1-36.9-14.1-50.9 0-14.1 14.1-14.1 36.9 0 50.9l120.2 120.2L365.6 245.3c-79.8 0-154.8 31.1-211.2 87.5C98.1 389.2 67 464.2 67 544c0 19.9 16.1 36 36 36s36-16.1 36-36c0-60.5 23.6-117.5 66.4-160.3C248.2 340.9 305.1 317.3 365.6 317.3z"></path>
  <path d="M923.1 441c-19.9 0-36 16.1-36 36 0 60.5-23.6 117.5-66.4 160.3-42.8 42.8-99.7 66.4-160.3 66.4l-349 0 119.2-119.2c14.1-14.1 14.1-36.9 0-50.9-14.1-14.1-36.9-14.1-50.9 0L201.2 712.1c-6.8 6.8-10.5 15.9-10.5 25.5s3.8 18.7 10.5 25.5l183.7 183.7c7 7 16.2 10.5 25.5 10.5s18.4-3.5 25.5-10.5c14.1-14.1 14.1-36.9 0-50.9L315.6 775.6l344.9 0c79.8 0 154.8-31.1 211.2-87.5 56.4-56.4 87.5-131.4 87.5-211.2C959.1 457.1 943 441 923.1 441z"></path>
</svg>