<?xml version="1.0" standalone="no"?><!DOCTYPE svg PUBLIC "-//W3C//DTD SVG 1.1//EN" "http://www.w3.org/Graphics/SVG/1.1/DTD/svg11.dtd"><svg class="icon" width="64px" height="64.00px" viewBox="0 0 1024 1024" version="1.1" xmlns="http://www.w3.org/2000/svg"><path fill="#333333" d="M608 112c-167.9 0-304 136.1-304 304 0 70.3 23.9 135 63.9 186.5L114.3 856.1c-3.1 3.1-3.1 8.2 0 11.3l42.3 42.3c3.1 3.1 8.2 3.1 11.3 0l253.6-253.6C473 696.1 537.7 720 608 720c167.9 0 304-136.1 304-304S775.9 112 608 112z m161.2 465.2C726.2 620.3 668.9 644 608 644s-118.2-23.7-161.2-66.8C403.7 534.2 380 476.9 380 416s23.7-118.2 66.8-161.2c43-43.1 100.3-66.8 161.2-66.8s118.2 23.7 161.2 66.8c43.1 43 66.8 100.3 66.8 161.2s-23.7 118.2-66.8 161.2z" /></svg>