<?xml version="1.0" standalone="no"?><!DOCTYPE svg PUBLIC "-//W3C//DTD SVG 1.1//EN" "http://www.w3.org/Graphics/SVG/1.1/DTD/svg11.dtd"><svg class="icon" width="64px" height="64.00px" viewBox="0 0 1024 1024" version="1.1" xmlns="http://www.w3.org/2000/svg"><path fill="#333333" d="M882 272.1V144c0-17.7-14.3-32-32-32H174c-17.7 0-32 14.3-32 32v128.1c-16.7 1-30 14.9-30 31.9v131.7c0 24.4 4.8 48.1 14.4 70.4 4.3 10.2 9.6 19.8 15.6 28.9v345c0 17.6 14.3 32 32 32h676c17.7 0 32-14.3 32-32V535c6.1-9.1 11.3-18.8 15.6-28.9 9.5-22.3 14.4-46 14.4-70.4V304c0-17-13.3-30.9-30-31.9zM214 184h596v88H214v-88z m362 656.1H448V736h128v104.1z m234 0H640V704c0-17.7-14.3-32-32-32H416c-17.7 0-32 14.3-32 32v136.1H214V597.9c2.9 1.4 5.9 2.8 9 4 22.3 9.4 46 14.1 70.4 14.1s48-4.7 70.4-14.1c13.8-5.8 26.8-13.2 38.7-22.1 0.2-0.1 0.4-0.1 0.6 0 11.9 8.9 24.8 16.3 38.7 22.1 22.3 9.4 46 14.1 70.4 14.1 24.4 0 48-4.7 70.4-14.1 13.8-5.8 26.8-13.2 38.7-22.1 0.2-0.1 0.4-0.1 0.6 0 11.9 8.9 24.8 16.3 38.7 22.1 22.3 9.4 46 14.1 70.4 14.1 24.4 0 48-4.7 70.4-14.1 3-1.3 6-2.6 9-4v242.2z m30-404.4c0 59.8-49 108.3-109.3 108.3-40.8 0-76.4-22.1-95.2-54.9-2.9-5-8.1-8.1-13.9-8.1h-0.6c-5.7 0-11 3.1-13.9 8.1-18.7 32.8-54.3 54.9-95.1 54.9-40.7 0-76.2-22-95-54.7-3-5.1-8.4-8.3-14.3-8.3s-11.4 3.2-14.3 8.3C369.5 522 334 544 293.3 544 233 544 184 495.5 184 435.7v-91.2c0-0.3 0.2-0.5 0.5-0.5h655c0.3 0 0.5 0.2 0.5 0.5v91.2z" /></svg>