<?xml version="1.0" standalone="no"?><!DOCTYPE svg PUBLIC "-//W3C//DTD SVG 1.1//EN" "http://www.w3.org/Graphics/SVG/1.1/DTD/svg11.dtd"><svg class="icon" width="64px" height="64.00px" viewBox="0 0 1024 1024" version="1.1" xmlns="http://www.w3.org/2000/svg"><path fill="#333333" d="M904 747H120c-4.4 0-8 3.6-8 8v56c0 4.4 3.6 8 8 8h784c4.4 0 8-3.6 8-8v-56c0-4.4-3.6-8-8-8zM165.7 621.8l39.7 39.5c3.1 3.1 8.2 3.1 11.3 0l234.7-233.9 97.6 97.3c12.5 12.4 32.7 12.4 45.2 0l264.2-263.2c3.1-3.1 3.1-8.2 0-11.3l-39.7-39.6c-3.1-3.1-8.2-3.1-11.3 0l-235.7 235-97.7-97.3c-12.5-12.4-32.7-12.4-45.2 0L165.7 610.5c-3.1 3.1-3.2 8.2 0 11.3z" /></svg>