<?xml version="1.0" standalone="no"?><!DOCTYPE svg PUBLIC "-//W3C//DTD SVG 1.1//EN" "http://www.w3.org/Graphics/SVG/1.1/DTD/svg11.dtd"><svg class="icon" width="64px" height="64.00px" viewBox="0 0 1024 1024" version="1.1" xmlns="http://www.w3.org/2000/svg"><path fill="#333333" d="M400 317.7h73.9V656c0 4.4 3.6 8 8 8h60c4.4 0 8-3.6 8-8V317.7H624c6.7 0 10.4-7.7 6.3-12.9L518.3 163c-3.2-4.1-9.4-4.1-12.6 0l-112 141.7c-4.1 5.3-0.4 13 6.3 13zM878 626h-60c-4.4 0-8 3.6-8 8v154H214V634c0-4.4-3.6-8-8-8h-60c-4.4 0-8 3.6-8 8v198c0 17.7 14.3 32 32 32h684c17.7 0 32-14.3 32-32V634c0-4.4-3.6-8-8-8z" /></svg>