<?xml version="1.0" standalone="no"?><!DOCTYPE svg PUBLIC "-//W3C//DTD SVG 1.1//EN" "http://www.w3.org/Graphics/SVG/1.1/DTD/svg11.dtd"><svg class="icon" width="64px" height="64.00px" viewBox="0 0 1024 1024" version="1.1" xmlns="http://www.w3.org/2000/svg"><path fill="#333333" d="M880 112H144c-17.7 0-32 14.3-32 32v736c0 17.7 14.3 32 32 32h736c17.7 0 32-14.3 32-32V144c0-17.7-14.3-32-32-32z m-40 464H528V448h312v128z m0 264H184V184h656v200H496c-17.7 0-32 14.3-32 32v192c0 17.7 14.3 32 32 32h344v200zM620 512m-40 0a40 40 0 1 0 80 0 40 40 0 1 0-80 0Z" /></svg>