<?xml version="1.0" standalone="no"?><!DOCTYPE svg PUBLIC "-//W3C//DTD SVG 1.1//EN" "http://www.w3.org/Graphics/SVG/1.1/DTD/svg11.dtd"><svg class="icon" width="64px" height="64.00px" viewBox="0 0 1024 1024" version="1.1" xmlns="http://www.w3.org/2000/svg"><path d="M864 144H560c-8.8 0-16 7.2-16 16v304c0 8.8 7.2 16 16 16h304c8.8 0 16-7.2 16-16V160c0-8.8-7.2-16-16-16z m-52 268H612V212h200v200zM464 544H160c-8.8 0-16 7.2-16 16v304c0 8.8 7.2 16 16 16h304c8.8 0 16-7.2 16-16V560c0-8.8-7.2-16-16-16z m-52 268H212V612h200v200zM464 144H160c-8.8 0-16 7.2-16 16v304c0 8.8 7.2 16 16 16h304c8.8 0 16-7.2 16-16V160c0-8.8-7.2-16-16-16z m-52 268H212V212h200v200zM864 544H560c-8.8 0-16 7.2-16 16v304c0 8.8 7.2 16 16 16h304c8.8 0 16-7.2 16-16V560c0-8.8-7.2-16-16-16z m-52 268H612V612h200v200z" fill="#333333" /><path d="M212 212h200v200H212zM612 212h200v200H612zM212 612h200v200H212zM612 612h200v200H612z" fill="#E6E6E6" /></svg>