<?xml version="1.0" standalone="no"?><!DOCTYPE svg PUBLIC "-//W3C//DTD SVG 1.1//EN" "http://www.w3.org/Graphics/SVG/1.1/DTD/svg11.dtd"><svg class="icon" width="64px" height="64.00px" viewBox="0 0 1024 1024" version="1.1" xmlns="http://www.w3.org/2000/svg"><path d="M512 140c-205.4 0-372 166.6-372 372s166.6 372 372 372 372-166.6 372-372-166.6-372-372-372zM327.6 701.7c-2 0.9-4.4 0-5.3-2.1-0.4-1-0.4-2.2 0-3.2L421 470.9 553.1 603l-225.5 98.7z m375.1-375.1L604 552.1 471.9 420l225.5-98.7c2-0.9 4.4 0 5.3 2.1 0.4 1 0.4 2.1 0 3.2z" fill="#E6E6E6" /><path d="M322.3 696.4c-0.4 1-0.4 2.2 0 3.2 0.9 2.1 3.3 3 5.3 2.1L553.1 603 421 470.9l-98.7 225.5zM697.4 321.3L471.9 420 604 552.1l98.7-225.5c0.4-1.1 0.4-2.2 0-3.2-0.9-2.1-3.3-3-5.3-2.1z" fill="#333333" /><path d="M512 64C264.6 64 64 264.6 64 512s200.6 448 448 448 448-200.6 448-448S759.4 64 512 64z m0 820c-205.4 0-372-166.6-372-372s166.6-372 372-372 372 166.6 372 372-166.6 372-372 372z" fill="#333333" /></svg>