<?xml version="1.0" standalone="no"?><!DOCTYPE svg PUBLIC "-//W3C//DTD SVG 1.1//EN" "http://www.w3.org/Graphics/SVG/1.1/DTD/svg11.dtd"><svg class="icon" width="64px" height="64.00px" viewBox="0 0 1024 1024" version="1.1" xmlns="http://www.w3.org/2000/svg"><path d="M81.8 537.8c-7.7-16.3-7.7-35.3 0-51.5C176.6 286.5 319.8 186 512 186c-192.2 0-335.4 100.5-430.2 300.3-7.7 16.2-7.7 35.2 0 51.5C176.6 737.5 319.9 838 512 838c-192.1 0-335.4-100.5-430.2-300.2z" fill="#D9D9D9" /><path d="M512 258c-161.3 0-279.4 81.8-362.7 254C232.6 684.2 350.7 766 512 766c161.4 0 279.5-81.8 362.7-254C791.4 339.8 673.3 258 512 258z m-4 430c-97.2 0-176-78.8-176-176s78.8-176 176-176 176 78.8 176 176-78.8 176-176 176z" fill="#D9D9D9" /><path d="M942.2 486.2C847.4 286.5 704.1 186 512 186c-192.2 0-335.4 100.5-430.2 300.3-7.7 16.2-7.7 35.2 0 51.5C176.6 737.5 319.9 838 512 838c192.2 0 335.4-100.5 430.2-300.3 7.7-16.2 7.7-35 0-51.5zM512 766c-161.3 0-279.4-81.8-362.7-254C232.6 339.8 350.7 258 512 258s279.4 81.8 362.7 254C791.5 684.2 673.4 766 512 766z"  /><path d="M508 336c-97.2 0-176 78.8-176 176s78.8 176 176 176 176-78.8 176-176-78.8-176-176-176z m0 288c-61.9 0-112-50.1-112-112s50.1-112 112-112 112 50.1 112 112-50.1 112-112 112z"  /></svg>