<?xml version="1.0" standalone="no"?><!DOCTYPE svg PUBLIC "-//W3C//DTD SVG 1.1//EN" "http://www.w3.org/Graphics/SVG/1.1/DTD/svg11.dtd"><svg class="icon" width="64px" height="64.00px" viewBox="0 0 1024 1024" version="1.1" xmlns="http://www.w3.org/2000/svg"><path d="M509.2 490.8c-0.7-1.3-1.4-1.9-2.2-2-2.9 3.3-2.2 31.5 2.7 51.4 4-13.6 4.7-40.5-0.5-49.4zM507.6 611.3c-7.7 20-18.8 47.3-32.1 71.4 4-1.6 8.1-3.3 12.3-5 17.6-7.2 37.3-15.3 58.9-20.2-14.9-11.8-28.4-27.7-39.1-46.2z" fill="#D9D9D9" /><path d="M534 352V136H232v752h560V394H576c-23.2 0-42-18.8-42-42z m55 287.6c16.1-1.9 30.6-2.8 44.3-2.3 12.8 0.4 23.6 2 32 5.1 0.2 0.1 0.3 0.1 0.5 0.2 0.4 0.2 0.8 0.3 1.2 0.5 0.5 0.2 1.1 0.4 1.6 0.7 0.1 0.1 0.3 0.1 0.4 0.2 4.1 1.8 7.5 4 10.1 6.6 9.1 9.1 11.8 26.1 6.2 39.6-3.2 7.7-11.7 20.5-33.3 20.5-21.8 0-53.9-9.7-82.1-24.8-25.5 4.3-53.7 13.9-80.9 23.1-5.8 2-11.8 4-17.6 5.9-38 65.2-66.5 79.4-84.1 79.4-4.2 0-7.8-0.9-10.8-2-6.9-2.6-12.8-8-16.5-15-0.9-1.7-1.6-3.4-2.2-5.2-1.6-4.8-2.1-9.6-1.3-13.6l0.6-2.7c0.1-0.2 0.1-0.4 0.2-0.6 0.2-0.7 0.4-1.4 0.7-2.1 0-0.1 0.1-0.2 0.1-0.3 4.1-11.9 13.6-23.4 27.7-34.6 12.3-9.8 27.1-18.7 45.9-28.4 15.9-28 37.6-75.1 51.2-107.4-10.8-41.8-16.7-74.6-10.1-98.6 0.9-3.3 2.5-6.4 4.6-9.1 0.2-0.2 0.3-0.4 0.5-0.6 0.1-0.1 0.1-0.2 0.2-0.2 6.3-7.5 16.9-11.9 28.1-11.5 16.6 0.7 29.7 11.5 33 30.1 1.7 8 2.2 16.5 1.9 25.7v0.7c0 0.5 0 1-0.1 1.5-0.7 13.3-3 26.6-7.3 44.7-0.4 1.6-0.8 3.2-1.2 5.2-0.2 0.8-0.7 2.9-1 4.1l-0.1 0.3c0.1 0.2 0.1 0.3 0.2 0.5l1.8 4.5c0.1 0.3 0.3 0.7 0.4 1 0.7 1.6 1.4 3.3 2.1 4.8v0.1c8.7 18.8 19.7 33.4 33.9 45.1 4.3 3.5 8.9 6.7 13.9 9.8 1.8-0.5 3.5-0.7 5.3-0.9z" fill="#D9D9D9" /><path d="M391.5 761c5.7-4.4 16.2-14.5 30.1-34.7-10.3 9.4-23.4 22.4-30.1 34.7zM662.4 678l0.2-0.3h0.2c0.6-0.4 0.5-0.7 0.4-0.9-0.1-0.1-4.5-9.3-45.1-7.4 35.3 13.9 43.5 9.1 44.3 8.6z" fill="#D9D9D9" /><path d="M854.6 288.6L639.4 73.4c-6-6-14.1-9.4-22.6-9.4H192c-17.7 0-32 14.3-32 32v832c0 17.7 14.3 32 32 32h640c17.7 0 32-14.3 32-32V311.3c0-8.5-3.4-16.7-9.4-22.7zM602 137.8L790.2 326H602V137.8zM792 888H232V136h302v216c0 23.2 18.8 42 42 42h216v494z"  /><path d="M535.9 585.3c-0.8-1.7-1.5-3.3-2.2-4.9-0.1-0.3-0.3-0.7-0.4-1l-1.8-4.5c-0.1-0.2-0.1-0.3-0.2-0.5l0.1-0.3 0.2-1.1c4-16.3 8.6-35.3 9.4-54.4v-0.7c0.3-8.6-0.2-17.2-2-25.6-3.8-21.3-19.5-29.6-32.9-30.2-11.3-0.5-21.8 4-28.1 11.4-0.1 0.1-0.1 0.2-0.2 0.2-0.2 0.2-0.4 0.4-0.5 0.6-2.1 2.7-3.7 5.8-4.6 9.1-6.6 24-0.7 56.8 10.1 98.6-13.6 32.4-35.3 79.4-51.2 107.4v0.1c-27.7 14.3-64.1 35.8-73.6 62.9 0 0.1-0.1 0.2-0.1 0.3-0.2 0.7-0.5 1.4-0.7 2.1-0.1 0.2-0.1 0.4-0.2 0.6-0.2 0.9-0.5 1.8-0.6 2.7-0.9 4-0.4 8.8 1.3 13.6 0.6 1.8 1.3 3.5 2.2 5.2 3.7 7 9.6 12.4 16.5 15 3 1.1 6.6 2 10.8 2 17.6 0 46.1-14.2 84.1-79.4 5.8-1.9 11.8-3.9 17.6-5.9 27.2-9.2 55.4-18.8 80.9-23.1 28.2 15.1 60.3 24.8 82.1 24.8 21.6 0 30.1-12.8 33.3-20.5 5.6-13.5 2.9-30.5-6.2-39.6-2.6-2.6-6-4.8-10.1-6.6-0.1-0.1-0.3-0.1-0.4-0.2-0.5-0.2-1.1-0.4-1.6-0.7-0.4-0.2-0.8-0.3-1.2-0.5-0.2-0.1-0.3-0.1-0.5-0.2-16.2-5.8-41.7-6.7-76.3-2.8-1.7 0.2-3.5 0.4-5.3 0.6-5-3-9.6-6.3-13.9-9.8-14.2-11.3-25.1-25.8-33.8-44.7zM391.5 761c6.7-12.3 19.8-25.3 30.1-34.7-13.9 20.2-24.4 30.3-30.1 34.7zM507 488.8c0.8 0.1 1.5 0.7 2.2 2 5.2 8.9 4.5 35.8 0.5 49.4-4.9-19.9-5.6-48.1-2.7-51.4z m-19.2 188.9c-4.2 1.7-8.3 3.4-12.3 5 13.3-24.1 24.4-51.4 32.1-71.4 10.7 18.5 24.2 34.4 39.1 46.2-21.6 4.9-41.3 13-58.9 20.2z m175.4-0.9c0.1 0.2 0.2 0.5-0.4 0.9h-0.2l-0.2 0.3c-0.8 0.5-9 5.3-44.3-8.6 40.6-1.9 45 7.3 45.1 7.4z"  /></svg>