<?xml version="1.0" standalone="no"?><!DOCTYPE svg PUBLIC "-//W3C//DTD SVG 1.1//EN" "http://www.w3.org/Graphics/SVG/1.1/DTD/svg11.dtd"><svg class="icon" width="64px" height="64.00px" viewBox="0 0 1024 1024" version="1.1" xmlns="http://www.w3.org/2000/svg"><path d="M534 352V136H232v752h560V394H576c-23.2 0-42-18.8-42-42z m-134 50c22.1 0 40 17.9 40 40s-17.9 40-40 40-40-17.9-40-40 17.9-40 40-40z m296 294H328.1c-6.7 0-10.4-7.7-6.3-12.9l99.8-127.2c3.2-4.1 9.4-4.1 12.6 0l41.1 52.4 77.8-99.2c3.2-4.1 9.4-4.1 12.7 0l136.5 174c4.1 5.2 0.4 12.9-6.3 12.9z" fill="#D9D9D9" /><path d="M854.6 288.6L639.4 73.4c-6-6-14.1-9.4-22.6-9.4H192c-17.7 0-32 14.3-32 32v832c0 17.7 14.3 32 32 32h640c17.7 0 32-14.3 32-32V311.3c0-8.5-3.4-16.7-9.4-22.7zM602 137.8L790.2 326H602V137.8zM792 888H232V136h302v216c0 23.2 18.8 42 42 42h216v494z"  /><path d="M553.1 509.1l-77.8 99.2-41.1-52.4c-3.2-4.1-9.4-4.1-12.6 0l-99.8 127.2c-4.1 5.2-0.4 12.9 6.3 12.9H696c6.7 0 10.4-7.7 6.3-12.9l-136.5-174c-3.3-4.1-9.5-4.1-12.7 0z"  /><path d="M400 442m-40 0a40 40 0 1 0 80 0 40 40 0 1 0-80 0Z"  /></svg>