<?xml version="1.0" standalone="no"?><!DOCTYPE svg PUBLIC "-//W3C//DTD SVG 1.1//EN" "http://www.w3.org/Graphics/SVG/1.1/DTD/svg11.dtd"><svg class="icon" width="64px" height="64.00px" viewBox="0 0 1024 1024" version="1.1" xmlns="http://www.w3.org/2000/svg"><path d="M546 378h298v104H546zM228 550h250v308H228zM180 378h298v104H180zM546 550h250v308H546z" fill="#D9D9D9" /><path d="M880 310H732.4c13.6-21.4 21.6-46.8 21.6-74 0-76.1-61.9-138-138-138-41.4 0-78.7 18.4-104 47.4-25.3-29-62.6-47.4-104-47.4-76.1 0-138 61.9-138 138 0 27.2 7.9 52.6 21.6 74H144c-17.7 0-32 14.3-32 32v200c0 4.4 3.6 8 8 8h40v344c0 17.7 14.3 32 32 32h640c17.7 0 32-14.3 32-32V550h40c4.4 0 8-3.6 8-8V342c0-17.7-14.3-32-32-32zM478 858H228V550h250v308z m0-376H180V378h298v104z m0-176h-70c-38.6 0-70-31.4-70-70s31.4-70 70-70 70 31.4 70 70v70z m68-70c0-38.6 31.4-70 70-70s70 31.4 70 70-31.4 70-70 70h-70v-70z m250 622H546V550h250v308z m48-376H546V378h298v104z"  /></svg>