<?xml version="1.0" standalone="no"?><!DOCTYPE svg PUBLIC "-//W3C//DTD SVG 1.1//EN" "http://www.w3.org/Graphics/SVG/1.1/DTD/svg11.dtd"><svg class="icon" width="64px" height="64.00px" viewBox="0 0 1024 1024" version="1.1" xmlns="http://www.w3.org/2000/svg"><path d="M512.1 172.6l-370 369.7h96V868H392V640c0-22.1 17.9-40 40-40h160c22.1 0 40 17.9 40 40v228h153.9V542.3H882L535.2 195.7l-23.1-23.1zM946.6 595.5c-6 6-13.1 10.8-20.8 13.9 7.7-3.2 14.8-7.9 20.8-13.9zM59.6 560.8c5 30.3 31.4 53.5 63.1 53.5h0.9c-31.9 0-58.9-23-64-53.5zM58.7 550.3V548.4v1.9zM58.8 547.7c0.1-3.1 0.5-6.1 1-9.1-0.6 2.9-0.9 6-1 9.1z" fill="#D9D9D9" /><path d="M951 510c0-0.1-0.1-0.1-0.1-0.2l-1.8-2.1c-0.1-0.1-0.2-0.3-0.4-0.4-0.7-0.8-1.5-1.6-2.2-2.4L560.1 118.8l-25.9-25.9c-12.3-12.2-32.1-12.2-44.4 0L77.5 505c-7.6 7.6-13 16.7-16 26.6l-0.6 2.1c-0.1 0.4-0.2 0.7-0.3 1.1l-0.3 1.2c-0.2 0.7-0.3 1.4-0.4 2.1 0 0.1 0 0.3-0.1 0.4-0.6 3-0.9 6-1 9.1V550.9c0 0.5 0 1 0.1 1.5 0 0.5 0 0.9 0.1 1.4 0 0.5 0.1 1 0.1 1.5 0 0.6 0.1 1.2 0.2 1.8 0 0.3 0.1 0.6 0.1 0.9 0.1 0.8 0.2 1.7 0.3 2.5v0.1c5.1 30.5 32.2 53.5 64 53.5h42.5V940h691.7V614.3h43.4c8.6 0 16.9-1.7 24.5-4.9s14.7-7.9 20.8-13.9c12.1-12.1 18.7-28.2 18.7-45.3 0-14.7-5-28.8-14.3-40.2zM568 868H456V664h112v204z m217.9-325.7V868H632V640c0-22.1-17.9-40-40-40H432c-22.1 0-40 17.9-40 40v228H238.1V542.3h-96l370-369.7 23.1 23.1L882 542.3h-96.1z"  /></svg>