<?xml version="1.0" standalone="no"?><!DOCTYPE svg PUBLIC "-//W3C//DTD SVG 1.1//EN" "http://www.w3.org/Graphics/SVG/1.1/DTD/svg11.dtd"><svg class="icon" width="64px" height="64.00px" viewBox="0 0 1024 1024" version="1.1" xmlns="http://www.w3.org/2000/svg"><path d="M775.3 248.9c-34.4-34.4-74.4-61.3-119-80-45.7-19.2-94.2-28.9-144.2-28.9h-1.7c-99.7 0.4-193 39.4-262.8 109.9-69.9 70.5-108 164.1-107.6 263.8 0.3 60.3 15.3 120.2 43.5 173.1l4.5 8.4V836h140.8l8.4 4.5c52.9 28.2 112.8 43.2 173.1 43.5h1.7c99 0 192-38.2 262.1-107.6 70.4-69.8 109.5-163.1 110.1-262.7 0.2-50.6-9.5-99.6-28.9-145.8-18.7-44.6-45.7-84.7-80-119zM312 560c-26.5 0-48-21.5-48-48s21.5-48 48-48 48 21.5 48 48-21.5 48-48 48z m200 0c-26.5 0-48-21.5-48-48s21.5-48 48-48 48 21.5 48 48-21.5 48-48 48z m200 0c-26.5 0-48-21.5-48-48s21.5-48 48-48 48 21.5 48 48-21.5 48-48 48z" fill="#D8D8D8" /><path d="M712 512m-48 0a48 48 0 1 0 96 0 48 48 0 1 0-96 0Z"  /><path d="M312 512m-48 0a48 48 0 1 0 96 0 48 48 0 1 0-96 0Z"  /><path d="M925.2 338.4c-22.6-53.7-55-101.9-96.3-143.3-41.3-41.3-89.5-73.8-143.3-96.3C630.6 75.7 572.2 64 512 64h-2c-60.6 0.3-119.3 12.3-174.5 35.9-53.3 22.8-101.1 55.2-142 96.5-40.9 41.3-73 89.3-95.2 142.8-23 55.4-34.6 114.3-34.3 174.9 0.3 69.4 16.9 138.3 48 199.9v152c0 25.4 20.6 46 46 46h152.1c61.6 31.1 130.5 47.7 199.9 48h2.1c59.9 0 118-11.6 172.7-34.3 53.5-22.3 101.6-54.3 142.8-95.2 41.3-40.9 73.8-88.7 96.5-142 23.6-55.2 35.6-113.9 35.9-174.5 0.3-60.9-11.5-120-34.8-175.6z m-151.1 438C704 845.8 611 884 512 884h-1.7c-60.3-0.3-120.2-15.3-173.1-43.5l-8.4-4.5H188V695.2l-4.5-8.4C155.3 633.9 140.3 574 140 513.7c-0.4-99.7 37.7-193.3 107.6-263.8 69.8-70.5 163.1-109.5 262.8-109.9h1.7c50 0 98.5 9.7 144.2 28.9 44.6 18.7 84.6 45.6 119 80 34.3 34.3 61.3 74.4 80 119 19.4 46.2 29.1 95.2 28.9 145.8-0.6 99.6-39.7 192.9-110.1 262.7z"  /><path d="M512 512m-48 0a48 48 0 1 0 96 0 48 48 0 1 0-96 0Z"  /></svg>