<?xml version="1.0" standalone="no"?><!DOCTYPE svg PUBLIC "-//W3C//DTD SVG 1.1//EN" "http://www.w3.org/Graphics/SVG/1.1/DTD/svg11.dtd"><svg class="icon" width="64px" height="64.00px" viewBox="0 0 1024 1024" version="1.1" xmlns="http://www.w3.org/2000/svg"><path d="M880 112H144c-17.7 0-32 14.3-32 32v736c0 17.7 14.3 32 32 32h736c17.7 0 32-14.3 32-32V144c0-17.7-14.3-32-32-32z m-40 728H184V184h656v656z" fill="#333333" /><path d="M184 840h656V184H184v656z m240-484.7c0-9.4 10.9-14.7 18.3-8.8l199.4 156.7c5.7 4.5 5.7 13.1 0 17.6L442.3 677.6c-7.4 5.8-18.3 0.6-18.3-8.8V355.3z" fill="#E6E6E6" /><path d="M442.3 677.6l199.4-156.8c5.7-4.5 5.7-13.1 0-17.6L442.3 346.5c-7.4-5.9-18.3-0.6-18.3 8.8v313.5c0 9.4 10.9 14.6 18.3 8.8z" fill="#333333" /></svg>