<?xml version="1.0" standalone="no"?><!DOCTYPE svg PUBLIC "-//W3C//DTD SVG 1.1//EN" "http://www.w3.org/Graphics/SVG/1.1/DTD/svg11.dtd"><svg class="icon" width="64px" height="64.00px" viewBox="0 0 1024 1024" version="1.1" xmlns="http://www.w3.org/2000/svg"><path d="M512 64C264.6 64 64 264.6 64 512s200.6 448 448 448 448-200.6 448-448S759.4 64 512 64z m0 820c-205.4 0-372-166.6-372-372s166.6-372 372-372 372 166.6 372 372-166.6 372-372 372z" fill="#333333" /><path d="M512 140c-205.4 0-372 166.6-372 372s166.6 372 372 372 372-166.6 372-372-166.6-372-372-372z m-80 524c0 4.4-3.6 8-8 8h-48c-4.4 0-8-3.6-8-8V360c0-4.4 3.6-8 8-8h48c4.4 0 8 3.6 8 8v304z m224 0c0 4.4-3.6 8-8 8h-48c-4.4 0-8-3.6-8-8V360c0-4.4 3.6-8 8-8h48c4.4 0 8 3.6 8 8v304z" fill="#E6E6E6" /><path d="M424 352h-48c-4.4 0-8 3.6-8 8v304c0 4.4 3.6 8 8 8h48c4.4 0 8-3.6 8-8V360c0-4.4-3.6-8-8-8zM648 352h-48c-4.4 0-8 3.6-8 8v304c0 4.4 3.6 8 8 8h48c4.4 0 8-3.6 8-8V360c0-4.4-3.6-8-8-8z" fill="#333333" /></svg>