<?xml version="1.0" standalone="no"?><!DOCTYPE svg PUBLIC "-//W3C//DTD SVG 1.1//EN" "http://www.w3.org/Graphics/SVG/1.1/DTD/svg11.dtd"><svg class="icon" width="64px" height="64.00px" viewBox="0 0 1024 1024" version="1.1" xmlns="http://www.w3.org/2000/svg"><path d="M832 64H192c-17.7 0-32 14.3-32 32v832c0 17.7 14.3 32 32 32h640c17.7 0 32-14.3 32-32V96c0-17.7-14.3-32-32-32z m-40 824H232V193.1l260.3 204.1c11.6 9.1 27.9 9.1 39.5 0L792 193.1V888z m0-751.3h-31.7L512 331.3 263.7 136.7H232v-0.7h560v0.7z" fill="#333333" /><path d="M492.3 397.2L232 193.1V888h560V193.1L531.8 397.2c-11.6 9.1-27.9 9.1-39.5 0z m99.4 60.9h47.8c4.6 0 8.4 3.8 8.4 8.4 0 1.4-0.3 2.8-1 4l-87.2 161h45.9c4.6 0 8.4 3.8 8.4 8.4V665c0 4.6-3.8 8.4-8.4 8.4h-63.3V702h63.3c4.6 0 8.4 3.8 8.4 8.4v25c0.2 4.7-3.5 8.5-8.2 8.5h-63.3v49.9c0 4.6-3.8 8.4-8.4 8.4h-43.7c-4.6 0-8.4-3.8-8.4-8.4v-49.9h-63c-4.6 0-8.4-3.8-8.4-8.4v-25.1c0-4.6 3.8-8.4 8.4-8.4h63v-28.6h-63c-4.6 0-8.4-3.8-8.4-8.4v-25.1c0-4.6 3.8-8.4 8.4-8.4h45.4L377 470.4c-2.2-4.1-0.7-9.2 3.4-11.4 1.3-0.6 2.6-1 3.9-1h48.8c3.2 0 6.1 1.8 7.5 4.6l71.7 142 71.9-141.9c1.5-2.8 4.4-4.6 7.5-4.6z" fill="#E6E6E6" /><path d="M232 136.7h31.7L512 331.3l248.3-194.6H792v-0.7H232z" fill="#E6E6E6" /><path d="M440.6 462.6c-1.4-2.8-4.3-4.6-7.5-4.6h-48.8c-1.3 0-2.6 0.4-3.9 1-4.1 2.2-5.6 7.3-3.4 11.4l87.4 161.1H419c-4.6 0-8.4 3.8-8.4 8.4V665c0 4.6 3.8 8.4 8.4 8.4h63V702h-63c-4.6 0-8.4 3.8-8.4 8.4v25.1c0 4.6 3.8 8.4 8.4 8.4h63v49.9c0 4.6 3.8 8.4 8.4 8.4h43.7c4.6 0 8.4-3.8 8.4-8.4v-49.9h63.3c4.7 0 8.4-3.8 8.2-8.5v-25c0-4.6-3.8-8.4-8.4-8.4h-63.3v-28.6h63.3c4.6 0 8.4-3.8 8.4-8.4v-25.1c0-4.6-3.8-8.4-8.4-8.4h-45.9l87.2-161c0.7-1.2 1-2.6 1-4 0-4.6-3.8-8.4-8.4-8.4h-47.8c-3.1 0-6 1.8-7.5 4.6l-71.9 141.9-71.7-142z" fill="#333333" /></svg>