<?xml version="1.0" standalone="no"?><!DOCTYPE svg PUBLIC "-//W3C//DTD SVG 1.1//EN" "http://www.w3.org/Graphics/SVG/1.1/DTD/svg11.dtd"><svg class="icon" width="64px" height="64.00px" viewBox="0 0 1024 1024" version="1.1" xmlns="http://www.w3.org/2000/svg"><path d="M136 792h576V232H136v560z m64-488c0-4.4 3.6-8 8-8h112c4.4 0 8 3.6 8 8v48c0 4.4-3.6 8-8 8H208c-4.4 0-8-3.6-8-8v-48z" fill="#D9D9D9" /><path d="M912 302.3L784 376V224c0-35.3-28.7-64-64-64H128c-35.3 0-64 28.7-64 64v576c0 35.3 28.7 64 64 64h592c35.3 0 64-28.7 64-64V648l128 73.7c21.3 12.3 48-3.1 48-27.6V330c0-24.6-26.7-40-48-27.7zM712 792H136V232h576v560z m176-167l-104-59.8V458.9L888 399v226z"  /><path d="M208 360h112c4.4 0 8-3.6 8-8v-48c0-4.4-3.6-8-8-8H208c-4.4 0-8 3.6-8 8v48c0 4.4 3.6 8 8 8z"  /></svg>