<?xml version="1.0" standalone="no"?>
<svg xmlns="http://www.w3.org/2000/svg" viewBox="0 0 1024 1024" fill="currentColor" fillRule="evenodd"><path d="M880 112c17.7 0 32 14.3 32 32v736c0 17.7-14.3 32-32 32H144c-17.7 0-32-14.3-32-32V144c0-17.7 14.3-32 32-32ZM639.978 338.82l-.034.006c-.023.007-.042.018-.083.059L512 466.745l-127.86-127.86c-.042-.041-.06-.052-.084-.059a.118.118 0 0 0-.07 0c-.022.007-.041.018-.082.059l-45.02 45.019c-.04.04-.05.06-.058.083a.118.118 0 0 0 0 .07l.01.022a.268.268 0 0 0 .049.06L466.745 512l-127.86 127.862c-.041.04-.052.06-.059.083a.118.118 0 0 0 0 .07c.007.022.018.041.059.082l45.019 45.02c.04.04.06.05.083.058a.118.118 0 0 0 .07 0c.022-.007.041-.018.082-.059L512 557.254l127.862 127.861c.04.041.06.052.083.059a.118.118 0 0 0 .07 0c.022-.007.041-.018.082-.059l45.02-45.019c.04-.04.05-.06.058-.083a.118.118 0 0 0 0-.07l-.01-.022a.268.268 0 0 0-.049-.06L557.254 512l127.861-127.86c.041-.042.052-.06.059-.084a.118.118 0 0 0 0-.07c-.007-.022-.018-.041-.059-.082l-45.019-45.02c-.04-.04-.06-.05-.083-.058a.118.118 0 0 0-.07 0Z"/></svg>
