<?xml version="1.0" standalone="no"?>
<svg xmlns="http://www.w3.org/2000/svg" class="icon" viewBox="0 0 1024 1024">
  <path fill-rule="evenodd" d="M112 184v656c0 40 32 72 72 72h656c40 0 72-32 72-72V184c0-40-32-72-72-72H184c-40 0-72 32-72 72Zm695 20-189 23c-7 1-9 9-5 14l55 54-154 154c-3 3-3 8 0 11l45 45c4 3 9 3 12 0l153-153 55 54a8 8 0 0 0 14-4l23-190-2-6m-338 5a36 36 0 1 1 0 72H281v461h463V548c0-20 16-36 35-36h1c20 0 36 16 36 36v232c0 20-17 36-36 36H245c-20 0-36-16-36-36V247c0-20 16-36 36-36"/>
</svg>
