<?xml version="1.0" encoding="UTF-8"?>
<svg version="1.1" xmlns="http://www.w3.org/2000/svg" width="512" height="512">
<path d="M0 0 C29.04 0 58.08 0 88 0 C84.47186187 4.11616115 81.03265723 8.04049319 77.3125 11.9375 C63.44908659 27.17683113 49.12865639 47.45697107 50.0625 68.8125 C51.07068409 77.53959349 53.94544772 82.98741915 60.80859375 88.5234375 C67.8837864 93.29067961 75.65949908 93.91304377 84 93 C96.95594187 90.26021301 106.53820466 84.60423624 116.05078125 75.59375 C124.03555097 68.57138298 133.91703108 62.39278278 144 59 C144.75539063 58.73840088 145.51078125 58.47680176 146.2890625 58.20727539 C152.73290753 56.37535782 152.73290753 56.37535782 156.04980469 58.01049805 C158.03823343 59.66028723 159.75839207 61.40425821 161.5 63.3125 C162.79882606 64.62955063 164.09830522 65.94595753 165.3984375 67.26171875 C166.01686523 67.90802246 166.63529297 68.55432617 167.27246094 69.22021484 C169.45842223 71.47228633 171.76695101 73.55498631 174.125 75.625 C177.95256295 79.04564596 181.73355341 82.51246875 185.5 86 C189.30979998 89.52701981 193.1333759 93.03510308 197 96.5 C201.94864909 100.93616763 206.82834772 105.44433834 211.70703125 109.95703125 C214.81782841 112.83394762 217.93798345 115.70049617 221.0625 118.5625 C221.55347168 119.01222168 222.04444336 119.46194336 222.55029297 119.92529297 C223.53884515 120.83062602 224.52745177 121.73589963 225.51611328 122.64111328 C228.01164407 124.92642496 230.50574527 127.2132958 233 129.5 C233.99999325 130.41667404 234.99999324 131.3333407 236 132.25 C242 137.75 242 137.75 243.50048828 139.12548828 C244.49880661 140.04058633 245.49717886 140.95562555 246.49560547 141.87060547 C249.0217842 144.18578852 251.54696832 146.5020401 254.0703125 148.8203125 C258.71670875 153.08747157 263.37075232 157.34511544 268.0625 161.5625 C268.85914063 162.28050781 269.65578125 162.99851562 270.4765625 163.73828125 C272.29669512 165.36963851 274.12598082 166.9908037 275.9609375 168.60546875 C276.94320313 169.47816406 277.92546875 170.35085938 278.9375 171.25 C279.83339844 172.03890625 280.72929687 172.8278125 281.65234375 173.640625 C286.19831633 178.20928962 287.61241519 182.13631259 288.0625 188.4375 C287.92892298 193.91415768 286.12217888 197.67110395 282.625 201.8125 C276.93471474 206.55440438 273.20312506 207.50154722 265.8671875 207.27734375 C259.48150523 206.65965514 256.13762277 203.39939353 251.9206543 198.95288086 C250.18754368 197.19069047 248.41356282 195.60487323 246.5234375 194.015625 C240.15693851 188.49241948 234.3354245 182.39162444 228.41796875 176.39746094 C223.10100681 171.01783009 217.7856358 165.72902826 212.02441406 160.81933594 C209.51711611 158.56603344 207.18420788 156.17628272 204.8359375 153.7578125 C203.94132813 152.83742188 203.04671875 151.91703125 202.125 150.96875 C200.74096517 149.53753216 199.35705743 148.10612437 197.98535156 146.66308594 C196.63482524 145.24584342 195.26681413 143.84532789 193.8984375 142.4453125 C193.10099121 141.61531738 192.30354492 140.78532227 191.48193359 139.93017578 C188.60793159 137.69509218 186.58778894 137.29589341 183 137 C181.91642093 139.13555565 181.91642093 139.13555565 182 142 C183.77437685 144.68444612 186.08618337 146.80521843 188.40234375 149.0234375 C189.0728627 149.68783844 189.74338165 150.35223938 190.43421936 151.03677368 C192.58833811 153.16391739 194.76260255 155.26912783 196.9375 157.375 C198.36915273 158.78512533 199.79950723 160.19657 201.22851562 161.609375 C207.07067245 167.35922183 212.94630745 172.99747412 219.141922 178.36703491 C223.22369946 181.95429018 227.0443813 185.81951605 230.89306641 189.65283203 C232.38656647 191.13649025 233.89041864 192.60914251 235.39453125 194.08203125 C236.35482059 195.03580039 237.3144794 195.99020489 238.2734375 196.9453125 C239.13372559 197.79625488 239.99401367 198.64719727 240.88037109 199.52392578 C245.26765562 204.6489937 245.44051847 209.53765318 245.3125 216.05859375 C244.72032505 221.63244047 242.21213988 225.10248605 238.0625 228.8125 C232.46375251 232.81160535 227.8021503 233.87519523 221 233 C212.37470328 230.59126329 207.51266098 224.93819088 201.8828125 218.359375 C197.64630482 213.51093975 193.08683571 209.01437385 188.5 204.5 C183.4108337 199.49123127 178.45198289 194.4642804 173.79589844 189.04931641 C170.29037238 185.04912803 166.59017059 181.2420072 162.875 177.4375 C162.08996094 176.60669922 161.30492187 175.77589844 160.49609375 174.91992188 C159.73167969 174.14068359 158.96726562 173.36144531 158.1796875 172.55859375 C157.49632324 171.85017334 156.81295898 171.14175293 156.10888672 170.41186523 C154.03651303 168.70037945 154.03651303 168.70037945 151.23876953 169.27758789 C150.13057861 169.63518188 150.13057861 169.63518188 149 170 C148.61839261 173.27344773 148.7004808 174.60466857 150.72485352 177.27661133 C151.51819092 178.0373999 152.31152832 178.79818848 153.12890625 179.58203125 C153.99966797 180.43216797 154.87042969 181.28230469 155.76757812 182.15820312 C156.68990234 183.03412109 157.61222656 183.91003906 158.5625 184.8125 C160.35780312 186.54576241 162.15081001 188.28140669 163.94140625 190.01953125 C164.81104004 190.86265869 165.68067383 191.70578613 166.57666016 192.57446289 C169.30994644 195.31022748 171.8308788 198.17257807 174.33959961 201.11254883 C177.22297925 204.39021506 180.37587191 207.39184546 183.5 210.4375 C199.83773565 226.60678471 199.83773565 226.60678471 200.05859375 235.30859375 C199.76255492 241.58270695 198.17236198 246.25967251 194 251 C188.75317463 255.37235448 184.08933378 255.48893414 177.37890625 255.62890625 C168.15850312 253.91273873 161.92537637 246.26087375 155.67679787 239.81059647 C153.99029687 238.07141494 152.29293974 236.34351813 150.59220886 234.61825562 C145.76361494 229.71669765 140.95271856 224.79803039 136.15454102 219.86669922 C133.2078391 216.83977149 130.24678124 213.8275227 127.27634239 210.8238945 C126.14988099 209.67880345 125.02914531 208.52805059 123.91431618 207.37163162 C122.36097546 205.76079205 120.79015117 204.16915788 119.21411133 202.58056641 C118.32556961 201.6696524 117.43702789 200.7587384 116.52156067 199.82022095 C114.13387096 197.68446106 114.13387096 197.68446106 111.17411804 198.2137146 C110.09792961 198.60292587 110.09792961 198.60292587 109 199 C108.63612497 202.21956469 108.70090297 203.59479637 110.6569519 206.24476624 C111.43257477 207.00325363 112.20819763 207.76174103 113.00732422 208.54321289 C113.88178192 209.41083755 114.75623962 210.27846222 115.65719604 211.17237854 C116.62291685 212.10591792 117.58875008 213.03934101 118.5546875 213.97265625 C119.53761675 214.94117207 120.51929979 215.91095414 121.49978638 216.88194275 C124.0827244 219.43447489 126.67942259 221.97250823 129.28015137 224.50689697 C133.4389252 228.56333282 137.57852022 232.63925427 141.71423721 236.71917534 C143.15942324 238.14023035 144.61163691 239.55379123 146.06491089 240.96656799 C146.94567291 241.8310405 147.82643494 242.695513 148.73388672 243.58618164 C149.51110077 244.34387344 150.28831482 245.10156525 151.08908081 245.88221741 C155.20905322 250.44819063 155.4400309 254.3226123 155.3125 260.30859375 C154.71494295 265.45505384 152.09837929 267.98198993 148.4375 271.375 C143.42436139 273.74484734 139.4347949 273.9724647 134 273 C126.39999975 269.13798365 119.59181002 263.58392852 112.875 258.375 C111.03389203 256.95828413 109.19274569 255.54161812 107.3515625 254.125 C106.44825195 253.42761719 105.54494141 252.73023438 104.61425781 252.01171875 C102.23846601 250.18350392 99.85314927 248.36914594 97.4609375 246.5625 C84.46659897 236.73860145 71.93040135 226.38995679 59.53027344 215.8293457 C56.2277946 213.02037054 52.87867274 210.27906972 49.5 207.5625 C44.11714063 203.1854888 39.05728658 198.50445873 33.98828125 193.7734375 C31.6964159 191.63645686 29.37241243 189.54776652 27 187.5 C15.22600191 177.2771356 4.17584986 166.33391519 -6.83154297 155.29882812 C-9.3878593 152.73711354 -11.94952929 150.18083894 -14.51171875 147.625 C-16.16177933 145.97427914 -17.81152998 144.3232484 -19.4609375 142.671875 C-20.21523041 141.91960632 -20.96952332 141.16733765 -21.74667358 140.39227295 C-35.49380553 126.58481359 -35.49380553 126.58481359 -37 122 C-36.50624084 119.12203979 -36.50624084 119.12203979 -35.44555664 115.72998047 C-35.25508696 115.10652489 -35.06461727 114.48306931 -34.86837578 113.84072113 C-34.22944273 111.76165651 -33.56980742 109.68976287 -32.91015625 107.6171875 C-32.45313505 106.14385711 -31.99747977 104.6701024 -31.54310608 103.19595337 C-30.57123749 100.05235142 -29.59043346 96.91173805 -28.60235596 93.77319336 C-27.06108573 88.87724094 -25.5390169 83.97546925 -24.02099609 79.07226562 C-22.49133696 74.13391979 -20.96088253 69.19583862 -19.42370605 64.25982666 C-14.8915588 49.70234722 -10.48523359 35.10992752 -6.125 20.5 C-4.10375 13.735 -2.0825 6.97 0 0 Z " fill="#000000" transform="translate(115,142)"/>
<path d="M0 0 C2.22560003 0.90060652 4.4519484 1.79934741 6.67831421 2.69805908 C8.34476454 3.37089818 10.0109538 4.04438417 11.6769104 4.71844482 C19.078879 7.71068205 26.49435857 10.66858045 33.9124279 13.62059784 C38.02477206 15.25739227 42.13632406 16.89617608 46.24799061 18.53467178 C49.68575015 19.9044283 53.12393589 21.27309556 56.5630188 22.63952637 C59.84305242 23.94290883 63.12172763 25.24965344 66.39946175 26.55880737 C68.21330703 27.2822404 70.02856855 28.0021193 71.84385681 28.72192383 C72.93307938 29.15754639 74.02230194 29.59316895 75.14453125 30.04199219 C76.0981958 30.42168152 77.05186035 30.80137085 78.03442383 31.19256592 C82.9766328 33.36730356 82.9766328 33.36730356 84.32252502 35.94508362 C84.56357468 36.62779831 84.80462433 37.310513 85.05297852 38.01391602 C85.33570114 38.79847168 85.61842377 39.58302734 85.90971375 40.39135742 C86.35852654 41.68456909 86.35852654 41.68456909 86.81640625 43.00390625 C87.30262199 44.36467285 87.30262199 44.36467285 87.79866028 45.75292969 C88.50361743 47.72932166 89.20397736 49.70735793 89.90032959 51.6867981 C91.39444543 55.93367122 92.91024997 60.17269818 94.42474365 64.41233826 C95.21905714 66.63667265 96.01220914 68.86142212 96.80426025 71.08656311 C100.68583263 81.98360673 104.66555071 92.84359473 108.6656189 103.69760132 C109.80707079 106.79775442 110.94472182 109.8992774 112.08129883 113.0012207 C115.09002933 121.20626053 118.10040745 129.40921251 121.22390747 137.57139587 C122.30778758 140.4040001 123.38109395 143.24055566 124.45391846 146.07736206 C125.16308022 147.9359984 125.89055309 149.78761622 126.61865234 151.63891602 C127.02809082 152.72229248 127.4375293 153.80566895 127.859375 154.921875 C128.21612305 155.8406543 128.57287109 156.75943359 128.94042969 157.70605469 C129.56496627 160.90235684 128.92732469 162.39670359 127.4375 165.25 C121.64398939 173.128675 114.34637918 180.23133418 104.48828125 182.19921875 C101.07417444 182.53451497 100.52956651 182.3092889 97.453125 180.328125 C96.54046875 179.39484375 95.6278125 178.4615625 94.6875 177.5 C93.65162276 176.47337167 92.61514748 175.44734648 91.578125 174.421875 C91.05798828 173.89271484 90.53785156 173.36355469 90.00195312 172.81835938 C87.5618635 170.37217715 84.99946471 168.06700935 82.4375 165.75 C81.43682377 164.83407159 80.43682502 163.91740247 79.4375 163 C78.9425 162.54625 78.4475 162.0925 77.9375 161.625 C61.4375 146.5 61.4375 146.5 59.93701172 145.12451172 C58.93869339 144.20941367 57.94032114 143.29437445 56.94189453 142.37939453 C54.4157158 140.06421148 51.89053168 137.7479599 49.3671875 135.4296875 C44.76400235 131.20233249 40.15336224 126.98473917 35.5 122.8125 C30.53237617 118.35356085 25.63066748 113.82561669 20.73046875 109.29296875 C17.61967159 106.41605238 14.49951655 103.54950383 11.375 100.6875 C10.88402832 100.23777832 10.39305664 99.78805664 9.88720703 99.32470703 C8.89865485 98.41937398 7.91004823 97.51410037 6.92138672 96.60888672 C4.42585592 94.32357503 1.93177154 92.03668587 -0.5625 89.75 C-1.05685547 89.29689453 -1.55121094 88.84378906 -2.06054688 88.37695312 C-5.07969004 85.60973325 -8.09814507 82.84176856 -11.11474609 80.07177734 C-12.1148615 79.15508573 -13.11647143 78.24002176 -14.11962891 77.32666016 C-16.62918844 75.03976939 -19.11023235 72.73165088 -21.55078125 70.37109375 C-22.50339844 69.46488281 -23.45601563 68.55867188 -24.4375 67.625 C-25.28054688 66.80773437 -26.12359375 65.99046875 -26.9921875 65.1484375 C-30.69582717 62.41292249 -33.68954975 62.05386509 -38.2109375 62.52734375 C-53.99243067 66.3483643 -67.77206601 74.77899906 -79.5 85.875 C-88.84153084 94.48765343 -100.05312258 98.76432199 -112.69140625 98.49609375 C-118.05106907 98.03669408 -121.7385253 96.45289649 -125.375 92.375 C-129.75641387 86.11583732 -130.33523724 80.73589206 -129.5625 73.25 C-125.20785299 54.27264626 -112.25717525 38.40592335 -98.98681641 24.72558594 C-97.67577953 23.36735712 -96.38936442 21.98547548 -95.10546875 20.6015625 C-67.20362114 -8.73470845 -36.96756911 -15.07139356 0 0 Z " fill="#000000" transform="translate(302.5625,128.75)"/>
<path d="M0 0 C0 64.02 0 128.04 0 194 C-37.24828301 194 -37.24828301 194 -41.84324646 190.66029358 C-46.05388025 185.57404151 -48.19477969 180.19553828 -50.34765625 173.99609375 C-50.72849869 172.94062851 -51.10934113 171.88516327 -51.50172424 170.79771423 C-52.29230444 168.60543996 -53.07695841 166.41101983 -53.85577393 164.21453857 C-55.25612714 160.28044763 -56.70144288 156.36402035 -58.15159607 152.44807434 C-59.92505825 147.65710688 -61.67931422 142.85908964 -63.4375 138.0625 C-64.21158143 135.95268563 -64.98575355 133.84290453 -65.76000977 131.7331543 C-67.36508454 127.35933632 -68.96977573 122.98537789 -70.57421875 118.61132812 C-73.36678279 110.99917598 -76.16254388 103.38819952 -78.95988464 95.77780151 C-80.87599978 90.56456663 -82.79040384 85.35071961 -84.70043945 80.13525391 C-87.95410634 71.25523882 -91.22156097 62.38223009 -94.57421875 53.5390625 C-95.35219749 51.47284944 -96.1291272 49.40624592 -96.9055481 47.33944702 C-97.59603071 45.51408337 -98.30052423 43.69403827 -99.00561523 41.87426758 C-101.6648545 34.78881202 -103.50902226 29.12995566 -100.8125 21.75 C-96.98819057 15.94759949 -91.79727759 13.81944014 -85.5 11.5625 C-84.66976318 11.2624707 -83.83952637 10.96244141 -82.98413086 10.65332031 C-57.81481835 1.83947529 -26.61744057 -4.4362401 0 0 Z " fill="#000000" transform="translate(493,121)"/>
<path d="M0 0 C23.97926146 0 66.27083198 0.24636785 86.734375 18.4296875 C90.69714092 22.92537711 91.43183868 26.21394989 91.29882812 32.09732056 C90.72207158 37.69966931 88.94811518 42.94405209 87.25 48.29296875 C86.84340914 49.60993421 86.438129 50.92730491 86.03404236 52.24504089 C84.93474717 55.81803204 83.81868264 59.38557994 82.69950485 62.95238495 C81.51979044 66.72190482 80.35506154 70.49604338 79.18969727 74.27001953 C77.70644088 79.07163269 76.22233699 83.8729666 74.73231506 88.67248535 C71.17383643 100.14302665 67.68273086 111.63272524 64.22877121 123.135149 C63.40729935 125.87021921 62.58456528 128.6049064 61.76138306 131.33946228 C61.49231455 132.23336827 61.22324604 133.12727427 60.94602394 134.04826832 C60.40680916 135.83963271 59.8675827 137.63099359 59.32834435 139.42235088 C58.00271226 143.82794352 56.67985415 148.23433545 55.36254883 152.64242554 C54.11758485 156.80745383 52.86433607 160.96990408 51.60510445 165.13064003 C51.14302335 166.66286348 50.68397314 168.19600482 50.2282238 169.73012352 C49.60144979 171.83869458 48.96399257 173.94375719 48.32397461 176.04833984 C47.96983994 177.22810394 47.61570526 178.40786804 47.25083923 179.62338257 C44.44671718 187.1930583 42.55744593 189.68145947 35 194 C23.45 194 11.9 194 0 194 C0 129.98 0 65.96 0 0 Z " fill="#000000" transform="translate(19,97)"/>
</svg>
