<svg xmlns="http://www.w3.org/2000/svg" viewBox="0 0 1024 1024" fill="currentColor" fillRule="evenodd"><path d="M160 144h304c8.837 0 16 7.163 16 16v304c0 8.837-7.163 16-16 16H160c-8.837 0-16-7.163-16-16V160c0-8.837 7.163-16 16-16m564.314-25.333 181.019 181.02c6.248 6.248 6.248 16.378 0 22.627l-181.02 181.019c-6.248 6.248-16.378 6.248-22.627 0l-181.019-181.02c-6.248-6.248-6.248-16.378 0-22.627l181.02-181.019c6.248-6.248 16.378-6.248 22.627 0M160 544h304c8.837 0 16 7.163 16 16v304c0 8.837-7.163 16-16 16H160c-8.837 0-16-7.163-16-16V560c0-8.837 7.163-16 16-16m400 0h304c8.837 0 16 7.163 16 16v304c0 8.837-7.163 16-16 16H560c-8.837 0-16-7.163-16-16V560c0-8.837 7.163-16 16-16"/></svg>
