<svg width="1024" height="1024" xmlns="http://www.w3.org/2000/svg" class="icon">

 <g>
  <title>background</title>
  <rect fill="none" id="canvas_background" height="602" width="802" y="-1" x="-1"/>
 </g>
 <g>
  <title>Layer 1</title>
  <path id="svg_1" d="m688,264c0,-4.4 -3.6,-8 -8,-8l-384,0c-4.4,0 -8,3.6 -8,8l0,48c0,4.4 3.6,8 8,8l384,0c4.4,0 8,-3.6 8,-8l0,-48zm-8,136l-384,0c-4.4,0 -8,3.6 -8,8l0,48c0,4.4 3.6,8 8,8l384,0c4.4,0 8,-3.6 8,-8l0,-48c0,-4.4 -3.6,-8 -8,-8zm-200,144l-184,0c-4.4,0 -8,3.6 -8,8l0,48c0,4.4 3.6,8 8,8l184,0c4.4,0 8,-3.6 8,-8l0,-48c0,-4.4 -3.6,-8 -8,-8zm-48,308l-224,0l0,-704l560,0l0,344c0,4.4 3.6,8 8,8l56,0c4.4,0 8,-3.6 8,-8l0,-384c0,-17.7 -14.3,-32 -32,-32l-640,0c-17.7,0 -32,14.3 -32,32l0,784c0,17.7 14.3,32 32,32l264,0c4.4,0 8,-3.6 8,-8l0,-56c0,-4.4 -3.6,-8 -8,-8zm356.8,-74.4c29,-26.3 47.2,-64.3 47.2,-106.6c0,-79.5 -64.5,-144 -144,-144s-144,64.5 -144,144c0,42.3 18.2,80.3 47.2,106.6c-57,32.5 -96.2,92.7 -99.2,162.1c-0.2,4.5 3.5,8.3 8,8.3l48.1,0c4.2,0 7.7,-3.3 8,-7.6c3.9,-69.2 61.6,-124.4 131.9,-124.4s128,55.2 131.9,124.4c0.2,4.2 3.7,7.6 8,7.6l48.1,0c4.6,0 8.2,-3.8 8,-8.3c-2.9,-69.5 -42.2,-129.6 -99.2,-162.1zm-96.8,-186.6c44.2,0 80,35.8 80,80s-35.8,80 -80,80s-80,-35.8 -80,-80s35.8,-80 80,-80z"/>
  <path d="m645,666c-3,1 -3.90979,2.94556 1,2c5.28802,-1.01837 14.02039,-5.95349 30,-13c9.0116,-3.97382 10.87854,-5.49347 14,-6c0.98706,-0.16016 -2.7016,1.47369 -12,7c-18.45715,10.96967 -58.1889,32.65192 -75,42c-12.14154,6.75146 -13,8 -13,7c0,-3 2.64459,-7.57086 12,-13c5.802,-3.367 17.32239,-9.4928 27,-16c8.29846,-5.5799 13.37476,-8.80804 16,-17c0.30518,-0.95227 0.13672,1.14679 -2,3c-7.55457,6.552 -12,10 -14,11c0,0 0.86328,-1.14679 3,-3c3.77728,-3.276 6,-6 6,-6c0,-1 -2.35333,-3.40741 0,-10c4.77814,-13.38544 14.64807,-18.22198 28,-39c11.69507,-18.19958 17.43463,-26.849 20,-25c3.245,2.33887 -7.6969,11.50214 -24,21c-23.58435,13.73975 -31.42401,18.96326 -42,21c-0.98193,0.18909 -0.94867,1.31622 0,1c4.74341,-1.58112 18.73907,-14.23889 27,-23c12.61255,-13.37622 17.29291,-18.70709 18,-18c1.41418,1.41418 -1.6347,6.37329 -19,23c-11.75818,11.25812 -14.0979,15.1756 -16,14c-4.25323,-2.62866 10.54401,-22.39301 24,-35c3.64874,-3.41858 9,-6 9,-6c0,1 -2.22949,4.74548 -20,21c-17.22595,15.75647 -25.65381,20.70544 -24,23c1.30743,1.81396 5.62042,-3.43799 11,-10c9.14349,-11.15332 15,-20 17,-21c0,0 0.85321,6.80219 -18,26c-14.37665,14.6394 -20,17 -19,18c3,3 17.96527,-21.02679 28,-34c13.95184,-18.03735 20.15912,-22.82837 19,-19c-3.13452,10.35254 -30.2019,43.28882 -52,59c-3.62799,2.61493 -5.20758,3.97821 -5,3c2.04456,-9.63428 14.96881,-25.0274 22,-33c7.96478,-9.03119 11,-11 12,-11c0,0 1.89075,2.00977 -10,22c-13.9068,23.37952 -19.81268,30.79321 -22,29c-2.78833,-2.28589 17.60547,-28.31921 29,-42c14.5094,-17.42059 21,-22 21,-22c0,3 -5.6911,13.21509 -19,32c-21.50659,30.35565 -27,39 -32,44c0,0 1.04468,-8.63867 10,-21c19.98169,-27.58136 38.76306,-44.38055 45,-48c3.86798,-2.24469 4.2431,2.16565 -4,14c-15.54797,22.32178 -41.18408,56.6814 -53,70c-0.93854,1.05792 -2.64514,0.77008 -1,-5c9.35864,-32.82404 42.49011,-57.59137 54,-67c14.40173,-11.77246 18.07086,-12.9975 18,-12c-0.50128,7.05328 -14.36957,23.75299 -39,61c-11.1687,16.88965 -12.69342,20.5412 -14,20c-2.77167,-1.14807 22.08026,-36.02344 42,-53c37.78741,-32.20422 62.75012,-43.53741 66,-41c0.78821,0.61542 -0.57037,7.32953 -16,27c-39.90753,50.87622 -70.83521,77.77374 -73,83c-0.38269,0.92389 2.88885,-9.09875 26,-35c17.91418,-20.0769 22.82111,-27.70129 26,-26c4.40839,2.35931 -9.52472,33.38507 -25,52c-27.1825,32.69727 -40.49805,44.86493 -41,44c-4.04669,-6.97314 17,-17 48,-47c31,-30 43,-39 51,-45c0,0 2.04102,3.47052 -1,12c-13.59985,38.14502 -31.30884,51.29736 -47,70c-2.72687,3.25024 -3.91901,1.89301 -3,-2c2.05499,-8.70502 21.16937,-31.0907 34,-40c19.86694,-13.7951 32.29291,-15.70709 33,-15c3.53552,3.53552 1.30652,14.13715 -18,35c-21.61737,23.35999 -31.47125,29.45874 -38,31c-0.97327,0.22974 -2.89703,-1.09015 -1,-21c2.51135,-26.35706 23.54779,-43.16449 30,-45c10.62384,-3.02222 14,-1 15,-1c4,0 6.97253,2.64752 8,7c0.68927,2.91974 2.13702,11.64606 -6,20c-9.09747,9.34003 -50.94836,24.99939 -80,26c-6.99585,0.24097 -10,0 -10,-6c0,-10 -2.61536,-33.36578 13,-48c18.41571,-17.25867 34.40161,-22.80969 63,-18c27.13257,4.56317 39.79382,15.06525 44,28c2.16473,6.65686 3.94208,13.76245 -3,24c-17.28931,25.4967 -62.24792,39.62848 -79,43c-25.50775,5.13367 -44.03912,-4.03131 -48,-15c-8.93457,-24.74213 -10.77985,-49.30597 -2,-64c6.26105,-10.47852 30.98749,-16.49994 61,-17c16.99762,-0.2832 51.77863,2.31879 71,17c3.37164,2.57526 4,6 4,11c0,3 -18.73596,23.27356 -71,57c-41.37701,26.70099 -59.50323,34.61804 -67,28c-12.0882,-10.67126 -3,-41 -3,-84c0,-29 4.12561,-43.63348 29,-51c20.22668,-5.99011 42.26752,-4.29755 52,-2c15.23376,3.59619 26.87866,19.63605 29,26c3.53552,10.60663 4.88879,20.53717 -2,30c-6.71051,9.2179 -45.35938,27.97723 -83,32c-15.90942,1.70032 -42.45459,-11.93903 -48,-55c-2.68225,-20.828 -7.09045,-56.44672 1,-78c4.50049,-11.98938 25.18677,-22.4375 41,-20c19.69226,3.03546 35.33765,10.77161 50,35c10.48358,17.32324 7.49933,26.00732 7,43c-0.50024,17.02203 -10.71362,29.02228 -36,38c-17.3764,6.16931 -24,4 -25,4c0,0 0,-8 0,-12l0,-5l2,-2" id="svg_2" stroke-width="10.5" stroke="#000" fill="none"/>
  <path d="m710,624c-6,1 -7,2 -7,2c5,-4 15.04944,-11.94452 33,-28c10.02771,-8.96912 13,-10 13,-10c0,0 1,0 2,0c1,0 2,0 2,0c1,0 1,0 1,2c0,4 -2.87531,17.31549 -16,35c-6.44629,8.68591 -5.69342,11.5412 -7,11c-0.92389,-0.38269 -1.00531,-7.10211 0,-12c1.53125,-7.46027 7,-11 8,-12c0,0 1,0 1,3c0,3 -9.31586,20.35864 -19,38c-2.80591,5.11145 -4,8 -4,4c0,-4 2.38507,-13.37201 5,-17c2.48071,-3.44183 4,-3 4,-3c0,3 1.32373,9.12628 0,16c-1.01837,5.28802 -3,6 -3,5c0,-6 0.0329,-18.17151 23,-37c16.72992,-13.71527 24,-15 25,-15c0,0 0,2 0,6c0,5 -8.11353,14.92029 -13,22c-2.0481,2.96735 -3.07611,3.61731 -4,4c-2.6131,1.0824 -2,3 -3,4c0,0 -0.80078,-0.10883 0,-3c1.55646,-5.61938 6.29291,-7.29291 7,-8c0.70709,-0.70709 3.04034,0.53302 0,8c-13.72705,33.71301 -25.74866,40.4267 -34,45c-0.87463,0.48474 -1,-1 -1,-4c0,-11 3.70544,-20.34619 6,-22c3.62799,-2.61493 7,-2 8,-2c1,0 3,0 4,0c1,0 1,3 1,7c0,9 0,16 0,18l0,0" id="svg_3" stroke-width="10.5" stroke="#000" fill="none"/>
  <path d="m773,651c0,3 -2.96881,5.03522 -12,13c-7.9726,7.03119 -11.5412,8.69342 -11,10c0.38269,0.92389 3.93158,-4.39923 13,-7c1.92249,-0.55139 4,-2 4,-2c0,-1 1,-2 2,-2l0,-2l0,0" id="svg_4" stroke-width="20.5" stroke="#000" fill="none"/>
  <path d="m707,722c0,1 4,1 7,1c8,0 16.21405,0.75922 21,-1c9.66345,-3.55206 15,-8 16,-9c0,0 0.36658,3.02246 0,6c-0.50378,4.09222 -11.10693,19.77386 -32,32c-15.86761,9.28534 -22.58582,9.41418 -24,8c-2.82843,-2.82843 1.21637,-10.91077 22,-28c7.72418,-6.35114 19.5412,-11.69342 19,-13c-1.53076,-3.6955 -9.56079,0.64484 -23,7c-5.2713,2.49274 -5,3 -3,3c6,0 16.09406,-3.69806 39,-11c12.05157,-3.8418 13,-4 12,-4c-5,0 -22.15015,8.76678 -44,23c-9.06329,5.90393 -22,12 -24,15c0,0 -0.40216,-0.04083 0,-2c3.06256,-14.92047 22.54565,-29.74493 32,-35c10.56122,-5.87036 14,-5 14,-5c-3,1 -25.48785,14.48798 -57,45c-11.1759,10.82123 -20,21 -20,22c0,0 -6.99988,-11.02771 2,-29c7.289,-14.55579 19.85156,-15.99512 30,-17c6.96594,-0.68976 10,1 10,0c0,-3 -19,0 -27,0c-6,0 -7.29456,-0.34619 -5,-2c14.51196,-10.45959 28.09125,-12.68195 53,-20c13.04993,-3.83398 14,-4 14,-4c-5,0 -14.76056,3.68201 -31,9c-31.59076,10.34521 -50,13 -52,13c-1,0 1.35394,1.30963 11,-2c6.34509,-2.17706 21.42401,-11.96326 32,-14c1.96393,-0.37823 -3.11981,-0.32874 -9,2c-13.31189,5.27191 -37.92029,19.11353 -45,24c-5.93475,4.09619 -6,4 -5,4c3,0 4.7265,-2.29364 9,-6c3.77728,-3.276 10.36169,-5.39832 19,-11c4.19513,-2.72046 8,-5 8,-5c-1,0 -16.24396,3.11346 -25,6c-9.3537,3.08362 -9.80005,5.24884 -6,4c22.42114,-7.36829 43.93854,-40.04816 51,-49c3.96564,-5.02728 3.99542,-5.16589 1,-5c-9.0415,0.50079 -23.28174,3.92834 -48,11c-6.08063,1.73962 -9,3 -9,3c0,-5 19.35535,-27.00226 36,-37c24.1554,-14.50916 42,-17 45,-18c0,0 -0.01947,-0.39417 -4,0c-10.14844,1.00488 -32.26105,10.45795 -41,15c-10.34772,5.37823 -10.95099,7.30927 -10,7c12.93475,-4.20618 28.8739,-20.20764 37,-25c8.86829,-5.23004 11.70709,-5.29291 11,-6c-0.70709,-0.70709 -20.5155,6.47919 -40,9c-2.97522,0.38495 -5.34137,0.97064 -5,-1c2.53723,-14.64795 8.37933,-25.44135 21,-38c8.08209,-8.04236 13,-7 16,-7c3,0 5,0 6,0c1,0 1,0 1,1c0,8 -3.16821,21.54388 -17,28c-5.73102,2.67499 -14.16052,4.37854 -20,3c-2.17627,-0.51373 -2,-5 -2,-8c0,-4 0.1908,-13.44202 12,-16c13.68268,-2.96381 19,0 26,0c2,0 2,2 2,5c0,1 0,2 0,4c0,6 -1.52411,11.31628 -13,17c-11.08435,5.48981 -16,3 -22,3c-4,0 -5,-1 -5,-4c0,-5 -1.52588,-13.23853 0,-18c2.62524,-8.19196 18.90045,-12.9978 34,-14c4.98901,-0.33112 15,0 19,0c0,0 2,3 2,9c0,3 0,12 0,20c0,5 1.53284,15.29401 -5,18c-2.77167,1.14807 -4.58582,1.41418 -6,0c-2.82843,-2.82843 1.50085,-11.90552 10,-16c16.24127,-7.82434 28,-7 32,-7c1,0 2,0 2,0c0,1 0.48053,4.03876 0,7c-1.01306,6.24286 -8.55957,15.5379 -17,22c-2.86285,2.19183 -5,2 -5,2c0,-1 0,-4 0,-8c0,-3 7.86481,-8.99597 19,-10c7.96765,-0.71844 9.29291,-0.70709 10,0c2.12134,2.12134 1.33173,10.48706 -4,23c-8.07166,18.9433 -12.69342,26.5412 -14,26c-0.92389,-0.38269 -1.41418,-2.58582 0,-4c1.41418,-1.41418 3,-1 3,1c0,5 0,21 0,34c0,4 0,11 0,13c0,1 0,-1 0,-5c0,-5 -0.48871,-17.02997 0,-21c0.50378,-4.09222 -1.81885,-1.59088 -15,4c-48.38239,20.52179 -94.93976,32.19708 -111,37c-13.94977,4.17181 -14,4 -14,3c0,-5 -0.92725,-12.36847 9,-36c6.41095,-15.26105 24.9411,-49.24036 47,-67c6.70056,-5.39465 16,-7 21,-7c3,0 5.08026,-0.68927 8,0c2.17627,0.51373 2,1 2,3c0,9 3.05194,25.38654 -21,53c-12.54822,14.40631 -25,18 -28,18c-4,0 -5,0 -5,-1c0,-4 -7.50806,-31.10205 8,-58c7.77008,-13.47687 33.54181,-28.61047 45,-31c15.6936,-3.27277 23,-1 24,-1c1,0 1,0 1,1c0,7 6.19446,21.026 -9,57c-10.14624,24.02197 -26.90778,33.49622 -31,34c-4.96252,0.6109 -9,0 -10,0c-2,0 -2,-1 -2,-1c0,-2 -2.98682,-8.34778 0,-21c2.56873,-10.88123 16.12268,-25.79474 27,-30c4.75598,-1.83868 9,-1 11,-1c1,0 1.12427,1.00385 1,3c-0.50098,8.04669 -35.4574,55.09375 -75,85c-10.39917,7.86493 -19,11 -19,9c0,-2 -1.32465,-10.09802 0,-19c3.53851,-23.77979 21.65106,-44.43286 29,-50c11.49597,-8.70874 19.0097,-8.80292 21,-9c5.07422,-0.50244 9.87866,-4.12134 12,-2c0.70709,0.70709 -5.43475,34.08398 -19,52c-24.36365,32.1778 -49,43 -57,43c-8,0 -12.87036,-4.79041 -18,-28c-2.41278,-10.91687 -3,-28 -3,-41c0,-6 16.68103,-17.37219 44,-23c12.88245,-2.65381 36,-3 53,-3c13,0 20,0 29,0c5,0 5,0 5,0c0,2 0,5 0,11c0,13 0,30 0,37c0,4 0,5 0,4c0,-1 7.92004,-4.2807 18,-7c24.82251,-6.69647 37,-8 38,-8c0,0 -0.38831,3.33002 -6,13c-7.23889,12.47394 -13.34119,18.65625 -16,26c-0.34045,0.94025 0,0 0,-3c0,-8 -3.21484,-29.30676 0,-46c1.01837,-5.28802 4,-7 5,-9c0,0 1,-1 2,-3c0,0 -0.16016,-1.01294 0,-2c0.50653,-3.12146 1,-4 1,-5c0,-1 -0.16498,-1.99316 0,0c0.50171,6.06201 1,8 1,9c0,1 0,1 0,1c1,0 2.05353,0.45953 4,0c2.17627,-0.51373 3.43463,-6.151 6,-8c0.81122,-0.58472 1,-1 1,-1c0,6 0,8 0,11c0,2 0,0 0,-3c0,-11 0,-18 0,-19c0,-1 0.45953,0.05353 0,2c-0.51373,2.17627 -6.84283,7.35138 -11,9c-9.70502,3.84875 -19,4 -26,4c-8,0 -10,0 -10,-1c0,-24 0,-46 0,-78c0,-9 0,-10 -6,-10c-9,0 -24.34497,0.617 -51,8c-9.14258,2.53235 -9,3 -8,3c5,0 12.01093,-1.9469 17,-3c9.02075,-1.90417 13,-3 15,-3l0,0l0,0" id="svg_5" stroke-width="20.5" stroke="#000" fill="none"/>
  <path d="m673,598c1,0 2,0 5,0c4,0 6.85272,3.1731 8,4c1.81396,1.30743 2,3 4,3l1,0l1,0l1,0" id="svg_6" stroke-width="20.5" stroke="#000" fill="none"/>
  <path d="m549,945c8,0 9,0 12,0c3,0 5,0 8,0c2,0 3,0 6,0c3,0 6,-1 8,-1c4,0 7,0 9,0c2,0 4,0 5,0c4,0 7,0 10,0c3,0 8.13373,1.14874 13,0c2.17627,-0.51373 5.29291,-1.29291 6,-2c0.70709,-0.70709 -1.26801,-1.45331 0,-3c3.23273,-3.9433 11.01672,-1.85956 20,-3c14.02954,-1.78107 26,-3 31,-3c10,0 16,0 18,0c5,0 7,0 9,0c2,0 4,0 5,0c4,0 7,0 10,0c3,0 6,0 10,0c2,0 4.03876,-0.48053 7,0c3.12146,0.50653 4,1 7,1c3,0 4.01501,0.75562 6,1c4.09222,0.50378 6.04498,0.26691 12,1c4.09222,0.50378 6,1 9,1c4,0 5,0 9,0c4,0 8.0097,-0.19708 10,0c5.07422,0.50244 12.0058,0.8136 15,1c8.04669,0.50098 12.92578,2.49756 18,3c1.9903,0.19708 4,1 5,1c0,0 2,0 4,0c2,0 4,0 8,0l4,0l1,0l2,0" id="svg_7" stroke-width="20.5" stroke="#000" fill="none"/>
  <path stroke="#000" d="m629,826c4,0 5,0 9,0c1,0 0.86603,-1.02667 -3,0c-7.79218,2.06934 -19.72034,8.62061 -36,18c-13.7002,7.89331 -24.54535,18.58472 -29,25c-4.59839,6.62231 -4.30743,8.81396 -3,7c6.61523,-9.17816 44.07336,-45.2326 65,-60c40.35919,-28.48047 58.79242,-37.91925 79,-42c1.96045,-0.39587 -0.57483,1.28009 -7,7c-32.2558,28.71527 -52.88293,62.07434 -58,70c-1.95569,3.02905 -2.05377,2.94318 -1,2c14.31342,-12.81116 27.53583,-20.25531 45,-26c3.91663,-1.28833 -0.49811,2.52844 -11,12c-45.92706,41.42108 -70.67712,51.69873 -92,69c-2.19635,1.7821 -1.89307,2.10577 8,-8c23.25397,-23.75403 35.14087,-39.54877 59,-55c7.50751,-4.86188 9.31622,-4.94867 9,-4c-6.32458,18.97369 -29.19525,32.21643 -71,59c-19.63892,12.58228 -22,12 -22,12c0,0 3.82611,-0.58124 23,-6c31.74158,-8.97052 61.87592,-13.99658 74,-15c14.94891,-1.23718 17.96936,-0.08771 15,1c-10.11316,3.70453 -48.42297,19.61298 -80,30c-10.83081,3.56274 -24.5412,5.69342 -24,7c1.14807,2.77167 8,0 29,0c10,0 22,0 25,0c0,0 -7,0 -36,0c-15,0 -37.17157,2.82843 -40,0c-1.41418,-1.41418 3,-4 9,-8c12,-8 26.9585,-12.49921 36,-13c16.974,-0.94012 34.09021,-1.05444 39,-2c5.28802,-1.01837 6,-3 3,-3c-9,0 -30.01312,-0.99896 -68,0c-19.01971,0.50018 -21,2 -21,2c2,-6 10.40289,-18.55792 28,-35c28.646,-26.76581 49,-34 51,-34c1,0 -1.34741,0.5545 -13,10c-8.25793,6.69379 -9,9 -9,9c0,0 14.12567,-6.89838 23,-18c1.39618,-1.74658 2.3606,-1.93274 2,-1c-5.36066,13.86591 -30.81647,37.79431 -60,80c-10.57916,15.29974 -11,16 -11,15c0,-4 9.01471,-25.81409 29,-49c14.31903,-16.61224 20.54913,-20.95514 24,-22c0.95709,-0.28979 2,0 2,0c1,0 2,0 2,0c-9,6 -38.66907,30.44562 -52,40c-2.9306,2.1004 -7,7 -6,7c5,0 22.09943,-33.16071 45,-50c39.55029,-29.08221 73.04657,-40.84888 83,-44c3.01483,-0.95447 3,-1 3,1c0,1 0.91901,5.10699 0,9c-0.51373,2.17627 -4.86829,6.28857 -9,8c-5.84314,2.42029 -9.45935,0.98267 -17,5c-7.5921,4.04474 -10,6 -10,8c0,1 4.08026,1.89215 9,1c25.2207,-4.57336 56.77142,-23.51941 77,-35c3.13574,-1.77966 3.51697,-2.68744 -1,1c-12.61041,10.29456 -49.84589,66.02026 -65,82c-11.20166,11.81195 -12,12 -12,12c0,-2 1.69324,-6.68237 18,-18c10.29364,-7.14429 30,-14 37,-16c0,0 0,0 -6,4c-18,12 -44.55981,33.64777 -98,61c-19.52307,9.99249 -22,10 -22,10c0,-1 2.65375,-4.31232 9,-11c19.96198,-21.03613 49.27148,-48.3797 76,-54c4.89301,-1.02887 6.93787,-0.70233 3,0c-19.9339,3.55524 -31.42029,9.61298 -50,16c-7.20209,2.47583 -6.97949,4.02032 -5,2c24.25378,-24.75385 56.17682,-47.54364 67,-52c13.2395,-5.45129 16,-6 16,-6c-4,3 -23,16 -35,24c-3,2 -2.88361,2.67236 -1,2c13.38544,-4.77814 29.77173,-23.38531 38,-28c9.75146,-5.46893 13.20514,-5.77979 10,-3c-7.55457,6.552 -30.54749,28.67041 -41,33c-0.92389,0.38269 -1.63245,-0.10266 -1,-2c1.58112,-4.74341 13.8465,-14.13879 22,-23c3.38556,-3.67938 6,-6 6,-6c0,0 -1,0 -3,0c-2,0 -3.32404,-2.22546 -2,-6c2.11951,-6.04218 15,-14 20,-14c11,0 20.91577,4.07306 27,11c8.87842,10.10809 11,15 11,17c0,1 0.58112,3.41888 -1,5c-1.58112,1.58112 -8.91595,4.26166 -21,8c-6.9549,2.15161 -17,3 -22,3c-1,0 -1.09344,-3.14386 5,-7c9.85443,-6.23621 31.97382,-14.14978 43,-16c12.97162,-2.17664 15,-2 12,-1c-6,2 -31.2066,10.23615 -51,16c-3.03619,0.88416 -4,1 -4,1c4,-1 8.52606,-4.76111 21,-12c3.86798,-2.24469 8,-4 8,-4c0,0 -21.6272,12.43524 -46,18c-5.93018,1.35394 -9.62982,0.5061 -4,-4c10.87415,-8.70361 27,-9 35,-9c14,0 21,0 21,0c0,5 -4.56903,9.40778 -15,20c-15.38867,15.62653 -25.9928,23.84985 -45,33c-10.54626,5.07703 -12.29291,4.70709 -13,4c-1.41418,-1.41418 -6.49768,-12.48157 9,-28c24.03589,-24.06812 51.96344,-19.99969 93,-21c25.99231,-0.63361 31,1 31,0c0,-1 -8.177,0.68665 -42,20c-24.12836,13.77765 -67.07825,28.52094 -77,45c-0.51581,0.85669 2.19714,-2.90771 10,-9c22.97992,-17.9422 47.95331,-21.49902 56,-22c7.98456,-0.49707 8.88666,-1.05847 4,0c-11.8092,2.55798 -68.42993,30.85645 -95,38c-35.41656,9.52197 -42.99402,8.10913 -42,8c9.16449,-1.00598 28.47845,-14.16479 45,-17c26.62927,-4.56976 48,-1 54,-1c2,0 0.98297,-0.41241 -4,0c-12.12408,1.00342 -43.08112,16.80963 -55,22c-11.07819,4.82428 -11.87463,6.51526 -11,7c8.25134,4.5733 20.06268,-23.09369 65,-41c39.2041,-15.62177 58.93762,-13.99915 83,-15c5.99481,-0.24933 5.95917,-0.57013 2,0c-17.53912,2.52582 -33,13 -36,15c-3,2 -5,5 -5,6c0,0 4.06836,-1.77454 11,-4c14.15448,-4.54437 23.46661,-7.0108 36,-11c2.13074,-0.67816 -1.04065,-1.80566 -9,-1c-44.68268,4.52301 -65.92487,15.47095 -99,29c-6.20886,2.53967 -6,3 -6,3c2,0 7.13043,0.51245 12,-1c14.54608,-4.51788 34.75714,-12.98694 41,-14c6.90961,-1.12128 9,0 12,0c1,0 3,-1 3,-1c-3,2 -18.52216,13.83179 -25,17c-8.52216,4.16803 -15,5 -15,6c0,4 26,0 43,0c31,0 52,0 55,0c1,0 -2.01099,-0.33112 -7,0c-15.09955,1.0022 -22,2 -36,2c-8,0 -8.53387,-0.07257 -8,-2c1.55646,-5.61938 9.07166,-13.5166 23,-21c9.48761,-5.09753 13,-3 13,-4c0,-4 -8,0 -16,0c-1,0 -2,0 0,0c3,0 8,0 18,0c4,0 6,0 6,0c0,0 0.17029,1.28265 -3,3c-6.69641,3.62744 -15,5 -19,7c-6,3 -6,5 -6,6c0,0 3,0 8,0c7,0 11,-1 15,-2c0,0 -1.02673,0.22974 -2,0c-6.52875,-1.54126 -9.15778,-7.74664 -19,-18c-8.33875,-8.68707 -12,-11 -12,-11c0,-1 0,-2 -3,-2c-17,0 -42.02728,0.65985 -50,0c-6.06201,-0.50171 -6.52576,-1.14935 -6,-2c7.05341,-11.41266 25.33636,-13.0144 56,-22c17.69501,-5.1853 20,-4 20,-4c-2,0 -8.05927,-0.92932 -31,1c-16.06781,1.35132 -20,2 -20,3c0,0 3,0 7,0c11,0 23,0 28,0c5,0 6,0 6,0c0,1 1,3 1,4c0,2 0,4 0,5c0,2 0,3 0,4c0,0 0,1 0,1c1,1 1,1 1,0c0,0 0,-1 0,-2c0,-2 -2.89264,-4.23969 -25,-14c-13.93396,-6.15179 -21.89606,-5.46326 -27,-15c-0.94373,-1.76337 -0.59009,-2.31812 -3,-5c-5.22021,-5.80939 -8,-8 -10,-10c0,0 -0.05634,-0.18835 3,-1c4.92822,-1.30878 7,-1 7,-1l0,0l0,0l0,1" id="svg_9" stroke-width="20.5" fill="none"/>
  <path d="m628,946c0,0 1,0 1,0c1,0 4.86829,-0.28857 9,-2c2.92157,-1.21014 6.92578,-3.49756 12,-4c0.99512,-0.09851 5,-1 10,-1c3,0 7.93799,-0.49829 14,-1c1.99316,-0.16498 5,0 8,0c4,0 6,-1 10,-1c5,0 6,0 11,0c4,0 8,0 10,0c4,0 10,-1 12,-1c5,0 8,0 10,0c5,0 8.10699,0.91901 12,0c2.17627,-0.51373 5,-1 8,-1c1,0 5,0 8,0c2,0 5.96381,-1.11584 9,-2c3.95868,-1.15277 6.13373,0.14874 11,-1c2.17627,-0.51373 5,-1 7,-1c2,0 3.06458,0.8009 8,0c3.12146,-0.50653 4,-1 6,-1c3,0 7,0 9,0l3,0l2,0" id="svg_10" stroke-width="20.5" stroke="#000" fill="none"/>
  <path d="m720,944c-720,-944 -720,-944 -720,-944l721,944l1,0l6,-2" id="svg_11" stroke-width="20.5" stroke="#000" fill="none"/>
  <polyline stroke-linecap="round" id="svg_12" points="754,941 754,941 756,941 752,941 745,941 730,941 722,942 715,942 714,942 714,942 714,943 713,944 710,945 709,945 708,946 708,946 706,946 701,946 700,946 700,946 700,946 700,947 722,943 737,937 760,932 771,931 772,931 770,931 746,931 722,931 680,931 664,934 663,934 663,935 663,936 663,936 663,936 663,936 668,936 673,936 693,936 727,936 760,936 772,936 780,936 779,936 773,936 759,936 819,946 825,941 825,940 825,940 824,940 820,940 800,938 788,937 766,934 747,934 741,934 740,934 742,934 747,934 763,934 780,934 786,934 793,934 795,934 794,934 787,935 784,936 774,939 769,941 768,941 767,941 767,942 767,943 768,943 772,943 778,943 787,943 790,943 792,943 792,943 786,943 775,943 753,943 745,943 740,943 740,943 742,943 745,943 757,941 767,941 770,941 771,941 770,941 762,941 746,941 705,943 669,945 658,945 650,945 649,945 649,945 650,945 652,945 656,945 669,945 691,945 703,944 722,940 727,937 736,934 741,933 745,932 747,932 749,932 749,932 747,934 742,936 721,943 709,946 763,945 773,944 780,941 780,940 780,940 780,940 780,940 780,939 781,939 783,938 787,936 790,934 793,931 794,929 795,925 795,922 795,921 795,920 793,920 789,920 788,920 784,920 781,920 779,921 775,923 772,925 770,925 767,926 766,927 766,927 " opacity="0.5" stroke-width="20.5" stroke="#000" fill="none"/>
  <path d="m766,927c0,-1 -0.38269,-2.07611 0,-3c0.5412,-1.30658 3.75714,-2.98694 10,-4c10.85797,-1.76202 17,0 28,0c8,0 9,0 10,0c0,0 0,0 1,0c0,0 1,0 2,0c0,0 2,0 2,0c3,0 6,0 9,0c1,0 1.61731,-0.07611 2,-1c0.5412,-1.30658 0.91974,-1.31073 -2,-2c-4.35248,-1.02747 -23.96313,-14.06183 -34,-20c-11.95654,-7.07391 -15,-9 -15,-9c2,0 13.08282,6.87848 19,11c11.16089,7.77399 17,12 17,12c0,0 1,0 2,0c1,0 1,0 2,0c0,0 1.21112,-0.89441 3,0c4.47211,2.23608 5,6 5,7c0,0 0,1 0,2c0,1 0,1 0,1c0,1 0,1 -1,1c-2,0 -3,-1 -3,-5l-1,-3l-1,0l0,-1" id="svg_13" stroke-width="20.5" stroke="#000" fill="none"/>
  <path d="m820,913c0,2 0,2 0,2c0,0 4,0 5,0l0,0l1,0" id="svg_14" stroke-width="20.5" stroke="#000" fill="none"/>
  <path d="m734,809c0,2 0,7 0,27c0,7 0,14 0,15c0,1 0,2 0,2c0,2 0,2 0,2c1,0 2,-3 4,-25l0,-11l0,-2l0,0" id="svg_15" stroke-width="20.5" stroke="#000" fill="none"/>
  <path d="m666,869c-15,0 -29,0 -30,0l0,1l0,0l0,0" id="svg_16" stroke-width="20.5" stroke="#000" fill="none"/>
  <path d="m677,613c0,0 0,-1 0,-2c0,-1 0,-1 0,-3c0,-1 0.69342,-2.4588 2,-3c0.92389,-0.38269 2.18604,0.30743 4,-1c1.14728,-0.8269 3,-1 3,-1c0,0 -1.22833,-1.14807 -4,0c-3.91968,1.6236 -3,5 -3,7c0,1 0,4 0,7c0,1 -1,5 0,5c3,0 -1.12524,-8.55377 9,-25c7.05328,-11.45648 10,-11 11,-11c0,0 0,1 0,4c0,5 -7.1283,8.59589 -14,11c-12.27069,4.29297 -19,6 -19,6c0,0 0,1 0,2c0,1 0,2 0,3c0,1 0,3 0,3c2,-1 2.45331,-5.31183 12,-15c7.01886,-7.12286 11,-7 14,-7c4,0 7,0 8,0c1,0 1,0 1,0c0,1 0,2 0,3c0,3 1,9 4,15c1,2 3,5 5,5c1,0 2.96326,0.1604 7,1c5.95532,1.23865 10,2 17,4c7,2 9.37201,2.38507 13,5c1.14728,0.8269 1,2 1,2c0,1 0,2 0,7c0,3 0,6 0,8c0,2 0,2 0,3c0,1 0,2 0,8c0,3 -1.29291,4.29291 -2,5c-0.70709,0.70709 0,1 0,1c-2,0 -3,0 -5,0c-2,0 -3.29291,0.70709 -4,0c-0.70709,-0.70709 0,-2 -1,-2c-1,0 -1,0 -2,0c0,0 0.34692,0.06213 0,1c-3.19867,8.64685 -25.07703,35.45721 -51,91c-9.11011,19.51941 -8,21 -8,21c0,0 0,-1 0,-2c0,-2 -1.36169,-4.23889 0,-8c2.65881,-7.34375 9.75226,-10.28314 12,-12c6.4071,-4.89374 11.18604,-7.69257 13,-9c2.29456,-1.65381 6,-6 6,-7l0,0l0,-1l0,0" id="svg_17" stroke-width="20.5" stroke="#000" fill="none"/>
  <path d="m680,604c0,1 0,1 0,1c0,0 0.724,1.22272 4,5c6.48615,7.47864 9,9 10,10l0,0" id="svg_18" stroke-width="20.5" stroke="#000" fill="none"/>
  <path d="m683,945c0,0 2,0 4,0c7,0 11,0 13,0c3,0 3,0 3,0c1,0 3,0 4,0c1,0 3,0 5,0c0,0 1,0 1,0c1,-1 3,-1 6,-1c2,0 4,0 5,0c2,0 5,0 11,0c5,0 7,0 8,0c3,0 6,0 8,0c4,0 5,0 6,0c2,0 7,0 9,0c4,0 5,0 6,0c2,0 4,0 6,0c1,0 2,0 7,0c5,0 9,-1 10,-1c2,0 7,-1 10,-1c6,0 9,-1 10,-1c0,0 1,0 2,0l0,0" id="svg_19" stroke-width="20.5" stroke="#000" fill="none"/>
  <path stroke="#000" transform="matrix(1,0,0,1,0,0) matrix(1,0,0,1,0,0) matrix(1,0,0,1,0,0) " d="m801,941c-1,0 -2,0 -2,0c0,0 -6,0 -10,0c-6,0 -7,0 -8,0c-1,0 -4,0 -10,0c-1,0 -7,0 -10,0c-1,0 -2,0 -2,0c-3,0 -5,0 -8,0c-4,0 -6,0 -9,0c-2,0 -2,0 -3,0c-5,0 -7,0 -12,0c-3,0 -4,0 -5,0c-1,0 -3,0 -4,0c-3,0 -5,0 -6,0c0,0 0,0 -2,0l-2,0l-3,0l-1,0" id="svg_20" stroke-width="20.5" fill="#ffffff"/>
  <rect id="svg_34" height="50" width="392" y="264" x="295" stroke-opacity="null" stroke-width="20.5" stroke="#000" fill="#ffffff"/>
  <rect id="svg_35" height="47" width="384" y="411" x="295" stroke-opacity="null" stroke-width="20.5" stroke="#000" fill="#ffffff"/>
  <rect id="svg_36" height="54" width="187" y="549" x="296" stroke-opacity="null" stroke-width="20.5" stroke="#000" fill="#ffffff"/>
  <rect id="svg_37" height="107" width="570" y="141" x="207" stroke-opacity="null" stroke-width="20.5" stroke="#000" fill="#000000"/>
  <rect id="svg_38" height="647" width="78" y="227" x="198" stroke-opacity="null" stroke-width="20.5" stroke="#000" fill="#000000"/>
  <rect id="svg_39" height="239" width="169" y="609" x="289" stroke-opacity="null" stroke-width="20.5" stroke="#000" fill="#ffffff"/>
  <ellipse stroke="#000" ry="115" rx="121.5" id="svg_40" cy="665.99999" cx="691.5" stroke-opacity="null" stroke-width="20.5" fill="#ffffff"/>
  <rect id="svg_43" height="62" width="471" y="470" x="287" stroke-width="20.5" stroke="#000" fill="#000000"/>
  <rect id="svg_44" height="67" width="500" y="325" x="276" stroke-width="20.5" stroke="#000" fill="#000000"/>
  <rect id="svg_45" height="211" width="81" y="241" x="695" stroke-width="20.5" stroke="#000" fill="#000000"/>
  <rect stroke="#000" id="svg_46" height="19" width="128" y="538" x="494" stroke-width="20.5" fill="#000000"/>
  <rect id="svg_47" height="294" width="7" y="566" x="495" fill-opacity="null" stroke-opacity="null" stroke-width="20.5" stroke="#000" fill="#000000"/>
  <rect id="svg_48" height="236" width="29" y="610" x="466" fill-opacity="null" stroke-opacity="null" stroke-width="20.5" stroke="#000" fill="#000000"/>
  <rect id="svg_49" height="1" width="76" y="571" x="513" fill-opacity="null" stroke-opacity="null" stroke-width="20.5" stroke="#000" fill="#000000"/>
  <rect id="svg_50" height="37" width="55" y="609" x="504" fill-opacity="null" stroke-opacity="null" stroke-width="20.5" stroke="#000" fill="#000000"/>
  <rect id="svg_51" height="14" width="74" y="576" x="510" fill-opacity="null" stroke-opacity="null" stroke-width="20.5" stroke="#000" fill="#000000"/>
  <rect id="svg_53" height="215" width="17" y="647" x="510" fill-opacity="null" stroke-opacity="null" stroke-width="20.5" stroke="#000" fill="#000000"/>
  <rect id="svg_55" height="21" width="106" y="770" x="505" fill-opacity="null" stroke-opacity="null" stroke-width="20.5" stroke="#000" fill="#000000"/>
  <rect id="svg_56" height="42" width="9" y="794" x="540" fill-opacity="null" stroke-opacity="null" stroke-width="20.5" stroke="#000" fill="#000000"/>
  <rect id="svg_57" height="124" width="34" y="641" x="537" fill-opacity="null" stroke-opacity="null" stroke-width="20.5" stroke="#000" fill="#000000"/>
  <rect id="svg_58" height="12" width="31" y="804" x="543" fill-opacity="null" stroke-opacity="null" stroke-width="20.5" stroke="#000" fill="#000000"/>
  <rect id="svg_59" height="219" width="154" y="622" x="299" fill-opacity="null" stroke-opacity="null" stroke-width="20.5" stroke="#000" fill="#000000"/>
  <rect id="svg_60" height="14" width="91" y="850" x="429" stroke-opacity="null" stroke-width="20.5" stroke="#000" fill="#ffffff"/>
  <rect id="svg_63" height="63" width="94" y="849" x="425" stroke-opacity="null" stroke-width="20.5" stroke="#000" fill="#ffffff"/>
  <rect id="svg_64" height="13" width="105" y="853" x="418" stroke-opacity="null" stroke-width="20.5" stroke="#000" fill="#ffffff"/>
  <rect id="svg_65" height="17" width="101" y="875" x="414" stroke-opacity="null" stroke-width="20.5" stroke="#000" fill="#ffffff"/>
  <rect id="svg_68" height="77" width="8" y="471" x="767" stroke-opacity="null" stroke-width="20.5" stroke="#000" fill="#ffffff"/>
  <rect id="svg_70" height="94" width="48" y="482" x="781" stroke-opacity="null" stroke-width="20.5" stroke="#000" fill="#000000"/>
  <rect id="svg_71" height="159" width="63" y="387" x="767" stroke-opacity="null" stroke-width="20.5" stroke="#000" fill="#000000"/>
  <rect id="svg_72" height="151" width="60" y="422" x="770" stroke-opacity="null" stroke-width="20.5" stroke="#000" fill="#000000"/>
  <ellipse stroke="#000" ry="147.5" rx="175.99999" id="svg_77" cy="932.49999" cx="693.00001" stroke-opacity="null" stroke-width="20.5" fill="#ffffff"/>
 </g>
</svg>