<svg xmlns="http://www.w3.org/2000/svg" viewBox="0 0 1024 1024" fill="currentColor" fillRule="evenodd"><path d="M800 112.962C800 50.575 749.425 0 687.038 0H112.962C50.575 0 0 50.575 0 112.962v574.076C0 749.426 50.575 800 112.962 800h574.076C749.425 800 800 749.426 800 687.038zM662.759 348.916c-51.615.577-99.71-15.027-141.938-43.927v202.874c0 90.166-61.72 167.62-148.996 187.848-119.068 27.165-219.864-58.954-232.577-161.835-13.294-102.884 52.322-193.051 152.892-213.281 19.651-4.045 49.209-4.045 64.458-.577v108.661c-4.692-1.153-9.086-2.31-13.709-2.888-39.304-6.937-77.371 12.715-92.977 48.55-15.605 35.838-5.16 77.451 26.629 101.73 26.586 20.806 56.085 23.694 86.14 9.822 30.057-13.291 46.21-37.567 49.676-70.512.578-4.622.546-9.826.546-15.028V110.206c0-10.981.086-10.502 11.068-10.502h86.12c6.36 0 8.673.915 9.25 8.433 4.621 67.047 55.526 124.147 120.838 132.818 6.937 1.155 14.369 1.613 22.58 2.19z" transform="translate(112 112)"/></svg>
