<?xml version="1.0" standalone="no"?><!DOCTYPE svg PUBLIC "-//W3C//DTD SVG 1.1//EN" "http://www.w3.org/Graphics/SVG/1.1/DTD/svg11.dtd"><svg class="icon" width="64px" height="64.00px" viewBox="0 0 1024 1024" version="1.1" xmlns="http://www.w3.org/2000/svg"><path fill="#333333" d="M120 230h496c4.4 0 8-3.6 8-8v-56c0-4.4-3.6-8-8-8H120c-4.4 0-8 3.6-8 8v56c0 4.4 3.6 8 8 8zM120 654h496c4.4 0 8-3.6 8-8v-56c0-4.4-3.6-8-8-8H120c-4.4 0-8 3.6-8 8v56c0 4.4 3.6 8 8 8zM904 794H120c-4.4 0-8 3.6-8 8v56c0 4.4 3.6 8 8 8h784c4.4 0 8-3.6 8-8v-56c0-4.4-3.6-8-8-8zM904 370H120c-4.4 0-8 3.6-8 8v56c0 4.4 3.6 8 8 8h784c4.4 0 8-3.6 8-8v-56c0-4.4-3.6-8-8-8z" /></svg>