<?xml version="1.0" standalone="no"?><!DOCTYPE svg PUBLIC "-//W3C//DTD SVG 1.1//EN" "http://www.w3.org/Graphics/SVG/1.1/DTD/svg11.dtd"><svg class="icon" width="64px" height="64.00px" viewBox="0 0 1024 1024" version="1.1" xmlns="http://www.w3.org/2000/svg"><path fill="#333333" d="M868.2 377.4c-18.9-45.1-46.3-85.6-81.2-120.6-34.7-34.8-75.4-62.1-120.5-81.2-46.7-19.8-96.3-29.8-147.5-29.8-41.9 0-82.9 6.7-121.9 20C306 123.3 200.8 120 170.6 120c-2.2 0-7.4 0-9.4 0.2-11.9 0.4-22.8 6.5-29.2 16.4-6.5 9.9-7.7 22.4-3.4 33.5l64.3 161.6c-34.6 58.3-52.8 125.1-52.8 193.2 0 51.4 10 101 29.8 147.6 18.9 45 46.2 85.6 81.2 120.5 34.7 34.8 75.4 62.1 120.5 81.2C418.3 894 467.9 904 519 904c51.3 0 100.9-10.1 147.7-29.8 44.9-18.9 85.5-46.3 120.4-81.2 34.7-34.8 62.1-75.4 81.2-120.6 19.8-46.7 29.8-96.5 29.8-147.6-0.2-51.2-10.1-100.8-29.9-147.4z m-66.4 266.5c-15.5 36.8-37.7 69.7-65.9 98-28.4 28.5-61.3 50.7-97.7 65.9h-0.1c-38 16-78.3 24.2-119.9 24.2-41.6 0-81.8-8.2-119.7-24.2-36.7-15.5-69.6-37.8-97.8-66-28.4-28.5-50.6-61.4-65.8-97.8v-0.1c-16-37.8-24.1-78.2-24.1-119.9 0-55.4 14.8-109.7 42.8-157l13.2-22.1-9.5-23.9L206 192c14.9 0.6 35.9 2.1 59.7 5.6 43.8 6.5 82.5 17.5 114.9 32.6l19 8.9 19.9-6.8c31.5-10.8 64.8-16.2 98.9-16.2 41.6 0 81.9 8.2 119.7 24.2 36.7 15.5 69.6 37.8 97.8 66 28.4 28.5 50.6 61.4 65.8 97.8l0.1 0.1 0.1 0.1c16 37.6 24.1 78 24.2 119.8-0.1 41.7-8.3 82-24.3 119.8zM681.1 364.2c-20.4 0-37.1 16.7-37.1 37.1v55.1c0 20.4 16.6 37.1 37.1 37.1s37.1-16.7 37.1-37.1v-55.1c0-20.5-16.7-37.1-37.1-37.1zM505.9 364.2c-20.5 0-37.1 16.7-37.1 37.1v55.1c0 20.4 16.7 37.1 37.1 37.1 20.5 0 37.1-16.7 37.1-37.1v-55.1c0-20.5-16.7-37.1-37.1-37.1z" /></svg>