<?xml version="1.0" standalone="no"?><!DOCTYPE svg PUBLIC "-//W3C//DTD SVG 1.1//EN" "http://www.w3.org/Graphics/SVG/1.1/DTD/svg11.dtd"><svg class="icon" width="64px" height="64.00px" viewBox="0 0 1024 1024" version="1.1" xmlns="http://www.w3.org/2000/svg"><path fill="#333333" d="M908 640H804V488c0-4.4-3.6-8-8-8H548v-96h108c8.8 0 16-7.2 16-16V80c0-8.8-7.2-16-16-16H368c-8.8 0-16 7.2-16 16v288c0 8.8 7.2 16 16 16h108v96H228c-4.4 0-8 3.6-8 8v152H116c-8.8 0-16 7.2-16 16v288c0 8.8 7.2 16 16 16h288c8.8 0 16-7.2 16-16V656c0-8.8-7.2-16-16-16H292v-88h440v88H620c-8.8 0-16 7.2-16 16v288c0 8.8 7.2 16 16 16h288c8.8 0 16-7.2 16-16V656c0-8.8-7.2-16-16-16z m-564 76v168H176V716h168z m84-408V140h168v168H428z m420 576H680V716h168v168z" /></svg>