<?xml version="1.0" standalone="no"?><!DOCTYPE svg PUBLIC "-//W3C//DTD SVG 1.1//EN" "http://www.w3.org/Graphics/SVG/1.1/DTD/svg11.dtd"><svg class="icon" width="64px" height="64.00px" viewBox="0 0 1024 1024" version="1.1" xmlns="http://www.w3.org/2000/svg"><path fill="#333333" d="M888 792H200V168c0-4.4-3.6-8-8-8h-56c-4.4 0-8 3.6-8 8v688c0 4.4 3.6 8 8 8h752c4.4 0 8-3.6 8-8v-56c0-4.4-3.6-8-8-8zM288 712h56c4.4 0 8-3.6 8-8V560c0-4.4-3.6-8-8-8h-56c-4.4 0-8 3.6-8 8v144c0 4.4 3.6 8 8 8zM440 712h56c4.4 0 8-3.6 8-8V384c0-4.4-3.6-8-8-8h-56c-4.4 0-8 3.6-8 8v320c0 4.4 3.6 8 8 8zM592 712h56c4.4 0 8-3.6 8-8V462c0-4.4-3.6-8-8-8h-56c-4.4 0-8 3.6-8 8v242c0 4.4 3.6 8 8 8zM744 712h56c4.4 0 8-3.6 8-8V304c0-4.4-3.6-8-8-8h-56c-4.4 0-8 3.6-8 8v400c0 4.4 3.6 8 8 8z" /></svg>