<?xml version="1.0" standalone="no"?><!DOCTYPE svg PUBLIC "-//W3C//DTD SVG 1.1//EN" "http://www.w3.org/Graphics/SVG/1.1/DTD/svg11.dtd"><svg class="icon" width="64px" height="64.00px" viewBox="0 0 1024 1024" version="1.1" xmlns="http://www.w3.org/2000/svg"><path fill="#333333" d="M856 376H648V168c0-8.8-7.2-16-16-16H168c-8.8 0-16 7.2-16 16v464c0 8.8 7.2 16 16 16h208v208c0 8.8 7.2 16 16 16h464c8.8 0 16-7.2 16-16V392c0-8.8-7.2-16-16-16z m-480 16v188H220V220h360v156H392c-8.8 0-16 7.2-16 16z m204 52v136H444V444h136z m224 360H444V648h188c8.8 0 16-7.2 16-16V444h156v360z" /></svg>