<?xml version="1.0" standalone="no"?><!DOCTYPE svg PUBLIC "-//W3C//DTD SVG 1.1//EN" "http://www.w3.org/Graphics/SVG/1.1/DTD/svg11.dtd"><svg class="icon" width="64px" height="64.00px" viewBox="0 0 1024 1024" version="1.1" xmlns="http://www.w3.org/2000/svg"><path fill="#333333" d="M380 704h264c4.4 0 8-3.6 8-8v-84c0-4.4-3.6-8-8-8h-40c-4.4 0-8 3.6-8 8v36H428v-36c0-4.4-3.6-8-8-8h-40c-4.4 0-8 3.6-8 8v84c0 4.4 3.6 8 8 8zM760 581m-40 0a40 40 0 1 0 80 0 40 40 0 1 0-80 0ZM959 413.4L935.3 372c-2.2-3.8-7.1-5.1-10.9-2.9l-50.7 29.6-78.3-216.2c-8.5-26.5-33.1-44.4-60.9-44.4H301.2c-34.7 0-65.5 22.4-76.2 55.5l-74.6 205.2-50.8-29.6c-3.8-2.2-8.7-0.9-10.9 2.9L65 413.4c-2.2 3.8-0.9 8.6 2.9 10.8l60.4 35.2-14.5 40c-1.2 3.2-1.8 6.6-1.8 10V857.6c0 15.7 11.8 28.4 26.3 28.4h67.6c12.3 0 23-9.3 25.6-22.3l7.7-37.7h545.6l7.7 37.7c2.7 13 13.3 22.3 25.6 22.3h67.6c14.5 0 26.3-12.7 26.3-28.4V509.4c0-3.4-0.6-6.8-1.8-10l-14.5-40 60.3-35.2c3.8-2.2 5.1-7 3-10.8zM840 517v237H184V517l15.6-43h624.8l15.6 43zM292.7 218.1l0.5-1.3 0.4-1.3c1.1-3.3 4.1-5.5 7.6-5.5h427.6l75.4 208H220l72.7-199.9zM264 581m-40 0a40 40 0 1 0 80 0 40 40 0 1 0-80 0Z" /></svg>