<?xml version="1.0" standalone="no"?><!DOCTYPE svg PUBLIC "-//W3C//DTD SVG 1.1//EN" "http://www.w3.org/Graphics/SVG/1.1/DTD/svg11.dtd"><svg class="icon" width="64px" height="64.00px" viewBox="0 0 1024 1024" version="1.1" xmlns="http://www.w3.org/2000/svg"><path fill="#333333" d="M709.6 210l0.4-0.2h0.2L512 96 313.9 209.8h-0.2l0.7 0.3L151.5 304v416L512 928l360.5-208V304l-162.9-94zM482.7 843.6L339.6 761V621.4L210 547.8V372.9l272.7 157.3v313.4zM238.2 321.5l134.7-77.8 138.9 79.7 139.1-79.9 135.2 78-273.9 158-274-158zM814 548.3l-128.8 73.1v139.1l-143.9 83V530.4L814 373.1v175.2z" /></svg>