<?xml version="1.0" standalone="no"?><!DOCTYPE svg PUBLIC "-//W3C//DTD SVG 1.1//EN" "http://www.w3.org/Graphics/SVG/1.1/DTD/svg11.dtd"><svg class="icon" width="64px" height="64.00px" viewBox="0 0 1024 1024" version="1.1" xmlns="http://www.w3.org/2000/svg"><path fill="#333333" d="M272.9 512l265.4-339.1c4.1-5.2 0.4-12.9-6.3-12.9h-77.3c-4.9 0-9.6 2.3-12.6 6.1L186.8 492.3c-9.1 11.6-9.1 27.9 0 39.5l255.3 326.1c3 3.9 7.7 6.1 12.6 6.1H532c6.7 0 10.4-7.7 6.3-12.9L272.9 512zM576.9 512l265.4-339.1c4.1-5.2 0.4-12.9-6.3-12.9h-77.3c-4.9 0-9.6 2.3-12.6 6.1L490.8 492.3c-9.1 11.6-9.1 27.9 0 39.5l255.3 326.1c3 3.9 7.7 6.1 12.6 6.1H836c6.7 0 10.4-7.7 6.3-12.9L576.9 512z" /></svg>