<?xml version="1.0" standalone="no"?><!DOCTYPE svg PUBLIC "-//W3C//DTD SVG 1.1//EN" "http://www.w3.org/Graphics/SVG/1.1/DTD/svg11.dtd"><svg class="icon" width="64px" height="64.00px" viewBox="0 0 1024 1024" version="1.1" xmlns="http://www.w3.org/2000/svg"><path fill="#333333" d="M904 816H120c-4.4 0-8 3.6-8 8v80c0 4.4 3.6 8 8 8h784c4.4 0 8-3.6 8-8v-80c0-4.4-3.6-8-8-8zM253.7 736h85c4.2 0 8-2.7 9.3-6.8l53.7-166h219.2l53.2 166c1.3 4 5 6.8 9.3 6.8h89.1c1.1 0 2.2-0.2 3.2-0.5 5.1-1.8 7.8-7.3 6-12.4L573.6 118.6c-1.4-3.9-5.1-6.6-9.2-6.6H462.1c-4.2 0-7.9 2.6-9.2 6.6L244.5 723.1c-0.4 1-0.5 2.1-0.5 3.2-0.1 5.3 4.3 9.7 9.7 9.7z m255.9-516.1h4.1l83.8 263.8H424.9l84.7-263.8z" /></svg>