<?xml version="1.0" standalone="no"?><!DOCTYPE svg PUBLIC "-//W3C//DTD SVG 1.1//EN" "http://www.w3.org/Graphics/SVG/1.1/DTD/svg11.dtd"><svg class="icon" width="64px" height="64.00px" viewBox="0 0 1024 1024" version="1.1" xmlns="http://www.w3.org/2000/svg"><path fill="#333333" d="M752 100c-61.8 0-112 50.2-112 112 0 47.7 29.9 88.5 72 104.6v27.6L512 601.4 312 344.2v-27.6c42.1-16.1 72-56.9 72-104.6 0-61.8-50.2-112-112-112s-112 50.2-112 112c0 50.6 33.8 93.5 80 107.3v34.4c0 9.7 3.3 19.3 9.3 27L476 672.3v33.6c-44.2 15-76 56.9-76 106.1 0 61.8 50.2 112 112 112s112-50.2 112-112c0-49.2-31.8-91-76-106.1v-33.6l226.7-291.6c6-7.7 9.3-17.3 9.3-27v-34.4c46.2-13.8 80-56.7 80-107.3 0-61.8-50.2-112-112-112zM224 212c0-26.5 21.5-48 48-48s48 21.5 48 48-21.5 48-48 48-48-21.5-48-48z m336 600c0 26.5-21.5 48-48 48s-48-21.5-48-48 21.5-48 48-48 48 21.5 48 48z m192-552c-26.5 0-48-21.5-48-48s21.5-48 48-48 48 21.5 48 48-21.5 48-48 48z" /></svg>