<?xml version="1.0" standalone="no"?><!DOCTYPE svg PUBLIC "-//W3C//DTD SVG 1.1//EN" "http://www.w3.org/Graphics/SVG/1.1/DTD/svg11.dtd"><svg class="icon" width="64px" height="64.00px" viewBox="0 0 1024 1024" version="1.1" xmlns="http://www.w3.org/2000/svg"><path fill="#333333" d="M926 164H94c-17.7 0-32 14.3-32 32v640c0 17.7 14.3 32 32 32h832c17.7 0 32-14.3 32-32V196c0-17.7-14.3-32-32-32z m-40 632H134V236h752v560zM227.1 713.7c3.1 3.1 8.2 3.1 11.3 0l172.5-172.5 114.4 114.5c3.1 3.1 8.2 3.1 11.3 0l297-297.2c3.1-3.1 3.1-8.2 0-11.3l-36.8-36.8c-3.1-3.1-8.2-3.1-11.3 0L531 565 416.6 450.5c-3.1-3.1-8.2-3.1-11.3 0l-214.9 215c-3.1 3.1-3.1 8.2 0 11.3l36.7 36.9z" /></svg>