<?xml version="1.0" standalone="no"?><!DOCTYPE svg PUBLIC "-//W3C//DTD SVG 1.1//EN" "http://www.w3.org/Graphics/SVG/1.1/DTD/svg11.dtd"><svg class="icon" width="64px" height="64.00px" viewBox="0 0 1024 1024" version="1.1" xmlns="http://www.w3.org/2000/svg"><path fill="#333333" d="M928 160H96c-17.7 0-32 14.3-32 32v640c0 17.7 14.3 32 32 32h832c17.7 0 32-14.3 32-32V192c0-17.7-14.3-32-32-32z m-40 632H136v-39.9l138.5-164.3 150.1 178L658.1 489 888 761.6V792z m0-129.8L664.2 396.8c-3.2-3.8-9-3.8-12.2 0L424.6 666.4l-144-170.7c-3.2-3.8-9-3.8-12.2 0L136 652.7V232h752v430.2zM304 456c48.6 0 88-39.4 88-88s-39.4-88-88-88-88 39.4-88 88 39.4 88 88 88z m0-116c15.5 0 28 12.5 28 28s-12.5 28-28 28-28-12.5-28-28 12.5-28 28-28z" /></svg>