<?xml version="1.0" standalone="no"?><!DOCTYPE svg PUBLIC "-//W3C//DTD SVG 1.1//EN" "http://www.w3.org/Graphics/SVG/1.1/DTD/svg11.dtd"><svg class="icon" width="64px" height="64.00px" viewBox="0 0 1024 1024" version="1.1" xmlns="http://www.w3.org/2000/svg"><path fill="#333333" d="M885.9 533.7c16.8-22.2 26.1-49.4 26.1-77.7 0-44.9-25.1-87.4-65.5-111.1a67.67 67.67 0 0 0-34.3-9.3H572.4l6-122.9c1.4-29.7-9.1-57.9-29.5-79.4-20.5-21.5-48.1-33.4-77.9-33.4-52 0-98 35-111.8 85.1l-85.9 311H144c-17.7 0-32 14.3-32 32v364c0 17.7 14.3 32 32 32h601.3c9.2 0 18.2-1.8 26.5-5.4 47.6-20.3 78.3-66.8 78.3-118.4 0-12.6-1.8-25-5.4-37 16.8-22.2 26.1-49.4 26.1-77.7 0-12.6-1.8-25-5.4-37 16.8-22.2 26.1-49.4 26.1-77.7-0.2-12.6-2-25.1-5.6-37.1zM184 852V568h81v284h-81z m636.4-353l-21.9 19 13.9 25.4c4.6 8.4 6.9 17.6 6.9 27.3 0 16.5-7.2 32.2-19.6 43l-21.9 19 13.9 25.4c4.6 8.4 6.9 17.6 6.9 27.3 0 16.5-7.2 32.2-19.6 43l-21.9 19 13.9 25.4c4.6 8.4 6.9 17.6 6.9 27.3 0 22.4-13.2 42.6-33.6 51.8H329V564.8l99.5-360.5c5.2-18.9 22.5-32.2 42.2-32.3 7.6 0 15.1 2.2 21.1 6.7 9.9 7.4 15.2 18.6 14.6 30.5l-9.6 198.4h314.4C829 418.5 840 436.9 840 456c0 16.5-7.2 32.1-19.6 43z" /></svg>