<?xml version="1.0" standalone="no"?><!DOCTYPE svg PUBLIC "-//W3C//DTD SVG 1.1//EN" "http://www.w3.org/Graphics/SVG/1.1/DTD/svg11.dtd"><svg class="icon" width="64px" height="64.00px" viewBox="0 0 1024 1024" version="1.1" xmlns="http://www.w3.org/2000/svg"><path fill="#333333" d="M788 705.9V192c0-8.8-7.2-16-16-16H602v-68.8c0-6-7-9.4-11.7-5.7L462.7 202.3c-3.7 2.9-3.7 8.5 0 11.3l127.5 100.8c4.7 3.7 11.7 0.4 11.7-5.7V240h114v465.9c-44.2 15-76 56.9-76 106.1 0 61.8 50.2 112 112 112s112-50.2 112-112c0.1-49.2-31.7-91-75.9-106.1zM752 860c-26.5 0-48-21.5-48-48s21.5-48 48-48 48 21.5 48 48-21.5 48-48 48zM384 212c0-61.8-50.2-112-112-112s-112 50.2-112 112c0 49.2 31.8 91 76 106.1V706c-44.2 15-76 56.9-76 106.1 0 61.8 50.2 112 112 112s112-50.2 112-112c0-49.2-31.8-91-76-106.1V318.1c44.2-15.1 76-56.9 76-106.1z m-160 0c0-26.5 21.5-48 48-48s48 21.5 48 48-21.5 48-48 48-48-21.5-48-48z m96 600c0 26.5-21.5 48-48 48s-48-21.5-48-48 21.5-48 48-48 48 21.5 48 48z" /></svg>