<?xml version="1.0" standalone="no"?><!DOCTYPE svg PUBLIC "-//W3C//DTD SVG 1.1//EN" "http://www.w3.org/Graphics/SVG/1.1/DTD/svg11.dtd"><svg class="icon" width="64px" height="64.00px" viewBox="0 0 1024 1024" version="1.1" xmlns="http://www.w3.org/2000/svg"><path fill="#333333" d="M920 760H336c-4.4 0-8 3.6-8 8v56c0 4.4 3.6 8 8 8h584c4.4 0 8-3.6 8-8v-56c0-4.4-3.6-8-8-8zM920 192H336c-4.4 0-8 3.6-8 8v56c0 4.4 3.6 8 8 8h584c4.4 0 8-3.6 8-8v-56c0-4.4-3.6-8-8-8zM920 476H336c-4.4 0-8 3.6-8 8v56c0 4.4 3.6 8 8 8h584c4.4 0 8-3.6 8-8v-56c0-4.4-3.6-8-8-8zM216 712H100c-2.2 0-4 1.8-4 4v34c0 2.2 1.8 4 4 4h72.4v20.5h-35.7c-2.2 0-4 1.8-4 4v34c0 2.2 1.8 4 4 4h35.7V838H100c-2.2 0-4 1.8-4 4v34c0 2.2 1.8 4 4 4h116c2.2 0 4-1.8 4-4V716c0-2.2-1.8-4-4-4zM100 188h38v120c0 2.2 1.8 4 4 4h40c2.2 0 4-1.8 4-4V152c0-4.4-3.6-8-8-8h-78c-2.2 0-4 1.8-4 4v36c0 2.2 1.8 4 4 4zM216 428H100c-2.2 0-4 1.8-4 4v36c0 2.2 1.8 4 4 4h68.4l-70.3 77.7c-1.3 1.5-2.1 3.4-2.1 5.4V592c0 2.2 1.8 4 4 4h116c2.2 0 4-1.8 4-4v-36c0-2.2-1.8-4-4-4h-68.4l70.3-77.7c1.3-1.5 2.1-3.4 2.1-5.4V432c0-2.2-1.8-4-4-4z" /></svg>