<?xml version="1.0" standalone="no"?><!DOCTYPE svg PUBLIC "-//W3C//DTD SVG 1.1//EN" "http://www.w3.org/Graphics/SVG/1.1/DTD/svg11.dtd"><svg class="icon" width="64px" height="64.00px" viewBox="0 0 1024 1024" version="1.1" xmlns="http://www.w3.org/2000/svg"><path fill="#333333" d="M855.7 210.8l-42.4-42.4c-3.1-3.1-8.2-3.1-11.3 0L168.3 801.9c-3.1 3.1-3.1 8.2 0 11.3l42.4 42.4c3.1 3.1 8.2 3.1 11.3 0L855.6 222c3.2-3 3.2-8.1 0.1-11.2zM304 448c79.4 0 144-64.6 144-144s-64.6-144-144-144-144 64.6-144 144 64.6 144 144 144z m0-216c39.7 0 72 32.3 72 72s-32.3 72-72 72-72-32.3-72-72 32.3-72 72-72zM720 576c-79.4 0-144 64.6-144 144s64.6 144 144 144 144-64.6 144-144-64.6-144-144-144z m0 216c-39.7 0-72-32.3-72-72s32.3-72 72-72 72 32.3 72 72-32.3 72-72 72z" /></svg>