<?xml version="1.0" standalone="no"?><!DOCTYPE svg PUBLIC "-//W3C//DTD SVG 1.1//EN" "http://www.w3.org/Graphics/SVG/1.1/DTD/svg11.dtd"><svg class="icon" width="64px" height="64.00px" viewBox="0 0 1024 1024" version="1.1" xmlns="http://www.w3.org/2000/svg"><path fill="#333333" d="M877.1 238.7L770.6 132.3c-13-13-30.4-20.3-48.8-20.3s-35.8 7.2-48.8 20.3L558.3 246.8c-13 13-20.3 30.5-20.3 48.9 0 18.5 7.2 35.8 20.3 48.9l89.6 89.7c-20.6 47.8-49.6 90.6-86.4 127.3-36.7 36.9-79.6 66-127.2 86.6l-89.6-89.7c-13-13-30.4-20.3-48.8-20.3-18.5 0-35.8 7.2-48.8 20.3L132.3 673c-13 13-20.3 30.5-20.3 48.9 0 18.5 7.2 35.8 20.3 48.9l106.4 106.4c22.2 22.2 52.8 34.9 84.2 34.9 6.5 0 12.8-0.5 19.2-1.6 132.4-21.8 263.8-92.3 369.9-198.3C818 606 888.4 474.6 910.4 342.1c6.3-37.6-6.3-76.3-33.3-103.4z m-37.6 91.5c-19.5 117.9-82.9 235.5-178.4 331s-213 158.9-330.9 178.4c-14.8 2.5-30-2.5-40.8-13.2L184.9 721.9 295.7 611l119.8 120 0.9 0.9 21.6-8C570.7 675 674.9 570.8 723.7 438.1l8-21.6-120.8-120.7 110.8-110.9 104.5 104.5c10.8 10.8 15.8 26 13.3 40.8z" /></svg>