<?xml version="1.0" standalone="no"?><!DOCTYPE svg PUBLIC "-//W3C//DTD SVG 1.1//EN" "http://www.w3.org/Graphics/SVG/1.1/DTD/svg11.dtd"><svg class="icon" width="64px" height="64.00px" viewBox="0 0 1024 1024" version="1.1" xmlns="http://www.w3.org/2000/svg"><path fill="#333333" d="M952 792H72c-4.4 0-8 3.6-8 8v56c0 4.4 3.6 8 8 8h880c4.4 0 8-3.6 8-8v-56c0-4.4-3.6-8-8-8zM952 160H72c-4.4 0-8 3.6-8 8v56c0 4.4 3.6 8 8 8h880c4.4 0 8-3.6 8-8v-56c0-4.4-3.6-8-8-8zM928 660c8.8 0 16-7.2 16-16V380c0-8.8-7.2-16-16-16H416c-8.8 0-16 7.2-16 16v264c0 8.8 7.2 16 16 16h512zM472 436h400v152H472V436zM80 646c0 4.4 3.6 8 8 8h224c4.4 0 8-3.6 8-8v-56c0-4.4-3.6-8-8-8H88c-4.4 0-8 3.6-8 8v56zM88 442h224c4.4 0 8-3.6 8-8v-56c0-4.4-3.6-8-8-8H88c-4.4 0-8 3.6-8 8v56c0 4.4 3.6 8 8 8z" /></svg>