<?xml version="1.0" standalone="no"?><!DOCTYPE svg PUBLIC "-//W3C//DTD SVG 1.1//EN" "http://www.w3.org/Graphics/SVG/1.1/DTD/svg11.dtd"><svg class="icon" width="64px" height="64.00px" viewBox="0 0 1024 1024" version="1.1" xmlns="http://www.w3.org/2000/svg"><path fill="#333333" d="M512 64C264.6 64 64 264.6 64 512s200.6 448 448 448 448-200.6 448-448S759.4 64 512 64z m0 820c-205.4 0-372-166.6-372-372s166.6-372 372-372 372 166.6 372 372-166.6 372-372 372z"  /><path fill="#333333" d="M719.4 499.1l-296.1-215c-10.6-7.7-25.3-0.2-25.3 12.9v430c0 13.1 14.8 20.5 25.3 12.9l296.1-215c8.8-6.4 8.8-19.4 0-25.8z m-257.6 134V390.9L628.5 512 461.8 633.1z"  /></svg>