<?xml version="1.0" standalone="no"?><!DOCTYPE svg PUBLIC "-//W3C//DTD SVG 1.1//EN" "http://www.w3.org/Graphics/SVG/1.1/DTD/svg11.dtd"><svg class="icon" width="64px" height="64.00px" viewBox="0 0 1024 1024" version="1.1" xmlns="http://www.w3.org/2000/svg"><path fill="#333333" d="M396 140h-56c-4.4 0-8 3.6-8 8v56c0 4.4 3.6 8 8 8h56c4.4 0 8-3.6 8-8v-56c0-4.4-3.6-8-8-8zM352 824h-56c-4.4 0-8 3.6-8 8v56c0 4.4 3.6 8 8 8h56c4.4 0 8-3.6 8-8v-56c0-4.4-3.6-8-8-8zM876 620h-56c-4.4 0-8 3.6-8 8v56c0 4.4 3.6 8 8 8h56c4.4 0 8-3.6 8-8v-56c0-4.4-3.6-8-8-8zM192 344h-56c-4.4 0-8 3.6-8 8v56c0 4.4 3.6 8 8 8h56c4.4 0 8-3.6 8-8v-56c0-4.4-3.6-8-8-8zM192 504h-56c-4.4 0-8 3.6-8 8v56c0 4.4 3.6 8 8 8h56c4.4 0 8-3.6 8-8v-56c0-4.4-3.6-8-8-8zM192 664h-56c-4.4 0-8 3.6-8 8v56c0 4.4 3.6 8 8 8h56c4.4 0 8-3.6 8-8v-56c0-4.4-3.6-8-8-8zM192 824h-56c-4.4 0-8 3.6-8 8v56c0 4.4 3.6 8 8 8h56c4.4 0 8-3.6 8-8v-56c0-4.4-3.6-8-8-8zM512 824h-56c-4.4 0-8 3.6-8 8v56c0 4.4 3.6 8 8 8h56c4.4 0 8-3.6 8-8v-56c0-4.4-3.6-8-8-8zM672 824h-56c-4.4 0-8 3.6-8 8v56c0 4.4 3.6 8 8 8h56c4.4 0 8-3.6 8-8v-56c0-4.4-3.6-8-8-8zM812 540c0 4.4 3.6 8 8 8h56c4.4 0 8-3.6 8-8V370c0-127-103-230-230-230H484c-4.4 0-8 3.6-8 8v56c0 4.4 3.6 8 8 8h170c87.3 0 158 70.7 158 158v170zM236 96H92c-4.4 0-8 3.6-8 8v144c0 4.4 3.6 8 8 8h144c4.4 0 8-3.6 8-8V104c0-4.4-3.6-8-8-8z m-48 101.6c0 1.3-1.1 2.4-2.4 2.4h-43.2c-1.3 0-2.4-1.1-2.4-2.4v-43.2c0-1.3 1.1-2.4 2.4-2.4h43.2c1.3 0 2.4 1.1 2.4 2.4v43.2zM920 780H776c-4.4 0-8 3.6-8 8v144c0 4.4 3.6 8 8 8h144c4.4 0 8-3.6 8-8V788c0-4.4-3.6-8-8-8z m-48 101.6c0 1.3-1.1 2.4-2.4 2.4h-43.2c-1.3 0-2.4-1.1-2.4-2.4v-43.2c0-1.3 1.1-2.4 2.4-2.4h43.2c1.3 0 2.4 1.1 2.4 2.4v43.2z" /></svg>