<?xml version="1.0" encoding="utf-8"?>
<svg id="retweet" viewBox="0 0 1024 1024" version="1.1" xmlns="http://www.w3.org/2000/svg" xmlns:xlink="http://www.w3.org/1999/xlink">
  <path d="M136 552h63.6c4.4 0 8-3.6 8-8V288.7h528.6v72.6c0 1.9 0.6 3.7 1.8 5.2 2.9 3.6 8.1 4.3 11.7 1.4L893 255.4c4.3-5 3.6-10.3 0-13.2L749.7 129.8c-1.5-1.2-3.3-1.8-5.2-1.8-4.6 0-8.4 3.8-8.4 8.4V209H199.7c-39.5 0-71.7 32.2-71.7 71.8V544c0 4.4 3.6 8 8 8zM888 472h-63.6c-4.4 0-8 3.6-8 8v255.3H287.8v-72.6c0-1.9-0.6-3.7-1.8-5.2-2.9-3.6-8.1-4.3-11.7-1.4L131 768.6c-4.3 5-3.6 10.3 0 13.2l143.3 112.4c1.5 1.2 3.3 1.8 5.2 1.8 4.6 0 8.4-3.8 8.4-8.4V815h536.6c39.5 0 71.7-32.2 71.7-71.8V480c-0.2-4.4-3.8-8-8.2-8z" />
</svg>
