<?xml version="1.0" standalone="no"?><!DOCTYPE svg PUBLIC "-//W3C//DTD SVG 1.1//EN" "http://www.w3.org/Graphics/SVG/1.1/DTD/svg11.dtd"><svg class="icon" width="64px" height="64.00px" viewBox="0 0 1024 1024" version="1.1" xmlns="http://www.w3.org/2000/svg"><path fill="#333333" d="M360 328m-60 0a60 60 0 1 0 120 0 60 60 0 1 0-120 0ZM852 64H172c-17.7 0-32 14.3-32 32v660c0 17.7 14.3 32 32 32h680c17.7 0 32-14.3 32-32V96c0-17.7-14.3-32-32-32z m-32 660H204V128h616v596zM664 328m-60 0a60 60 0 1 0 120 0 60 60 0 1 0-120 0ZM854.2 884H169.8c-16.5 0-29.8 14.3-29.8 32v36c0 4.4 3.3 8 7.4 8h729.1c4.1 0 7.4-3.6 7.4-8v-36c0.1-17.7-13.2-32-29.7-32zM664 508H360c-4.4 0-8 3.6-8 8v60c0 4.4 3.6 8 8 8h304c4.4 0 8-3.6 8-8v-60c0-4.4-3.6-8-8-8z" /></svg>