<?xml version="1.0" standalone="no"?><!DOCTYPE svg PUBLIC "-//W3C//DTD SVG 1.1//EN" "http://www.w3.org/Graphics/SVG/1.1/DTD/svg11.dtd"><svg class="icon" width="64px" height="64.00px" viewBox="0 0 1024 1024" version="1.1" xmlns="http://www.w3.org/2000/svg"><path fill="#333333" d="M567.1 512l318.5-319.3c5-5 1.5-13.7-5.6-13.7h-90.5c-2.1 0-4.2 0.8-5.6 2.3l-273.3 274-90.2-90.5c12.5-22.1 19.7-47.6 19.7-74.8 0-83.9-68.1-152-152-152s-152 68.1-152 152 68.1 152 152 152c27.7 0 53.6-7.4 75.9-20.3l90 90.3-90.1 90.3C341.6 589.4 315.7 582 288 582c-83.9 0-152 68.1-152 152s68.1 152 152 152 152-68.1 152-152c0-27.2-7.2-52.7-19.7-74.8l90.2-90.5 273.3 274c1.5 1.5 3.5 2.3 5.6 2.3H880c7.1 0 10.7-8.6 5.6-13.7L567.1 512zM288 370c-44.1 0-80-35.9-80-80s35.9-80 80-80 80 35.9 80 80-35.9 80-80 80z m0 444c-44.1 0-80-35.9-80-80s35.9-80 80-80 80 35.9 80 80-35.9 80-80 80z" /></svg>