<?xml version="1.0" standalone="no"?><!DOCTYPE svg PUBLIC "-//W3C//DTD SVG 1.1//EN" "http://www.w3.org/Graphics/SVG/1.1/DTD/svg11.dtd"><svg class="icon" width="64px" height="64.00px" viewBox="0 0 1024 1024" version="1.1" xmlns="http://www.w3.org/2000/svg"><path fill="#333333" d="M839.6 433.8L749 150.5c-1.2-3.9-4.8-6.5-8.9-6.5h-77.4c-4.1 0-7.6 2.6-8.9 6.5l-91.3 283.3c-0.3 0.9-0.5 1.9-0.5 2.9 0 5.1 4.2 9.3 9.3 9.3h56.4c4.2 0 7.8-2.8 9-6.8l17.5-61.6h89l17.3 61.5c1.1 4 4.8 6.8 9 6.8h61.2c1 0 1.9-0.1 2.8-0.4 2.4-0.8 4.3-2.4 5.5-4.6 1.1-2.2 1.3-4.7 0.6-7.1zM663.3 325.5l32.8-116.9h6.3l32.1 116.9h-71.2zM806.8 818.4H677.2v-0.4l132.6-188.9c1.1-1.6 1.7-3.4 1.7-5.4v-36.4c0-5.1-4.2-9.3-9.3-9.3h-204c-5.1 0-9.3 4.2-9.3 9.3v43c0 5.1 4.2 9.3 9.3 9.3h122.6v0.4L587.7 828.9c-1.1 1.6-1.7 3.4-1.7 5.4v36.4c0 5.1 4.2 9.3 9.3 9.3h211.4c5.1 0 9.3-4.2 9.3-9.3v-43c0.1-5.1-4.1-9.3-9.2-9.3zM310.3 167.1c-3.2-4.1-9.4-4.1-12.6 0L185.7 309c-4.2 5.3-0.4 13 6.3 13h76v530c0 4.4 3.6 8 8 8h56c4.4 0 8-3.6 8-8V322h76c6.7 0 10.5-7.8 6.3-13l-112-141.9z" /></svg>