<?xml version="1.0" standalone="no"?><!DOCTYPE svg PUBLIC "-//W3C//DTD SVG 1.1//EN" "http://www.w3.org/Graphics/SVG/1.1/DTD/svg11.dtd"><svg class="icon" width="64px" height="64.00px" viewBox="0 0 1024 1024" version="1.1" xmlns="http://www.w3.org/2000/svg"><path fill="#333333" d="M668.6 320c0-4.4-3.6-8-8-8h-54.5c-3 0-5.8 1.7-7.1 4.4l-84.7 168.8H511l-84.7-168.8c-1.4-2.7-4.1-4.4-7.1-4.4h-55.7c-1.3 0-2.6 0.3-3.8 1-3.9 2.1-5.3 7-3.2 10.8l103.9 191.6h-57c-4.4 0-8 3.6-8 8v27.1c0 4.4 3.6 8 8 8h76v39h-76c-4.4 0-8 3.6-8 8v27.1c0 4.4 3.6 8 8 8h76V704c0 4.4 3.6 8 8 8h49.9c4.4 0 8-3.6 8-8v-63.5h76.3c4.4 0 8-3.6 8-8v-27.1c0-4.4-3.6-8-8-8h-76.3v-39h76.3c4.4 0 8-3.6 8-8v-27.1c0-4.4-3.6-8-8-8H564l103.7-191.6c0.5-1.1 0.9-2.4 0.9-3.7zM157.9 504.2c1-45.1 10.3-88.7 27.7-129.9 17.8-42.1 43.3-80 75.8-112.5s70.3-58.1 112.4-75.9c43.6-18.4 89.9-27.8 137.6-27.8 47.8 0 94.1 9.3 137.6 27.8 42.1 17.8 79.9 43.4 112.4 75.9 10 10 19.3 20.5 27.9 31.4l-50 39.1c-5.3 4.1-3.5 12.5 3 14.1l156.8 38.3c5 1.2 9.9-2.6 9.9-7.7l0.8-161.5c0-6.7-7.7-10.5-12.9-6.3l-47.8 37.4C770.7 146.3 648.6 82 511.5 82 277 82 86.3 270.1 82 503.8c-0.1 4.5 3.5 8.2 8 8.2h60c4.3 0 7.8-3.5 7.9-7.8zM934 512h-60c-4.3 0-7.9 3.5-8 7.8-1 45.1-10.3 88.7-27.7 129.9-17.8 42.1-43.3 80-75.8 112.5s-70.3 58.1-112.4 75.9c-43.6 18.4-89.9 27.8-137.6 27.8s-94.1-9.3-137.6-27.8c-42.1-17.8-79.9-43.4-112.4-75.9-10-10-19.3-20.5-27.9-31.4l49.9-39.1c5.3-4.1 3.5-12.5-3-14.1l-156.8-38.3c-5-1.2-9.9 2.6-9.9 7.7l-0.8 161.7c0 6.7 7.7 10.5 12.9 6.3l47.8-37.4C253.3 877.7 375.4 942 512.5 942 747 942 937.7 753.9 942 520.2c0.1-4.5-3.5-8.2-8-8.2z" /></svg>