<?xml version="1.0" standalone="no"?><!DOCTYPE svg PUBLIC "-//W3C//DTD SVG 1.1//EN" "http://www.w3.org/Graphics/SVG/1.1/DTD/svg11.dtd"><svg class="icon" width="64px" height="64.00px" viewBox="0 0 1024 1024" version="1.1" xmlns="http://www.w3.org/2000/svg"><path fill="#333333" d="M678.3 655.4c24.2-13 51.9-20.4 81.4-20.4h0.1c3 0 4.4-3.6 2.2-5.6-30.8-27.6-65.6-49.7-103.7-65.8-0.4-0.2-0.8-0.3-1.2-0.5C719.2 518 759.6 444.7 759.6 362c0-137-110.8-248-247.5-248S264.7 225 264.7 362c0 82.7 40.4 156 102.6 201.1-0.4 0.2-0.8 0.3-1.2 0.5-44.7 18.9-84.8 46-119.3 80.6-34.5 34.5-61.5 74.7-80.4 119.5C147.9 807.5 138 854 137 901.8c-0.1 4.5 3.5 8.2 8 8.2h59.9c4.3 0 7.9-3.5 8-7.8 2-77.2 32.9-149.5 87.6-204.3C357 641.2 432.2 610 512.2 610c56.7 0 111.1 15.7 158 45.1 2.5 1.5 5.5 1.7 8.1 0.3zM512.2 534c-45.8 0-88.9-17.9-121.4-50.4-32.4-32.5-50.3-75.7-50.3-121.6 0-45.9 17.9-89.1 50.3-121.6S466.3 190 512.2 190s88.9 17.9 121.4 50.4c32.4 32.5 50.3 75.7 50.3 121.6 0 45.9-17.9 89.1-50.3 121.6C601.1 516.1 558 534 512.2 534zM880 772H640c-4.4 0-8 3.6-8 8v56c0 4.4 3.6 8 8 8h240c4.4 0 8-3.6 8-8v-56c0-4.4-3.6-8-8-8z" /></svg>