<?xml version="1.0" standalone="no"?><!DOCTYPE svg PUBLIC "-//W3C//DTD SVG 1.1//EN" "http://www.w3.org/Graphics/SVG/1.1/DTD/svg11.dtd"><svg class="icon" width="64px" height="64.00px" viewBox="0 0 1024 1024" version="1.1" xmlns="http://www.w3.org/2000/svg"><path fill="#333333" d="M859.9 168H164.1c-4.5 0-8.1 3.6-8.1 8v60c0 4.4 3.6 8 8.1 8h695.8c4.5 0 8.1-3.6 8.1-8v-60c0-4.4-3.6-8-8.1-8zM518.3 355c-3.2-4.1-9.4-4.1-12.6 0l-112 141.7c-4.1 5.2-0.4 12.9 6.3 12.9h73.9V848c0 4.4 3.6 8 8 8h60c4.4 0 8-3.6 8-8V509.7H624c6.7 0 10.4-7.7 6.3-12.9L518.3 355z" /></svg>