<?xml version="1.0" encoding="utf-8"?>
<svg version="1.1" id="图层_1" xmlns="http://www.w3.org/2000/svg" xmlns:xlink="http://www.w3.org/1999/xlink" x="0px" y="0px"
	 viewBox="0 0 1024 1024" style="enable-background:new 0 0 1024 1024;" xml:space="preserve">
<title>woman</title>
<desc>Created with Sketch.</desc>
<g>
	<path d="M712.8,548.8c53.6-53.6,83.2-125,83.2-200.8c0-75.9-29.5-147.2-83.2-200.8C659.2,93.6,587.8,64,512,64
		s-147.2,29.5-200.8,83.2C257.6,200.9,228,272.1,228,348c0,63.8,20.9,124.4,59.4,173.9c7.3,9.4,15.2,18.3,23.7,26.9
		c8.5,8.5,17.5,16.4,26.8,23.7c39.6,30.8,86.3,50.4,136.1,57V736H360c-4.4,0-8,3.6-8,8v60c0,4.4,3.6,8,8,8h114v140c0,4.4,3.6,8,8,8
		h60c4.4,0,8-3.6,8-8V812h114c4.4,0,8-3.6,8-8v-60c0-4.4-3.6-8-8-8H550V629.5C611.5,621.3,668.2,593.4,712.8,548.8z M512,556
		c-55.6,0-107.7-21.6-147.1-60.9C325.6,455.8,304,403.6,304,348s21.6-107.7,60.9-147.1C404.2,161.5,456.4,140,512,140
		s107.7,21.6,147.1,60.9C698.4,240.2,720,292.4,720,348s-21.6,107.7-60.9,147.1C619.7,534.4,567.6,556,512,556z"/>
</g>
</svg>
