<?xml version="1.0" standalone="no"?><!DOCTYPE svg PUBLIC "-//W3C//DTD SVG 1.1//EN" "http://www.w3.org/Graphics/SVG/1.1/DTD/svg11.dtd"><svg class="icon" width="64px" height="64.00px" viewBox="0 0 1024 1024" version="1.1" xmlns="http://www.w3.org/2000/svg"><path fill="#333333" d="M512 64C264.6 64 64 264.6 64 512s200.6 448 448 448 448-200.6 448-448S759.4 64 512 64z m0 820c-205.4 0-372-166.6-372-372s166.6-372 372-372 372 166.6 372 372-166.6 372-372 372zM671.6 299h-59.5c-3 0-5.8 1.7-7.1 4.4l-90.6 180H511l-90.6-180c-1.4-2.7-4.1-4.4-7.1-4.4h-60.7c-1.3 0-2.6 0.3-3.8 1-3.9 2.1-5.3 7-3.2 10.9L457 515.7h-61.4c-4.4 0-8 3.6-8 8v29.9c0 4.4 3.6 8 8 8h81.7V603h-81.7c-4.4 0-8 3.6-8 8v29.9c0 4.4 3.6 8 8 8h81.7V717c0 4.4 3.6 8 8 8h54.3c4.4 0 8-3.6 8-8v-68.1h82c4.4 0 8-3.6 8-8V611c0-4.4-3.6-8-8-8h-82v-41.5h82c4.4 0 8-3.6 8-8v-29.9c0-4.4-3.6-8-8-8h-62l111.1-204.8c0.6-1.2 1-2.5 1-3.8-0.1-4.4-3.7-8-8.1-8z" /></svg>