<?xml version="1.0" encoding="utf-8"?>
<!-- Generator: Adobe Illustrator 21.0.0, SVG Export Plug-In . SVG Version: 6.00 Build 0)  -->
<svg version="1.1" id="图层_1" xmlns="http://www.w3.org/2000/svg" xmlns:xlink="http://www.w3.org/1999/xlink" x="0px" y="0px"
	 viewBox="0 0 1024 1024" style="enable-background:new 0 0 1024 1024;" xml:space="preserve">
<style type="text/css">
	.st0{fill:none;}
</style>
<title>account book</title>
<desc>Created with Sketch.</desc>
<g>
	<path class="st0" d="M712,304c0,4.4-3.6,8-8,8h-56c-4.4,0-8-3.6-8-8v-48H384v48c0,4.4-3.6,8-8,8h-56c-4.4,0-8-3.6-8-8v-48H184v584
		h656V256H712V304z M646.6,425.8l-89.3,164.1h49.1c4.4,0,8,3.6,8,8v21.3c0,4.4-3.6,8-8,8h-65.4v33.7h65.4c4.4,0,8,3.6,8,8v21.3
		c0,4.4-3.6,8-8,8h-65.4V752c0,4.4-3.6,8-8,8h-41.3c-4.4,0-8-3.6-8-8v-53.8h-65.1c-4.4,0-8-3.6-8-8v-21.3c0-4.4,3.6-8,8-8h65.1
		v-33.7h-65.1c-4.4,0-8-3.6-8-8v-21.3c0-4.4,3.6-8,8-8H467l-89.6-164.1c-2.1-3.9-0.7-8.7,3.2-10.9c1.2-0.6,2.5-1,3.8-1h46
		c3,0,5.8,1.7,7.1,4.4l73.4,145.4h2.8l73.4-145.4c1.4-2.7,4.1-4.4,7.1-4.4h45c4.4,0,8,3.6,8,8C647.5,423.3,647.2,424.7,646.6,425.8z
		"/>
	<path d="M880,184H712v-64c0-4.4-3.6-8-8-8h-56c-4.4,0-8,3.6-8,8v64H384v-64c0-4.4-3.6-8-8-8h-56c-4.4,0-8,3.6-8,8v64H144
		c-17.7,0-32,14.3-32,32v664c0,17.7,14.3,32,32,32h736c17.7,0,32-14.3,32-32V216C912,198.3,897.7,184,880,184z M840,840H184V256h128
		v48c0,4.4,3.6,8,8,8h56c4.4,0,8-3.6,8-8v-48h256v48c0,4.4,3.6,8,8,8h56c4.4,0,8-3.6,8-8v-48h128V840z"/>
	<path d="M639.5,414h-45c-3,0-5.8,1.7-7.1,4.4l-73.4,145.4h-2.8l-73.4-145.4c-1.4-2.7-4.1-4.4-7.1-4.4h-46c-1.3,0-2.7,0.3-3.8,1
		c-3.9,2.1-5.3,7-3.2,10.9L467,589.9h-48.6c-4.4,0-8,3.6-8,8v21.3c0,4.4,3.6,8,8,8h65.1v33.7h-65.1c-4.4,0-8,3.6-8,8v21.3
		c0,4.4,3.6,8,8,8h65.1V752c0,4.4,3.6,8,8,8h41.3c4.4,0,8-3.6,8-8v-53.8h65.4c4.4,0,8-3.6,8-8v-21.3c0-4.4-3.6-8-8-8h-65.4v-33.7
		h65.4c4.4,0,8-3.6,8-8v-21.3c0-4.4-3.6-8-8-8h-49.1l89.3-164.1c0.6-1.2,1-2.5,1-3.8C647.5,417.6,644,414,639.5,414z"/>
</g>
</svg>
