<?xml version="1.0" encoding="utf-8"?>
<!-- Generator: Adobe Illustrator 21.0.0, SVG Export Plug-In . SVG Version: 6.00 Build 0)  -->
<svg version="1.1" id="图层_1" xmlns="http://www.w3.org/2000/svg" xmlns:xlink="http://www.w3.org/1999/xlink" x="0px" y="0px"
	 viewBox="0 0 1024 1024" style="enable-background:new 0 0 1024 1024;" xml:space="preserve">
<style type="text/css">
	.st0{fill:none;}
</style>
<title>add user</title>
<desc>Created with Sketch.</desc>
<g>
	<path class="st0" d="M633.5,227.4C601.1,194.9,558,177,512.2,177s-88.9,17.9-121.4,50.4s-50.3,75.7-50.3,121.6
		c0,45.9,17.9,89.1,50.3,121.6c32.4,32.5,75.5,50.4,121.4,50.4s88.9-17.9,121.4-50.4c32.4-32.5,50.3-75.7,50.3-121.6
		C683.8,303.1,666,259.9,633.5,227.4z"/>
	<path d="M678.3,642.4c24.2-13,51.9-20.4,81.4-20.4h0.1c3,0,4.4-3.6,2.2-5.6c-30.8-27.6-65.6-49.7-103.7-65.8
		c-0.4-0.2-0.8-0.3-1.2-0.5C719.2,505,759.6,431.7,759.6,349c0-137-110.8-248-247.5-248S264.7,212,264.7,349
		c0,82.7,40.4,156,102.6,201.1c-0.4,0.2-0.8,0.3-1.2,0.5c-44.7,18.9-84.8,46-119.3,80.6c-34.5,34.5-61.5,74.7-80.4,119.5
		C147.9,794.5,138,841,137,888.8c-0.1,4.5,3.5,8.2,8,8.2h59.9c4.3,0,7.9-3.5,8-7.8c2-77.2,32.9-149.5,87.6-204.3
		C357,628.2,432.2,597,512.2,597c56.7,0,111.1,15.7,158,45.1C672.7,643.6,675.7,643.8,678.3,642.4z M512.2,521
		c-45.8,0-88.9-17.9-121.4-50.4c-32.4-32.5-50.3-75.7-50.3-121.6c0-45.9,17.9-89.1,50.3-121.6S466.3,177,512.2,177
		s88.9,17.9,121.4,50.4c32.4,32.5,50.3,75.7,50.3,121.6c0,45.9-17.9,89.1-50.3,121.6C601.1,503.1,558,521,512.2,521z"/>
	<path d="M880,759h-84v-84c0-4.4-3.6-8-8-8h-56c-4.4,0-8,3.6-8,8v84h-84c-4.4,0-8,3.6-8,8v56c0,4.4,3.6,8,8,8h84v84c0,4.4,3.6,8,8,8
		h56c4.4,0,8-3.6,8-8v-84h84c4.4,0,8-3.6,8-8v-56C888,762.6,884.4,759,880,759z"/>
</g>
</svg>
