<?xml version="1.0" encoding="utf-8"?>
<!-- Generator: Adobe Illustrator 21.0.0, SVG Export Plug-In . SVG Version: 6.00 Build 0)  -->
<svg version="1.1" id="图层_1" xmlns="http://www.w3.org/2000/svg" xmlns:xlink="http://www.w3.org/1999/xlink" x="0px" y="0px"
	 viewBox="0 0 1024 1024" style="enable-background:new 0 0 1024 1024;" xml:space="preserve">
<style type="text/css">
	.st0{fill:none;}
</style>
<title>alert</title>
<desc>Created with Sketch.</desc>
<g>
	<path class="st0" d="M340,585c0-5.5,4.5-10,10-10h44c5.5,0,10,4.5,10,10v171h355V563c0-136.4-110.6-247-247-247S265,426.6,265,563
		v193h75V585z"/>
	<path d="M193,796c0,17.7,14.3,32,32,32h125h44h405c17.7,0,32-14.3,32-32V563c0-176.2-142.8-319-319-319S193,386.8,193,563V796z
		 M265,563c0-136.4,110.6-247,247-247s247,110.6,247,247v193H404V585c0-5.5-4.5-10-10-10h-44c-5.5,0-10,4.5-10,10v171h-75V563z"/>
	<path d="M216.9,310.5l39.6-39.6c3.1-3.1,3.1-8.2,0-11.3l-67.9-67.9c-3.1-3.1-8.2-3.1-11.3,0l-39.6,39.6c-3.1,3.1-3.1,8.2,0,11.3
		l67.9,67.9C208.7,313.6,213.7,313.6,216.9,310.5z"/>
	<path d="M886.5,231.3l-39.6-39.6c-3.1-3.1-8.2-3.1-11.3,0l-67.9,67.9c-3.1,3.1-3.1,8.2,0,11.3l39.6,39.6c3.1,3.1,8.2,3.1,11.3,0
		l67.9-67.9C889.6,239.4,889.6,234.4,886.5,231.3z"/>
	<path d="M832,892H192c-17.7,0-32,14.3-32,32v24c0,4.4,3.6,8,8,8h688c4.4,0,8-3.6,8-8v-24C864,906.3,849.7,892,832,892z"/>
	<path d="M484,180h56c4.4,0,8-3.6,8-8V76c0-4.4-3.6-8-8-8h-56c-4.4,0-8,3.6-8,8v96C476,176.4,479.6,180,484,180z"/>
</g>
</svg>
