<?xml version="1.0" encoding="UTF-8"?>
<svg width="1024px" height="1024px" viewBox="0 0 1024 1024" version="1.1" xmlns="http://www.w3.org/2000/svg" xmlns:xlink="http://www.w3.org/1999/xlink">
    <!-- Generator: Sketch 50.2 (55047) - http://www.bohemiancoding.com/sketch -->
    <title>alert-fill</title>
    <desc>Created with Sketch.</desc>
    <defs></defs>
    <g id="alert-fill" stroke="none" stroke-width="1" fill="none" fill-rule="evenodd">
        <path d="M511.999965,244 C688.178775,244 830.999919,386.821144 830.999919,562.999954 L830.99993,795.999982 C830.99993,813.673094 816.673042,827.999982 798.99993,827.999982 L225,827.999982 C207.326888,827.999982 193,813.673094 193,795.999982 L193.000011,562.999954 C193.000011,386.821144 335.821155,244 511.999965,244 Z M484,68 L540,68 C544.418278,68 548,71.581722 548,76 L548,172 C548,176.418278 544.418278,180 540,180 L484,180 C479.581722,180 476,176.418278 476,172 L476,76 C476,71.581722 479.581722,68 484,68 Z M177.254834,191.656854 C180.379028,188.53266 185.444348,188.53266 188.568542,191.656854 L256.450793,259.539105 C259.574988,262.6633 259.574988,267.728619 256.450793,270.852814 L216.852814,310.450793 C213.728619,313.574988 208.6633,313.574988 205.539105,310.450793 L137.656854,242.568542 C134.53266,239.444348 134.53266,234.379028 137.656854,231.254834 L177.254834,191.656854 Z M846.852814,191.656854 L886.450793,231.254834 C889.574988,234.379028 889.574988,239.444348 886.450793,242.568542 L818.568542,310.450793 C815.444348,313.574988 810.379028,313.574988 807.254834,310.450793 L767.656854,270.852814 C764.53266,267.728619 764.53266,262.6633 767.656854,259.539105 L835.539105,191.656854 C838.6633,188.53266 843.728619,188.53266 846.852814,191.656854 Z M192,892 L832,892 C849.673112,892 864,906.326888 864,924 L864,948 C864,952.418278 860.418278,956 856,956 L168,956 C163.581722,956 160,952.418278 160,948 L160,924 C160,906.326888 174.326888,892 192,892 Z M340,575 L340,828 L404,828 L404,575 L340,575 Z" id="Combined-Shape" fill="#000000"></path>
    </g>
</svg>