<?xml version="1.0" encoding="utf-8"?>
<!-- Generator: Adobe Illustrator 21.0.0, SVG Export Plug-In . SVG Version: 6.00 Build 0)  -->
<svg version="1.1" id="图层_1" xmlns="http://www.w3.org/2000/svg" xmlns:xlink="http://www.w3.org/1999/xlink" x="0px" y="0px"
	 viewBox="0 0 1024 1024" style="enable-background:new 0 0 1024 1024;" xml:space="preserve">
<style type="text/css">
	.st0{fill:none;}
</style>
<title>alibaba</title>
<desc>Created with Sketch.</desc>
<g>
	<path class="st0" d="M687.9,366.9c2.7,5.8,4,12.3,4.1,19.1C691.9,378.5,690.7,372.1,687.9,366.9z"/>
	<path d="M602.9,669.8c-37.2,2.6-33.6-17.3-11.5-46.2c50.4-67.2,143.7-158.5,147.9-225.2c5.8-86.6-81.3-113.4-171-113.4
		c-62.4,1.6-127,18.9-171,34.6c-151.6,53.5-246.6,137.5-306.9,232c-62.4,93.4-43,183.2,91.8,185.8c101.8-4.2,170.5-32.5,239.7-68.2
		c0.5,0-192.5,55.1-263.9,14.7c-7.9-4.2-15.7-10-17.8-26.2c0-33.1,54.6-67.7,86.6-78.7v-56.7c64.5,22.6,140.6,16.3,205.7-32
		c2.1,5.8,4.2,13.1,3.7,21h11c2.6-22.6-12.6-44.6-37.8-46.2c7.3,5.8,12.6,10.5,15.2,14.7l-1,1l-0.5,0.5
		c-83.9,58.8-165.3,31.5-173.1,29.9l46.7-45.7l-13.1-33.1c92.9-32.5,169.5-56.2,296.9-78.7L552,330.7l14.7-8.9
		c75.5,21,126.4,36.7,123.8,76.6c-1,6.8-3.7,14.7-7.9,23.1C660.1,466.1,594,538,567.2,569c-17.3,20.5-34.6,39.4-46.7,58.3
		c-13.6,19.4-20.5,37.3-21,53.5c2.6,131.8,391.4-61.9,468-112.9C855.8,615.7,734.6,661.4,602.9,669.8z M687.9,366.9
		c2.8,5.2,4.1,11.6,4.1,19.1C691.9,379.2,690.6,372.7,687.9,366.9z"/>
</g>
</svg>
