<?xml version="1.0" encoding="utf-8"?>
<!-- Generator: Adobe Illustrator 21.0.0, SVG Export Plug-In . SVG Version: 6.00 Build 0)  -->
<svg version="1.1" id="图层_1" xmlns="http://www.w3.org/2000/svg" xmlns:xlink="http://www.w3.org/1999/xlink" x="0px" y="0px"
	 viewBox="0 0 1024 1024" style="enable-background:new 0 0 1024 1024;" xml:space="preserve">
<style type="text/css">
	.st0{fill:none;}
</style>
<title>android-fill</title>
<desc>Created with Sketch.</desc>
<g>
	<path class="st0" d="M409.5,190.4c-14.9,0-26.9,12.1-26.9,26.9c0,14.9,12.1,26.9,26.9,26.9s26.8-12.1,26.9-26.9
		C436.4,202.4,424.3,190.4,409.5,190.4z"/>
	<path class="st0" d="M617.9,190.4c-14.9,0-26.9,12.1-26.9,26.9c0,14.9,12.1,26.9,26.9,26.9c14.8,0,26.8-12.1,26.9-26.9
		C644.8,202.4,632.7,190.4,617.9,190.4z"/>
	<path d="M270.1,741.7c0,23.4,19.1,42.5,42.6,42.5h48.7v120.4c0,30.5,24.5,55.4,54.6,55.4c30.2,0,54.6-24.8,54.6-55.4V784.1h85
		v120.4c0,30.5,24.5,55.4,54.6,55.4c30.2,0,54.6-24.8,54.6-55.4V784.1h48.7c23.5,0,42.6-19.1,42.6-42.5V346.4h-486V741.7z"/>
	<path d="M627.2,141.6l44.9-65c2.6-3.8,2-8.9-1.5-11.4c-3.5-2.4-8.5-1.2-11.1,2.6l-46.6,67.6c-30.7-12.1-64.9-18.8-100.8-18.8
		c-35.9,0-70.1,6.7-100.8,18.8l-46.6-67.5c-2.6-3.8-7.6-5.1-11.1-2.6c-3.5,2.4-4.1,7.4-1.5,11.4l44.9,65
		c-71.4,33.2-121.4,96.1-127.8,169.6h486C748.6,237.7,698.5,174.8,627.2,141.6z M409.5,244.1c-14.8,0-26.9-12-26.9-26.9
		c0-14.8,12-26.9,26.9-26.9c14.8,0,26.9,12,26.9,26.9C436.3,232.1,424.3,244.1,409.5,244.1z M617.9,244.1c-14.8,0-26.9-12-26.9-26.9
		c0-14.8,12-26.9,26.9-26.9c14.8,0,26.9,12,26.9,26.9C644.7,232.1,632.7,244.1,617.9,244.1z"/>
	<path d="M841.3,344.8c-30.2,0-54.6,24.8-54.6,55.4v216.4c0,30.5,24.5,55.4,54.6,55.4c30.2,0,54.6-24.8,54.6-55.4V400.1
		C896,369.5,871.6,344.8,841.3,344.8z"/>
	<path d="M182.7,344.8c-30.2,0-54.6,24.8-54.6,55.4v216.4c0,30.5,24.5,55.4,54.6,55.4c30.2,0,54.6-24.8,54.6-55.4V400.1
		C237.3,369.5,212.8,344.8,182.7,344.8z"/>
</g>
</svg>
