<?xml version="1.0" encoding="utf-8"?>
<!-- Generator: Adobe Illustrator 21.0.0, SVG Export Plug-In . SVG Version: 6.00 Build 0)  -->
<svg version="1.1" id="图层_1" xmlns="http://www.w3.org/2000/svg" xmlns:xlink="http://www.w3.org/1999/xlink" x="0px" y="0px"
	 viewBox="0 0 1024 1024" style="enable-background:new 0 0 1024 1024;" xml:space="preserve">
<style type="text/css">
	.st0{fill:none;}
</style>
<title>apple</title>
<desc>Created with Sketch.</desc>
<g>
	<path class="st0" d="M722.5,676.1c-19.3-28.3-31.5-58.4-37.9-89c-4.3-20.2-5.5-37.1-5.1-51.8c-0.1-61.9,19.4-115,56.9-158.4
		c-16.5-7.5-35.9-12.1-58.6-13.8c-4-0.3-8.4-0.3-13.2,0.1c-16.3,1.2-35.1,6.1-60.8,15.2c-4.6,1.6-30.4,11.2-37.5,13.6
		c-18.9,6.5-32.1,9.8-47.7,9.8c-15.3,0-29.5-3.1-47.6-9c-5.7-1.8-11.5-3.8-19.2-6.6c-1.6-0.6-14.7-5.3-18.5-6.7
		c-12.7-4.5-22.1-7.6-30.7-9.9c-10.9-3-19.4-4.4-25.4-4.5c-36,0.7-71.5,15.7-97.8,42.3c-30.6,31.1-48.4,76.9-48.4,137.1
		c0,40.9,7.6,83.7,23,128.6c12.5,35.9,38.5,87.1,66,125.7c15.6,21.9,31.1,39,45.1,49.9c6.1,4.8,11.5,8,16,9.8c1.6,0.7,3,1.1,4.1,1.3
		c0.5,0.1,1.1,0.1,1.8,0.2c5.9-0.1,12.4-1.6,22.9-5.2c2.5-0.9,5.3-1.9,8.7-3.2c2.1-0.8,9.5-3.6,10.2-3.9
		c17.1-6.5,28.7-10.4,42.7-13.8c19-4.7,38-7.2,58.1-7.2c19.7,0,38.3,2.6,56.9,7.4c13.3,3.5,23.7,7.1,41.1,13.8
		c0.6,0.2,3.6,1.4,4.4,1.7c1.6,0.6,2.9,1.1,4.2,1.6c17.1,6.5,25.7,8.7,34.7,8.8c5.4-0.2,13.5-3.6,24-11.6
		c13.3-10.1,27.6-25.7,41.9-45.7c14.8-20.6,28.9-45,40.3-68.7C755.4,717,737.2,697.6,722.5,676.1z"/>
	<path d="M747.4,535.7c-0.4-68.2,30.5-119.6,92.9-157.5c-34.9-50-87.7-77.5-157.3-82.8c-65.9-5.2-138,38.4-164.4,38.4
		c-27.9,0-91.7-36.6-141.9-36.6C273.1,298.8,163,379.8,163,544.6c0,48.7,8.9,99,26.7,150.8c23.8,68.2,109.6,235.3,199.1,232.6
		c46.8-1.1,79.9-33.2,140.8-33.2c59.1,0,89.7,33.2,141.9,33.2c90.3-1.3,167.9-153.2,190.5-221.6
		C740.9,649.3,747.4,539.2,747.4,535.7z M736.8,802.7c-14.3,19.9-28.7,35.6-41.9,45.7c-10.5,8-18.6,11.4-24,11.6
		c-9-0.1-17.7-2.3-34.7-8.8c-1.2-0.5-2.5-1-4.2-1.6c-0.8-0.3-3.9-1.5-4.4-1.7c-17.4-6.7-27.8-10.3-41.1-13.8
		c-18.6-4.8-37.1-7.4-56.9-7.4c-20.2,0-39.2,2.5-58.1,7.2c-13.9,3.5-25.6,7.4-42.7,13.8c-0.7,0.3-8.1,3.1-10.2,3.9
		c-3.5,1.3-6.2,2.3-8.7,3.2c-10.4,3.6-17,5.1-22.9,5.2c-0.7,0-1.3-0.1-1.8-0.2c-1.1-0.2-2.5-0.6-4.1-1.3c-4.5-1.8-9.9-5.1-16-9.8
		c-14-10.9-29.4-28-45.1-49.9c-27.5-38.6-53.5-89.8-66-125.7c-15.4-44.8-23-87.7-23-128.6c0-60.2,17.8-106,48.4-137.1
		c26.3-26.6,61.7-41.5,97.8-42.3c5.9,0.1,14.5,1.5,25.4,4.5c8.6,2.3,18,5.4,30.7,9.9c3.8,1.4,16.9,6.1,18.5,6.7
		c7.7,2.8,13.5,4.8,19.2,6.6c18.2,5.8,32.3,9,47.6,9c15.5,0,28.8-3.3,47.7-9.8c7.1-2.4,32.9-12,37.5-13.6
		c25.6-9.1,44.5-14,60.8-15.2c4.8-0.4,9.1-0.4,13.2-0.1c22.7,1.8,42.1,6.3,58.6,13.8c-37.6,43.4-57,96.5-56.9,158.4
		c-0.3,14.7,0.9,31.7,5.1,51.8c6.4,30.5,18.6,60.7,37.9,89c14.7,21.5,32.9,40.9,54.7,57.8C765.7,757.6,751.6,782.1,736.8,802.7z"/>
	<path d="M642.3,230.7c50.7-60.2,46.1-115,44.6-134.7c-44.8,2.6-96.6,30.5-126.1,64.8c-32.5,36.8-51.6,82.3-47.5,133.6
		C561.7,298.1,605.9,273.2,642.3,230.7z"/>
</g>
</svg>
