<?xml version="1.0" encoding="utf-8"?>
<!-- Generator: Adobe Illustrator 21.0.0, SVG Export Plug-In . SVG Version: 6.00 Build 0)  -->
<svg version="1.1" id="图层_1" xmlns="http://www.w3.org/2000/svg" xmlns:xlink="http://www.w3.org/1999/xlink" x="0px" y="0px"
	 viewBox="0 0 1024 1024" style="enable-background:new 0 0 1024 1024;" xml:space="preserve">
<title>area chart</title>
<desc>Created with Sketch.</desc>
<g>
	<path d="M888,792H200V168c0-4.4-3.6-8-8-8h-56c-4.4,0-8,3.6-8,8v688c0,4.4,3.6,8,8,8h56h696c4.4,0,8-3.6,8-8v-56
		C896,795.6,892.4,792,888,792z"/>
	<path d="M272,728h536c4.4,0,8-3.6,8-8V284c0-7.2-8.7-10.7-13.7-5.7L592,488.6l-125.4-124c-3.1-3.1-8.2-3.1-11.3,0l-189,189.6
		c-1.5,1.5-2.3,3.5-2.3,5.6V720C264,724.4,267.6,728,272,728z"/>
</g>
</svg>
