<?xml version="1.0" encoding="utf-8"?>
<!-- Generator: Adobe Illustrator 21.0.0, SVG Export Plug-In . SVG Version: 6.00 Build 0)  -->
<svg version="1.1" id="图层_1" xmlns="http://www.w3.org/2000/svg" xmlns:xlink="http://www.w3.org/1999/xlink" x="0px" y="0px"
	 viewBox="0 0 1024 1024" style="enable-background:new 0 0 1024 1024;" xml:space="preserve">
<style type="text/css">
	.st0{fill:none;}
</style>
<title>behance</title>
<desc>Created with Sketch.</desc>
<g>
	<path class="st0" d="M395.8,401.4c0-45.3-35.1-56.3-74.2-56.3H220.2V460h109.7C368.5,460,395.8,443.2,395.8,401.4z"/>
	<path class="st0" d="M338,534.3H220.1v135.6v0l0,0h115.6c44.1,0,80-15.6,80-65.3C415.7,554.2,385.7,534.3,338,534.3z"/>
	<path class="st0" d="M735.1,460.8c-46.8,0-78.1,29.3-81.2,76.2h159.3C808.8,489.7,784.3,460.8,735.1,460.8z"/>
	<rect x="634" y="294.3" width="199.5" height="48.4"/>
	<path d="M434.1,485.8c44.1-21.1,67.2-53.2,67.2-102.8c0-98.1-73-121.9-157.3-121.9H112v492.4h238.5c89.4,0,173.3-43,173.3-143
		C523.8,548.7,494.6,503,434.1,485.8z M220.2,345.1h101.5c39.1,0,74.2,10.9,74.2,56.3c0,41.8-27.3,58.6-66,58.6H220.2V345.1z
		 M335.7,669.9H220.1l0,0v0V534.3H338c47.6,0,77.7,19.9,77.7,70.3C415.7,654.2,379.8,669.9,335.7,669.9z"/>
	<path d="M911.5,580.4c0-105.5-61.7-193.4-173.3-193.4c-108.5,0-182.3,81.7-182.3,188.8c0,111,69.9,187.2,182.3,187.2
		c85.1,0,140.2-38.3,166.7-120h-86.3c-9.4,30.5-47.6,46.5-77.3,46.5c-57.4,0-87.4-33.6-87.4-90.7h256.9
		C911.1,592.9,911.5,586.7,911.5,580.4z M653.9,537c3.1-46.9,34.4-76.2,81.2-76.2c49.2,0,73.8,28.9,78.1,76.2H653.9z"/>
</g>
</svg>
