<?xml version="1.0" encoding="utf-8"?>
<!-- Generator: Adobe Illustrator 21.0.0, SVG Export Plug-In . SVG Version: 6.00 Build 0)  -->
<svg version="1.1" id="图层_1" xmlns="http://www.w3.org/2000/svg" xmlns:xlink="http://www.w3.org/1999/xlink" x="0px" y="0px"
	 viewBox="0 0 1024 1024" style="enable-background:new 0 0 1024 1024;" xml:space="preserve">
<title>border-left</title>
<desc>Created with Sketch.</desc>
<g>
	<path d="M208,144h-56c-4.4,0-8,3.6-8,8v720c0,4.4,3.6,8,8,8h56c4.4,0,8-3.6,8-8V152C216,147.6,212.4,144,208,144z"/>
	<path d="M374,144h-56c-4.4,0-8,3.6-8,8v56c0,4.4,3.6,8,8,8h56c4.4,0,8-3.6,8-8v-56C382,147.6,378.4,144,374,144z"/>
	<path d="M872,144h-56c-4.4,0-8,3.6-8,8v56c0,4.4,3.6,8,8,8h56c4.4,0,8-3.6,8-8v-56C880,147.6,876.4,144,872,144z"/>
	<path d="M540,144h-56c-4.4,0-8,3.6-8,8v56c0,4.4,3.6,8,8,8h56c4.4,0,8-3.6,8-8v-56C548,147.6,544.4,144,540,144z"/>
	<path d="M706,144h-56c-4.4,0-8,3.6-8,8v56c0,4.4,3.6,8,8,8h56c4.4,0,8-3.6,8-8v-56C714,147.6,710.4,144,706,144z"/>
	<path d="M540,310h-56c-4.4,0-8,3.6-8,8v56c0,4.4,3.6,8,8,8h56c4.4,0,8-3.6,8-8v-56C548,313.6,544.4,310,540,310z"/>
	<path d="M872,310h-56c-4.4,0-8,3.6-8,8v56c0,4.4,3.6,8,8,8h56c4.4,0,8-3.6,8-8v-56C880,313.6,876.4,310,872,310z"/>
	<path d="M872,642h-56c-4.4,0-8,3.6-8,8v56c0,4.4,3.6,8,8,8h56c4.4,0,8-3.6,8-8v-56C880,645.6,876.4,642,872,642z"/>
	<path d="M540,642h-56c-4.4,0-8,3.6-8,8v56c0,4.4,3.6,8,8,8h56c4.4,0,8-3.6,8-8v-56C548,645.6,544.4,642,540,642z"/>
	<path d="M540,808h-56c-4.4,0-8,3.6-8,8v56c0,4.4,3.6,8,8,8h56c4.4,0,8-3.6,8-8v-56C548,811.6,544.4,808,540,808z"/>
	<path d="M540,476h-56c-4.4,0-8,3.6-8,8v56c0,4.4,3.6,8,8,8h56c4.4,0,8-3.6,8-8v-56C548,479.6,544.4,476,540,476z"/>
	<path d="M872,808h-56c-4.4,0-8,3.6-8,8v56c0,4.4,3.6,8,8,8h56c4.4,0,8-3.6,8-8v-56C880,811.6,876.4,808,872,808z"/>
	<path d="M872,476h-56c-4.4,0-8,3.6-8,8v56c0,4.4,3.6,8,8,8h56c4.4,0,8-3.6,8-8v-56C880,479.6,876.4,476,872,476z"/>
	<path d="M374,808h-56c-4.4,0-8,3.6-8,8v56c0,4.4,3.6,8,8,8h56c4.4,0,8-3.6,8-8v-56C382,811.6,378.4,808,374,808z"/>
	<path d="M374,476h-56c-4.4,0-8,3.6-8,8v56c0,4.4,3.6,8,8,8h56c4.4,0,8-3.6,8-8v-56C382,479.6,378.4,476,374,476z"/>
	<path d="M706,808h-56c-4.4,0-8,3.6-8,8v56c0,4.4,3.6,8,8,8h56c4.4,0,8-3.6,8-8v-56C714,811.6,710.4,808,706,808z"/>
	<path d="M706,476h-56c-4.4,0-8,3.6-8,8v56c0,4.4,3.6,8,8,8h56c4.4,0,8-3.6,8-8v-56C714,479.6,710.4,476,706,476z"/>
</g>
</svg>
