<?xml version="1.0" encoding="utf-8"?>
<!-- Generator: Adobe Illustrator 21.0.0, SVG Export Plug-In . SVG Version: 6.00 Build 0)  -->
<svg version="1.1" id="图层_1" xmlns="http://www.w3.org/2000/svg" xmlns:xlink="http://www.w3.org/1999/xlink" x="0px" y="0px"
	 viewBox="0 0 1024 1024" style="enable-background:new 0 0 1024 1024;" xml:space="preserve">
<title>border-bottom</title>
<desc>Created with Sketch.</desc>
<g>
	<path d="M872,808H152c-4.4,0-8,3.6-8,8v56c0,4.4,3.6,8,8,8h720c4.4,0,8-3.6,8-8v-56C880,811.6,876.4,808,872,808z"/>
	<path d="M152,714h56c4.4,0,8-3.6,8-8v-56c0-4.4-3.6-8-8-8h-56c-4.4,0-8,3.6-8,8v56C144,710.4,147.6,714,152,714z"/>
	<path d="M152,216h56c4.4,0,8-3.6,8-8v-56c0-4.4-3.6-8-8-8h-56c-4.4,0-8,3.6-8,8v56C144,212.4,147.6,216,152,216z"/>
	<path d="M152,548h56c4.4,0,8-3.6,8-8v-56c0-4.4-3.6-8-8-8h-56c-4.4,0-8,3.6-8,8v56C144,544.4,147.6,548,152,548z"/>
	<path d="M152,382h56c4.4,0,8-3.6,8-8v-56c0-4.4-3.6-8-8-8h-56c-4.4,0-8,3.6-8,8v56C144,378.4,147.6,382,152,382z"/>
	<path d="M318,548h56c4.4,0,8-3.6,8-8v-56c0-4.4-3.6-8-8-8h-56c-4.4,0-8,3.6-8,8v56C310,544.4,313.6,548,318,548z"/>
	<path d="M318,216h56c4.4,0,8-3.6,8-8v-56c0-4.4-3.6-8-8-8h-56c-4.4,0-8,3.6-8,8v56C310,212.4,313.6,216,318,216z"/>
	<path d="M650,216h56c4.4,0,8-3.6,8-8v-56c0-4.4-3.6-8-8-8h-56c-4.4,0-8,3.6-8,8v56C642,212.4,645.6,216,650,216z"/>
	<path d="M650,548h56c4.4,0,8-3.6,8-8v-56c0-4.4-3.6-8-8-8h-56c-4.4,0-8,3.6-8,8v56C642,544.4,645.6,548,650,548z"/>
	<path d="M872,476h-56c-4.4,0-8,3.6-8,8v56c0,4.4,3.6,8,8,8h56c4.4,0,8-3.6,8-8v-56C880,479.6,876.4,476,872,476z"/>
	<path d="M484,548h56c4.4,0,8-3.6,8-8v-56c0-4.4-3.6-8-8-8h-56c-4.4,0-8,3.6-8,8v56C476,544.4,479.6,548,484,548z"/>
	<path d="M872,144h-56c-4.4,0-8,3.6-8,8v56c0,4.4,3.6,8,8,8h56c4.4,0,8-3.6,8-8v-56C880,147.6,876.4,144,872,144z"/>
	<path d="M484,216h56c4.4,0,8-3.6,8-8v-56c0-4.4-3.6-8-8-8h-56c-4.4,0-8,3.6-8,8v56C476,212.4,479.6,216,484,216z"/>
	<path d="M872,642h-56c-4.4,0-8,3.6-8,8v56c0,4.4,3.6,8,8,8h56c4.4,0,8-3.6,8-8v-56C880,645.6,876.4,642,872,642z"/>
	<path d="M484,714h56c4.4,0,8-3.6,8-8v-56c0-4.4-3.6-8-8-8h-56c-4.4,0-8,3.6-8,8v56C476,710.4,479.6,714,484,714z"/>
	<path d="M872,310h-56c-4.4,0-8,3.6-8,8v56c0,4.4,3.6,8,8,8h56c4.4,0,8-3.6,8-8v-56C880,313.6,876.4,310,872,310z"/>
	<path d="M484,382h56c4.4,0,8-3.6,8-8v-56c0-4.4-3.6-8-8-8h-56c-4.4,0-8,3.6-8,8v56C476,378.4,479.6,382,484,382z"/>
</g>
</svg>
