<?xml version="1.0" encoding="utf-8"?>
<!-- Generator: Adobe Illustrator 21.0.0, SVG Export Plug-In . SVG Version: 6.00 Build 0)  -->
<svg version="1.1" id="图层_1" xmlns="http://www.w3.org/2000/svg" xmlns:xlink="http://www.w3.org/1999/xlink" x="0px" y="0px"
	 viewBox="0 0 1024 1024" style="enable-background:new 0 0 1024 1024;" xml:space="preserve">
<style type="text/css">
	.st0{fill:none;}
</style>
<title>bulb</title>
<desc>Created with Sketch.</desc>
<g>
	<path class="st0" d="M512,136c-141.4,0-256,114.6-256,256c0,92.5,49.4,176.3,128.1,221.8l35.9,20.8V752h184l0-117.4l35.9-20.8
		C718.6,568.3,768,484.5,768,392C768,250.6,653.4,136,512,136z"/>
	<path d="M632,888H392c-4.4,0-8,3.6-8,8v32c0,17.7,14.3,32,32,32h192c17.7,0,32-14.3,32-32v-32C640,891.6,636.4,888,632,888z"/>
	<path d="M512,64c-181.1,0-328,146.9-328,328c0,121.4,66,227.4,164,284.1V792c0,17.7,14.3,32,32,32h264c17.7,0,32-14.3,32-32
		l0-115.9c98-56.7,164-162.7,164-284.1C840,210.9,693.1,64,512,64z M639.9,613.8L604,634.6l0,117.4H420V634.6l-35.9-20.8
		C305.4,568.3,256,484.5,256,392c0-141.4,114.6-256,256-256s256,114.6,256,256C768,484.5,718.6,568.3,639.9,613.8z"/>
</g>
</svg>
