<?xml version="1.0" encoding="utf-8"?>
<!-- Generator: Adobe Illustrator 21.0.0, SVG Export Plug-In . SVG Version: 6.00 Build 0)  -->
<svg version="1.1" id="图层_1" xmlns="http://www.w3.org/2000/svg" xmlns:xlink="http://www.w3.org/1999/xlink" x="0px" y="0px"
	 viewBox="0 0 1024 1024" style="enable-background:new 0 0 1024 1024;" xml:space="preserve">
<title>bulb-fill</title>
<desc>Created with Sketch.</desc>
<g id="bulb-fill">
	<g id="Group-2" transform="translate(184.000000, 64.000000)">
		<path id="Combined-Shape" d="M164,612.1C66,555.4,0,449.4,0,328C0,146.9,146.9,0,328,0s328,146.9,328,328
			c0,121.4-66,227.4-164,284.1l0,115.9c0,17.7-14.3,32-32,32H196c-17.7,0-32-14.3-32-32L164,612.1L164,612.1z M208,824h240
			c4.4,0,8,3.6,8,8v32c0,17.7-14.3,32-32,32H232c-17.7,0-32-14.3-32-32v-32C200,827.6,203.6,824,208,824z"/>
	</g>
</g>
</svg>
