<?xml version="1.0" encoding="utf-8"?>
<!-- Generator: Adobe Illustrator 21.0.0, SVG Export Plug-In . SVG Version: 6.00 Build 0)  -->
<svg version="1.1" id="图层_1" xmlns="http://www.w3.org/2000/svg" xmlns:xlink="http://www.w3.org/1999/xlink" x="0px" y="0px"
	 viewBox="0 0 1024 1024" style="enable-background:new 0 0 1024 1024;" xml:space="preserve">
<style type="text/css">
	.st0{fill:none;}
</style>
<title>calendar</title>
<desc>Created with Sketch.</desc>
<g>
	<rect x="184" y="460" class="st0" width="656" height="380"/>
	<path class="st0" d="M712,256v48c0,4.4-3.6,8-8,8h-56c-4.4,0-8-3.6-8-8v-48H384v48c0,4.4-3.6,8-8,8h-56c-4.4,0-8-3.6-8-8v-48H184
		v136h656V256H712z"/>
	<path d="M880,184H712v-64c0-4.4-3.6-8-8-8h-56c-4.4,0-8,3.6-8,8v64H384v-64c0-4.4-3.6-8-8-8h-56c-4.4,0-8,3.6-8,8v64H144
		c-17.7,0-32,14.3-32,32v176v68v420c0,17.7,14.3,32,32,32h736c17.7,0,32-14.3,32-32V460v-68V216C912,198.3,897.7,184,880,184z
		 M840,840H184V460h656V840z M184,392V256h128v48c0,4.4,3.6,8,8,8h56c4.4,0,8-3.6,8-8v-48h256v48c0,4.4,3.6,8,8,8h56
		c4.4,0,8-3.6,8-8v-48h128v136H184z"/>
</g>
</svg>
