<?xml version="1.0" encoding="utf-8"?>
<!-- Generator: Adobe Illustrator 21.0.0, SVG Export Plug-In . SVG Version: 6.00 Build 0)  -->
<svg version="1.1" id="图层_1" xmlns="http://www.w3.org/2000/svg" xmlns:xlink="http://www.w3.org/1999/xlink" x="0px" y="0px"
	 viewBox="0 0 1024 1024" style="enable-background:new 0 0 1024 1024;" xml:space="preserve">
<style type="text/css">
	.st0{fill:none;}
</style>
<title>camera-fill</title>
<desc>Created with Sketch.</desc>
<g>
	<path class="st0" d="M512,396c-88.4,0-160,71.6-160,160s71.6,160,160,160s160-71.6,160-160S600.4,396,512,396z M512,652
		c-53,0-96-43-96-96s43-96,96-96s96,43,96,96S565,652,512,652z"/>
	<path d="M864,260H728l-32.4-90.8C691,156.5,679,148,665.4,148H358.6c-13.5,0-25.6,8.5-30.1,21.2L296,260H160c-44.2,0-80,35.8-80,80
		v456c0,44.2,35.8,80,80,80h704c44.2,0,80-35.8,80-80V340C944,295.8,908.2,260,864,260z M512,716c-88.4,0-160-71.6-160-160
		s71.6-160,160-160s160,71.6,160,160S600.4,716,512,716z"/>
	<circle cx="512" cy="556" r="96"/>
</g>
</svg>
