<?xml version="1.0" encoding="utf-8"?>
<!-- Generator: Adobe Illustrator 21.0.0, SVG Export Plug-In . SVG Version: 6.00 Build 0)  -->
<svg version="1.1" id="图层_1" xmlns="http://www.w3.org/2000/svg" xmlns:xlink="http://www.w3.org/1999/xlink" x="0px" y="0px"
	 viewBox="0 0 1024 1024" style="enable-background:new 0 0 1024 1024;" xml:space="preserve">
<style type="text/css">
	.st0{fill:none;}
</style>
<title>camera</title>
<desc>Created with Sketch.</desc>
<g>
	<circle class="st0" cx="512" cy="544" r="96"/>
	<path class="st0" d="M864,320H728h-50.7l-17.1-47.8L637.3,208H386.7l-22.9,64.2L346.7,320H296H160c-4.4,0-8,3.6-8,8v456
		c0,4.4,3.6,8,8,8h704c4.4,0,8-3.6,8-8V328C872,323.6,868.4,320,864,320z M512,704c-88.4,0-160-71.6-160-160s71.6-160,160-160
		s160,71.6,160,160S600.4,704,512,704z"/>
	<path d="M864,248H728l-32.4-90.8C691,144.5,679,136,665.4,136H358.6c-13.5,0-25.6,8.5-30.1,21.2L296,248H160c-44.2,0-80,35.8-80,80
		v456c0,44.2,35.8,80,80,80h704c44.2,0,80-35.8,80-80V328C944,283.8,908.2,248,864,248z M872,784c0,4.4-3.6,8-8,8H160
		c-4.4,0-8-3.6-8-8V328c0-4.4,3.6-8,8-8h136h50.7l17.1-47.8l22.9-64.2h250.5l22.9,64.2l17.1,47.8H728h136c4.4,0,8,3.6,8,8V784z"/>
	<path d="M512,384c-88.4,0-160,71.6-160,160s71.6,160,160,160s160-71.6,160-160S600.4,384,512,384z M512,640c-53,0-96-43-96-96
		s43-96,96-96s96,43,96,96S565,640,512,640z"/>
</g>
</svg>
