<?xml version="1.0" encoding="utf-8"?>
<!-- Generator: Adobe Illustrator 21.0.0, SVG Export Plug-In . SVG Version: 6.00 Build 0)  -->
<svg version="1.1" id="图层_1" xmlns="http://www.w3.org/2000/svg" xmlns:xlink="http://www.w3.org/1999/xlink" x="0px" y="0px"
	 viewBox="0 0 1024 1024" style="enable-background:new 0 0 1024 1024;" xml:space="preserve">
<style type="text/css">
	.st0{fill:none;}
</style>
<title>CI-circle-fill</title>
<desc>Created with Sketch.</desc>
<g>
	<path class="st0" d="M596.3,583.1h-52.7c-4.2,0-7.6,3.2-8,7.3c-4.2,42.9-37.7,72.4-87,72.4c-61.1,0-95.6-44.8-95.6-125.1v-49.3
		c0-81.5,34.5-126.9,95.6-126.9c49.4,0,83,31.5,87,77.6c0.4,4.2,3.8,7.4,8,7.4h52.6c2.4,0,4.4-2,4.4-4.4
		c0-81.2-64-138.1-152.3-138.1C345.4,304,286,373.5,286,488.4v49c0,114,59.4,182.6,162.4,182.6c88,0,152.3-55.1,152.3-132.5
		C600.7,585.1,598.7,583.1,596.3,583.1z"/>
	<path class="st0" d="M730,311.9h-50.4c-4.4,0-8,3.6-8,8v384.2c0,4.4,3.6,8,8,8H730c4.4,0,8-3.6,8-8V319.9
		C738,315.5,734.4,311.9,730,311.9z"/>
	<path d="M512,64C264.6,64,64,264.6,64,512s200.6,448,448,448s448-200.6,448-448S759.4,64,512,64z M448.4,720
		c-103,0-162.4-68.6-162.4-182.6v-49C286,373.5,345.4,304,448.3,304c88.3,0,152.3,56.9,152.3,138.1c0,2.4-2,4.4-4.4,4.4h-52.6
		c-4.2,0-7.6-3.2-8-7.4c-4-46.1-37.6-77.6-87-77.6c-61.1,0-95.6,45.4-95.6,126.9v49.3c0,80.3,34.5,125.1,95.6,125.1
		c49.3,0,82.8-29.5,87-72.4c0.4-4.1,3.8-7.3,8-7.3h52.7c2.4,0,4.4,2,4.4,4.4C600.7,664.9,536.4,720,448.4,720z M738,704.1
		c0,4.4-3.6,8-8,8h-50.4c-4.4,0-8-3.6-8-8V319.9c0-4.4,3.6-8,8-8H730c4.4,0,8,3.6,8,8V704.1z"/>
</g>
</svg>
