<?xml version="1.0" encoding="utf-8"?>
<!-- Generator: Adobe Illustrator 21.0.0, SVG Export Plug-In . SVG Version: 6.00 Build 0)  -->
<svg version="1.1" id="图层_1" xmlns="http://www.w3.org/2000/svg" xmlns:xlink="http://www.w3.org/1999/xlink" x="0px" y="0px"
	 viewBox="0 0 1024 1024" style="enable-background:new 0 0 1024 1024;" xml:space="preserve">
<style type="text/css">
	.st0{fill:none;}
</style>
<title>close-circle-o</title>
<desc>Created with Sketch.</desc>
<g>
	<path class="st0" d="M512,141c-205.4,0-372,166.6-372,372s166.6,372,372,372s372-166.6,372-372S717.4,141,512,141z M683.5,670
		c1.2,1.5,1.9,3.3,1.9,5.2c0,4.4-3.6,8-8,8l-66-0.3L512,564.4l-99.3,118.4l-66.1,0.3c-4.4,0-8-3.5-8-8c0-1.9,0.7-3.7,1.9-5.2
		l130.1-155L340.5,360c-1.2-1.5-1.9-3.3-1.9-5.2c0-4.4,3.6-8,8-8l66.1,0.3L512,465.6l99.3-118.4l66-0.3c4.4,0,8,3.5,8,8
		c0,1.9-0.7,3.7-1.9,5.2L553.5,515L683.5,670z"/>
	<path d="M685.4,354.8c0-4.4-3.6-8-8-8l-66,0.3L512,465.6l-99.3-118.4l-66.1-0.3c-4.4,0-8,3.5-8,8c0,1.9,0.7,3.7,1.9,5.2l130.1,155
		L340.5,670c-1.2,1.5-1.9,3.3-1.9,5.2c0,4.4,3.6,8,8,8l66.1-0.3L512,564.4l99.3,118.4l66,0.3c4.4,0,8-3.5,8-8c0-1.9-0.7-3.7-1.9-5.2
		L553.5,515l130.1-155C684.8,358.6,685.4,356.7,685.4,354.8z"/>
	<path d="M512,65C264.6,65,64,265.6,64,513s200.6,448,448,448s448-200.6,448-448S759.4,65,512,65z M512,885
		c-205.4,0-372-166.6-372-372s166.6-372,372-372s372,166.6,372,372S717.4,885,512,885z"/>
</g>
</svg>
