<?xml version="1.0" encoding="utf-8"?>
<!-- Generator: Adobe Illustrator 21.0.0, SVG Export Plug-In . SVG Version: 6.00 Build 0)  -->
<svg version="1.1" id="图层_1" xmlns="http://www.w3.org/2000/svg" xmlns:xlink="http://www.w3.org/1999/xlink" x="0px" y="0px"
	 viewBox="0 0 1024 1024" style="enable-background:new 0 0 1024 1024;" xml:space="preserve">
<title>cloud sync-o</title>
<desc>Created with Sketch.</desc>
<g>
	<path d="M811.4,368.9C765.6,248,648.9,162,512.2,162c-136.7,0-253.4,85.9-299.2,206.8C126.9,391.5,63.5,470.2,64,563.6
		C64.6,668,145.6,752.9,247.6,762c4.7,0.4,8.7-3.3,8.7-8v-60.4c0-4-3-7.4-7-7.9c-27-3.4-52.5-15.2-72.1-34.5
		c-24-23.5-37.2-55.1-37.2-88.6c0-28,9.1-54.4,26.2-76.4c16.7-21.4,40.2-36.9,66.1-43.7l37.9-10l13.9-36.7
		c8.6-22.8,20.6-44.2,35.7-63.5c14.9-19.2,32.6-36,52.4-50c41.1-28.9,89.5-44.2,140-44.2c50.5,0,98.9,15.3,140,44.3
		c19.9,14,37.5,30.8,52.4,50c15.1,19.3,27.1,40.7,35.7,63.5l13.8,36.6l37.8,10c54.2,14.4,92.1,63.7,92.1,120
		c0,33.6-13.2,65.1-37.2,88.6c-19.5,19.2-44.9,31.1-71.9,34.5c-4,0.5-6.9,3.9-6.9,7.9V754c0,4.7,4.1,8.4,8.8,8
		c101.7-9.2,182.5-94,183.2-198.2C960.6,470.4,897.3,391.7,811.4,368.9z"/>
	<path d="M376.9,656.4c1.8-33.5,15.7-64.7,39.5-88.6c25.4-25.5,60-39.8,96-39.8c36.2,0,70.3,14.1,96,39.8c1.4,1.4,2.7,2.8,4.1,4.3
		l-25,19.6c-5.3,4.1-3.5,12.5,3,14.1l98.2,24c5,1.2,9.9-2.6,9.9-7.7l0.5-101.3c0-6.7-7.6-10.5-12.9-6.3l-23.2,18.2
		c-36.6-42-90.4-68.6-150.5-68.6c-107.4,0-195,85.1-199.4,191.7c-0.2,4.5,3.4,8.3,8,8.3h47.9C373.2,664,376.7,660.7,376.9,656.4z"/>
	<path d="M703,664h-47.9c-4.2,0-7.7,3.3-8,7.6c-1.8,33.5-15.7,64.7-39.5,88.6c-25.4,25.5-60,39.8-96,39.8c-36.2,0-70.3-14.1-96-39.8
		c-1.4-1.4-2.7-2.8-4.1-4.3l25-19.6c5.3-4.1,3.5-12.5-3-14.1l-98.2-24c-5-1.2-9.9,2.6-9.9,7.7L325,807.3c0,6.7,7.6,10.5,12.9,6.3
		l23.2-18.2c36.6,42,90.4,68.6,150.5,68.6c107.4,0,195-85.1,199.4-191.7C711.2,667.8,707.6,664,703,664z"/>
</g>
</svg>
