<?xml version="1.0" encoding="utf-8"?>
<!-- Generator: Adobe Illustrator 21.0.0, SVG Export Plug-In . SVG Version: 6.00 Build 0)  -->
<svg version="1.1" id="图层_1" xmlns="http://www.w3.org/2000/svg" xmlns:xlink="http://www.w3.org/1999/xlink" x="0px" y="0px"
	 viewBox="0 0 1024 1024" style="enable-background:new 0 0 1024 1024;" xml:space="preserve">
<style type="text/css">
	.st0{fill:none;}
</style>
<title>cloud server-o</title>
<desc>Created with Sketch.</desc>
<g>
	<path class="st0" d="M648,510H376v117h272V510z M456,602c-17.7,0-32-14.3-32-32c0-17.7,14.3-32,32-32c17.7,0,32,14.3,32,32
		C488,587.7,473.7,602,456,602z"/>
	<path class="st0" d="M376,800h272V683H376V800z M456,716c17.7,0,32,14.3,32,32s-14.3,32-32,32c-17.7,0-32-14.3-32-32
		S438.3,716,456,716z"/>
	<path d="M704,446H320c-4.4,0-8,3.6-8,8v402c0,4.4,3.6,8,8,8h384c4.4,0,8-3.6,8-8V454C712,449.6,708.4,446,704,446z M376,510h272
		v117H376V510z M648,800H376V683h272V800z"/>
	<circle cx="456" cy="748" r="32"/>
	<circle cx="456" cy="570" r="32"/>
	<path d="M811.4,368.9C765.6,248,648.9,162,512.2,162c-136.7,0-253.4,85.9-299.2,206.8C126.9,391.5,63.5,470.2,64,563.6
		C64.6,668,145.6,752.9,247.6,762c4.7,0.4,8.7-3.3,8.7-8v-60.4c0-4-3-7.4-7-7.9c-27-3.4-52.5-15.2-72.1-34.5
		c-24-23.5-37.2-55.1-37.2-88.6c0-28,9.1-54.4,26.2-76.4c16.7-21.4,40.2-36.9,66.1-43.7l37.9-10l13.9-36.7
		c8.6-22.8,20.6-44.2,35.7-63.5c14.9-19.2,32.6-36,52.4-50c41.1-28.9,89.5-44.2,140-44.2c50.5,0,98.9,15.3,140,44.3
		c19.9,14,37.5,30.8,52.4,50c15.1,19.3,27.1,40.7,35.7,63.5l13.8,36.6l37.8,10c54.2,14.4,92.1,63.7,92.1,120
		c0,33.6-13.2,65.1-37.2,88.6c-19.5,19.2-44.9,31.1-71.9,34.5c-4,0.5-6.9,3.9-6.9,7.9V754c0,4.7,4.1,8.4,8.8,8
		c101.7-9.2,182.5-94,183.2-198.2C960.6,470.4,897.3,391.7,811.4,368.9z"/>
</g>
</svg>
