<?xml version="1.0" encoding="utf-8"?>
<!-- Generator: Adobe Illustrator 21.0.0, SVG Export Plug-In . SVG Version: 6.00 Build 0)  -->
<svg version="1.1" id="图层_1" xmlns="http://www.w3.org/2000/svg" xmlns:xlink="http://www.w3.org/1999/xlink" x="0px" y="0px"
	 viewBox="0 0 1024 1024" style="enable-background:new 0 0 1024 1024;" xml:space="preserve">
<style type="text/css">
	.st0{fill:none;}
</style>
<title>cluster</title>
<desc>Created with Sketch.</desc>
<g>
	<path class="st0" d="M541.3,744h-58.7c-1.5,0-2.7,1.2-2.7,2.7v58.7c0,1.5,1.2,2.7,2.7,2.7h58.7c1.5,0,2.7-1.2,2.7-2.7v-58.7
		C544,745.2,542.8,744,541.3,744z"/>
	<path class="st0" d="M736,216H288v168h448V216z M400,340c-22.1,0-40-17.9-40-40s17.9-40,40-40c22.1,0,40,17.9,40,40
		S422.1,340,400,340z"/>
	<path class="st0" d="M253.3,744h-58.7c-1.5,0-2.7,1.2-2.7,2.7v58.7c0,1.5,1.2,2.7,2.7,2.7h58.7c1.5,0,2.7-1.2,2.7-2.7v-58.7
		C256,745.2,254.8,744,253.3,744z"/>
	<path class="st0" d="M829.3,744h-58.7c-1.5,0-2.7,1.2-2.7,2.7v58.7c0,1.5,1.2,2.7,2.7,2.7h58.7c1.5,0,2.7-1.2,2.7-2.7v-58.7
		C832,745.2,830.8,744,829.3,744z"/>
	<path d="M888,680h-54V540h-67H546v-92h238c8.8,0,16-7.2,16-16V168c0-8.8-7.2-16-16-16H240c-8.8,0-16,7.2-16,16v264
		c0,8.8,7.2,16,16,16h238v92H257h-67v140h-54c-4.4,0-8,3.6-8,8v176c0,4.4,3.6,8,8,8h176c4.4,0,8-3.6,8-8V688c0-4.4-3.6-8-8-8h-54
		v-72h220v72h-54c-4.4,0-8,3.6-8,8v176c0,4.4,3.6,8,8,8h176c4.4,0,8-3.6,8-8V688c0-4.4-3.6-8-8-8h-54v-72h220v72h-54
		c-4.4,0-8,3.6-8,8v176c0,4.4,3.6,8,8,8h176c4.4,0,8-3.6,8-8V688C896,683.6,892.4,680,888,680z M256,805.3c0,1.5-1.2,2.7-2.7,2.7
		h-58.7c-1.5,0-2.7-1.2-2.7-2.7v-58.7c0-1.5,1.2-2.7,2.7-2.7h58.7c1.5,0,2.7,1.2,2.7,2.7V805.3z M544,805.3c0,1.5-1.2,2.7-2.7,2.7
		h-58.7c-1.5,0-2.7-1.2-2.7-2.7v-58.7c0-1.5,1.2-2.7,2.7-2.7h58.7c1.5,0,2.7,1.2,2.7,2.7V805.3z M288,384V216h448v168H288z
		 M832,805.3c0,1.5-1.2,2.7-2.7,2.7h-58.7c-1.5,0-2.7-1.2-2.7-2.7v-58.7c0-1.5,1.2-2.7,2.7-2.7h58.7c1.5,0,2.7,1.2,2.7,2.7V805.3z"
		/>
	<circle cx="400" cy="300" r="40"/>
</g>
</svg>
