<?xml version="1.0" encoding="utf-8"?>
<!-- Generator: Adobe Illustrator 21.0.0, SVG Export Plug-In . SVG Version: 6.00 Build 0)  -->
<svg version="1.1" id="图层_1" xmlns="http://www.w3.org/2000/svg" xmlns:xlink="http://www.w3.org/1999/xlink" x="0px" y="0px"
	 viewBox="0 0 1024 1024" style="enable-background:new 0 0 1024 1024;" xml:space="preserve">
<style type="text/css">
	.st0{fill:none;}
</style>
<title>CodeSandbox-square-fill</title>
<desc>Created with Sketch.</desc>
<g>
	<path class="st0" d="M645.8,308h0.2l-134-77l-133.9,77h-0.2l0.4,0.2l-110,63.6v281.5L512,794l243.7-140.8V371.8l-110.1-63.6
		L645.8,308z M492.2,736.9L395.5,681v-94.5l-87.6-49.8V418.4l184.3,106.4V736.9z M716.1,537.1l-87,49.5v94.1l-97.3,56.2V525
		l184.3-106.5V537.1z M697.3,383.7L512.1,490.6l-185.2-107L418,331l93.9,53.9l94-54L697.3,383.7z"/>
	<polygon points="307.9,536.7 395.5,586.6 395.5,681 492.2,736.9 492.2,524.8 307.9,418.4 	"/>
	<path d="M880,112H144c-17.7,0-32,14.3-32,32v736c0,17.7,14.3,32,32,32h736c17.7,0,32-14.3,32-32V144C912,126.3,897.7,112,880,112z
		 M755.7,653.2L512,794L268.3,653.2V371.8l110-63.6l-0.4-0.2h0.2L512,231l134,77h-0.2l-0.3,0.2l110.1,63.6V653.2z"/>
	<polygon points="531.8,736.9 629.1,680.7 629.1,586.6 716.1,537.1 716.1,418.5 531.8,525 	"/>
	<polygon points="511.8,384.9 418,331 326.9,383.6 512.1,490.6 697.3,383.7 605.9,330.9 	"/>
</g>
</svg>
