<?xml version="1.0" encoding="utf-8"?>
<!-- Generator: Adobe Illustrator 21.0.0, SVG Export Plug-In . SVG Version: 6.00 Build 0)  -->
<svg version="1.1" id="图层_1" xmlns="http://www.w3.org/2000/svg" xmlns:xlink="http://www.w3.org/1999/xlink" x="0px" y="0px"
	 viewBox="0 0 1024 1024" style="enable-background:new 0 0 1024 1024;" xml:space="preserve">
<style type="text/css">
	.st0{fill:none;}
</style>
<title>code</title>
<desc>Created with Sketch.</desc>
<g>
	<path class="st0" d="M184,840h656V184H184V840z M523.5,617h185c4.1,0,7.5,3.6,7.5,8v48c0,4.4-3.4,8-7.5,8h-185
		c-4.1,0-7.5-3.6-7.5-8v-48C516,620.6,519.4,617,523.5,617z M308,610.3c0-2.3,1.1-4.6,2.9-6.1L420.7,512l-109.8-92.2
		c-1.9-1.5-2.9-3.7-2.9-6.1V351c0-6.8,7.9-10.5,13.1-6.1l192,160.9c3.8,3.2,3.8,9.1,0,12.3l-192,161c-5.2,4.4-13.1,0.7-13.1-6.1
		V610.3z"/>
	<path d="M516,673c0,4.4,3.4,8,7.5,8h185c4.1,0,7.5-3.6,7.5-8v-48c0-4.4-3.4-8-7.5-8h-185c-4.1,0-7.5,3.6-7.5,8V673z"/>
	<path d="M321.1,679.1l192-161c3.8-3.2,3.8-9.1,0-12.3l-192-160.9c-5.2-4.4-13.1-0.7-13.1,6.1v62.7c0,2.4,1,4.6,2.9,6.1L420.7,512
		l-109.8,92.2c-1.8,1.5-2.9,3.8-2.9,6.1V673C308,679.8,315.9,683.5,321.1,679.1z"/>
	<path d="M880,112H144c-17.7,0-32,14.3-32,32v736c0,17.7,14.3,32,32,32h736c17.7,0,32-14.3,32-32V144C912,126.3,897.7,112,880,112z
		 M840,840H184V184h656V840z"/>
</g>
</svg>
