<?xml version="1.0" encoding="utf-8"?>
<!-- Generator: Adobe Illustrator 21.0.0, SVG Export Plug-In . SVG Version: 6.00 Build 0)  -->
<svg version="1.1" id="图层_1" xmlns="http://www.w3.org/2000/svg" xmlns:xlink="http://www.w3.org/1999/xlink" x="0px" y="0px"
	 viewBox="0 0 1024 1024" style="enable-background:new 0 0 1024 1024;" xml:space="preserve">
<title>colum-height</title>
<desc>Created with Sketch.</desc>
<g>
	<path d="M840,836H184c-4.4,0-8,3.6-8,8v60c0,4.4,3.6,8,8,8h656c4.4,0,8-3.6,8-8v-60C848,839.6,844.4,836,840,836z"/>
	<path d="M840,112H184c-4.4,0-8,3.6-8,8v60c0,4.4,3.6,8,8,8h656c4.4,0,8-3.6,8-8v-60C848,115.6,844.4,112,840,112z"/>
	<path d="M610.8,378c6,0,9.4-7,5.7-11.7L515.7,238.7c-2.9-3.7-8.5-3.7-11.3,0L403.6,366.3c-3.7,4.7-0.4,11.7,5.7,11.7H476v268h-62.8
		c-6,0-9.4,7-5.7,11.7l100.8,127.5c2.9,3.7,8.5,3.7,11.3,0l100.8-127.5c3.7-4.7,0.4-11.7-5.7-11.7H548V378H610.8z"/>
</g>
</svg>
