<?xml version="1.0" encoding="utf-8"?>
<!-- Generator: Adobe Illustrator 21.0.0, SVG Export Plug-In . SVG Version: 6.00 Build 0)  -->
<svg version="1.1" id="图层_1" xmlns="http://www.w3.org/2000/svg" xmlns:xlink="http://www.w3.org/1999/xlink" x="0px" y="0px"
	 viewBox="0 0 1024 1024" style="enable-background:new 0 0 1024 1024;" xml:space="preserve">
<style type="text/css">
	.st0{fill:none;}
</style>
<title>credit card-fill</title>
<desc>Created with Sketch.</desc>
<g>
	<path class="st0" d="M651,728h165c4.4,0,8-3.6,8-8v-72c0-4.4-3.6-8-8-8H651c-4.4,0-8,3.6-8,8v72C643,724.4,646.6,728,651,728z"/>
	<path d="M928,160H96c-17.7,0-32,14.3-32,32v160h896V192C960,174.3,945.7,160,928,160z"/>
	<path d="M64,832c0,17.7,14.3,32,32,32h832c17.7,0,32-14.3,32-32V440H64V832z M643,648c0-4.4,3.6-8,8-8h165c4.4,0,8,3.6,8,8v72
		c0,4.4-3.6,8-8,8H651c-4.4,0-8-3.6-8-8V648z"/>
</g>
</svg>
