<?xml version="1.0" encoding="utf-8"?>
<!-- Generator: Adobe Illustrator 21.0.0, SVG Export Plug-In . SVG Version: 6.00 Build 0)  -->
<svg version="1.1" id="图层_1" xmlns="http://www.w3.org/2000/svg" xmlns:xlink="http://www.w3.org/1999/xlink" x="0px" y="0px"
	 viewBox="0 0 1024 1024" style="enable-background:new 0 0 1024 1024;" xml:space="preserve">
<style type="text/css">
	.st0{fill:none;}
</style>
<title>crown-fill</title>
<desc>Created with Sketch.</desc>
<g>
	<path class="st0" d="M512,509c-62.1,0-112.6,50.5-112.6,112.6S449.9,734.2,512,734.2s112.6-50.5,112.6-112.6S574.1,509,512,509z
		 M512,669.9c-26.6,0-48.2-21.6-48.2-48.3c0-26.6,21.6-48.3,48.2-48.3s48.2,21.6,48.2,48.3C560.2,648.2,538.6,669.9,512,669.9z"/>
	<path d="M899.6,276.5L705,396.4L518.4,147.5c-3.2-4.3-9.6-4.3-12.9,0L319,396.4L124.3,276.5c-5.7-3.5-13.1,1.2-12.2,7.9L188.5,865
		c1.1,7.9,7.9,14,16,14h615.1c8,0,14.9-6,15.9-14l76.4-580.6C912.7,277.7,905.4,273,899.6,276.5z M512,734.2
		c-62.1,0-112.6-50.5-112.6-112.6S449.9,509,512,509s112.6,50.5,112.6,112.6S574.1,734.2,512,734.2z"/>
	<path d="M512,573.3c-26.6,0-48.2,21.6-48.2,48.3c0,26.6,21.6,48.3,48.2,48.3s48.2-21.6,48.2-48.3C560.2,595,538.6,573.3,512,573.3z
		"/>
</g>
</svg>
