<?xml version="1.0" encoding="utf-8"?>
<!-- Generator: Adobe Illustrator 21.0.0, SVG Export Plug-In . SVG Version: 6.00 Build 0)  -->
<svg version="1.1" id="图层_1" xmlns="http://www.w3.org/2000/svg" xmlns:xlink="http://www.w3.org/1999/xlink" x="0px" y="0px"
	 viewBox="0 0 1024 1024" style="enable-background:new 0 0 1024 1024;" xml:space="preserve">
<style type="text/css">
	.st0{fill:none;}
</style>
<title>database-fill</title>
<desc>Created with Sketch.</desc>
<g>
	<circle class="st0" cx="288" cy="832" r="40"/>
	<circle class="st0" cx="288" cy="512" r="40"/>
	<circle class="st0" cx="288" cy="192" r="40"/>
	<path d="M832,64H192c-17.7,0-32,14.3-32,32v224h704V96C864,78.3,849.7,64,832,64z M288,232c-22.1,0-40-17.9-40-40s17.9-40,40-40
		s40,17.9,40,40S310.1,232,288,232z"/>
	<path d="M160,928c0,17.7,14.3,32,32,32h640c17.7,0,32-14.3,32-32V704H160V928z M288,792c22.1,0,40,17.9,40,40s-17.9,40-40,40
		s-40-17.9-40-40S265.9,792,288,792z"/>
	<path d="M160,640h704V384H160V640z M288,472c22.1,0,40,17.9,40,40c0,22.1-17.9,40-40,40s-40-17.9-40-40
		C248,489.9,265.9,472,288,472z"/>
</g>
</svg>
