<?xml version="1.0" encoding="utf-8"?>
<!-- Generator: Adobe Illustrator 21.0.0, SVG Export Plug-In . SVG Version: 6.00 Build 0)  -->
<svg version="1.1" id="图层_1" xmlns="http://www.w3.org/2000/svg" xmlns:xlink="http://www.w3.org/1999/xlink" x="0px" y="0px"
	 viewBox="0 0 1024 1024" style="enable-background:new 0 0 1024 1024;" xml:space="preserve">
<style type="text/css">
	.st0{fill:none;}
</style>
<title>delete team</title>
<desc>Created with Sketch.</desc>
<g>
	<path class="st0" d="M622.6,356c-34.3,0.3-66.4,14.1-90.4,38.7c-22.9,23.5-36,55.2-36.3,88c-0.3,34.7,13,67.3,37.5,91.8
		c24.2,24.2,56.3,37.5,90.5,37.5c34.2,0,66.3-13.3,90.5-37.5c24.2-24.2,37.5-56.3,37.5-90.5c0-34.6-13.6-67.1-38.4-91.4
		C689.4,368.9,656.5,355.7,622.6,356z"/>
	<path d="M888,784H664c-4.4,0-8,3.6-8,8v48c0,4.4,3.6,8,8,8h224c4.4,0,8-3.6,8-8v-48C896,787.6,892.4,784,888,784z"/>
	<path d="M373.5,510.4c-0.9-8.7-1.4-17.5-1.4-26.4c0-15.9,1.5-31.4,4.3-46.5c0.7-3.6-1.2-7.3-4.5-8.8c-13.6-6.1-26.1-14.5-36.9-25.1
		c-25.8-25.2-39.7-59.3-38.7-95.4c0.9-32.1,13.8-62.6,36.3-85.6c24.7-25.3,57.9-39.1,93.2-38.7c31.9,0.3,62.7,12.6,86,34.4
		c7.9,7.4,14.7,15.6,20.4,24.4c2,3.1,5.9,4.4,9.3,3.2c17.6-6.1,36.2-10.4,55.3-12.4c5.6-0.6,8.8-6.6,6.3-11.6
		c-32.5-64.3-98.9-108.7-175.7-109.9c-110.9-1.7-203.3,89.2-203.3,199.9c0,62.8,28.9,118.8,74.2,155.5c-31.8,14.7-61.1,35-86.5,60.4
		c-54.8,54.7-85.8,126.9-87.8,204c-0.1,4.5,3.5,8.2,8,8.2h56.1c4.3,0,7.9-3.4,8-7.7c1.9-58,25.4-112.3,66.7-153.5
		c29.4-29.4,65.4-49.8,104.7-59.7C371.4,518.1,374,514.4,373.5,510.4z"/>
	<path d="M824,484c0-109.4-87.9-198.3-196.9-200c-110.8-1.7-203.1,89.2-203.1,200c0,62.8,29,118.8,74.2,155.5
		c-31.7,14.7-60.9,34.9-86.4,60.4C357,754.6,326,826.8,324,903.8c-0.1,4.5,3.5,8.2,8,8.2h56c4.3,0,7.9-3.4,8-7.7
		c1.9-58,25.4-112.3,66.7-153.5C505.8,707.7,563,684,624,684h0C734.4,684,824,594.5,824,484z M714.5,574.5
		C690.3,598.7,658.2,612,624,612c-34.2,0-66.3-13.3-90.5-37.5c-24.5-24.5-37.8-57.1-37.5-91.8c0.3-32.8,13.4-64.5,36.3-88
		c24-24.6,56.1-38.3,90.4-38.7c33.9-0.3,66.8,12.9,91,36.6c24.8,24.3,38.4,56.8,38.4,91.4C752,518.2,738.7,550.3,714.5,574.5z"/>
</g>
</svg>
