<?xml version="1.0" encoding="utf-8"?>
<!-- Generator: Adobe Illustrator 21.0.0, SVG Export Plug-In . SVG Version: 6.00 Build 0)  -->
<svg version="1.1" id="图层_1" xmlns="http://www.w3.org/2000/svg" xmlns:xlink="http://www.w3.org/1999/xlink" x="0px" y="0px"
	 viewBox="0 0 1024 1024" style="enable-background:new 0 0 1024 1024;" xml:space="preserve">
<style type="text/css">
	.st0{fill:none;}
</style>
<title>部署单元</title>
<desc>Created with Sketch.</desc>
<g>
	<path class="st0" d="M522,463.8L522,463.8C522,463.8,522,463.8,522,463.8L522,463.8z"/>
	<path class="st0" d="M167.6,748.5c-22.8,13.2-30.7,42.6-17.5,65.5c13.2,22.9,42.4,30.8,65.2,17.6c22.8-13.2,30.7-42.6,17.5-65.5
		C219.6,743.2,190.4,735.3,167.6,748.5z"/>
	<circle class="st0" cx="512" cy="234" r="48"/>
	<polygon class="st0" points="390,539.8 390,680.2 512,750.5 634,680.2 634,539.8 512,469.5 	"/>
	<path class="st0" d="M856.4,748.5c-22.8-13.2-52.1-5.4-65.2,17.6c-13.2,22.9-5.4,52.3,17.5,65.5c22.8,13.2,52.1,5.4,65.2-17.6
		C887.1,791.1,879.3,761.8,856.4,748.5z"/>
	<path d="M888.3,693.2c-42.5-24.6-94.3-18-129.2,12.8l-53-30.7V523.6c0-15.7-8.4-30.3-22-38.1l-136-78.3v-67.1
		c44.2-15,76-56.8,76-106.1c0-61.9-50.1-112-112-112c-61.9,0-112,50.1-112,112c0,49.3,31.8,91.1,76,106.1v67.1l-136,78.3
		c-13.6,7.8-22,22.4-22,38.1v151.6l-53,30.7c-34.9-30.8-86.8-37.4-129.2-12.8C82.4,724.1,64.2,792.5,94.9,846
		c30.8,53.5,98.9,71.9,152.2,41c42.5-24.6,62.7-73,53.6-118.8l48.7-28.3L490,820.9c6.8,3.9,14.4,5.9,22,5.9c7.6,0,15.2-2,22-5.9
		L674.5,740l48.7,28.3c-9.1,45.7,11.2,94.2,53.6,118.8c53.3,30.9,121.5,12.6,152.2-41C959.8,792.5,941.6,724.1,888.3,693.2z
		 M215.3,831.6c-22.8,13.2-52.1,5.4-65.2-17.6c-13.2-22.9-5.4-52.3,17.5-65.5c22.8-13.2,52.1-5.4,65.2,17.6
		C246,789,238.2,818.4,215.3,831.6z M522,463.8L522,463.8C522,463.8,522,463.8,522,463.8L522,463.8z M464,234c0-26.5,21.5-48,48-48
		s48,21.5,48,48s-21.5,48-48,48S464,260.5,464,234z M634,680.2l-122,70.3l-122-70.3V539.8l122-70.3l122,70.3V680.2z M873.9,814.1
		c-13.2,22.9-42.4,30.8-65.2,17.6c-22.8-13.2-30.7-42.6-17.5-65.5c13.2-22.9,42.4-30.8,65.2-17.6
		C879.3,761.8,887.1,791.1,873.9,814.1z"/>
</g>
</svg>
