<?xml version="1.0" encoding="utf-8"?>
<!-- Generator: Adobe Illustrator 21.0.0, SVG Export Plug-In . SVG Version: 6.00 Build 0)  -->
<svg version="1.1" id="图层_1" xmlns="http://www.w3.org/2000/svg" xmlns:xlink="http://www.w3.org/1999/xlink" x="0px" y="0px"
	 viewBox="0 0 1024 1024" style="enable-background:new 0 0 1024 1024;" xml:space="preserve">
<style type="text/css">
	.st0{fill:none;}
</style>
<title>desktop</title>
<desc>Created with Sketch.</desc>
<g>
	<rect x="136" y="212" class="st0" width="752" height="416"/>
	<path d="M928,140H96c-17.7,0-32,14.3-32,32v496c0,17.7,14.3,32,32,32h380v112H304c-8.8,0-16,7.2-16,16v48c0,4.4,3.6,8,8,8h432
		c4.4,0,8-3.6,8-8v-48c0-8.8-7.2-16-16-16H548V700h380c17.7,0,32-14.3,32-32V172C960,154.3,945.7,140,928,140z M888,628H136V212h752
		V628z"/>
</g>
</svg>
