<?xml version="1.0" encoding="utf-8"?>
<!-- Generator: Adobe Illustrator 21.0.0, SVG Export Plug-In . SVG Version: 6.00 Build 0)  -->
<svg version="1.1" id="图层_1" xmlns="http://www.w3.org/2000/svg" xmlns:xlink="http://www.w3.org/1999/xlink" x="0px" y="0px"
	 viewBox="0 0 1024 1024" style="enable-background:new 0 0 1024 1024;" xml:space="preserve">
<style type="text/css">
	.st0{fill:none;}
</style>
<title>detail</title>
<desc>Created with Sketch.</desc>
<g>
	<path class="st0" d="M184,840h656V184H184V840z M484,344c0-4.4,3.6-8,8-8h184c4.4,0,8,3.6,8,8v48c0,4.4-3.6,8-8,8H492
		c-4.4,0-8-3.6-8-8V344z M484,488c0-4.4,3.6-8,8-8h184c4.4,0,8,3.6,8,8v48c0,4.4-3.6,8-8,8H492c-4.4,0-8-3.6-8-8V488z M484,632
		c0-4.4,3.6-8,8-8h184c4.4,0,8,3.6,8,8v48c0,4.4-3.6,8-8,8H492c-4.4,0-8-3.6-8-8V632z M380,328c22.1,0,40,17.9,40,40s-17.9,40-40,40
		c-22.1,0-40-17.9-40-40S357.9,328,380,328z M380,472c22.1,0,40,17.9,40,40c0,22.1-17.9,40-40,40c-22.1,0-40-17.9-40-40
		C340,489.9,357.9,472,380,472z M380,616c22.1,0,40,17.9,40,40s-17.9,40-40,40c-22.1,0-40-17.9-40-40S357.9,616,380,616z"/>
	<path d="M880,112H144c-17.7,0-32,14.3-32,32v736c0,17.7,14.3,32,32,32h736c17.7,0,32-14.3,32-32V144C912,126.3,897.7,112,880,112z
		 M840,840H184V184h656V840z"/>
	<path d="M492,400h184c4.4,0,8-3.6,8-8v-48c0-4.4-3.6-8-8-8H492c-4.4,0-8,3.6-8,8v48C484,396.4,487.6,400,492,400z"/>
	<path d="M492,544h184c4.4,0,8-3.6,8-8v-48c0-4.4-3.6-8-8-8H492c-4.4,0-8,3.6-8,8v48C484,540.4,487.6,544,492,544z"/>
	<path d="M492,688h184c4.4,0,8-3.6,8-8v-48c0-4.4-3.6-8-8-8H492c-4.4,0-8,3.6-8,8v48C484,684.4,487.6,688,492,688z"/>
	<circle cx="380" cy="368" r="40"/>
	<circle cx="380" cy="512" r="40"/>
	<circle cx="380" cy="656" r="40"/>
</g>
</svg>
