<?xml version="1.0" encoding="utf-8"?>
<!-- Generator: Adobe Illustrator 21.0.0, SVG Export Plug-In . SVG Version: 6.00 Build 0)  -->
<svg version="1.1" id="图层_1" xmlns="http://www.w3.org/2000/svg" xmlns:xlink="http://www.w3.org/1999/xlink" x="0px" y="0px"
	 viewBox="0 0 1024 1024" style="enable-background:new 0 0 1024 1024;" xml:space="preserve">
<style type="text/css">
	.st0{fill:none;}
</style>
<title>detail-fill</title>
<desc>Created with Sketch.</desc>
<g>
	<circle class="st0" cx="380" cy="512" r="40"/>
	<circle class="st0" cx="380" cy="368" r="40"/>
	<circle class="st0" cx="380" cy="656" r="40"/>
	<path class="st0" d="M676,624H492c-4.4,0-8,3.6-8,8v48c0,4.4,3.6,8,8,8h184c4.4,0,8-3.6,8-8v-48C684,627.6,680.4,624,676,624z"/>
	<path class="st0" d="M676,336H492c-4.4,0-8,3.6-8,8v48c0,4.4,3.6,8,8,8h184c4.4,0,8-3.6,8-8v-48C684,339.6,680.4,336,676,336z"/>
	<path class="st0" d="M676,480H492c-4.4,0-8,3.6-8,8v48c0,4.4,3.6,8,8,8h184c4.4,0,8-3.6,8-8v-48C684,483.6,680.4,480,676,480z"/>
	<path d="M880,112H144c-17.7,0-32,14.3-32,32v736c0,17.7,14.3,32,32,32h736c17.7,0,32-14.3,32-32V144C912,126.3,897.7,112,880,112z
		 M380,696c-22.1,0-40-17.9-40-40s17.9-40,40-40c22.1,0,40,17.9,40,40S402.1,696,380,696z M380,552c-22.1,0-40-17.9-40-40
		c0-22.1,17.9-40,40-40c22.1,0,40,17.9,40,40C420,534.1,402.1,552,380,552z M380,408c-22.1,0-40-17.9-40-40s17.9-40,40-40
		c22.1,0,40,17.9,40,40S402.1,408,380,408z M684,680c0,4.4-3.6,8-8,8H492c-4.4,0-8-3.6-8-8v-48c0-4.4,3.6-8,8-8h184c4.4,0,8,3.6,8,8
		V680z M684,536c0,4.4-3.6,8-8,8H492c-4.4,0-8-3.6-8-8v-48c0-4.4,3.6-8,8-8h184c4.4,0,8,3.6,8,8V536z M684,392c0,4.4-3.6,8-8,8H492
		c-4.4,0-8-3.6-8-8v-48c0-4.4,3.6-8,8-8h184c4.4,0,8,3.6,8,8V392z"/>
</g>
</svg>
