<?xml version="1.0" encoding="utf-8"?>
<!-- Generator: Adobe Illustrator 21.0.0, SVG Export Plug-In . SVG Version: 6.00 Build 0)  -->
<svg version="1.1" id="图层_1" xmlns="http://www.w3.org/2000/svg" xmlns:xlink="http://www.w3.org/1999/xlink" x="0px" y="0px"
	 viewBox="0 0 1024 1024" style="enable-background:new 0 0 1024 1024;" xml:space="preserve">
<style type="text/css">
	.st0{fill:none;}
</style>
<title>down-circle-o</title>
<desc>Created with Sketch.</desc>
<g>
	<path class="st0" d="M512,140c-205.4,0-372,166.6-372,372s166.6,372,372,372s372-166.6,372-372S717.4,140,512,140z M696.5,417.7
		l-178,246c-3.2,4.4-9.7,4.4-12.9,0l-178-246c-3.8-5.3,0-12.7,6.5-12.7h46.9c10.2,0,19.9,4.9,25.9,13.2L512,563.6l105.2-145.4
		c6-8.3,15.6-13.2,25.9-13.2H690C696.5,405,700.3,412.4,696.5,417.7z"/>
	<path d="M690,405h-46.9c-10.2,0-19.9,4.9-25.9,13.2L512,563.6L406.8,418.2c-6-8.3-15.6-13.2-25.9-13.2H334
		c-6.5,0-10.3,7.4-6.5,12.7l178,246c3.2,4.4,9.7,4.4,12.9,0l178-246C700.3,412.4,696.5,405,690,405z"/>
	<path d="M512,64C264.6,64,64,264.6,64,512s200.6,448,448,448s448-200.6,448-448S759.4,64,512,64z M512,884
		c-205.4,0-372-166.6-372-372s166.6-372,372-372s372,166.6,372,372S717.4,884,512,884z"/>
</g>
</svg>
