<?xml version="1.0" encoding="utf-8"?>
<!-- Generator: Adobe Illustrator 21.0.0, SVG Export Plug-In . SVG Version: 6.00 Build 0)  -->
<svg version="1.1" id="图层_1" xmlns="http://www.w3.org/2000/svg" xmlns:xlink="http://www.w3.org/1999/xlink" x="0px" y="0px"
	 viewBox="0 0 1024 1024" style="enable-background:new 0 0 1024 1024;" xml:space="preserve">
<style type="text/css">
	.st0{fill:none;}
</style>
<title>eye</title>
<desc>Created with Sketch.</desc>
<g>
	<path class="st0" d="M512,258c-161.3,0-279.4,81.8-362.7,254C232.6,684.2,350.7,766,512,766c161.4,0,279.5-81.8,362.7-254
		C791.4,339.8,673.3,258,512,258z M508,688c-97.2,0-176-78.8-176-176s78.8-176,176-176s176,78.8,176,176S605.2,688,508,688z"/>
	<circle class="st0" cx="508" cy="512" r="112"/>
	<path d="M942.2,486.2C847.4,286.5,704.1,186,512,186c-192.2,0-335.4,100.5-430.2,300.3c-7.7,16.2-7.7,35.2,0,51.5
		C176.6,737.5,319.9,838,512,838c192.2,0,335.4-100.5,430.2-300.3C949.9,521.5,949.9,502.7,942.2,486.2z M512,766
		c-161.3,0-279.4-81.8-362.7-254C232.6,339.8,350.7,258,512,258c161.3,0,279.4,81.8,362.7,254C791.5,684.2,673.4,766,512,766z"/>
	<path d="M508,336c-97.2,0-176,78.8-176,176s78.8,176,176,176s176-78.8,176-176S605.2,336,508,336z M508,624
		c-61.9,0-112-50.1-112-112s50.1-112,112-112s112,50.1,112,112S569.9,624,508,624z"/>
</g>
</svg>
