<?xml version="1.0" encoding="utf-8"?>
<!-- Generator: Adobe Illustrator 21.0.0, SVG Export Plug-In . SVG Version: 6.00 Build 0)  -->
<svg version="1.1" id="图层_1" xmlns="http://www.w3.org/2000/svg" xmlns:xlink="http://www.w3.org/1999/xlink" x="0px" y="0px"
	 viewBox="0 0 1024 1024" style="enable-background:new 0 0 1024 1024;" xml:space="preserve">
<title>fall</title>
<desc>Created with Sketch.</desc>
<path d="M925.9,804l-24-199.2c-0.8-6.6-8.9-9.4-13.6-4.7L829,659.5L557.7,388.3c-6.3-6.2-16.4-6.2-22.6,0L433.3,490L156.6,213.3
	c-3.1-3.1-8.2-3.1-11.3,0l-45,45.2c-3.1,3.1-3.1,8.2,0,11.3L422,591.7c6.2,6.3,16.4,6.3,22.6,0L546.4,490l226.1,226l-59.3,59.3
	c-4.7,4.7-1.9,12.8,4.7,13.6l199.2,24C922.2,813.6,926.6,809.2,925.9,804z"/>
</svg>
