<?xml version="1.0" encoding="utf-8"?>
<!-- Generator: Adobe Illustrator 21.0.0, SVG Export Plug-In . SVG Version: 6.00 Build 0)  -->
<svg version="1.1" id="图层_1" xmlns="http://www.w3.org/2000/svg" xmlns:xlink="http://www.w3.org/1999/xlink" x="0px" y="0px"
	 viewBox="0 0 1024 1024" style="enable-background:new 0 0 1024 1024;" xml:space="preserve">
<title>file sync</title>
<desc>Created with Sketch.</desc>
<g>
	<path d="M296,256c-4.4,0-8,3.6-8,8v48c0,4.4,3.6,8,8,8h384c4.4,0,8-3.6,8-8v-48c0-4.4-3.6-8-8-8H296z"/>
	<path d="M488,456v-48c0-4.4-3.6-8-8-8H296c-4.4,0-8,3.6-8,8v48c0,4.4,3.6,8,8,8h184C484.4,464,488,460.4,488,456z"/>
	<path d="M440,852H208V148h560v344c0,4.4,3.6,8,8,8h56c4.4,0,8-3.6,8-8V108c0-17.7-14.3-32-32-32H168c-17.7,0-32,14.3-32,32v784
		c0,17.7,14.3,32,32,32h272c4.4,0,8-3.6,8-8v-56C448,855.6,444.4,852,440,852z"/>
	<path d="M544.1,736.4c1.8-34.5,16.2-66.8,40.8-91.4c26.2-26.2,62-41,99.1-41c37.4,0,72.6,14.6,99.1,41c3.2,3.2,6.3,6.6,9.2,10.1
		L769.2,673c-5.3,4.1-3.5,12.5,3,14.1l93.3,22.5c5,1.2,9.8-2.6,9.9-7.7l0.6-95.4c0-6.7-7.6-10.5-12.9-6.4l-20.3,15.8
		C805.4,569.6,748.1,540,684,540c-109.9,0-199.6,86.9-204,195.7c-0.2,4.5,3.5,8.3,8,8.3h48.1C540.4,744,543.9,740.7,544.1,736.4z"/>
	<path d="M880,744h-48.1c-4.3,0-7.8,3.3-8,7.6c-1.8,34.5-16.2,66.8-40.8,91.4c-26.2,26.2-62,41-99.1,41c-37.4,0-72.6-14.6-99.1-41
		c-3.2-3.2-6.3-6.6-9.2-10.1l23.1-17.9c5.3-4.1,3.5-12.5-3-14.1l-93.3-22.5c-5-1.2-9.8,2.6-9.9,7.7l-0.6,95.4
		c0,6.7,7.6,10.5,12.9,6.4l20.3-15.8C562.6,918.4,619.9,948,684,948c109.9,0,199.6-86.9,204-195.7C888.2,747.8,884.5,744,880,744z"
		/>
</g>
</svg>
