<?xml version="1.0" encoding="UTF-8"?>
<svg width="1024px" height="1024px" viewBox="0 0 1024 1024" version="1.1" xmlns="http://www.w3.org/2000/svg" xmlns:xlink="http://www.w3.org/1999/xlink">
    <!-- Generator: Sketch 50.2 (55047) - http://www.bohemiancoding.com/sketch -->
    <title>file-excel-fill</title>
    <desc>Created with Sketch.</desc>
    <defs></defs>
    <g id="file-excel-fill" stroke="none" stroke-width="1" fill="none" fill-rule="evenodd">
        <path d="M854.6,288.7 C860.6,294.7 864,302.8 864,311.3 L864,928 C864,945.7 849.7,960 832,960 L192,960 C174.3,960 160,945.7 160,928 L160,96 C160,78.3 174.3,64 192,64 L616.7,64 C625.2,64 633.4,67.4 639.4,73.4 L854.6,288.7 Z M790.2,326 L602,137.8 L602,326 L790.2,326 Z M575.341034,477.838532 L514.125169,580.145952 L452.286448,477.79451 C450.113476,474.197946 446.217557,472 442.015524,472 L403.579031,472 C401.311612,472 399.090591,472.642399 397.173259,473.852779 C391.569104,477.390589 389.894,484.801617 393.43181,490.405772 L475.765349,620.828243 L392.315995,753.614847 C391.113919,755.527619 390.476202,757.740867 390.476202,760 C390.476202,766.627417 395.848785,772 402.476202,772 L436.941676,772 C441.100828,772 444.9634,769.846344 447.149812,766.308244 L509.856806,664.834439 L572.147816,766.279184 C574.330513,769.833841 578.202553,772 582.373853,772 L619.860318,772 C622.15925,772 624.409799,771.339635 626.344246,770.097459 C631.920919,766.516485 633.538752,759.092745 629.957778,753.516072 L546.126806,622.965602 L631.423227,490.496511 C632.670568,488.559335 633.333859,486.304021 633.333859,484 C633.333859,477.372583 627.961276,472 621.333859,472 L585.638428,472 C581.418087,472 577.507992,474.216989 575.341034,477.838532 Z" id="Combined-Shape" fill="#000000" fill-rule="nonzero"></path>
    </g>
</svg>