<?xml version="1.0" encoding="UTF-8"?>
<svg width="1024px" height="1024px" viewBox="0 0 1024 1024" version="1.1" xmlns="http://www.w3.org/2000/svg" xmlns:xlink="http://www.w3.org/1999/xlink">
    <!-- Generator: Sketch 50.2 (55047) - http://www.bohemiancoding.com/sketch -->
    <title>file-unknown-fill</title>
    <desc>Created with Sketch.</desc>
    <defs></defs>
    <g id="file-unknown-fill" stroke="none" stroke-width="1" fill="none" fill-rule="evenodd">
        <g id="file-unknown" transform="translate(160.000000, 64.000000)" fill="#000000" fill-rule="nonzero">
            <path d="M694.6,224.7 C700.6,230.7 704,238.8 704,247.3 L704,864 C704,881.7 689.7,896 672,896 L32,896 C14.3,896 0,881.7 0,864 L0,32 C0,14.3 14.3,0 32,0 L456.7,0 C465.2,0 473.4,3.4 479.4,9.4 L694.6,224.7 Z M630.2,262 L442,73.8 L442,262 L630.2,262 Z M242,485 C242,490.4 246.4,494.5 251.8,494.5 L284.2,494.5 C289.6,494.5 294,490.3 294,485.1 C294,456.9 319.8,433.5 352,433.5 C384.2,433.5 410,456.9 410,485 C410,510.3 389,532.2 360.7,535.9 C341.4,538.7 326.2,556.2 326,576 L326,608 C326,613.5 330.5,618 336,618 L368,618 C373.5,618 378,613.5 378,608 L378,595.8 C378,589.8 382,584.3 387.7,582.5 C432.3,568.1 462.7,528.5 462,483.6 C461.2,428.1 412.8,382.8 353.5,382 C292.1,381.3 242,427.6 242,485 Z M352,712 C369.673112,712 384,697.673112 384,680 C384,662.326888 369.673112,648 352,648 C334.326888,648 320,662.326888 320,680 C320,697.673112 334.326888,712 352,712 Z" id="Combined-Shape"></path>
        </g>
    </g>
</svg>