<?xml version="1.0" encoding="utf-8"?>
<!-- Generator: Adobe Illustrator 21.0.0, SVG Export Plug-In . SVG Version: 6.00 Build 0)  -->
<svg version="1.1" id="图层_1" xmlns="http://www.w3.org/2000/svg" xmlns:xlink="http://www.w3.org/1999/xlink" x="0px" y="0px"
	 viewBox="0 0 1024 1024" style="enable-background:new 0 0 1024 1024;" xml:space="preserve">
<style type="text/css">
	.st0{fill:none;}
</style>
<title>file-excel</title>
<desc>Created with Sketch.</desc>
<g>
	<path class="st0" d="M534,352V136H232v752h560V394H576C552.8,394,534,375.2,534,352z M585.6,472h35.7c6.6,0,12,5.4,12,12
		c0,2.3-0.7,4.6-1.9,6.5L546.1,623L630,753.5c3.6,5.6,2,13-3.6,16.6c-1.9,1.2-4.2,1.9-6.5,1.9h-37.5c-4.2,0-8-2.2-10.2-5.7
		l-62.3-101.4l-62.7,101.5c-2.2,3.5-6,5.7-10.2,5.7h-34.5c-6.6,0-12-5.4-12-12c0-2.3,0.6-4.5,1.8-6.4l83.4-132.8l-82.3-130.4
		c-3.5-5.6-1.9-13,3.7-16.6c1.9-1.2,4.1-1.9,6.4-1.9H442c4.2,0,8.1,2.2,10.3,5.8l61.8,102.4l61.2-102.3
		C577.5,474.2,581.4,472,585.6,472z"/>
	<polygon class="st0" points="602,326 790.2,326 602,137.8 	"/>
	<path d="M854.6,288.6L639.4,73.4c-6-6-14.1-9.4-22.6-9.4H192c-17.7,0-32,14.3-32,32v832c0,17.7,14.3,32,32,32h640
		c17.7,0,32-14.3,32-32V311.3C864,302.8,860.6,294.6,854.6,288.6z M790.2,326H602V137.8L790.2,326z M792,888H232V136h302v216
		c0,23.2,18.8,42,42,42h216V888z"/>
	<path d="M514.1,580.1l-61.8-102.4c-2.2-3.6-6.1-5.8-10.3-5.8h-38.4c-2.3,0-4.5,0.6-6.4,1.9c-5.6,3.5-7.3,10.9-3.7,16.6l82.3,130.4
		l-83.4,132.8c-1.2,1.9-1.8,4.1-1.8,6.4c0,6.6,5.4,12,12,12h34.5c4.2,0,8-2.2,10.2-5.7l62.7-101.5l62.3,101.4
		c2.2,3.6,6.1,5.7,10.2,5.7h37.5c2.3,0,4.5-0.7,6.5-1.9c5.6-3.6,7.2-11,3.6-16.6L546.1,623l85.3-132.5c1.2-1.9,1.9-4.2,1.9-6.5
		c0-6.6-5.4-12-12-12h-35.7c-4.2,0-8.1,2.2-10.3,5.8L514.1,580.1z"/>
</g>
</svg>
