<?xml version="1.0" encoding="utf-8"?>
<!-- Generator: Adobe Illustrator 21.0.0, SVG Export Plug-In . SVG Version: 6.00 Build 0)  -->
<svg version="1.1" id="图层_1" xmlns="http://www.w3.org/2000/svg" xmlns:xlink="http://www.w3.org/1999/xlink" x="0px" y="0px"
	 viewBox="0 0 1024 1024" style="enable-background:new 0 0 1024 1024;" xml:space="preserve">
<style type="text/css">
	.st0{fill:none;}
</style>
<title>file-copy</title>
<desc>Created with Sketch.</desc>
<g>
	<path class="st0" d="M232,706h142c22.1,0,40,17.9,40,40v142h250V264H232V706z"/>
	<polygon class="st0" points="350,856.2 350,770 263.9,770 	"/>
	<path d="M832,64H296c-4.4,0-8,3.6-8,8v56c0,4.4,3.6,8,8,8h496v688c0,4.4,3.6,8,8,8h56c4.4,0,8-3.6,8-8V96C864,78.3,849.7,64,832,64
		z"/>
	<path d="M704,192H192c-17.7,0-32,14.3-32,32v530.7c0,8.5,3.4,16.6,9.4,22.6l173.3,173.3c2.2,2.2,4.7,4,7.4,5.5v1.9h4.2
		c3.5,1.3,7.2,2,11,2H704c17.7,0,32-14.3,32-32V224C736,206.3,721.7,192,704,192z M350,856.2L263.9,770H350V856.2z M664,888H414V746
		c0-22.1-17.9-40-40-40H232V264h432V888z"/>
</g>
</svg>
