<?xml version="1.0" encoding="utf-8"?>
<!-- Generator: Adobe Illustrator 21.0.0, SVG Export Plug-In . SVG Version: 6.00 Build 0)  -->
<svg version="1.1" id="图层_1" xmlns="http://www.w3.org/2000/svg" xmlns:xlink="http://www.w3.org/1999/xlink" x="0px" y="0px"
	 viewBox="0 0 1024 1024" style="enable-background:new 0 0 1024 1024;" xml:space="preserve">
<style type="text/css">
	.st0{fill:none;}
</style>
<title>file-markdown</title>
<desc>Created with Sketch.</desc>
<g>
	<path class="st0" d="M534,352V136H232v752h560V394H576C552.8,394,534,375.2,534,352z M606.3,474H641c6.6,0,12,5.4,12,12v272
		c0,6.6-5.4,12-12,12h-27.3c-6.6,0-12-5.4-12-12V581.6l-66.8,150.6c-1.9,4.3-6.2,7.1-11,7.1h-24.1c-4.7,0-9-2.8-11-7.1l-66.8-150.2
		V758c0,6.6-5.4,12-12,12H383c-6.6,0-12-5.4-12-12V486c0-6.6,5.4-12,12-12h35c4.8,0,9.1,2.8,11,7.2l83.1,191l83.1-191
		C597.2,476.8,601.5,474,606.3,474z"/>
	<polygon class="st0" points="602,326 790.2,326 602,137.8 	"/>
	<path d="M854.6,288.6L639.4,73.4c-6-6-14.1-9.4-22.6-9.4H192c-17.7,0-32,14.3-32,32v832c0,17.7,14.3,32,32,32h640
		c17.7,0,32-14.3,32-32V311.3C864,302.8,860.6,294.6,854.6,288.6z M790.2,326H602V137.8L790.2,326z M792,888H232V136h302v216
		c0,23.2,18.8,42,42,42h216V888z"/>
	<path d="M429,481.2c-1.9-4.4-6.2-7.2-11-7.2h-35c-6.6,0-12,5.4-12,12v272c0,6.6,5.4,12,12,12h27.1c6.6,0,12-5.4,12-12V582.1
		l66.8,150.2c1.9,4.3,6.2,7.1,11,7.1h24.1c4.7,0,9-2.8,11-7.1l66.8-150.6V758c0,6.6,5.4,12,12,12H641c6.6,0,12-5.4,12-12V486
		c0-6.6-5.4-12-12-12h-34.7c-4.8,0-9.1,2.8-11,7.2l-83.1,191L429,481.2z"/>
</g>
</svg>
