<?xml version="1.0" encoding="utf-8"?>
<!-- Generator: Adobe Illustrator 21.0.0, SVG Export Plug-In . SVG Version: 6.00 Build 0)  -->
<svg version="1.1" id="图层_1" xmlns="http://www.w3.org/2000/svg" xmlns:xlink="http://www.w3.org/1999/xlink" x="0px" y="0px"
	 viewBox="0 0 1024 1024" style="enable-background:new 0 0 1024 1024;" xml:space="preserve">
<style type="text/css">
	.st0{fill:none;}
</style>
<title>file-zip</title>
<desc>Created with Sketch.</desc>
<g>
	<polygon class="st0" points="602,326 790.2,326 602,137.8 	"/>
	<rect x="344" y="630" class="st0" width="32" height="64"/>
	<path class="st0" d="M534,352V136H360v64h64v64h-64v64h64v64h-64v64h64v64h-64v62h64v160H296V584v-2v-62h64v-64h-64v-64h64v-64h-64
		v-64h64v-64h-64v-64h-64v752h560V394H576C552.8,394,534,375.2,534,352z"/>
	<rect x="296" y="392" width="64" height="64"/>
	<path d="M296,582v2v158h128V582h-64v-62h-64V582z M376,630v64h-32v-64H376z"/>
	<rect x="360" y="328" width="64" height="64"/>
	<rect x="296" y="264" width="64" height="64"/>
	<rect x="360" y="456" width="64" height="64"/>
	<rect x="360" y="200" width="64" height="64"/>
	<path d="M854.6,288.6L639.4,73.4c-6-6-14.1-9.4-22.6-9.4H192c-17.7,0-32,14.3-32,32v832c0,17.7,14.3,32,32,32h640
		c17.7,0,32-14.3,32-32V311.3C864,302.8,860.6,294.6,854.6,288.6z M790.2,326H602V137.8L790.2,326z M792,888H232V136h64v64h64v-64
		h174v216c0,23.2,18.8,42,42,42h216V888z"/>
</g>
</svg>
