<?xml version="1.0" encoding="utf-8"?>
<!-- Generator: Adobe Illustrator 21.0.0, SVG Export Plug-In . SVG Version: 6.00 Build 0)  -->
<svg version="1.1" id="图层_1" xmlns="http://www.w3.org/2000/svg" xmlns:xlink="http://www.w3.org/1999/xlink" x="0px" y="0px"
	 viewBox="0 0 1024 1024" style="enable-background:new 0 0 1024 1024;" xml:space="preserve">
<style type="text/css">
	.st0{fill:none;}
</style>
<title>file search</title>
<desc>Created with Sketch.</desc>
<g>
	<circle class="st0" cx="652" cy="704" r="112"/>
	<path d="M688,312v-48c0-4.4-3.6-8-8-8H296c-4.4,0-8,3.6-8,8v48c0,4.4,3.6,8,8,8h384C684.4,320,688,316.4,688,312z"/>
	<path d="M296,400c-4.4,0-8,3.6-8,8v48c0,4.4,3.6,8,8,8h184c4.4,0,8-3.6,8-8v-48c0-4.4-3.6-8-8-8H296z"/>
	<path d="M440,852H208V148h560v344c0,4.4,3.6,8,8,8h56c4.4,0,8-3.6,8-8V108c0-17.7-14.3-32-32-32H168c-17.7,0-32,14.3-32,32v784
		c0,17.7,14.3,32,32,32h272c4.4,0,8-3.6,8-8v-56C448,855.6,444.4,852,440,852z"/>
	<path d="M885.7,903.5l-93.3-93.3C814.7,780.7,828,743.9,828,704c0-97.2-78.8-176-176-176s-176,78.8-176,176s78.8,176,176,176
		c35.8,0,69-10.7,96.8-29l94.7,94.7c1.6,1.6,3.6,2.3,5.6,2.3s4.1-0.8,5.6-2.3l31-31C888.8,911.6,888.8,906.6,885.7,903.5z M652,816
		c-61.9,0-112-50.1-112-112s50.1-112,112-112s112,50.1,112,112S713.9,816,652,816z"/>
</g>
</svg>
