<?xml version="1.0" encoding="utf-8"?>
<!-- Generator: Adobe Illustrator 21.0.0, SVG Export Plug-In . SVG Version: 6.00 Build 0)  -->
<svg version="1.1" id="图层_1" xmlns="http://www.w3.org/2000/svg" xmlns:xlink="http://www.w3.org/1999/xlink" x="0px" y="0px"
	 viewBox="0 0 1024 1024" style="enable-background:new 0 0 1024 1024;" xml:space="preserve">
<style type="text/css">
	.st0{fill:none;}
</style>
<title>filter</title>
<desc>Created with Sketch.</desc>
<g>
	<polygon class="st0" points="411,561.4 420.5,578 603.5,578 613,561.4 811.3,226 212.7,226 	"/>
	<rect x="420.6" y="642" class="st0" width="182.9" height="156"/>
	<path d="M880.1,154H143.9c-24.5,0-39.8,26.7-27.5,48L349,597.4V838c0,17.7,14.2,32,31.8,32h262.4c17.6,0,31.8-14.3,31.8-32V597.4
		L907.7,202C919.9,180.7,904.6,154,880.1,154z M603.4,798H420.6V642h182.9V798z M613,561.4l-9.5,16.6h-183l-9.5-16.6L212.7,226
		h598.6L613,561.4z"/>
</g>
</svg>
