<?xml version="1.0" encoding="utf-8"?>
<!-- Generator: Adobe Illustrator 21.0.0, SVG Export Plug-In . SVG Version: 6.00 Build 0)  -->
<svg version="1.1" id="图层_1" xmlns="http://www.w3.org/2000/svg" xmlns:xlink="http://www.w3.org/1999/xlink" x="0px" y="0px"
	 viewBox="0 0 1024 1024" style="enable-background:new 0 0 1024 1024;" xml:space="preserve">
<style type="text/css">
	.st0{fill:none;}
</style>
<title>folder-add</title>
<desc>Created with Sketch.</desc>
<g>
	<path class="st0" d="M372.5,256H184v512h656V370.4H492.1L372.5,256z M540,443.1V528h84.5c4.1,0,7.5,3.1,7.5,7v42c0,3.8-3.4,7-7.5,7
		H540v84.9c0,3.9-3.1,7.1-7,7.1h-42c-3.8,0-7-3.2-7-7.1V584h-84.5c-4.1,0-7.5-3.2-7.5-7v-42c0-3.9,3.4-7,7.5-7H484v-84.9
		c0-3.9,3.2-7.1,7-7.1h42C536.9,436,540,439.2,540,443.1z"/>
	<path d="M484,443.1V528h-84.5c-4.1,0-7.5,3.1-7.5,7v42c0,3.8,3.4,7,7.5,7H484v84.9c0,3.9,3.2,7.1,7,7.1h42c3.9,0,7-3.2,7-7.1V584
		h84.5c4.1,0,7.5-3.2,7.5-7v-42c0-3.9-3.4-7-7.5-7H540v-84.9c0-3.9-3.1-7.1-7-7.1h-42C487.2,436,484,439.2,484,443.1z"/>
	<path d="M880,298.4H521L403.7,186.2c-1.5-1.4-3.5-2.2-5.5-2.2H144c-17.7,0-32,14.3-32,32v592c0,17.7,14.3,32,32,32h736
		c17.7,0,32-14.3,32-32V330.4C912,312.7,897.7,298.4,880,298.4z M840,768H184V256h188.5l119.6,114.4H840V768z"/>
</g>
</svg>
