<?xml version="1.0" encoding="utf-8"?>
<!-- Generator: Adobe Illustrator 21.0.0, SVG Export Plug-In . SVG Version: 6.00 Build 0)  -->
<svg version="1.1" id="图层_1" xmlns="http://www.w3.org/2000/svg" xmlns:xlink="http://www.w3.org/1999/xlink" x="0px" y="0px"
	 viewBox="0 0 1024 1024" style="enable-background:new 0 0 1024 1024;" xml:space="preserve">
<style type="text/css">
	.st0{fill:none;}
</style>
<title>folder</title>
<desc>Created with Sketch.</desc>
<g>
	<polygon class="st0" points="372.5,256 184,256 184,768 840,768 840,370.4 492.1,370.4 	"/>
	<path d="M880,298.4H521L403.7,186.2c-1.5-1.4-3.5-2.2-5.5-2.2H144c-17.7,0-32,14.3-32,32v592c0,17.7,14.3,32,32,32h736
		c17.7,0,32-14.3,32-32V330.4C912,312.7,897.7,298.4,880,298.4z M840,768H184V256h188.5l119.6,114.4H840V768z"/>
</g>
</svg>
