<?xml version="1.0" encoding="utf-8"?>
<!-- Generator: Adobe Illustrator 21.0.0, SVG Export Plug-In . SVG Version: 6.00 Build 0)  -->
<svg version="1.1" id="图层_1" xmlns="http://www.w3.org/2000/svg" xmlns:xlink="http://www.w3.org/1999/xlink" x="0px" y="0px"
	 viewBox="0 0 1024 1024" style="enable-background:new 0 0 1024 1024;" xml:space="preserve">
<style type="text/css">
	.st0{fill:none;}
</style>
<title>folder-add-fill</title>
<desc>Created with Sketch.</desc>
<g>
	<path class="st0" d="M624.5,528H540v-84.9c0-3.9-3.2-7.1-7-7.1h-42c-3.8,0-7,3.2-7,7.1V528h-84.5c-4.1,0-7.5,3.2-7.5,7v42
		c0,3.8,3.4,7,7.5,7H484v84.9c0,3.9,3.2,7.1,7,7.1h42c3.8,0,7-3.2,7-7.1V584h84.5c4.1,0,7.5-3.2,7.5-7v-42
		C632,531.2,628.6,528,624.5,528z"/>
	<path d="M880,298.4H521L403.7,186.2c-1.5-1.4-3.5-2.2-5.5-2.2H144c-17.7,0-32,14.3-32,32v592c0,17.7,14.3,32,32,32h736
		c17.7,0,32-14.3,32-32V330.4C912,312.7,897.7,298.4,880,298.4z M632,577c0,3.8-3.4,7-7.5,7H540v84.9c0,3.9-3.2,7.1-7,7.1h-42
		c-3.8,0-7-3.2-7-7.1V584h-84.5c-4.1,0-7.5-3.2-7.5-7v-42c0-3.8,3.4-7,7.5-7H484v-84.9c0-3.9,3.2-7.1,7-7.1h42c3.8,0,7,3.2,7,7.1
		V528h84.5c4.1,0,7.5,3.2,7.5,7V577z"/>
</g>
</svg>
