<?xml version="1.0" encoding="utf-8"?>
<!-- Generator: Adobe Illustrator 21.0.0, SVG Export Plug-In . SVG Version: 6.00 Build 0)  -->
<svg version="1.1" id="图层_1" xmlns="http://www.w3.org/2000/svg" xmlns:xlink="http://www.w3.org/1999/xlink" x="0px" y="0px"
	 viewBox="0 0 1024 1024" style="enable-background:new 0 0 1024 1024;" xml:space="preserve">
<style type="text/css">
	.st0{fill:none;}
</style>
<title>font-colors</title>
<desc>Created with Sketch.</desc>
<g>
	<polygon class="st0" points="513.7,219.9 509.6,219.9 424.9,483.7 597.4,483.7 	"/>
	<path d="M904,816H120c-4.4,0-8,3.6-8,8v80c0,4.4,3.6,8,8,8h784c4.4,0,8-3.6,8-8v-80C912,819.6,908.4,816,904,816z"/>
	<path d="M253.7,736h85c4.2,0,8-2.7,9.3-6.8l53.7-166h219.2l53.2,166c1.3,4,5,6.8,9.3,6.8h89.1c1.1,0,2.2-0.2,3.2-0.5
		c5.1-1.8,7.8-7.3,6-12.4L573.6,118.6c-1.4-3.9-5.1-6.6-9.2-6.6H462.1c-4.2,0-7.9,2.6-9.2,6.6L244.5,723.1c-0.4,1-0.5,2.1-0.5,3.2
		C243.9,731.6,248.3,736,253.7,736z M509.6,219.9h4.1l83.8,263.8H424.9L509.6,219.9z"/>
</g>
</svg>
