<?xml version="1.0" encoding="utf-8"?>
<!-- Generator: Adobe Illustrator 21.0.0, SVG Export Plug-In . SVG Version: 6.00 Build 0)  -->
<svg version="1.1" id="图层_1" xmlns="http://www.w3.org/2000/svg" xmlns:xlink="http://www.w3.org/1999/xlink" x="0px" y="0px"
	 viewBox="0 0 1024 1024" style="enable-background:new 0 0 1024 1024;" xml:space="preserve">
<style type="text/css">
	.st0{fill:none;}
</style>
<title>frown</title>
<desc>Created with Sketch.</desc>
<g>
	<path class="st0" d="M854.8,367.2c-18.7-44.3-45.6-84.1-79.8-118.3c-34.2-34.2-74-61-118.3-79.8C611,149.8,562.3,140,512,140
		c-50.3,0-99,9.8-144.8,29.2c-44.3,18.7-84.1,45.6-118.3,79.8c-34.2,34.2-61,74-79.8,118.3C149.8,413,140,461.7,140,512
		s9.8,99,29.2,144.8c18.7,44.3,45.6,84.1,79.8,118.3c34.2,34.2,74,61,118.3,79.8C413,874.2,461.7,884,512,884
		c50.3,0,99-9.8,144.8-29.2c44.3-18.7,84.1-45.6,118.3-79.8c34.2-34.2,61-74,79.8-118.3C874.2,611,884,562.3,884,512
		S874.2,413,854.8,367.2z M288,421c0-26.5,21.5-48,48-48s48,21.5,48,48s-21.5,48-48,48S288,447.5,288,421z M664,693h-48.1
		c-4.2,0-7.8-3.2-8.1-7.4c-3.8-49.5-45.3-88.6-95.8-88.6s-92.1,39.1-95.8,88.6c-0.3,4.2-3.9,7.4-8.1,7.4H360c-4.6,0-8.2-3.8-8-8.4
		c4.4-84.3,74.5-151.6,160-151.6s155.6,67.3,160,151.6C672.2,689.2,668.6,693,664,693z M688,469c-26.5,0-48-21.5-48-48
		s21.5-48,48-48s48,21.5,48,48S714.5,469,688,469z"/>
	<circle cx="336" cy="421" r="48"/>
	<circle cx="688" cy="421" r="48"/>
	<path d="M512,64C264.6,64,64,264.6,64,512s200.6,448,448,448s448-200.6,448-448S759.4,64,512,64z M775,775
		c-34.2,34.2-74,61-118.3,79.8C611,874.2,562.3,884,512,884c-50.3,0-99-9.8-144.8-29.2c-44.3-18.7-84.1-45.6-118.3-79.8
		c-34.2-34.2-61-74-79.8-118.3C149.8,611,140,562.3,140,512s9.8-99,29.2-144.8c18.7-44.3,45.6-84.1,79.8-118.3
		c34.2-34.2,74-61,118.3-79.8C413,149.8,461.7,140,512,140c50.3,0,99,9.8,144.8,29.2c44.3,18.7,84.1,45.6,118.3,79.8
		c34.2,34.2,61,74,79.8,118.3C874.2,413,884,461.7,884,512s-9.8,99-29.2,144.8C836.1,701.1,809.2,740.9,775,775z"/>
	<path d="M512,533c-85.5,0-155.6,67.3-160,151.6c-0.2,4.6,3.4,8.4,8,8.4h48.1c4.2,0,7.8-3.2,8.1-7.4c3.8-49.5,45.3-88.6,95.8-88.6
		s92.1,39.1,95.8,88.6c0.3,4.2,3.9,7.4,8.1,7.4H664c4.6,0,8.2-3.8,8-8.4C667.6,600.3,597.5,533,512,533z"/>
</g>
</svg>
