<?xml version="1.0" encoding="utf-8"?>
<!-- Generator: Adobe Illustrator 21.0.0, SVG Export Plug-In . SVG Version: 6.00 Build 0)  -->
<svg version="1.1" id="图层_1" xmlns="http://www.w3.org/2000/svg" xmlns:xlink="http://www.w3.org/1999/xlink" x="0px" y="0px"
	 viewBox="0 0 1024 1024" style="enable-background:new 0 0 1024 1024;" xml:space="preserve">
<style type="text/css">
	.st0{fill:none;}
</style>
<title>frown-fill</title>
<desc>Created with Sketch.</desc>
<g>
	<path class="st0" d="M384,421c0-26.5-21.5-48-48-48s-48,21.5-48,48s21.5,48,48,48S384,447.5,384,421z"/>
	<path class="st0" d="M512,533c-85.5,0-155.6,67.3-160,151.6c-0.2,4.6,3.4,8.4,8,8.4h48.1c4.2,0,7.8-3.2,8.1-7.4
		c3.7-49.5,45.3-88.6,95.8-88.6s92,39.1,95.8,88.6c0.3,4.2,3.9,7.4,8.1,7.4H664c4.6,0,8.2-3.8,8-8.4C667.6,600.3,597.5,533,512,533z
		"/>
	<path class="st0" d="M688,373c-26.5,0-48,21.5-48,48s21.5,48,48,48s48-21.5,48-48S714.5,373,688,373z"/>
	<path d="M512,64C264.6,64,64,264.6,64,512s200.6,448,448,448s448-200.6,448-448S759.4,64,512,64z M288,421c0-26.5,21.5-48,48-48
		s48,21.5,48,48s-21.5,48-48,48S288,447.5,288,421z M664,693h-48.1c-4.2,0-7.8-3.2-8.1-7.4C604,636.1,562.5,597,512,597
		s-92.1,39.1-95.8,88.6c-0.3,4.2-3.9,7.4-8.1,7.4H360c-4.6,0-8.2-3.8-8-8.4c4.4-84.3,74.5-151.6,160-151.6s155.6,67.3,160,151.6
		C672.2,689.2,668.6,693,664,693z M688,469c-26.5,0-48-21.5-48-48s21.5-48,48-48s48,21.5,48,48S714.5,469,688,469z"/>
</g>
</svg>
