<?xml version="1.0" encoding="utf-8"?>
<!-- Generator: Adobe Illustrator 21.0.0, SVG Export Plug-In . SVG Version: 6.00 Build 0)  -->
<svg version="1.1" id="图层_1" xmlns="http://www.w3.org/2000/svg" xmlns:xlink="http://www.w3.org/1999/xlink" x="0px" y="0px"
	 viewBox="0 0 1024 1024" style="enable-background:new 0 0 1024 1024;" xml:space="preserve">
<style type="text/css">
	.st0{fill:none;}
</style>
<title>funnel plot</title>
<desc>Created with Sketch.</desc>
<g>
	<polygon class="st0" points="411,571.4 419.3,586 604.7,586 613,571.4 689.6,438 334.4,438 	"/>
	<rect x="420.6" y="650" class="st0" width="182.9" height="148"/>
	<polygon class="st0" points="297.7,374 726.3,374 811.3,226 212.7,226 	"/>
	<path d="M880.1,154H143.9c-24.5,0-39.8,26.7-27.5,48L349,607.4V838c0,17.7,14.2,32,31.8,32h262.4c17.6,0,31.8-14.3,31.8-32V607.4
		L907.7,202C919.9,180.7,904.6,154,880.1,154z M603.4,798H420.6V650h182.9V798z M613,571.4l-8.4,14.6H419.3l-8.4-14.6L334.4,438
		h355.2L613,571.4z M726.3,374H297.7l-85-148h598.6L726.3,374z"/>
</g>
</svg>
