<?xml version="1.0" encoding="utf-8"?>
<!-- Generator: Adobe Illustrator 21.0.0, SVG Export Plug-In . SVG Version: 6.00 Build 0)  -->
<svg version="1.1" id="图层_1" xmlns="http://www.w3.org/2000/svg" xmlns:xlink="http://www.w3.org/1999/xlink" x="0px" y="0px"
	 viewBox="0 0 1024 1024" style="enable-background:new 0 0 1024 1024;" xml:space="preserve">
<style type="text/css">
	.st0{fill:none;}
</style>
<title>IE-circle-fill</title>
<desc>Created with Sketch.</desc>
<g>
	<path class="st0" d="M760.5,327.8c0-72.7-79.6-98.4-209.7-38.6c-107.6-7.2-211.2,73.7-237.1,186.5c30.9-34.9,78.3-82.3,122-101.2
		C381.4,422.9,335.1,484,300,547.7c-20.7,37.9-44,99.2-44,145c0,98.6,92.9,86.5,180.3,42c31.4,15.4,66.6,15.6,101.7,15.6
		c97.1,0,184.2-54.3,216.8-146H633.9c-52.5,88.6-196.8,53-196.8-47.4h328.8c6.4-43.6-1.7-95.7-26.9-141.2
		C749.9,391.1,760.5,355.3,760.5,327.8z M320.6,602.9c17.7,51.2,53.7,95.9,100.3,123.3C332.1,775.1,247.6,755.3,320.6,602.9z
		 M436.5,494c2-55.2,50.3-94.9,104-94.9c53.4,0,102,39.7,104,94.9H436.5z M621.1,306.4c21.4-10.3,48.6-22,72.6-22
		c31.4,0,54.3,21.7,54.3,53.7c0,20-7.4,49-14.6,67.9C707.1,363.7,667.3,324.4,621.1,306.4z"/>
	<path d="M693.6,284.4c-24,0-51.1,11.7-72.6,22c46.3,18,86,57.3,112.3,99.6c7.1-18.9,14.6-47.9,14.6-67.9
		C747.9,306.1,725.1,284.4,693.6,284.4z"/>
	<path d="M512,64C264.6,64,64,264.6,64,512s200.6,448,448,448s448-200.6,448-448S759.4,64,512,64z M765.9,556.9H437.1
		c0,100.4,144.3,136,196.8,47.4h120.8c-32.6,91.7-119.7,146-216.8,146c-35.1,0-70.3-0.1-101.7-15.6c-87.4,44.5-180.3,56.6-180.3-42
		c0-45.8,23.2-107.1,44-145c35.1-63.7,81.4-124.9,135.7-173.2c-43.7,18.9-91.1,66.3-122,101.2c25.9-112.8,129.5-193.6,237.1-186.5
		c130-59.8,209.7-34.1,209.7,38.6c0,27.4-10.6,63.3-21.4,87.9C764.2,461.2,772.3,513.3,765.9,556.9z"/>
	<path d="M540.5,399.1c-53.7,0-102,39.7-104,94.9h208C642.5,438.9,593.9,399.1,540.5,399.1z"/>
	<path d="M320.6,602.9c-73,152.4,11.5,172.2,100.3,123.3C374.3,698.7,338.3,654,320.6,602.9z"/>
</g>
</svg>
