<?xml version="1.0" encoding="utf-8"?>
<!-- Generator: Adobe Illustrator 21.0.0, SVG Export Plug-In . SVG Version: 6.00 Build 0)  -->
<svg version="1.1" id="图层_1" xmlns="http://www.w3.org/2000/svg" xmlns:xlink="http://www.w3.org/1999/xlink" x="0px" y="0px"
	 viewBox="0 0 1024 1024" style="enable-background:new 0 0 1024 1024;" xml:space="preserve">
<style type="text/css">
	.st0{fill:none;}
</style>
<title>image</title>
<desc>Created with Sketch.</desc>
<g>
	<polygon class="st0" points="424.6,765.8 274.5,587.8 136,752.1 136,792 888,792 888,761.6 658.1,488.9 	"/>
	<circle class="st0" cx="304" cy="368" r="28"/>
	<path class="st0" d="M136,652.7l132.4-157c3.2-3.8,9-3.8,12.2,0l144,170.7L652,396.8c3.2-3.8,9-3.8,12.2,0L888,662.2V232H136V652.7
		z M304,280c48.6,0,88,39.4,88,88c0,48.6-39.4,88-88,88s-88-39.4-88-88C216,319.4,255.4,280,304,280z"/>
	<path d="M928,160H96c-17.7,0-32,14.3-32,32v640c0,17.7,14.3,32,32,32h832c17.7,0,32-14.3,32-32V192C960,174.3,945.7,160,928,160z
		 M888,792H136v-39.9l138.5-164.3l150.1,178l233.5-276.8L888,761.6V792z M888,662.2L664.2,396.8c-3.2-3.8-9-3.8-12.2,0L424.6,666.4
		l-144-170.7c-3.2-3.8-9-3.8-12.2,0L136,652.7V232h752V662.2z"/>
	<path d="M304,456c48.6,0,88-39.4,88-88c0-48.6-39.4-88-88-88s-88,39.4-88,88C216,416.6,255.4,456,304,456z M304,340
		c15.5,0,28,12.5,28,28s-12.5,28-28,28s-28-12.5-28-28S288.5,340,304,340z"/>
</g>
</svg>
