<?xml version="1.0" encoding="utf-8"?>
<!-- Generator: Adobe Illustrator 21.0.0, SVG Export Plug-In . SVG Version: 6.00 Build 0)  -->
<svg version="1.1" id="图层_1" xmlns="http://www.w3.org/2000/svg" xmlns:xlink="http://www.w3.org/1999/xlink" x="0px" y="0px"
	 viewBox="0 0 1024 1024" style="enable-background:new 0 0 1024 1024;" xml:space="preserve">
<style type="text/css">
	.st0{fill:none;}
</style>
<title>insurance</title>
<desc>Created with Sketch.</desc>
<g>
	<path class="st0" d="M214,226.7v427.6l298,232.2l298-232.2V226.7L512,125.1L214,226.7z M411.1,656c0,4.4-3.6,8-8,8h-37.3
		c-4.4,0-8-3.6-8-8V471.4c-7.7,9.2-15.4,17.9-23.1,26c-3.2,3.4-8.8,2.1-10.2-2.4l-13.2-43.5c-0.6-2-0.2-4.1,1.2-5.6
		c37-43.4,64.7-95.1,82.2-153.6c1.1-3.5,5-5.3,8.4-3.7l38.6,18.3c2.7,1.3,4.1,4.4,3.2,7.2c-8.5,27.3-19.8,53.9-33.6,79V656z
		 M669.2,316v127.2c0,4.4-3.6,8-8,8h-66.7v18.6h98.8c4.4,0,8,3.6,8,8v35.6c0,4.4-3.6,8-8,8h-59c18.1,29.1,41.8,54.3,72.3,76.9
		c2.7,2,3.2,5.8,1.2,8.4l-26.3,35.3c-2.2,2.9-6.3,3.2-8.9,0.7c-30.6-29.3-56.8-65.2-78.1-106.9V656c0,4.4-3.6,8-8,8h-36.2
		c-4.4,0-8-3.6-8-8v-120c-22,44.7-49,80.8-80.6,107.6c-2.8,2.4-7,1.7-8.9-1.4l-22.8-36.5c-1.7-2.7-1-6.3,1.6-8.1
		c28.6-20.3,51.9-45.2,71-76h-55.1c-4.4,0-8-3.6-8-8v-35.6c0-4.4,3.6-8,8-8h94.9v-18.6h-65.9c-4.4,0-8-3.6-8-8V316c0-4.4,3.6-8,8-8
		h184.7C665.6,308,669.2,311.6,669.2,316z"/>
	<rect x="519.9" y="358.8" class="st0" width="97.9" height="41.6"/>
	<path d="M441.6,306.8L403,288.6c-3.3-1.6-7.3,0.2-8.4,3.7c-17.5,58.5-45.2,110.1-82.2,153.6c-1.3,1.6-1.8,3.7-1.2,5.6l13.2,43.5
		c1.3,4.4,7,5.7,10.2,2.4c7.7-8.1,15.4-16.9,23.1-26V656c0,4.4,3.6,8,8,8h37.3c4.4,0,8-3.6,8-8V393.1c13.8-25.1,25.1-51.7,33.6-79
		C445.6,311.2,444.3,308.1,441.6,306.8z"/>
	<path d="M468.4,316v127.2c0,4.4,3.6,8,8,8h65.9v18.6h-94.9c-4.4,0-8,3.6-8,8v35.6c0,4.4,3.6,8,8,8h55.1c-19.1,30.8-42.4,55.7-71,76
		c-2.6,1.8-3.3,5.4-1.6,8.1l22.8,36.5c1.9,3.1,6.2,3.8,8.9,1.4c31.6-26.8,58.7-62.9,80.6-107.6v120c0,4.4,3.6,8,8,8h36.2
		c4.4,0,8-3.6,8-8V536c21.3,41.7,47.5,77.5,78.1,106.9c2.6,2.5,6.8,2.1,8.9-0.7l26.3-35.3c2-2.7,1.4-6.5-1.2-8.4
		c-30.5-22.6-54.2-47.8-72.3-76.9h59c4.4,0,8-3.6,8-8v-35.6c0-4.4-3.6-8-8-8h-98.8v-18.6h66.7c4.4,0,8-3.6,8-8V316c0-4.4-3.6-8-8-8
		H476.4C472,308,468.4,311.6,468.4,316z M519.9,358.8h97.9v41.6h-97.9V358.8z"/>
	<path d="M866.9,169.9L527.1,54.1C523,52.7,517.5,52,512,52s-11,0.7-15.1,2.1L157.1,169.9c-8.3,2.8-15.1,12.4-15.1,21.2v482.4
		c0,8.8,5.7,20.4,12.6,25.9l344.7,268.6c3.5,2.7,8,4.1,12.6,4.1c4.6,0,9.2-1.4,12.6-4.1l344.7-268.6c6.9-5.4,12.6-17,12.6-25.9
		V191.1C882,182.3,875.2,172.8,866.9,169.9z M810,654.3L512,886.5L214,654.3V226.7l298-101.6l298,101.6V654.3z"/>
</g>
</svg>
