<?xml version="1.0" encoding="utf-8"?>
<!-- Generator: Adobe Illustrator 21.0.0, SVG Export Plug-In . SVG Version: 6.00 Build 0)  -->
<svg version="1.1" id="图层_1" xmlns="http://www.w3.org/2000/svg" xmlns:xlink="http://www.w3.org/1999/xlink" x="0px" y="0px"
	 viewBox="0 0 1024 1024" style="enable-background:new 0 0 1024 1024;" xml:space="preserve">
<style type="text/css">
	.st0{fill:none;}
</style>
<title>key</title>
<desc>Created with Sketch.</desc>
<g>
	<path class="st0" d="M769.2,254.8C726.2,211.7,668.9,188,608,188c-60.9,0-118.2,23.7-161.2,66.8C403.7,297.8,380,355.1,380,416
		c0,60.9,23.7,118.2,66.8,161.2C489.8,620.3,547.1,644,608,644c60.9,0,118.2-23.7,161.2-66.8C812.3,534.2,836,476.9,836,416
		C836,355.1,812.3,297.8,769.2,254.8z"/>
	<path d="M608,112c-167.9,0-304,136.1-304,304c0,70.3,23.9,135,63.9,186.5l-41.1,41.1l-62.3-62.3c-3.1-3.1-8.2-3.1-11.4,0
		l-39.8,39.8c-3.1,3.1-3.1,8.2,0,11.4l62.3,62.3l-44.9,44.9l-62.3-62.3c-3.1-3.1-8.2-3.1-11.4,0l-39.8,39.8c-3.1,3.1-3.1,8.2,0,11.4
		l62.3,62.3l-65.3,65.3c-3.1,3.1-3.1,8.2,0,11.3l42.3,42.3c3.1,3.1,8.2,3.1,11.3,0l253.6-253.6C473,696.1,537.7,720,608,720
		c167.9,0,304-136.1,304-304S775.9,112,608,112z M769.2,577.2C726.2,620.3,668.9,644,608,644c-60.9,0-118.2-23.7-161.2-66.8
		C403.7,534.2,380,476.9,380,416c0-60.9,23.7-118.2,66.8-161.2C489.8,211.7,547.1,188,608,188c60.9,0,118.2,23.7,161.2,66.8
		C812.3,297.8,836,355.1,836,416C836,476.9,812.3,534.2,769.2,577.2z"/>
</g>
</svg>
