<?xml version="1.0" encoding="utf-8"?>
<!-- Generator: Adobe Illustrator 21.0.0, SVG Export Plug-In . SVG Version: 6.00 Build 0)  -->
<svg version="1.1" id="图层_1" xmlns="http://www.w3.org/2000/svg" xmlns:xlink="http://www.w3.org/1999/xlink" x="0px" y="0px"
	 viewBox="0 0 1024 1024" style="enable-background:new 0 0 1024 1024;" xml:space="preserve">
<style type="text/css">
	.st0{fill:none;}
</style>
<title>like</title>
<desc>Created with Sketch.</desc>
<g>
	<rect x="184" y="568" class="st0" width="81" height="284"/>
	<path class="st0" d="M811.2,407.6H496.8l9.6-198.4c0.6-11.9-4.7-23.1-14.6-30.5c-6.1-4.5-13.6-6.8-21.1-6.7
		c-19.6,0.1-36.9,13.4-42.2,32.3L329,564.8V852h415.4c20.4-9.2,33.6-29.4,33.6-51.8c0-9.7-2.3-18.9-6.9-27.3l-13.9-25.4l21.9-19
		c12.5-10.8,19.6-26.5,19.6-43c0-9.7-2.3-18.9-6.9-27.3l-13.9-25.4l21.9-19c12.5-10.8,19.6-26.5,19.6-43c0-9.7-2.3-18.9-6.9-27.3
		L798.5,518l21.9-19c12.5-10.8,19.6-26.5,19.6-43C840,436.9,829,418.5,811.2,407.6z"/>
	<path d="M885.9,533.7c16.8-22.2,26.1-49.4,26.1-77.7c0-44.9-25.1-87.4-65.5-111.1c-10.4-6.1-22.2-9.3-34.3-9.3H572.4l6-122.9
		c1.4-29.7-9.1-57.9-29.5-79.4c-20.5-21.5-48.1-33.4-77.9-33.4c-52,0-98,35-111.8,85.1L273.3,496H144c-17.7,0-32,14.3-32,32v364
		c0,17.7,14.3,32,32,32h601.3c9.2,0,18.2-1.8,26.5-5.4c47.6-20.3,78.3-66.8,78.3-118.4c0-12.6-1.8-25-5.4-37
		c16.8-22.2,26.1-49.4,26.1-77.7c0-12.6-1.8-25-5.4-37c16.8-22.2,26.1-49.4,26.1-77.7C891.3,558.2,889.5,545.7,885.9,533.7z
		 M184,852V568h81v284H184z M820.4,499l-21.9,19l13.9,25.4c4.6,8.4,6.9,17.6,6.9,27.3c0,16.5-7.2,32.2-19.6,43l-21.9,19l13.9,25.4
		c4.6,8.4,6.9,17.6,6.9,27.3c0,16.5-7.2,32.2-19.6,43l-21.9,19l13.9,25.4c4.6,8.4,6.9,17.6,6.9,27.3c0,22.4-13.2,42.6-33.6,51.8H329
		V564.8l99.5-360.5c5.2-18.9,22.5-32.2,42.2-32.3c7.6,0,15.1,2.2,21.1,6.7c9.9,7.4,15.2,18.6,14.6,30.5l-9.6,198.4h314.4
		C829,418.5,840,436.9,840,456C840,472.5,832.8,488.1,820.4,499z"/>
</g>
</svg>
