<?xml version="1.0" encoding="utf-8"?>
<!-- Generator: Adobe Illustrator 21.0.0, SVG Export Plug-In . SVG Version: 6.00 Build 0)  -->
<svg version="1.1" id="图层_1" xmlns="http://www.w3.org/2000/svg" xmlns:xlink="http://www.w3.org/1999/xlink" x="0px" y="0px"
	 viewBox="0 0 1024 1024" style="enable-background:new 0 0 1024 1024;" xml:space="preserve">
<title>link</title>
<desc>Created with Sketch.</desc>
<g>
	<path d="M574,665.4c-3.1-3.1-8.2-3.1-11.3,0L446.5,781.6c-53.8,53.8-144.6,59.5-204,0c-59.5-59.5-53.8-150.2,0-204l116.2-116.2
		c3.1-3.1,3.1-8.2,0-11.3l-39.8-39.8c-3.1-3.1-8.2-3.1-11.3,0L191.4,526.5c-84.6,84.6-84.6,221.5,0,306s221.5,84.6,306,0
		l116.2-116.2c3.1-3.1,3.1-8.2,0-11.3L574,665.4z"/>
	<path d="M832.6,191.4c-84.6-84.6-221.5-84.6-306,0L410.3,307.6c-3.1,3.1-3.1,8.2,0,11.3l39.7,39.7c3.1,3.1,8.2,3.1,11.3,0
		l116.2-116.2c53.8-53.8,144.6-59.5,204,0c59.5,59.5,53.8,150.2,0,204L665.3,562.6c-3.1,3.1-3.1,8.2,0,11.3l39.8,39.8
		c3.1,3.1,8.2,3.1,11.3,0l116.2-116.2C917.1,412.9,917.1,276,832.6,191.4z"/>
	<path d="M610.1,372.3c-3.1-3.1-8.2-3.1-11.3,0L372.3,598.7c-3.1,3.1-3.1,8.2,0,11.3l39.6,39.6c3.1,3.1,8.2,3.1,11.3,0l226.4-226.4
		c3.1-3.1,3.1-8.2,0-11.3L610.1,372.3z"/>
</g>
</svg>
