<?xml version="1.0" encoding="utf-8"?>
<!-- Generator: Adobe Illustrator 21.0.0, SVG Export Plug-In . SVG Version: 6.00 Build 0)  -->
<svg version="1.1" id="图层_1" xmlns="http://www.w3.org/2000/svg" xmlns:xlink="http://www.w3.org/1999/xlink" x="0px" y="0px"
	 viewBox="0 0 1024 1024" style="enable-background:new 0 0 1024 1024;" xml:space="preserve">
<style type="text/css">
	.st0{fill:none;}
</style>
<title>linkedin-fill</title>
<desc>Created with Sketch.</desc>
<g>
	<path class="st0" d="M290,222.1c-38,0-68.8,30.8-68.8,68.8c0,38,30.8,68.8,68.8,68.8c37.9,0,68.8-30.8,68.8-68.8
		C358.7,253,327.9,222.1,290,222.1z"/>
	<rect x="230.6" y="411.9" class="st0" width="118.7" height="381.8"/>
	<path class="st0" d="M651.4,402.4c-57.7,0-96.4,31.7-112.3,61.7h-1.6v-52.2H423.7v381.8h118.6V604.8c0-49.8,9.5-98,71.2-98
		c60.8,0,61.7,56.9,61.7,101.2v185.7h118.6V584.3C793.7,481.5,771.5,402.4,651.4,402.4z"/>
	<path d="M880,112H144c-17.7,0-32,14.3-32,32v736c0,17.7,14.3,32,32,32h736c17.7,0,32-14.3,32-32V144C912,126.3,897.7,112,880,112z
		 M349.3,793.7H230.6V411.9h118.7V793.7z M290,359.7c-38,0-68.8-30.8-68.8-68.8c0-38,30.8-68.8,68.8-68.8
		c37.9,0,68.8,30.8,68.8,68.8C358.7,328.9,327.9,359.7,290,359.7z M793.7,793.7H675.1V608c0-44.3-0.8-101.2-61.7-101.2
		c-61.7,0-71.2,48.2-71.2,98v188.9H423.7V411.9h113.8v52.2h1.6c15.8-30,54.5-61.7,112.3-61.7c120.2,0,142.3,79.1,142.3,181.9V793.7z
		"/>
</g>
</svg>
