<?xml version="1.0" encoding="utf-8"?>
<!-- Generator: Adobe Illustrator 21.0.0, SVG Export Plug-In . SVG Version: 6.00 Build 0)  -->
<svg version="1.1" id="图层_1" xmlns="http://www.w3.org/2000/svg" xmlns:xlink="http://www.w3.org/1999/xlink" x="0px" y="0px"
	 viewBox="0 0 1024 1024" style="enable-background:new 0 0 1024 1024;" xml:space="preserve">
<style type="text/css">
	.st0{fill:none;}
</style>
<title>location</title>
<desc>Created with Sketch.</desc>
<g>
	<path class="st0" d="M512,327c-29.9,0-58,11.6-79.2,32.8C411.7,381,400,409.1,400,439c0,29.9,11.7,58,32.8,79.2
		C454,539.3,482.1,551,512,551c29.9,0,58-11.7,79.2-32.8C612.4,497,624,468.9,624,439c0-29.9-11.6-58-32.8-79.2
		C570,338.6,541.9,327,512,327z"/>
	<path class="st0" d="M512,139c-80.3,0-155.7,30.5-212.4,85.9C243.1,280,212,353.2,212,431.1c0,241.3,234.1,407.1,300,449.1
		c65.9-41.9,300-207.8,300-449.1c0-77.9-31.1-151.1-87.6-206.3C667.7,169.5,592.3,139,512,139z M512,615c-97.2,0-176-78.8-176-176
		s78.8-176,176-176s176,78.8,176,176S609.2,615,512,615z"/>
	<path d="M854.6,289.1c-18.8-43.4-45.7-82.3-79.9-115.7c-34.2-33.4-73.9-59.5-118.2-77.8C610.7,76.6,562.1,67,512,67
		c-50.1,0-98.7,9.6-144.5,28.5c-44.3,18.3-84,44.5-118.2,77.8c-34.2,33.4-61.1,72.4-79.9,115.7c-19.5,45-29.4,92.8-29.4,142
		c0,70.6,16.9,140.9,50.1,208.7c26.7,54.5,64,107.6,111,158.1c80.3,86.2,164.5,138.9,188.4,153c6.9,4.1,14.7,6.1,22.4,6.1
		c7.8,0,15.5-2,22.4-6.1l0,0c23.9-14.1,108.1-66.8,188.4-153c47-50.4,84.3-103.6,111-158.1C867.1,572,884,501.8,884,431.1
		C884,381.9,874.1,334.1,854.6,289.1z M512,880.2c-65.9-41.9-300-207.8-300-449.1c0-77.9,31.1-151.1,87.6-206.3
		C356.3,169.5,431.7,139,512,139s155.7,30.5,212.4,85.9C780.9,280,812,353.2,812,431.1C812,672.4,577.9,838.3,512,880.2z"/>
	<path d="M512,263c-97.2,0-176,78.8-176,176s78.8,176,176,176s176-78.8,176-176S609.2,263,512,263z M591.2,518.2
		C570,539.3,541.9,551,512,551c-29.9,0-58-11.7-79.2-32.8C411.7,497,400,468.9,400,439c0-29.9,11.7-58,32.8-79.2
		C454,338.6,482.1,327,512,327c29.9,0,58,11.6,79.2,32.8C612.4,381,624,409.1,624,439C624,468.9,612.4,497,591.2,518.2z"/>
</g>
</svg>
