<?xml version="1.0" encoding="utf-8"?>
<!-- Generator: Adobe Illustrator 21.0.0, SVG Export Plug-In . SVG Version: 6.00 Build 0)  -->
<svg version="1.1" id="图层_1" xmlns="http://www.w3.org/2000/svg" xmlns:xlink="http://www.w3.org/1999/xlink" x="0px" y="0px"
	 viewBox="0 0 1024 1024" style="enable-background:new 0 0 1024 1024;" xml:space="preserve">
<title>logout</title>
<desc>Created with Sketch.</desc>
<g>
	<path d="M868,732h-70.3c-4.8,0-9.3,2.1-12.3,5.8c-7,8.5-14.5,16.7-22.4,24.5c-32.6,32.5-70.5,58.1-112.7,75.9
		c-43.6,18.4-90,27.8-137.9,27.8c-47.9,0-94.3-9.4-137.9-27.8c-42.2-17.8-80.1-43.4-112.7-75.9c-32.6-32.5-58.1-70.4-76-112.5
		c-18.5-43.6-27.8-89.9-27.8-137.8s9.4-94.2,27.8-137.8c17.8-42.1,43.4-80,76-112.5c32.6-32.5,70.5-58.1,112.7-75.9
		c43.6-18.4,90-27.8,137.9-27.8c47.9,0,94.3,9.3,137.9,27.8c42.2,17.8,80.1,43.4,112.7,75.9c7.9,7.9,15.3,16.1,22.4,24.5
		c3,3.7,7.6,5.8,12.3,5.8H868c6.3,0,10.2-7,6.7-12.3C798,160.5,663.8,81.6,511.3,82C271.7,82.6,79.6,277.1,82,516.4
		C84.4,751.9,276.2,942,512.4,942c152.1,0,285.7-78.8,362.3-197.7C878.1,739,874.3,732,868,732z"/>
	<path d="M956.9,505.7L815,393.7c-5.3-4.2-13-0.4-13,6.3v76H488c-4.4,0-8,3.6-8,8v56c0,4.4,3.6,8,8,8h314v76c0,6.7,7.8,10.5,13,6.3
		l141.9-112C961,515.1,961,508.9,956.9,505.7z"/>
</g>
</svg>
