<?xml version="1.0" encoding="utf-8"?>
<!-- Generator: Adobe Illustrator 21.0.0, SVG Export Plug-In . SVG Version: 6.00 Build 0)  -->
<svg version="1.1" id="图层_1" xmlns="http://www.w3.org/2000/svg" xmlns:xlink="http://www.w3.org/1999/xlink" x="0px" y="0px"
	 viewBox="0 0 1024 1024" style="enable-background:new 0 0 1024 1024;" xml:space="preserve">
<style type="text/css">
	.st0{fill:none;}
</style>
<title>meh-fill</title>
<desc>Created with Sketch.</desc>
<g>
	<path class="st0" d="M664,565H360c-4.4,0-8,3.6-8,8v48c0,4.4,3.6,8,8,8h304c4.4,0,8-3.6,8-8v-48C672,568.6,668.4,565,664,565z"/>
	<path class="st0" d="M384,421c0-26.5-21.5-48-48-48s-48,21.5-48,48s21.5,48,48,48S384,447.5,384,421z"/>
	<path class="st0" d="M688,373c-26.5,0-48,21.5-48,48s21.5,48,48,48s48-21.5,48-48S714.5,373,688,373z"/>
	<path d="M512,64C264.6,64,64,264.6,64,512s200.6,448,448,448s448-200.6,448-448S759.4,64,512,64z M288,421c0-26.5,21.5-48,48-48
		s48,21.5,48,48s-21.5,48-48,48S288,447.5,288,421z M672,621c0,4.4-3.6,8-8,8H360c-4.4,0-8-3.6-8-8v-48c0-4.4,3.6-8,8-8h304
		c4.4,0,8,3.6,8,8V621z M688,469c-26.5,0-48-21.5-48-48s21.5-48,48-48s48,21.5,48,48S714.5,469,688,469z"/>
</g>
</svg>
