<?xml version="1.0" encoding="utf-8"?>
<!-- Generator: Adobe Illustrator 21.0.0, SVG Export Plug-In . SVG Version: 6.00 Build 0)  -->
<svg version="1.1" id="图层_1" xmlns="http://www.w3.org/2000/svg" xmlns:xlink="http://www.w3.org/1999/xlink" x="0px" y="0px"
	 viewBox="0 0 1024 1024" style="enable-background:new 0 0 1024 1024;" xml:space="preserve">
<style type="text/css">
	.st0{fill:none;}
</style>
<title>money collect</title>
<desc>Created with Sketch.</desc>
<g>
	<path class="st0" d="M256,184v560.4l256,93.1l256-93.1V184H256z M667.6,323.8L564,515.4h57.6c4.4,0,8,3.6,8,8v27.1c0,4.4-3.6,8-8,8
		h-76.3v39h76.3c4.4,0,8,3.6,8,8v27.1c0,4.4-3.6,8-8,8h-76.3V704c0,4.4-3.6,8-8,8h-49.9c-4.4,0-8-3.6-8-8v-63.5h-76
		c-4.4,0-8-3.6-8-8v-27.1c0-4.4,3.6-8,8-8h76v-39h-76c-4.4,0-8-3.6-8-8v-27.1c0-4.4,3.6-8,8-8h57L356.4,323.8
		c-2.1-3.9-0.7-8.7,3.2-10.8c1.2-0.6,2.5-1,3.8-1h55.7c3,0,5.8,1.7,7.1,4.4L511,485.2h3.2l84.7-168.8c1.4-2.7,4.1-4.4,7.1-4.4h54.5
		c4.4,0,8,3.6,8,8C668.6,321.3,668.2,322.6,667.6,323.8z"/>
	<path d="M911.5,700.7c-1.5-4.2-6.1-6.3-10.3-4.8L840,718.2V180c0-37.6-30.4-68-68-68H252c-37.6,0-68,30.4-68,68v538.2l-61.3-22.3
		c-0.9-0.3-1.8-0.5-2.7-0.5c-4.4,0-8,3.6-8,8V763c0,3.3,2.1,6.3,5.3,7.5L501,910.1c7.1,2.6,14.8,2.6,21.9,0l383.8-139.5
		c3.2-1.2,5.3-4.2,5.3-7.5v-59.6C912,702.5,911.8,701.6,911.5,700.7z M512,837.5l-256-93.1V184h512v560.4L512,837.5z"/>
	<path d="M660.6,312h-54.5c-3,0-5.8,1.7-7.1,4.4l-84.7,168.8H511l-84.7-168.8c-1.4-2.7-4.1-4.4-7.1-4.4h-55.7c-1.3,0-2.6,0.3-3.8,1
		c-3.9,2.1-5.3,7-3.2,10.8l103.9,191.6h-57c-4.4,0-8,3.6-8,8v27.1c0,4.4,3.6,8,8,8h76v39h-76c-4.4,0-8,3.6-8,8v27.1c0,4.4,3.6,8,8,8
		h76V704c0,4.4,3.6,8,8,8h49.9c4.4,0,8-3.6,8-8v-63.5h76.3c4.4,0,8-3.6,8-8v-27.1c0-4.4-3.6-8-8-8h-76.3v-39h76.3c4.4,0,8-3.6,8-8
		v-27.1c0-4.4-3.6-8-8-8H564l103.7-191.6c0.6-1.2,1-2.5,1-3.8C668.6,315.6,665,312,660.6,312z"/>
</g>
</svg>
