<?xml version="1.0" encoding="utf-8"?>
<!-- Generator: Adobe Illustrator 21.0.0, SVG Export Plug-In . SVG Version: 6.00 Build 0)  -->
<svg version="1.1" id="图层_1" xmlns="http://www.w3.org/2000/svg" xmlns:xlink="http://www.w3.org/1999/xlink" x="0px" y="0px"
	 viewBox="0 0 1024 1024" style="enable-background:new 0 0 1024 1024;" xml:space="preserve">
<style type="text/css">
	.st0{fill:none;}
</style>
<title>monitor</title>
<desc>Created with Sketch.</desc>
<g>
	<path class="st0" d="M769.2,254.8C726.2,211.7,668.9,188,608,188s-118.2,23.7-161.2,66.8C403.7,297.8,380,355.1,380,416
		s23.7,118.2,66.8,161.2C489.8,620.3,547.1,644,608,644s118.2-23.7,161.2-66.8C812.3,534.2,836,476.9,836,416
		S812.3,297.8,769.2,254.8z M755.5,505.9l-37.9,29.6c-3.5,2.7-8.5,2.1-11.2-1.4l-64.1-82l-50.4,39.3c-3.5,2.7-8.5,2.1-11.2-1.4
		L546,445.8l0.2-0.1l-70.5-90.2c-2.7-3.5-2.1-8.5,1.4-11.2l37.9-29.7c3.5-2.7,8.5-2.1,11.2,1.4l70.5,90.2l50.4-39.3
		c3.5-2.7,8.5-2.1,11.2,1.4l34.6,44.3l-0.2,0.2l64.1,82C759.6,498.2,759,503.2,755.5,505.9z"/>
	<path d="M692.8,412.7l0.2-0.2l-34.6-44.3c-2.7-3.5-7.7-4.1-11.2-1.4l-50.4,39.3L526.3,316c-2.7-3.5-7.7-4.1-11.2-1.4l-37.9,29.7
		c-3.5,2.7-4.1,7.7-1.4,11.2l70.5,90.2l-0.2,0.1l34.6,44.3c2.7,3.5,7.7,4.1,11.2,1.4l50.4-39.3l64.1,82c2.7,3.5,7.7,4.1,11.2,1.4
		l37.9-29.6c3.5-2.7,4.1-7.7,1.4-11.2L692.8,412.7z"/>
	<path d="M608,112c-167.9,0-304,136.1-304,304c0,70.3,23.9,135,63.9,186.5L114.3,856.1c-3.1,3.1-3.1,8.2,0,11.3l42.3,42.3
		c3.1,3.1,8.2,3.1,11.3,0l253.6-253.6C473,696.1,537.7,720,608,720c167.9,0,304-136.1,304-304S775.9,112,608,112z M769.2,577.2
		C726.2,620.3,668.9,644,608,644s-118.2-23.7-161.2-66.8C403.7,534.2,380,476.9,380,416s23.7-118.2,66.8-161.2
		C489.8,211.7,547.1,188,608,188s118.2,23.7,161.2,66.8C812.3,297.8,836,355.1,836,416S812.3,534.2,769.2,577.2z"/>
</g>
</svg>
