<?xml version="1.0" encoding="utf-8"?>
<!-- Generator: Adobe Illustrator 21.0.0, SVG Export Plug-In . SVG Version: 6.00 Build 0)  -->
<svg version="1.1" id="图层_1" xmlns="http://www.w3.org/2000/svg" xmlns:xlink="http://www.w3.org/1999/xlink" x="0px" y="0px"
	 viewBox="0 0 1024 1024" style="enable-background:new 0 0 1024 1024;" xml:space="preserve">
<style type="text/css">
	.st0{fill:none;}
</style>
<title>mr</title>
<desc>Created with Sketch.</desc>
<g>
	<path class="st0" d="M272,260c26.5,0,48-21.5,48-48s-21.5-48-48-48s-48,21.5-48,48S245.5,260,272,260z"/>
	<path class="st0" d="M272,764c-26.5,0-48,21.5-48,48s21.5,48,48,48s48-21.5,48-48S298.5,764,272,764z"/>
	<path class="st0" d="M752,764c-26.5,0-48,21.5-48,48s21.5,48,48,48s48-21.5,48-48S778.5,764,752,764z"/>
	<path d="M788,705.9V240v-28v-20c0-8.8-7.2-16-16-16H602v-68.8c0-6-7-9.4-11.7-5.7L462.7,202.3c-3.7,2.9-3.7,8.5,0,11.3l127.5,100.8
		c4.7,3.7,11.7,0.4,11.7-5.7V240h114v465.9c-44.2,15-76,56.9-76,106.1c0,61.8,50.2,112,112,112s112-50.2,112-112
		C864,762.8,832.2,721,788,705.9z M752,860c-26.5,0-48-21.5-48-48s21.5-48,48-48s48,21.5,48,48S778.5,860,752,860z"/>
	<path d="M384,212c0-61.8-50.2-112-112-112s-112,50.2-112,112c0,49.2,31.8,91,76,106.1v387.9c-44.2,15-76,56.9-76,106.1
		c0,61.8,50.2,112,112,112s112-50.2,112-112c0-49.2-31.8-91-76-106.1V318.1C352.2,303,384,261.2,384,212z M224,212
		c0-26.5,21.5-48,48-48s48,21.5,48,48s-21.5,48-48,48S224,238.5,224,212z M320,812c0,26.5-21.5,48-48,48s-48-21.5-48-48
		s21.5-48,48-48S320,785.5,320,812z"/>
</g>
</svg>
