<?xml version="1.0" encoding="utf-8"?>
<!-- Generator: Adobe Illustrator 21.0.0, SVG Export Plug-In . SVG Version: 6.00 Build 0)  -->
<svg version="1.1" id="图层_1" xmlns="http://www.w3.org/2000/svg" xmlns:xlink="http://www.w3.org/1999/xlink" x="0px" y="0px"
	 viewBox="0 0 1024 1024" style="enable-background:new 0 0 1024 1024;" xml:space="preserve">
<style type="text/css">
	.st0{fill:none;}
</style>
<title>notification</title>
<desc>Created with Sketch.</desc>
<g>
	<polygon class="st0" points="305.9,417.9 292,417.9 184,417.9 184,606.1 292,606.1 305.9,606.1 318.8,611.3 840,820.7 840,203.3 
		318.8,412.7 	"/>
	<path class="st0" d="M296,714.5c0,26.4,21.5,47.8,48,47.8c25.2,0,45.9-19.5,47.8-44.1L307,684.1C299.9,692.6,296,703.3,296,714.5z"
		/>
	<path d="M880,112c-3.8,0-7.7,0.7-11.6,2.3L292,345.9H128c-8.8,0-16,7.4-16,16.6v299c0,9.2,7.2,16.6,16,16.6h101.7
		c-3.7,11.6-5.7,23.9-5.7,36.4c0,65.9,53.8,119.5,120,119.5c55.4,0,102.1-37.6,115.9-88.4l408.6,164.2c3.9,1.5,7.8,2.3,11.6,2.3
		c16.9,0,32-14.2,32-33.2V145.2C912,126.2,897,112,880,112z M344,762.3c-26.5,0-48-21.4-48-47.8c0-11.2,3.9-21.9,11-30.4l84.9,34.1
		C389.9,742.8,369.2,762.3,344,762.3z M840,820.7L318.8,611.3l-12.9-5.2H292H184V417.9h108h13.9l12.9-5.2L840,203.3V820.7z"/>
</g>
</svg>
