<?xml version="1.0" encoding="utf-8"?>
<!-- Generator: Adobe Illustrator 21.0.0, SVG Export Plug-In . SVG Version: 6.00 Build 0)  -->
<svg version="1.1" id="图层_1" xmlns="http://www.w3.org/2000/svg" xmlns:xlink="http://www.w3.org/1999/xlink" x="0px" y="0px"
	 viewBox="0 0 1024 1024" style="enable-background:new 0 0 1024 1024;" xml:space="preserve">
<style type="text/css">
	.st0{fill:none;}
</style>
<title>number</title>
<desc>Created with Sketch.</desc>
<g>
	<rect x="400" y="394" class="st0" width="228" height="236"/>
	<path d="M872,394c4.4,0,8-3.6,8-8v-60c0-4.4-3.6-8-8-8H708V152c0-4.4-3.6-8-8-8h-64c-4.4,0-8,3.6-8,8v166H400V152c0-4.4-3.6-8-8-8
		h-64c-4.4,0-8,3.6-8,8v166H152c-4.4,0-8,3.6-8,8v60c0,4.4,3.6,8,8,8h168v236H152c-4.4,0-8,3.6-8,8v60c0,4.4,3.6,8,8,8h168v166
		c0,4.4,3.6,8,8,8h64c4.4,0,8-3.6,8-8V706h228v166c0,4.4,3.6,8,8,8h64c4.4,0,8-3.6,8-8V706h164c4.4,0,8-3.6,8-8v-60c0-4.4-3.6-8-8-8
		H708V394H872z M628,630H400V394h228V630z"/>
</g>
</svg>
