<?xml version="1.0" encoding="utf-8"?>
<!-- Generator: Adobe Illustrator 21.0.0, SVG Export Plug-In . SVG Version: 6.00 Build 0)  -->
<svg version="1.1" id="图层_1" xmlns="http://www.w3.org/2000/svg" xmlns:xlink="http://www.w3.org/1999/xlink" x="0px" y="0px"
	 viewBox="0 0 1024 1024" style="enable-background:new 0 0 1024 1024;" xml:space="preserve">
<style type="text/css">
	.st0{fill:none;}
</style>
<title>percentage</title>
<desc>Created with Sketch.</desc>
<g>
	<path class="st0" d="M304,376c39.7,0,72-32.3,72-72s-32.3-72-72-72s-72,32.3-72,72S264.3,376,304,376z"/>
	<path class="st0" d="M720,648c-39.7,0-72,32.3-72,72s32.3,72,72,72s72-32.3,72-72S759.7,648,720,648z"/>
	<path d="M855.7,210.8l-42.4-42.4c-3.1-3.1-8.2-3.1-11.3,0L168.3,801.9c-3.1,3.1-3.1,8.2,0,11.3l42.4,42.4c3.1,3.1,8.2,3.1,11.3,0
		l633.6-633.6C858.8,219,858.8,213.9,855.7,210.8z"/>
	<path d="M304,448c79.4,0,144-64.6,144-144s-64.6-144-144-144s-144,64.6-144,144S224.6,448,304,448z M304,232c39.7,0,72,32.3,72,72
		s-32.3,72-72,72s-72-32.3-72-72S264.3,232,304,232z"/>
	<path d="M720,576c-79.4,0-144,64.6-144,144s64.6,144,144,144s144-64.6,144-144S799.4,576,720,576z M720,792c-39.7,0-72-32.3-72-72
		s32.3-72,72-72s72,32.3,72,72S759.7,792,720,792z"/>
</g>
</svg>
