<?xml version="1.0" encoding="utf-8"?>
<!-- Generator: Adobe Illustrator 21.0.0, SVG Export Plug-In . SVG Version: 6.00 Build 0)  -->
<svg version="1.1" id="图层_1" xmlns="http://www.w3.org/2000/svg" xmlns:xlink="http://www.w3.org/1999/xlink" x="0px" y="0px"
	 viewBox="0 0 1024 1024" style="enable-background:new 0 0 1024 1024;" xml:space="preserve">
<style type="text/css">
	.st0{fill:none;}
</style>
<title>pie chart</title>
<desc>Created with Sketch.</desc>
<g>
	<path class="st0" d="M619.8,147.6v256.6l256.4-0.6C863.2,341,832,283,786.2,237.4C740.5,191.8,682.5,160.6,619.8,147.6z"/>
	<path class="st0" d="M438,221.7c-75.8,7.7-146.1,40.9-200.8,95.5C174.5,379.9,140,463.3,140,552c0,88.7,34.5,172.1,97.2,234.8
		c62.3,62.3,145.1,96.8,233.2,97.2c88.2,0.4,172.7-34.1,235.3-96.2C761,733,794.6,662.3,802.3,586H438V221.7z"/>
	<path d="M864,518H506V160c0-4.4-3.6-8-8-8h-26c-54,0-106.4,10.6-155.7,31.4c-47.6,20.1-90.4,49-127.1,85.7
		c-36.7,36.7-65.6,79.5-85.7,127.1C82.6,445.6,72,498,72,552c0,54,10.6,106.4,31.4,155.7c20.1,47.6,49,90.4,85.7,127.1
		c36.7,36.7,79.5,65.6,127.1,85.7C365.6,941.4,418,952,472,952c54,0,106.4-10.6,155.7-31.4c47.6-20.1,90.4-49,127.1-85.7
		c36.7-36.7,65.6-79.5,85.7-127.1C861.4,658.4,872,606,872,552v-26C872,521.6,868.4,518,864,518z M705.7,787.8
		c-62.6,62.1-147.1,96.6-235.3,96.2c-88.1-0.4-170.9-34.9-233.2-97.2C174.5,724.1,140,640.7,140,552c0-88.7,34.5-172.1,97.2-234.8
		c54.6-54.6,124.9-87.9,200.8-95.5V586h364.3C794.6,662.3,761,733,705.7,787.8z"/>
	<path d="M952,462.4l-2.6-28.2c-8.5-92.1-49.4-179-115.2-244.6C768.4,123.9,681.4,83.1,589,74.6L560.7,72c-4.7-0.4-8.7,3.2-8.7,7.9
		V464c0,4.4,3.6,8,8,8l384-1C948.7,471,952.4,467,952,462.4z M619.8,404.2V147.6c62.6,13.1,120.7,44.2,166.4,89.8
		c45.7,45.6,77,103.6,90,166.1L619.8,404.2z"/>
</g>
</svg>
