<?xml version="1.0" encoding="utf-8"?>
<!-- Generator: Adobe Illustrator 21.0.0, SVG Export Plug-In . SVG Version: 6.00 Build 0)  -->
<svg version="1.1" id="图层_1" xmlns="http://www.w3.org/2000/svg" xmlns:xlink="http://www.w3.org/1999/xlink" x="0px" y="0px"
	 viewBox="0 0 1024 1024" style="enable-background:new 0 0 1024 1024;" xml:space="preserve">
<style type="text/css">
	.st0{fill:none;}
</style>
<title>play-circle-o</title>
<desc>Created with Sketch.</desc>
<g>
	<polygon class="st0" points="461.8,633.1 628.5,512 461.8,390.9 	"/>
	<path class="st0" d="M512,140c-205.4,0-372,166.6-372,372s166.6,372,372,372s372-166.6,372-372S717.4,140,512,140z M719.4,524.9
		l-296.1,215c-10.6,7.7-25.3,0.2-25.3-12.9V297c0-13.1,14.8-20.5,25.3-12.9l296.1,215C728.2,505.5,728.2,518.5,719.4,524.9z"/>
	<path d="M512,64C264.6,64,64,264.6,64,512s200.6,448,448,448s448-200.6,448-448S759.4,64,512,64z M512,884
		c-205.4,0-372-166.6-372-372s166.6-372,372-372s372,166.6,372,372S717.4,884,512,884z"/>
	<path d="M719.4,499.1l-296.1-215c-10.6-7.7-25.3-0.2-25.3,12.9V727c0,13.1,14.8,20.5,25.3,12.9l296.1-215
		C728.2,518.5,728.2,505.5,719.4,499.1z M461.8,633.1V390.9L628.5,512L461.8,633.1z"/>
</g>
</svg>
