<?xml version="1.0" encoding="utf-8"?>
<!-- Generator: Adobe Illustrator 21.0.0, SVG Export Plug-In . SVG Version: 6.00 Build 0)  -->
<svg version="1.1" id="图层_1" xmlns="http://www.w3.org/2000/svg" xmlns:xlink="http://www.w3.org/1999/xlink" x="0px" y="0px"
	 viewBox="0 0 1024 1024" style="enable-background:new 0 0 1024 1024;" xml:space="preserve">
<style type="text/css">
	.st0{fill:none;}
</style>
<title>printer-fill</title>
<desc>Created with Sketch.</desc>
<g>
	<rect x="360" y="568" class="st0" width="304" height="276"/>
	<path class="st0" d="M820,436h-40c-4.4,0-8,3.6-8,8v40c0,4.4,3.6,8,8,8h40c4.4,0,8-3.6,8-8v-40C828,439.6,824.4,436,820,436z"/>
	<path d="M732,120c0-4.4-3.6-8-8-8H300c-4.4,0-8,3.6-8,8v148h440V120z"/>
	<path d="M852,332H732H292H172c-44.2,0-80,35.8-80,80v328c0,17.7,14.3,32,32,32h168v132c0,4.4,3.6,8,8,8h424c4.4,0,8-3.6,8-8V772
		h168c17.7,0,32-14.3,32-32V412C932,367.8,896.2,332,852,332z M664,844H360V568h304V844z M828,484c0,4.4-3.6,8-8,8h-40
		c-4.4,0-8-3.6-8-8v-40c0-4.4,3.6-8,8-8h40c4.4,0,8,3.6,8,8V484z"/>
</g>
</svg>
