<?xml version="1.0" encoding="utf-8"?>
<!-- Generator: Adobe Illustrator 21.0.0, SVG Export Plug-In . SVG Version: 6.00 Build 0)  -->
<svg version="1.1" id="图层_1" xmlns="http://www.w3.org/2000/svg" xmlns:xlink="http://www.w3.org/1999/xlink" x="0px" y="0px"
	 viewBox="0 0 1024 1024" style="enable-background:new 0 0 1024 1024;" xml:space="preserve">
<title>pushpin-fill</title>
<desc>Created with Sketch.</desc>
<path d="M878.3,392.1L631.9,145.7c-6.5-6.5-15-9.7-23.5-9.7c-8.5,0-17,3.2-23.5,9.7L423.8,306.9c-12.2-1.4-24.5-2-36.8-2
	c-73.2,0-146.4,24.1-206.5,72.3c-15.4,12.3-16.6,35.4-2.7,49.4l181.7,181.7L144.1,823.5c-2.6,2.6-4.3,6.1-4.6,9.8l-3.4,37.2
	c-0.9,9.4,6.6,17.4,15.9,17.4c0.5,0,1,0,1.5-0.1l37.2-3.4c3.7-0.3,7.2-2,9.8-4.6l215.4-215.4l181.7,181.7c6.5,6.5,15,9.7,23.5,9.7
	c9.7,0,19.3-4.2,25.9-12.4c56.3-70.3,79.7-158.3,70.2-243.4l161.1-161.1C891.2,426.1,891.2,405.1,878.3,392.1z"/>
</svg>
