<?xml version="1.0" encoding="utf-8"?>
<!-- Generator: Adobe Illustrator 21.0.0, SVG Export Plug-In . SVG Version: 6.00 Build 0)  -->
<svg version="1.1" id="图层_1" xmlns="http://www.w3.org/2000/svg" xmlns:xlink="http://www.w3.org/1999/xlink" x="0px" y="0px"
	 viewBox="0 0 1024 1024" style="enable-background:new 0 0 1024 1024;" xml:space="preserve">
<title>QQ</title>
<desc>Created with Sketch.</desc>
<path d="M824.8,613.2c-16-51.4-34.4-94.6-62.7-165.3C766.5,262.2,689.3,112,511.5,112C331.7,112,256.2,265.2,261,447.9
	c-28.4,70.8-46.7,113.7-62.7,165.3c-34,109.5-23,154.8-14.6,155.8c18,2.2,70.1-82.4,70.1-82.4c0,49,25.2,112.9,79.8,159
	c-26.4,8.1-85.7,29.9-71.6,53.8c11.4,19.3,196.2,12.3,249.5,6.3c53.3,6,238.1,13,249.5-6.3c14.1-23.8-45.3-45.7-71.6-53.8
	c54.6-46.2,79.8-110.1,79.8-159c0,0,52.1,84.6,70.1,82.4C847.8,767.9,858.8,722.6,824.8,613.2z"/>
</svg>
