<?xml version="1.0" encoding="utf-8"?>
<!-- Generator: Adobe Illustrator 21.0.0, SVG Export Plug-In . SVG Version: 6.00 Build 0)  -->
<svg version="1.1" id="图层_1" xmlns="http://www.w3.org/2000/svg" xmlns:xlink="http://www.w3.org/1999/xlink" x="0px" y="0px"
	 viewBox="0 0 1024 1024" style="enable-background:new 0 0 1024 1024;" xml:space="preserve">
<style type="text/css">
	.st0{fill:none;}
</style>
<title>qrcode</title>
<desc>Created with Sketch.</desc>
<g>
	<path class="st0" d="M192,832h220V612H192V832z M266,694c0-4.4,3.6-8,8-8h56c4.4,0,8,3.6,8,8v56c0,4.4-3.6,8-8,8h-56
		c-4.4,0-8-3.6-8-8V694z"/>
	<path class="st0" d="M192,412h220V192H192V412z M266,274c0-4.4,3.6-8,8-8h56c4.4,0,8,3.6,8,8v56c0,4.4-3.6,8-8,8h-56
		c-4.4,0-8-3.6-8-8V274z"/>
	<path class="st0" d="M612,412h220V192H612V412z M686,274c0-4.4,3.6-8,8-8h56c4.4,0,8,3.6,8,8v56c0,4.4-3.6,8-8,8h-56
		c-4.4,0-8-3.6-8-8V274z"/>
	<path d="M468,128H160c-17.7,0-32,14.3-32,32v308c0,4.4,3.6,8,8,8h332c4.4,0,8-3.6,8-8V136C476,131.6,472.4,128,468,128z M412,412
		H192V192h220V412z"/>
	<path d="M274,338h56c4.4,0,8-3.6,8-8v-56c0-4.4-3.6-8-8-8h-56c-4.4,0-8,3.6-8,8v56C266,334.4,269.6,338,274,338z"/>
	<path d="M468,548H136c-4.4,0-8,3.6-8,8v308c0,17.7,14.3,32,32,32h308c4.4,0,8-3.6,8-8V556C476,551.6,472.4,548,468,548z M412,832
		H192V612h220V832z"/>
	<path d="M274,758h56c4.4,0,8-3.6,8-8v-56c0-4.4-3.6-8-8-8h-56c-4.4,0-8,3.6-8,8v56C266,754.4,269.6,758,274,758z"/>
	<path d="M864,128H556c-4.4,0-8,3.6-8,8v332c0,4.4,3.6,8,8,8h332c4.4,0,8-3.6,8-8V160C896,142.3,881.7,128,864,128z M832,412H612
		V192h220V412z"/>
	<path d="M694,338h56c4.4,0,8-3.6,8-8v-56c0-4.4-3.6-8-8-8h-56c-4.4,0-8,3.6-8,8v56C686,334.4,689.6,338,694,338z"/>
	<path d="M888,548h-48c-4.4,0-8,3.6-8,8v134h-78v-54v-80c0-4.4-3.6-8-8-8h-48h-94h-48c-4.4,0-8,3.6-8,8v80v252c0,4.4,3.6,8,8,8h48
		c4.4,0,8-3.6,8-8V644h78v54v48c0,4.4,3.6,8,8,8h48h94h48c4.4,0,8-3.6,8-8v-48V556C896,551.6,892.4,548,888,548z"/>
	<path d="M746,832h-48c-4.4,0-8,3.6-8,8v48c0,4.4,3.6,8,8,8h48c4.4,0,8-3.6,8-8v-48C754,835.6,750.4,832,746,832z"/>
	<path d="M888,832h-48c-4.4,0-8,3.6-8,8v48c0,4.4,3.6,8,8,8h48c4.4,0,8-3.6,8-8v-48C896,835.6,892.4,832,888,832z"/>
</g>
</svg>
