<?xml version="1.0" encoding="utf-8"?>
<!-- Generator: Adobe Illustrator 21.0.0, SVG Export Plug-In . SVG Version: 6.00 Build 0)  -->
<svg version="1.1" id="图层_1" xmlns="http://www.w3.org/2000/svg" xmlns:xlink="http://www.w3.org/1999/xlink" x="0px" y="0px"
	 viewBox="0 0 1024 1024" style="enable-background:new 0 0 1024 1024;" xml:space="preserve">
<title>question</title>
<desc>Created with Sketch.</desc>
<g>
	<path d="M764,280.9c-14-30.6-33.9-58.1-59.3-81.6C653.1,151.4,584.6,125,512,125s-141.1,26.4-192.7,74.2
		c-25.4,23.6-45.3,51-59.3,81.7c-14.6,32-22,65.9-22,100.9v27c0,6.2,5,11.2,11.2,11.2h54c6.2,0,11.2-5,11.2-11.2v-27
		c0-99.5,88.6-180.4,197.6-180.4s197.6,80.9,197.6,180.4c0,40.8-14.5,79.2-42,111.2c-27.2,31.7-65.6,54.4-108.1,64
		c-24.3,5.5-46.2,19.2-61.7,38.8c-15.4,19.4-23.9,43.8-23.9,68.6v31.4c0,6.2,5,11.2,11.2,11.2h54c6.2,0,11.2-5,11.2-11.2v-31.4
		c0-15.7,10.9-29.5,26-32.9c58.4-13.2,111.4-44.7,149.3-88.7c19.1-22.3,34-47.1,44.3-74c10.7-27.9,16.1-57.2,16.1-87
		C786,346.8,778.6,312.8,764,280.9z"/>
	<path d="M512,787c-30.9,0-56,25.1-56,56s25.1,56,56,56c30.9,0,56-25.1,56-56S542.9,787,512,787z"/>
</g>
</svg>
