<?xml version="1.0" encoding="utf-8"?>
<!-- Generator: Adobe Illustrator 21.0.0, SVG Export Plug-In . SVG Version: 6.00 Build 0)  -->
<svg version="1.1" id="图层_1" xmlns="http://www.w3.org/2000/svg" xmlns:xlink="http://www.w3.org/1999/xlink" x="0px" y="0px"
	 viewBox="0 0 1024 1024" style="enable-background:new 0 0 1024 1024;" xml:space="preserve">
<style type="text/css">
	.st0{fill:none;}
</style>
<title>red envelope</title>
<desc>Created with Sketch.</desc>
<g>
	<path class="st0" d="M492.3,397.2L232,193.1V888h560V193.1L531.7,397.2C520.2,406.3,503.8,406.3,492.3,397.2z M591.8,458h47.8
		c4.6,0,8.4,3.8,8.4,8.4c0,1.4-0.4,2.8-1,4l-87.2,161h45.9c4.6,0,8.4,3.8,8.4,8.4v25.1c0,4.6-3.8,8.4-8.4,8.4h-63.3v28.6h63.3
		c4.6,0,8.4,3.8,8.4,8.4l0,25c0.2,4.6-3.6,8.5-8.2,8.5h-63.3v49.9c0,4.6-3.8,8.4-8.4,8.4h-43.7c-4.6,0-8.4-3.8-8.4-8.4v-49.9h-63
		c-4.6,0-8.4-3.8-8.4-8.4v-25.1c0-4.6,3.8-8.4,8.4-8.4h63v-28.6h-63c-4.6,0-8.4-3.8-8.4-8.4v-25.1c0-4.6,3.8-8.4,8.4-8.4h45.4
		L377,470.4c-2.2-4.1-0.7-9.1,3.4-11.4c1.3-0.6,2.6-1,3.9-1h48.8c3.2,0,6.1,1.8,7.5,4.6l71.9,141.8l71.9-141.9
		C585.8,459.8,588.7,458,591.8,458z"/>
	<polygon class="st0" points="232,136.7 263.7,136.7 512,331.3 760.3,136.7 792,136.7 792,136 232,136 	"/>
	<path d="M440.6,462.6c-1.4-2.8-4.3-4.6-7.5-4.6h-48.8c-1.3,0-2.6,0.4-3.9,1c-4.1,2.2-5.6,7.3-3.4,11.4l87.4,161.1H419
		c-4.6,0-8.4,3.8-8.4,8.4v25.1c0,4.6,3.8,8.4,8.4,8.4h63v28.6h-63c-4.6,0-8.4,3.8-8.4,8.4v25.1c0,4.6,3.8,8.4,8.4,8.4h63v49.9
		c0,4.6,3.8,8.4,8.4,8.4h43.7c4.6,0,8.4-3.8,8.4-8.4v-49.9h63.3c4.7,0,8.4-3.8,8.2-8.5l0-25c0-4.6-3.8-8.4-8.4-8.4h-63.3v-28.6h63.3
		c4.6,0,8.4-3.8,8.4-8.4v-25.1c0-4.6-3.8-8.4-8.4-8.4h-45.9l87.2-161c0.7-1.2,1-2.6,1-4c0-4.6-3.8-8.4-8.4-8.4h-47.8
		c-3.1,0-6,1.8-7.5,4.6l-71.9,141.9L440.6,462.6z"/>
	<path d="M832,64H192c-17.7,0-32,14.3-32,32v832c0,17.7,14.3,32,32,32h640c17.7,0,32-14.3,32-32V96C864,78.3,849.7,64,832,64z
		 M792,888H232V193.1l260.3,204.1c11.6,9.1,27.9,9.1,39.5,0L792,193.1V888z M792,136.7h-31.7L512,331.3L263.7,136.7H232V136h560
		V136.7z"/>
</g>
</svg>
