<?xml version="1.0" encoding="utf-8"?>
<!-- Generator: Adobe Illustrator 21.0.0, SVG Export Plug-In . SVG Version: 6.00 Build 0)  -->
<svg version="1.1" id="图层_1" xmlns="http://www.w3.org/2000/svg" xmlns:xlink="http://www.w3.org/1999/xlink" x="0px" y="0px"
	 viewBox="0 0 1024 1024" style="enable-background:new 0 0 1024 1024;" xml:space="preserve">
<style type="text/css">
	.st0{fill:none;}
</style>
<title>rest-fill</title>
<desc>Created with Sketch.</desc>
<g>
	<path class="st0" d="M508,416c-79.5,0-144,64.5-144,144s64.5,144,144,144s144-64.5,144-144S587.5,416,508,416z M508,640
		c-44.2,0-80-35.8-80-80c0-44.2,35.8-80,80-80c44.2,0,80,35.8,80,80C588,604.2,552.2,640,508,640z"/>
	<polygon class="st0" points="313.4,180 291,256 733,256 710.6,180 	"/>
	<path d="M832,256h-24h-4.1l-35.7-120.9c-4-13.7-16.5-23.1-30.7-23.1h-451c-14.3,0-26.8,9.4-30.7,23.1L220.1,256H208h-16
		c-17.7,0-32,14.3-32,32v28c0,4.4,3.6,8,8,8h32h13.8l47.7,558.7c1.4,16.6,15.3,29.3,31.9,29.3h429.2c16.6,0,30.5-12.7,31.9-29.3
		L802.2,324H824h32c4.4,0,8-3.6,8-8v-28C864,270.3,849.7,256,832,256z M508,704c-79.5,0-144-64.5-144-144s64.5-144,144-144
		s144,64.5,144,144S587.5,704,508,704z M291,256l22.4-76h397.2l22.4,76H291z"/>
	<circle cx="508" cy="560" r="80"/>
</g>
</svg>
