<?xml version="1.0" encoding="utf-8"?>
<!-- Generator: Adobe Illustrator 21.0.0, SVG Export Plug-In . SVG Version: 6.00 Build 0)  -->
<svg version="1.1" id="图层_1" xmlns="http://www.w3.org/2000/svg" xmlns:xlink="http://www.w3.org/1999/xlink" x="0px" y="0px"
	 viewBox="0 0 1024 1024" style="enable-background:new 0 0 1024 1024;" xml:space="preserve">
<style type="text/css">
	.st0{fill:none;}
</style>
<title>right-square-o</title>
<desc>Created with Sketch.</desc>
<g>
	<path class="st0" d="M184,840h656V184H184V840z M400,643.1c0-10.2,4.9-19.9,13.2-25.9L558.6,512L413.2,406.8
		c-8.3-6-13.2-15.6-13.2-25.9V334c0-6.5,7.4-10.3,12.7-6.5l246,178c4.4,3.2,4.4,9.7,0,12.9l-246,178c-5.3,3.8-12.7,0-12.7-6.5V643.1
		z"/>
	<path d="M412.7,696.5l246-178c4.4-3.2,4.4-9.7,0-12.9l-246-178c-5.3-3.8-12.7,0-12.7,6.5v46.9c0,10.2,4.9,19.9,13.2,25.9L558.6,512
		L413.2,617.2c-8.3,6-13.2,15.6-13.2,25.9V690C400,696.5,407.4,700.3,412.7,696.5z"/>
	<path d="M880,112H144c-17.7,0-32,14.3-32,32v736c0,17.7,14.3,32,32,32h736c17.7,0,32-14.3,32-32V144C912,126.3,897.7,112,880,112z
		 M840,840H184V184h656V840z"/>
</g>
</svg>
