<?xml version="1.0" encoding="utf-8"?>
<!-- Generator: Adobe Illustrator 21.0.0, SVG Export Plug-In . SVG Version: 6.00 Build 0)  -->
<svg version="1.1" id="图层_1" xmlns="http://www.w3.org/2000/svg" xmlns:xlink="http://www.w3.org/1999/xlink" x="0px" y="0px"
	 viewBox="0 0 1024 1024" style="enable-background:new 0 0 1024 1024;" xml:space="preserve">
<title>scan</title>
<desc>Created with Sketch.</desc>
<g>
	<path d="M136,384h56c4.4,0,8-3.6,8-8V200h176c4.4,0,8-3.6,8-8v-56c0-4.4-3.6-8-8-8H196c-37.6,0-68,30.4-68,68v180
		C128,380.4,131.6,384,136,384z"/>
	<path d="M648,200h176v176c0,4.4,3.6,8,8,8h56c4.4,0,8-3.6,8-8V196c0-37.6-30.4-68-68-68H648c-4.4,0-8,3.6-8,8v56
		C640,196.4,643.6,200,648,200z"/>
	<path d="M376,824H200V648c0-4.4-3.6-8-8-8h-56c-4.4,0-8,3.6-8,8v180c0,37.6,30.4,68,68,68h180c4.4,0,8-3.6,8-8v-56
		C384,827.6,380.4,824,376,824z"/>
	<path d="M888,640h-56c-4.4,0-8,3.6-8,8v176H648c-4.4,0-8,3.6-8,8v56c0,4.4,3.6,8,8,8h180c37.6,0,68-30.4,68-68V648
		C896,643.6,892.4,640,888,640z"/>
	<path d="M904,476H120c-4.4,0-8,3.6-8,8v56c0,4.4,3.6,8,8,8h784c4.4,0,8-3.6,8-8v-56C912,479.6,908.4,476,904,476z"/>
</g>
</svg>
