<?xml version="1.0" encoding="utf-8"?>
<!-- Generator: Adobe Illustrator 21.0.0, SVG Export Plug-In . SVG Version: 6.00 Build 0)  -->
<svg version="1.1" id="图层_1" xmlns="http://www.w3.org/2000/svg" xmlns:xlink="http://www.w3.org/1999/xlink" x="0px" y="0px"
	 viewBox="0 0 1024 1024" style="enable-background:new 0 0 1024 1024;" xml:space="preserve">
<style type="text/css">
	.st0{fill:none;}
</style>
<title>security scan-fill</title>
<desc>Created with Sketch.</desc>
<g>
	<path class="st0" d="M423,350.2c-48.5,48.5-55.2,122.9-20.1,178.6l-77.5,77.5c-3.1,3.1-3.1,8.2,0,11.3l34,34
		c3.1,3.1,8.2,3.1,11.3,0l77.5-77.5c55.6,35.1,130.1,28.4,178.6-20.1c56.3-56.3,56.3-147.5,0-203.8
		C570.5,293.9,479.3,293.9,423,350.2z M581.5,508.7c-31.3,31.3-82,31.3-113.3,0s-31.3-82,0-113.3s82-31.3,113.3,0
		S612.8,477.5,581.5,508.7z"/>
	<path d="M866.9,169.9L527.1,54.1C523,52.7,517.5,52,512,52s-11,0.7-15.1,2.1L157.1,169.9c-8.3,2.8-15.1,12.4-15.1,21.2v482.4
		c0,8.8,5.7,20.4,12.6,25.9L499.3,968c3.5,2.7,8,4.1,12.6,4.1c4.6,0,9.2-1.4,12.6-4.1l344.7-268.6c6.9-5.4,12.6-17,12.6-25.9V191.1
		C882,182.3,875.2,172.8,866.9,169.9z M626.8,554c-48.5,48.5-123,55.2-178.6,20.1l-77.5,77.5c-3.1,3.1-8.2,3.1-11.3,0l-34-34
		c-3.1-3.1-3.1-8.2,0-11.3l77.5-77.5c-35.1-55.7-28.4-130.1,20.1-178.6c56.3-56.3,147.5-56.3,203.8,0
		C683.1,406.5,683.1,497.7,626.8,554z"/>
	<ellipse transform="matrix(0.7071 -0.7071 0.7071 0.7071 -165.9432 503.5673)" cx="524.9" cy="452.1" rx="80.1" ry="80.1"/>
</g>
</svg>
