<?xml version="1.0" encoding="utf-8"?>
<!-- Generator: Adobe Illustrator 21.0.0, SVG Export Plug-In . SVG Version: 6.00 Build 0)  -->
<svg version="1.1" id="图层_1" xmlns="http://www.w3.org/2000/svg" xmlns:xlink="http://www.w3.org/1999/xlink" x="0px" y="0px"
	 viewBox="0 0 1024 1024" style="enable-background:new 0 0 1024 1024;" xml:space="preserve">
<style type="text/css">
	.st0{fill:none;}
</style>
<title>share</title>
<desc>Created with Sketch.</desc>
<g>
	<path class="st0" d="M752,292c28.7,0,52-23.3,52-52s-23.3-52-52-52s-52,23.3-52,52S723.3,292,752,292z"/>
	<path class="st0" d="M312,424c-48.5,0-88,39.5-88,88s39.5,88,88,88c48.5,0,88-39.5,88-88S360.5,424,312,424z"/>
	<path class="st0" d="M752,732c-28.7,0-52,23.3-52,52s23.3,52,52,52s52-23.3,52-52S780.7,732,752,732z"/>
	<path d="M752,664c-28.5,0-54.8,10-75.4,26.7L469.4,540.8c1.7-9.3,2.6-19,2.6-28.8s-0.9-19.4-2.6-28.8l207.2-149.9
		C697.2,350,723.5,360,752,360c66.2,0,120-53.8,120-120s-53.8-120-120-120s-120,53.8-120,120c0,11.6,1.6,22.7,4.7,33.3L439.9,415.8
		C410.7,377.1,364.3,352,312,352c-88.4,0-160,71.6-160,160s71.6,160,160,160c52.3,0,98.7-25.1,127.9-63.8l196.8,142.5
		c-3.1,10.6-4.7,21.8-4.7,33.3c0,66.2,53.8,120,120,120s120-53.8,120-120S818.2,664,752,664z M752,188c28.7,0,52,23.3,52,52
		s-23.3,52-52,52s-52-23.3-52-52S723.3,188,752,188z M312,600c-48.5,0-88-39.5-88-88s39.5-88,88-88c48.5,0,88,39.5,88,88
		S360.5,600,312,600z M752,836c-28.7,0-52-23.3-52-52s23.3-52,52-52s52,23.3,52,52S780.7,836,752,836z"/>
</g>
</svg>
