<?xml version="1.0" encoding="utf-8"?>
<!-- Generator: Adobe Illustrator 21.0.0, SVG Export Plug-In . SVG Version: 6.00 Build 0)  -->
<svg version="1.1" id="图层_1" xmlns="http://www.w3.org/2000/svg" xmlns:xlink="http://www.w3.org/1999/xlink" x="0px" y="0px"
	 viewBox="0 0 1024 1024" style="enable-background:new 0 0 1024 1024;" xml:space="preserve">
<style type="text/css">
	.st0{fill:none;}
</style>
<title>shopping</title>
<desc>Created with Sketch.</desc>
<g>
	<path class="st0" d="M696,472c0,4.4-3.6,8-8,8h-56c-4.4,0-8-3.6-8-8v-88H400v88c0,4.4-3.6,8-8,8h-56c-4.4,0-8-3.6-8-8v-88h-96v456
		h560V384h-96V472z"/>
	<path class="st0" d="M624,296c0-61.9-50.1-112-112-112s-112,50.1-112,112v16h224V296z"/>
	<path d="M832,312H696v-16c0-101.6-82.4-184-184-184s-184,82.4-184,184v16H192c-17.7,0-32,14.3-32,32v536c0,17.7,14.3,32,32,32h640
		c17.7,0,32-14.3,32-32V344C864,326.3,849.7,312,832,312z M400,296c0-61.9,50.1-112,112-112s112,50.1,112,112v16H400V296z M792,840
		H232V384h96v88c0,4.4,3.6,8,8,8h56c4.4,0,8-3.6,8-8v-88h224v88c0,4.4,3.6,8,8,8h56c4.4,0,8-3.6,8-8v-88h96V840z"/>
</g>
</svg>
