<?xml version="1.0" encoding="utf-8"?>
<!-- Generator: Adobe Illustrator 21.0.0, SVG Export Plug-In . SVG Version: 6.00 Build 0)  -->
<svg version="1.1" id="图层_1" xmlns="http://www.w3.org/2000/svg" xmlns:xlink="http://www.w3.org/1999/xlink" x="0px" y="0px"
	 viewBox="0 0 1024 1024" style="enable-background:new 0 0 1024 1024;" xml:space="preserve">
<title>shrink</title>
<desc>Created with Sketch.</desc>
<g>
	<path d="M881.7,187.4l-45.1-45.1c-3.1-3.1-8.2-3.1-11.3,0L667.8,299.9l-54.7-54.7c-4.7-4.7-12.7-1.9-13.5,4.7L576.1,439
		c-0.6,5.2,3.7,9.5,8.9,8.9l189.2-23.5c6.6-0.8,9.3-8.8,4.7-13.5l-54.7-54.7l157.6-157.6C884.8,195.6,884.8,190.5,881.7,187.4z"/>
	<path d="M439,576.1l-189.2,23.5c-6.6,0.8-9.3,8.9-4.7,13.5l54.7,54.7L142.3,825.3c-3.1,3.1-3.1,8.2,0,11.3l45.1,45.1
		c3.1,3.1,8.2,3.1,11.3,0l157.6-157.6l54.7,54.7c4.7,4.7,12.7,1.9,13.5-4.7L447.9,585C448.6,579.8,444.2,575.4,439,576.1z"/>
</g>
</svg>
