<?xml version="1.0" encoding="utf-8"?>
<!-- Generator: Adobe Illustrator 21.0.0, SVG Export Plug-In . SVG Version: 6.00 Build 0)  -->
<svg version="1.1" id="图层_1" xmlns="http://www.w3.org/2000/svg" xmlns:xlink="http://www.w3.org/1999/xlink" x="0px" y="0px"
	 viewBox="0 0 1024 1024" style="enable-background:new 0 0 1024 1024;" xml:space="preserve">
<style type="text/css">
	.st0{fill:none;}
</style>
<title>sketch-square-fill</title>
<desc>Created with Sketch.</desc>
<g>
	<path class="st0" d="M658.3,261.9c-1-1.2-2.4-1.9-4-1.9h-24H393.7h-24c-1.6,0-3,0.7-4,1.9L225.1,437.5c-1.6,1.9-1.5,4.7,0.2,6.6
		l282.9,318.1c1,1.1,2.4,1.7,3.8,1.7c1.4,0,2.8-0.6,3.8-1.7l282.9-318.1c1.7-1.9,1.7-4.7,0.2-6.6L658.3,261.9z M603.7,301.1
		l23.1,89.7L538,301.1H603.7z M608.2,423.3H415.8l96.2-97.2L608.2,423.3z M420.3,301.1H486l-88.8,89.7L420.3,301.1z M381.3,308.2
		l-29.6,115.1h-62.5L381.3,308.2z M293.8,459.3h63.4l84.5,166.3L293.8,459.3z M512,684.5L397.6,459.3h228.8L512,684.5z M582.3,625.6
		l84.5-166.3h63.4L582.3,625.6z M672.3,423.3l-29.6-115.1l92.1,115.1H672.3z"/>
	<polygon points="608.2,423.3 512,326.1 415.8,423.3 	"/>
	<polygon points="582.3,625.6 730.2,459.3 666.8,459.3 	"/>
	<polygon points="672.3,423.3 734.8,423.3 642.7,308.2 	"/>
	<path d="M880,112H144c-17.7,0-32,14.3-32,32v736c0,17.7,14.3,32,32,32h736c17.7,0,32-14.3,32-32V144C912,126.3,897.7,112,880,112z
		 M798.7,444.2L515.8,762.3c-1,1.1-2.4,1.7-3.8,1.7c-1.4,0-2.8-0.6-3.8-1.7L225.3,444.2c-1.7-1.9-1.7-4.7-0.2-6.6l140.5-175.6
		c1-1.2,2.4-1.9,4-1.9h24h236.6h24c1.6,0,3,0.7,4,1.9l140.5,175.6C800.4,439.5,800.4,442.3,798.7,444.2z"/>
	<polygon points="397.6,459.3 512,684.5 626.4,459.3 	"/>
	<polygon points="381.3,308.2 289.2,423.3 351.7,423.3 	"/>
	<polygon points="293.8,459.3 441.7,625.6 357.2,459.3 	"/>
	<polygon points="420.3,301.1 397.2,390.9 486,301.1 	"/>
	<polygon points="603.7,301.1 538,301.1 626.8,390.9 	"/>
</g>
</svg>
