<?xml version="1.0" encoding="utf-8"?>
<!-- Generator: Adobe Illustrator 21.0.0, SVG Export Plug-In . SVG Version: 6.00 Build 0)  -->
<svg version="1.1" id="图层_1" xmlns="http://www.w3.org/2000/svg" xmlns:xlink="http://www.w3.org/1999/xlink" x="0px" y="0px"
	 viewBox="0 0 1024 1024" style="enable-background:new 0 0 1024 1024;" xml:space="preserve">
<style type="text/css">
	.st0{fill:none;}
</style>
<title>skype-fill</title>
<desc>Created with Sketch.</desc>
<g>
	<path class="st0" d="M583.4,466.2L495,446.6c-33.6-7.7-72.3-17.8-72.3-49.5c0-31.7,27.1-53.9,76.1-53.9
		c98.7,0,89.7,67.8,138.7,67.8c25.8,0,48.4-15.2,48.4-41.2c0-60.8-97.4-106.5-180-106.5c-89.7,0-185.2,38.1-185.2,139.5
		c0,48.8,17.4,100.8,113.6,124.9l119.4,29.8c36.1,8.9,45.2,29.2,45.2,47.6c0,30.5-30.3,60.3-85.2,60.3
		c-107.2,0-92.3-82.5-149.7-82.5c-25.8,0-44.5,17.8-44.5,43.1c0,49.4,60,115.4,194.2,115.4c127.7,0,191-61.5,191-144
		C704.7,544.3,680.2,487.8,583.4,466.2z"/>
	<path d="M883.7,578.6c4.1-22.5,6.3-45.5,6.3-68.5c0-51-10-100.5-29.7-147c-19-45-46.3-85.4-81-120.1
		c-34.7-34.7-75.1-61.9-120.1-80.9c-46.6-19.7-96-29.7-147-29.7c-24,0-48.1,2.3-71.5,6.8c-32.3-17.1-68.5-26.2-105.1-26.2
		c-59.7,0-115.9,23.3-158.1,65.5c-42.2,42.2-65.5,98.4-65.5,158.1c0,38,9.8,75.4,28.1,108.4c-3.7,21.4-5.7,43.3-5.7,65.1
		c0,51,10,100.5,29.7,147c19,45,46.2,85.4,80.9,120.1c34.7,34.7,75.1,61.9,120.1,80.9c46.6,19.7,96,29.7,147,29.7
		c22.2,0,44.4-2,66.2-5.9c33.5,18.9,71.3,29,110,29c59.7,0,115.9-23.2,158.1-65.5c42.3-42.2,65.5-98.4,65.5-158.1
		C912,649.3,902.2,611.8,883.7,578.6z M513.7,741.5c-134.2,0-194.2-66-194.2-115.4c0-25.4,18.7-43.1,44.5-43.1
		c57.4,0,42.6,82.5,149.7,82.5c54.9,0,85.2-29.8,85.2-60.3c0-18.3-9-38.7-45.2-47.6l-119.4-29.8c-96.1-24.1-113.6-76.1-113.6-124.9
		c0-101.4,95.5-139.5,185.2-139.5c82.6,0,180,45.7,180,106.5c0,26.1-22.6,41.2-48.4,41.2c-49,0-40-67.8-138.7-67.8
		c-49,0-76.1,22.2-76.1,53.9c0,31.7,38.7,41.8,72.3,49.5l88.4,19.6c96.8,21.6,121.3,78.1,121.3,131.3
		C704.7,679.9,641.4,741.5,513.7,741.5z"/>
</g>
</svg>
