<?xml version="1.0" encoding="utf-8"?>
<!-- Generator: Adobe Illustrator 21.0.0, SVG Export Plug-In . SVG Version: 6.00 Build 0)  -->
<svg version="1.1" id="图层_1" xmlns="http://www.w3.org/2000/svg" xmlns:xlink="http://www.w3.org/1999/xlink" x="0px" y="0px"
	 viewBox="0 0 1024 1024" style="enable-background:new 0 0 1024 1024;" xml:space="preserve">
<style type="text/css">
	.st0{fill:none;}
</style>
<title>solution</title>
<desc>Created with Sketch.</desc>
<g>
	<circle class="st0" cx="692" cy="671" r="80"/>
	<path d="M688,264c0-4.4-3.6-8-8-8H296c-4.4,0-8,3.6-8,8v48c0,4.4,3.6,8,8,8h384c4.4,0,8-3.6,8-8V264z"/>
	<path d="M680,400H296c-4.4,0-8,3.6-8,8v48c0,4.4,3.6,8,8,8h384c4.4,0,8-3.6,8-8v-48C688,403.6,684.4,400,680,400z"/>
	<path d="M480,544H296c-4.4,0-8,3.6-8,8v48c0,4.4,3.6,8,8,8h184c4.4,0,8-3.6,8-8v-48C488,547.6,484.4,544,480,544z"/>
	<path d="M432,852H208V148h560v344c0,4.4,3.6,8,8,8h56c4.4,0,8-3.6,8-8V108c0-17.7-14.3-32-32-32H168c-17.7,0-32,14.3-32,32v784
		c0,17.7,14.3,32,32,32h264c4.4,0,8-3.6,8-8v-56C440,855.6,436.4,852,432,852z"/>
	<path d="M788.8,777.6c29-26.3,47.2-64.3,47.2-106.6c0-79.5-64.5-144-144-144s-144,64.5-144,144c0,42.3,18.2,80.3,47.2,106.6
		c-57,32.5-96.2,92.7-99.2,162.1c-0.2,4.5,3.5,8.3,8,8.3h48.1c4.2,0,7.7-3.3,8-7.6C564,871.2,621.7,816,692,816
		s128,55.2,131.9,124.4c0.2,4.2,3.7,7.6,8,7.6H880c4.6,0,8.2-3.8,8-8.3C885.1,870.2,845.8,810.1,788.8,777.6z M692,591
		c44.2,0,80,35.8,80,80s-35.8,80-80,80c-44.2,0-80-35.8-80-80S647.8,591,692,591z"/>
</g>
</svg>
