<?xml version="1.0" encoding="utf-8"?>
<!-- Generator: Adobe Illustrator 21.0.0, SVG Export Plug-In . SVG Version: 6.00 Build 0)  -->
<svg version="1.1" id="图层_1" xmlns="http://www.w3.org/2000/svg" xmlns:xlink="http://www.w3.org/1999/xlink" x="0px" y="0px"
	 viewBox="0 0 1024 1024" style="enable-background:new 0 0 1024 1024;" xml:space="preserve">
<style type="text/css">
	.st0{fill:none;}
	.st1{fill:#050505;}
</style>
<title>sort-ascending</title>
<desc>Created with Sketch.</desc>
<g>
	<polygon class="st0" points="696.1,208.6 663.3,325.5 734.5,325.5 702.4,208.6 	"/>
	<path d="M839.6,433.8L749,150.5c-1.2-3.9-4.8-6.5-8.9-6.5h-77.4c-4.1,0-7.6,2.6-8.9,6.5l-91.3,283.3c-0.3,0.9-0.5,1.9-0.5,2.9
		c0,5.1,4.2,9.3,9.3,9.3h56.4c4.2,0,7.8-2.8,9-6.8l17.5-61.6h89l17.3,61.5c1.1,4,4.8,6.8,9,6.8h61.2c1,0,1.9-0.1,2.8-0.4
		c2.4-0.8,4.3-2.4,5.5-4.6C840.1,438.7,840.3,436.2,839.6,433.8z M663.3,325.5l32.8-116.9h6.3l32.1,116.9H663.3z"/>
	<path class="st1" d="M806.8,818.4H677.2V818l132.6-188.9c1.1-1.6,1.7-3.4,1.7-5.4v-36.4c0-5.1-4.2-9.3-9.3-9.3h-204
		c-5.1,0-9.3,4.2-9.3,9.3v43c0,5.1,4.2,9.3,9.3,9.3h122.6v0.4L587.7,828.9c-1.1,1.6-1.7,3.4-1.7,5.4v36.4c0,5.1,4.2,9.3,9.3,9.3
		h211.4c5.1,0,9.3-4.2,9.3-9.3v-43C816.1,822.6,811.9,818.4,806.8,818.4z"/>
	<path d="M416,702h-76V172c0-4.4-3.6-8-8-8h-56c-4.4,0-8,3.6-8,8v530h-76c-6.7,0-10.5,7.8-6.3,13l112,141.9c3.2,4.1,9.4,4.1,12.6,0
		l112-141.9C426.4,709.8,422.7,702,416,702z"/>
</g>
</svg>
