<?xml version="1.0" encoding="utf-8"?>
<!-- Generator: Adobe Illustrator 21.0.0, SVG Export Plug-In . SVG Version: 6.00 Build 0)  -->
<svg version="1.1" id="图层_1" xmlns="http://www.w3.org/2000/svg" xmlns:xlink="http://www.w3.org/1999/xlink" x="0px" y="0px"
	 viewBox="0 0 1024 1024" style="enable-background:new 0 0 1024 1024;" xml:space="preserve">
<title>star-fill</title>
<desc>Created with Sketch.</desc>
<path d="M908.1,353.1l-253.9-36.9L540.7,86.1c-3.1-6.3-8.2-11.4-14.5-14.5c-15.8-7.8-35-1.3-42.9,14.5L369.8,316.2l-253.9,36.9
	c-7,1-13.4,4.3-18.3,9.3c-12.3,12.7-12.1,32.9,0.6,45.3l183.7,179.1l-43.4,252.9c-1.2,6.9-0.1,14.1,3.2,20.3
	c8.2,15.6,27.6,21.7,43.2,13.4L512,754l227.1,119.4c6.2,3.3,13.4,4.4,20.3,3.2c17.4-3,29.1-19.5,26.1-36.9l-43.4-252.9l183.7-179.1
	c5-4.9,8.3-11.3,9.3-18.3C937.8,371.9,925.6,355.7,908.1,353.1z"/>
</svg>
