<?xml version="1.0" encoding="utf-8"?>
<!-- Generator: Adobe Illustrator 21.0.0, SVG Export Plug-In . SVG Version: 6.00 Build 0)  -->
<svg version="1.1" id="图层_1" xmlns="http://www.w3.org/2000/svg" xmlns:xlink="http://www.w3.org/1999/xlink" x="0px" y="0px"
	 viewBox="0 0 1024 1024" style="enable-background:new 0 0 1024 1024;" xml:space="preserve">
<title>strikethrough</title>
<desc>Created with Sketch.</desc>
<path d="M952,474H569.9c-10-2-20.5-4-31.6-6c-15.9-2.9-22.2-4.1-30.8-5.8c-51.3-10-82.2-20-106.8-34.2
	c-35.1-20.5-52.2-48.3-52.2-85.1c0-37,15.2-67.7,44-89c28.4-21,68.8-32.1,116.8-32.1c54.8,0,97.1,14.4,125.8,42.8
	c14.6,14.4,25.3,32.1,31.8,52.6c1.3,4.1,2.8,10,4.3,17.8c0.9,4.8,5.2,8.2,9.9,8.2h72.8c5.6,0,10.1-4.6,10.1-10.1c0-0.3,0-0.6,0-1
	c-0.7-6.8-1.3-12.1-2-16c-7.3-43.5-28-81.7-59.7-110.3C657.9,165.3,592.6,144,513.6,144c-72.3,0-137.4,18.1-183.3,50.9
	c-25.6,18.4-45.4,41.2-58.6,67.7c-13.5,27.1-20.3,58.4-20.3,92.9c0,29.5,5.7,54.5,17.3,76.5c8.3,15.7,19.6,29.5,34.1,42H72
	c-4.4,0-8,3.6-8,8v60c0,4.4,3.6,8,8,8h433.2c2.1,0.4,3.9,0.8,5.9,1.2c30.9,6.2,49.5,10.4,66.6,15.2c23,6.5,40.6,13.3,55.2,21.5
	c35.8,20.2,53.3,49.2,53.3,89c0,35.3-15.5,66.8-43.6,88.8c-30.5,23.9-75.6,36.4-130.5,36.4c-43.7,0-80.7-8.5-110.2-25
	c-29.1-16.3-49.1-39.8-59.7-69.5c-0.8-2.2-1.7-5.2-2.7-9c-1.2-4.4-5.3-7.5-9.7-7.5h-79.7c-5.6,0-10.1,4.6-10.1,10.1c0,0.3,0,0.7,0,1
	c0.2,2.3,0.4,4.2,0.6,5.7c6.5,48.8,30.3,88.8,70.7,118.8c47.1,34.8,113.4,53.2,191.8,53.2c84.2,0,154.8-19.8,204.2-57.3
	c25-18.9,44.2-42.2,57.1-69c13-27.1,19.7-57.9,19.7-91.5c0-31.8-5.8-58.4-17.8-81.4c-5.8-11.2-13.1-21.5-21.8-30.8H952
	c4.4,0,8-3.6,8-8v-60C960,477.6,956.4,474,952,474z"/>
</svg>
