<?xml version="1.0" encoding="utf-8"?>
<!-- Generator: Adobe Illustrator 21.0.0, SVG Export Plug-In . SVG Version: 6.00 Build 0)  -->
<svg version="1.1" id="图层_1" xmlns="http://www.w3.org/2000/svg" xmlns:xlink="http://www.w3.org/1999/xlink" x="0px" y="0px"
	 viewBox="0 0 1024 1024" style="enable-background:new 0 0 1024 1024;" xml:space="preserve">
<style type="text/css">
	.st0{fill:#020202;}
</style>
<title>swap</title>
<desc>Created with Sketch.</desc>
<g>
	<path class="st0" d="M847.9,592H152c-4.4,0-8,3.6-8,8v60c0,4.4,3.6,8,8,8h605.2L612.9,851c-4.1,5.2-0.4,13,6.3,13h72.5
		c4.9,0,9.5-2.2,12.6-6.1l168.8-214.1C889.6,622.8,874.7,592,847.9,592z"/>
	<path class="st0" d="M872,356H266.8l144.3-183c4.1-5.2,0.4-13-6.3-13h-72.5c-4.9,0-9.5,2.2-12.6,6.1L150.9,380.2
		c-16.5,21-1.6,51.8,25.1,51.8H872c4.4,0,8-3.6,8-8v-60C880,359.6,876.4,356,872,356z"/>
</g>
</svg>
