<?xml version="1.0" encoding="utf-8"?>
<!-- Generator: Adobe Illustrator 21.0.0, SVG Export Plug-In . SVG Version: 6.00 Build 0)  -->
<svg version="1.1" id="图层_1" xmlns="http://www.w3.org/2000/svg" xmlns:xlink="http://www.w3.org/1999/xlink" x="0px" y="0px"
	 viewBox="0 0 1024 1024" style="enable-background:new 0 0 1024 1024;" xml:space="preserve">
<title>twitter</title>
<desc>Created with Sketch.</desc>
<path d="M928,254.3c-30.6,13.2-63.9,22.7-98.2,26.4c35.4-21.1,62.3-54.4,75-94c-32.7,19.5-69.7,33.8-108.2,41.2
	C765.4,194.6,721.1,174,672,174c-94.5,0-170.5,76.6-170.5,170.6c0,13.2,1.6,26.4,4.2,39.1c-141.5-7.4-267.7-75-351.6-178.5
	c-14.8,25.4-23.2,54.4-23.2,86.1c0,59.2,30.1,111.4,76,142.1c-28-1.1-54.4-9-77.1-21.7v2.1c0,82.9,58.6,151.6,136.7,167.4
	c-14.3,3.7-29.6,5.8-44.9,5.8c-11.1,0-21.6-1.1-32.2-2.6c21.6,67.6,84.5,116.7,159.4,118.3c-58.6,45.9-132,72.9-211.7,72.9
	c-14.3,0-27.5-0.5-41.2-2.1C171.5,822,261.2,850,357.8,850C671.4,850,843,590.2,843,364.7c0-7.4,0-14.8-0.5-22.2
	C875.7,318.2,904.8,288.1,928,254.3z"/>
</svg>
