<?xml version="1.0" encoding="utf-8"?>
<!-- Generator: Adobe Illustrator 21.0.0, SVG Export Plug-In . SVG Version: 6.00 Build 0)  -->
<svg version="1.1" id="图层_1" xmlns="http://www.w3.org/2000/svg" xmlns:xlink="http://www.w3.org/1999/xlink" x="0px" y="0px"
	 viewBox="0 0 1024 1024" style="enable-background:new 0 0 1024 1024;" xml:space="preserve">
<style type="text/css">
	.st0{fill:none;}
</style>
<title>user</title>
<desc>Created with Sketch.</desc>
<g>
	<path class="st0" d="M633.6,240.4C601.1,207.9,557.9,190,512,190s-89.1,17.9-121.6,50.4C357.9,272.9,340,316.1,340,362
		c0,45.9,17.9,89.1,50.4,121.6C422.9,516.1,466.1,534,512,534s89.1-17.9,121.6-50.4C666.1,451.1,684,407.9,684,362
		C684,316.1,666.1,272.9,633.6,240.4z"/>
	<path d="M858.5,763.6c-18.9-44.8-46.1-85-80.6-119.5c-34.5-34.5-74.7-61.6-119.5-80.6c-0.4-0.2-0.8-0.3-1.2-0.5
		C719.5,518,760,444.7,760,362c0-137-111-248-248-248S264,225,264,362c0,82.7,40.5,156,102.8,201.1c-0.4,0.2-0.8,0.3-1.2,0.5
		c-44.8,18.9-85,46-119.5,80.6c-34.5,34.5-61.6,74.7-80.6,119.5C146.9,807.5,137,854,136,901.8c-0.1,4.5,3.5,8.2,8,8.2h60
		c4.4,0,7.9-3.5,8-7.8c2-77.2,33-149.5,87.8-204.3c56.7-56.7,132-87.9,212.2-87.9s155.5,31.2,212.2,87.9
		C779,752.7,810,825,812,902.2c0.1,4.4,3.6,7.8,8,7.8h60c4.5,0,8.1-3.7,8-8.2C887,854,877.1,807.5,858.5,763.6z M512,534
		c-45.9,0-89.1-17.9-121.6-50.4C357.9,451.1,340,407.9,340,362c0-45.9,17.9-89.1,50.4-121.6C422.9,207.9,466.1,190,512,190
		s89.1,17.9,121.6,50.4C666.1,272.9,684,316.1,684,362c0,45.9-17.9,89.1-50.4,121.6C601.1,516.1,557.9,534,512,534z"/>
</g>
</svg>
