<?xml version="1.0" encoding="utf-8"?>
<!-- Generator: Adobe Illustrator 21.0.0, SVG Export Plug-In . SVG Version: 6.00 Build 0)  -->
<svg version="1.1" id="图层_1" xmlns="http://www.w3.org/2000/svg" xmlns:xlink="http://www.w3.org/1999/xlink" x="0px" y="0px"
	 viewBox="0 0 1024 1024" style="enable-background:new 0 0 1024 1024;" xml:space="preserve">
<title>vertical left</title>
<desc>Created with Sketch.</desc>
<g>
	<path d="M762,164h-64c-4.4,0-8,3.6-8,8v688c0,4.4,3.6,8,8,8h64c4.4,0,8-3.6,8-8V172C770,167.6,766.4,164,762,164z"/>
	<path d="M254,164v72.4c0,9.5,4.2,18.4,11.4,24.5L564.6,512L265.4,763.1c-7.2,6.1-11.4,15-11.4,24.5V860c0,6.8,7.9,10.5,13.1,6.1
		L689,512L267.1,157.9C261.9,153.5,254,157.2,254,164z"/>
</g>
</svg>
