<?xml version="1.0" encoding="utf-8"?>
<!-- Generator: Adobe Illustrator 21.0.0, SVG Export Plug-In . SVG Version: 6.00 Build 0)  -->
<svg version="1.1" id="图层_1" xmlns="http://www.w3.org/2000/svg" xmlns:xlink="http://www.w3.org/1999/xlink" x="0px" y="0px"
	 viewBox="0 0 1024 1024" style="enable-background:new 0 0 1024 1024;" xml:space="preserve">
<title>vertical-align-bottom</title>
<desc>Created with Sketch.</desc>
<g>
	<path d="M859.9,780H164.1c-4.5,0-8.1,3.6-8.1,8v60c0,4.4,3.6,8,8.1,8h695.8c4.5,0,8.1-3.6,8.1-8v-60C868,783.6,864.4,780,859.9,780
		z"/>
	<path d="M505.7,669c3.2,4.1,9.4,4.1,12.6,0l112-141.7c4.1-5.2,0.4-12.9-6.3-12.9h-74.1V176c0-4.4-3.6-8-8-8h-60c-4.4,0-8,3.6-8,8
		v338.3H400c-6.7,0-10.4,7.7-6.3,12.9L505.7,669z"/>
</g>
</svg>
