<?xml version="1.0" encoding="utf-8"?>
<!-- Generator: Adobe Illustrator 21.0.0, SVG Export Plug-In . SVG Version: 6.00 Build 0)  -->
<svg version="1.1" id="图层_1" xmlns="http://www.w3.org/2000/svg" xmlns:xlink="http://www.w3.org/1999/xlink" x="0px" y="0px"
	 viewBox="0 0 1024 1024" style="enable-background:new 0 0 1024 1024;" xml:space="preserve">
<style type="text/css">
	.st0{fill:none;}
</style>
<title>warning-circle-fill</title>
<desc>Created with Sketch.</desc>
<g>
	<path class="st0" d="M488,576h48c4.4,0,8-3.6,8-8V296c0-4.4-3.6-8-8-8h-48c-4.4,0-8,3.6-8,8v272C480,572.4,483.6,576,488,576z"/>
	<path class="st0" d="M512,640c-26.5,0-48,21.5-48,48s21.5,48,48,48s48-21.5,48-48S538.5,640,512,640z"/>
	<path d="M512,64C264.6,64,64,264.6,64,512s200.6,448,448,448s448-200.6,448-448S759.4,64,512,64z M480,296c0-4.4,3.6-8,8-8h48
		c4.4,0,8,3.6,8,8v272c0,4.4-3.6,8-8,8h-48c-4.4,0-8-3.6-8-8V296z M512,736c-26.5,0-48-21.5-48-48s21.5-48,48-48s48,21.5,48,48
		S538.5,736,512,736z"/>
</g>
</svg>
