<?xml version="1.0" encoding="utf-8"?>
<!-- Generator: Adobe Illustrator 21.0.0, SVG Export Plug-In . SVG Version: 6.00 Build 0)  -->
<svg version="1.1" id="图层_1" xmlns="http://www.w3.org/2000/svg" xmlns:xlink="http://www.w3.org/1999/xlink" x="0px" y="0px"
	 viewBox="0 0 1024 1024" style="enable-background:new 0 0 1024 1024;" xml:space="preserve">
<style type="text/css">
	.st0{fill:none;}
</style>
<title>windows</title>
<desc>Created with Sketch.</desc>
<g>
	<polygon class="st0" points="379.7,276.5 183.5,309 183.5,416.9 379.7,416.9 	"/>
	<polygon class="st0" points="842.5,607.1 587.2,607.1 587.2,779.9 842.5,821.5 	"/>
	<polygon class="st0" points="587.3,416.9 842.5,416.9 842.5,202.8 587.3,245 	"/>
	<polygon class="st0" points="379.7,607.1 183.5,607.1 183.5,716.8 379.7,748.7 	"/>
	<path d="M120.1,770.6L443,823.2V543.8H120.1V770.6z M183.5,607.1h196.2v141.6l-196.2-31.9V607.1z"/>
	<path d="M523.8,833.6l382,62.2v-352h-382V833.6z M587.2,607.1h255.3v214.4l-255.3-41.6V607.1z"/>
	<path d="M523.8,191.4v288.8h382V128.1L523.8,191.4z M842.5,416.9H587.3V245l255.3-42.3V416.9z"/>
	<path d="M120.1,480.2H443V201.9l-322.9,53.5V480.2z M183.5,309l196.2-32.5v140.4H183.5V309z"/>
</g>
</svg>
