<?xml version="1.0" encoding="utf-8"?>
<!-- Generator: Adobe Illustrator 21.0.0, SVG Export Plug-In . SVG Version: 6.00 Build 0)  -->
<svg version="1.1" id="图层_1" xmlns="http://www.w3.org/2000/svg" xmlns:xlink="http://www.w3.org/1999/xlink" x="0px" y="0px"
	 viewBox="0 0 1024 1024" style="enable-background:new 0 0 1024 1024;" xml:space="preserve">
<title>wrench-fill</title>
<desc>Created with Sketch.</desc>
<path d="M865.3,244.7c-0.3-0.3-61.1,59.8-182.1,180.6l-84.9-84.9l180.9-180.9c-95.2-57.3-217.5-42.6-296.8,36.7
	C420.1,258.5,396.8,348.4,419,432l1.8,6.7L137.3,722.1c-6.2,6.2-6.2,16.4,0,22.6l141.4,141.4c6.2,6.2,16.4,6.2,22.6,0l283.3-283.3
	l6.7,1.8c83.7,22.3,173.6-0.9,236-63.3C906.7,462,921.4,339.7,865.3,244.7z"/>
</svg>
