<?xml version="1.0" encoding="utf-8"?>
<!-- Generator: Adobe Illustrator 21.0.0, SVG Export Plug-In . SVG Version: 6.00 Build 0)  -->
<svg version="1.1" id="图层_1" xmlns="http://www.w3.org/2000/svg" xmlns:xlink="http://www.w3.org/1999/xlink" x="0px" y="0px"
	 viewBox="0 0 1024 1024" style="enable-background:new 0 0 1024 1024;" xml:space="preserve">
<style type="text/css">
	.st0{fill:none;}
</style>
<title>yahoo</title>
<desc>Created with Sketch.</desc>
<g>
	<path class="st0" d="M402.6,287c-71.9,0-136.9,21.6-186.2,56.6h157.9v56.3h-37l93.4,93.5l28.1-28.1v-65.3h168.8v56.3h0h-65.3
		L458.9,559.8v65.3h84.4v56.3H318.2v-56.3h84.4v-65.3L242.9,399.9h-37v-48.4c-52.6,41.3-84.9,98.7-84.9,161
		C121,634.6,245.1,738,402.6,738s281.6-103.4,281.6-225.5S560.2,287,402.6,287z"/>
	<path d="M859.9,681.4h-14.1c-27.1,0-49.2,22.2-49.2,49.3v14.1c0,27.1,22.2,49.3,49.2,49.3h14.1c27.1,0,49.2-22.2,49.2-49.3v-14.1
		C909.1,703.6,886.9,681.4,859.9,681.4z"/>
	<path d="M402.6,231C216.2,231,65,357,65,512.5S216.2,794,402.6,794s337.6-126,337.6-281.5S589.1,231,402.6,231z M402.6,738
		C245.1,738,121,634.6,121,512.5c0-62.3,32.3-119.7,84.9-161v48.4h37l159.8,159.9v65.3h-84.4v56.3h225.1v-56.3h-84.4v-65.3
		l103.5-103.6h65.3h0v-56.3H459v65.3l-28.1,28.1l-93.4-93.5h37v-56.3H216.4c49.4-35,114.3-56.6,186.2-56.6
		c157.6,0,281.6,103.4,281.6,225.5S560.2,738,402.6,738z"/>
	<path d="M937.3,231H824.7c-15.5,0-27.7,12.6-27.1,28.1l13.1,366h84.4l65.4-366.4C963.2,243.5,952.7,231,937.3,231z"/>
</g>
</svg>
