<?xml version="1.0" encoding="utf-8"?>
<!-- Generator: Adobe Illustrator 21.0.0, SVG Export Plug-In . SVG Version: 6.00 Build 0)  -->
<svg version="1.1" id="图层_1" xmlns="http://www.w3.org/2000/svg" xmlns:xlink="http://www.w3.org/1999/xlink" x="0px" y="0px"
	 viewBox="0 0 1024 1024" style="enable-background:new 0 0 1024 1024;" xml:space="preserve">
<style type="text/css">
	.st0{fill:none;}
</style>
<title>yahoo-fill</title>
<desc>Created with Sketch.</desc>
<g>
	<polygon class="st0" points="459,465.2 430.8,493.4 337.4,399.9 374.4,399.9 374.4,343.6 205.9,343.6 205.9,399.9 242.9,399.9 
		402.6,559.8 402.6,625.1 318.2,625.1 318.2,681.4 543.3,681.4 543.3,625.1 458.9,625.1 458.9,559.8 562.4,456.2 627.7,456.2 
		627.8,456.2 627.8,399.9 459,399.9 	"/>
	<path d="M937.3,231H824.7c-15.5,0-27.7,12.6-27.1,28.1l13.1,366h84.4l65.4-366.4C963.2,243.5,952.7,231,937.3,231z"/>
	<path d="M859.9,681.4h-14.1c-27.1,0-49.2,22.2-49.2,49.3v14.1c0,27.1,22.2,49.3,49.2,49.3h14.1c27.1,0,49.2-22.2,49.2-49.3v-14.1
		C909.1,703.6,886.9,681.4,859.9,681.4z"/>
	<path d="M402.6,231C216.2,231,65,357,65,512.5S216.2,794,402.6,794s337.6-126,337.6-281.5S589.1,231,402.6,231z M627.8,456.2
		L627.8,456.2h-65.3L458.9,559.8v65.3h84.4v56.3H318.2v-56.3h84.4v-65.3L242.9,399.9h-37v-56.3h168.5v56.3h-37l93.4,93.5l28.1-28.1
		v-65.3h168.8V456.2z"/>
</g>
</svg>
