<?xml version="1.0" encoding="utf-8"?>
<!-- Generator: Adobe Illustrator 21.0.0, SVG Export Plug-In . SVG Version: 6.00 Build 0)  -->
<svg version="1.1" id="图层_1" xmlns="http://www.w3.org/2000/svg" xmlns:xlink="http://www.w3.org/1999/xlink" x="0px" y="0px"
	 viewBox="0 0 1024 1024" style="enable-background:new 0 0 1024 1024;" xml:space="preserve">
<style type="text/css">
	.st0{fill:none;}
</style>
<title>Youtube-fill</title>
<desc>Created with Sketch.</desc>
<g>
	<polygon class="st0" points="423,646 655,511 423,378 	"/>
	<path d="M941.3,296.1c-10.3-38.6-40.7-69-79.2-79.3C792.2,198,512,198,512,198s-280.2,0-350.1,18.7c-38.6,10.3-68.9,40.7-79.2,79.3
		C64,366,64,512,64,512s0,146,18.7,215.9c10.3,38.6,40.7,69,79.2,79.3C231.8,826,512,826,512,826s280.2,0,350.1-18.8
		c38.6-10.3,68.9-40.7,79.2-79.3C960,658,960,512,960,512S960,366,941.3,296.1z M423,646V378l232,133L423,646z"/>
</g>
</svg>
