<?xml version="1.0" encoding="utf-8"?>
<!-- Generator: Adobe Illustrator 21.0.0, SVG Export Plug-In . SVG Version: 6.00 Build 0)  -->
<svg version="1.1" id="图层_1" xmlns="http://www.w3.org/2000/svg" xmlns:xlink="http://www.w3.org/1999/xlink" x="0px" y="0px"
	 viewBox="0 0 1024 1024" style="enable-background:new 0 0 1024 1024;" xml:space="preserve">
<style type="text/css">
	.st0{fill:none;}
</style>
<title>yuque</title>
<desc>Created with Sketch.</desc>
<g>
	<path class="st0" d="M815.8,443.9c-1.4-3.2-8.8-18.6-11-23.3c-5.4-11.9-9.3-22.6-12.3-34.4c-8.5-33.9-4.3-72.7,11.4-107.2l-5-17.7
		c-0.5-1.4-1.3-3.1-2.3-5c-3.2-6.2-7.6-12.7-13.4-18.7c-15.5-16.2-37.7-26.9-71.1-29.2c-25.2-1.7-49.2-2.9-71.7-3.6
		c9.2,35.9,7.5,74-6.2,112.8L633,321l-1.6,3.3c-16.7,34.4-38.3,65.5-69,102.2c-7.2,8.7-14.9,17.5-24.5,28.6
		c-4.2,4.8-20.7,23.5-24.7,28.1l-1.3,1.5l-1.4,1.4c-63.1,71-144.9,163.9-236.9,268.5c-18.9,21.5-37.5,42.6-55.4,63.1
		c62.7,6.6,120.2,3,172.7-9.6c67-16.1,124.3-46.6,171.4-87.6l17.8-15.5l23.6-0.2c20.7-0.2,36.2-0.3,46.8-0.3
		c99.3,0,185.3-87.3,181.9-182.1C831.1,486.9,826.1,466.6,815.8,443.9z"/>
	<path d="M854.6,370.6c-9.9-39.4,9.9-102.2,73.4-124.4l-67.9-3.6c0,0-25.7-90-143.6-98c-117.8-8.1-194.9-3-195-3
		c0.1,0,87.4,55.6,52.4,154.7c-25.6,52.5-65.8,95.6-108.8,144.7c-1.3,1.3-2.5,2.6-3.5,3.7C319.4,605,96,860,96,860
		c245.9,64.4,410.7-6.3,508.2-91.1c20.5-0.2,35.9-0.3,46.3-0.3c135.8,0,250.6-117.6,245.9-248.4C893.2,430.3,864.5,410,854.6,370.6z
		 M650.5,704.6c-10.6,0-26.2,0.1-46.8,0.3l-23.6,0.2l-17.8,15.5c-47.1,41-104.4,71.5-171.4,87.6c-52.5,12.6-110,16.2-172.7,9.6
		c18-20.5,36.5-41.6,55.4-63.1c92-104.6,173.8-197.5,236.9-268.5l1.4-1.4l1.3-1.5c4.1-4.6,20.6-23.3,24.7-28.1
		c9.7-11.1,17.3-19.9,24.5-28.6c30.7-36.7,52.2-67.8,69-102.2l1.6-3.3l1.2-3.4c13.7-38.8,15.4-76.9,6.2-112.8
		c22.5,0.7,46.5,1.9,71.7,3.6c33.3,2.3,55.5,12.9,71.1,29.2c5.8,6,10.2,12.5,13.4,18.7c1,2,1.7,3.6,2.3,5l5,17.7
		c-15.7,34.5-19.9,73.3-11.4,107.2c3,11.8,6.9,22.4,12.3,34.4c2.1,4.7,9.5,20.1,11,23.3c10.3,22.7,15.4,43,16.7,78.7
		C835.8,617.3,749.8,704.6,650.5,704.6z"/>
</g>
</svg>
