<?xml version="1.0" standalone="no"?><!DOCTYPE svg PUBLIC "-//W3C//DTD SVG 1.1//EN" "http://www.w3.org/Graphics/SVG/1.1/DTD/svg11.dtd"><svg class="icon" width="64px" height="64.00px" viewBox="0 0 1024 1024" version="1.1" xmlns="http://www.w3.org/2000/svg"><path fill="#333333" d="M952 224h-52c-4.4 0-8 3.6-8 8v248h-92V304c0-4.4-3.6-8-8-8H448v432h344c4.4 0 8-3.6 8-8V548h92v244c0 4.4 3.6 8 8 8h52c4.4 0 8-3.6 8-8V232c0-4.4-3.6-8-8-8zM224 304v176h-92V232c0-4.4-3.6-8-8-8H72c-4.4 0-8 3.6-8 8v560c0 4.4 3.6 8 8 8h52c4.4 0 8-3.6 8-8V548h92v172c0 4.4 3.6 8 8 8h152V296H232c-4.4 0-8 3.6-8 8z" /></svg>