<?xml version="1.0" standalone="no"?><!DOCTYPE svg PUBLIC "-//W3C//DTD SVG 1.1//EN" "http://www.w3.org/Graphics/SVG/1.1/DTD/svg11.dtd"><svg class="icon" width="64px" height="64.00px" viewBox="0 0 1024 1024" version="1.1" xmlns="http://www.w3.org/2000/svg"><path fill="#333333" d="M371.8 512c0 77.5 62.7 140.2 140.2 140.2S652.2 589.5 652.2 512 589.5 371.8 512 371.8 371.8 434.4 371.8 512zM900 362.4l-234.3 12.1c63.6 74.3 64.6 181.5 11.1 263.7l-188 289.2c78 4.2 158.4-12.9 231.2-55.2 180-104 253-322.1 180-509.8zM320.3 591.9L163.8 284.1C121 349.5 96 428 96 512c0 208 152.3 380.3 351.4 410.8l106.9-209.4c-96.6 18.2-189.9-34.8-234-121.5zM538.8 306.4l344.4 18.1C848 254.7 792.6 194 719.8 151.7 653.9 113.6 581.5 95.5 510.5 96c-122.5 0.5-242.2 55.2-322.1 154.5l128.2 196.9c32-91.9 124.8-146.7 222.2-141z" /></svg>