<?xml version="1.0" standalone="no"?><!DOCTYPE svg PUBLIC "-//W3C//DTD SVG 1.1//EN" "http://www.w3.org/Graphics/SVG/1.1/DTD/svg11.dtd"><svg class="icon" width="64px" height="64.00px" viewBox="0 0 1024 1024" version="1.1" xmlns="http://www.w3.org/2000/svg"><path fill="#333333" d="M880 112H144c-17.7 0-32 14.3-32 32v736c0 17.7 14.3 32 32 32h736c17.7 0 32-14.3 32-32V144c0-17.7-14.3-32-32-32zM676.1 657.9c4.4 5.2 0.7 13.1-6.1 13.1h-58.9c-4.7 0-9.2-2.1-12.3-5.7L512 561.8l-86.8 103.5c-3 3.6-7.5 5.7-12.3 5.7H354c-6.8 0-10.5-7.9-6.1-13.1L470.2 512 347.9 366.1c-4.4-5.2-0.7-13.1 6.1-13.1h58.9c4.7 0 9.2 2.1 12.3 5.7L512 462.2l86.8-103.5c3-3.6 7.5-5.7 12.3-5.7H670c6.8 0 10.5 7.9 6.1 13.1L553.8 512l122.3 145.9z" /></svg>