<?xml version="1.0" standalone="no"?><!DOCTYPE svg PUBLIC "-//W3C//DTD SVG 1.1//EN" "http://www.w3.org/Graphics/SVG/1.1/DTD/svg11.dtd"><svg class="icon" width="64px" height="64.00px" viewBox="0 0 1024 1024" version="1.1" xmlns="http://www.w3.org/2000/svg"><path fill="#333333" d="M512 64C264.6 64 64 264.6 64 512s200.6 448 448 448 448-200.6 448-448S759.4 64 512 64z m243.7 589.2L512 794 268.3 653.2V371.8l110-63.6-0.4-0.2h0.2L512 231l134 77h-0.2l-0.3 0.2 110.1 63.6v281.4zM307.9 536.7l87.6 49.9V681l96.7 55.9V524.8L307.9 418.4zM511.8 384.9L418 331l-91.1 52.6 185.2 107 185.2-106.9-91.4-52.8zM531.8 736.9l97.3-56.2v-94.1l87-49.5V418.5L531.8 525z" /></svg>