<?xml version="1.0" standalone="no"?><!DOCTYPE svg PUBLIC "-//W3C//DTD SVG 1.1//EN" "http://www.w3.org/Graphics/SVG/1.1/DTD/svg11.dtd"><svg class="icon" width="64px" height="64.00px" viewBox="0 0 1024 1024" version="1.1" xmlns="http://www.w3.org/2000/svg"><path fill="#333333" d="M512 64C264.6 64 64 264.6 64 512s200.6 448 448 448 448-200.6 448-448S759.4 64 512 64zM327.3 702.4c-2 0.9-4.4 0-5.3-2.1-0.4-1-0.4-2.2 0-3.2l98.7-225.5 132.1 132.1-225.5 98.7z m375.1-375.1l-98.7 225.5-132.1-132.1L697.1 322c2-0.9 4.4 0 5.3 2.1 0.4 1 0.4 2.1 0 3.2z" /></svg>