<?xml version="1.0" standalone="no"?><!DOCTYPE svg PUBLIC "-//W3C//DTD SVG 1.1//EN" "http://www.w3.org/Graphics/SVG/1.1/DTD/svg11.dtd"><svg class="icon" width="64px" height="64.00px" viewBox="0 0 1024 1024" version="1.1" xmlns="http://www.w3.org/2000/svg"><path fill="#333333" d="M924.8 385.6c-22.6-53.4-54.9-101.3-96-142.4-41.1-41.1-89-73.4-142.4-96C631.1 123.8 572.5 112 512 112s-119.1 11.8-174.4 35.2c-53.4 22.6-101.3 54.9-142.4 96-41.1 41.1-73.4 89-96 142.4C75.8 440.9 64 499.5 64 560c0 132.7 58.3 257.7 159.9 343.1l1.7 1.4c5.8 4.8 13.1 7.5 20.6 7.5h531.7c7.5 0 14.8-2.7 20.6-7.5l1.7-1.4C901.7 817.7 960 692.7 960 560c0-60.5-11.9-119.1-35.2-174.4zM482 232c0-4.4 3.6-8 8-8h44c4.4 0 8 3.6 8 8v80c0 4.4-3.6 8-8 8h-44c-4.4 0-8-3.6-8-8v-80zM270 582c0 4.4-3.6 8-8 8h-80c-4.4 0-8-3.6-8-8v-44c0-4.4 3.6-8 8-8h80c4.4 0 8 3.6 8 8v44z m90.7-204.5l-31.1 31.1c-3.1 3.1-8.2 3.1-11.3 0L261.7 352c-3.1-3.1-3.1-8.2 0-11.3l31.1-31.1c3.1-3.1 8.2-3.1 11.3 0l56.6 56.6c3.1 3.1 3.1 8.2 0 11.3z m291.1 83.6l-84.5 84.5c5 18.7 0.2 39.4-14.5 54.1-21.9 21.9-57.3 21.9-79.2 0-21.9-21.9-21.9-57.3 0-79.2 14.7-14.7 35.4-19.5 54.1-14.5l84.5-84.5c3.1-3.1 8.2-3.1 11.3 0l28.3 28.3c3.1 3.1 3.1 8.1 0 11.3z m43-52.4l-31.1-31.1c-3.1-3.1-3.1-8.2 0-11.3l56.6-56.6c3.1-3.1 8.2-3.1 11.3 0l31.1 31.1c3.1 3.1 3.1 8.2 0 11.3l-56.6 56.6c-3.1 3.1-8.2 3.1-11.3 0zM846 582c0 4.4-3.6 8-8 8h-80c-4.4 0-8-3.6-8-8v-44c0-4.4 3.6-8 8-8h80c4.4 0 8 3.6 8 8v44z" /></svg>