<?xml version="1.0" standalone="no"?><!DOCTYPE svg PUBLIC "-//W3C//DTD SVG 1.1//EN" "http://www.w3.org/Graphics/SVG/1.1/DTD/svg11.dtd"><svg class="icon" width="64px" height="64.00px" viewBox="0 0 1024 1024" version="1.1" xmlns="http://www.w3.org/2000/svg"><path fill="#333333" d="M926 164H94c-17.7 0-32 14.3-32 32v640c0 17.7 14.3 32 32 32h832c17.7 0 32-14.3 32-32V196c0-17.7-14.3-32-32-32z m-92.3 194.4l-297 297.2c-3.1 3.1-8.2 3.1-11.3 0L410.9 541.1 238.4 713.7c-3.1 3.1-8.2 3.1-11.3 0l-36.8-36.8c-3.1-3.1-3.1-8.2 0-11.3l214.9-215c3.1-3.1 8.2-3.1 11.3 0L531 565l254.5-254.6c3.1-3.1 8.2-3.1 11.3 0l36.8 36.8c3.2 3 3.2 8.1 0.1 11.2z" /></svg>