<?xml version="1.0" standalone="no"?><!DOCTYPE svg PUBLIC "-//W3C//DTD SVG 1.1//EN" "http://www.w3.org/Graphics/SVG/1.1/DTD/svg11.dtd"><svg class="icon" width="64px" height="64.00px" viewBox="0 0 1024 1024" version="1.1" xmlns="http://www.w3.org/2000/svg"><path fill="#333333" d="M160 894c0 17.7 14.3 32 32 32h286V550H160v344zM546 926h286c17.7 0 32-14.3 32-32V550H546v376zM880 310H732.4c13.6-21.4 21.6-46.8 21.6-74 0-76.1-61.9-138-138-138-41.4 0-78.7 18.4-104 47.4-25.3-29-62.6-47.4-104-47.4-76.1 0-138 61.9-138 138 0 27.2 7.9 52.6 21.6 74H144c-17.7 0-32 14.3-32 32v140h366V310h68v172h366V342c0-17.7-14.3-32-32-32z m-402-4h-70c-38.6 0-70-31.4-70-70s31.4-70 70-70 70 31.4 70 70v70z m138 0h-70v-70c0-38.6 31.4-70 70-70s70 31.4 70 70-31.4 70-70 70z" /></svg>