<?xml version="1.0" standalone="no"?><!DOCTYPE svg PUBLIC "-//W3C//DTD SVG 1.1//EN" "http://www.w3.org/Graphics/SVG/1.1/DTD/svg11.dtd"><svg class="icon" width="64px" height="64.00px" viewBox="0 0 1024 1024" version="1.1" xmlns="http://www.w3.org/2000/svg"><path fill="#333333" d="M880 112H144c-17.7 0-32 14.3-32 32v736c0 17.7 14.3 32 32 32h736c17.7 0 32-14.3 32-32V144c0-17.7-14.3-32-32-32zM548.5 622.8c-43.9 61.8-132.1 79.8-200.9 53.3-69-26.3-118-99.2-112.1-173.5 1.5-90.9 85.2-170.6 176.1-167.5 43.6-2 84.6 16.9 118 43.6-14.3 16.2-29 31.8-44.8 46.3-40.1-27.7-97.2-35.6-137.3-3.6-57.4 39.7-60 133.4-4.8 176.1 53.7 48.7 155.2 24.5 170.1-50.1-33.6-0.5-67.4 0-101-1.1-0.1-20.1-0.2-40.1-0.1-60.2 56.2-0.2 112.5-0.3 168.8 0.2 3.3 47.3-3 97.5-32 136.5zM791 536.5c-16.8 0.2-33.6 0.3-50.4 0.4-0.2 16.8-0.3 33.6-0.3 50.4H690c-0.2-16.8-0.2-33.5-0.3-50.3-16.8-0.2-33.6-0.3-50.4-0.5v-50.1c16.8-0.2 33.6-0.3 50.4-0.3 0.1-16.8 0.3-33.6 0.4-50.4h50.2l0.3 50.4c16.8 0.2 33.6 0.2 50.4 0.3v50.1z" /></svg>