<?xml version="1.0" standalone="no"?><!DOCTYPE svg PUBLIC "-//W3C//DTD SVG 1.1//EN" "http://www.w3.org/Graphics/SVG/1.1/DTD/svg11.dtd"><svg class="icon" width="64px" height="64.00px" viewBox="0 0 1024 1024" version="1.1" xmlns="http://www.w3.org/2000/svg"><path fill="#333333" d="M512 64C264.6 64 64 264.6 64 512s200.6 448 448 448 448-200.6 448-448S759.4 64 512 64z m144.1 454.9L437.7 677.8c-1.4 1-3 1.5-4.7 1.5-4.4 0-8-3.6-8-8V353.7c0-1.7 0.5-3.3 1.5-4.7 2.6-3.6 7.6-4.4 11.2-1.8L656.1 506c0.7 0.5 1.3 1.1 1.8 1.8 2.6 3.5 1.8 8.5-1.8 11.1z" /></svg>