<?xml version="1.0" standalone="no"?><!DOCTYPE svg PUBLIC "-//W3C//DTD SVG 1.1//EN" "http://www.w3.org/Graphics/SVG/1.1/DTD/svg11.dtd"><svg class="icon" width="64px" height="64.00px" viewBox="0 0 1024 1024" version="1.1" xmlns="http://www.w3.org/2000/svg"><path fill="#333333" d="M512 64C264.6 64 64 264.6 64 512s200.6 448 448 448 448-200.6 448-448S759.4 64 512 64z m-80 600c0 4.4-3.6 8-8 8h-48c-4.4 0-8-3.6-8-8V360c0-4.4 3.6-8 8-8h48c4.4 0 8 3.6 8 8v304z m224 0c0 4.4-3.6 8-8 8h-48c-4.4 0-8-3.6-8-8V360c0-4.4 3.6-8 8-8h48c4.4 0 8 3.6 8 8v304z" /></svg>