<?xml version="1.0" standalone="no"?><!DOCTYPE svg PUBLIC "-//W3C//DTD SVG 1.1//EN" "http://www.w3.org/Graphics/SVG/1.1/DTD/svg11.dtd"><svg class="icon" width="64px" height="64.00px" viewBox="0 0 1024 1024" version="1.1" xmlns="http://www.w3.org/2000/svg"><path fill="#333333" d="M832 312H696v-16c0-101.6-82.4-184-184-184s-184 82.4-184 184v16H192c-17.7 0-32 14.3-32 32v536c0 17.7 14.3 32 32 32h640c17.7 0 32-14.3 32-32V344c0-17.7-14.3-32-32-32z m-208 0H400v-16c0-61.9 50.1-112 112-112s112 50.1 112 112v16z" /></svg>