<?xml version="1.0" standalone="no"?><!DOCTYPE svg PUBLIC "-//W3C//DTD SVG 1.1//EN" "http://www.w3.org/Graphics/SVG/1.1/DTD/svg11.dtd"><svg class="icon" width="64px" height="64.00px" viewBox="0 0 1024 1024" version="1.1" xmlns="http://www.w3.org/2000/svg"><path fill="#333333" d="M832 112H724V72c0-4.4-3.6-8-8-8h-56c-4.4 0-8 3.6-8 8v40H500V72c0-4.4-3.6-8-8-8h-56c-4.4 0-8 3.6-8 8v40H320c-17.7 0-32 14.3-32 32v120h-96c-17.7 0-32 14.3-32 32v632c0 17.7 14.3 32 32 32h512c17.7 0 32-14.3 32-32v-96h96c17.7 0 32-14.3 32-32V144c0-17.7-14.3-32-32-32zM664 486H514V336h0.2L664 485.8v0.2z m128 274h-56V456L544 264H360v-80h68v32c0 4.4 3.6 8 8 8h56c4.4 0 8-3.6 8-8v-32h152v32c0 4.4 3.6 8 8 8h56c4.4 0 8-3.6 8-8v-32h68v576z" /></svg>