<?xml version="1.0" standalone="no"?><!DOCTYPE svg PUBLIC "-//W3C//DTD SVG 1.1//EN" "http://www.w3.org/Graphics/SVG/1.1/DTD/svg11.dtd"><svg class="icon" width="64px" height="64.00px" viewBox="0 0 1024 1024" version="1.1" xmlns="http://www.w3.org/2000/svg"><path fill="#333333" d="M880 112H144c-17.7 0-32 14.3-32 32v736c0 17.7 14.3 32 32 32h736c17.7 0 32-14.3 32-32V144c0-17.7-14.3-32-32-32zM727.3 401.7c0.3 4.7 0.3 9.6 0.3 14.4 0 146.8-111.8 315.9-316.1 315.9-63 0-121.4-18.3-170.6-49.8 9 1 17.6 1.4 26.8 1.4 52 0 99.8-17.6 137.9-47.4-48.8-1-89.8-33-103.8-77 17.1 2.5 32.5 2.5 50.1-2-50.8-10.3-88.9-55-88.9-109v-1.4c14.7 8.3 32 13.4 50.1 14.1-30.9-20.6-49.5-55.3-49.5-92.4 0-20.7 5.4-39.6 15.1-56 54.7 67.4 136.9 111.4 229 116.1C492 353.1 548.4 292 616.2 292c32 0 60.8 13.4 81.1 35 25.1-4.7 49.1-14.1 70.5-26.7-8.3 25.7-25.7 47.4-48.8 61.1 22.4-2.4 44-8.6 64-17.3-15.1 22.2-34 41.9-55.7 57.6z" /></svg>