<?xml version="1.0" standalone="no"?><!DOCTYPE svg PUBLIC "-//W3C//DTD SVG 1.1//EN" "http://www.w3.org/Graphics/SVG/1.1/DTD/svg11.dtd"><svg class="icon" width="64px" height="64.00px" viewBox="0 0 1024 1024" version="1.1" xmlns="http://www.w3.org/2000/svg"><path fill="#333333" d="M832 464H332V240c0-30.9 25.1-56 56-56h248c30.9 0 56 25.1 56 56v68c0 4.4 3.6 8 8 8h56c4.4 0 8-3.6 8-8v-68c0-70.7-57.3-128-128-128H388c-70.7 0-128 57.3-128 128v224h-68c-17.7 0-32 14.3-32 32v384c0 17.7 14.3 32 32 32h640c17.7 0 32-14.3 32-32V496c0-17.7-14.3-32-32-32zM540 701v53c0 4.4-3.6 8-8 8h-40c-4.4 0-8-3.6-8-8v-53c-12.1-8.7-20-22.9-20-39 0-26.5 21.5-48 48-48s48 21.5 48 48c0 16.1-7.9 30.3-20 39z" /></svg>