<?xml version="1.0" standalone="no"?><!DOCTYPE svg PUBLIC "-//W3C//DTD SVG 1.1//EN" "http://www.w3.org/Graphics/SVG/1.1/DTD/svg11.dtd"><svg class="icon" width="64px" height="64.00px" viewBox="0 0 1024 1024" version="1.1" xmlns="http://www.w3.org/2000/svg"><path fill="#333333" d="M408 312h48c4.4 0 8-3.6 8-8v-48c0-4.4-3.6-8-8-8h-48c-4.4 0-8 3.6-8 8v48c0 4.4 3.6 8 8 8zM760 432V144c0-17.7-14.3-32-32-32H296c-17.7 0-32 14.3-32 32v288c-66.2 0-120 52.1-120 116v356c0 4.4 3.6 8 8 8h720c4.4 0 8-3.6 8-8V548c0-63.9-53.8-116-120-116z m-72 0H336V184h352v248zM568 312h48c4.4 0 8-3.6 8-8v-48c0-4.4-3.6-8-8-8h-48c-4.4 0-8 3.6-8 8v48c0 4.4 3.6 8 8 8z" /></svg>