<?xml version="1.0" standalone="no"?><!DOCTYPE svg PUBLIC "-//W3C//DTD SVG 1.1//EN" "http://www.w3.org/Graphics/SVG/1.1/DTD/svg11.dtd"><svg class="icon" width="64px" height="64.00px" viewBox="0 0 1024 1024" version="1.1" xmlns="http://www.w3.org/2000/svg"><path fill="#333333" d="M865.3 244.7c-0.3-0.3-61.1 59.8-182.1 180.6l-84.9-84.9 180.9-180.9c-95.2-57.3-217.5-42.6-296.8 36.7-62.3 62.3-85.6 152.2-63.4 235.8l1.8 6.7-283.5 283.4c-6.2 6.2-6.2 16.4 0 22.6l141.4 141.4c6.2 6.2 16.4 6.2 22.6 0l283.3-283.3 6.7 1.8c83.7 22.3 173.6-0.9 236-63.3 79.4-79.3 94.1-201.6 38-296.6z" /></svg>