<?xml version="1.0" standalone="no"?><!DOCTYPE svg PUBLIC "-//W3C//DTD SVG 1.1//EN" "http://www.w3.org/Graphics/SVG/1.1/DTD/svg11.dtd"><svg class="icon" width="64px" height="64.00px" viewBox="0 0 1024 1024" version="1.1" xmlns="http://www.w3.org/2000/svg"><path fill="#333333" d="M941.3 296.1c-10.3-38.6-40.7-69-79.2-79.3C792.2 198 512 198 512 198s-280.2 0-350.1 18.7C123.3 227 93 257.4 82.7 296 64 366 64 512 64 512s0 146 18.7 215.9c10.3 38.6 40.7 69 79.2 79.3C231.8 826 512 826 512 826s280.2 0 350.1-18.8c38.6-10.3 68.9-40.7 79.2-79.3C960 658 960 512 960 512s0-146-18.7-215.9zM423 646V378l232 133-232 135z" /></svg>